<svg xmlns="http://www.w3.org/2000/svg" viewBox="-0.15 0 32.15 32" fill="white"><path d="M31.708 30.283l-9.717-9.777c1.811-2.169 2.902-4.959 2.902-8.006 0-6.904-5.596-12.5-12.5-12.5s-12.5 5.596-12.5 12.5S5.49 25 12.393 25c3.137 0 6.002-1.158 8.197-3.067l9.703 9.764a1 1 0 0 0 1.414-1.414h.001zm-19.315-7.267A10.52 10.52 0 0 1 1.877 12.5 10.52 10.52 0 0 1 12.393 1.983 10.52 10.52 0 0 1 22.91 12.5a10.52 10.52 0 0 1-10.517 10.516zm.137-18.703l-2.507 2.639.072 1.846 1.587 1.136 1.001 5.711.339-.844.37-7.387.587.032-.286 5.679.888-2.222.257-3.389.029-.563-2.338-2.639zm4.361 1.586l-1.462 1.593-.123 1.604.332-.822.954-.43.298-1.944zm1.892 1.606L16.094 8.71l-3.22 8.03.458 2.614h.244l4.631-9.197.524.264-4.5 8.933h.766l4.6-9.156-.816-2.692zm-10.675.593L6.41 11.207l2.169 8.146h2.937L9.913 10.73l.574-.106 1.625 8.729h.625l-1.591-9.081-3.037-2.174zm11.243 8.17l-2.064-.163-1.563 3.113 2.19-1.151 1.437-1.798zM5.672 15.39l1.332 3.976h.972l-.882-3.307-1.423-.669z"/></svg>
