<svg xmlns="http://www.w3.org/2000/svg" width="29.7cm" height="21cm" viewBox="0 0 841.89 595.28"><defs><style>.cls-1{fill:#FFFFFF;}</style></defs><path class="cls-1" d="M467,271.6a1.65,1.65,0,0,1-2.36-.05,43.94,43.94,0,0,1,62.1-62.1,1.65,1.65,0,0,1,0,2.36h0a1.63,1.63,0,0,1-2.26,0,40.69,40.69,0,0,0-57.49,57.5,1.62,1.62,0,0,1,0,2.25Z"/><path class="cls-1" d="M473.27,265.26a2.18,2.18,0,0,1-3.15-.08,35.65,35.65,0,0,1,50.31-50.31,2.18,2.18,0,0,1,.08,3.15h0a2.19,2.19,0,0,1-3,.07,31.3,31.3,0,0,0-44.17,44.17,2.19,2.19,0,0,1-.07,3Z"/><path class="cls-1" d="M479.56,258.88a2.73,2.73,0,0,1-4.06-.24,27.34,27.34,0,0,1,38.43-38.43,2.73,2.73,0,0,1,.24,4.06h0a2.72,2.72,0,0,1-3.63.18c-10.68-8.54-27.58-5.63-34,8.76,0,.08-.07.16-.1.25a22.26,22.26,0,0,0,3.33,21.79,2.72,2.72,0,0,1-.18,3.63Z"/><path class="cls-1" d="M485.92,252.43a3.26,3.26,0,0,1-5-.51,19,19,0,0,1,26.36-26.36,3.26,3.26,0,0,1,.51,5h0a3.23,3.23,0,0,1-4,.46,12.52,12.52,0,0,0-17.35,17.35,3.22,3.22,0,0,1-.46,4Z"/><path class="cls-1" d="M491.45,247a2.23,2.23,0,0,1-3.52-.46,10.41,10.41,0,0,1,14.18-14.18,2.23,2.23,0,0,1,.46,3.52l-2.18,2.18a2.22,2.22,0,0,1-2.32.53,3,3,0,0,0-3.91,3.91,2.21,2.21,0,0,1-.53,2.32Z"/><path class="cls-1" d="M487.91,296.37a43.63,43.63,0,0,1-29.85-11.69,1.65,1.65,0,0,1-.05-2.36h0a1.64,1.64,0,0,1,2.26,0,40.68,40.68,0,0,0,57.49-57.49,1.63,1.63,0,0,1,0-2.26h0a1.65,1.65,0,0,1,2.36.05,43.94,43.94,0,0,1-32.25,73.79Z"/><path class="cls-1" d="M487.93,288.14a35.38,35.38,0,0,1-23.54-8.88,2.18,2.18,0,0,1-.08-3.15h0a2.19,2.19,0,0,1,3-.07,31.3,31.3,0,0,0,44.16-44.17,2.18,2.18,0,0,1,.08-3h0a2.16,2.16,0,0,1,3.15.08,35.65,35.65,0,0,1-26.77,59.18Z"/><path class="cls-1" d="M488,279.89a27.27,27.27,0,0,1-17.07-6,2.73,2.73,0,0,1-.24-4.06h0a2.72,2.72,0,0,1,3.63-.18,21.91,21.91,0,0,0,30.8-30.79,2.74,2.74,0,0,1,.18-3.64h0a2.73,2.73,0,0,1,4.06.24A27.33,27.33,0,0,1,488,279.89Z"/><path class="cls-1" d="M488,271.66a19.05,19.05,0,0,1-10.6-3.21,3.09,3.09,0,0,1-.48-4.75l.27-.27a3.1,3.1,0,0,1,3.92-.35,12.52,12.52,0,0,0,17.35-17.35,3.1,3.1,0,0,1,.35-3.92l.26-.26a3.1,3.1,0,0,1,4.76.48A19,19,0,0,1,488,271.66Z"/><path class="cls-1" d="M487.89,262.9a10.49,10.49,0,0,1-5.1-1.33,2.23,2.23,0,0,1-.46-3.52l2.18-2.18a2.21,2.21,0,0,1,2.32-.53,3,3,0,0,0,3.91-3.91,2.22,2.22,0,0,1,.53-2.32l2.18-2.18a2.23,2.23,0,0,1,3.52.45,10.41,10.41,0,0,1-9.08,15.52Z"/><rect class="cls-1" x="389.63" y="200.65" width="45.62" height="94.17" rx="3.85"/><rect class="cls-1" x="551.58" y="200.65" width="45.62" height="94.17" rx="3.85"/><path class="cls-1" d="M314.93,275l11.94,18a3.86,3.86,0,0,0,3.21,1.72h36.77a3.85,3.85,0,0,0,3.21-6l-55.13-83.35a3.85,3.85,0,0,0-6.42,0l-55.33,83.34a3.85,3.85,0,0,0,3.21,6h36.93a3.82,3.82,0,0,0,3.2-1.72l12-18.06A3.85,3.85,0,0,1,314.93,275Z"/><path class="cls-1" d="M263.47,341.75v-6.7a.58.58,0,0,1,.58-.58h3.72a.58.58,0,0,1,.59.58v26.28a3.38,3.38,0,0,1-3.7,3.7h-9.47a.58.58,0,0,1-.58-.58v-2.67a.58.58,0,0,1,.58-.58h7.4a.89.89,0,0,0,.88-.88V346.25h-8.28a.58.58,0,0,1-.58-.59v-3.32a.58.58,0,0,1,.58-.59Zm7.14,19.71V335.05a.58.58,0,0,1,.58-.58h3.72a.58.58,0,0,1,.59.58v6.83h8.4a.59.59,0,0,1,.59.59v3.33a.58.58,0,0,1-.59.58h-8.4v13.76c0,.63,0,1.06.79,1.06h4.24a.89.89,0,0,0,.88-.88V360a.58.58,0,0,1,.58-.58h2.61a.58.58,0,0,1,.58.58v2.11a2.92,2.92,0,0,1-2.92,2.92H274Q270.61,364.9,270.61,361.46Z"/><path class="cls-1" d="M304.47,336.31v-1.26a.58.58,0,0,1,.58-.58h4.12a.59.59,0,0,1,.59.58v1.26H322a.59.59,0,0,1,.59.59v2.4a.59.59,0,0,1-.59.58H292.77a.58.58,0,0,1-.58-.58v-2.4a.58.58,0,0,1,.58-.59Zm-9.9,17.88V342.45a.59.59,0,0,1,.59-.59h24.61a.59.59,0,0,1,.59.59v8.36c0,2.67-1,4-3.83,4h-6.79v6.92q.13,3.44-3.3,3.3h-3.78a.58.58,0,0,1-.59-.58v-2.58a.58.58,0,0,1,.59-.58h1.13c.79,0,.93-.22.93-1.19v-5.29h-9.56A.59.59,0,0,1,294.57,354.19Zm4.76-3.22h15.21c1.19,0,1.2-.56,1.19-1.32v-3.82h-16.4Z"/><path class="cls-1" d="M346.66,345.11v-2.66a.59.59,0,0,0-.58-.59h-4.57v-2h1.2a3.82,3.82,0,0,0,3.82-3.82v-1a.58.58,0,0,0-.58-.58h-3.46a.58.58,0,0,0-.59.58,1.25,1.25,0,0,1-1.26,1.26h-8.33a.58.58,0,0,0-.59.59v2.4a.58.58,0,0,0,.59.58h5v2h-5.11a.59.59,0,0,0-.58.59v2.66a.58.58,0,0,0,.58.59h5.11v18.72a.58.58,0,0,0,.58.58h3.06a.59.59,0,0,0,.59-.58V345.7h4.57A.58.58,0,0,0,346.66,345.11Z"/><path class="cls-1" d="M359.36,357v-21.9a.59.59,0,0,0-.59-.58h-3.06a.59.59,0,0,0-.59.58V357h-8a.58.58,0,0,0-.59.58v2.84h-.07a.91.91,0,0,1-.84-.91V347.59A.59.59,0,0,0,345,347h-2.4a.59.59,0,0,0-.59.59l.1,13.4a3.51,3.51,0,0,0,3.51,3.48h.3a.58.58,0,0,0,.58-.58v-2.4H355v3a.58.58,0,0,0,.59.58h3.19a.59.59,0,0,0,.59-.58v-3h1.26a.59.59,0,0,0,.59-.59v-3.39a.58.58,0,0,0-.59-.58Z"/><path class="cls-1" d="M368.43,342.47V336.9a.58.58,0,0,1,.59-.59h2.1l-.29-1.11a.58.58,0,0,1,.56-.73H376a.58.58,0,0,1,.56.4l.48,1.44h3.44l-.32-1.1a.58.58,0,0,1,.56-.74h5a.57.57,0,0,1,.55.38l.53,1.46h2.95l.7-1.51a.59.59,0,0,1,.53-.33h4.8a.59.59,0,0,1,.53.83l-.47,1h2a.58.58,0,0,1,.58.66l0,5.58a.58.58,0,0,1-.58.5h-4a.58.58,0,0,1-.58-.65v-2H373.68v2.06a.58.58,0,0,1-.59.58H369A.58.58,0,0,1,368.43,342.47Zm3.34,1.51H395a.58.58,0,0,1,.58.58v3.17a.59.59,0,0,1-.14.38l-3,3.41h5.93a.58.58,0,0,1,.58.58v2.8a.58.58,0,0,1-.58.58h-5.93v7a2.43,2.43,0,0,1-2.38,2.51H371.79a.58.58,0,0,1-.58-.58v-2.61a.58.58,0,0,1,.58-.58h14.72c.64,0,.79-.22.79-.93v-4.82h-18a.58.58,0,0,1-.58-.58v-2.8a.58.58,0,0,1,.58-.58h18v-.91a1.49,1.49,0,0,1,.34-.95L389.1,348H371.77a.6.6,0,0,1-.59-.59v-2.8A.59.59,0,0,1,371.77,344Z"/><path class="cls-1" d="M407.6,339.43V336.9a.58.58,0,0,1,.58-.59h1a.58.58,0,0,0,.56-.45l.22-.94a.58.58,0,0,1,.57-.45h3a.59.59,0,0,1,.58.69l-.22,1.15h8.47a.59.59,0,0,1,.59.59v2.53a.59.59,0,0,1-.59.58h-4v1.33h4a.59.59,0,0,1,.59.58v2.4a.59.59,0,0,1-.59.58h-3.91l1.19,1.06a1.71,1.71,0,0,0,1.06.4h1.66a.59.59,0,0,1,.59.58v2.54a.59.59,0,0,1-.59.58h-3.52a1.75,1.75,0,0,1-1.19-.47L415.86,348l-1.68,1.62a1.75,1.75,0,0,1-1.22.49h-4.78a.58.58,0,0,1-.58-.58v-2.4a.58.58,0,0,1,.58-.59h2.72a1.14,1.14,0,0,0,.8-.4l1.19-1.19h-4.71a.58.58,0,0,1-.58-.58v-2.4a.58.58,0,0,1,.58-.58h5V340h-5A.58.58,0,0,1,407.6,339.43Zm.58,11.4h28.67a.58.58,0,0,1,.59.58v10.08a3.51,3.51,0,0,1-3.51,3.51l-25.75,0a.58.58,0,0,1-.58-.58v-13A.58.58,0,0,1,408.18,350.83Zm24.23,5.45v-1.62H413v1.62ZM413,359.85v1.64h18.41a.85.85,0,0,0,.85-.85v-.79Zm11.43-24.46h12.44a.58.58,0,0,1,.59.58v10.58a3.51,3.51,0,0,1-3.51,3.51h-9.52a.58.58,0,0,1-.59-.58V336A.58.58,0,0,1,424.45,335.39Zm8.4,4h-4.23v7h3.84q.39,0,.39-.66Z"/><path class="cls-1" d="M492.64,339.48h5.72a.58.58,0,0,0,.59-.58v-2.8a.58.58,0,0,0-.59-.58H486.3a.58.58,0,0,0-.59.58v2.8a.58.58,0,0,0,.59.58h1.53v3a1.66,1.66,0,0,1-1.66,1.66.58.58,0,0,0-.59.59v2.65a.58.58,0,0,0,.59.59h.6v15.8a.58.58,0,0,0,.59.58h7.88a3.5,3.5,0,0,0,3.51-3.49l.06-15a.58.58,0,0,0-.58-.58H492a5.17,5.17,0,0,0,.67-2.56Zm1.55,20a.87.87,0,0,1-.88.87H491.4V349.09h2.79Z"/><path class="cls-1" d="M525,342.4v-5.64a.59.59,0,0,1,.59-.58H537V335a.59.59,0,0,1,.59-.59h3.85a.6.6,0,0,1,.59.59v1.18h12.07a.59.59,0,0,1,.59.63v5.61a.64.64,0,0,1-.61.56h-3.51a.59.59,0,0,1-.59-.62v-2.74H529.76v2.78a.58.58,0,0,1-.58.58h-3.59A.59.59,0,0,1,525,342.4Z"/><path class="cls-1" d="M565.34,365a.58.58,0,0,1-.58-.58V335.06a.58.58,0,0,1,.59-.59h10.2a.58.58,0,0,1,.58.59V344a3,3,0,0,1-2.11,2.78,3.5,3.5,0,0,1,2,3V356a4.38,4.38,0,0,1-4.38,4.38h-2.23v4.11a.58.58,0,0,1-.59.58Zm5.37-19.82c.71.09,1.06-.35,1.06-1.32v-5.7h-2.38v7Zm-1.32,11.74h1.19c.7.09,1.06-.31,1.06-1.19v-7h-2.25Zm7.54-15.67v-4.9a.58.58,0,0,1,.58-.58h5.89V335a.59.59,0,0,1,.59-.58h3.59a.58.58,0,0,1,.58.58v.74h6.16a.58.58,0,0,1,.59.58v4.93a.58.58,0,0,1-.59.59H591a.58.58,0,0,1-.59-.59v-1.68h-9.25v1.65a.59.59,0,0,1-.59.59h-3.06A.58.58,0,0,1,576.93,341.26Zm17.39,5.41H577.51a.59.59,0,0,1-.58-.59v-2.53a.59.59,0,0,1,.58-.59h16.81a.59.59,0,0,1,.59.59v2.53A.59.59,0,0,1,594.32,346.67Zm-17.39,4.64v-2.93a.58.58,0,0,1,.58-.58h16.81a.58.58,0,0,1,.59.58v2.93a.58.58,0,0,1-.59.58h-2.44v7a2.33,2.33,0,0,0,2.33,2.34h1.56a.58.58,0,0,1,.58.58v2.64a.59.59,0,0,1-.58.59h-3.25a5.27,5.27,0,0,1-5.27-5.27v-7.86h-9.74A.58.58,0,0,1,576.93,351.31Z"/><path class="cls-1" d="M295.79,357v1.88a2.34,2.34,0,0,1-2.34,2.34h-.68a.58.58,0,0,0-.58.59v2.62a.58.58,0,0,0,.58.58h2.52a5.25,5.25,0,0,0,5.26-5.26V357a.58.58,0,0,0-.58-.58h-3.59A.58.58,0,0,0,295.79,357Z"/><path class="cls-1" d="M318.57,357v1.88a2.34,2.34,0,0,0,2.34,2.34H322a.59.59,0,0,1,.59.59v2.62a.59.59,0,0,1-.59.58H318.2a4.38,4.38,0,0,1-4.39-4.38V357a.58.58,0,0,1,.59-.58H318A.58.58,0,0,1,318.57,357Z"/><path class="cls-1" d="M333.06,347.6v12.12a1.18,1.18,0,0,1-1.19,1.18h0a.6.6,0,0,0-.59.59v2.42a.59.59,0,0,0,.59.58h1.28a3.58,3.58,0,0,0,3.59-3.59h0V347.6a.58.58,0,0,0-.58-.58h-2.52A.58.58,0,0,0,333.06,347.6Z"/><path class="cls-1" d="M351.69,336.9v3.18a1.35,1.35,0,0,0,1.35,1.35h.75a.58.58,0,0,1,.58.58v2.63a.58.58,0,0,1-.58.58h-2.14a3.8,3.8,0,0,1-3.79-3.8V336.9a.58.58,0,0,1,.58-.58h2.66A.58.58,0,0,1,351.69,336.9Z"/><path class="cls-1" d="M351.69,347.14v3.18a1.35,1.35,0,0,0,1.35,1.35h.75a.58.58,0,0,1,.58.58v2.63a.58.58,0,0,1-.58.58h-2.14a3.8,3.8,0,0,1-3.79-3.8v-4.52a.58.58,0,0,1,.58-.58h2.66A.58.58,0,0,1,351.69,347.14Z"/><path class="cls-1" d="M447.46,343.58h13.85a.58.58,0,0,0,.58-.58v-5.31a.59.59,0,0,0-.58-.59h-3.7a.59.59,0,0,0-.58.59v2.06h-5.22l1.44-4.53a.58.58,0,0,0-.56-.76H449a.58.58,0,0,0-.55.4L447,339.05a2.72,2.72,0,0,0-.14.89V343A.58.58,0,0,0,447.46,343.58Z"/><path class="cls-1" d="M461.36,344.9H447.52a.59.59,0,0,0-.59.59v19.06a.58.58,0,0,0,.59.58h3.59a.58.58,0,0,0,.58-.58v-4.62h5.37V361a.58.58,0,0,1-.59.58h-1.34a.6.6,0,0,0-.59.59v2.4a.59.59,0,0,0,.59.58h4.48A2.33,2.33,0,0,0,462,362.8V345.49A.59.59,0,0,0,461.36,344.9Zm-4.3,11.33h-5.37v-1.81h5.37Zm0-5.51h-5.37v-2h5.37Z"/><path class="cls-1" d="M473.51,349.09a3.51,3.51,0,0,0,3.51-3.51V342a.58.58,0,0,0-.58-.58h-3.33a.58.58,0,0,0-.58.58v2.42a.89.89,0,0,1-.88.88h-3.3a.59.59,0,0,1-.58-.59v-4.25h3.76a5.36,5.36,0,0,0,5.36-5.36v0a.58.58,0,0,0-.58-.58H473a.59.59,0,0,0-.59.58h0a1.54,1.54,0,0,1-1.54,1.55h-3.08v-1.54a.58.58,0,0,0-.59-.58h-3.59a.58.58,0,0,0-.58.58v11.7a2.34,2.34,0,0,0,2.34,2.34h8.16Z"/><path class="cls-1" d="M473.51,365.13a3.51,3.51,0,0,0,3.51-3.5V358a.58.58,0,0,0-.58-.58h-3.33a.58.58,0,0,0-.58.58v2.42a.88.88,0,0,1-.88.88h-3.3a.58.58,0,0,1-.58-.58v-4.56h3.76a5.36,5.36,0,0,0,5.36-5.36v0a.59.59,0,0,0-.58-.59H473a.6.6,0,0,0-.59.59h0a1.54,1.54,0,0,1-1.54,1.54h-3.08v-1.54a.58.58,0,0,0-.59-.58h-3.59a.58.58,0,0,0-.58.58v12a2.33,2.33,0,0,0,2.34,2.33h8.16Z"/><path class="cls-1" d="M515.9,337.85v-2.8a.58.58,0,0,0-.58-.58H500.24a.59.59,0,0,0-.59.58v2.8a.59.59,0,0,0,.59.58h1.4V347h-1.53a.58.58,0,0,0-.59.59v3.29a.58.58,0,0,0,.59.59h1.53v8.45a.88.88,0,0,1-.88.88h-1a.58.58,0,0,0-.59.58v3.05a.59.59,0,0,0,.59.59h3.1a3.51,3.51,0,0,0,3.51-3.51v-10h3v13a.59.59,0,0,0,.58.59h3.73a.59.59,0,0,0,.58-.59v-13h1.6a.58.58,0,0,0,.58-.59v-3.29a.58.58,0,0,0-.58-.59h-1.6v-8.57h1A.58.58,0,0,0,515.9,337.85ZM509.44,347h-3v-8.57h3Z"/><path class="cls-1" d="M533,341.35v1.58a1.46,1.46,0,0,1-1.46,1.46h-5.77a.58.58,0,0,0-.58.58v2.41a.59.59,0,0,0,.58.59h8.62a3.51,3.51,0,0,0,3.5-3.51v-3.11a.58.58,0,0,0-.58-.59h-3.72A.58.58,0,0,0,533,341.35Z"/><path class="cls-1" d="M546.32,341.35v1.58a1.46,1.46,0,0,0,1.46,1.46h5.77a.58.58,0,0,1,.58.58v2.41a.59.59,0,0,1-.58.59h-8.62a3.51,3.51,0,0,1-3.51-3.51v-3.11a.59.59,0,0,1,.59-.59h3.72A.59.59,0,0,1,546.32,341.35Z"/><path class="cls-1" d="M551.69,359v-8.32a.58.58,0,0,0-.59-.59H535.86v-.66a.58.58,0,0,0-.59-.59h-4a.58.58,0,0,0-.58.59v.66h-5a.58.58,0,0,0-.58.59V353a.58.58,0,0,0,.58.59h5v2.29a5,5,0,0,1-5,5h0a.58.58,0,0,0-.58.58v3a.58.58,0,0,0,.58.58h1.12a9,9,0,0,0,9-9v-2.42h10.26v6.74a4.7,4.7,0,0,0,4.69,4.69h4.32a.58.58,0,0,0,.58-.58v-3.11a.58.58,0,0,0-.58-.58h-1.69A1.75,1.75,0,0,1,551.69,359Z"/><path class="cls-1" d="M579.08,353.58v5.28a2.34,2.34,0,0,1-2.34,2.34h-.48a.58.58,0,0,0-.58.59v2.62a.58.58,0,0,0,.58.58h2.31a5.26,5.26,0,0,0,5.27-5.26v-6.15a.6.6,0,0,0-.59-.59h-3.59A.59.59,0,0,0,579.08,353.58Z"/><path class="cls-1" d="M366.28,381.43h-.14a4.5,4.5,0,0,0-2.87,1.15v-.66a.23.23,0,0,0-.23-.23h-2.15a.22.22,0,0,0-.22.23v10.19a.22.22,0,0,0,.22.23H363a.23.23,0,0,0,.23-.23v-5.4a3.25,3.25,0,0,1,.14-1,2.3,2.3,0,0,1,2.37-1.72h.09a1.59,1.59,0,0,1,1.28.47,2.53,2.53,0,0,1,.48,1.82v5.84a.22.22,0,0,0,.22.23H370a.23.23,0,0,0,.23-.23v-6.34a4.52,4.52,0,0,0-1-3.26A3.84,3.84,0,0,0,366.28,381.43Z"/><path class="cls-1" d="M519.06,385a3.2,3.2,0,0,0,.81-.63,3.56,3.56,0,0,0,.84-2.47v-.06q-.39-3.48-4.94-3.71H509.9a.22.22,0,0,0-.22.22v14a.22.22,0,0,0,.22.22h6.27a6.07,6.07,0,0,0,3.75-1,3.87,3.87,0,0,0,1.4-3.14A3.62,3.62,0,0,0,519.06,385Zm-3.63-1h-3.17v-3.56h3.16c2.28.05,2.6.94,2.65,1.58S518,383.94,515.43,384Zm3.24,4.2a1.91,1.91,0,0,1-.64,1.59,3.52,3.52,0,0,1-2.2.56h-3.57v-4.09h3.37C517.59,386.29,518.56,386.91,518.67,388.19Z"/><path class="cls-1" d="M262.56,378.16a.23.23,0,0,0-.21-.14h-2.5a.23.23,0,0,0-.21.13l-5.9,14.07a.22.22,0,0,0,0,.21.23.23,0,0,0,.19.1h2.41a.21.21,0,0,0,.21-.14l1.68-4.26h5.51l1.68,4.26a.23.23,0,0,0,.21.14h2.48a.21.21,0,0,0,.19-.1.22.22,0,0,0,0-.21Zm-3.4,7.67,1.88-4.55,1.82,4.55Z"/><rect class="cls-1" x="270.61" y="378.02" width="2.74" height="14.52" rx="0.23"/><rect class="cls-1" x="403.92" y="378.02" width="2.74" height="14.52" rx="0.23"/><rect class="cls-1" x="540.9" y="378.02" width="2.74" height="14.52" rx="0.23"/><rect class="cls-1" x="560.96" y="378.02" width="2.74" height="14.52" rx="0.23"/><path class="cls-1" d="M581,378h-2.29a.22.22,0,0,0-.22.22V389.3l-5.91-11.16a.24.24,0,0,0-.2-.12h-3.87a.22.22,0,0,0-.23.22v14.07a.22.22,0,0,0,.23.22h2.28a.22.22,0,0,0,.23-.22V381l6,11.4a.21.21,0,0,0,.19.12H581a.22.22,0,0,0,.23-.22V378.24A.22.22,0,0,0,581,378Z"/><rect class="cls-1" x="342.76" y="377.95" width="2.67" height="2.77" rx="0.23"/><rect class="cls-1" x="342.76" y="381.81" width="2.67" height="10.71" rx="0.23"/><rect class="cls-1" x="443.82" y="381.79" width="2.67" height="10.74" rx="0.23"/><rect class="cls-1" x="443.82" y="377.95" width="2.67" height="2.77" rx="0.23"/><path class="cls-1" d="M469,381.79H466.7a.22.22,0,0,0-.22.23v5.66a2.14,2.14,0,1,1-4.27,0V382a.22.22,0,0,0-.22-.23h-2.15a.23.23,0,0,0-.23.23v6.39a4,4,0,0,0,3.94,4.12h.14a4.18,4.18,0,0,0,2.79-1v.83a.22.22,0,0,0,.22.22H469a.23.23,0,0,0,.23-.22V382A.23.23,0,0,0,469,381.79Z"/><path class="cls-1" d="M415.53,381.44h-.14a4.18,4.18,0,0,0-2.79,1.05V382a.23.23,0,0,0-.23-.23h-2.24a.23.23,0,0,0-.23.23v10.29a.23.23,0,0,0,.23.22h2.24a.22.22,0,0,0,.23-.22v-6a2.13,2.13,0,1,1,4.26,0v6a.23.23,0,0,0,.23.22h2.15a.22.22,0,0,0,.22-.22v-6.74A4,4,0,0,0,415.53,381.44Z"/><path class="cls-1" d="M556.46,378h-2.28a.22.22,0,0,0-.23.22v10.17a1.56,1.56,0,0,1-1.51,1.59H551a1.55,1.55,0,0,1-1.51-1.59v-.51a.23.23,0,0,0-.23-.23H547a.22.22,0,0,0-.22.23v.82a3.72,3.72,0,0,0,3.63,3.8h2.64a3.72,3.72,0,0,0,3.64-3.8V378.25a.2.2,0,0,0-.07-.16A.23.23,0,0,0,556.46,378Z"/><path class="cls-1" d="M536.4,390.21h-8.83v-3.89H535a.23.23,0,0,0,.23-.23v-1.87A.23.23,0,0,0,535,384h-7.45v-3.56h8.26a.22.22,0,0,0,.23-.22v-1.88a.22.22,0,0,0-.23-.22H525.22a.22.22,0,0,0-.23.22v14a.22.22,0,0,0,.23.22H536.4a.22.22,0,0,0,.23-.22v-1.87A.23.23,0,0,0,536.4,390.21Z"/><path class="cls-1" d="M479.08,390.22h-1.75a1.27,1.27,0,0,1-1.24-1.3V384.1h2.17a.22.22,0,0,0,.23-.22V382a.23.23,0,0,0-.23-.23h-2.17v-3.55a.22.22,0,0,0-.22-.22h-2.29a.23.23,0,0,0-.23.22v3.55h-1.29a.23.23,0,0,0-.23.23v1.86a.22.22,0,0,0,.23.22h1.29v5.36a3,3,0,0,0,2.95,3.07h2.78a.22.22,0,0,0,.22-.22v-1.86A.23.23,0,0,0,479.08,390.22Z"/><path class="cls-1" d="M456.93,390.22h-1.75a1.27,1.27,0,0,1-1.24-1.3V384.1h2.17a.22.22,0,0,0,.23-.22V382a.23.23,0,0,0-.23-.23h-2.17v-3.55a.22.22,0,0,0-.22-.22h-2.29a.23.23,0,0,0-.23.22v3.55h-1.29a.23.23,0,0,0-.23.23v1.86a.22.22,0,0,0,.23.22h1.29v5.36a3,3,0,0,0,2.95,3.07h2.78a.22.22,0,0,0,.22-.22v-1.86A.23.23,0,0,0,456.93,390.22Z"/><path class="cls-1" d="M440.66,390.22h-1.74a1.27,1.27,0,0,1-1.24-1.3V384.1h2.17a.22.22,0,0,0,.22-.22V382a.22.22,0,0,0-.22-.23h-2.17v-3.55a.22.22,0,0,0-.23-.22h-2.29a.22.22,0,0,0-.22.22v3.55h-1.3a.22.22,0,0,0-.22.23v1.86a.22.22,0,0,0,.22.22h1.3v5.36a3,3,0,0,0,2.94,3.07h2.78a.22.22,0,0,0,.23-.22v-1.86A.23.23,0,0,0,440.66,390.22Z"/><path class="cls-1" d="M598.16,384h-5.88a.23.23,0,0,0-.23.23v2a.22.22,0,0,0,.23.22h3.64v.28a3.14,3.14,0,0,1-3.06,3.22h-1.69a3.81,3.81,0,0,1-3.71-3.9v-1.61a3.81,3.81,0,0,1,3.71-3.9h1a3.66,3.66,0,0,1,3.08,1.73.21.21,0,0,0,.19.11h2.25a.23.23,0,0,0,.19-.1.22.22,0,0,0,0-.21,6.23,6.23,0,0,0-5.73-4.08h-1a6.32,6.32,0,0,0-6.17,6.45v1.61a6.32,6.32,0,0,0,6.17,6.45h1.66a5.68,5.68,0,0,0,5.55-5.8v-2.51A.23.23,0,0,0,598.16,384Z"/><path class="cls-1" d="M487.21,381.43h-1.08a4.94,4.94,0,0,0-4.77,5.08v.94a4.94,4.94,0,0,0,4.77,5.08h1.08a4.8,4.8,0,0,0,4.5-3.4.21.21,0,0,0,0-.2.22.22,0,0,0-.18-.1h-2.21a.22.22,0,0,0-.18.1,2.27,2.27,0,0,1-1.9,1.05h-1.08a2.39,2.39,0,0,1-2.26-1.84h7.87a.23.23,0,0,0,.23-.21c0-.16,0-1.29,0-1.42A4.94,4.94,0,0,0,487.21,381.43Zm-3.34,4.4a2.39,2.39,0,0,1,2.26-1.84h1.08a2.37,2.37,0,0,1,2.26,1.84Z"/><path class="cls-1" d="M390.08,381.43H389a4.94,4.94,0,0,0-4.77,5.08v.94a4.94,4.94,0,0,0,4.77,5.08h1.09a4.8,4.8,0,0,0,4.49-3.4.18.18,0,0,0,0-.2.22.22,0,0,0-.18-.1h-2.21a.22.22,0,0,0-.18.1,2.27,2.27,0,0,1-1.89,1.05H389a2.37,2.37,0,0,1-2.25-1.84h7.86a.23.23,0,0,0,.23-.21c0-.16,0-1.29,0-1.42A4.94,4.94,0,0,0,390.08,381.43Zm-3.34,4.4A2.37,2.37,0,0,1,389,384h1.09a2.37,2.37,0,0,1,2.25,1.84Z"/><path class="cls-1" d="M353.49,381.43h-1.08a5,5,0,0,0-4.78,5.08v.94a5,5,0,0,0,4.78,5.08h1.08a4.8,4.8,0,0,0,4.5-3.4.21.21,0,0,0,0-.2.22.22,0,0,0-.18-.1h-2.21a.22.22,0,0,0-.18.1,2.27,2.27,0,0,1-1.9,1.05h-1.08a2.39,2.39,0,0,1-2.26-1.84H358a.23.23,0,0,0,.23-.21c0-.16,0-1.29,0-1.42A4.94,4.94,0,0,0,353.49,381.43Zm-3.34,4.4a2.39,2.39,0,0,1,2.26-1.84h1.08a2.38,2.38,0,0,1,2.26,1.84Z"/><path class="cls-1" d="M428.06,386.21l-.35-.06c-.8-.12-2.91-.42-3-1.44a.79.79,0,0,1,.23-.61,1.83,1.83,0,0,1,1.5-.39c1.11.06,1.64.37,1.89,1.11a.23.23,0,0,0,.21.15h2.23a.21.21,0,0,0,.18-.09.21.21,0,0,0,0-.19l-.08-.31c-.52-2-2.06-2.95-4.61-2.95h0a5.31,5.31,0,0,0-3,.86,3,3,0,0,0-1.2,2.4c-.11,1.68,1.25,2.84,3.84,3.28s2.49,1.08,2.5,1.33a.78.78,0,0,1-.24.6,2.07,2.07,0,0,1-1.56.49h-.15c-1.28,0-2-.43-2.23-1.39a.23.23,0,0,0-.22-.17H421.9a.22.22,0,0,0-.17.09.22.22,0,0,0-.05.19l.05.19c.48,2.15,2.06,3.24,4.68,3.24h.33a5.32,5.32,0,0,0,3.11-.81,2.93,2.93,0,0,0,1.39-2.46C431.29,387.68,430.28,386.71,428.06,386.21Z"/><path class="cls-1" d="M377.58,381.43h-.49a5.05,5.05,0,0,0-4.88,5.2v.7a5.05,5.05,0,0,0,4.88,5.2h.49a4.93,4.93,0,0,0,4.58-3.39.26.26,0,0,0,0-.21.22.22,0,0,0-.19-.09h-2.23a.21.21,0,0,0-.18.09,2.4,2.4,0,0,1-1.95,1.05h-.49a2.56,2.56,0,0,1-2.45-2.65v-.7a2.55,2.55,0,0,1,2.45-2.64h.49A2.5,2.5,0,0,1,380,386.1a.23.23,0,0,0,.22.18h2a.21.21,0,0,0,.16-.08.18.18,0,0,0,.06-.17A5,5,0,0,0,377.58,381.43Z"/><path class="cls-1" d="M336.08,381.43h-.49a5.05,5.05,0,0,0-4.88,5.2v.7a5.05,5.05,0,0,0,4.88,5.2h.49a4.94,4.94,0,0,0,4.58-3.39.26.26,0,0,0,0-.21.24.24,0,0,0-.19-.1h-2.23a.22.22,0,0,0-.18.1,2.42,2.42,0,0,1-1.95,1.05h-.49a2.57,2.57,0,0,1-2.46-2.65v-.7a2.56,2.56,0,0,1,2.46-2.64h.49a2.51,2.51,0,0,1,2.41,2.1.22.22,0,0,0,.22.19h2a.21.21,0,0,0,.16-.08.18.18,0,0,0,.06-.17A5,5,0,0,0,336.08,381.43Z"/><path class="cls-1" d="M295.73,381.43h-.57a5,5,0,0,0-4.92,5.15v.8a5,5,0,0,0,4.92,5.15h.57a5,5,0,0,0,4.93-5.15v-.8A5,5,0,0,0,295.73,381.43Zm-3,5.15a2.53,2.53,0,0,1,2.46-2.59h.57a2.53,2.53,0,0,1,2.46,2.59v.8a2.54,2.54,0,0,1-2.46,2.6h-.57a2.54,2.54,0,0,1-2.46-2.6Z"/><path class="cls-1" d="M289.67,377.91h-2.78A3,3,0,0,0,284,381v.81h-1.3a.22.22,0,0,0-.22.23v1.86a.22.22,0,0,0,.22.22H284v8.1a.22.22,0,0,0,.22.22h2.29a.22.22,0,0,0,.23-.22v-8.1h2.17a.23.23,0,0,0,.23-.22V382a.23.23,0,0,0-.23-.23h-2.17v-.27a1.28,1.28,0,0,1,1.24-1.31h1.74a.22.22,0,0,0,.23-.22v-1.86A.22.22,0,0,0,289.67,377.91Z"/><path class="cls-1" d="M324.85,384.28l-1.14-.28c-3-.57-3.09-1.85-3.09-2,0-1,.75-1.61,2.07-1.77a5.24,5.24,0,0,1,1.38,0,2.65,2.65,0,0,1,2.19,1.83.22.22,0,0,0,.21.15h2.38a.23.23,0,0,0,.17-.08.22.22,0,0,0,.05-.19l0-.12c-.55-2.63-2.52-4-5.89-4a6.94,6.94,0,0,0-3.9,1.05,3.47,3.47,0,0,0-1.43,3c0,2.26,1.37,3.48,4.52,4.1.27.06.86.22,1.15.3l.19.05c2.09.56,2.72,1.65,2.62,2.41s-1,1.56-2.62,1.56h0a3.55,3.55,0,0,1-3.38-2.07,2.84,2.84,0,0,1-.15-.44.23.23,0,0,0-.22-.17h-2.33a.2.2,0,0,0-.17.09.2.2,0,0,0-.05.18l0,.09c.56,2.77,3,4.56,6.11,4.56h.31c3.34-.09,5.41-1.72,5.41-4.25C329.19,386.46,327.57,384.94,324.85,384.28Z"/><path class="cls-1" d="M310.27,381.45h-1.1a5.64,5.64,0,0,0-3.18,1v-.77a.22.22,0,0,0-.22-.22h-2.29a.22.22,0,0,0-.23.22V392.2a.22.22,0,0,0,.23.22h2.29a.22.22,0,0,0,.22-.22v-4.92a3.07,3.07,0,0,1,3-3.14h1.29a.22.22,0,0,0,.22-.23v-2.24A.22.22,0,0,0,310.27,381.45Z"/><path class="cls-1" d="M501.23,388H499a.22.22,0,0,0-.22.23v2.45a.22.22,0,0,0,.22.23h.85a.91.91,0,0,1-.85.58.22.22,0,0,0-.22.22v.61a.22.22,0,0,0,.22.22h.42a2.07,2.07,0,0,0,2-2.11v-2.2A.23.23,0,0,0,501.23,388Z"/></svg>