<svg clip-rule="evenodd" fill-rule="evenodd" stroke-linejoin="round" stroke-miterlimit="2" viewBox="0 0 347 93" xmlns="http://www.w3.org/2000/svg"><g fill="#fff" fill-rule="nonzero"><path d="m344.725 44.009c-.325.563-10.984 19.025-11.309 19.588-.325-.563-10.985-19.025-11.31-19.588zm-72.041-1.206c.332-.575 23.335-40.416 23.666-40.991.328.569 11.547 20 11.659 20.194-.112.191-11.896 20.603-12.009 20.797zm48.375-40.991c.335.575 23.335 40.416 23.666 40.991h-23.316c-.112-.194-11.896-20.606-12.006-20.797.11-.194 11.328-19.625 11.656-20.194zm-24.362 42.197h24.016c.109.191 11.328 19.625 11.656 20.194h-47.328c.328-.569 11.547-20.003 11.656-20.194zm.697-1.206c.325-.562 10.987-19.028 11.309-19.591.325.563 10.988 19.029 11.313 19.591zm11.309-22.006c-.322-.563-10.984-19.028-11.309-19.588h22.622c-.325.56-10.988 19.025-11.313 19.588zm-13.4 23.212c-.325.563-10.984 19.025-11.309 19.588-.328-.569-11.082-19.191-11.31-19.588zm26.106-44.009h-25.409l-25.059 43.406 12.706 22.003h50.115l12.707-22.003-25.06-43.406z"/><path d="m119.484 92.684-3.828-6.653c-.581-.997-1.025-1.975-1.412-2.831.078 1.131.115 3.2.115 4.778v4.706h-2.434v-13.172h3.266l3.634 6.282c.6 1.015 1.125 2.109 1.606 3.103-.097-1.325-.134-3.666-.134-5.285v-4.1h2.437v13.172z"/><path d="m131.959 84.528c-.253-.725-.443-1.366-.6-2.109h-.018c-.157.684-.369 1.447-.619 2.206l-1.181 3.353h3.637zm2.785 8.156-.91-2.693h-4.931l-.909 2.693h-2.532l4.56-13.172h2.847l4.659 13.172z"/><path d="m144.516 81.678v11.006h-2.516v-11.006h-3.384v-2.166h9.284v2.166z"/><path d="m150.763 79.512h2.516v13.172h-2.516z"/><path d="m162.522 81.578c-1.803 0-3.466 1.447-3.466 4.413 0 2.79 1.082 4.606 3.425 4.606 1.697 0 3.519-1.328 3.519-4.488 0-2.928-1.237-4.531-3.478-4.531zm-.216 11.319c-3.984 0-5.94-2.556-5.94-6.635 0-4.35 2.884-6.965 6.384-6.965 3.481 0 5.938 2.106 5.938 6.615 0 4.354-2.844 6.985-6.382 6.985z"/><path d="m178.819 92.684-3.832-6.653c-.578-.997-1.021-1.975-1.412-2.831.081 1.131.116 3.2.116 4.778v4.706h-2.435v-13.172h3.269l3.637 6.282c.597 1.015 1.119 2.109 1.604 3.103-.097-1.325-.138-3.666-.138-5.285v-4.1h2.438v13.172z"/><path d="m191.428 84.528c-.25-.725-.444-1.366-.6-2.109h-.019c-.153.684-.372 1.447-.622 2.206l-1.178 3.353h3.635zm2.784 8.156-.909-2.693h-4.931l-.909 2.693h-2.532l4.566-13.172h2.841l4.659 13.172z"/><path d="m199.862 92.684v-13.172h2.513v10.947h4.238v2.225z"/><path d="m214.753 92.684v-13.172h2.513v10.947h4.234v2.225z"/><path d="m230.862 84.528c-.249-.725-.443-1.366-.599-2.109h-.019c-.15.684-.366 1.447-.619 2.206l-1.181 3.353h3.64zm2.785 8.156-.906-2.693h-4.932l-.909 2.693h-2.534l4.565-13.172h2.844l4.659 13.172z"/><path d="m242.853 86.869c-.197 0-.834 0-1.103.018v3.691c.306.038.787.078 1.372.078 1.641 0 2.475-.781 2.475-1.969 0-1.293-1.1-1.818-2.744-1.818zm.363-5.385c-.519 0-1.022.019-1.466.041v3.431c.306.022.616.022 1.025.022 1.722 0 2.609-.703 2.609-1.875 0-.975-.581-1.619-2.168-1.619zm-.172 11.238c-.794 0-2.166-.038-3.81-.038v-13.15c1.104-.059 2.807-.1 4.41-.1 2.822 0 4.39 1.153 4.39 3.26 0 1.306-.831 2.456-2.072 2.947v.037c1.55.331 2.322 1.619 2.322 2.947 0 1.912-1.293 4.097-5.24 4.097z"/><path d="m257.091 81.578c-1.8 0-3.463 1.447-3.463 4.413 0 2.79 1.081 4.606 3.425 4.606 1.7 0 3.519-1.328 3.519-4.488 0-2.928-1.238-4.531-3.481-4.531zm-.216 11.319c-3.978 0-5.934-2.556-5.934-6.635 0-4.35 2.881-6.965 6.381-6.965 3.481 0 5.937 2.106 5.937 6.615 0 4.354-2.84 6.985-6.384 6.985z"/><path d="m269.55 81.503c-.369 0-.737.022-.988.059v3.804c.175.018.522.04.91.04 1.509 0 2.437-.781 2.437-2.009 0-1.269-.772-1.894-2.359-1.894zm2.75 11.181-3.638-5.443h-.1v5.443h-2.512v-13.172c1.022-.059 2.244-.078 3.75-.078 2.884 0 4.744 1.016 4.744 3.71 0 1.95-1.356 3.353-3.332 3.665.369.488.738.997 1.066 1.447l3.135 4.428z"/><path d="m306.944 81.578c-1.8 0-3.463 1.447-3.463 4.413 0 2.79 1.082 4.606 3.422 4.606 1.703 0 3.522-1.328 3.522-4.488 0-2.928-1.238-4.531-3.481-4.531zm-.216 11.319c-3.981 0-5.934-2.556-5.934-6.635 0-4.35 2.881-6.965 6.378-6.965 3.484 0 5.941 2.106 5.941 6.615 0 4.354-2.844 6.985-6.385 6.985z"/><path d="m319.256 81.503c-.368 0-.734.022-.987.059v3.804c.178.018.525.04.912.04 1.506 0 2.435-.781 2.435-2.009 0-1.269-.772-1.894-2.36-1.894zm2.75 11.181-3.637-5.443h-.1v5.443h-2.513v-13.172c1.025-.059 2.247-.078 3.75-.078 2.885 0 4.744 1.016 4.744 3.71 0 1.95-1.356 3.353-3.331 3.665.369.488.737.997 1.065 1.447l3.135 4.428z"/><path d="m283.844 84.528c-.25-.725-.444-1.366-.6-2.109h-.022c-.15.684-.366 1.447-.619 2.206l-1.178 3.353h3.634zm2.784 8.156-.906-2.693h-4.934l-.907 2.693h-2.534l4.562-13.172h2.844l4.663 13.172z"/><path d="m295.866 81.678v11.006h-2.516v-11.006h-3.384v-2.166h9.284v2.166z"/><path d="m333.453 88.019v4.665h-2.512v-4.643l-4.079-8.529h2.744l1.719 3.785c.353.781.641 1.503.891 2.187h.04c.272-.759.657-1.6 1.041-2.44l1.647-3.532h2.669z"/><path d="m24.588 26.909c-1.001-2.609-1.691-4.915-2.307-7.603h-.153c-.616 2.535-1.384 4.994-2.306 7.528l-7.528 20.516h19.822zm13.675 37.882-4.532-12.754h-23.053l-4.609 12.754h-6.069l19.284-51.863h6.379l19.284 51.863z"/><path d="m68.153 31.597c-8.453-1.381-12.45 5.072-12.45 17.903v15.291h-5.762v-38.188h5.687c0 2.538-.306 6.303-.847 9.606l.078.075c1.538-5.609 5.535-11.293 13.522-10.372z"/><path d="m87.853 30.369c-6.609 0-10.528 4.075-10.528 9.681 0 6.225 3.766 9.528 10.219 9.528 6.303 0 10.375-3.381 10.375-9.528s-3.766-9.681-10.066-9.681zm3.919 34.653h-7.838c-.768 0-1.768 0-2.459-.078-3.303 1.693-5.456 4.459-5.456 7.684 0 4.916 4.765 7.531 11.143 7.531 8.372 0 13.291-3.534 13.291-8.606 0-4.072-2.84-6.531-8.681-6.531zm-5.61 19.822c-9.681 0-15.906-3.916-15.906-11.216 0-4.766 2.997-8.297 6.61-10.144-2.382-1.075-3.841-3.072-3.841-5.531 0-2.612 1.534-4.994 4.225-6.222-3.844-2.231-5.684-6.147-5.684-11.065 0-7.991 6.221-14.754 16.593-14.754 1.432 0 2.625.104 3.85.307.619.103 5.7.384 6.575.384h8.325v4.534h-4.556c-.381 0-2.587-.143-2.587-.143s-.035-.066.225.143c2.203 1.779 3.69 4.763 3.69 8.379 0 8.143-5.609 14.365-16.597 14.365-1.768 0-3.84-.231-5.225-.537-1.922.69-2.84 2.072-2.84 3.459 0 2.225 2.15 3.225 6.912 3.225h7.453c8.297 0 12.832 4.072 12.832 10.756 0 8.069-8.297 14.06-20.054 14.06z"/><path d="m125.938 30.675c-5.991 0-11.679 4.534-11.679 14.753 0 9.759 4.229 15.134 11.679 15.134 5.993 0 11.45-4.606 11.45-15.134 0-9.219-3.841-14.753-11.45-14.753zm-.844 34.809c-10.219 0-16.825-6.225-16.825-19.593 0-10.913 6.762-19.979 18.209-19.979 9.294 0 16.903 5.15 16.903 19.132 0 11.372-6.993 20.44-18.287 20.44z"/><path d="m173.359 64.791v-24.741c0-5.991-1.615-9.45-7.146-9.45-6.841 0-11.682 6.762-11.682 15.828v18.363h-5.759v-38.188h5.684c0 2.459-.231 6.15-.615 8.453l.153.078c2.153-5.534 6.994-9.3 13.678-9.3 8.759 0 11.447 5.535 11.447 12.297v26.66z"/><path d="m213.294 64.791v-24.741c0-5.991-1.613-9.45-7.144-9.45-6.841 0-11.678 6.762-11.678 15.828v18.363h-5.766v-38.188h5.688c0 2.459-.231 6.15-.613 8.453l.15.078c2.153-5.534 6.994-9.3 13.678-9.3 8.76 0 11.45 5.535 11.45 12.297v26.66z"/><path d="m240.966 30.291c-5.379 0-9.222 3.918-10.144 9.912h19.362c.157-5.915-3.381-9.912-9.218-9.912zm15.059 14.215h-25.509c-.385 11.45 4.15 16.213 12.678 16.213 3.997 0 8.219-1 11.065-2.46l.535 4.919c-3.532 1.46-7.838 2.306-12.6 2.306-11.525 0-17.672-6.225-17.672-19.593 0-11.447 6.147-19.979 16.753-19.979 10.525 0 14.903 7.3 14.903 15.754 0 .69 0 1.69-.153 2.84z"/></g></svg>
