<svg fill="none" height="256" viewBox="0 0 256 256" width="256" xmlns="http://www.w3.org/2000/svg"><g fill="#fff"><path d="m115.026 27.8893c1.397-.2212 2.821-.3201 4.184-.7208.164.8873.326 1.7851.305 2.6933-.263-.3852-.521-.7729-.783-1.1554-1.065-.0885-2.129-.0104-3.186.0989.237 3.1721.799 6.3104 1.2 9.4617.115.6427.143 1.3271.455 1.9152.44.432 1.109.4814 1.679.6375-1.676.1328-3.344.3826-5.004.6506.338-.2602.679-.5178 1.02-.7781-.037-3.8747-.953-7.6765-1.351-11.5226-.991.065-2.009.1093-2.93.5152-.562.1822-.715.8145-1.004 1.2621 0-.8431-.039-1.6836-.052-2.5242 1.839.0651 3.653-.2862 5.467-.5334z"/><path d="m121.997 27.1788c1.484-.0286 2.967-.0885 4.45-.0442-.382.2237-.767.4397-1.15.6609-.096 3.6588.284 7.3019.32 10.958-.114 1.0071.83 1.3141 1.632 1.4625-1.575.0598-3.139.2862-4.718.2524.432-.3253 1.124-.5491 1.108-1.2023.081-2.1468.055-4.304-.156-6.4431-.13-1.478.047-2.9743-.208-4.4394-.047-.6896-.801-.8717-1.278-1.2048z"/><path d="m134.34 27.1632c1.587-.203 3.292-.0624 4.655.8483 2.285 1.4443 2.99 4.5071 2.431 7.0209-.31 2.0375-1.426 3.9892-3.188 5.1055-2.675 1.6446-6.724.6558-8.096-2.2405-1.329-2.4591-1.15-5.5662.253-7.9524.788-1.4729 2.292-2.5346 3.945-2.7818zm-.271.9733c-1.665.5907-2.269 2.4382-2.514 4.0256-.208 1.7851-.2 3.6743.549 5.3424.661 1.3818 2.051 2.6048 3.67 2.4643 1.202 0 2.25-.8431 2.737-1.9022.828-1.8242 1.033-3.893.75-5.8655-.274-1.2699-.685-2.6516-1.788-3.4531-.937-.7677-2.256-1.0045-3.404-.6115z"/><path d="m145.899 32.7086c.38-1.4494.643-2.9483 1.327-4.2962 1.267 2.1728 2.175 4.5278 3.359 6.7397.911 1.6108 1.515 3.3777 2.548 4.9208.419-1.5014.695-3.0368 1.064-4.5513.359-1.6055.846-3.2137.724-4.8765.583.1379 1.166.2836 1.746.4371-.919 2.6465-1.421 5.4101-2.209 8.0956-.492 1.6368-.695 3.3751-1.458 4.9208-.289-.3799-.575-.7599-.806-1.1788-1.726-3.4037-3.404-6.8361-5.116-10.2476-.448 1.426-.734 2.8911-1.015 4.3561-.242 1.2647-.724 2.4956-.747 3.7941-.078.7546.768 1.0279 1.244 1.4364-1.356-.3227-2.72-.6089-4.07-.9394.408-.1483.822-.2862 1.233-.4294.88-2.6855 1.476-5.449 2.176-8.1814z"/><path d="m103.222 29.5912c1.283 1.3297 2.069 3.0264 3.139 4.5175 1.384 2.0869 2.641 4.2624 4.119 6.2869.468.7469 1.358.8874 2.16 1.0019-1.2.3903-2.405.7729-3.659.942-.411-1.5249-1.397-2.7974-2.306-4.0595-1.098.2342-2.172.5621-3.255.8484-.166 1.3219-.362 2.6672-.078 3.9892.328.1119.658.2212.989.3331-1.522.5074-3.097.8275-4.6035 1.3713-.5725.2082-1.171.3253-1.7721.4034-1.2309-2.519-2.5736-4.9911-4.1297-7.3227-.1848 3.1513.1353 6.3104-.0859 9.4591-2.5736-1.7721-4.4004-4.3978-6.8517-6.3156.6948 2.4955 1.387 5.0015 2.2405 7.4476.4892.0156.9811.0208 1.4729.039-1.2543.6011-2.571 1.0981-3.7212 1.897-.765.5933-1.8033.5881-2.7011.3643-1.4651-.5308-2.7714-1.4182-4.2026-2.0193-.6115-.268-1.1892.2342-1.7461.4242.8717 1.629 1.642 3.5754 3.3959 4.4342-.8665.51-1.7331 1.02-2.6126 1.5093-.203-.9082-.5335-1.7852-1.0279-2.5762-1.374-2.2614-2.787-4.5045-4.1193-6.7919-.4164-.7234-.9993-1.3245-1.577-1.9178.8483-.7156 1.8008-1.2855 2.7428-1.8658.8561-.4918 1.8319-1.0019 2.8546-.7833 1.3532.2655 2.329 1.4989 2.5996 2.8052.1536 1.0669.0287 2.1469-.0234 3.219 2.2119.9004 4.3561 2.0011 6.6877 2.584.2342-.1743.471-.3461.7104-.5152-.4606-3.0707-1.5925-5.9826-2.2899-8.9959-.3045-1.4104-.9915-2.7428-.968-4.213 2.9509 2.3055 5.1758 5.4204 8.1501 7.6973.1197-3.1565-.0546-6.3182-.013-9.4773-.026-.4788.1588-.9238.3149-1.3661.6974.8535 1.2777 1.7955 1.7877 2.7713 1.3376 2.3889 2.6907 4.7725 4.0569 7.1458.2862.4319.5309.942 1.0149 1.1866.6791.0754 1.6471-.0287 1.8941-.7885.383-1.3011.266-2.6803.466-4.0126.13-2.3473.396-4.6841.57-7.0287.013-.8899.151-1.7695.377-2.6282zm.562 3.9398c-.112 1.4728-.244 2.9457-.346 4.4211.929-.0702 1.837-.2732 2.722-.5672-.7-1.3376-1.475-2.6413-2.376-3.8539zm-28.01 9.1494c-.4502.1665-1.1398.3591-1.0227.9784.2394.6376.6584 1.1866 1.0123 1.7669.6141.9473 1.0695 2.009 1.858 2.8339 1.0903.065 2.2379-1.0305 1.8944-2.1625-.2836-1.1007-.8509-2.1806-1.7331-2.9171-.5777-.3773-1.3063-.8041-2.0089-.4996z"/><path d="m165.082 38.0614c.344-1.2803 1.39-2.5112 2.793-2.5945 1.441-.1691 2.763.622 3.82 1.5223-.333.8848-.726 1.7461-1.145 2.5919-.068-.8614.132-1.8632-.521-2.5554-.471-.6558-1.387-.6246-2.1-.5153-.918.3331-1.233 1.4495-1.02 2.3316.38 1.6602 1.525 3.0915 1.577 4.8402.195 1.8632-.874 3.8383-2.662 4.5018-1.314.3747-2.709-.0572-3.812-.7911-.45-.2914-.992-.7078-.854-1.3193.151-.674.596-1.236.989-1.7929.216.981.211 2.2457 1.239 2.7766 1.186.955 2.985-.2186 3.042-1.6108.255-1.7175-.916-3.1435-1.306-4.7309-.144-.8743-.157-1.7773-.04-2.6542z"/><path d="m176.569 40.7471c1.254-.2212 2.711-.2785 3.757.5776.531.3852 1.192.9681.882 1.7019-.374.7156-.923 1.3193-1.392 1.9699.149-.8744.614-1.8632.071-2.6907-.547-1.1632-2.501-1.1606-3.032.013-.781 1.1736-.614 2.6465-.544 3.9814.25 1.7435.492 3.5052 1.072 5.1784.83-.6271 1.686-1.3479 2.017-2.3732-.091-.4632-.328-.8795-.518-1.3063.658.523 1.978.765 1.881 1.8033-.671 1.3272-2.04 2.087-3.221 2.9067.356 1.4599 1.059 2.7948 1.931 4.0127-1.634-.5829-3.18-1.6551-3.727-3.3803-1.582.0858-3.258-.0989-4.512-1.1632-2.082-1.374-1.962-4.7361-.026-6.1803.953-.6948 2.084-1.0643 3.203-1.3948.138-1.4521.755-3.0108 2.158-3.6561zm-4.929 8.923c.185 1.7591 2.09 2.7193 3.711 2.4305-.229-2.2301-.729-4.4212-.932-6.6539-1.806.4762-2.862 2.4487-2.779 4.2234z"/><path d="m185.302 47.4869c.598-.5647 1.173-1.1502 1.78-1.7044.76.7963 1.577 1.5353 2.456 2.1963 1.757 1.3193 3.375 2.8286 5.259 3.9684-.593.7572-1.262 1.4468-1.925 2.1416.112-.5127.517-1.0669.236-1.5874-.504-.8899-1.387-1.4702-2.159-2.1078-1.447 1.616-2.709 3.3855-4.07 5.0744-1.041 1.426-2.355 2.6751-3.068 4.3197.289.3773.577.7546.858 1.1423-1.119-.6739-2.162-1.4676-3.081-2.3914 1.757-1.4885 3.022-3.4245 4.479-5.1836 1.106-1.374 2.23-2.7324 3.268-4.1558-.7-.5907-1.369-1.2491-2.201-1.6576-.578-.2602-1.229-.0911-1.832-.0547z"/><path d="m65.6539 48.7565c2.0402-.7728 4.2859.0859 5.8212 1.4937 1.2283 1.1971 2.2978 2.6569 2.7063 4.3484.3279 1.7252.229 3.6899-.9654 5.0821-.9889 1.4-2.5892 2.3602-4.3171 2.4175-1.7903.1587-3.5286-.6636-4.8323-1.8424-1.7956-1.5561-2.951-3.9164-2.8182-6.3156.2394-2.4279 2.178-4.39 4.4055-5.1837zm-.5464 1.5041c-1.1554.2551-2.0922 1.1841-2.4722 2.2874-.4059 1.8606.648 3.6275 1.7982 4.9989 1.2959 1.5925 3.1513 2.9483 5.2825 2.9613 1.681.0364 3.3595-1.2933 3.4089-3.0368-.0937-2.1468-1.4598-3.9658-2.9379-5.41-1.361-1.1892-3.2085-2.3212-5.0795-1.8008z"/><path d="m124.22 52.4389c8.53-.3903 17.122.5907 25.309 3.029 8.949 2.6569 17.398 6.9792 24.781 12.6937 7.591 5.9435 14.148 13.2635 18.968 21.6297 8.288 13.9637 11.733 30.6647 9.886 46.7777-1.151 9.977-4.234 19.759-9.225 28.487-7.612 13.69-19.668 24.827-33.848 31.455-17.997 8.52-39.423 9.459-58.087 2.527-7.8947-2.834-15.2304-7.112-21.7698-12.345-3.0134-2.613-6.0137-5.264-8.6316-8.283-11.978-13.282-18.939-30.964-19.2226-48.846-.2576-10.451 1.7409-20.938 5.7405-30.592 4.4056-10.5261 11.174-20.0762 19.7509-27.6123 12.6963-11.3405 29.3456-18.1193 46.3486-18.9208zm20.615 23.7037c-6.902 3.6744-13.287 8.2491-19.338 13.1803-1.535 1.1398-2.872 2.5085-4.335 3.7368-2.537 2.2249-5.053 4.481-7.377 6.9323-2.636 2.483-5.088 5.155-7.51 7.841-1.806 1.85-3.349 3.934-5.069 5.857-1.4394 1.616-2.6339 3.425-4.0235 5.082-1.9048 2.371-3.5962 4.906-5.3762 7.37-1.0903 1.527-1.936 3.234-3.2475 4.593-2.1339-2.831-4.1298-5.816-5.4205-9.137-1.1814-2.956-1.8137-6.3-.8769-9.415.687-2.237 2.1858-4.197 4.1687-5.443 3.8097-2.483 8.5067-3.011 12.9513-3.04 1.7516-.083 3.4846.245 5.2336.26-7.1202-1.819-14.5313-3.198-21.8904-2.29-3.6536.466-7.4502 1.59-10.1279 4.247-2.0948 2.077-2.9978 5.129-2.748 8.036.2915 4.572 2.5788 8.728 5.0666 12.47 2.8208 4.039 6.1673 7.695 9.7817 11.036-1.9881 3.882-4.0907 7.726-5.6728 11.798-.1093.36-.0729.737-.0781 1.106.5543-.452 1.0123-1.009 1.3532-1.639 1.8632-3.352 3.8981-6.602 5.9201-9.86 1.4312 1.234 2.8598 2.477 4.3665 3.62-1.9881 3-3.6796 6.185-5.345 9.373-2.7557 5.644-5.1472 11.551-6.1569 17.784-.4423 3.005-.5646 6.125.2316 9.084.7391 2.626 2.4201 5.113 4.9495 6.287 3.5572 1.712 7.6948 1.332 11.4238.442 5.3971-1.324 10.3961-3.88 15.1581-6.687 4.379-2.673 8.574-5.652 12.522-8.929-3.636 1.934-7.237 4-11.148 5.345-4.538 1.619-9.509 2.751-14.2968 1.624-3.0602-.682-5.764-2.737-7.2238-5.514-1.7409-3.289-2.0115-7.164-1.629-10.81.5543-5.449 2.3576-10.674 4.494-15.688 10.7916 7.845 22.7176 14.192 35.3796 18.436 8.556 2.813 17.581 4.848 26.634 4.154 3.412-.375 6.94-1.119 9.745-3.214-.973.117-1.912.401-2.87.596-3.135.567-6.344.747-9.519.445-5.386-.372-10.692-1.559-15.847-3.131-5.226-1.629-10.331-3.646-15.242-6.063-9.191-4.499-17.905-10.081-25.4754-16.99 1.3714-2.269 2.5919-4.627 4.0774-6.826 5.306-8.264 11.63-15.868 18.7-22.681 2.568-2.599 5.459-4.85 8.166-7.291-4.588 3.365-8.85 7.164-12.97 11.085-7.421 7.261-14.278 15.125-20.167 23.683-1.2855-1.327-2.5658-2.659-3.7707-4.059 2.5554-3.446 5.2045-6.818 8.0175-10.058 1.4494-1.998 3.2942-3.648 4.8632-5.545 4.133-4.453 8.38-8.809 12.978-12.782 2.139-2.228 4.736-3.924 7.031-5.9776 3.945-3.2502 8.207-6.084 12.54-8.7851 3.791-2.2249 7.632-4.4082 11.749-5.9825 4.114-1.6863 8.478-2.9119 12.944-3.0498 3.258-.0625 6.745.6453 9.235 2.878 2.097 1.832 2.805 4.7283 2.966 7.4034.328 1.8293-.044 3.6639-.13 5.4959-1.054 7.2267-3.375 14.2497-6.578 20.8077-.882 2.227-2.178 4.275-2.93 6.555.788-.752 1.322-1.71 1.897-2.623 3.359-5.135 6.183-10.597 8.866-16.108 2.045-4.819 4.002-9.7325 4.874-14.9187.577-2.5632.473-5.2071.382-7.8119-.403-2.4435-1.007-4.9416-2.436-7.0104-.879-1.348-2.058-2.4773-3.356-3.4167-1.668-1.2361-3.727-1.8242-5.757-2.126-1.566-.0911-3.138-.0729-4.702.0182-6.352.8431-12.42 3.1929-18.025 6.2401zm-5.416 43.0204c6.745 3.952 13.391 8.137 19.449 13.097 6.951 5.636 13.467 12.194 17.383 20.352 1.244 2.886 2.306 5.995 2.095 9.186-.143 2.427-1.736 4.475-3.458 6.063-3.31 2.81-7.578 4.223-11.827 4.79-2.644.451-5.33.255-7.994.3-3.932.075-7.833-.557-11.69-1.249-9.545-1.838-18.759-5.127-27.589-9.152-1.889-.851-3.705-1.864-5.636-2.613.924.856 2.077 1.387 3.151 2.019 8.151 4.663 16.766 8.484 25.611 11.622 9.738 3.154 19.895 5.686 30.207 5.236 4.273-.331 8.718-1.112 12.275-3.659 3.12-2.277 4.731-6.157 4.778-9.951.252-4.494-1.268-8.913-3.513-12.751-2.514-4.421-5.988-8.2-9.655-11.687-9.914-8.99-21.593-15.787-33.587-21.603zm-2.42 2.932c.185.357.396.7.643 1.023.138-.346.273-.692.409-1.038-.263.002-.789.01-1.052.015zm-1.91.261c.055.874.76-.425 0 0zm3.383.45c-.12.099-.354.294-.474.393-.005.364-.007.731-.005 1.1-.213-.19-.471-.309-.7-.465-.658.788-1.275 1.626-2.019 2.336-.315-.307-.596-.65-.874-.986-.146.008-.432.024-.575.031-.19.263-.375.526-.557.792.465.26.949.491 1.449.684-1.478 1.426-2.951 2.855-4.437 4.27.005-.333.232-.741-.034-1.023-.234-.184-.52-.278-.785-.4-.276.557-.591 1.116-1.184 1.389-.534.169-.326.734-.281 1.137.39.011.78.027 1.173.045-.892.989-1.946 1.816-2.792 2.849-.656.776-1.65 1.278-2.017 2.272.406.401.849.768 1.265 1.163-.588-.278-1.189-.557-1.637-1.041-1.168 1.137-2.279 2.332-3.474 3.446-1.376 1.249-2.48 2.781-3.997 3.88.081.278.161.556.245.84-.336-.18-.7-.273-1.093-.284-.037.3-.055.601-.055.906.482.549 1.007 1.067 1.564 1.543.648.203 1.015-.591 1.457-.934.232.575.565 1.137 1.231 1.252.422-.321.643-1.32 1.273-1.106.125.275.252.551.387.83.159-.008.474-.021.633-.026.793-1.314 2.37-1.843 3.198-3.126.278.271.51.609.853.81.294-.039.591-.094.885-.156-.312-.495-.7-.927-1.085-1.361.075-.05.224-.146.297-.196.385.294.757.607 1.176.857 2.607-2.337 4.994-4.924 7.528-7.341-.312-.492-.653-.963-.989-1.437.471.32.804 1.114 1.471.908.913-.936 1.61-2.089 2.693-2.859-.24-.412-.497-.812-.744-1.216 1.186-.97 1.985-2.305 3.117-3.328-.302-.385-.744-.703-.929-1.15.187-.474 1.155-.64.913-1.325-.281-.452-.746-.736-1.134-1.085.398-.273 1.2-.411 1.041-1.059.039-.546-.82-.984-1.088-.393.081-.692-.172-1.277-.89-1.436zm-2.589.401c.008.252.015.507.026.762.284.049.567.101.856.153.008-.351.018-.702.031-1.051-.304.044-.609.089-.913.136zm-2.025.158c-.286.359.305.877.578.461.286-.362-.312-.882-.578-.461zm.833.963c-.031.133-.094.396-.125.528.245.253.495.503.75.752.223-.249.528-.452.653-.778.054-.429-.357-.666-.614-.921-.167.104-.497.315-.664.419zm-1.918.107c-.013.172-.036.51-.049.679.166-.021.499-.063.666-.083.008-.151.023-.448.031-.596-.161 0-.486 0-.648 0zm-1.293 1.048c0 .17-.005.505-.005.672.244.099.492.198.739.296.07-.322.138-.645.203-.968-.315-.002-.625-.002-.937 0zm8.923-.018c.005.172.016.515.018.687.255.084.513.169.77.258.011-.323.024-.645.039-.966-.208.006-.619.016-.827.021zm-9.894.911c-.044.26-.075.526-.093.791.166.255.52.219.785.297.037-.198.107-.596.144-.794-.281-.099-.56-.195-.836-.294zm1.793.575c.094.164.284.487.38.651.201 0 .601.002.802.005.096-.167.288-.5.385-.666-.099-.151-.3-.453-.401-.604-.2-.01-.604-.031-.807-.042-.088.164-.27.492-.359.656zm-3.973-.205c-.136.424.005.569.426.432.133-.425-.007-.57-.426-.432zm.942.85c-.026.271-.052.542-.081.815.219.021.656.057.874.075-.026-.309-.052-.619-.073-.929-.179.011-.541.029-.72.039zm2.009-.161c.028.416.065.835.109 1.254.367.011.736.021 1.108.032-.02-.443.055-.883.032-1.322-.419.008-.836.018-1.249.036zm-4.031.39c-.375.25.117.786.437.526.364-.26-.115-.791-.437-.526zm13.313-.039c0 .17-.003.508-.006.677.162.003.479.008.641.008.005-.177.018-.536.023-.716-.164.008-.492.024-.658.031zm-10.373.929c-.01.321-.023.641-.031.963.343.104.687.214 1.036.32.33-.616.354-1.223-.258-1.655-.187.094-.559.279-.747.372zm-4.148.144c-.018.163-.054.491-.073.653.167-.008.503-.026.669-.037-.005-.156-.018-.468-.023-.627-.143.003-.43.008-.573.011zm2.027-.029c.008.307.019.614.029.921.354-.049.71-.096 1.07-.146-.097-.354-.198-.705-.297-1.054-.2.071-.601.209-.802.279zm-3.065.991c-.018.185-.052.549-.068.734.18-.013.539-.041.719-.054-.04-.128-.123-.386-.162-.513-.122-.042-.367-.125-.489-.167zm1.835-.049c-.008.533.192.994.629 1.317.211-.237.424-.474.643-.703-.083-.166-.252-.5-.338-.666-.234.013-.703.039-.934.052zm-3.225 1.592c.078.128.229.383.307.511.209-.068.417-.133.628-.196-.071-.249-.144-.497-.214-.744-.242.141-.481.284-.721.429zm2.243-.434c-.007.315-.01.63-.01.945.375-.055.752-.107 1.129-.167-.114-.258-.226-.513-.338-.768-.195-.002-.585-.007-.781-.01zm13.935.25c-.346.166-.351.341-.013.52.347-.172.352-.346.013-.52zm-13.042.942c-.021.515.221.934.619 1.251.214-.104.643-.309.857-.411-.092-.489-.302-.926-.674-1.257-.201.104-.602.313-.802.417zm-4.119.13c.002.151.005.453.005.601.148.021.448.062.596.083.005-.192.01-.575.013-.767-.154.02-.461.062-.614.083zm2.076-.159c.003.195.008.588.011.786.286.003.577.01.869.021-.003-.208-.008-.627-.011-.836-.291.006-.58.016-.869.029zm13.373.63c.328.07.664.138.997.203.008-.193.026-.578.034-.768-.404.083-.885.096-1.031.565zm-12.457.447c.097.347.18.706.346 1.031.747.51 1.226-.437 1.14-1.085-.497-.065-.999-.052-1.486.054zm-4.049.058c0 .169-.002.507-.002.676.177.008.533.024.71.031-.036-.148-.104-.447-.14-.595-.141-.029-.425-.084-.568-.112zm2.017-.078c.112.426-.156 1.21.518 1.202.572-.112.414-.773.528-1.195-.349-.005-.697-.007-1.046-.007zm-1.174 1.176c-.002.286-.002.572-.002.861.361.013.723.024 1.087.034 0-.299-.01-.599-.028-.895-.354-.005-.705-.005-1.057 0zm2.191-.169c-.033.398-.065.799-.091 1.199.445.039.89.073 1.338.107-.029-.351.073-.731-.089-1.056-.296-.341-.765-.224-1.158-.25zm-4.049.468c-.132.427.011.575.43.44.138-.424-.008-.57-.43-.44zm.75 1.007c-.003.154-.008.463-.011.619.237.102.474.206.713.31.151-.242.305-.484.461-.726-.12-.143-.357-.432-.476-.575-.229.122-.458.247-.687.372zm2.053-.094c.112.354.091.836.5 1.01.301-.034.603-.073.905-.122-.01-.214-.034-.643-.047-.859-.156-.104-.468-.31-.622-.414-.184.097-.551.289-.736.385zm-3.953.196c-.117.361.008.486.377.372.115-.367-.013-.489-.377-.372zm3.042.817c-.146.369-.031.775-.026 1.163.26.021.781.06 1.041.078.219-.57.221-1.15-.143-1.663-.307.104-.599.245-.872.422zm-2.225.14c.055.294.107.591.159.888.193-.019.575-.052.765-.068.01-.297.021-.588.036-.88-.322.019-.642.039-.96.06zm-1.957.159c-.112.367.013.489.378.37.112-.373-.016-.495-.378-.37zm.968.835c0 .313.006.63.011.948.296-.063.596-.118.898-.17-.024-.182-.073-.551-.099-.736-.271-.016-.542-.029-.81-.042zm1.832 1.07c.419.026.838.052 1.26.083.109-.2.325-.598.432-.799-.422-.27-.864-.507-1.317-.713-.107.482-.271.947-.375 1.429zm-3.057.84c.231.006.695.013.926.016-.104-.333-.213-.666-.315-.999-.203.328-.424.645-.611.983zm1.889-.619c.229.437.494.854.794 1.252.247-.268.59-.477.733-.82-.007-.424-.421-.651-.653-.947-.294.169-.585.341-.874.515zm-1.254 1.535c.455.56 1.056.724 1.702.365-.024-.222-.073-.661-.097-.883-.164-.106-.497-.32-.663-.426-.318.312-.638.619-.942.944zm-1.484-.45c-.013.161-.039.484-.052.645.159-.005.474-.018.63-.023 0-.161 0-.479 0-.637-.146.002-.432.01-.578.015zm-.286 3.25c.286-.067.666.013.854-.276.46-.595 1.022-1.092 1.624-1.537-.318-.318-.682-.573-1.109-.706-.304.971-1.634 1.38-1.369 2.519zm-.96-2.001c-.299.354.297.877.57.466.281-.359-.297-.898-.57-.466zm.141 1.827c-.177.278-.349.559-.518.843.408.292.892.323 1.376.255-.005-.226-.018-.679-.026-.905-.278-.066-.557-.128-.832-.193zm-1.359 1.343c.096.359.198.718.312 1.077.198-.369.448-.71.599-1.101-.226.006-.682.016-.911.024zm9.941 1.421c.158.379.523.515.89.632.02-.263.062-.786.083-1.049-.338.107-.664.245-.973.417zm-.726 1.119c.041.869.767-.404 0 0zm-5.741.832c.003.162.008.482.008.643.164.003.487.005.65.008-.005-.156-.018-.471-.023-.627-.159-.006-.476-.019-.635-.024zm1.954.112c.146.247.305.487.474.724.401.203.593-.295.625-.609-.261-.409-.729-.146-1.099-.115z"/><path d="m51.4874 62.1139c1.6056-1.8554 3.3464-3.5885 4.9468-5.4491.5907.6193 1.1268 1.2855 1.668 1.9465-.5074-.164-1.0487-.6402-1.5821-.3123-.8171.4866-1.3558 1.3193-1.9647 2.0297 1.0643 1.0565 2.1521 2.0896 3.271 3.0915.9446-.7573 1.7903-1.6576 2.2639-2.7896.6298.6453 1.2465 1.3063 1.8346 1.9907-.4528-.1197-.9056-.2498-1.3583-.3721-.7053.5074-1.3064 1.1372-1.8763 1.7877 1.4911 1.6238 3.0603 3.3048 5.09 4.2494-.7416.9421-1.59 1.7904-2.5007 2.5658.0962-.3773.1925-.752.281-1.1267-1.3349-1.5041-2.8364-2.8417-4.3275-4.1896-1.4703-1.3271-2.7922-2.8364-4.455-3.9346-.432.1692-.8587.3435-1.2907.5127z"/><path d="m200.155 57.1824c1.041 1.1658 2.066 2.3446 3.107 3.5104-.421-.1119-.843-.3331-1.285-.268-.971.4345-1.684 1.2568-2.485 1.9256-1.361 1.2413-2.847 2.3524-4.109 3.6978-.838.9212-1.421 2.3055-.903 3.5208.552 1.5743 2.717 2.0948 4.046 1.1866 1.9-1.1684 3.459-2.787 5.166-4.2052.747-.6193 1.439-1.3011 2.079-2.0297-.156-.4502-.312-.8952-.45-1.3454 1.004.9706 1.925 2.0219 2.782 3.1253-.422-.1796-.844-.3565-1.265-.5309-2.592 1.806-4.624 4.3353-7.388 5.9045-.999.6401-2.253.674-3.383.4632-2.024-.6948-3.682-2.8312-3.305-5.0353.232-1.3532 1.247-2.3837 2.147-3.3491 1.549-1.3974 3.138-2.7532 4.721-4.1167.322-.3357.759-.6428.871-1.119-.031-.4632-.221-.8952-.346-1.3349z"/><path d="m46.9777 67.7553c.5465-.8223 1.1216-1.6212 1.6784-2.4357.3592.7078.8093 1.3896 1.4833 1.8372 2.316 1.6758 4.6372 3.3464 6.9662 5.0092.752.5283 1.4468 1.1372 2.1182 1.7696-2.0167.497-4.1089.4762-6.1595.7442-2.2431.2888-4.507.2862-6.758.4866 1.4026 1.1398 2.9822 2.0297 4.416 3.1279.8796.6714 1.8164 1.3037 2.8677 1.6706.5022-.0234.929-.3305 1.3765-.523-.6193.929-1.2855 1.8267-1.9282 2.7401-.406-1.0825-1.3818-1.7227-2.2717-2.3732-1.8216-1.3037-3.5911-2.6803-5.4465-3.9398-.9784-.7026-2.0167-1.3557-2.7844-2.3056 1.4-.3383 2.839-.3174 4.2651-.4163 2.8988-.2967 5.8107-.3956 8.7018-.7651-2.1468-1.681-4.494-3.0862-6.732-4.6424-.5308-.4684-1.2152-.1665-1.7929.0157z"/><path d="m204.678 73.7902c2.186-1.2803 4.273-2.748 6.56-3.8539-1.129 4.2364-2.826 8.3089-3.95 12.5479 2.261-1.2803 4.398-2.7687 6.555-4.213.653-.3513.861-1.0747 1.075-1.7279.523.7651.991 1.5666 1.475 2.3577-.666.0442-1.345.1301-1.918.497-3.336 1.9308-6.492 4.1792-9.925 5.9383.024-.6116.029-1.2309.219-1.8164 1.109-3.4948 2.243-6.9818 3.367-10.4714-1.915.9811-3.643 2.2744-5.433 3.4558-.591.432-1.28.7833-1.699 1.4026-.086.484-.026.9784-.024 1.4703-.572-.903-1.14-1.806-1.691-2.7194 2.014-.484 3.632-1.8449 5.389-2.8676z"/><path d="m38.5023 81.209c.5022-1.007 1.0825-1.9725 1.6576-2.9379.013.4034.0182.8067.026 1.2101 1.7695 1.2542 3.7576 2.1416 5.6547 3.1799 1.6316.8457 3.1799 1.8528 4.8869 2.5476.4424-.3774.8718-.7677 1.309-1.1528-.5933 1.2334-1.171 2.4851-1.9959 3.5858-1.3402-1.5014-3.245-2.2353-4.9651-3.1851-2.1729-1.1163-4.2338-2.4929-6.5732-3.2476z"/><path d="m213.434 86.4396c1.749-.9238 3.677-1.5639 5.21-2.8546.573 1.033 1.077 2.1 1.52 3.1955-.364-.2316-.705-.5126-1.119-.6401-.484-.0365-.929.2081-1.358.3877-2.642 1.2569-5.28 2.5189-7.911 3.7992-.729.3383-1.353.8458-1.947 1.3792-.567-1.1215-1.056-2.2821-1.574-3.4271.359.294.705.6115 1.119.8353 2.129-.6089 4.049-1.7695 6.06-2.6751z"/><path d="m221.08 88.1857c.453 1.5327.999 3.0368 1.509 4.5513-.304-.2082-.57-.4867-.924-.5985-.765.268-1.384.8223-2.024 1.3011-1.918 1.4962-3.859 2.9665-5.736 4.5174 3.238-.1327 6.498.1301 9.72-.255.127-.3201.26-.6375.395-.955.388.9342.724 1.8892 1.041 2.852-.669-.255-1.345-.5282-2.066-.5594-3.125-.0833-6.253-.0078-9.378-.1015-1.083.0182-2.171.0364-3.232-.2056.229-.3565.442-.739.778-1.0071 2.998-2.3862 5.982-4.7907 8.959-7.2003.734-.5491.862-1.4937.958-2.3394z"/><path d="m32.1554 95.3624c.4138-1.6081 1.2075-3.0914 2.1234-4.468.7989.3305 1.603.6454 2.4019.9784-.8718.4893-1.9022.7781-2.558 1.577-1.1268 1.348-1.6212 3.3985-.6792 4.9807.6766 1.2672 2.0272 1.9235 3.3075 2.4275 1.5275.555 3.2267.695 4.8089.307 1.8059-.439 3.2319-2.0423 3.5052-3.8717.026-.3695-.1432-.7599-.5283-.8457-1.5769-.648-3.2215-1.3636-4.9676-1.1476.3148-1.1996.7728-2.3576 1.2646-3.4948.1198.5152.0651 1.223.6714 1.4442 1.4286.674 2.9848 1.0305 4.4576 1.5926.4945 1.6212-.0494 3.31-.6739 4.8115-.7052 1.6835-2.1 3.1275-3.8695 3.6635-2.8651.612-6.1309-.156-8.0565-2.466-1.4287-1.4291-1.5093-3.6124-1.2075-5.4886z"/><path d="m225.548 101.65c.637 2.305.864 4.72 1.746 6.958-.908.143-1.816.284-2.73.383.404-.287.812-.568 1.218-.857-.01-.921-.135-1.839-.33-2.74-1.546.016-3.027.497-4.521.833-.044 1.21.274 2.402.961 3.401-.922.12-1.84.26-2.761.37.395-.344.793-.685 1.184-1.036-.143-.841-.326-1.673-.594-2.483-1.413.339-2.852.575-4.236 1.02-.37.138-.854.287-.95.724-.06.83.076 1.715.544 2.42.429.481 1.124.531 1.705.736-.797.131-1.583.404-2.395.333-.536-.59-.634-1.415-.762-2.167-.219-1.588-.638-3.138-.999-4.697.315.307.632.614.96.916 2.878-.378 5.662-1.241 8.507-1.809 1.015-.237 2.076-.393 3.005-.887.417-.346.315-.947.448-1.418z"/><path d="m29.0953 107.333c.1275-.656.2706-1.307.4267-1.955 2.5268 1.01 5.2773 1.226 7.9238 1.778 1.7747.369 3.5781.616 5.3268 1.108-1.3844 1.338-3.2164 2.035-4.8116 3.074-2.0531 1.314-4.2546 2.373-6.2974 3.7 2.0948.401 4.2079.682 6.3131 1.028 1.0252.169 2.0661.135 3.0966.034-.1561.939-.3305 1.873-.51 2.807-.1588-.377-.3149-.749-.4762-1.121-3.4558-.77-6.948-1.364-10.4298-2.014-.7989-.151-1.5925-.336-2.3524-.622 3.7889-2.29 7.7338-4.32 11.4889-6.667-2.3238-.424-4.6684-.744-7-1.122-.8952-.148-1.8008-.112-2.6985-.028z"/><path d="m227.708 112.256c.429 2.007.681 4.068.658 6.123.008 1.361-1.27 2.379-2.519 2.608-1.616.385-3.068-.62-4.421-1.34-1.319.931-2.49 2.045-3.729 3.075-.817.63-1.291 1.562-1.619 2.517.869-.005 1.752-.005 2.59.26-.896.518-2.241.89-2.342 2.113-.24 1.15.733 2.524 1.972 2.355 1.431.094 2.441-1.077 3.341-2.014 1.08-1.187 2.522-2.277 4.208-2.22 1.4-.109 2.709.895 3.19 2.17.253 1.205.18 2.483-.242 3.644-.905-.118-1.808-.268-2.719-.321.929-.294 2.066-.692 2.233-1.805.411-1.385-1.275-2.569-2.498-1.97-1.988.947-2.93 3.349-5.122 3.976-1.524.343-3.44.265-4.481-1.07-.999-1.184-1.007-2.873-.58-4.291.403-1.267-.06-2.618.221-3.89 1.242-1.694 3.188-2.634 4.69-4.057-.047-.505-.086-1.01-.123-1.512-1.816.063-3.63.331-5.345.945-.161-1.187-.299-2.373-.377-3.568.234.372.468.747.705 1.122 2.454.057 4.882-.383 7.32-.599 1.53-.237 3.131-.125 4.598-.682.328-.437.25-1.054.391-1.569zm-6.238 4.299c.034.88-.224 2.118.841 2.493 1.426.497 3.195.383 4.431-.554.781-.599.734-1.686.718-2.569-2.014-.049-4.007.336-5.99.63z"/><path d="m27.3752 120.529c.2706.374.445.916.9576 1.012 2.2327.406 4.5149.255 6.7658.484 1.5847.133 3.1747.117 4.7647.125.2186-.487.4215-.979.6271-1.468-.0208 1.549-.013 3.102-.1171 4.65-.3019-.4-.5282-.968-1.0825-1.056-1.6472-.393-3.3517-.25-5.0275-.362-2.3681-.161-4.7439-.333-7.1171-.164.0156-1.08.1119-2.152.229-3.221z"/><path d="m137.993 124.299c.456-.021.911-.039 1.369-.057-.18.291-.351.585-.515.887-.279-.286-.562-.564-.854-.83z"/><path d="m137.207 125.494c.151-.008.451-.024.602-.031-.003.153-.008.46-.011.614-.153.002-.458.002-.611.002.005-.145.015-.44.02-.585z"/><path d="m138.506 126.769c.245-.38.791.099.526.424-.253.372-.792-.099-.526-.424z"/><path d="m27.1149 127.516c.2108.38.4242.76.648 1.137 3.9996.133 8.0019-.154 12.0041-.047 2.3316.096 4.3145 1.796 5.2279 3.87-.9473-.773-1.8971-1.694-3.1722-1.848-2.3992-.341-4.8297-.047-7.242-.104-2.1936-.055-4.3769.109-6.5602.25-.4398.367-.6141.934-.8717 1.426-.0547-1.562-.0312-3.123-.0339-4.684z"/><path d="m135.011 127.797c.414-.149.56-.005.44.424-.422.146-.567.003-.44-.424z"/><path d="m133.806 128.874c.154.003.463.003.617.003 0 .151.003.452.003.603-.149-.005-.44-.018-.589-.023-.007-.146-.023-.437-.031-.583z"/><path d="m132.768 129.912c.143.013.427.039.57.052.005.13.016.393.023.526-.153.01-.455.034-.609.044.006-.156.013-.466.016-.622z"/><path d="m129.45 131.008c.208-.011.622-.037.83-.047-.372.38-.747.76-1.111 1.148.091-.37.185-.734.281-1.101z"/><path d="m131.628 131.167c.424-.128.562.02.419.445-.427.122-.567-.026-.419-.445z"/><path d="m134.009 131.151c.422-.125.562.023.422.442-.43.122-.57-.026-.422-.442z"/><path d="m130.423 132.241c.157.003.469.005.625.008-.005.146-.016.437-.021.583-.151.005-.453.016-.604.021 0-.151 0-.458 0-.612z"/><path d="m40.3004 133.639c.5257 1.543.3305 3.2.7 4.775-.3747-.375-.6297-1.059-1.2542-1.002-2.0506-.044-4.0803.309-6.1231.434-1.655.232-3.3491.162-4.978.57-.6194.107-.6532.849-.9108 1.309-.1145-1.473-.3852-2.93-.393-4.411.3539.521.7677 1.145 1.4937 1.083 1.7045-.12 3.4011-.372 5.1056-.508 2.0714-.226 4.1792-.216 6.1985-.783.0442-.492.0937-.981.1613-1.467z"/><path d="m128.334 134.435c.414-.169.583.539.198.666-.422.159-.586-.536-.198-.666z"/><path d="m215.36 134.776c3.055.856 6.256.749 9.381 1.132.973.078 1.944.323 2.925.221.547-.112.703-.71.992-1.111-.026 1.494-.206 2.974-.409 4.452-.146-.398-.289-.798-.435-1.191-2.019-.458-4.09-.469-6.133-.734-1.986-.172-3.974-.391-5.967-.289-.2.474-.398.947-.604 1.418.104-1.298.182-2.597.25-3.898z"/><path d="m127.061 135.632c.154-.005.458-.013.612-.018-.013.15-.039.455-.052.606-.13-.003-.391-.011-.523-.013-.008-.146-.026-.432-.037-.575z"/><path d="m125.997 136.66c.154.01.455.029.606.036.006.146.011.438.016.583-.156.008-.466.018-.622.024 0-.162 0-.482 0-.643z"/><path d="m122.625 140.051h.59c-.002.148-.005.45-.005.598-.146.003-.437.006-.583.008 0-.151-.002-.455-.002-.606z"/><path d="m38.7235 140.995c.8301-.127 1.6706-.167 2.5111-.154.6428 2.262.6818 4.643 1.3454 6.896-.3123-.294-.6116-.606-.9811-.825-1.0461-.15-2.0792.141-3.0992.336-2.8339.531-5.6833.999-8.4859 1.684-.1978.463-.3903.929-.5751 1.4-.4476-2.301-.7911-4.619-1.3349-6.896.8509-.154 1.7122-.226 2.571-.302-.3956.278-.8353.513-1.1528.887-.1535.971.1093 1.939.3305 2.878 1.3687-.281 2.7635-.434 4.1167-.791.4111-.062.5126-.562.3747-.892-.1587-.893-.4346-1.754-.7416-2.602.5621-.091 1.1267-.164 1.6888-.25-.2055 1.137-.1275 2.292.0651 3.427 1.8372-.18 3.6691-.534 5.4022-1.179-.026-.814.0338-1.673-.3149-2.433-.2914-.703-1.1241-.843-1.72-1.184z"/><path d="m121.454 141.214c.231-.362.988-.128.739.336-.203.457-1.023.13-.739-.336z"/><path d="m225.938 141.752c.739.211 1.478.424 2.209.672-.801 3.216-1.355 6.487-1.972 9.742-.533-.182-1.067-.367-1.59-.572.791-1.031 1.22-2.28 1.236-3.578-3.484-.823-7.031-1.369-10.536-2.092-.877-.211-1.278.749-1.661 1.342.19-1.605.565-3.185.963-4.751.104.374.167.77.341 1.126.958.44 2.012.615 3.037.844 2.743.491 5.475 1.035 8.21 1.574.255-.966.666-1.941.513-2.959-.144-.505-.466-.924-.75-1.348z"/><path d="m120.241 142.218c.302-.276.924.161.637.523-.301.286-.923-.172-.637-.523z"/><path d="m127.329 142.642c.248-.385.786.099.526.425-.255.372-.794-.102-.526-.425z"/><path d="m119.226 143.436c.151.003.458.005.609.008-.003.151-.01.455-.013.606-.138-.005-.414-.018-.552-.026-.01-.145-.034-.439-.044-.588z"/><path d="m120.483 144.677c.421-.13.562.016.424.44-.424.122-.567-.023-.424-.44z"/><path d="m116.762 145.518c.33.067.663.138.999.21-.021.216-.042.432-.057.654-.201-.013-.398-.024-.596-.032-.112-.281-.229-.559-.346-.832z"/><path d="m121.932 146.618c-.109-.335-.218-.674-.325-1.009.26.239.52.479.778.721-.112.072-.338.216-.453.288z"/><path d="m38.1432 151.342c1.2465-.877 3.0108-1.067 4.3509-.292.9733.635 1.5432 1.725 1.8242 2.826.2993 1.247.6714 2.475.9863 3.719-.4034-.279-.7651-.794-1.3194-.672-2.0193.313-3.9189 1.122-5.8836 1.658-1.7409.593-3.5937.916-5.2097 1.835-.0182.478-.0312.962-.0598 1.444-.4919-1.387-.929-2.792-1.3714-4.195-.3669-1.2-.255-2.769.9134-3.487 1.2517-.614 2.7141-.331 3.997.031.3877-1.056.8301-2.183 1.7721-2.867zm-.3773 5.259c1.3688-.25 2.6829-.711 4.0126-1.101.4919-.174 1.0487-.286 1.4261-.674.6635-.979-.1692-2.576-1.361-2.595-2.2457-.218-4.9286 1.944-4.0777 4.37zm-5.2019-.157c-.4189.537-.1925 1.252-.1639 1.869 1.5978-.383 3.1643-.882 4.723-1.395-.2316-.817-.5256-1.798-1.5118-1.928-1.132.083-2.3395.523-3.0473 1.454z"/><path d="m210.962 156.263c.43-1.234.83-2.48 1.354-3.677.031.424.049.856.137 1.275 1.205.637 2.522 1.03 3.826 1.416 1.506.471 3.047-.081 4.543-.295 1.754-.286 3.693-.392 5.054-1.688-.357 1.202-.721 2.401-1.044 3.614-.411-.224-.822-.536-1.311-.463-1.848.101-3.662.5-5.483.799 1.246 1.241 2.527 2.456 3.882 3.58.396.399.979.349 1.497.383-.315.906-.62 1.816-.932 2.722-.825-2.215-2.792-3.654-4.39-5.285-1.259-1.32-3.078-1.772-4.765-2.269-.77-.248-1.582-.203-2.368-.112z"/><path d="m42.9963 169.997c.8535-.07 1.8476-.211 2.5684.369 1.3402.877 1.5275 2.894.6792 4.174-.7755 1.041-2.2822 1.502-3.4818.953-1.0357-.417-1.642-1.489-1.8189-2.545-.0157-1.265.778-2.615 2.0531-2.951z"/><path d="m211.116 170.044c.905-.167 1.967-.224 2.727.393.734.463 1.085 1.332 1.213 2.157.166 2.129-2.433 3.922-4.312 2.764-2.158-1.002-1.931-4.632.372-5.314z"/><path d="m55.6509 180.224c.9733 1.423 1.832 3.149 1.4391 4.921-.4736.973-1.1892 1.803-1.8997 2.61.5751.013 1.6811-.042 1.6551.773-2.2952 2.383-5.7926 2.469-8.7331 3.523-.8301.32-1.6889-.018-2.5008-.211.0365-.89-.1509-2.063.7235-2.618 1.1293-.72 2.3966-1.512 2.8442-2.852.2706-1.03.3383-2.102.5855-3.141.1535.008.4632.019.6193.024.3904.7.7625 1.41 1.1268 2.128 1.2907-.679 2.3654-1.681 3.3699-2.721.6792-.617.6193-1.606.7702-2.436z"/><path d="m195.659 181.595c.437-.346 1.316-.734 1.683-.114.372.879.076 1.868.352 2.771.234.817.549 1.608.848 2.404 1.4-1.824 2.139-4.275 4.265-5.443.893-.117 2.186-.268 2.62.752.641.905.039 1.941-.398 2.781-.359.789-1.072 1.312-1.751 1.806-.224-.835-.463-1.67-.841-2.451-2.552 1.941-3.362 5.231-4.181 8.168-.209 1.187-.862 2.59-.021 3.672.695 1.046 1.47 2.04 2.102 3.131-.379.244-.775.465-1.142.728-.674-1.1-1.392-2.175-2.048-3.284-.908-1.506-2.006-2.935-2.508-4.645.728.063 1.449.222 2.12.521.224-1.148.643-2.29.544-3.474-.161-1.075-.544-2.098-.911-3.112-.681.083-1.358.166-2.037.242.479.221.955.447 1.434.676.031.77.099 1.551.002 2.324-.291.601-1.056.606-1.626.546-.716-.039-.973-.84-1.366-1.319.463-.151.937-.286 1.413-.406-.242-.807-.557-1.756-.003-2.508.836-1.122.333-2.813 1.45-3.766zm-.622 3.188c.804-.325.492-1.197.343-1.824-.382.536-.525 1.181-.343 1.824z"/><path d="m200.067 189.389c.38-.968 1.121-2.259 2.355-1.973.728.531.64 1.567.908 2.35.396.133.794.271 1.192.411.671-.754 1.431-1.446 2.391-1.813.203.218.398.45.583.692.292 1.14-1.413 2.11-.645 3.211.947 1.296 2.131 2.407 3.06 3.721.565.94.768 2.311-.094 3.149-.91.671-2.04 1.106-3.18 1.075-.848-.104-1.327-.922-1.759-1.564-.335-.482-.226-1.091-.226-1.64 1.205.516 2.602.513 3.693-.281-.641-1.179-1.445-2.331-2.657-2.974-.432 1.14-.862 2.441-1.968 3.102-.72.106-1.392-.25-2.061-.453 1.158-.9 1.713-2.274 2.064-3.656-.674-.208-1.39-.388-1.936-.854-.383-.512-.461-1.173-.666-1.759-.565 1.564-.482 3.295-1.218 4.807-.268.052-.531.104-.791.161.062-1.934.411-3.857.955-5.712z"/><path d="m61.8078 190.011c.1093.02.3253.059.4346.08.4346.508.765 1.26 1.4963 1.374.7937.203 1.642.078 2.4096-.179.5257-.328.8744-.857 1.3064-1.286.5022.281.4137.994.484 1.491.0572.989-.6142 1.738-1.1814 2.462-.0963.778.0286 1.569-.0157 2.355-.7416.044-1.5145.14-2.2301-.12-.8431-.291-1.3739-1.095-2.1806-1.441-1.5145-.042-3.1331.044-4.4368.91.4059.791.8379 1.572 1.3141 2.327-.3097.812-.9498 1.392-1.6941 1.808-1.6394-.757-3.2163-1.876-4.0802-3.487.039-1.069.4553-2.191 1.1866-2.987.5126-.684 1.452-.364 2.1754-.39 1.4182.122 2.7922-.271 4.1584-.581.2498-.791.5439-1.569.8535-2.336z"/><path d="m79.1023 195.733c.1769.01.5256.031.7.042.739 1.332.5074 2.883.497 4.337-.3591.055-.7208.097-1.0826.102-1.1033-1.247-.4501-3.058-.1144-4.481z"/><path d="m178.317 198.598c.646-.307 1.374-.757 2.106-.458.473.271.955.601 1.238 1.085.518 1.59.529 3.349 1.424 4.809.731-1.181 1.457-2.412 2.565-3.284.726-.13 1.471-.041 2.207-.044.096.453.336.986-.101 1.345-1.257 1.452-2.522 2.923-3.37 4.661 1.598-.021 3.266.242 4.798-.344 1.809-.577 3.399-1.782 5.33-1.972.559-.13 1.1.088 1.613.297-.125.635-.211 1.29-.458 1.897-1.814 1.522-4.226 2.042-6.524 2.305-1.397.26-2.831-.06-4.218.273.526 1.681 1.78 3.243 1.463 5.098-.318 1.221-1.361 2.105-2.382 2.764-1.236.387-2.664.213-3.755-.502-.702-.425-1.561-.989-1.597-1.895.151-.71.416-1.392.583-2.095.806.268 1.621 1.387 2.482.695 1.106-1.163.25-2.808-.19-4.07-1.116-.083-2.212-.304-3.307-.515 1.067-.31 2.464-.487 2.711-1.809-.333-2.113-1.285-4.088-1.696-6.19-.133-.752-.456-1.45-.922-2.051z"/><path d="m69.3153 200.417c-.0755-.809-.1536-1.668.3304-2.378 1.1867 1.225 2.8781 1.566 4.5019 1.785 2.4747.439 5.0665.923 7.1041 2.5 1.2412.989 2.7453 1.908 3.2554 3.5-.4762.151-.9368.474-1.4521.425-1.6342-1.203-3.0862-2.696-4.8922-3.651-2.8806-.976-5.8628-1.616-8.8475-2.181z"/><path d="m72.1673 204.136c.3877-.901.6115-2.283 1.7045-2.53.6063.125.5907.888.8639 1.338 1.7981.57 3.9007.747 5.2539 2.209.4476.416.2863 1.09.3591 1.637-1.0721.283-2.1807.455-3.1929.931-.0104.518-.0208 1.039-.0495 1.559-.7494.177-1.4936.385-2.2171.659.7052.866 1.603 1.584 2.1833 2.552.4242.677.3591 1.502.3305 2.264-.7885.185-1.5952.396-2.4123.328-.7234-.187-1.0591-.942-1.3714-1.551.5101-.333 1.0227-.656 1.5302-.994-.3383-.489-.6896-.968-1.0461-1.439-1.5588.755-2.342 2.314-3.18 3.729-.3877.005-.7754.011-1.1605.018-.0781-.458-.2941-.923-.19-1.387.2888-.765.7833-1.423 1.2074-2.113-.8665-.023-1.7357.047-2.5996-.031-.6558-.565-1.2725-1.525-.8509-2.399.3929-.791 1.0278-1.447 1.7356-1.96.3774-.307.9395-.301 1.361-.096.6246.211.6454.96.8197 1.494-.5803.208-1.1658.401-1.7357.63 1.1372.353 2.4904.64 3.5755-.024-.3149-.377-.6844-.716-.9264-1.142.0494-.414.1952-.81.242-1.221-.1743-.812-.6714-1.642-.2342-2.461zm1.5405.158c-.2706.5-.2472 1.088-.3227 1.637 1.5848.07 3.1956.037 4.7257-.429-.9993-.453-2.0454-.789-3.094-1.098-.4268-.104-.8796-.292-1.309-.11z"/><path d="m164.297 206.058c.593.11 1.204.201 1.748.49.146.973.037 1.962.073 2.945.999-.609 2.124-.879 3.295-.733.028.348.234.723.083 1.069-.968 1.171-2.254 2.087-3.06 3.393-.094.62-.065 1.249-.086 1.879.507-.309 1.002-.661 1.577-.838.533-.078 1.046.159 1.556.289.096 1.403-.008 2.824.372 4.195.671-.029 1.348-.026 2.022-.055 1.572-.086 3.099-.734 4.687-.531.739.045 1.009.802 1.342 1.341-1.553 1.725-4.08 1.753-6.201 1.376-.64-.041-1.603-.338-1.923.427-.575 1.036-.965 2.253-1.975 2.969-1.14.903-2.719.69-4.023.336-1.226-.586-1.057-2.392-.135-3.188.517.302 1.033.612 1.558.908.399-.093.797-.185 1.195-.289.611-.096.817-.773 1.158-1.197-2.209-1.126-4.843-.609-7.063-1.709.206-.25.419-.495.667-.7 1.249-.154 2.482.216 3.731.234-.627-1.598.128-3.274-.25-4.905-.765-.006-1.514-.164-2.271-.201-.932.401-1.676 1.119-2.556 1.616.133 3.453.768 6.904 2.064 10.118.346.71.616 1.454.741 2.24-1.647.609-3.552.208-5.105-.507-.963-.966-1.325-2.459-1.307-3.792.401-2.352 1.374-4.559 2.004-6.854-.986.609-1.931 1.306-3.013 1.738-.56.235-1.111-.179-1.634-.333 1.735-.616 3.372-1.496 4.767-2.709-.125-2.126.122-4.246.492-6.336.416-.096.838-.208 1.27-.211.499.578.346 1.431.556 2.131.193 1.132 1.374 1.611 2.205 2.223.864-.495 1.904-1.109 1.972-2.223.102-1.545.102-3.161-.533-4.606zm-4.874 7.805c.265-.193.533-.38.801-.57-.002-.885-.042-1.778-.367-2.61-.453.994-.502 2.102-.434 3.18zm8.285 2.482c-.565.825-1.108 1.666-1.684 2.488.57.065 1.14.125 1.715.174.164-.882.274-1.798-.031-2.662zm-8.881 4.463c-.422 1.184-.669 2.456-.417 3.708.167.739.966.916 1.58 1.132-.198-1.65-.508-3.307-1.163-4.84z"/><path d="m90.3438 210.555c1.5458-.939 3.2476-1.602 4.7231-2.659.3409.684.5673 1.733-.2264 2.201-1.0019.456-2.0063.929-2.8104 1.705 2.0688.515 4.2026.276 6.3026.562 1.6342.174 3.3573-.169 4.9153.487.95.419 1.671 1.202 2.285 2.016-.122.333-.25.664-.377.997-1.192.252-1.733-.989-2.655-1.457-.96-.495-2.055-.659-3.1248-.627-1.655.015-3.284-.344-4.9364-.32-.8718.015-1.7279-.188-2.5008-.583-1.3115 1.655-1.9334 3.7-2.8 5.594-.7312 1.426-1.236 2.951-1.8944 4.411-.3409.003-.6844.005-1.0253.011-.1249-.562-.4398-1.179-.1379-1.736.6401-1.26 1.413-2.449 2.048-3.711.7962-1.642 2.0453-3.083 2.4122-4.913-1.4208.601-2.6829 1.731-4.2885 1.775.0625-.625-.2185-1.499.4658-1.863 1.1997-.643 2.4513-1.19 3.6249-1.89z"/><path d="m99.3216 208.937c1.1294.242 2.1654.918 2.7794 1.907.008.398-.073.791-.128 1.187-1.002-.908-2.1232-1.809-2.6514-3.094z"/><path d="m116.819 211.039c.596.453 1.293 1.124.879 1.939-.666.781-1.493 1.421-2.055 2.293 1.046-.053 2.087-.292 3.138-.227.63.302 1.059 1.002 1.077 1.705.175 2.677-.632 5.29-1.545 7.772 1.675-.866 3.632-1.584 5.524-1.043.664.156.997.786 1.338 1.314-.893.864-2.095.18-3.144.182-.653.097-1.223.471-1.816.742 1.252.614 1.845 1.92 2.488 3.076.335.546.257 1.199.221 1.813-.901.274-1.814.576-2.766.589-2.803-.045-5.587-1.616-6.886-4.13-.395-.729-.226-1.575-.156-2.35.52.9.825 1.962 1.626 2.673 1.262 1.16 2.886 2.113 4.656 2.05.432-.026 1.007.005 1.192-.487.07-.962-.258-1.894-.544-2.797-1.031.018-1.882.703-2.894.82-.51.08-1.012-.089-1.504-.198-.042-.539-.068-1.075-.086-1.611.552-.51 1.116-1.007 1.639-1.548-1.262.008-2.524.14-3.783.029-.804.007-1.431-.979-1.062-1.705.757-1.827 1.684-3.599 2.061-5.558-1.059.991-1.985 2.113-3.037 3.115-.184-.063-.554-.188-.739-.25.008-.534-.034-1.07.063-1.593 1.017-1.236 2.347-2.165 3.468-3.302.646-.666 1.426-1.181 2.103-1.814.448-.369.427-.983.544-1.499zm-1.785 5.803c-.091.518-.167 1.044-.237 1.569 1.236.526 2.457 1.629 2.207 3.107-.981-.442-1.577-1.36-2.282-2.123-.412.9-.753 1.832-1.005 2.792 1.437-.054 2.837-.458 4.278-.432.695-1.782.885-3.703.752-5.602-1.298-.292-2.547.156-3.713.689z"/><path d="m143.187 211.515c1.257.164 2.527 1.072 2.665 2.407.12 2.03.167 4.078.567 6.079 1.127-.354 2.433-.489 3.347.414-.011.294-.024.588-.039.887-.888.458-2.064.638-2.642 1.507-.197 2.686.654 5.298.953 7.95.237.9.021 1.811-.125 2.709-.864-.88-2.358-1.281-2.519-2.688-.143-1.811-.422-3.61-.578-5.421-.039-.309-.026-.676-.364-.809-1.083.744-2.069 1.65-3.266 2.217-.918.247-1.78-.18-2.537-.648-.648.682-1.291 1.366-1.923 2.061.247.895.552 1.78.757 2.691.102.442-.255.806-.408 1.197-1.065-.45-1.723-1.431-1.986-2.527-.723.57-1.402 1.226-2.227 1.647-1.072.221-1.736-1.168-1.304-2.037.606-1.174 1.137-2.454 2.116-3.373.572-.349 1.061.206 1.501.508.029-.846.06-1.689.042-2.532-1.411.822-2.701 2.001-4.364 2.266-1.033.107-1.416-1.048-1.804-1.78 2.225-.093 4.182-1.301 5.889-2.628.843-.583.672-1.704.791-2.589-.968.268-1.925.739-2.945.718-.586-.242-1.049-.692-1.559-1.051.9-1.046 2.084-1.757 3.156-2.6.646-.455.776-1.254.864-1.983 1.002.367 1.845 1.122 2.243 2.121.11 1.017-.746 1.751-1.345 2.454.718.661 1.569 1.134 2.462 1.52.002.294.008.59.015.89-.7.502-1.509.9-2.035 1.603-.265.619-.049 1.324-.01 1.972.859-.617 1.577-1.397 2.248-2.207.885.359.859 1.32.82 2.129 1.348-.575 2.516-1.468 3.622-2.417-.991-.729-1.972-1.479-2.784-2.408.289-.249.562-.767 1.028-.554 1.259.32 2.17 1.322 2.688 2.477.021-1.327.271-3.164-1.114-3.89-.819-.525-1.566-1.15-2.35-1.723.919-.044 1.843-.041 2.764.032-.003-1.538-.096-3.071-.31-4.591z"/><path d="m96.774 214.409c1.2907.219 2.5553.575 3.83.869-.015.339-.031.682-.049 1.028-1.5509.273-3.1305.458-4.6085 1.023 1.4806.044 2.9899.042 4.4105.523.885.32 1.884.596 2.452 1.413-.349.25-.687.52-1.075.713-1.621-.661-3.2738-1.676-5.1006-1.304-.6896.456-1.0955 1.21-1.5041 1.905 1.1945.003 2.3967-.179 3.5859-.034 1.1268.188 2.0168 1.416 1.8348 2.54-.5987.726-1.5511.973-2.3734 1.348-.0885.497-.1744.994-.2551 1.496-.2888.195-.5777.393-.8639.596-.4996-.518-1.0617-.989-1.4416-1.6-.151-.581-.0261-1.182.0078-1.762.9862-.325 2.3186-.336 2.813-1.421-1.1372-.203-2.5502-.073-3.3231.885-.3304.375-.7286.677-1.1397.955-.2993-.492-.8301-.95-.7261-1.582.0078-1.239.7026-2.282 1.2881-3.321-1.1684.17-2.3394.362-3.526.331.2004-.508.3331-1.179.955-1.319 2.0402-.516 3.958-1.429 6.0372-1.817-.4346-.468-.8483-.955-1.2282-1.465z"/><path d="m115.44 216.871c.939-.193 1.715.383 2.391.958-.067.325-.135.653-.205.981-.836-.518-1.593-1.156-2.186-1.939z"/><path d="m109.634 224.891c.151-.008.456-.024.607-.031-.086 2.261-.841 4.423-1.356 6.612-.143.002-.432.008-.578.01-.122-.499-.364-1.03-.117-1.53.632-1.642.955-3.377 1.444-5.061z"/></g><path d="m121.089 11.8202c11.187-.6064 22.465.2732 33.379 2.8338 17.794 4.1063 34.557 12.5453 48.503 24.3282 15.064 12.6651 26.837 29.21 33.826 47.6104 6.105 15.9494 8.515 33.2564 7.237 50.2724-1.101 14.794-5.056 29.384-11.674 42.669-9.63 19.587-24.939 36.329-43.561 47.714-11.577 7.128-24.427 12.163-37.75 14.849-17.578 3.492-35.966 2.966-53.2784-1.695-18.8272-5.014-36.3245-14.918-50.3401-28.444-14.6688-13.969-25.5097-31.888-31.1695-51.329-7.75727-26.543-5.7327-55.868 5.8628-80.9948 5.9773-13.1048 14.4268-25.0698 24.7732-35.091 11.1714-10.8955 24.5729-19.4933 39.1271-25.1219 11.2-4.3405 23.0789-6.8803 35.0649-7.6011zm1.028 2.3081c-21.049.9577-41.7111 8.106-59.0315 20.0632-6.5238 4.6424-12.7171 9.7974-18.1506 15.6889-14.1873 14.9654-24.1226 33.9018-28.4345 54.0636-1.6654 7.731-2.4591 15.634-2.5788 23.535.0728 8.97.968 17.96 3.0654 26.693 2.355 10.1 6.1178 19.871 11.1453 28.94 1.4599 2.438 2.7688 4.967 4.3874 7.309 5.3814 8.2 11.8011 15.726 19.1238 22.255 6.5602 6.05 13.9505 11.158 21.7546 15.467 8.4104 4.599 17.4037 8.145 26.7069 10.467 8.264 2.105 16.779 3.156 25.296 3.421 15.741.321 31.57-2.537 46.117-8.592 3.773-1.457 7.338-3.383 10.947-5.197 5.025-2.826 9.938-5.873 14.497-9.412 5.684-4.213 10.857-9.084 15.614-14.315 3.674-3.934 6.872-8.283 9.958-12.688 9.988-14.836 16.517-32.018 18.643-49.791 2.295-18.489.023-37.55-6.696-54.936-1.311-3.6639-3.052-7.1457-4.725-10.6483-1.291-2.6517-2.858-5.155-4.255-7.7468-.739-1.3714-1.749-2.5658-2.568-3.8851-1.702-2.8287-3.839-5.3554-5.819-7.9863-6.196-7.7156-13.318-14.739-21.359-20.5264-7.752-5.8524-16.342-10.5702-25.343-14.2003-3.068-1.335-6.292-2.2405-9.454-3.3127-12.551-3.7706-25.754-5.3814-38.841-4.6658z" fill="#044da2"/><path d="m114.344 113.315c4.119-3.922 8.382-7.721 12.97-11.086-2.707 2.441-5.598 4.692-8.166 7.292-7.07 6.812-13.394 14.416-18.7 22.681-1.4856 2.199-2.7061 4.556-4.0774 6.825-.7469-.66-1.4989-1.316-2.1937-2.029 5.8891-8.559 12.7461-16.423 20.1671-23.683z" fill="#044da2"/><path d="m136.999 122.095c.263-.005.789-.013 1.051-.016-.135.346-.27.692-.408 1.038-.247-.322-.458-.666-.643-1.022z" fill="#044da2"/><path d="m135.089 122.355c.76-.424.055.875 0 0z" fill="#044da2"/><path d="m135.883 123.206c.304-.047.609-.091.913-.135-.013.348-.023.7-.031 1.051-.289-.052-.573-.104-.856-.154-.011-.255-.018-.51-.026-.762z" fill="#044da2"/><path d="m133.858 123.365c.266-.422.864.099.578.46-.273.417-.864-.101-.578-.46z" fill="#044da2"/><path d="m132.773 124.434h.648c-.008.148-.023.445-.031.596-.167.021-.5.062-.666.083.013-.169.036-.507.049-.679z" fill="#044da2"/><path d="m130.509 126.375c.276.099.554.196.836.294-.037.198-.107.596-.144.794-.265-.078-.619-.042-.785-.297.018-.265.049-.53.093-.791z" fill="#044da2"/><path d="m128.329 126.745c.419-.138.559.008.426.432-.421.138-.562-.008-.426-.432z" fill="#044da2"/><path d="m129.271 127.596c.179-.01.541-.029.72-.039.021.31.047.619.073.929-.218-.018-.656-.055-.874-.076.028-.273.055-.543.081-.814z" fill="#044da2"/><path d="m127.249 127.825c.322-.265.801.265.437.526-.32.26-.812-.276-.437-.526z" fill="#044da2"/><path d="m140.562 127.786c.166-.008.494-.023.658-.031-.005.179-.018.539-.023.715-.162 0-.479-.005-.641-.007.003-.169.006-.508.006-.677z" fill="#044da2"/><path d="m126.041 128.858c.143-.002.43-.008.573-.01.005.159.018.471.023.627-.166.01-.502.029-.669.036.019-.161.055-.489.073-.653z" fill="#044da2"/><path d="m125.003 129.821c.122.042.367.125.489.166.039.128.122.386.161.513-.179.013-.538.042-.718.055.016-.185.05-.549.068-.734z" fill="#044da2"/><path d="m125.856 130.929c.196.003.586.008.781.011.112.255.224.51.338.767-.377.06-.754.112-1.129.167 0-.315.003-.63.01-.945z" fill="#044da2"/><path d="m122.63 132.251c.153-.02.46-.062.614-.083-.003.193-.008.575-.013.768-.149-.021-.448-.063-.596-.084 0-.148-.003-.45-.005-.601z" fill="#044da2"/><path d="m124.706 132.093c.289-.013.578-.024.869-.029.003.208.008.627.011.835-.292-.01-.583-.018-.869-.021-.003-.197-.008-.59-.011-.785z" fill="#044da2"/><path d="m138.079 132.722c.146-.468.627-.481 1.031-.564-.008.19-.026.575-.034.767-.333-.065-.669-.132-.997-.203z" fill="#044da2"/><path d="m120.558 134.624c.422-.13.568.016.43.44-.419.136-.562-.013-.43-.44z" fill="#044da2"/><path d="m119.408 135.733c.364-.117.492.005.377.372-.369.115-.494-.01-.377-.372z" fill="#044da2"/><path d="m120.225 136.691c.318-.021.638-.042.96-.06-.015.291-.026.583-.036.88-.19.015-.572.049-.765.067-.052-.296-.104-.593-.159-.887z" fill="#044da2"/><path d="m119.236 137.685c.268.013.539.026.81.041.026.185.075.555.099.737-.302.052-.602.106-.898.169-.005-.318-.011-.635-.011-.947z" fill="#044da2"/><path d="m118.011 139.595c.187-.339.408-.656.611-.984.102.333.211.666.315.999-.231-.002-.695-.01-.926-.015z" fill="#044da2"/><path d="m117.162 140.06c.146-.005.432-.013.578-.015v.637c-.156.005-.471.018-.63.024.013-.162.039-.484.052-.646z" fill="#044da2"/><path d="m90.5858 142.483c1.0045.758 1.9777 1.551 2.9796 2.311-2.1365 5.015-3.9398 10.24-4.4941 15.689-.3825 3.646-.1119 7.52 1.629 10.81 1.4599 2.776 4.1636 4.832 7.2238 5.514 4.7879 1.127 9.7579-.005 14.2969-1.624 3.911-1.345 7.512-3.412 11.148-5.345-3.948 3.276-8.143 6.256-12.522 8.928-4.762 2.808-9.761 5.363-15.1582 6.688-3.729.89-7.8666 1.27-11.4238-.442-2.5294-1.174-4.2104-3.662-4.9494-6.287-.7963-2.959-.674-6.079-.2316-9.085 1.0096-6.232 3.4011-12.139 6.1568-17.783 1.6655-3.188 3.3569-6.373 5.345-9.374z" fill="#044da2"/><path d="m122.385 146.329c1.249-.76 2.399-1.671 3.625-2.464.385.434.773.866 1.085 1.361-.294.062-.591.117-.885.156-.343-.201-.575-.539-.853-.809-.828 1.282-2.405 1.811-3.198 3.125-.159.005-.474.018-.633.026-.135-.279-.263-.554-.387-.83.343.125.681.27 1.022.414-.078-.232-.153-.461-.229-.69.115-.073.341-.216.453-.289z" fill="#044da2"/><path d="m114.698 144.479c.229-.007.684-.018.911-.023-.151.39-.401.731-.599 1.101-.114-.359-.216-.719-.312-1.078z" fill="#044da2"/><path d="m124.639 145.9c.309-.172.635-.31.973-.416-.021.263-.063.786-.083 1.048-.367-.117-.732-.252-.89-.632z" fill="#044da2"/><path d="m123.913 147.019c.767-.403.041.869 0 0z" fill="#044da2"/><path d="m118.172 147.852c.159.005.476.018.635.023.005.156.018.471.023.627-.164-.002-.486-.005-.65-.007 0-.162-.005-.482-.008-.643z" fill="#044da2"/><path d="m122.117 14.1286c13.087-.7156 26.29.8952 38.841 4.6658 3.162 1.0721 6.386 1.9777 9.454 3.3126 9.001 3.6301 17.591 8.348 25.343 14.2004 8.041 5.7873 15.163 12.8108 21.359 20.5264 1.98 2.6308 4.117 5.1576 5.819 7.9862.819 1.3193 1.829 2.5138 2.568 3.8851 1.397 2.5918 2.964 5.0952 4.255 7.7469 1.673 3.5026 3.414 6.9843 4.725 10.6483 6.719 17.3857 8.991 36.4467 6.696 54.9357-2.126 17.773-8.655 34.956-18.643 49.791-3.086 4.406-6.284 8.754-9.958 12.688-4.757 5.231-9.93 10.102-15.614 14.315-4.559 3.539-9.472 6.587-14.497 9.413-3.609 1.813-7.174 3.739-10.947 5.196-14.547 6.056-30.376 8.913-46.117 8.593-8.517-.266-17.032-1.317-25.296-3.422-9.3032-2.321-18.2965-5.868-26.7069-10.466-7.8041-4.31-15.1944-9.418-21.7546-15.468-7.3227-6.529-13.7424-14.055-19.1238-22.254-1.6186-2.342-2.9275-4.872-4.3873-7.31-5.0276-9.069-8.7904-18.84-11.1454-28.939-2.0974-8.733-2.9926-17.724-3.0654-26.694.1197-7.9.9134-15.803 2.5788-23.534 4.3119-20.1626 14.2472-39.099 28.4345-54.0644 5.4335-5.8914 11.6268-11.0464 18.1506-15.6888 17.3204-11.9573 37.9825-19.1056 59.0315-20.0632zm-7.091 13.7606c-1.814.2472-3.628.5985-5.467.5334.013.8406.052 1.6811.052 2.5242.289-.4476.442-1.0799 1.004-1.2621.921-.4059 1.939-.4502 2.93-.5152.398 3.8461 1.314 7.6479 1.351 11.5226-.341.2603-.682.5179-1.02.7781 1.66-.268 3.328-.5178 5.004-.6505-.57-.1562-1.239-.2056-1.679-.6376-.312-.5881-.34-1.2725-.455-1.9152-.401-3.1513-.963-6.2896-1.2-9.4617 1.057-.1093 2.121-.1874 3.186-.0989.262.3825.52.7702.783 1.1554.021-.9082-.141-1.806-.305-2.6933-1.363.4007-2.787.4996-4.184.7208zm6.971-.7104c.477.3331 1.231.5152 1.278 1.2048.255 1.4651.078 2.9613.208 4.4394.211 2.139.237 4.2963.156 6.4431.016.6532-.676.877-1.108 1.2022 1.579.0339 3.143-.1925 4.718-.2524-.802-.1483-1.746-.4554-1.632-1.4624-.036-3.6561-.416-7.2993-.32-10.958.382-.2212.768-.4372 1.15-.661-1.483-.0442-2.966.0156-4.45.0443zm12.343-.0156c-1.653.2472-3.157 1.3089-3.945 2.7817-1.403 2.3863-1.582 5.4933-.253 7.9524 1.372 2.8963 5.421 3.8852 8.096 2.2406 1.762-1.1164 2.878-3.0681 3.188-5.1056.559-2.5138-.146-5.5766-2.431-7.0208-1.363-.9108-3.068-1.0513-4.655-.8483zm11.559 5.5453c-.7 2.7323-1.296 5.4959-2.176 8.1814-.411.1431-.825.2811-1.233.4294 1.35.3305 2.714.6167 4.07.9394-.476-.4086-1.322-.6818-1.244-1.4364.023-1.2986.505-2.5294.747-3.7941.281-1.465.567-2.9301 1.015-4.3561 1.712 3.4115 3.39 6.8438 5.116 10.2476.231.4189.517.7988.806 1.1788.763-1.5458.966-3.2841 1.458-4.9209.788-2.6855 1.29-5.449 2.209-8.0955-.581-.1535-1.163-.2992-1.746-.4372.122 1.6629-.365 3.271-.724 4.8766-.369 1.5145-.645 3.0498-1.064 4.5513-1.033-1.5431-1.637-3.31-2.548-4.9208-1.184-2.2119-2.092-4.5669-3.359-6.7398-.684 1.348-.947 2.8469-1.327 4.2963zm-42.677-3.1175c-.226.8588-.364 1.7383-.377 2.6283-.174 2.3446-.44 4.6814-.57 7.0286-.2 1.3323-.083 2.7115-.466 4.0126-.247.7599-1.215.864-1.8942.7885-.484-.2446-.7286-.7546-1.0149-1.1866-1.3661-2.3732-2.7193-4.7569-4.0568-7.1457-.5101-.9759-1.0904-1.9179-1.7878-2.7714-.1561.4424-.3409.8874-.3148 1.3662-.0417 3.1591.1327 6.3208.013 9.4773-2.9744-2.277-5.1993-5.3918-8.1502-7.6974-.0234 1.4703.6636 2.8026.968 4.213.6974 3.0134 1.8294 5.9253 2.29 8.9959-.2394.1692-.4762.3409-.7104.5153-2.3316-.5829-4.4758-1.6837-6.6877-2.5841.052-1.0721.1769-2.152.0234-3.2189-.2707-1.3063-1.2465-2.5398-2.5996-2.8052-1.0227-.2186-1.9986.2914-2.8547.7833-.942.5802-1.8944 1.1501-2.7427 1.8657.5777.5934 1.1606 1.1945 1.5769 1.9179 1.3323 2.2874 2.7454 4.5305 4.1193 6.7918.4945.7911.8249 1.668 1.0279 2.5762.8796-.4892 1.7461-.9992 2.6126-1.5093-1.7539-.8587-2.5241-2.8052-3.3959-4.4342.5569-.1899 1.1346-.6922 1.7461-.4241 1.4313.6011 2.7376 1.4884 4.2026 2.0193.8978.2238 1.9361.229 2.7011-.3643 1.1502-.7989 2.467-1.2959 3.7212-1.897-.4918-.0183-.9836-.0235-1.4728-.0391-.8536-2.4461-1.5457-4.952-2.2405-7.4476 2.4513 1.9179 4.278 4.5435 6.8516 6.3157.2212-3.1487-.0989-6.3078.0859-9.4591 1.5561 2.3315 2.8989 4.8037 4.1297 7.3226.6011-.078 1.1997-.1951 1.7721-.4033 1.5066-.5439 3.0806-.864 4.6036-1.3714-.331-.1119-.661-.2212-.989-.3331-.284-1.3219-.089-2.6673.078-3.9892 1.083-.2862 2.157-.6141 3.255-.8483.909 1.2621 1.895 2.5345 2.306 4.0595 1.254-.1692 2.459-.5517 3.659-.9421-.802-.1145-1.692-.255-2.16-1.0018-1.478-2.0245-2.735-4.2-4.119-6.287-1.07-1.4911-1.856-3.1877-3.139-4.5175zm61.86 8.4703c-.117.8769-.104 1.7799.039 2.6543.391 1.5873 1.562 3.0133 1.307 4.7308-.057 1.3922-1.856 2.5658-3.042 1.6108-1.028-.5309-1.023-1.7955-1.239-2.7766-.393.5569-.838 1.119-.989 1.7929-.138.6116.404 1.0279.854 1.3194 1.103.7338 2.498 1.1658 3.812.7911 1.788-.6636 2.857-2.6387 2.662-4.5019-.052-1.7487-1.197-3.1799-1.577-4.8401-.213-.8822.102-1.9986 1.02-2.3316.713-.1093 1.629-.1406 2.1.5152.653.6922.453 1.6941.521 2.5554.419-.8457.812-1.7071 1.145-2.5918-1.057-.9004-2.379-1.6915-3.82-1.5223-1.403.0832-2.449 1.3141-2.793 2.5944zm11.487 2.6855c-1.403.6453-2.02 2.2041-2.158 3.6561-1.119.3305-2.251.7-3.203 1.3948-1.936 1.4443-2.056 4.8063.026 6.1803 1.254 1.0643 2.93 1.2491 4.512 1.1632.547 1.7253 2.093 2.7974 3.727 3.3803-.872-1.2178-1.575-2.5528-1.931-4.0126 1.181-.8197 2.55-1.5796 3.221-2.9067.097-1.0383-1.223-1.2803-1.881-1.8034.19.4268.427.8432.518 1.3063-.331 1.0253-1.187 1.7461-2.017 2.3733-.58-1.6733-.822-3.435-1.072-5.1785-.07-1.3349-.237-2.8078.544-3.9814.531-1.1736 2.485-1.1762 3.031-.013.544.8275.079 1.8164-.07 2.6907.469-.6505 1.018-1.2542 1.392-1.9699.31-.7338-.351-1.3167-.882-1.7018-1.046-.8562-2.503-.7989-3.757-.5777zm8.733 6.7398c.603-.0365 1.254-.2056 1.832.0546.832.4086 1.501 1.0669 2.201 1.6576-1.038 1.4234-2.162 2.7818-3.268 4.1558-1.457 1.7591-2.722 3.6952-4.479 5.1836.919.9238 1.962 1.7175 3.081 2.3915-.281-.3878-.57-.7651-.858-1.1424.713-1.6446 2.027-2.8937 3.068-4.3197 1.361-1.6888 2.623-3.4584 4.07-5.0743.772.6375 1.655 1.2178 2.159 2.1078.281.5204-.125 1.0747-.236 1.5873.663-.6948 1.332-1.3844 1.925-2.1416-1.884-1.1398-3.502-2.6491-5.259-3.9684-.879-.661-1.697-1.4-2.456-2.1963-.607.5543-1.182 1.1398-1.78 1.7045zm-119.6481 1.2698c-2.2275.7937-4.1662 2.7558-4.4056 5.1837-.1327 2.3992 1.0227 4.7595 2.8182 6.3156 1.3037 1.1788 3.042 2.0011 4.8324 1.8424 1.7278-.0573 3.3282-1.0175 4.3171-2.4175 1.1944-1.3922 1.2933-3.3569.9654-5.0822-.4086-1.6914-1.4781-3.1512-2.7063-4.3483-1.5354-1.4078-3.7811-2.2665-5.8212-1.4937zm58.5661 3.6822c-17.003.8015-33.6524 7.5803-46.3487 18.9208-8.5769 7.5361-15.3453 17.0862-19.7509 27.6122-3.9996 9.6544-5.9981 20.1414-5.7405 30.5914.2837 17.883 7.2446 35.565 19.2227 48.847 2.6178 3.018 5.6182 5.67 8.6316 8.283 6.5394 5.233 13.875 9.511 21.7698 12.345 18.664 6.932 40.09 5.993 58.087-2.527 14.18-6.628 26.236-17.765 33.848-31.456 4.991-8.728 8.074-18.509 9.224-28.486 1.848-16.113-1.597-32.814-9.885-46.778-4.82-8.3662-11.377-15.6862-18.968-21.6297-7.383-5.7145-15.832-10.0368-24.781-12.6937-8.187-2.4383-16.779-3.4193-25.309-3.029zm-72.7327 9.6751c.432-.1692.8588-.3435 1.2908-.5127 1.6628 1.0982 2.9847 2.6075 4.455 3.9346 1.491 1.348 2.9925 2.6855 4.3275 4.1896-.0885.3747-.1848.7494-.2811 1.1268.9108-.7755 1.7591-1.6238 2.5008-2.5658-2.0298-.9446-3.5989-2.6257-5.09-4.2495.5699-.6505 1.171-1.2803 1.8762-1.7877.4528.1223.9056.2524 1.3584.3721-.5881-.6844-1.2048-1.3453-1.8346-1.9907-.4736 1.132-1.3193 2.0324-2.2639 2.7896-1.119-1.0019-2.2067-2.0349-3.271-3.0914.6089-.7105 1.1476-1.5432 1.9647-2.0298.5334-.3279 1.0747.1483 1.5821.3123-.5413-.661-1.0773-1.3272-1.668-1.9465-1.6004 1.8606-3.3413 3.5937-4.9469 5.4491zm148.6677-4.9312c.125.4397.315.8717.346 1.3349-.112.4762-.549.7833-.871 1.119-1.583 1.3635-3.173 2.7193-4.721 4.1167-.9.9654-1.915 1.9959-2.147 3.3491-.377 2.204 1.281 4.3405 3.305 5.0353 1.13.2108 2.384.1769 3.383-.4632 2.764-1.5692 4.796-4.0985 7.388-5.9045.421.1744.843.3513 1.264.5309-.856-1.1034-1.777-2.1547-2.781-3.1253.138.4502.294.8952.45 1.3453-.64.7287-1.332 1.4105-2.079 2.0298-1.707 1.4182-3.266 3.0368-5.166 4.2052-1.329.9082-3.495.3877-4.046-1.1866-.518-1.2153.065-2.5997.903-3.5208 1.262-1.3454 2.748-2.4565 4.109-3.6978.801-.6688 1.514-1.4911 2.485-1.9257.442-.065.864.1562 1.285.2681-1.041-1.1658-2.066-2.3446-3.107-3.5104zm-153.1773 10.5728c.5777-.1821 1.2621-.484 1.7929-.0156 2.2379 1.5561 4.5851 2.9613 6.732 4.6424-2.8911.3695-5.803.4684-8.7019.765-1.426.0989-2.865.0781-4.265.4164.7676.9498 1.8059 1.603 2.7844 2.3056 1.8554 1.2594 3.6249 2.636 5.4464 3.9397.89.6506 1.8658 1.2907 2.2718 2.3733.6427-.9134 1.3089-1.8112 1.9282-2.7402-.4476.1926-.8743.4997-1.3766.5231-1.0513-.3669-1.9881-.9993-2.8676-1.6707-1.4338-1.0981-3.0134-1.9881-4.416-3.1278 2.2509-.2004 4.5149-.1978 6.758-.4867 2.0506-.268 4.1427-.2472 6.1595-.7442-.6714-.6323-1.3662-1.2413-2.1182-1.7695-2.329-1.6628-4.6502-3.3335-6.9662-5.0093-.674-.4476-1.1242-1.1294-1.4833-1.8372-.5569.8145-1.1319 1.6134-1.6784 2.4357zm157.7003 6.0346c-1.757 1.0227-3.375 2.3836-5.389 2.8676.551.9134 1.119 1.8164 1.691 2.7194-.002-.4919-.062-.9863.024-1.4703.419-.6193 1.108-.9706 1.699-1.4026 1.79-1.1814 3.518-2.4747 5.433-3.4557-1.124 3.4895-2.258 6.9765-3.367 10.4713-.19.5855-.195 1.2048-.219 1.8164 3.433-1.7591 6.589-4.0075 9.925-5.9383.573-.3669 1.252-.4528 1.918-.497-.484-.7911-.952-1.5926-1.475-2.3577-.214.6532-.422 1.3766-1.075 1.7279-2.157 1.4443-4.294 2.9327-6.555 4.213 1.124-4.239 2.821-8.3115 3.95-12.5479-2.287 1.1059-4.374 2.5736-6.56 3.8539zm-166.1758 7.4189c2.3394.7547 4.4004 2.1313 6.5733 3.2476 1.72.9498 3.6249 1.6837 4.965 3.1851.8249-1.1007 1.4026-2.3524 1.9959-3.5858-.4372.3851-.8665.7754-1.3089 1.1528-1.7071-.6948-3.2554-1.7019-4.887-2.5476-1.897-1.0383-3.8851-1.9257-5.6546-3.1799-.0078-.4034-.013-.8067-.0261-1.2101-.575.9654-1.1553 1.9309-1.6576 2.9379zm174.9318 5.2305c-2.011.9056-3.932 2.0662-6.06 2.6751-.414-.2238-.76-.5413-1.119-.8353.518 1.145 1.007 2.3056 1.574 3.4271.594-.5334 1.218-1.0409 1.947-1.3792 2.631-1.2803 5.269-2.5423 7.91-3.7992.43-.1796.875-.4242 1.359-.3877.414.1275.754.4085 1.119.6401-.443-1.0955-.947-2.1624-1.52-3.1955-1.533 1.2907-3.461 1.9308-5.21 2.8546zm7.646 1.7461c-.097.8457-.224 1.7903-.958 2.3394-2.977 2.4097-5.962 4.8141-8.959 7.2004-.336.268-.549.6505-.778 1.007 1.061.242 2.149.2238 3.232.2056 3.125.0937 6.253.0182 9.378.1015.721.0312 1.397.3045 2.066.5595-.317-.9628-.653-1.9179-1.041-2.8521-.135.3175-.268.635-.395.9551-3.222.3851-6.482.1223-9.72.255 1.877-1.551 3.818-3.0212 5.736-4.5175.64-.4788 1.259-1.0331 2.024-1.3011.354.1119.62.3903.924.5985-.51-1.5145-1.056-3.0186-1.509-4.5513zm-188.9246 7.1769c-.3019 1.8763-.2212 4.0595 1.2074 5.4877 1.9257 2.311 5.1915 3.079 8.0565 2.467 1.7695-.536 3.1643-1.98 3.8695-3.6636.6246-1.5015 1.1684-3.1903.674-4.8115-1.4728-.5621-3.029-.9186-4.4576-1.5926-.6063-.2211-.5517-.929-.6714-1.4442-.4918 1.1372-.9498 2.2952-1.2647 3.4948 1.7461-.216 3.3907.4996 4.9677 1.1476.3851.0859.5543.4762.5282.8457-.2732 1.8294-1.6992 3.4328-3.5052 3.8718-1.5821.388-3.2814.248-4.8089-.307-1.2803-.505-2.6308-1.1603-3.3074-2.4276-.942-1.5822-.4476-3.6327.6792-4.9807.6557-.7989 1.6862-1.0877 2.558-1.5769-.7989-.3331-1.603-.648-2.4019-.9785-.916 1.3766-1.7097 2.8599-2.1234 4.468zm193.3926 6.2867c-.133.471-.031 1.072-.448 1.419-.929.494-1.991.65-3.005.887-2.845.567-5.629 1.431-8.507 1.808-.328-.301-.645-.608-.96-.916.361 1.559.78 3.11.999 4.697.127.753.226 1.577.762 2.168.812.07 1.598-.203 2.394-.333-.58-.206-1.275-.255-1.704-.736-.468-.706-.604-1.59-.544-2.42.096-.438.58-.586.95-.724 1.384-.445 2.823-.682 4.236-1.02.268.809.451 1.642.594 2.483-.391.351-.789.692-1.184 1.035.921-.109 1.839-.25 2.761-.369-.687-.999-1.005-2.191-.961-3.401 1.494-.336 2.975-.817 4.52-.833.196.9.321 1.819.331 2.74-.406.289-.815.57-1.218.856.914-.099 1.822-.239 2.73-.382-.882-2.238-1.109-4.653-1.746-6.959zm-196.4528 5.684c.8977-.084 1.8033-.12 2.6985.028 2.3316.378 4.6762.698 7 1.122-3.755 2.347-7.7 4.377-11.4889 6.667.7599.286 1.5536.471 2.3525.622 3.4817.65 6.9739 1.243 10.4297 2.014.1613.372.3175.744.4762 1.121.1795-.934.3539-1.868.51-2.807-1.0305.101-2.0713.135-3.0966-.034-2.1052-.346-4.2182-.627-6.313-1.028 2.0427-1.327 4.2442-2.386 6.2974-3.701 1.5951-1.038 3.4271-1.735 4.8115-3.073-1.7487-.492-3.5521-.739-5.3268-1.108-2.6464-.552-5.397-.768-7.9238-1.778-.1561.648-.2992 1.299-.4267 1.955zm198.6128 4.923c-.141.515-.063 1.132-.391 1.569-1.467.557-3.068.445-4.598.682-2.438.216-4.866.656-7.32.598-.237-.374-.471-.749-.705-1.121.078 1.194.216 2.381.377 3.568 1.715-.615 3.529-.883 5.345-.945.037.502.076 1.007.122 1.512-1.501 1.423-3.447 2.363-4.689 4.057-.281 1.272.182 2.623-.221 3.89-.427 1.418-.419 3.107.58 4.291 1.041 1.335 2.957 1.413 4.481 1.07 2.191-.627 3.133-3.029 5.122-3.977 1.223-.598 2.909.586 2.498 1.97-.167 1.114-1.304 1.512-2.233 1.806.911.052 1.814.203 2.719.32.422-1.16.495-2.438.242-3.643-.481-1.275-1.79-2.279-3.19-2.17-1.686-.057-3.128 1.033-4.208 2.22-.9.936-1.91 2.107-3.341 2.014-1.239.169-2.212-1.205-1.973-2.355.102-1.223 1.447-1.595 2.342-2.113-.837-.266-1.72-.266-2.589-.26.328-.955.802-1.887 1.619-2.517 1.239-1.03 2.41-2.144 3.729-3.076 1.353.721 2.805 1.726 4.421 1.34 1.249-.229 2.527-1.246 2.519-2.607.023-2.056-.229-4.117-.658-6.123zm-200.3329 8.273c-.1171 1.069-.2134 2.141-.229 3.221 2.3732-.169 4.7491.003 7.1171.164 1.6758.112 3.3803-.031 5.0275.362.5543.088.7807.655 1.0825 1.056.1041-1.548.0963-3.102.1171-4.65-.2055.489-.4085.981-.6271 1.468-1.59-.008-3.1799.007-4.7647-.125-2.2509-.229-4.5331-.078-6.7658-.484-.5126-.097-.687-.638-.9576-1.012zm-.2602 6.986c.0026 1.562-.0208 3.123.0338 4.684.2576-.491.432-1.059.8718-1.426 2.1832-.14 4.3665-.304 6.5602-.249 2.4122.057 4.8427-.237 7.242.104 1.2751.153 2.2249 1.074 3.1721 1.847-.9134-2.074-2.8963-3.773-5.2279-3.869-4.0022-.107-8.0044.179-12.0041.047-.2238-.378-.4371-.758-.6479-1.138zm13.1855 6.124c-.0677.486-.1171.975-.1614 1.467-2.0193.567-4.1271.557-6.1985.783-1.7044.136-3.4011.388-5.1055.508-.7261.062-1.1398-.562-1.4937-1.083.0078 1.481.2784 2.938.3929 4.411.2576-.46.2915-1.202.9108-1.309 1.629-.408 3.323-.338 4.9781-.57 2.0427-.125 4.0724-.478 6.123-.434.6245-.057.8795.627 1.2543 1.002-.3695-1.575-.1744-3.232-.7-4.775zm175.0596 1.137c-.068 1.301-.146 2.599-.25 3.898.206-.471.404-.945.604-1.418 1.993-.102 3.981.117 5.967.288 2.043.266 4.114.276 6.133.734.146.393.289.794.435 1.192.203-1.478.382-2.959.408-4.452-.288.4-.445.999-.991 1.111-.981.101-1.952-.143-2.925-.221-3.125-.383-6.326-.276-9.381-1.132zm-176.6366 6.219c.5959.341 1.4286.481 1.7201 1.184.3487.76.2888 1.619.3149 2.433-1.7331.645-3.5651.999-5.4023 1.179-.1925-1.135-.2706-2.29-.065-3.427-.5621.086-1.1268.159-1.6889.25.3071.848.5829 1.709.7417 2.602.1379.33.0364.83-.3748.892-1.3531.357-2.7479.51-4.1167.791-.2212-.939-.484-1.907-.3305-2.878.3175-.374.7573-.609 1.1528-.887-.8587.076-1.72.148-2.571.302.5439 2.277.8874 4.595 1.335 6.896.1847-.471.3773-.937.5751-1.4 2.8026-.685 5.652-1.153 8.4858-1.684 1.0201-.195 2.0532-.486 3.0993-.336.3695.219.6688.531.981.825-.6635-2.253-.7026-4.634-1.3453-6.896-.8405-.013-1.6811.027-2.5112.154zm187.2146.757c.284.424.606.843.75 1.348.153 1.018-.258 1.994-.513 2.959-2.735-.539-5.467-1.083-8.21-1.574-1.025-.229-2.079-.404-3.037-.844-.174-.356-.237-.752-.341-1.126-.398 1.566-.773 3.146-.963 4.751.383-.593.784-1.553 1.661-1.342 3.505.723 7.052 1.27 10.536 2.092-.016 1.298-.445 2.547-1.236 3.578.523.205 1.056.39 1.59.572.617-3.255 1.171-6.526 1.972-9.742-.731-.248-1.47-.461-2.209-.672zm-187.7949 9.589c-.942.685-1.3844 1.812-1.7721 2.868-1.2829-.362-2.7453-.645-3.997-.031-1.1684.718-1.2803 2.287-.9134 3.487.4424 1.403.8796 2.808 1.3714 4.195.0286-.482.0416-.966.0598-1.445 1.616-.918 3.4688-1.241 5.2097-1.834 1.9647-.536 3.8643-1.345 5.8836-1.658.5543-.122.916.393 1.3194.672-.3149-1.244-.687-2.472-.9863-3.719-.281-1.101-.8509-2.191-1.8242-2.826-1.3401-.775-3.1044-.585-4.3509.291zm172.8189 4.921c.786-.091 1.598-.135 2.368.112 1.687.497 3.506.95 4.765 2.269 1.598 1.632 3.565 3.071 4.39 5.285.312-.905.617-1.816.932-2.721-.518-.034-1.101.015-1.497-.383-1.355-1.124-2.636-2.339-3.882-3.581 1.821-.299 3.635-.697 5.483-.799.489-.072.9.24 1.311.464.323-1.213.687-2.413 1.044-3.615-1.361 1.296-3.3 1.403-5.054 1.689-1.496.213-3.037.765-4.543.294-1.304-.385-2.621-.778-3.826-1.416-.088-.419-.106-.85-.138-1.275-.523 1.197-.923 2.444-1.353 3.677zm-167.9657 13.735c-1.2751.336-2.0688 1.686-2.0532 2.951.177 1.056.7833 2.128 1.819 2.545 1.1996.549 2.7063.088 3.4818-.953.8483-1.28.6609-3.297-.6792-4.174-.7208-.58-1.7149-.439-2.5684-.369zm168.1197.047c-2.303.681-2.53 4.312-.372 5.313 1.879 1.158 4.478-.634 4.312-2.763-.128-.825-.479-1.694-1.213-2.157-.76-.617-1.822-.56-2.727-.393zm-155.4651 10.18c-.1509.83-.0911 1.819-.7702 2.435-1.0045 1.041-2.0792 2.043-3.3699 2.722-.3643-.718-.7365-1.428-1.1268-2.128-.1561-.006-.4658-.016-.6193-.024-.2472 1.038-.3149 2.111-.5855 3.141-.4476 1.34-1.7149 2.131-2.8443 2.852-.8743.554-.687 1.728-.7234 2.618.8119.193 1.6706.531 2.5008.211 2.9405-1.054 6.4379-1.14 8.733-3.524.0261-.814-1.0799-.76-1.655-.773.7104-.806 1.426-1.636 1.8996-2.61.393-1.772-.4658-3.497-1.439-4.92zm140.0081 1.371c-1.117.952-.615 2.644-1.45 3.765-.554.752-.239 1.702.003 2.509-.476.12-.95.255-1.413.406.393.479.65 1.28 1.366 1.319.57.06 1.335.055 1.626-.546.097-.773.029-1.554-.002-2.324-.479-.229-.955-.455-1.434-.677.679-.075 1.356-.158 2.037-.242.367 1.015.75 2.038.911 3.113.099 1.184-.32 2.326-.544 3.474-.671-.3-1.392-.458-2.12-.521.502 1.71 1.6 3.138 2.508 4.645.656 1.109 1.374 2.183 2.048 3.284.367-.263.762-.484 1.142-.728-.632-1.091-1.407-2.085-2.102-3.131-.841-1.082-.188-2.485.021-3.672.819-2.938 1.629-6.227 4.181-8.168.378.781.617 1.616.841 2.451.679-.494 1.392-1.017 1.751-1.806.437-.84 1.038-1.876.398-2.781-.434-1.021-1.728-.87-2.62-.753-2.126 1.169-2.865 3.62-4.265 5.444-.299-.796-.614-1.587-.848-2.404-.276-.903.02-1.892-.352-2.771-.367-.62-1.246-.232-1.683.114zm4.408 7.794c-.544 1.855-.893 3.778-.955 5.712.26-.058.523-.11.791-.162.736-1.512.653-3.242 1.218-4.806.205.585.283 1.246.666 1.759.546.466 1.262.645 1.936.854-.351 1.381-.906 2.755-2.064 3.656.669.203 1.34.559 2.061.452 1.106-.661 1.536-1.962 1.968-3.101 1.212.642 2.016 1.795 2.656 2.974-1.09.794-2.487.796-3.692.281 0 .549-.109 1.158.226 1.639.432.643.911 1.46 1.759 1.564 1.14.032 2.27-.403 3.18-1.074.862-.838.659-2.21.094-3.149-.929-1.314-2.113-2.425-3.06-3.721-.768-1.101.937-2.072.645-3.211-.185-.242-.38-.474-.583-.693-.96.367-1.72 1.06-2.391 1.814-.398-.14-.797-.278-1.192-.411-.268-.783-.18-1.819-.908-2.35-1.234-.286-1.975 1.005-2.355 1.973zm-138.2592.622c-.3097.767-.6037 1.545-.8535 2.336-1.3662.31-2.7402.703-4.1584.581-.7234.026-1.6628-.294-2.1755.39-.7312.796-1.1476 1.918-1.1866 2.987.864 1.611 2.4409 2.73 4.0803 3.487.7442-.416 1.3844-.996 1.6941-1.808-.4763-.755-.9082-1.535-1.3142-2.327 1.3037-.866 2.9223-.952 4.4368-.91.8067.346 1.3376 1.15 2.1807 1.441.7156.261 1.4885.164 2.2301.12.0442-.786-.0807-1.577.0156-2.355.5673-.723 1.2387-1.473 1.1814-2.462-.0702-.497.0182-1.21-.484-1.491-.432.43-.7807.958-1.3063 1.286-.7677.257-1.616.382-2.4097.179-.7312-.114-1.0617-.866-1.4962-1.374-.1093-.021-.3253-.06-.4346-.08zm17.2944 5.722c-.3357 1.423-.9889 3.234.1145 4.481.3617-.005.7234-.047 1.0825-.102.0104-1.454.242-3.005-.497-4.337-.1744-.011-.5231-.032-.7-.042zm99.2148 2.865c.466.601.789 1.298.922 2.051.411 2.102 1.363 4.077 1.696 6.19-.247 1.322-1.644 1.499-2.711 1.809 1.095.211 2.191.432 3.307.515.44 1.262 1.296 2.907.19 4.07-.861.692-1.676-.427-2.482-.695-.167.703-.432 1.384-.583 2.095.036.905.895 1.47 1.597 1.894 1.091.716 2.519.89 3.755.503 1.02-.659 2.064-1.544 2.381-2.764.318-1.855-.936-3.417-1.462-5.098 1.387-.333 2.821-.013 4.218-.273 2.298-.263 4.71-.783 6.524-2.306.247-.606.333-1.262.458-1.897-.513-.208-1.054-.426-1.613-.296-1.931.19-3.521 1.395-5.33 1.972-1.532.586-3.201.323-4.798.344.848-1.739 2.113-3.209 3.37-4.661.437-.359.197-.892.101-1.345-.736.002-1.481-.086-2.207.044-1.108.872-1.834 2.103-2.565 3.284-.896-1.46-.906-3.219-1.424-4.809-.283-.484-.765-.814-1.238-1.085-.732-.299-1.46.151-2.106.458zm-109.0018 1.819c2.9848.565 5.9669 1.205 8.8476 2.181 1.8059.955 3.258 2.448 4.8922 3.651.5152.049.9758-.274 1.452-.425-.51-1.592-2.0141-2.511-3.2554-3.5-2.0375-1.577-4.6293-2.061-7.1041-2.5-1.6237-.219-3.3152-.56-4.5018-1.786-.484.711-.406 1.57-.3305 2.379zm2.8521 3.719c-.4372.819.0598 1.649.2342 2.461-.0469.411-.1926.807-.2421 1.221.2421.426.6116.765.9264 1.142-1.0851.664-2.4382.377-3.5754.023.5699-.229 1.1554-.421 1.7357-.629-.1744-.534-.1952-1.283-.8197-1.494-.4216-.206-.9837-.211-1.361.096-.7078.513-1.3428 1.169-1.7357 1.96-.4215.874.1952 1.834.8509 2.399.864.078 1.7331.008 2.5997.031-.4242.69-.9186 1.348-1.2075 2.113-.1041.463.1119.929.19 1.387.3851-.008.7729-.013 1.1606-.018.8379-1.416 1.6212-2.974 3.1799-3.729.3565.471.7078.95 1.0461 1.439-.5074.338-1.0201.661-1.5301.994.3123.609.648 1.364 1.3714 1.551.8171.068 1.6238-.143 2.4122-.328.0287-.762.0937-1.587-.3304-2.264-.5803-.968-1.4781-1.686-2.1833-2.553.7234-.273 1.4676-.481 2.2171-.658.0286-.52.039-1.041.0494-1.559 1.0123-.476 2.1208-.648 3.193-.931-.0729-.547.0884-1.221-.3592-1.637-1.3531-1.462-3.4557-1.639-5.2538-2.209-.2733-.451-.2577-1.213-.864-1.338-1.0929.247-1.3167 1.629-1.7044 2.53zm92.1297 1.923c.634 1.444.634 3.06.533 4.605-.068 1.114-1.109 1.728-1.972 2.223-.831-.612-2.012-1.091-2.205-2.223-.21-.7-.057-1.553-.556-2.131-.432.003-.854.115-1.27.211-.37 2.09-.617 4.21-.492 6.336-1.395 1.213-3.032 2.093-4.767 2.709.523.154 1.074.568 1.634.333 1.082-.431 2.027-1.129 3.013-1.738-.63 2.295-1.603 4.502-2.004 6.854-.018 1.333.344 2.826 1.307 3.792 1.553.716 3.458 1.116 5.105.507-.125-.786-.395-1.53-.741-2.24-1.296-3.214-1.931-6.664-2.064-10.118.88-.497 1.624-1.215 2.555-1.616.758.037 1.507.196 2.272.201.378 1.631-.377 3.307.25 4.905-1.249-.018-2.482-.388-3.732-.234-.247.205-.46.45-.666.7 2.22 1.1 4.853.583 7.063 1.709-.341.425-.547 1.101-1.158 1.197-.398.105-.797.196-1.195.289-.525-.296-1.041-.606-1.558-.908-.922.796-1.091 2.602.135 3.188 1.304.354 2.883.567 4.023-.336 1.01-.715 1.4-1.933 1.975-2.969.32-.765 1.283-.468 1.923-.427 2.121.378 4.648.349 6.201-1.376-.333-.539-.604-1.296-1.343-1.34-1.587-.203-3.114.444-4.686.53-.674.029-1.351.026-2.022.055-.38-1.371-.276-2.792-.372-4.195-.51-.13-1.023-.367-1.556-.289-.575.177-1.07.529-1.577.838.021-.629-.008-1.259.086-1.879.806-1.306 2.092-2.222 3.06-3.393.151-.346-.055-.721-.083-1.069-1.171-.146-2.296.125-3.295.733-.036-.983.073-1.972-.073-2.945-.544-.289-1.155-.38-1.748-.489zm-73.9532 4.496c-1.1736.7-2.4253 1.247-3.6249 1.889-.6844.365-.4033 1.239-.4658 1.864 1.6056-.045 2.8677-1.174 4.2885-1.775-.3669 1.829-1.616 3.271-2.4123 4.913-.6349 1.262-1.4078 2.451-2.0479 3.711-.3019.557.013 1.173.1379 1.735.3409-.005.6844-.007 1.0253-.01.6583-1.46 1.1632-2.985 1.8944-4.411.8665-1.894 1.4885-3.94 2.8-5.595.7728.396 1.629.599 2.5007.583 1.6524-.023 3.2814.336 4.9365.32 1.0698-.031 2.1648.133 3.1248.627.922.469 1.463 1.71 2.655 1.458.127-.333.255-.664.377-.997-.614-.814-1.335-1.598-2.285-2.017-1.558-.655-3.2811-.312-4.9153-.486-2.1-.286-4.2339-.047-6.3026-.562.804-.776 1.8085-1.249 2.8104-1.705.7936-.468.5673-1.517.2264-2.201-1.4755 1.056-3.1774 1.72-4.7231 2.659zm8.9777-1.618c.5283 1.285 1.6495 2.185 2.6515 3.094.055-.396.135-.789.128-1.187-.614-.989-1.65-1.665-2.7795-1.907zm17.4975 2.102c-.117.515-.096 1.13-.544 1.499-.677.632-1.457 1.148-2.103 1.814-1.121 1.137-2.451 2.066-3.468 3.302-.097.523-.055 1.059-.063 1.593.185.062.554.187.739.249 1.052-1.001 1.978-2.123 3.037-3.114-.377 1.959-1.304 3.731-2.061 5.558-.369.726.258 1.712 1.062 1.704 1.259.112 2.521-.02 3.783-.028-.523.541-1.087 1.038-1.639 1.548.018.536.044 1.072.086 1.611.492.109.994.278 1.504.198 1.012-.117 1.863-.802 2.894-.82.286.903.614 1.835.544 2.797-.185.492-.76.461-1.192.487-1.77.062-3.394-.89-4.656-2.051-.801-.71-1.106-1.772-1.626-2.672-.07.775-.239 1.621.156 2.35 1.299 2.513 4.083 4.085 6.886 4.129.952-.013 1.865-.314 2.766-.588.036-.614.114-1.267-.221-1.813-.643-1.156-1.237-2.462-2.488-3.076.593-.271 1.163-.646 1.816-.742 1.049-.002 2.251.682 3.144-.182-.341-.528-.674-1.158-1.338-1.314-1.892-.541-3.849.177-5.524 1.043.913-2.482 1.72-5.095 1.545-7.773-.018-.702-.447-1.402-1.077-1.704-1.051-.065-2.092.174-3.138.226.562-.871 1.389-1.511 2.055-2.292.414-.815-.283-1.486-.879-1.939zm26.368.476c.214 1.52.307 3.053.31 4.591-.921-.073-1.845-.076-2.764-.031.784.572 1.53 1.197 2.35 1.722 1.385.726 1.135 2.563 1.114 3.891-.518-1.156-1.429-2.158-2.688-2.478-.466-.213-.739.305-1.028.554.812.929 1.793 1.679 2.784 2.408-1.106.949-2.274 1.842-3.622 2.417.039-.809.065-1.77-.82-2.129-.671.81-1.389 1.59-2.248 2.207-.039-.648-.255-1.353.01-1.972.526-.703 1.335-1.101 2.035-1.603-.007-.3-.013-.596-.015-.89-.893-.385-1.744-.859-2.462-1.52.599-.703 1.455-1.436 1.345-2.454-.398-.999-1.241-1.754-2.243-2.121-.088.729-.218 1.528-.864 1.983-1.072.843-2.256 1.554-3.156 2.6.51.359.973.809 1.559 1.051 1.02.021 1.977-.45 2.945-.718-.119.885.052 2.006-.791 2.589-1.707 1.327-3.664 2.535-5.889 2.628.388.732.771 1.887 1.804 1.78 1.663-.265 2.953-1.444 4.364-2.266.018.843-.013 1.686-.042 2.532-.44-.302-.929-.856-1.501-.508-.979.919-1.51 2.199-2.116 3.373-.432.869.232 2.258 1.304 2.037.825-.421 1.504-1.077 2.227-1.647.263 1.096.921 2.077 1.986 2.527.153-.391.51-.755.408-1.197-.205-.911-.51-1.796-.757-2.691.632-.695 1.275-1.379 1.923-2.061.757.469 1.619.895 2.537.648 1.197-.567 2.183-1.473 3.266-2.217.338.133.325.5.364.809.156 1.811.435 3.61.578 5.421.161 1.408 1.655 1.808 2.519 2.688.146-.898.362-1.809.125-2.709-.299-2.652-1.15-5.264-.953-7.95.578-.869 1.754-1.049 2.642-1.507.015-.299.028-.593.039-.887-.914-.903-2.22-.768-3.347-.414-.401-2.001-.447-4.049-.567-6.079-.138-1.334-1.408-2.243-2.665-2.407zm-46.4131 2.894c.3799.51.7937.997 1.2283 1.465-2.0792.388-3.9971 1.301-6.0372 1.817-.6219.14-.7546.811-.955 1.319 1.1866.031 2.3576-.162 3.526-.331-.5855 1.039-1.2803 2.082-1.2881 3.321-.1041.632.4268 1.09.726 1.582.4112-.278.8093-.58 1.1398-.955.7729-.958 2.1859-1.088 3.3231-.885-.4945 1.085-1.8268 1.096-2.8131 1.421-.0338.58-.1587 1.181-.0078 1.762.38.611.942 1.082 1.4417 1.6.2862-.203.5751-.401.8639-.596.0807-.502.1666-.999.255-1.496.8223-.375 1.7747-.622 2.3735-1.348.182-1.124-.7081-2.352-1.8348-2.54-1.1892-.146-2.3915.037-3.5859.034.4086-.695.8145-1.449 1.5041-1.905 1.8268-.372 3.4796.643 5.1006 1.304.388-.193.726-.463 1.074-.713-.567-.817-1.566-1.093-2.451-1.413-1.4206-.482-2.9299-.479-4.4106-.523 1.4781-.565 3.0576-.75 4.6086-1.023.018-.346.034-.689.049-1.028-1.2747-.294-2.5394-.65-3.8301-.869zm12.8601 10.482c-.489 1.684-.812 3.419-1.444 5.061-.247.5-.005 1.031.117 1.53.146-.002.435-.007.578-.01.515-2.189 1.27-4.351 1.355-6.612-.15.007-.455.023-.606.031z" fill="#01b8f1"/><path d="m134.069 28.1365c1.148-.393 2.467-.1562 3.404.6115 1.103.8015 1.514 2.1833 1.788 3.4531.283 1.9725.078 4.0413-.75 5.8655-.487 1.0591-1.535 1.9022-2.737 1.9022-1.619.1405-3.009-1.0825-3.67-2.4643-.749-1.668-.757-3.5573-.549-5.3424.245-1.5873.849-3.4349 2.514-4.0256z" fill="#01b8f1"/><path d="m103.784 33.5311c.901 1.2127 1.676 2.5164 2.376 3.8539-.885.2941-1.793.4971-2.722.5673.102-1.4755.234-2.9483.346-4.4212z" fill="#01b8f1"/><path d="m75.7739 42.6801c.7026-.3045 1.4313.1223 2.009.4996.8821.7364 1.4494 1.8163 1.733 2.9171.3435 1.132-.804 2.2275-1.8944 2.1624-.7885-.8249-1.2438-1.8866-1.858-2.8338-.3539-.5803-.7728-1.1294-1.0122-1.7669-.1171-.6193.5725-.8119 1.0226-.9784z" fill="#01b8f1"/><path d="m171.64 49.6701c-.083-1.7747.973-3.7472 2.779-4.2234.203 2.2327.703 4.4237.932 6.6539-1.621.2888-3.526-.6714-3.711-2.4305z" fill="#01b8f1"/><path d="m65.1074 50.2606c1.871-.5204 3.7186.6116 5.0796 1.8008 1.478 1.4442 2.8442 3.2632 2.9379 5.41-.0495 1.7435-1.7279 3.0732-3.4089 3.0368-2.1313-.013-3.9867-1.3688-5.2826-2.9613-1.1502-1.3714-2.2041-3.1383-1.7981-4.9989.3799-1.1034 1.3167-2.0324 2.4721-2.2874z" fill="#01b8f1"/><path d="m221.47 116.555c1.983-.294 3.976-.679 5.99-.63.016.882.063 1.97-.718 2.568-1.236.937-3.005 1.052-4.431.555-1.065-.375-.807-1.614-.841-2.493z" fill="#01b8f1"/><path d="m139.419 119.162c11.994 5.816 23.673 12.613 33.587 21.604 3.667 3.487 7.141 7.265 9.654 11.687 2.246 3.838 3.766 8.257 3.513 12.751-.046 3.794-1.657 7.674-4.777 9.951-3.557 2.547-8.002 3.328-12.275 3.658-10.313.45-20.469-2.082-30.207-5.235-8.845-3.139-17.461-6.959-25.611-11.622-1.074-.632-2.227-1.163-3.151-2.019 1.931.749 3.747 1.761 5.636 2.612 8.83 4.026 18.044 7.315 27.589 9.152 3.857.693 7.757 1.325 11.689 1.249 2.665-.044 5.351.151 7.994-.299 4.25-.567 8.518-1.98 11.828-4.791 1.722-1.587 3.315-3.635 3.458-6.063.211-3.19-.851-6.3-2.095-9.186-3.916-8.158-10.432-14.715-17.383-20.352-6.058-4.959-12.704-9.144-19.449-13.097z" fill="#01b8f1"/><path d="m138.472 122.805c.718.159.971.745.89 1.437-.458.018-.913.036-1.369.057-.002-.369 0-.736.005-1.101.12-.099.354-.294.474-.393z" fill="#01b8f1"/><path d="m137.293 123.833c.229.156.487.276.7.466.292.265.575.544.854.83.164-.302.335-.596.515-.887.268-.591 1.127-.154 1.088.393.158.648-.643.786-1.041 1.059.388.349.853.632 1.134 1.085.242.684-.726.851-.913 1.325.185.447.627.765.929 1.15-1.132 1.022-1.931 2.357-3.117 3.328.247.403.504.804.744 1.215-1.083.77-1.78 1.923-2.694 2.86-.666.206-.999-.588-1.47-.908.336.473.677.944.989 1.436-2.535 2.418-4.921 5.004-7.528 7.341-.419-.25-.791-.562-1.176-.856-.073.049-.222.146-.297.195-1.226.794-2.376 1.705-3.625 2.465-.258-.242-.518-.482-.778-.721.107.335.216.674.325 1.009.076.229.151.458.229.69-.341-.143-.679-.289-1.022-.414-.63-.213-.851.786-1.273 1.106-.666-.114-.999-.676-1.231-1.252-.442.344-.809 1.138-1.457.935-.557-.477-1.083-.994-1.564-1.543 0-.305.018-.607.055-.906.393.01.757.104 1.093.284.117.273.234.551.346.832.197.008.395.019.596.032.015-.222.036-.438.057-.654-.336-.072-.669-.143-.999-.21-.084-.284-.164-.562-.245-.841 1.517-1.098 2.62-2.631 3.997-3.88 1.194-1.114 2.306-2.308 3.474-3.445.448.484 1.049.762 1.637 1.041-.417-.396-.859-.763-1.265-1.163.367-.995 1.361-1.497 2.017-2.272.846-1.033 1.899-1.861 2.792-2.85.364-.387.739-.767 1.111-1.147 1.486-1.416 2.959-2.844 4.437-4.27-.5-.193-.984-.425-1.449-.685.182-.265.366-.528.556-.791.144-.008.43-.023.576-.031.278.335.559.679.874.986.744-.71 1.361-1.548 2.019-2.337zm-.086 1.66c-.005.146-.015.44-.02.586.153 0 .458 0 .611-.003.003-.153.008-.46.01-.614-.15.008-.45.024-.601.031zm1.299 1.276c-.266.325.273.796.525.424.266-.326-.281-.804-.525-.424zm-3.495 1.027c-.127.427.018.57.44.425.12-.43-.026-.573-.44-.425zm-1.205 1.078c.008.145.024.437.031.583.149.005.44.018.589.023 0-.151-.003-.453-.003-.604-.154 0-.463 0-.617-.002zm-1.038 1.038c-.003.156-.01.466-.016.622.154-.01.456-.034.609-.044-.008-.133-.018-.396-.023-.526-.143-.013-.427-.039-.57-.052zm-1.14 1.254c-.148.419-.008.568.419.445.143-.424.005-.572-.419-.445zm2.381-.015c-.148.416-.008.564.422.442.14-.419 0-.567-.422-.442zm-3.586 1.09v.612c.151-.006.453-.016.604-.021.005-.146.016-.437.021-.583-.156-.003-.469-.005-.625-.008zm-2.089 2.194c-.388.13-.224.825.197.666.386-.128.216-.835-.197-.666zm-1.273 1.197c.011.143.029.429.037.575.132.002.393.01.523.013.013-.151.039-.456.052-.606-.154.005-.458.013-.612.018zm-1.064 1.028v.642c.156-.005.466-.015.622-.023-.005-.146-.011-.437-.016-.583-.151-.008-.453-.026-.606-.036zm-3.373 3.39c0 .151.003.456.003.607.146-.003.437-.006.583-.008 0-.148.003-.45.005-.599-.148 0-.442 0-.591 0zm-1.171 1.164c-.283.465.537.793.739.335.25-.463-.507-.697-.739-.335zm-1.212 1.004c-.286.351.335.809.637.523.287-.362-.335-.799-.637-.523zm7.088.424c-.268.323.271.796.526.424.26-.325-.279-.809-.526-.424zm-8.103.794c.01.148.034.442.044.588.138.008.414.021.552.026.002-.151.01-.455.013-.606-.151-.003-.458-.006-.609-.008zm1.257 1.241c-.143.416 0 .562.424.44.138-.424-.003-.57-.424-.44z" fill="#01b8f1"/><path d="m134.691 124.328c.167-.104.497-.315.664-.419.257.255.668.492.614.921-.125.325-.43.528-.653.778-.256-.25-.505-.5-.75-.752.031-.133.094-.396.125-.528z" fill="#01b8f1"/><path d="m131.48 125.483c.312-.002.622-.002.937 0-.065.323-.133.646-.203.968-.248-.099-.495-.198-.739-.296 0-.167.005-.503.005-.672z" fill="#01b8f1"/><path d="m140.403 125.465c.208-.005.619-.016.827-.021-.015.32-.028.643-.039.966-.257-.089-.515-.175-.77-.258-.002-.172-.013-.515-.018-.687z" fill="#01b8f1"/><path d="m132.302 126.951c.089-.164.271-.492.359-.656.203.011.607.031.807.042.101.151.302.453.401.604-.097.166-.289.499-.385.666-.201-.003-.602-.006-.802-.006-.096-.163-.286-.486-.38-.65z" fill="#01b8f1"/><path d="m131.279 127.435c.414-.018.831-.029 1.25-.037.023.44-.052.88-.032 1.322-.372-.01-.741-.02-1.108-.031-.044-.419-.081-.838-.11-1.254z" fill="#01b8f1"/><path d="m130.189 128.715c.187-.093.56-.278.747-.372.612.432.588 1.039.258 1.655-.349-.106-.693-.216-1.036-.32.008-.322.021-.643.031-.963z" fill="#01b8f1"/><path d="m128.068 128.83c.201-.07.601-.208.802-.279.099.349.2.7.296 1.054-.359.05-.715.097-1.069.146-.01-.307-.021-.614-.029-.921z" fill="#01b8f1"/><path d="m129.461 129.538c.265.122.551.216.785.4.266.281.039.69.034 1.023-.208.01-.622.036-.83.047-.096.367-.19.731-.281 1.101-.393-.019-.783-.034-1.174-.045-.044-.403-.252-.968.281-1.137.594-.273.909-.833 1.185-1.389z" fill="#01b8f1"/><path d="m126.837 129.772c.232-.013.7-.039.935-.052.086.166.255.499.338.666-.219.229-.432.466-.643.703-.437-.323-.637-.784-.63-1.317z" fill="#01b8f1"/><path d="m123.613 131.364c.24-.146.479-.289.721-.429.07.247.143.494.214.744-.211.062-.419.127-.628.195-.078-.128-.229-.383-.307-.51z" fill="#01b8f1"/><path d="m139.791 131.179c.339.175.333.349-.013.521-.338-.18-.333-.354.013-.521z" fill="#01b8f1"/><path d="m126.749 132.121c.2-.104.601-.312.801-.416.373.331.583.768.674 1.257-.213.101-.642.307-.856.411-.398-.317-.64-.736-.619-1.252z" fill="#01b8f1"/><path d="m125.622 133.17c.487-.107.989-.12 1.486-.055.086.648-.393 1.596-1.14 1.086-.166-.326-.249-.685-.346-1.031z" fill="#01b8f1"/><path d="m121.573 133.227c.143.029.427.083.567.112.037.148.105.448.141.596-.177-.008-.533-.023-.71-.031 0-.169.002-.508.002-.677z" fill="#01b8f1"/><path d="m123.59 133.149c.349 0 .697.003 1.046.008-.115.422.044 1.083-.528 1.195-.674.007-.406-.776-.518-1.203z" fill="#01b8f1"/><path d="m122.416 134.326c.352-.006.703-.006 1.057 0 .018.296.028.595.028.895-.364-.011-.726-.021-1.087-.034 0-.289 0-.575.002-.861z" fill="#01b8f1"/><path d="m124.607 134.156c.393.026.862-.091 1.158.25.162.325.06.705.089 1.057-.448-.034-.893-.068-1.338-.107.026-.401.058-.802.091-1.2z" fill="#01b8f1"/><path d="m121.308 135.632c.229-.125.458-.25.687-.372.119.143.356.431.476.575-.156.242-.31.484-.461.726-.239-.104-.476-.209-.713-.31.003-.156.008-.466.011-.619z" fill="#01b8f1"/><path d="m123.361 135.538c.185-.096.552-.289.736-.385.154.104.466.31.622.414.013.216.037.645.047.858-.302.05-.604.089-.905.123-.409-.175-.388-.656-.5-1.01z" fill="#01b8f1"/><path d="m122.45 136.55c.273-.177.565-.317.872-.421.364.512.362 1.093.143 1.663-.26-.019-.781-.058-1.041-.078-.005-.388-.12-.794.026-1.164z" fill="#01b8f1"/><path d="m118.268 136.849c.362-.124.49-.002.378.37-.365.12-.49-.003-.378-.37z" fill="#01b8f1"/><path d="m121.068 138.755c.104-.482.268-.948.375-1.429.453.206.895.442 1.317.713-.107.2-.323.598-.432.799-.422-.031-.841-.057-1.26-.083z" fill="#01b8f1"/><path d="m119.9 138.976c.289-.175.58-.346.874-.515.232.296.646.523.653.947-.143.343-.486.551-.733.819-.3-.398-.565-.814-.794-1.251z" fill="#01b8f1"/><path d="m118.646 140.511c.304-.325.624-.632.942-.944.166.106.499.32.663.426.024.221.073.661.096.882-.645.36-1.246.196-1.701-.364z" fill="#01b8f1"/><path d="m116.876 143.311c-.265-1.139 1.064-1.548 1.369-2.519.427.133.791.388 1.108.706-.601.445-1.163.942-1.623 1.537-.188.289-.568.209-.854.276z" fill="#01b8f1"/><path d="m115.916 141.31c.273-.432.851.107.57.466-.273.411-.869-.112-.57-.466z" fill="#01b8f1"/><path d="m116.056 143.137c.276.065.555.127.833.192.008.227.021.68.026.906-.484.068-.968.036-1.376-.255.169-.284.34-.565.517-.843z" fill="#01b8f1"/><path d="m120.126 147.964c.37-.031.838-.294 1.098.115-.031.314-.223.811-.624.609-.169-.237-.328-.477-.474-.724z" fill="#01b8f1"/><path d="m37.7658 156.601c-.851-2.426 1.8319-4.588 4.0777-4.369 1.1918.018 2.0245 1.616 1.3609 2.594-.3773.388-.9342.5-1.426.674-1.3297.39-2.6439.851-4.0126 1.101z" fill="#01b8f1"/><path d="m32.5639 156.445c.7078-.932 1.9153-1.372 3.0472-1.455.9863.13 1.2803 1.111 1.5119 1.928-1.5587.513-3.1253 1.013-4.723 1.395-.0286-.617-.255-1.332.1639-1.868z" fill="#01b8f1"/><path d="m195.037 184.783c-.183-.643-.039-1.288.343-1.825.148.628.461 1.499-.343 1.825z" fill="#01b8f1"/><path d="m73.7077 204.294c.4294-.182.8822.005 1.309.109 1.0487.31 2.0948.646 3.094 1.098-1.5301.466-3.1409.5-4.7256.43.0754-.549.052-1.137.3226-1.637z" fill="#01b8f1"/><path d="m159.423 213.862c-.068-1.077-.019-2.185.434-3.18.325.833.364 1.726.367 2.611-.268.19-.536.377-.801.569z" fill="#01b8f1"/><path d="m115.034 216.842c1.166-.534 2.415-.981 3.713-.69.133 1.9-.057 3.82-.752 5.603-1.442-.026-2.842.377-4.278.432.252-.96.593-1.892 1.005-2.792.705.762 1.301 1.681 2.282 2.123.249-1.478-.971-2.581-2.207-3.107.07-.526.146-1.051.237-1.569zm.406.029c.593.783 1.35 1.42 2.186 1.938.07-.328.138-.656.205-.981-.676-.575-1.452-1.15-2.391-.957z" fill="#01b8f1"/><path d="m167.708 216.345c.305.864.195 1.78.031 2.662-.575-.049-1.145-.109-1.715-.174.575-.822 1.119-1.663 1.684-2.488z" fill="#01b8f1"/><path d="m158.827 220.808c.655 1.533.965 3.19 1.163 4.84-.614-.216-1.413-.393-1.58-1.132-.252-1.252-.005-2.524.417-3.708z" fill="#01b8f1"/><path d="m144.835 76.1429c5.605-3.0472 11.673-5.397 18.025-6.2401 1.564-.0911 3.136-.1093 4.702-.0182 2.03.3018 4.088.8899 5.756 2.126 1.299.9394 2.478 2.0688 3.357 3.4167 1.429 2.0688 2.033 4.5669 2.436 7.0104.091 2.6049.195 5.2487-.382 7.8119-.872 5.1863-2.829 10.0994-4.874 14.9184-2.683 5.512-5.507 10.974-8.866 16.108-.575.913-1.109 1.871-1.897 2.623.752-2.28 2.048-4.327 2.93-6.555 3.203-6.558 5.524-13.581 6.578-20.8074.086-1.832.458-3.6665.13-5.4959-.161-2.6751-.869-5.5714-2.966-7.4033-2.49-2.2328-5.977-2.9406-9.235-2.8781-4.466.1379-8.83 1.3636-12.944 3.0498-4.117 1.5744-7.958 3.7576-11.749 5.9825-4.333 2.7011-8.595 5.535-12.54 8.7852-2.295 2.0532-4.892 3.7502-7.031 5.9772-4.598 3.974-8.845 8.33-12.978 12.782-1.569 1.897-3.4138 3.547-4.8632 5.546-2.813 3.239-5.4621 6.612-8.0175 10.057-.6349-.721-1.2647-1.444-1.8476-2.204 1.3115-1.358 2.1573-3.065 3.2476-4.593 1.7799-2.464 3.4714-4.999 5.3762-7.369 1.3896-1.658 2.584-3.467 4.0235-5.083 1.72-1.923 3.263-4.007 5.069-5.857 2.422-2.686 4.874-5.358 7.51-7.8406 2.324-2.4513 4.84-4.7075 7.377-6.9324 1.462-1.2282 2.8-2.597 4.335-3.7368 6.051-4.9312 12.436-9.5059 19.338-13.1803z" fill="#fdcb06"/><path d="m84.697 137.459c.5075.469 1.0123.94 1.5223 1.406-2.0219 3.258-4.0569 6.508-5.92 9.86-.3409.629-.7989 1.186-1.3532 1.639.0052-.37-.0312-.747.0781-1.106 1.5821-4.073 3.6847-7.916 5.6728-11.799z" fill="#fdcb06"/><path d="m82.7249 101.671c7.3591-.909 14.7702.471 21.8901 2.29-1.749-.016-3.482-.344-5.2333-.261-4.4446.029-9.1416.557-12.9513 3.04-1.9829 1.246-3.4817 3.206-4.1687 5.444-.9368 3.115-.3045 6.458.8769 9.415 1.2907 3.32 3.2866 6.305 5.4205 9.136.5829.76 1.2126 1.483 1.8475 2.204 1.2049 1.4 2.4852 2.732 3.7707 4.059.6948.713 1.4468 1.369 2.1937 2.03 7.57 6.909 16.285 12.491 25.476 16.99 4.91 2.418 10.016 4.434 15.241 6.063 5.155 1.572 10.461 2.759 15.848 3.131 3.174.302 6.383.122 9.519-.445.957-.195 1.897-.479 2.87-.596-2.805 2.095-6.334 2.839-9.746 3.214-9.053.694-18.077-1.34-26.633-4.153-12.663-4.245-24.589-10.592-35.3802-18.437-1.0019-.76-1.9751-1.554-2.9796-2.311-1.5067-1.142-2.9353-2.386-4.3665-3.62-.5101-.466-1.0149-.937-1.5223-1.405-3.6145-3.341-6.961-6.997-9.7818-11.036-2.4877-3.742-4.7751-7.898-5.0666-12.47-.2498-2.907.6532-5.959 2.748-8.036 2.6777-2.656 6.4743-3.781 10.1279-4.246z" fill="#ee1c24"/></svg>
