<svg xmlns="http://www.w3.org/2000/svg" fill="none" height="256" width="256" xmlns:v="https://vecta.io/nano"><g fill="#fff"><path d="M115.026 27.889c1.397-.221 2.821-.32 4.184-.721.164.887.326 1.785.305 2.693l-.783-1.155c-1.065-.088-2.129-.01-3.186.099.237 3.172.799 6.31 1.2 9.462.115.643.143 1.327.455 1.915.44.432 1.109.481 1.679.638l-5.004.651 1.02-.778c-.037-3.875-.953-7.676-1.351-11.523-.991.065-2.009.109-2.93.515-.562.182-.715.814-1.004 1.262 0-.843-.039-1.684-.052-2.524 1.839.065 3.653-.286 5.467-.533zm6.971-.71l4.45-.044-1.15.661c-.096 3.659.284 7.302.32 10.958-.114 1.007.83 1.314 1.632 1.462-1.575.06-3.139.286-4.718.252.432-.325 1.124-.549 1.108-1.202.081-2.147.055-4.304-.156-6.443-.13-1.478.047-2.974-.208-4.439-.047-.69-.801-.872-1.278-1.205zm12.343-.016c1.587-.203 3.292-.062 4.655.848 2.285 1.444 2.99 4.507 2.431 7.021-.31 2.038-1.426 3.989-3.188 5.105-2.675 1.645-6.724.656-8.096-2.24-1.329-2.459-1.15-5.566.253-7.952a5.46 5.46 0 0 1 3.945-2.782zm-.271.973c-1.665.591-2.269 2.438-2.514 4.026-.208 1.785-.2 3.674.549 5.342.661 1.382 2.051 2.605 3.67 2.464 1.202 0 2.25-.843 2.737-1.902.828-1.824 1.033-3.893.75-5.865-.274-1.27-.685-2.652-1.788-3.453a3.6 3.6 0 0 0-3.404-.611zm11.83 4.573c.38-1.449.643-2.948 1.327-4.296 1.267 2.173 2.175 4.528 3.359 6.74.911 1.611 1.515 3.378 2.548 4.921l1.064-4.551c.359-1.605.846-3.214.724-4.876l1.746.437c-.919 2.647-1.421 5.41-2.209 8.096-.492 1.637-.695 3.375-1.458 4.921-.289-.38-.575-.76-.806-1.179l-5.116-10.248c-.448 1.426-.734 2.891-1.015 4.356-.242 1.265-.724 2.496-.747 3.794-.078.755.768 1.028 1.244 1.436l-4.07-.939 1.233-.429c.88-2.685 1.476-5.449 2.176-8.181zm-42.677-3.118c1.283 1.33 2.069 3.026 3.139 4.517l4.119 6.287c.468.747 1.358.887 2.16 1.002-1.2.39-2.405.773-3.659.942-.411-1.525-1.397-2.797-2.306-4.059l-3.255.848c-.166 1.322-.362 2.667-.078 3.989l.989.333-4.603 1.371c-.573.208-1.171.325-1.772.403-1.231-2.519-2.574-4.991-4.13-7.323l-.086 9.459c-2.574-1.772-4.4-4.398-6.852-6.316l2.24 7.448 1.473.039c-1.254.601-2.571 1.098-3.721 1.897-.765.593-1.803.588-2.701.364-1.465-.531-2.771-1.418-4.203-2.019-.612-.268-1.189.234-1.746.424.872 1.629 1.642 3.575 3.396 4.434l-2.613 1.509c-.203-.908-.534-1.785-1.028-2.576l-4.119-6.792c-.416-.723-.999-1.325-1.577-1.918.848-.716 1.801-1.285 2.743-1.866.856-.492 1.832-1.002 2.855-.783 1.353.266 2.329 1.499 2.6 2.805.154 1.067.029 2.147-.023 3.219 2.212.9 4.356 2.001 6.688 2.584l.71-.515c-.461-3.071-1.593-5.983-2.29-8.996-.305-1.41-.992-2.743-.968-4.213 2.951 2.306 5.176 5.42 8.15 7.697.12-3.157-.055-6.318-.013-9.477-.026-.479.159-.924.315-1.366.697.853 1.278 1.795 1.788 2.771l4.057 7.146c.286.432.531.942 1.015 1.187.679.075 1.647-.029 1.894-.788.383-1.301.266-2.68.466-4.013.13-2.347.396-4.684.57-7.029.013-.89.151-1.77.377-2.628zm.562 3.94l-.346 4.421c.929-.07 1.837-.273 2.722-.567-.7-1.338-1.475-2.641-2.376-3.854zm-28.01 9.149c-.45.166-1.14.359-1.023.978.239.638.658 1.187 1.012 1.767.614.947 1.07 2.009 1.858 2.834 1.09.065 2.238-1.03 1.894-2.163-.284-1.101-.851-2.181-1.733-2.917-.578-.377-1.306-.804-2.009-.5zm89.308-4.619c.344-1.28 1.39-2.511 2.793-2.595 1.441-.169 2.763.622 3.82 1.522-.333.885-.726 1.746-1.145 2.592-.068-.861.132-1.863-.521-2.555-.471-.656-1.387-.625-2.1-.515-.918.333-1.233 1.45-1.02 2.332.38 1.66 1.525 3.091 1.577 4.84.195 1.863-.874 3.838-2.662 4.502-1.314.375-2.709-.057-3.812-.791-.45-.291-.992-.708-.854-1.319.151-.674.596-1.236.989-1.793.216.981.211 2.246 1.239 2.777 1.186.955 2.985-.219 3.042-1.611.255-1.718-.916-3.144-1.306-4.731a9.05 9.05 0 0 1-.04-2.654zm11.487 2.686c1.254-.221 2.711-.279 3.757.578.531.385 1.192.968.882 1.702-.374.716-.923 1.319-1.392 1.97.149-.874.614-1.863.071-2.691-.547-1.163-2.501-1.161-3.032.013-.781 1.174-.614 2.647-.544 3.981.25 1.743.492 3.505 1.072 5.178.83-.627 1.686-1.348 2.017-2.373-.091-.463-.328-.88-.518-1.306.658.523 1.978.765 1.881 1.803-.671 1.327-2.04 2.087-3.221 2.907.356 1.46 1.059 2.795 1.931 4.013-1.634-.583-3.18-1.655-3.727-3.38-1.582.086-3.258-.099-4.512-1.163-2.082-1.374-1.962-4.736-.026-6.18.953-.695 2.084-1.064 3.203-1.395.138-1.452.755-3.011 2.158-3.656zm-4.929 8.923c.185 1.759 2.09 2.719 3.711 2.431l-.932-6.654c-1.806.476-2.862 2.449-2.779 4.223zm13.662-2.183l1.78-1.704a20.14 20.14 0 0 0 2.456 2.196c1.757 1.319 3.375 2.829 5.259 3.968-.593.757-1.262 1.447-1.925 2.142.112-.513.517-1.067.236-1.587-.504-.89-1.387-1.47-2.159-2.108-1.447 1.616-2.709 3.386-4.07 5.074-1.041 1.426-2.355 2.675-3.068 4.32l.858 1.142c-1.119-.674-2.162-1.468-3.081-2.391 1.757-1.489 3.022-3.425 4.479-5.184l3.268-4.156c-.7-.591-1.369-1.249-2.201-1.658-.578-.26-1.229-.091-1.832-.055zm-119.648 1.27c2.04-.773 4.286.086 5.821 1.494 1.228 1.197 2.298 2.657 2.706 4.348.328 1.725.229 3.69-.965 5.082-.989 1.4-2.589 2.36-4.317 2.417-1.79.159-3.529-.664-4.832-1.842-1.796-1.556-2.951-3.916-2.818-6.316.239-2.428 2.178-4.39 4.405-5.184zm-.546 1.504c-1.155.255-2.092 1.184-2.472 2.287-.406 1.861.648 3.627 1.798 4.999 1.296 1.593 3.151 2.948 5.282 2.961 1.681.036 3.359-1.293 3.409-3.037-.094-2.147-1.46-3.966-2.938-5.41-1.361-1.189-3.209-2.321-5.079-1.801zm59.112 2.178c8.53-.39 17.122.591 25.309 3.029a75.86 75.86 0 0 1 24.781 12.694c7.591 5.944 14.148 13.263 18.968 21.63 8.288 13.964 11.733 30.665 9.886 46.778-1.151 9.977-4.234 19.759-9.225 28.487-7.612 13.69-19.668 24.827-33.848 31.455-17.997 8.52-39.423 9.459-58.087 2.527-7.895-2.834-15.23-7.112-21.77-12.345-3.013-2.613-6.014-5.264-8.632-8.283-11.978-13.282-18.939-30.964-19.223-48.846-.258-10.451 1.741-20.938 5.74-30.592 4.406-10.526 11.174-20.076 19.751-27.612 12.696-11.34 29.346-18.119 46.349-18.921zm20.615 23.704c-6.902 3.674-13.287 8.249-19.338 13.18-1.535 1.14-2.872 2.508-4.335 3.737-2.537 2.225-5.053 4.481-7.377 6.932-2.636 2.483-5.088 5.155-7.51 7.841-1.806 1.85-3.349 3.934-5.069 5.857-1.439 1.616-2.634 3.425-4.023 5.082-1.905 2.371-3.596 4.906-5.376 7.37-1.09 1.527-1.936 3.234-3.248 4.593-2.134-2.831-4.13-5.816-5.421-9.137-1.181-2.956-1.814-6.3-.877-9.415a9.91 9.91 0 0 1 4.169-5.443c3.81-2.483 8.507-3.011 12.951-3.04 1.752-.083 3.485.245 5.234.26-7.12-1.819-14.531-3.198-21.89-2.29-3.654.466-7.45 1.59-10.128 4.247-2.095 2.077-2.998 5.129-2.748 8.036.291 4.572 2.579 8.728 5.067 12.47 2.821 4.039 6.167 7.695 9.782 11.036-1.988 3.882-4.091 7.726-5.673 11.798-.109.36-.073.737-.078 1.106a5.47 5.47 0 0 0 1.353-1.639c1.863-3.352 3.898-6.602 5.92-9.86 1.431 1.234 2.86 2.477 4.367 3.62-1.988 3-3.68 6.185-5.345 9.373-2.756 5.644-5.147 11.551-6.157 17.784-.442 3.005-.565 6.125.232 9.084.739 2.626 2.42 5.113 4.95 6.287 3.557 1.712 7.695 1.332 11.424.442 5.397-1.324 10.396-3.88 15.158-6.687 4.379-2.673 8.574-5.652 12.522-8.929-3.636 1.934-7.237 4-11.148 5.345-4.538 1.619-9.509 2.751-14.297 1.624a10.94 10.94 0 0 1-7.224-5.514c-1.741-3.289-2.011-7.164-1.629-10.81.554-5.449 2.358-10.674 4.494-15.688 10.792 7.845 22.718 14.192 35.38 18.436 8.556 2.813 17.581 4.848 26.634 4.154 3.412-.375 6.94-1.119 9.745-3.214-.973.117-1.912.401-2.87.596-3.135.567-6.344.747-9.519.445-5.386-.372-10.692-1.559-15.847-3.131-5.226-1.629-10.331-3.646-15.242-6.063-9.191-4.499-17.905-10.081-25.475-16.99 1.371-2.269 2.592-4.627 4.077-6.826 5.306-8.264 11.63-15.868 18.7-22.681 2.568-2.599 5.459-4.85 8.166-7.291-4.588 3.365-8.85 7.164-12.97 11.085-7.421 7.261-14.278 15.125-20.167 23.683-1.285-1.327-2.566-2.659-3.771-4.059 2.555-3.446 5.204-6.818 8.017-10.058 1.449-1.998 3.294-3.648 4.863-5.545 4.133-4.453 8.38-8.809 12.978-12.782 2.139-2.228 4.736-3.924 7.031-5.978 3.945-3.25 8.207-6.084 12.54-8.785 3.791-2.225 7.632-4.408 11.749-5.983 4.114-1.686 8.478-2.912 12.944-3.05 3.258-.062 6.745.645 9.235 2.878 2.097 1.832 2.805 4.728 2.966 7.403.328 1.829-.044 3.664-.13 5.496-1.054 7.227-3.375 14.25-6.578 20.808-.882 2.227-2.178 4.275-2.93 6.555.788-.752 1.322-1.71 1.897-2.623 3.359-5.135 6.183-10.597 8.866-16.108 2.045-4.819 4.002-9.733 4.874-14.919.577-2.563.473-5.207.382-7.812-.403-2.443-1.007-4.942-2.436-7.01-.879-1.348-2.058-2.477-3.356-3.417-1.668-1.236-3.727-1.824-5.757-2.126-1.566-.091-3.138-.073-4.702.018-6.352.843-12.42 3.193-18.025 6.24zm-5.416 43.02c6.745 3.952 13.391 8.137 19.449 13.097 6.951 5.636 13.467 12.194 17.383 20.352 1.244 2.886 2.306 5.995 2.095 9.186-.143 2.427-1.736 4.475-3.458 6.063-3.31 2.81-7.578 4.223-11.827 4.79-2.644.451-5.33.255-7.994.3-3.932.075-7.833-.557-11.69-1.249-9.545-1.838-18.759-5.127-27.589-9.152-1.889-.851-3.705-1.864-5.636-2.613.924.856 2.077 1.387 3.151 2.019 8.151 4.663 16.766 8.484 25.611 11.622 9.738 3.154 19.895 5.686 30.207 5.236 4.273-.331 8.718-1.112 12.275-3.659 3.12-2.277 4.731-6.157 4.778-9.951.252-4.494-1.268-8.913-3.513-12.751-2.514-4.421-5.988-8.2-9.655-11.687-9.914-8.99-21.593-15.787-33.587-21.603zm-2.42 2.932c.185.357.396.7.643 1.023l.409-1.038-1.052.015zm-1.91.261c.055.874.76-.425 0 0zm3.383.45l-.474.393-.005 1.1c-.213-.19-.471-.309-.7-.465-.658.788-1.275 1.626-2.019 2.336-.315-.307-.596-.65-.874-.986l-.575.031-.557.792c.465.26.949.491 1.449.684l-4.437 4.27c.005-.333.232-.741-.034-1.023-.234-.184-.52-.278-.785-.4-.276.557-.591 1.116-1.184 1.389-.534.169-.326.734-.281 1.137l1.173.045c-.892.989-1.946 1.816-2.792 2.849-.656.776-1.65 1.278-2.017 2.272.406.401.849.768 1.265 1.163-.588-.278-1.189-.557-1.637-1.041l-3.474 3.446c-1.376 1.249-2.48 2.781-3.997 3.88l.245.84c-.336-.18-.7-.273-1.093-.284a7.38 7.38 0 0 0-.055.906c.482.549 1.007 1.067 1.564 1.543.648.203 1.015-.591 1.457-.934.232.575.565 1.137 1.231 1.252.422-.321.643-1.32 1.273-1.106l.387.83.633-.026c.793-1.314 2.37-1.843 3.198-3.126.278.271.51.609.853.81a11.89 11.89 0 0 0 .885-.156c-.312-.495-.7-.927-1.085-1.361l.297-.196c.385.294.757.607 1.176.857 2.607-2.337 4.994-4.924 7.528-7.341-.312-.492-.653-.963-.989-1.437.471.32.804 1.114 1.471.908.913-.936 1.61-2.089 2.693-2.859-.24-.412-.497-.812-.744-1.216 1.186-.97 1.985-2.305 3.117-3.328-.302-.385-.744-.703-.929-1.15.187-.474 1.155-.64.913-1.325-.281-.452-.746-.736-1.134-1.085.398-.273 1.2-.411 1.041-1.059.039-.546-.82-.984-1.088-.393.081-.692-.172-1.277-.89-1.436zm-2.589.401l.026.762.856.153.031-1.051-.913.136zm-2.025.158c-.286.359.305.877.578.461.286-.362-.312-.882-.578-.461zm.833.963l-.125.528.75.752c.223-.249.528-.452.653-.778.054-.429-.357-.666-.614-.921l-.664.419zm-1.918.107l-.049.679.666-.083.031-.596h-.648zm-1.293 1.048l-.005.672.739.296.203-.968c-.315-.002-.625-.002-.937 0zm8.923-.018l.018.687.77.258.039-.966-.827.021zm-9.894.911a8.01 8.01 0 0 0-.093.791c.166.255.52.219.785.297l.144-.794-.836-.294zm1.793.575l.38.651.802.005.385-.666-.401-.604-.807-.042-.359.656zm-3.973-.205c-.136.424.005.569.426.432.133-.425-.007-.57-.426-.432zm.942.85l-.081.815.874.075-.073-.929-.72.039zm2.009-.161c.028.416.065.835.109 1.254l1.108.032c-.02-.443.055-.883.032-1.322l-1.249.036zm-4.031.39c-.375.25.117.786.437.526.364-.26-.115-.791-.437-.526zm13.313-.039l-.006.677.641.008.023-.716-.658.031zm-10.373.929l-.031.963 1.036.32c.33-.616.354-1.223-.258-1.655l-.747.372zm-4.148.144l-.073.653.669-.037-.023-.627-.573.011zm2.027-.029l.029.921 1.07-.146-.297-1.054-.802.279zm-3.065.991l-.068.734.719-.054-.162-.513-.489-.167zm1.835-.049c-.008.533.192.994.629 1.317l.643-.703-.338-.666-.934.052zm-3.225 1.592l.307.511.628-.196-.214-.744-.721.429zm2.243-.434l-.01.945 1.129-.167-.338-.768-.781-.01zm13.935.25c-.346.166-.351.341-.013.52.347-.172.352-.346.013-.52zm-13.042.942c-.021.515.221.934.619 1.251l.857-.411c-.092-.489-.302-.926-.674-1.257l-.802.417zm-4.119.13l.005.601.596.083.013-.767-.614.083zm2.076-.159l.011.786.869.021-.011-.836-.869.029zm13.373.63l.997.203.034-.768c-.404.083-.885.096-1.031.565zm-12.457.447c.097.347.18.706.346 1.031.747.51 1.226-.437 1.14-1.085-.497-.065-.999-.052-1.486.054zm-4.049.058l-.002.676.71.031-.14-.595-.568-.112zm2.017-.078c.112.426-.156 1.21.518 1.202.572-.112.414-.773.528-1.195l-1.046-.007zm-1.174 1.176l-.002.861 1.087.034a14.78 14.78 0 0 0-.028-.895c-.354-.005-.705-.005-1.057 0zm2.191-.169l-.091 1.199 1.338.107c-.029-.351.073-.731-.089-1.056-.296-.341-.765-.224-1.158-.25zm-4.049.468c-.132.427.011.575.43.44.138-.424-.008-.57-.43-.44zm.75 1.007l-.011.619.713.31.461-.726-.476-.575-.687.372zm2.053-.094c.112.354.091.836.5 1.01a18.87 18.87 0 0 0 .905-.122l-.047-.859-.622-.414-.736.385zm-3.953.196c-.117.361.008.486.377.372.115-.367-.013-.489-.377-.372zm3.042.817c-.146.369-.031.775-.026 1.163l1.041.078c.219-.57.221-1.15-.143-1.663a3.9 3.9 0 0 0-.872.422zm-2.225.14l.159.888.765-.068.036-.88-.96.06zm-1.957.159c-.112.367.013.489.378.37.112-.373-.016-.495-.378-.37zm.968.835l.011.948c.296-.063.596-.118.898-.17l-.099-.736-.81-.042zm1.832 1.07l1.26.083.432-.799c-.422-.27-.864-.507-1.317-.713-.107.482-.271.947-.375 1.429zm-3.057.84l.926.016-.315-.999c-.203.328-.424.645-.611.983zm1.889-.619c.229.437.494.854.794 1.252.247-.268.59-.477.733-.82-.007-.424-.421-.651-.653-.947l-.874.515zm-1.254 1.535c.455.56 1.056.724 1.702.365l-.097-.883-.663-.426c-.318.312-.638.619-.942.944zm-1.484-.45l-.052.645.63-.023v-.637l-.578.015zm-.286 3.25c.286-.067.666.013.854-.276.46-.595 1.022-1.092 1.624-1.537-.318-.318-.682-.573-1.109-.706-.304.971-1.634 1.38-1.369 2.519zm-.96-2.001c-.299.354.297.877.57.466.281-.359-.297-.898-.57-.466zm.141 1.827c-.177.278-.349.559-.518.843.408.292.892.323 1.376.255l-.026-.905-.832-.193zm-1.359 1.343c.096.359.198.718.312 1.077.198-.369.448-.71.599-1.101l-.911.024zm9.941 1.421c.158.379.523.515.89.632l.083-1.049a5.26 5.26 0 0 0-.973.417zm-.726 1.119c.041.869.767-.404 0 0zm-5.741.832l.008.643.65.008-.023-.627-.635-.024zm1.954.112a10.1 10.1 0 0 0 .474.724c.401.203.593-.295.625-.609-.261-.409-.729-.146-1.099-.115zm-68.639-85.85l4.947-5.449c.591.619 1.127 1.285 1.668 1.947-.507-.164-1.049-.64-1.582-.312-.817.487-1.356 1.319-1.965 2.03l3.271 3.091c.945-.757 1.79-1.658 2.264-2.79l1.835 1.991-1.358-.372c-.705.507-1.306 1.137-1.876 1.788 1.491 1.624 3.06 3.305 5.09 4.249-.742.942-1.59 1.79-2.501 2.566l.281-1.127c-1.335-1.504-2.836-2.842-4.328-4.19-1.47-1.327-2.792-2.836-4.455-3.935l-1.291.513zm148.668-4.932l3.107 3.51c-.421-.112-.843-.333-1.285-.268-.971.434-1.684 1.257-2.485 1.926l-4.109 3.698c-.838.921-1.421 2.305-.903 3.521.552 1.574 2.717 2.095 4.046 1.187 1.9-1.168 3.459-2.787 5.166-4.205a18.37 18.37 0 0 0 2.079-2.03l-.45-1.345c1.004.971 1.925 2.022 2.782 3.125l-1.265-.531c-2.592 1.806-4.624 4.335-7.388 5.904-.999.64-2.253.674-3.383.463-2.024-.695-3.682-2.831-3.305-5.035.232-1.353 1.247-2.384 2.147-3.349l4.721-4.117c.322-.336.759-.643.871-1.119-.031-.463-.221-.895-.346-1.335zM46.978 67.755l1.678-2.436c.359.708.809 1.39 1.483 1.837l6.966 5.009c.752.528 1.447 1.137 2.118 1.77-2.017.497-4.109.476-6.16.744-2.243.289-4.507.286-6.758.487 1.403 1.14 2.982 2.03 4.416 3.128.88.671 1.816 1.304 2.868 1.671.502-.023.929-.331 1.377-.523l-1.928 2.74c-.406-1.082-1.382-1.723-2.272-2.373l-5.446-3.94c-.978-.703-2.017-1.356-2.784-2.306 1.4-.338 2.839-.317 4.265-.416l8.702-.765c-2.147-1.681-4.494-3.086-6.732-4.642-.531-.468-1.215-.166-1.793.016zm157.7 6.035l6.56-3.854c-1.129 4.236-2.826 8.309-3.95 12.548 2.261-1.28 4.398-2.769 6.555-4.213.653-.351.861-1.075 1.075-1.728.523.765.991 1.567 1.475 2.358-.666.044-1.345.13-1.918.497-3.336 1.931-6.492 4.179-9.925 5.938.024-.612.029-1.231.219-1.816l3.367-10.471c-1.915.981-3.643 2.274-5.433 3.456-.591.432-1.28.783-1.699 1.403-.086.484-.026.978-.024 1.47l-1.691-2.719c2.014-.484 3.632-1.845 5.389-2.868zM38.502 81.209c.502-1.007 1.083-1.972 1.658-2.938l.026 1.21c1.77 1.254 3.758 2.142 5.655 3.18l4.887 2.548 1.309-1.153c-.593 1.233-1.171 2.485-1.996 3.586-1.34-1.501-3.245-2.235-4.965-3.185-2.173-1.116-4.234-2.493-6.573-3.248zm174.932 5.231c1.749-.924 3.677-1.564 5.21-2.855a29 29 0 0 1 1.52 3.195c-.364-.232-.705-.513-1.119-.64-.484-.037-.929.208-1.358.388l-7.911 3.799c-.729.338-1.353.846-1.947 1.379l-1.574-3.427c.359.294.705.612 1.119.835 2.129-.609 4.049-1.769 6.06-2.675zm7.646 1.746l1.509 4.551c-.304-.208-.57-.487-.924-.599-.765.268-1.384.822-2.024 1.301l-5.736 4.517 9.72-.255.395-.955 1.041 2.852c-.669-.255-1.345-.528-2.066-.559l-9.378-.102c-1.083.018-2.171.036-3.232-.206.229-.356.442-.739.778-1.007l8.959-7.2c.734-.549.862-1.494.958-2.339zM32.155 95.362c.414-1.608 1.208-3.091 2.123-4.468l2.402.978c-.872.489-1.902.778-2.558 1.577-1.127 1.348-1.621 3.398-.679 4.981.677 1.267 2.027 1.924 3.307 2.427 1.528.555 3.227.695 4.809.307 1.806-.439 3.232-2.042 3.505-3.872.026-.37-.143-.76-.528-.846-1.577-.648-3.221-1.364-4.968-1.148.315-1.2.773-2.358 1.265-3.495.12.515.065 1.223.671 1.444 1.429.674 2.985 1.031 4.458 1.593.495 1.621-.049 3.31-.674 4.811-.705 1.683-2.1 3.127-3.87 3.663-2.865.612-6.131-.156-8.056-2.466-1.429-1.429-1.509-3.612-1.208-5.489zm193.393 6.288c.637 2.305.864 4.72 1.746 6.958l-2.73.383 1.218-.857a13.68 13.68 0 0 0-.33-2.74c-1.546.016-3.027.497-4.521.833-.044 1.21.274 2.402.961 3.401l-2.761.37 1.184-1.036c-.143-.841-.326-1.673-.594-2.483l-4.236 1.02c-.37.138-.854.287-.95.724-.06.83.076 1.715.544 2.42.429.481 1.124.531 1.705.736-.797.131-1.583.404-2.395.333-.536-.59-.634-1.415-.762-2.167-.219-1.588-.638-3.138-.999-4.697l.96.916c2.878-.378 5.662-1.241 8.507-1.809 1.015-.237 2.076-.393 3.005-.887.417-.346.315-.947.448-1.418zm-196.453 5.683l.427-1.955c2.527 1.01 5.277 1.226 7.924 1.778l5.327 1.108c-1.384 1.338-3.216 2.035-4.812 3.074l-6.297 3.7 6.313 1.028c1.025.169 2.066.135 3.097.034l-.51 2.807-.476-1.121c-3.456-.77-6.948-1.364-10.43-2.014-.799-.151-1.593-.336-2.352-.622 3.789-2.29 7.734-4.32 11.489-6.667-2.324-.424-4.668-.744-7-1.122-.895-.148-1.801-.112-2.698-.028zm198.613 4.923c.429 2.007.681 4.068.658 6.123.008 1.361-1.27 2.379-2.519 2.608-1.616.385-3.068-.62-4.421-1.34-1.319.931-2.49 2.045-3.729 3.075-.817.63-1.291 1.562-1.619 2.517.869-.005 1.752-.005 2.59.26-.896.518-2.241.89-2.342 2.113-.24 1.15.733 2.524 1.972 2.355 1.431.094 2.441-1.077 3.341-2.014 1.08-1.187 2.522-2.277 4.208-2.22 1.4-.109 2.709.895 3.19 2.17a6.7 6.7 0 0 1-.242 3.644l-2.719-.321c.929-.294 2.066-.692 2.233-1.805.411-1.385-1.275-2.569-2.498-1.97-1.988.947-2.93 3.349-5.122 3.976-1.524.343-3.44.265-4.481-1.07-.999-1.184-1.007-2.873-.58-4.291.403-1.267-.06-2.618.221-3.89 1.242-1.694 3.188-2.634 4.69-4.057l-.123-1.512c-1.816.063-3.63.331-5.345.945l-.377-3.568.705 1.122c2.454.057 4.882-.383 7.32-.599 1.53-.237 3.131-.125 4.598-.682.328-.437.25-1.054.391-1.569zm-6.238 4.299c.034.88-.224 2.118.841 2.493 1.426.497 3.195.383 4.431-.554.781-.599.734-1.686.718-2.569-2.014-.049-4.007.336-5.99.63zm-194.095 3.974c.271.374.445.916.958 1.012 2.233.406 4.515.255 6.766.484 1.585.133 3.175.117 4.765.125l.627-1.468-.117 4.65c-.302-.4-.528-.968-1.083-1.056-1.647-.393-3.352-.25-5.028-.362l-7.117-.164c.016-1.08.112-2.152.229-3.221z"/><path d="M137.993 124.299l1.369-.057-.515.887-.854-.83zm-.786 1.195l.602-.031-.011.614-.611.002.02-.585zm1.299 1.275c.245-.38.791.099.526.424-.253.372-.792-.099-.526-.424zm-111.391.747l.648 1.137c4 .133 8.002-.154 12.004-.047 2.332.096 4.315 1.796 5.228 3.87-.947-.773-1.897-1.694-3.172-1.848-2.399-.341-4.83-.047-7.242-.104-2.194-.055-4.377.109-6.56.25-.44.367-.614.934-.872 1.426-.055-1.562-.031-3.123-.034-4.684zm107.896.281c.414-.149.56-.005.44.424-.422.146-.567.003-.44-.424zm-1.205 1.077l.617.003.003.603-.589-.023-.031-.583zm-1.038 1.038l.57.052.023.526-.609.044.016-.622zm-3.318 1.096l.83-.047-1.111 1.148.281-1.101zm2.178.159c.424-.128.562.02.419.445-.427.122-.567-.026-.419-.445zm2.381-.016c.422-.125.562.023.422.442-.43.122-.57-.026-.422-.442zm-3.586 1.09l.625.008-.021.583-.604.021v-.612zM40.3 133.639c.526 1.543.331 3.2.7 4.775-.375-.375-.63-1.059-1.254-1.002-2.051-.044-4.08.309-6.123.434-1.655.232-3.349.162-4.978.57-.619.107-.653.849-.911 1.309l-.393-4.411c.354.521.768 1.145 1.494 1.083l5.106-.508c2.071-.226 4.179-.216 6.199-.783l.161-1.467zm88.034.796c.414-.169.583.539.198.666-.422.159-.586-.536-.198-.666zm87.026.341c3.055.856 6.256.749 9.381 1.132.973.078 1.944.323 2.925.221.547-.112.703-.71.992-1.111-.026 1.494-.206 2.974-.409 4.452l-.435-1.191c-2.019-.458-4.09-.469-6.133-.734l-5.967-.289-.604 1.418.25-3.898zm-88.299.856l.612-.018-.052.606-.523-.013-.037-.575zm-1.064 1.028l.606.036.016.583-.622.024v-.643zm-3.372 3.391h.59l-.005.598-.583.008-.002-.606zm-83.901.944c.83-.127 1.671-.167 2.511-.154.643 2.262.682 4.643 1.345 6.896-.312-.294-.612-.606-.981-.825-1.046-.15-2.079.141-3.099.336l-8.486 1.684-.575 1.4-1.335-6.896c.851-.154 1.712-.226 2.571-.302-.396.278-.835.513-1.153.887-.154.971.109 1.939.331 2.878l4.117-.791c.411-.062.513-.562.375-.892-.159-.893-.435-1.754-.742-2.602l1.689-.25c-.206 1.137-.127 2.292.065 3.427 1.837-.18 3.669-.534 5.402-1.179-.026-.814.034-1.673-.315-2.433-.291-.703-1.124-.843-1.72-1.184zm82.73.219c.231-.362.988-.128.739.336-.203.457-1.023.13-.739-.336zm104.484.538l2.209.672-1.972 9.742-1.59-.572a5.98 5.98 0 0 0 1.236-3.578c-3.484-.823-7.031-1.369-10.536-2.092-.877-.211-1.278.749-1.661 1.342.19-1.605.565-3.185.963-4.751.104.374.167.77.341 1.126.958.44 2.012.615 3.037.844l8.21 1.574c.255-.966.666-1.941.513-2.959-.144-.505-.466-.924-.75-1.348zm-105.697.466c.302-.276.924.161.637.523-.301.286-.923-.172-.637-.523zm7.088.424c.248-.385.786.099.526.425-.255.372-.794-.102-.526-.425zm-8.103.794l.609.008-.013.606-.552-.026-.044-.588zm1.257 1.241c.421-.13.562.016.424.44-.424.122-.567-.023-.424-.44zm-3.721.841l.999.21-.057.654-.596-.032-.346-.832zm5.17 1.1l-.325-1.009.778.721-.453.288zm-83.789 4.724c1.246-.877 3.011-1.067 4.351-.292.973.635 1.543 1.725 1.824 2.826l.986 3.719c-.403-.279-.765-.794-1.319-.672-2.019.313-3.919 1.122-5.884 1.658-1.741.593-3.594.916-5.21 1.835l-.06 1.444-1.371-4.195c-.367-1.2-.255-2.769.913-3.487 1.252-.614 2.714-.331 3.997.031.388-1.056.83-2.183 1.772-2.867zm-.377 5.259c1.369-.25 2.683-.711 4.013-1.101.492-.174 1.049-.286 1.426-.674.663-.979-.169-2.576-1.361-2.595-2.246-.218-4.929 1.944-4.078 4.37zm-5.202-.157c-.419.537-.193 1.252-.164 1.869 1.598-.383 3.164-.882 4.723-1.395-.232-.817-.526-1.798-1.512-1.928-1.132.083-2.34.523-3.047 1.454zm178.398-.181l1.354-3.677c.031.424.049.856.137 1.275 1.205.637 2.522 1.03 3.826 1.416 1.506.471 3.047-.081 4.543-.295 1.754-.286 3.693-.392 5.054-1.688l-1.044 3.614c-.411-.224-.822-.536-1.311-.463-1.848.101-3.662.5-5.483.799l3.882 3.58c.396.399.979.349 1.497.383l-.932 2.722c-.825-2.215-2.792-3.654-4.39-5.285-1.259-1.32-3.078-1.772-4.765-2.269-.77-.248-1.582-.203-2.368-.112zM42.996 169.997c.853-.07 1.848-.211 2.568.369 1.34.877 1.528 2.894.679 4.174-.776 1.041-2.282 1.502-3.482.953-1.036-.417-1.642-1.489-1.819-2.545-.016-1.265.778-2.615 2.053-2.951zm168.12.047c.905-.167 1.967-.224 2.727.393.734.463 1.085 1.332 1.213 2.157.166 2.129-2.433 3.922-4.312 2.764-2.158-1.002-1.931-4.632.372-5.314zm-155.465 10.18c.973 1.423 1.832 3.149 1.439 4.921-.474.973-1.189 1.803-1.9 2.61.575.013 1.681-.042 1.655.773-2.295 2.383-5.793 2.469-8.733 3.523-.83.32-1.689-.018-2.501-.211.036-.89-.151-2.063.724-2.618 1.129-.72 2.397-1.512 2.844-2.852.271-1.03.338-2.102.586-3.141l.619.024 1.127 2.128c1.291-.679 2.365-1.681 3.37-2.721.679-.617.619-1.606.77-2.436zm140.008 1.371c.437-.346 1.316-.734 1.683-.114.372.879.076 1.868.352 2.771.234.817.549 1.608.848 2.404 1.4-1.824 2.139-4.275 4.265-5.443.893-.117 2.186-.268 2.62.752.641.905.039 1.941-.398 2.781-.359.789-1.072 1.312-1.751 1.806-.224-.835-.463-1.67-.841-2.451-2.552 1.941-3.362 5.231-4.181 8.168-.209 1.187-.862 2.59-.021 3.672l2.102 3.131-1.142.728-2.048-3.284c-.908-1.506-2.006-2.935-2.508-4.645.728.063 1.449.222 2.12.521.224-1.148.643-2.29.544-3.474-.161-1.075-.544-2.098-.911-3.112l-2.037.242 1.434.676c.031.77.099 1.551.002 2.324-.291.601-1.056.606-1.626.546-.716-.039-.973-.84-1.366-1.319l1.413-.406c-.242-.807-.557-1.756-.003-2.508.836-1.122.333-2.813 1.45-3.766zm-.622 3.188c.804-.325.492-1.197.343-1.824-.382.536-.525 1.181-.343 1.824zm5.03 4.606c.38-.968 1.121-2.259 2.355-1.973.728.531.64 1.567.908 2.35l1.192.411c.671-.754 1.431-1.446 2.391-1.813a9.34 9.34 0 0 1 .583.692c.292 1.14-1.413 2.11-.645 3.211.947 1.296 2.131 2.407 3.06 3.721.565.94.768 2.311-.094 3.149-.91.671-2.04 1.106-3.18 1.075-.848-.104-1.327-.922-1.759-1.564-.335-.482-.226-1.091-.226-1.64 1.205.516 2.602.513 3.693-.281-.641-1.179-1.445-2.331-2.657-2.974-.432 1.14-.862 2.441-1.968 3.102-.72.106-1.392-.25-2.061-.453 1.158-.9 1.713-2.274 2.064-3.656-.674-.208-1.39-.388-1.936-.854-.383-.512-.461-1.173-.666-1.759-.565 1.564-.482 3.295-1.218 4.807l-.791.161c.062-1.934.411-3.857.955-5.712zm-138.259.622l.435.08c.435.508.765 1.26 1.496 1.374.794.203 1.642.078 2.41-.179.526-.328.874-.857 1.306-1.286.502.281.414.994.484 1.491.057.989-.614 1.738-1.181 2.462-.096.778.029 1.569-.016 2.355-.742.044-1.514.14-2.23-.12-.843-.291-1.374-1.095-2.181-1.441-1.514-.042-3.133.044-4.437.91l1.314 2.327c-.31.812-.95 1.392-1.694 1.808-1.639-.757-3.216-1.876-4.08-3.487.039-1.069.455-2.191 1.187-2.987.513-.684 1.452-.364 2.175-.39 1.418.122 2.792-.271 4.158-.581l.853-2.336zm17.294 5.722l.7.042c.739 1.332.507 2.883.497 4.337-.359.055-.721.097-1.083.102-1.103-1.247-.45-3.058-.114-4.481zm99.215 2.865c.646-.307 1.374-.757 2.106-.458.473.271.955.601 1.238 1.085.518 1.59.529 3.349 1.424 4.809.731-1.181 1.457-2.412 2.565-3.284.726-.13 1.471-.041 2.207-.044.096.453.336.986-.101 1.345-1.257 1.452-2.522 2.923-3.37 4.661 1.598-.021 3.266.242 4.798-.344 1.809-.577 3.399-1.782 5.33-1.972.559-.13 1.1.088 1.613.297-.125.635-.211 1.29-.458 1.897-1.814 1.522-4.226 2.042-6.524 2.305-1.397.26-2.831-.06-4.218.273.526 1.681 1.78 3.243 1.463 5.098-.318 1.221-1.361 2.105-2.382 2.764-1.236.387-2.664.213-3.755-.502-.702-.425-1.561-.989-1.597-1.895.151-.71.416-1.392.583-2.095.806.268 1.621 1.387 2.482.695 1.106-1.163.25-2.808-.19-4.07-1.116-.083-2.212-.304-3.307-.515 1.067-.31 2.464-.487 2.711-1.809-.333-2.113-1.285-4.088-1.696-6.19-.133-.752-.456-1.45-.922-2.051zm-109.002 1.819c-.076-.809-.154-1.668.33-2.378 1.187 1.225 2.878 1.566 4.502 1.785 2.475.439 5.067.923 7.104 2.5 1.241.989 2.745 1.908 3.255 3.5-.476.151-.937.474-1.452.425-1.634-1.203-3.086-2.696-4.892-3.651-2.881-.976-5.863-1.616-8.847-2.181z"/><path d="M72.167 204.136c.388-.901.612-2.283 1.704-2.53.606.125.591.888.864 1.338 1.798.57 3.901.747 5.254 2.209.448.416.286 1.09.359 1.637-1.072.283-2.181.455-3.193.931l-.049 1.559c-.749.177-1.494.385-2.217.659.705.866 1.603 1.584 2.183 2.552.424.677.359 1.502.331 2.264-.788.185-1.595.396-2.412.328-.723-.187-1.059-.942-1.371-1.551l1.53-.994-1.046-1.439c-1.559.755-2.342 2.314-3.18 3.729l-1.16.018c-.078-.458-.294-.923-.19-1.387.289-.765.783-1.423 1.207-2.113-.867-.023-1.736.047-2.6-.031-.656-.565-1.272-1.525-.851-2.399.393-.791 1.028-1.447 1.736-1.96.377-.307.939-.301 1.361-.096.625.211.645.96.82 1.494l-1.736.63c1.137.353 2.49.64 3.576-.024-.315-.377-.684-.716-.926-1.142.049-.414.195-.81.242-1.221-.174-.812-.671-1.642-.234-2.461zm1.54.158c-.271.5-.247 1.088-.323 1.637 1.585.07 3.196.037 4.726-.429-.999-.453-2.045-.789-3.094-1.098-.427-.104-.88-.292-1.309-.11zm90.59 1.764c.593.11 1.204.201 1.748.49.146.973.037 1.962.073 2.945.999-.609 2.124-.879 3.295-.733.028.348.234.723.083 1.069-.968 1.171-2.254 2.087-3.06 3.393-.094.62-.065 1.249-.086 1.879.507-.309 1.002-.661 1.577-.838.533-.078 1.046.159 1.556.289.096 1.403-.008 2.824.372 4.195l2.022-.055c1.572-.086 3.099-.734 4.687-.531.739.045 1.009.802 1.342 1.341-1.553 1.725-4.08 1.753-6.201 1.376-.64-.041-1.603-.338-1.923.427-.575 1.036-.965 2.253-1.975 2.969-1.14.903-2.719.69-4.023.336-1.226-.586-1.057-2.392-.135-3.188l1.558.908 1.195-.289c.611-.096.817-.773 1.158-1.197-2.209-1.126-4.843-.609-7.063-1.709.206-.25.419-.495.667-.7 1.249-.154 2.482.216 3.731.234-.627-1.598.128-3.274-.25-4.905-.765-.006-1.514-.164-2.271-.201-.932.401-1.676 1.119-2.556 1.616.133 3.453.768 6.904 2.064 10.118.346.71.616 1.454.741 2.24-1.647.609-3.552.208-5.105-.507-.963-.966-1.325-2.459-1.307-3.792.401-2.352 1.374-4.559 2.004-6.854-.986.609-1.931 1.306-3.013 1.738-.56.235-1.111-.179-1.634-.333 1.735-.616 3.372-1.496 4.767-2.709-.125-2.126.122-4.246.492-6.336.416-.096.838-.208 1.27-.211.499.578.346 1.431.556 2.131.193 1.132 1.374 1.611 2.205 2.223.864-.495 1.904-1.109 1.972-2.223.102-1.545.102-3.161-.533-4.606zm-4.874 7.805l.801-.57c-.002-.885-.042-1.778-.367-2.61-.453.994-.502 2.102-.434 3.18zm8.285 2.482l-1.684 2.488 1.715.174c.164-.882.274-1.798-.031-2.662zm-8.881 4.463c-.422 1.184-.669 2.456-.417 3.708.167.739.966.916 1.58 1.132-.198-1.65-.508-3.307-1.163-4.84zm-68.483-10.253c1.546-.939 3.248-1.602 4.723-2.659.341.684.567 1.733-.226 2.201-1.002.456-2.006.929-2.81 1.705 2.069.515 4.203.276 6.303.562 1.634.174 3.357-.169 4.915.487.95.419 1.671 1.202 2.285 2.016l-.377.997c-1.192.252-1.733-.989-2.655-1.457-.96-.495-2.055-.659-3.125-.627-1.655.015-3.284-.344-4.936-.32a5.29 5.29 0 0 1-2.501-.583c-1.311 1.655-1.933 3.7-2.8 5.594-.731 1.426-1.236 2.951-1.894 4.411l-1.025.011c-.125-.562-.44-1.179-.138-1.736l2.048-3.711c.796-1.642 2.045-3.083 2.412-4.913-1.421.601-2.683 1.731-4.288 1.775.063-.625-.219-1.499.466-1.863l3.625-1.89zm8.978-1.618c1.129.242 2.165.918 2.779 1.907.008.398-.073.791-.128 1.187-1.002-.908-2.123-1.809-2.651-3.094zm17.497 2.102c.596.453 1.293 1.124.879 1.939-.666.781-1.493 1.421-2.055 2.293 1.046-.053 2.087-.292 3.138-.227.63.302 1.059 1.002 1.077 1.705.175 2.677-.632 5.29-1.545 7.772 1.675-.866 3.632-1.584 5.524-1.043.664.156.997.786 1.338 1.314-.893.864-2.095.18-3.144.182-.653.097-1.223.471-1.816.742 1.252.614 1.845 1.92 2.488 3.076.335.546.257 1.199.221 1.813-.901.274-1.814.576-2.766.589-2.803-.045-5.587-1.616-6.886-4.13-.395-.729-.226-1.575-.156-2.35.52.9.825 1.962 1.626 2.673 1.262 1.16 2.886 2.113 4.656 2.05.432-.026 1.007.005 1.192-.487.07-.962-.258-1.894-.544-2.797-1.031.018-1.882.703-2.894.82-.51.08-1.012-.089-1.504-.198l-.086-1.611 1.639-1.548-3.783.029c-.804.007-1.431-.979-1.062-1.705.757-1.827 1.684-3.599 2.061-5.558l-3.037 3.115-.739-.25c.008-.534-.034-1.07.063-1.593 1.017-1.236 2.347-2.165 3.468-3.302.646-.666 1.426-1.181 2.103-1.814.448-.369.427-.983.544-1.499zm-1.785 5.803l-.237 1.569c1.236.526 2.457 1.629 2.207 3.107-.981-.442-1.577-1.36-2.282-2.123a17.21 17.21 0 0 0-1.005 2.792c1.437-.054 2.837-.458 4.278-.432.695-1.782.885-3.703.752-5.602-1.298-.292-2.547.156-3.713.689zm28.153-5.327c1.257.164 2.527 1.072 2.665 2.407.12 2.03.167 4.078.567 6.079 1.127-.354 2.433-.489 3.347.414l-.039.887c-.888.458-2.064.638-2.642 1.507-.197 2.686.654 5.298.953 7.95.237.9.021 1.811-.125 2.709-.864-.88-2.358-1.281-2.519-2.688l-.578-5.421c-.039-.309-.026-.676-.364-.809-1.083.744-2.069 1.65-3.266 2.217-.918.247-1.78-.18-2.537-.648l-1.923 2.061.757 2.691c.102.442-.255.806-.408 1.197-1.065-.45-1.723-1.431-1.986-2.527-.723.57-1.402 1.226-2.227 1.647-1.072.221-1.736-1.168-1.304-2.037.606-1.174 1.137-2.454 2.116-3.373.572-.349 1.061.206 1.501.508l.042-2.532c-1.411.822-2.701 2.001-4.364 2.266-1.033.107-1.416-1.048-1.804-1.78 2.225-.093 4.182-1.301 5.889-2.628.843-.583.672-1.704.791-2.589-.968.268-1.925.739-2.945.718-.586-.242-1.049-.692-1.559-1.051.9-1.046 2.084-1.757 3.156-2.6.646-.455.776-1.254.864-1.983 1.002.367 1.845 1.122 2.243 2.121.11 1.017-.746 1.751-1.345 2.454.718.661 1.569 1.134 2.462 1.52l.015.89c-.7.502-1.509.9-2.035 1.603-.265.619-.049 1.324-.01 1.972.859-.617 1.577-1.397 2.248-2.207.885.359.859 1.32.82 2.129 1.348-.575 2.516-1.468 3.622-2.417-.991-.729-1.972-1.479-2.784-2.408.289-.249.562-.767 1.028-.554 1.259.32 2.17 1.322 2.688 2.477.021-1.327.271-3.164-1.114-3.89-.819-.525-1.566-1.15-2.35-1.723.919-.044 1.843-.041 2.764.032-.003-1.538-.096-3.071-.31-4.591zm-46.413 2.894c1.291.219 2.555.575 3.83.869l-.049 1.028c-1.551.273-3.13.458-4.609 1.023 1.481.044 2.99.042 4.41.523.885.32 1.884.596 2.452 1.413-.349.25-.687.52-1.075.713-1.621-.661-3.274-1.676-5.101-1.304-.69.456-1.096 1.21-1.504 1.905 1.195.003 2.397-.179 3.586-.034 1.127.188 2.017 1.416 1.835 2.54-.599.726-1.551.973-2.373 1.348l-.255 1.496-.864.596c-.5-.518-1.062-.989-1.442-1.6-.151-.581-.026-1.182.008-1.762.986-.325 2.319-.336 2.813-1.421-1.137-.203-2.55-.073-3.323.885-.33.375-.729.677-1.14.955-.299-.492-.83-.95-.726-1.582.008-1.239.703-2.282 1.288-3.321-1.168.17-2.339.362-3.526.331.2-.508.333-1.179.955-1.319 2.04-.516 3.958-1.429 6.037-1.817-.435-.468-.848-.955-1.228-1.465z"/><path d="M115.44 216.871c.939-.193 1.715.383 2.391.958l-.205.981c-.836-.518-1.593-1.156-2.186-1.939zm-5.806 8.02l.607-.031c-.086 2.261-.841 4.423-1.356 6.612l-.578.01c-.122-.499-.364-1.03-.117-1.53.632-1.642.955-3.377 1.444-5.061z"/></g><path d="M121.089 11.82c11.187-.606 22.465.273 33.379 2.834 17.794 4.106 34.557 12.545 48.503 24.328 15.064 12.665 26.837 29.21 33.826 47.61 6.105 15.949 8.515 33.256 7.237 50.272-1.101 14.794-5.056 29.384-11.674 42.669-9.63 19.587-24.939 36.329-43.561 47.714-11.577 7.128-24.427 12.163-37.75 14.849-17.578 3.492-35.966 2.966-53.278-1.695-18.827-5.014-36.324-14.918-50.34-28.444-14.669-13.969-25.51-31.888-31.169-51.329-7.757-26.543-5.733-55.868 5.863-80.995a116.01 116.01 0 0 1 24.773-35.091C58.068 33.648 71.47 25.05 86.024 19.421c11.2-4.34 23.079-6.88 35.065-7.601zm1.028 2.308c-21.049.958-41.711 8.106-59.031 20.063-6.524 4.642-12.717 9.797-18.151 15.689C30.748 64.846 20.812 83.782 16.5 103.944c-1.665 7.731-2.459 15.634-2.579 23.535.073 8.97.968 17.96 3.065 26.693a112.47 112.47 0 0 0 11.145 28.94c1.46 2.438 2.769 4.967 4.387 7.309 5.381 8.2 11.801 15.726 19.124 22.255 6.56 6.05 13.951 11.158 21.755 15.467 8.41 4.599 17.404 8.145 26.707 10.467 8.264 2.105 16.779 3.156 25.296 3.421 15.741.321 31.57-2.537 46.117-8.592 3.773-1.457 7.338-3.383 10.947-5.197 5.025-2.826 9.938-5.873 14.497-9.412 5.684-4.213 10.857-9.084 15.614-14.315 3.674-3.934 6.872-8.283 9.958-12.688 9.988-14.836 16.517-32.018 18.643-49.791 2.295-18.489.023-37.55-6.696-54.936-1.311-3.664-3.052-7.146-4.725-10.648-1.291-2.652-2.858-5.155-4.255-7.747-.739-1.371-1.749-2.566-2.568-3.885-1.702-2.829-3.839-5.355-5.819-7.986-6.196-7.716-13.318-14.739-21.359-20.526-7.752-5.852-16.342-10.57-25.343-14.2-3.068-1.335-6.292-2.241-9.454-3.313-12.551-3.771-25.754-5.381-38.841-4.666zm-7.773 99.187c4.119-3.922 8.382-7.721 12.97-11.086-2.707 2.441-5.598 4.692-8.166 7.292-7.07 6.812-13.394 14.416-18.7 22.681-1.486 2.199-2.706 4.556-4.077 6.825-.747-.66-1.499-1.316-2.194-2.029 5.889-8.559 12.746-16.423 20.167-23.683zm22.655 8.78l1.051-.016-.408 1.038a6.9 6.9 0 0 1-.643-1.022zm-1.91.26c.76-.424.055.875 0 0zm.794.851l.913-.135-.031 1.051-.856-.154-.026-.762zm-2.025.159c.266-.422.864.099.578.46-.273.417-.864-.101-.578-.46zm-1.085 1.069h.648l-.031.596-.666.083.049-.679zm-2.264 1.941l.836.294-.144.794c-.265-.078-.619-.042-.785-.297l.093-.791zm-2.18.37c.419-.138.559.008.426.432-.421.138-.562-.008-.426-.432zm.942.851l.72-.039.073.929-.874-.076.081-.814zm-2.022.229c.322-.265.801.265.437.526-.32.26-.812-.276-.437-.526zm13.313-.039l.658-.031-.023.715c-.162 0-.479-.005-.641-.007l.006-.677zm-14.521 1.072l.573-.01.023.627-.669.036.073-.653zm-1.038.963l.489.166.161.513-.718.055.068-.734zm.853 1.108l.781.011.338.767-1.129.167.01-.945zm-3.226 1.322l.614-.083-.013.768-.596-.084-.005-.601zm2.076-.158l.869-.029.011.835-.869-.021-.011-.785zm13.373.629c.146-.468.627-.481 1.031-.564l-.034.767-.997-.203zm-17.521 1.902c.422-.13.568.016.43.44-.419.136-.562-.013-.43-.44zm-1.15 1.109c.364-.117.492.005.377.372-.369.115-.494-.01-.377-.372zm.817.958l.96-.06-.036.88-.765.067-.159-.887zm-.989.994l.81.041.099.737-.898.169-.011-.947zm-1.225 1.91c.187-.339.408-.656.611-.984l.315.999-.926-.015zm-.849.465l.578-.015v.637l-.63.024.052-.646zm-26.576 2.423l2.98 2.311c-2.136 5.015-3.94 10.24-4.494 15.689-.382 3.646-.112 7.52 1.629 10.81 1.46 2.776 4.164 4.832 7.224 5.514 4.788 1.127 9.758-.005 14.297-1.624 3.911-1.345 7.512-3.412 11.148-5.345-3.948 3.276-8.143 6.256-12.522 8.928-4.762 2.808-9.761 5.363-15.158 6.688-3.729.89-7.867 1.27-11.424-.442-2.529-1.174-4.21-3.662-4.949-6.287-.796-2.959-.674-6.079-.232-9.085 1.01-6.232 3.401-12.139 6.157-17.783 1.665-3.188 3.357-6.373 5.345-9.374zm31.799 3.846l3.625-2.464c.385.434.773.866 1.085 1.361l-.885.156c-.343-.201-.575-.539-.853-.809-.828 1.282-2.405 1.811-3.198 3.125l-.633.026-.387-.83 1.022.414-.229-.69.453-.289zm-7.687-1.85l.911-.023c-.151.39-.401.731-.599 1.101l-.312-1.078zm9.941 1.421a5.19 5.19 0 0 1 .973-.416l-.083 1.048c-.367-.117-.732-.252-.89-.632zm-.726 1.119c.767-.403.041.869 0 0zm-5.741.833l.635.023.023.627-.65-.007-.008-.643z" fill="#044da2"/><g fill="#01b8f1"><path d="M122.117 14.129c13.087-.716 26.29.895 38.841 4.666 3.162 1.072 6.386 1.978 9.454 3.313 9.001 3.63 17.591 8.348 25.343 14.2 8.041 5.787 15.163 12.811 21.359 20.526 1.98 2.631 4.117 5.158 5.819 7.986.819 1.319 1.829 2.514 2.568 3.885 1.397 2.592 2.964 5.095 4.255 7.747 1.673 3.503 3.414 6.984 4.725 10.648 6.719 17.386 8.991 36.447 6.696 54.936-2.126 17.773-8.655 34.956-18.643 49.791-3.086 4.406-6.284 8.754-9.958 12.688-4.757 5.231-9.93 10.102-15.614 14.315-4.559 3.539-9.472 6.587-14.497 9.413-3.609 1.813-7.174 3.739-10.947 5.196-14.547 6.056-30.376 8.913-46.117 8.593-8.517-.266-17.032-1.317-25.296-3.422-9.303-2.321-18.297-5.868-26.707-10.466-7.804-4.31-15.194-9.418-21.755-15.468-7.323-6.529-13.742-14.055-19.124-22.254-1.619-2.342-2.928-4.872-4.387-7.31a112.44 112.44 0 0 1-11.145-28.939c-2.097-8.733-2.993-17.724-3.065-26.694.12-7.9.913-15.803 2.579-23.534 4.312-20.163 14.247-39.099 28.434-54.064 5.434-5.891 11.627-11.046 18.151-15.689 17.32-11.957 37.983-19.106 59.032-20.063zm-7.091 13.761c-1.814.247-3.628.599-5.467.533l.052 2.524c.289-.448.442-1.08 1.004-1.262.921-.406 1.939-.45 2.93-.515.398 3.846 1.314 7.648 1.351 11.523l-1.02.778c1.66-.268 3.328-.518 5.004-.651-.57-.156-1.239-.206-1.679-.638-.312-.588-.34-1.273-.455-1.915-.401-3.151-.963-6.29-1.2-9.462 1.057-.109 2.121-.187 3.186-.099l.783 1.155c.021-.908-.141-1.806-.305-2.693-1.363.401-2.787.5-4.184.721zm6.971-.71c.477.333 1.231.515 1.278 1.205.255 1.465.078 2.961.208 4.439.211 2.139.237 4.296.156 6.443.016.653-.676.877-1.108 1.202 1.579.034 3.143-.193 4.718-.252-.802-.148-1.746-.455-1.632-1.462-.036-3.656-.416-7.299-.32-10.958l1.15-.661c-1.483-.044-2.966.016-4.45.044zm12.343-.016a5.46 5.46 0 0 0-3.945 2.782c-1.403 2.386-1.582 5.493-.253 7.952 1.372 2.896 5.421 3.885 8.096 2.241 1.762-1.116 2.878-3.068 3.188-5.106.559-2.514-.146-5.577-2.431-7.021-1.363-.911-3.068-1.051-4.655-.848zm11.559 5.545c-.7 2.732-1.296 5.496-2.176 8.181l-1.233.429 4.07.939c-.476-.409-1.322-.682-1.244-1.436.023-1.299.505-2.529.747-3.794.281-1.465.567-2.93 1.015-4.356l5.116 10.248c.231.419.517.799.806 1.179.763-1.546.966-3.284 1.458-4.921.788-2.685 1.29-5.449 2.209-8.096l-1.746-.437c.122 1.663-.365 3.271-.724 4.877-.369 1.514-.645 3.05-1.064 4.551-1.033-1.543-1.637-3.31-2.548-4.921-1.184-2.212-2.092-4.567-3.359-6.74-.684 1.348-.947 2.847-1.327 4.296zm-42.677-3.117c-.226.859-.364 1.738-.377 2.628l-.57 7.029c-.2 1.332-.083 2.712-.466 4.013-.247.76-1.215.864-1.894.788-.484-.245-.729-.755-1.015-1.187l-4.057-7.146c-.51-.976-1.09-1.918-1.788-2.771-.156.442-.341.887-.315 1.366-.042 3.159.133 6.321.013 9.477-2.974-2.277-5.199-5.392-8.15-7.697-.023 1.47.664 2.803.968 4.213.697 3.013 1.829 5.925 2.29 8.996l-.71.515c-2.332-.583-4.476-1.684-6.688-2.584.052-1.072.177-2.152.023-3.219-.271-1.306-1.246-2.54-2.6-2.805-1.023-.219-1.999.291-2.855.783-.942.58-1.894 1.15-2.743 1.866.578.593 1.161 1.194 1.577 1.918 1.332 2.287 2.745 4.53 4.119 6.792.495.791.825 1.668 1.028 2.576a123.11 123.11 0 0 0 2.613-1.509c-1.754-.859-2.524-2.805-3.396-4.434.557-.19 1.135-.692 1.746-.424 1.431.601 2.738 1.488 4.203 2.019.898.224 1.936.229 2.701-.364 1.15-.799 2.467-1.296 3.721-1.897l-1.473-.039c-.854-2.446-1.546-4.952-2.24-7.448 2.451 1.918 4.278 4.544 6.852 6.316.221-3.149-.099-6.308.086-9.459 1.556 2.331 2.899 4.804 4.13 7.323.601-.078 1.2-.195 1.772-.403 1.507-.544 3.081-.864 4.604-1.371l-.989-.333c-.284-1.322-.089-2.667.078-3.989 1.083-.286 2.157-.614 3.255-.848.909 1.262 1.895 2.535 2.306 4.06 1.254-.169 2.459-.552 3.659-.942-.802-.114-1.692-.255-2.16-1.002-1.478-2.025-2.735-4.2-4.119-6.287-1.07-1.491-1.856-3.188-3.139-4.517zm61.86 8.47a9.08 9.08 0 0 0 .039 2.654c.391 1.587 1.562 3.013 1.307 4.731-.057 1.392-1.856 2.566-3.042 1.611-1.028-.531-1.023-1.795-1.239-2.777-.393.557-.838 1.119-.989 1.793-.138.612.404 1.028.854 1.319 1.103.734 2.498 1.166 3.812.791 1.788-.664 2.857-2.639 2.662-4.502-.052-1.749-1.197-3.18-1.577-4.84-.213-.882.102-1.999 1.02-2.332.713-.109 1.629-.141 2.1.515.653.692.453 1.694.521 2.555a28.36 28.36 0 0 0 1.145-2.592c-1.057-.9-2.379-1.691-3.82-1.522-1.403.083-2.449 1.314-2.793 2.594zm11.487 2.685c-1.403.645-2.02 2.204-2.158 3.656-1.119.331-2.251.7-3.203 1.395-1.936 1.444-2.056 4.806.026 6.18 1.254 1.064 2.93 1.249 4.512 1.163.547 1.725 2.093 2.797 3.727 3.38-.872-1.218-1.575-2.553-1.931-4.013 1.181-.82 2.55-1.58 3.221-2.907.097-1.038-1.223-1.28-1.881-1.803.19.427.427.843.518 1.306-.331 1.025-1.187 1.746-2.017 2.373-.58-1.673-.822-3.435-1.072-5.178-.07-1.335-.237-2.808.544-3.981.531-1.174 2.485-1.176 3.031-.013.544.828.079 1.816-.07 2.691.469-.651 1.018-1.254 1.392-1.97.31-.734-.351-1.317-.882-1.702-1.046-.856-2.503-.799-3.757-.578zm8.733 6.74c.603-.036 1.254-.206 1.832.055.832.409 1.501 1.067 2.201 1.658-1.038 1.423-2.162 2.782-3.268 4.156-1.457 1.759-2.722 3.695-4.479 5.184.919.924 1.962 1.718 3.081 2.392-.281-.388-.57-.765-.858-1.142.713-1.645 2.027-2.894 3.068-4.32 1.361-1.689 2.623-3.458 4.07-5.074.772.638 1.655 1.218 2.159 2.108.281.52-.125 1.075-.236 1.587.663-.695 1.332-1.384 1.925-2.142-1.884-1.14-3.502-2.649-5.259-3.968-.879-.661-1.697-1.4-2.456-2.196-.607.554-1.182 1.14-1.78 1.705zm-119.648 1.27c-2.227.794-4.166 2.756-4.406 5.184-.133 2.399 1.023 4.76 2.818 6.316 1.304 1.179 3.042 2.001 4.832 1.842 1.728-.057 3.328-1.017 4.317-2.417 1.194-1.392 1.293-3.357.965-5.082-.409-1.691-1.478-3.151-2.706-4.348-1.535-1.408-3.781-2.267-5.821-1.494zm58.566 3.682c-17.003.801-33.652 7.58-46.349 18.921-8.577 7.536-15.345 17.086-19.751 27.612-4 9.654-5.998 20.141-5.74 30.591.284 17.883 7.245 35.565 19.223 48.847 2.618 3.018 5.618 5.67 8.632 8.283 6.539 5.233 13.875 9.511 21.77 12.345 18.664 6.932 40.09 5.993 58.087-2.527 14.18-6.628 26.236-17.765 33.848-31.456 4.991-8.728 8.074-18.509 9.224-28.486 1.848-16.113-1.597-32.814-9.885-46.778-4.82-8.366-11.377-15.686-18.968-21.63a75.86 75.86 0 0 0-24.781-12.694c-8.187-2.438-16.779-3.419-25.309-3.029zm-72.733 9.675l1.291-.513c1.663 1.098 2.985 2.608 4.455 3.935 1.491 1.348 2.992 2.686 4.328 4.19l-.281 1.127c.911-.775 1.759-1.624 2.501-2.566-2.03-.945-3.599-2.626-5.09-4.249.57-.651 1.171-1.28 1.876-1.788l1.358.372a43.16 43.16 0 0 0-1.835-1.991c-.474 1.132-1.319 2.032-2.264 2.79-1.119-1.002-2.207-2.035-3.271-3.091.609-.711 1.148-1.543 1.965-2.03.533-.328 1.075.148 1.582.312-.541-.661-1.077-1.327-1.668-1.947-1.6 1.861-3.341 3.594-4.947 5.449zm148.668-4.931c.125.44.315.872.346 1.335-.112.476-.549.783-.871 1.119l-4.721 4.117c-.9.965-1.915 1.996-2.147 3.349-.377 2.204 1.281 4.341 3.305 5.035 1.13.211 2.384.177 3.383-.463 2.764-1.569 4.796-4.099 7.388-5.904l1.264.531c-.856-1.103-1.777-2.155-2.781-3.125.138.45.294.895.45 1.345a18.42 18.42 0 0 1-2.079 2.03c-1.707 1.418-3.266 3.037-5.166 4.205-1.329.908-3.495.388-4.046-1.187-.518-1.215.065-2.6.903-3.521 1.262-1.345 2.748-2.456 4.109-3.698.801-.669 1.514-1.491 2.485-1.926.442-.065.864.156 1.285.268l-3.107-3.51zM46.978 67.755c.578-.182 1.262-.484 1.793-.016 2.238 1.556 4.585 2.961 6.732 4.642-2.891.37-5.803.468-8.702.765-1.426.099-2.865.078-4.265.416.768.95 1.806 1.603 2.784 2.306 1.855 1.259 3.625 2.636 5.446 3.94.89.651 1.866 1.291 2.272 2.373l1.928-2.74c-.448.193-.874.5-1.377.523-1.051-.367-1.988-.999-2.868-1.671-1.434-1.098-3.013-1.988-4.416-3.128 2.251-.2 4.515-.198 6.758-.487 2.051-.268 4.143-.247 6.16-.744-.671-.632-1.366-1.241-2.118-1.769l-6.966-5.009c-.674-.448-1.124-1.129-1.483-1.837l-1.678 2.436zm157.7 6.035c-1.757 1.023-3.375 2.384-5.389 2.868l1.691 2.719c-.002-.492-.062-.986.024-1.47.419-.619 1.108-.971 1.699-1.403 1.79-1.181 3.518-2.475 5.433-3.456l-3.367 10.471c-.19.585-.195 1.205-.219 1.816 3.433-1.759 6.589-4.007 9.925-5.938.573-.367 1.252-.453 1.918-.497-.484-.791-.952-1.593-1.475-2.358-.214.653-.422 1.377-1.075 1.728-2.157 1.444-4.294 2.933-6.555 4.213 1.124-4.239 2.821-8.311 3.95-12.548-2.287 1.106-4.374 2.574-6.56 3.854zM38.502 81.209c2.339.755 4.4 2.131 6.573 3.248 1.72.95 3.625 1.684 4.965 3.185.825-1.101 1.403-2.352 1.996-3.586l-1.309 1.153c-1.707-.695-3.255-1.702-4.887-2.548-1.897-1.038-3.885-1.926-5.655-3.18l-.026-1.21c-.575.965-1.155 1.931-1.658 2.938zm174.932 5.231c-2.011.906-3.932 2.066-6.06 2.675-.414-.224-.76-.541-1.119-.835.518 1.145 1.007 2.306 1.574 3.427.594-.533 1.218-1.041 1.947-1.379l7.91-3.799c.43-.18.875-.424 1.359-.388.414.127.754.409 1.119.64-.443-1.096-.947-2.162-1.52-3.195-1.533 1.291-3.461 1.931-5.21 2.855zm7.646 1.746c-.097.846-.224 1.79-.958 2.339l-8.959 7.2c-.336.268-.549.65-.778 1.007 1.061.242 2.149.224 3.232.206 3.125.094 6.253.018 9.378.102.721.031 1.397.305 2.066.559a40.18 40.18 0 0 0-1.041-2.852l-.395.955c-3.222.385-6.482.122-9.72.255 1.877-1.551 3.818-3.021 5.736-4.517.64-.479 1.259-1.033 2.024-1.301.354.112.62.39.924.599-.51-1.514-1.056-3.019-1.509-4.551zM32.155 95.362c-.302 1.876-.221 4.06 1.207 5.488 1.926 2.311 5.191 3.079 8.057 2.467 1.77-.536 3.164-1.98 3.87-3.664.625-1.501 1.168-3.19.674-4.811-1.473-.562-3.029-.919-4.458-1.593-.606-.221-.552-.929-.671-1.444-.492 1.137-.95 2.295-1.265 3.495 1.746-.216 3.391.5 4.968 1.148.385.086.554.476.528.846-.273 1.829-1.699 3.433-3.505 3.872-1.582.388-3.281.248-4.809-.307-1.28-.505-2.631-1.16-3.307-2.428-.942-1.582-.448-3.633.679-4.981.656-.799 1.686-1.088 2.558-1.577l-2.402-.978c-.916 1.377-1.71 2.86-2.123 4.468zm193.393 6.287c-.133.471-.031 1.072-.448 1.419-.929.494-1.991.65-3.005.887-2.845.567-5.629 1.431-8.507 1.808-.328-.301-.645-.608-.96-.916.361 1.559.78 3.11.999 4.697.127.753.226 1.577.762 2.168.812.07 1.598-.203 2.394-.333-.58-.206-1.275-.255-1.704-.736-.468-.706-.604-1.59-.544-2.42.096-.438.58-.586.95-.724 1.384-.445 2.823-.682 4.236-1.02.268.809.451 1.642.594 2.483l-1.184 1.035c.921-.109 1.839-.25 2.761-.369-.687-.999-1.005-2.191-.961-3.401 1.494-.336 2.975-.817 4.52-.833a13.6 13.6 0 0 1 .331 2.74l-1.218.856c.914-.099 1.822-.239 2.73-.382-.882-2.238-1.109-4.653-1.746-6.959zm-196.453 5.684c.898-.084 1.803-.12 2.698.028l7 1.122c-3.755 2.347-7.7 4.377-11.489 6.667.76.286 1.554.471 2.352.622 3.482.65 6.974 1.243 10.43 2.014l.476 1.121.51-2.807c-1.031.101-2.071.135-3.097-.034l-6.313-1.028c2.043-1.327 4.244-2.386 6.297-3.701 1.595-1.038 3.427-1.735 4.812-3.073-1.749-.492-3.552-.739-5.327-1.108-2.646-.552-5.397-.768-7.924-1.778-.156.648-.299 1.299-.427 1.955zm198.613 4.923c-.141.515-.063 1.132-.391 1.569-1.467.557-3.068.445-4.598.682-2.438.216-4.866.656-7.32.598l-.705-1.121c.078 1.194.216 2.381.377 3.568 1.715-.615 3.529-.883 5.345-.945l.122 1.512c-1.501 1.423-3.447 2.363-4.689 4.057-.281 1.272.182 2.623-.221 3.89-.427 1.418-.419 3.107.58 4.291 1.041 1.335 2.957 1.413 4.481 1.07 2.191-.627 3.133-3.029 5.122-3.977 1.223-.598 2.909.586 2.498 1.97-.167 1.114-1.304 1.512-2.233 1.806.911.052 1.814.203 2.719.32.422-1.16.495-2.438.242-3.643-.481-1.275-1.79-2.279-3.19-2.17-1.686-.057-3.128 1.033-4.208 2.22-.9.936-1.91 2.107-3.341 2.014-1.239.169-2.212-1.205-1.973-2.355.102-1.223 1.447-1.595 2.342-2.113-.837-.266-1.72-.266-2.589-.26.328-.955.802-1.887 1.619-2.517 1.239-1.03 2.41-2.144 3.729-3.076 1.353.721 2.805 1.726 4.421 1.34 1.249-.229 2.527-1.246 2.519-2.607.023-2.056-.229-4.117-.658-6.123zm-200.333 8.273c-.117 1.069-.213 2.141-.229 3.221 2.373-.169 4.749.003 7.117.164 1.676.112 3.38-.031 5.027.362.554.088.781.655 1.083 1.056.104-1.548.096-3.102.117-4.65l-.627 1.468c-1.59-.008-3.18.007-4.765-.125-2.251-.229-4.533-.078-6.766-.484-.513-.097-.687-.638-.958-1.012zm-.26 6.986l.034 4.684c.258-.491.432-1.059.872-1.426 2.183-.14 4.366-.304 6.56-.249 2.412.057 4.843-.237 7.242.104 1.275.153 2.225 1.074 3.172 1.847-.913-2.074-2.896-3.773-5.228-3.869-4.002-.107-8.004.179-12.004.047a46.53 46.53 0 0 1-.648-1.138zm13.186 6.124c-.068.486-.117.975-.161 1.467-2.019.567-4.127.557-6.199.783-1.704.136-3.401.388-5.105.508-.726.062-1.14-.562-1.494-1.083.008 1.481.278 2.938.393 4.411.258-.46.291-1.202.911-1.309 1.629-.408 3.323-.338 4.978-.57 2.043-.125 4.072-.478 6.123-.434.624-.057.88.627 1.254 1.002-.37-1.575-.174-3.232-.7-4.775zm175.06 1.137l-.25 3.898.604-1.418c1.993-.102 3.981.117 5.967.288 2.043.266 4.114.276 6.133.734l.435 1.192c.203-1.478.382-2.959.408-4.452-.288.4-.445.999-.991 1.111-.981.101-1.952-.143-2.925-.221-3.125-.383-6.326-.276-9.381-1.132zm-176.637 6.219c.596.341 1.429.481 1.72 1.184.349.76.289 1.619.315 2.433-1.733.645-3.565.999-5.402 1.179-.193-1.135-.271-2.29-.065-3.427l-1.689.25c.307.848.583 1.709.742 2.602.138.33.036.83-.375.892-1.353.357-2.748.51-4.117.791-.221-.939-.484-1.907-.331-2.878.317-.374.757-.609 1.153-.887-.859.076-1.72.148-2.571.302.544 2.277.887 4.595 1.335 6.896a50.38 50.38 0 0 1 .575-1.4c2.803-.685 5.652-1.153 8.486-1.684 1.02-.195 2.053-.486 3.099-.336.37.219.669.531.981.825-.663-2.253-.703-4.634-1.345-6.896-.84-.013-1.681.027-2.511.154zm187.215.757c.284.424.606.843.75 1.348.153 1.018-.258 1.994-.513 2.959l-8.21-1.574c-1.025-.229-2.079-.404-3.037-.844-.174-.356-.237-.752-.341-1.126-.398 1.566-.773 3.146-.963 4.751.383-.593.784-1.553 1.661-1.342 3.505.723 7.052 1.27 10.536 2.092a5.98 5.98 0 0 1-1.236 3.578c.523.205 1.056.39 1.59.572.617-3.255 1.171-6.526 1.972-9.742-.731-.248-1.47-.461-2.209-.672zm-187.795 9.589c-.942.685-1.384 1.812-1.772 2.868-1.283-.362-2.745-.645-3.997-.031-1.168.718-1.28 2.287-.913 3.487l1.371 4.195c.029-.482.042-.966.06-1.445 1.616-.918 3.469-1.241 5.21-1.834 1.965-.536 3.864-1.345 5.884-1.658.554-.122.916.393 1.319.672l-.986-3.719c-.281-1.101-.851-2.191-1.824-2.826-1.34-.775-3.104-.585-4.351.291zm172.819 4.921c.786-.091 1.598-.135 2.368.112 1.687.497 3.506.95 4.765 2.269 1.598 1.632 3.565 3.071 4.39 5.285l.932-2.721c-.518-.034-1.101.015-1.497-.383-1.355-1.124-2.636-2.339-3.882-3.581 1.821-.299 3.635-.697 5.483-.799.489-.072.9.24 1.311.464.323-1.213.687-2.413 1.044-3.615-1.361 1.296-3.3 1.403-5.054 1.689-1.496.213-3.037.765-4.543.294-1.304-.385-2.621-.778-3.826-1.416-.088-.419-.106-.85-.138-1.275-.523 1.197-.923 2.444-1.353 3.677zM42.996 169.997c-1.275.336-2.069 1.686-2.053 2.951.177 1.056.783 2.128 1.819 2.545 1.2.549 2.706.088 3.482-.953.848-1.28.661-3.297-.679-4.174-.721-.58-1.715-.439-2.568-.369zm168.12.047c-2.303.681-2.53 4.312-.372 5.313 1.879 1.158 4.478-.634 4.312-2.763-.128-.825-.479-1.694-1.213-2.157-.76-.617-1.822-.56-2.727-.393zm-155.465 10.18c-.151.83-.091 1.819-.77 2.435-1.005 1.041-2.079 2.043-3.37 2.722-.364-.718-.736-1.428-1.127-2.128l-.619-.024c-.247 1.038-.315 2.111-.586 3.141-.448 1.34-1.715 2.131-2.844 2.852-.874.554-.687 1.728-.723 2.618.812.193 1.671.531 2.501.211 2.941-1.054 6.438-1.14 8.733-3.524.026-.814-1.08-.76-1.655-.773.71-.806 1.426-1.636 1.9-2.61.393-1.772-.466-3.497-1.439-4.92zm140.008 1.371c-1.117.952-.615 2.644-1.45 3.765-.554.752-.239 1.702.003 2.509-.476.12-.95.255-1.413.406.393.479.65 1.28 1.366 1.319.57.06 1.335.055 1.626-.546.097-.773.029-1.554-.002-2.324l-1.434-.677 2.037-.242c.367 1.015.75 2.038.911 3.113.099 1.184-.32 2.326-.544 3.474-.671-.3-1.392-.458-2.12-.521.502 1.71 1.6 3.138 2.508 4.645.656 1.109 1.374 2.183 2.048 3.284.367-.263.762-.484 1.142-.728-.632-1.091-1.407-2.085-2.102-3.131-.841-1.082-.188-2.485.021-3.672.819-2.938 1.629-6.227 4.181-8.168.378.781.617 1.616.841 2.451.679-.494 1.392-1.017 1.751-1.806.437-.84 1.038-1.876.398-2.781-.434-1.021-1.728-.87-2.62-.753-2.126 1.169-2.865 3.62-4.265 5.444-.299-.796-.614-1.587-.848-2.404-.276-.903.02-1.892-.352-2.771-.367-.62-1.246-.232-1.683.114zm4.408 7.794c-.544 1.855-.893 3.778-.955 5.712a29.04 29.04 0 0 1 .791-.162c.736-1.512.653-3.242 1.218-4.806.205.585.283 1.246.666 1.759.546.466 1.262.645 1.936.854-.351 1.381-.906 2.755-2.064 3.656.669.203 1.34.559 2.061.452 1.106-.661 1.536-1.962 1.968-3.101 1.212.642 2.016 1.795 2.656 2.974-1.09.794-2.487.796-3.692.281 0 .549-.109 1.158.226 1.639.432.643.911 1.46 1.759 1.564 1.14.032 2.27-.403 3.18-1.074.862-.838.659-2.21.094-3.149-.929-1.314-2.113-2.425-3.06-3.721-.768-1.101.937-2.072.645-3.211a9.57 9.57 0 0 0-.583-.693c-.96.367-1.72 1.06-2.391 1.814l-1.192-.411c-.268-.783-.18-1.819-.908-2.35-1.234-.286-1.975 1.005-2.355 1.973zm-138.259.622a31.47 31.47 0 0 0-.853 2.336c-1.366.31-2.74.703-4.158.581-.723.026-1.663-.294-2.175.39-.731.796-1.148 1.918-1.187 2.987.864 1.611 2.441 2.73 4.08 3.487.744-.416 1.384-.996 1.694-1.808-.476-.755-.908-1.535-1.314-2.327 1.304-.866 2.922-.952 4.437-.91.807.346 1.338 1.15 2.181 1.441.716.261 1.489.164 2.23.12.044-.786-.081-1.577.016-2.355.567-.723 1.239-1.473 1.181-2.462-.07-.497.018-1.21-.484-1.491-.432.43-.781.958-1.306 1.286-.768.257-1.616.382-2.41.179-.731-.114-1.062-.866-1.496-1.374l-.435-.08zm17.294 5.722c-.336 1.423-.989 3.234.115 4.481.362-.005.723-.047 1.082-.102.01-1.454.242-3.005-.497-4.337l-.7-.042zm99.215 2.865c.466.601.789 1.298.922 2.051.411 2.102 1.363 4.077 1.696 6.19-.247 1.322-1.644 1.499-2.711 1.809 1.095.211 2.191.432 3.307.515.44 1.262 1.296 2.907.19 4.07-.861.692-1.676-.427-2.482-.695-.167.703-.432 1.384-.583 2.095.036.905.895 1.47 1.597 1.894 1.091.716 2.519.89 3.755.503 1.02-.659 2.064-1.544 2.381-2.764.318-1.855-.936-3.417-1.462-5.098 1.387-.333 2.821-.013 4.218-.273 2.298-.263 4.71-.783 6.524-2.306.247-.606.333-1.262.458-1.897-.513-.208-1.054-.426-1.613-.296-1.931.19-3.521 1.395-5.33 1.972-1.532.586-3.201.323-4.798.344.848-1.739 2.113-3.209 3.37-4.661.437-.359.197-.892.101-1.345-.736.002-1.481-.086-2.207.044-1.108.872-1.834 2.103-2.565 3.284-.896-1.46-.906-3.219-1.424-4.809-.283-.484-.765-.814-1.238-1.085-.732-.299-1.46.151-2.106.458zm-109.002 1.819c2.985.565 5.967 1.205 8.848 2.181 1.806.955 3.258 2.448 4.892 3.651.515.049.976-.274 1.452-.425-.51-1.592-2.014-2.511-3.255-3.5-2.037-1.577-4.629-2.061-7.104-2.5-1.624-.219-3.315-.56-4.502-1.786-.484.711-.406 1.57-.331 2.379zm2.852 3.719c-.437.819.06 1.649.234 2.461-.047.411-.193.807-.242 1.221.242.426.612.765.926 1.142-1.085.664-2.438.377-3.575.023.57-.229 1.155-.421 1.736-.629-.174-.534-.195-1.283-.82-1.494-.422-.206-.984-.211-1.361.096-.708.513-1.343 1.169-1.736 1.96-.421.874.195 1.834.851 2.399.864.078 1.733.008 2.6.031-.424.69-.919 1.348-1.207 2.113-.104.463.112.929.19 1.387l1.161-.018c.838-1.416 1.621-2.974 3.18-3.729a41.96 41.96 0 0 1 1.046 1.439l-1.53.994c.312.609.648 1.364 1.371 1.551.817.068 1.624-.143 2.412-.328.029-.762.094-1.587-.33-2.264-.58-.968-1.478-1.686-2.183-2.553.723-.273 1.468-.481 2.217-.658.029-.52.039-1.041.049-1.559 1.012-.476 2.121-.648 3.193-.931-.073-.547.088-1.221-.359-1.637-1.353-1.462-3.456-1.639-5.254-2.209-.273-.451-.258-1.213-.864-1.338-1.093.247-1.317 1.629-1.704 2.53zm92.13 1.923c.634 1.444.634 3.06.533 4.605-.068 1.114-1.109 1.728-1.972 2.223-.831-.612-2.012-1.091-2.205-2.223-.21-.7-.057-1.553-.556-2.131-.432.003-.854.115-1.27.211-.37 2.09-.617 4.21-.492 6.336-1.395 1.213-3.032 2.093-4.767 2.709.523.154 1.074.568 1.634.333 1.082-.431 2.027-1.129 3.013-1.738-.63 2.295-1.603 4.502-2.004 6.854-.018 1.333.344 2.826 1.307 3.792 1.553.716 3.458 1.116 5.105.507-.125-.786-.395-1.53-.741-2.24-1.296-3.214-1.931-6.664-2.064-10.118.88-.497 1.624-1.215 2.555-1.616.758.037 1.507.196 2.272.201.378 1.631-.377 3.307.25 4.905-1.249-.018-2.482-.388-3.732-.234-.247.205-.46.45-.666.7 2.22 1.1 4.853.583 7.063 1.709-.341.425-.547 1.101-1.158 1.197-.398.105-.797.196-1.195.289l-1.558-.908c-.922.796-1.091 2.602.135 3.188 1.304.354 2.883.567 4.023-.336 1.01-.715 1.4-1.933 1.975-2.969.32-.765 1.283-.468 1.923-.427 2.121.378 4.648.349 6.201-1.376-.333-.539-.604-1.296-1.343-1.34-1.587-.203-3.114.444-4.686.53l-2.022.055c-.38-1.371-.276-2.792-.372-4.195-.51-.13-1.023-.367-1.556-.289-.575.177-1.07.529-1.577.838.021-.629-.008-1.259.086-1.879.806-1.306 2.092-2.222 3.06-3.393.151-.346-.055-.721-.083-1.069-1.171-.146-2.296.125-3.295.733-.036-.983.073-1.972-.073-2.945-.544-.289-1.155-.38-1.748-.489zm-73.953 4.496c-1.174.7-2.425 1.247-3.625 1.889-.684.365-.403 1.239-.466 1.864 1.606-.045 2.868-1.174 4.288-1.775-.367 1.829-1.616 3.271-2.412 4.913-.635 1.262-1.408 2.451-2.048 3.711-.302.557.013 1.173.138 1.735l1.025-.01c.658-1.46 1.163-2.985 1.894-4.411.867-1.894 1.489-3.94 2.8-5.595.773.396 1.629.599 2.501.583 1.652-.023 3.281.336 4.936.32 1.07-.031 2.165.133 3.125.627.922.469 1.463 1.71 2.655 1.458l.377-.997c-.614-.814-1.335-1.598-2.285-2.017-1.558-.655-3.281-.312-4.915-.486-2.1-.286-4.234-.047-6.303-.562.804-.776 1.808-1.249 2.81-1.705.794-.468.567-1.517.226-2.201-1.475 1.056-3.177 1.72-4.723 2.659zm8.978-1.618c.528 1.285 1.65 2.185 2.651 3.094.055-.396.135-.789.128-1.187-.614-.989-1.65-1.665-2.779-1.907zm17.498 2.102c-.117.515-.096 1.13-.544 1.499-.677.632-1.457 1.148-2.103 1.814-1.121 1.137-2.451 2.066-3.468 3.302-.097.523-.055 1.059-.063 1.593l.739.249c1.052-1.001 1.978-2.123 3.037-3.114-.377 1.959-1.304 3.731-2.061 5.558-.369.726.258 1.712 1.062 1.704 1.259.112 2.521-.02 3.783-.028-.523.541-1.087 1.038-1.639 1.548.018.536.044 1.072.086 1.611.492.109.994.278 1.504.198 1.012-.117 1.863-.802 2.894-.82.286.903.614 1.835.544 2.797-.185.492-.76.461-1.192.487-1.77.062-3.394-.89-4.656-2.051-.801-.71-1.106-1.772-1.626-2.672-.07.775-.239 1.621.156 2.35 1.299 2.513 4.083 4.085 6.886 4.129.952-.013 1.865-.314 2.766-.588.036-.614.114-1.267-.221-1.813-.643-1.156-1.237-2.462-2.488-3.076.593-.271 1.163-.646 1.816-.742 1.049-.002 2.251.682 3.144-.182-.341-.528-.674-1.158-1.338-1.314-1.892-.541-3.849.177-5.524 1.043.913-2.482 1.72-5.095 1.545-7.773-.018-.702-.447-1.402-1.077-1.704-1.051-.065-2.092.174-3.138.226.562-.871 1.389-1.511 2.055-2.292.414-.815-.283-1.486-.879-1.939zm26.368.476c.214 1.52.307 3.053.31 4.591a21.61 21.61 0 0 0-2.764-.031c.784.572 1.53 1.197 2.35 1.722 1.385.726 1.135 2.563 1.114 3.891-.518-1.156-1.429-2.158-2.688-2.478-.466-.213-.739.305-1.028.554.812.929 1.793 1.679 2.784 2.408-1.106.949-2.274 1.842-3.622 2.417.039-.809.065-1.77-.82-2.129-.671.81-1.389 1.59-2.248 2.207-.039-.648-.255-1.353.01-1.972.526-.703 1.335-1.101 2.035-1.603l-.015-.89c-.893-.385-1.744-.859-2.462-1.52.599-.703 1.455-1.436 1.345-2.454-.398-.999-1.241-1.754-2.243-2.121-.088.729-.218 1.528-.864 1.983-1.072.843-2.256 1.554-3.156 2.6.51.359.973.809 1.559 1.051 1.02.021 1.977-.45 2.945-.718-.119.885.052 2.006-.791 2.589-1.707 1.327-3.664 2.535-5.889 2.628.388.732.771 1.887 1.804 1.78 1.663-.265 2.953-1.444 4.364-2.266.018.843-.013 1.686-.042 2.532-.44-.302-.929-.856-1.501-.508-.979.919-1.51 2.199-2.116 3.373-.432.869.232 2.258 1.304 2.037.825-.421 1.504-1.077 2.227-1.647.263 1.096.921 2.077 1.986 2.527.153-.391.51-.755.408-1.197-.205-.911-.51-1.796-.757-2.691l1.923-2.061c.757.469 1.619.895 2.537.648 1.197-.567 2.183-1.473 3.266-2.217.338.133.325.5.364.809.156 1.811.435 3.61.578 5.421.161 1.408 1.655 1.808 2.519 2.688.146-.898.362-1.809.125-2.709-.299-2.652-1.15-5.264-.953-7.95.578-.869 1.754-1.049 2.642-1.507l.039-.887c-.914-.903-2.22-.768-3.347-.414-.401-2.001-.447-4.049-.567-6.079-.138-1.334-1.408-2.243-2.665-2.407zm-46.413 2.894a17.83 17.83 0 0 0 1.228 1.465c-2.079.388-3.997 1.301-6.037 1.817-.622.14-.755.811-.955 1.319 1.187.031 2.358-.162 3.526-.331-.585 1.039-1.28 2.082-1.288 3.321-.104.632.427 1.09.726 1.582.411-.278.809-.58 1.14-.955.773-.958 2.186-1.088 3.323-.885-.495 1.085-1.827 1.096-2.813 1.421-.034.58-.159 1.181-.008 1.762.38.611.942 1.082 1.442 1.6l.864-.596.255-1.496c.822-.375 1.775-.622 2.373-1.348.182-1.124-.708-2.352-1.835-2.54-1.189-.146-2.391.037-3.586.034.409-.695.814-1.449 1.504-1.905 1.827-.372 3.48.643 5.101 1.304.388-.193.726-.463 1.074-.713-.567-.817-1.566-1.093-2.451-1.413-1.421-.482-2.93-.479-4.411-.523 1.478-.565 3.058-.75 4.609-1.023l.049-1.028c-1.275-.294-2.539-.65-3.83-.869zm12.86 10.482c-.489 1.684-.812 3.419-1.444 5.061-.247.5-.005 1.031.117 1.53l.578-.01c.515-2.189 1.27-4.351 1.355-6.612l-.606.031zm24.434-196.754a3.6 3.6 0 0 1 3.404.611c1.103.802 1.514 2.183 1.788 3.453.283 1.972.078 4.041-.75 5.865-.487 1.059-1.535 1.902-2.737 1.902-1.619.141-3.009-1.083-3.67-2.464-.749-1.668-.757-3.557-.549-5.342.245-1.587.849-3.435 2.514-4.026zm-30.285 5.394c.901 1.213 1.676 2.516 2.376 3.854-.885.294-1.793.497-2.722.567l.346-4.421zm-28.01 9.149c.703-.304 1.431.122 2.009.5.882.736 1.449 1.816 1.733 2.917.344 1.132-.804 2.227-1.894 2.162-.788-.825-1.244-1.887-1.858-2.834-.354-.58-.773-1.129-1.012-1.767-.117-.619.573-.812 1.023-.978zm95.866 6.99c-.083-1.775.973-3.747 2.779-4.223l.932 6.654c-1.621.289-3.526-.671-3.711-2.431zm-106.533.591c1.871-.52 3.719.612 5.08 1.801 1.478 1.444 2.844 3.263 2.938 5.41-.049 1.743-1.728 3.073-3.409 3.037-2.131-.013-3.987-1.369-5.283-2.961-1.15-1.371-2.204-3.138-1.798-4.999.38-1.103 1.317-2.032 2.472-2.287zm156.363 66.294c1.983-.294 3.976-.679 5.99-.63.016.882.063 1.97-.718 2.568-1.236.937-3.005 1.052-4.431.555-1.065-.375-.807-1.614-.841-2.493zm-82.051 2.607c11.994 5.816 23.673 12.613 33.587 21.604 3.667 3.487 7.141 7.265 9.654 11.687 2.246 3.838 3.766 8.257 3.513 12.751-.046 3.794-1.657 7.674-4.777 9.951-3.557 2.547-8.002 3.328-12.275 3.658-10.313.45-20.469-2.082-30.207-5.235-8.845-3.139-17.461-6.959-25.611-11.622-1.074-.632-2.227-1.163-3.151-2.019 1.931.749 3.747 1.761 5.636 2.612 8.83 4.026 18.044 7.315 27.589 9.152 3.857.693 7.757 1.325 11.689 1.249 2.665-.044 5.351.151 7.994-.299 4.25-.567 8.518-1.98 11.828-4.791 1.722-1.587 3.315-3.635 3.458-6.063.211-3.19-.851-6.3-2.095-9.186-3.916-8.158-10.432-14.715-17.383-20.352-6.058-4.959-12.704-9.144-19.449-13.097zm-.947 3.643c.718.159.971.745.89 1.437l-1.369.057.005-1.101.474-.393z"/><path d="M137.293 123.833c.229.156.487.276.7.466l.854.83.515-.887c.268-.591 1.127-.154 1.088.393.158.648-.643.786-1.041 1.059.388.349.853.632 1.134 1.085.242.684-.726.851-.913 1.325.185.447.627.765.929 1.15-1.132 1.022-1.931 2.357-3.117 3.328l.744 1.215c-1.083.77-1.78 1.923-2.694 2.86-.666.206-.999-.588-1.47-.908l.989 1.436c-2.535 2.418-4.921 5.004-7.528 7.341-.419-.25-.791-.562-1.176-.856l-.297.195c-1.226.794-2.376 1.705-3.625 2.465l-.778-.721.325 1.009.229.69c-.341-.143-.679-.289-1.022-.414-.63-.213-.851.786-1.273 1.106-.666-.114-.999-.676-1.231-1.252-.442.344-.809 1.138-1.457.935-.557-.477-1.083-.994-1.564-1.543a7.37 7.37 0 0 1 .055-.906 2.41 2.41 0 0 1 1.093.284l.346.832.596.032c.015-.222.036-.438.057-.654l-.999-.21-.245-.841c1.517-1.098 2.62-2.631 3.997-3.88 1.194-1.114 2.306-2.308 3.474-3.445.448.484 1.049.762 1.637 1.041-.417-.396-.859-.763-1.265-1.163.367-.995 1.361-1.497 2.017-2.272.846-1.033 1.899-1.861 2.792-2.85l1.111-1.147 4.437-4.27a11.35 11.35 0 0 1-1.449-.685l.556-.791.576-.031c.278.335.559.679.874.986.744-.71 1.361-1.548 2.019-2.337zm-.086 1.66l-.02.586.611-.003.01-.614-.601.031zm1.299 1.276c-.266.325.273.796.525.424.266-.326-.281-.804-.525-.424zm-3.495 1.027c-.127.427.018.57.44.425.12-.43-.026-.573-.44-.425zm-1.205 1.078l.031.583.589.023-.003-.604c-.154 0-.463 0-.617-.002zm-1.038 1.038l-.016.622.609-.044c-.008-.133-.018-.396-.023-.526l-.57-.052zm-1.14 1.254c-.148.419-.008.568.419.445.143-.424.005-.572-.419-.445zm2.381-.015c-.148.416-.008.564.422.442.14-.419 0-.567-.422-.442zm-3.586 1.09v.612l.604-.021.021-.583-.625-.008zm-2.089 2.194c-.388.13-.224.825.197.666.386-.128.216-.835-.197-.666zm-1.273 1.197l.037.575.523.013.052-.606-.612.018zm-1.064 1.028v.642l.622-.023-.016-.583-.606-.036zm-3.373 3.39l.003.607.583-.008.005-.599h-.591zm-1.171 1.164c-.283.465.537.793.739.335.25-.463-.507-.697-.739-.335zm-1.212 1.004c-.286.351.335.809.637.523.287-.362-.335-.799-.637-.523zm7.088.424c-.268.323.271.796.526.424.26-.325-.279-.809-.526-.424zm-8.103.794l.044.588.552.026.013-.606-.609-.008zm1.257 1.241c-.143.416 0 .562.424.44.138-.424-.003-.57-.424-.44z"/><path d="M134.691 124.328l.664-.419c.257.255.668.492.614.921-.125.325-.43.528-.653.778l-.75-.752.125-.528zm-3.211 1.155h.937l-.203.968-.739-.296.005-.672zm8.923-.018l.827-.021-.039.966-.77-.258-.018-.687zm-8.101 1.486l.359-.656.807.042.401.604-.385.666-.802-.006-.38-.65z"/><path d="M131.279 127.435l1.25-.037c.023.44-.052.88-.032 1.322l-1.108-.031-.11-1.254z"/><path d="M130.189 128.715l.747-.372c.612.432.588 1.039.258 1.655l-1.036-.32.031-.963zm-2.121.115l.802-.279.296 1.054-1.069.146-.029-.921z"/><path d="M129.461 129.538c.265.122.551.216.785.4.266.281.039.69.034 1.023l-.83.047-.281 1.101-1.174-.045c-.044-.403-.252-.968.281-1.137.594-.273.909-.833 1.185-1.389z"/><path d="M126.837 129.772l.935-.052.338.666-.643.703c-.437-.323-.637-.784-.63-1.317zm-3.224 1.592l.721-.429.214.744-.628.195-.307-.51zm16.178-.185c.339.175.333.349-.013.521-.338-.18-.333-.354.013-.521zm-13.042.942l.801-.416c.373.331.583.768.674 1.257l-.856.411c-.398-.317-.64-.736-.619-1.252z"/><path d="M125.622 133.17a4.31 4.31 0 0 1 1.486-.055c.086.648-.393 1.596-1.14 1.086-.166-.326-.249-.685-.346-1.031zm-4.049.057l.567.112.141.596-.71-.031.002-.677zm2.017-.078l1.046.008c-.115.422.044 1.083-.528 1.195-.674.007-.406-.776-.518-1.203z"/><path d="M122.416 134.326h1.057l.028.895-1.087-.034.002-.861zm2.191-.17c.393.026.862-.091 1.158.25.162.325.06.705.089 1.057l-1.338-.107.091-1.2zm-3.299 1.476l.687-.372.476.575-.461.726-.713-.31.011-.619zm2.053-.094l.736-.385.622.414.047.858-.905.123c-.409-.175-.388-.656-.5-1.01z"/><path d="M122.45 136.55c.273-.177.565-.317.872-.421.364.512.362 1.093.143 1.663l-1.041-.078c-.005-.388-.12-.794.026-1.164zm-4.182.299c.362-.124.49-.002.378.37-.365.12-.49-.003-.378-.37z"/><path d="M121.068 138.755l.375-1.429a10.41 10.41 0 0 1 1.317.713l-.432.799-1.26-.083z"/><path d="M119.9 138.976l.874-.515c.232.296.646.523.653.947-.143.343-.486.551-.733.819-.3-.398-.565-.814-.794-1.251z"/><path d="M118.646 140.511l.942-.944.663.426.096.882c-.645.36-1.246.196-1.701-.364z"/><path d="M116.876 143.311c-.265-1.139 1.064-1.548 1.369-2.519.427.133.791.388 1.108.706-.601.445-1.163.942-1.623 1.537-.188.289-.568.209-.854.276zm-.96-2.001c.273-.432.851.107.57.466-.273.411-.869-.112-.57-.466z"/><path d="M116.056 143.137l.833.192.026.906c-.484.068-.968.036-1.376-.255l.517-.843zm4.07 4.827c.37-.031.838-.294 1.098.115-.031.314-.223.811-.624.609l-.474-.724zm-82.36 8.637c-.851-2.426 1.832-4.588 4.078-4.369 1.192.018 2.025 1.616 1.361 2.594-.377.388-.934.5-1.426.674l-4.013 1.101zm-5.202-.156c.708-.932 1.915-1.372 3.047-1.455.986.13 1.28 1.111 1.512 1.928l-4.723 1.395c-.029-.617-.255-1.332.164-1.868zm162.473 28.338c-.183-.643-.039-1.288.343-1.825.148.628.461 1.499-.343 1.825zM73.708 204.294c.429-.182.882.005 1.309.109 1.049.31 2.095.646 3.094 1.098-1.53.466-3.141.5-4.726.43.075-.549.052-1.137.323-1.637zm85.715 9.568c-.068-1.077-.019-2.185.434-3.18.325.833.364 1.726.367 2.611l-.801.569zm-44.389 2.98c1.166-.534 2.415-.981 3.713-.69.133 1.9-.057 3.82-.752 5.603-1.442-.026-2.842.377-4.278.432a17.21 17.21 0 0 1 1.005-2.792c.705.762 1.301 1.681 2.282 2.123.249-1.478-.971-2.581-2.207-3.107l.237-1.569zm.406.029c.593.783 1.35 1.42 2.186 1.938l.205-.981c-.676-.575-1.452-1.15-2.391-.957zm52.268-.526c.305.864.195 1.78.031 2.662l-1.715-.174 1.684-2.488zm-8.881 4.463c.655 1.533.965 3.19 1.163 4.84-.614-.216-1.413-.393-1.58-1.132-.252-1.252-.005-2.524.417-3.708z"/></g><path d="M144.835 76.143c5.605-3.047 11.673-5.397 18.025-6.24 1.564-.091 3.136-.109 4.702-.018 2.03.302 4.088.89 5.756 2.126 1.299.939 2.478 2.069 3.357 3.417 1.429 2.069 2.033 4.567 2.436 7.01.091 2.605.195 5.249-.382 7.812-.872 5.186-2.829 10.099-4.874 14.918-2.683 5.512-5.507 10.974-8.866 16.108-.575.913-1.109 1.871-1.897 2.623.752-2.28 2.048-4.327 2.93-6.555 3.203-6.558 5.524-13.581 6.578-20.807.086-1.832.458-3.666.13-5.496-.161-2.675-.869-5.571-2.966-7.403-2.49-2.233-5.977-2.941-9.235-2.878-4.466.138-8.83 1.364-12.944 3.05-4.117 1.574-7.958 3.758-11.749 5.983-4.333 2.701-8.595 5.535-12.54 8.785-2.295 2.053-4.892 3.75-7.031 5.977-4.598 3.974-8.845 8.33-12.978 12.782-1.569 1.897-3.414 3.547-4.863 5.546-2.813 3.239-5.462 6.612-8.017 10.057-.635-.721-1.265-1.444-1.848-2.204 1.311-1.358 2.157-3.065 3.248-4.593 1.78-2.464 3.471-4.999 5.376-7.369 1.39-1.658 2.584-3.467 4.023-5.083 1.72-1.923 3.263-4.007 5.069-5.857 2.422-2.686 4.874-5.358 7.51-7.841 2.324-2.451 4.84-4.707 7.377-6.932 1.462-1.228 2.8-2.597 4.335-3.737 6.051-4.931 12.436-9.506 19.338-13.18zm-60.138 61.316l1.522 1.406c-2.022 3.258-4.057 6.508-5.92 9.86a5.5 5.5 0 0 1-1.353 1.639c.005-.37-.031-.747.078-1.106 1.582-4.073 3.685-7.916 5.673-11.799z" fill="#fdcb06"/><path d="M82.725 101.671c7.359-.909 14.77.471 21.89 2.29-1.749-.016-3.482-.344-5.233-.261-4.445.029-9.142.557-12.951 3.04a9.91 9.91 0 0 0-4.169 5.444c-.937 3.115-.305 6.458.877 9.415 1.291 3.32 3.287 6.305 5.421 9.136.583.76 1.213 1.483 1.847 2.204 1.205 1.4 2.485 2.732 3.771 4.059.695.713 1.447 1.369 2.194 2.03 7.57 6.909 16.285 12.491 25.476 16.99 4.91 2.418 10.016 4.434 15.241 6.063 5.155 1.572 10.461 2.759 15.848 3.131 3.174.302 6.383.122 9.519-.445.957-.195 1.897-.479 2.87-.596-2.805 2.095-6.334 2.839-9.746 3.214-9.053.694-18.077-1.34-26.633-4.153-12.663-4.245-24.589-10.592-35.38-18.437l-2.98-2.311c-1.507-1.142-2.935-2.386-4.367-3.62l-1.522-1.405c-3.615-3.341-6.961-6.997-9.782-11.036-2.488-3.742-4.775-7.898-5.067-12.47-.25-2.907.653-5.959 2.748-8.036 2.678-2.656 6.474-3.781 10.128-4.246z" fill="#ee1c24"/></svg>
