<svg clip-rule="evenodd" fill-rule="evenodd" stroke-linejoin="round" stroke-miterlimit="2" viewBox="0 0 260 147" xmlns="http://www.w3.org/2000/svg"><g fill="#fff"><path d="m160.856 55.438c-.231.227-.543.354-.867.354-.342 0-.669-.142-.903-.392-5.671-6.095-8.826-14.12-8.826-22.445 0-18.079 14.877-32.955 32.955-32.955 8.326 0 16.35 3.155 22.446 8.826.238.233.372.552.372.885s-.134.652-.372.885c-.471.452-1.225.452-1.695 0-5.632-5.183-13.012-8.062-20.665-8.062-16.742 0-30.518 13.776-30.518 30.518 0 7.655 2.881 15.036 8.066 20.668.451.468.451 1.22 0 1.688z" fill-rule="nonzero"/><path d="m165.558 50.683c-.306.304-.72.475-1.152.475-.461 0-.9-.194-1.21-.535-4.28-4.877-6.642-11.148-6.642-17.637 0-14.667 12.07-26.737 26.738-26.737 6.488 0 12.76 2.362 17.636 6.642.341.309.536.749.536 1.21 0 .431-.171.846-.476 1.152-.615.606-1.607.629-2.25.053-4.28-3.754-9.784-5.825-15.477-5.825-12.878 0-23.475 10.597-23.475 23.475 0 5.693 2.071 11.196 5.825 15.477.577.642.553 1.635-.053 2.25z" fill-rule="nonzero"/><path d="m170.276 45.898c-.383.38-.902.594-1.442.594-.624 0-1.215-.285-1.603-.774-2.912-3.636-4.499-8.158-4.499-12.816 0-11.249 9.256-20.505 20.505-20.505 4.658 0 9.18 1.587 12.816 4.499.489.388.774.979.774 1.603 0 .54-.214 1.058-.594 1.442-.736.73-1.917.788-2.722.135-8.01-6.405-20.685-4.223-25.5 6.57 0 .06-.053.12-.075.187-2.11 5.5-1.159 11.724 2.497 16.343.654.804.595 1.986-.135 2.722z" fill-rule="nonzero"/><path d="m175.046 41.061c-.457.451-1.075.704-1.717.704-.816 0-1.58-.409-2.033-1.087-1.572-2.346-2.411-5.107-2.411-7.931 0-7.817 6.433-14.25 14.25-14.25 2.824 0 5.585.84 7.931 2.411.678.453 1.087 1.217 1.087 2.033 0 .643-.254 1.26-.705 1.717-.794.798-2.045.942-3 .345-1.536-1.017-3.339-1.559-5.181-1.559-5.151 0-9.39 4.239-9.39 9.39 0 1.843.542 3.645 1.559 5.182.599.954.455 2.206-.345 3z" fill-rule="nonzero"/><path d="m179.193 36.988c-.314.317-.742.496-1.188.496-.599 0-1.154-.321-1.452-.841-.659-1.17-1.005-2.49-1.005-3.833 0-4.283 3.524-7.808 7.807-7.808 1.343 0 2.663.347 3.833 1.006.52.298.841.853.841 1.451 0 .447-.178.875-.496 1.189l-1.635 1.635c-.453.458-1.133.613-1.74.398-.269-.11-.557-.167-.848-.167-1.235 0-2.25 1.016-2.25 2.25 0 .291.056.58.166.849.217.607.062 1.288-.398 1.74z" fill-rule="nonzero"/><path d="m176.538 74.015c-8.302.025-16.309-3.111-22.387-8.767-.25-.234-.392-.561-.392-.903 0-.324.128-.636.355-.867.472-.449 1.223-.449 1.695 0 5.64 5.234 13.057 8.145 20.752 8.145 16.737 0 30.509-13.773 30.509-30.51 0-7.695-2.91-15.112-8.144-20.752-.453-.471-.453-1.225 0-1.695.231-.227.542-.354.866-.354.343 0 .67.141.904.391 5.637 6.09 8.771 14.089 8.771 22.388 0 18.078-14.876 32.954-32.954 32.954-.002 0-.003 0-.005 0z" fill-rule="nonzero"/><path d="m176.553 67.843c-6.5.018-12.786-2.353-17.654-6.66-.341-.31-.536-.75-.536-1.21 0-.432.171-.846.476-1.153.614-.605 1.607-.629 2.25-.052 4.276 3.736 9.766 5.797 15.445 5.797 12.878 0 23.475-10.597 23.475-23.475 0-5.681-2.062-11.172-5.801-15.449-.578-.643-.551-1.639.06-2.25.305-.309.72-.482 1.153-.482.462 0 .903.197 1.21.542 4.286 4.878 6.651 11.154 6.651 17.647 0 14.664-12.064 26.733-26.729 26.737z" fill-rule="nonzero"/><path d="m176.606 61.655c-4.654.001-9.172-1.587-12.803-4.5-.488-.388-.773-.979-.773-1.603 0-.54.213-1.058.593-1.442.737-.73 1.918-.788 2.723-.135 2.913 2.33 6.534 3.6 10.264 3.6 9.014 0 16.432-7.418 16.432-16.432 0-3.728-1.268-7.348-3.596-10.26-.651-.808-.593-1.99.135-2.73.383-.38.902-.594 1.442-.594.624 0 1.215.286 1.603.774 2.917 3.637 4.508 8.163 4.508 12.825 0 11.245-9.253 20.497-20.498 20.497-.01 0-.02 0-.03 0z" fill-rule="nonzero"/><path d="m176.606 55.483c-2.83.002-5.597-.836-7.95-2.408-.645-.429-1.033-1.154-1.033-1.929 0-.611.242-1.199.673-1.633l.202-.203c.789-.775 2.027-.885 2.94-.262 1.537 1.017 3.339 1.559 5.182 1.559 5.151 0 9.39-4.239 9.39-9.39 0-1.842-.542-3.645-1.559-5.181-.623-.914-.513-2.152.262-2.94l.195-.195c.436-.432 1.024-.674 1.637-.674.776 0 1.502.388 1.933 1.034 1.59 2.354 2.439 5.131 2.439 7.972 0 7.817-6.432 14.25-14.25 14.25-.02 0-.041 0-.061 0z" fill-rule="nonzero"/><path d="m176.523 48.913c-1.339-.002-2.655-.345-3.825-.997-.519-.298-.841-.853-.841-1.452 0-.446.179-.874.496-1.188l1.635-1.635c.453-.46 1.134-.615 1.74-.398.27.11.558.166.849.166 1.234 0 2.25-1.015 2.25-2.25 0-.291-.056-.579-.166-.848-.216-.607-.06-1.287.397-1.74l1.635-1.635c.315-.319.744-.499 1.192-.499.597 0 1.15.319 1.448.836.659 1.17 1.006 2.49 1.006 3.833 0 4.283-3.525 7.807-7.808 7.807-.002 0-.005 0-.008 0z" fill-rule="nonzero"/><path d="m137.044 5.113c0-1.593-1.294-2.887-2.888-2.887h-28.44c-1.593 0-2.887 1.294-2.887 2.887v64.852c0 1.594 1.294 2.888 2.887 2.888h28.44c1.594 0 2.888-1.294 2.888-2.888z"/><path d="m258.505 5.113c0-1.593-1.294-2.887-2.887-2.887h-28.44c-1.594 0-2.887 1.294-2.887 2.887v64.852c0 1.594 1.293 2.888 2.887 2.888h28.44c1.593 0 2.887-1.294 2.887-2.888z"/><g fill-rule="nonzero"><path d="m46.804 57.988 8.955 13.5c.536.804 1.441 1.289 2.408 1.29h27.577.012c1.584 0 2.888-1.304 2.888-2.888 0-.574-.172-1.136-.492-1.612l-41.348-62.512c-.534-.807-1.439-1.293-2.407-1.293s-1.873.486-2.408 1.293l-41.497 62.504c-.321.477-.492 1.038-.492 1.613 0 1.584 1.303 2.887 2.887 2.887h.013 27.697c.965.003 1.869-.483 2.4-1.29l9-13.545c.537-.788 1.432-1.261 2.386-1.261.977 0 1.889.495 2.421 1.314z"/><path d="m8.21 108.05v-5.025c0-.239.196-.435.435-.435h2.79.007c.239 0 .435.196.435.435v19.71c.009.084.013.168.013.253 0 1.39-1.145 2.535-2.535 2.535-.085 0-.169-.005-.253-.013h-7.102c-.239 0-.435-.196-.435-.435v-2.003c0-.238.196-.435.435-.435h5.55c.36-.004.656-.299.66-.66v-10.552h-6.21c-.239 0-.435-.196-.435-.435 0-.002 0-.005 0-.007v-2.49c0-.003 0-.005 0-.008 0-.239.196-.435.435-.435zm5.355 14.782v-19.807c0-.239.196-.435.435-.435h2.79.007c.239 0 .435.196.435.435v5.123h6.3c.243 0 .443.199.443.442v2.498c0 .238-.197.435-.435.435-.003 0-.005 0-.008 0h-6.3v10.319c0 .473 0 .795.593.795h3.18c.36-.004.656-.299.66-.66v-.24c0-.238.196-.435.435-.435h1.957c.239 0 .435.197.435.435v1.583c0 1.201-.989 2.19-2.19 2.19h-6.195c-1.695-.065-2.542-.958-2.542-2.678z"/><path d="m38.959 103.97v-.945c0-.239.197-.435.435-.435h3.09c.24 0 .439.195.443.435v.945h9.18c.243 0 .442.2.442.443v1.8c-.004.239-.202.435-.442.435h-21.923c-.238 0-.435-.197-.435-.435v-1.8c0-.003 0-.005 0-.008 0-.239.197-.435.435-.435zm-7.425 13.41v-8.805c0-.243.2-.442.443-.442h18.457c.243 0 .443.199.443.442v6.27c0 2.002-.75 3-2.873 3h-5.092v5.19c.065 1.72-.76 2.545-2.475 2.475h-2.835c-.003 0-.005 0-.008 0-.238 0-.435-.196-.435-.435v-1.935c0-.239.197-.435.435-.435h.008.847c.593 0 .698-.165.698-.893v-3.967h-7.17s0 0-.001 0c-.242 0-.442-.2-.442-.443 0-.007 0-.015 0-.022zm3.57-2.415h11.408c.892 0 .9-.42.892-.99v-2.865h-12.3z"/><path d="m70.602 110.57v-1.995c0-.24-.195-.438-.435-.442h-3.428v-1.5h.9c1.572 0 2.865-1.294 2.865-2.865v-.75c0-.239-.196-.435-.435-.435h-2.595c-.002 0-.005 0-.007 0-.239 0-.435.196-.435.435v.007c0 .514-.423.938-.938.938-.002 0-.005 0-.007 0h-6.248c-.002 0-.005 0-.007 0-.239 0-.435.196-.435.435v.007 1.8c0 .239.196.435.435.435h.007 3.75v1.5h-3.832c-.24.004-.435.203-.435.443v1.995.007c0 .239.196.435.435.435h3.832v14.04c0 .239.197.435.435.435h2.295c.24 0 .439-.195.443-.435v-14.047h3.427c.233-.012.417-.21.413-.443z"/><path d="m80.127 119.487v-16.424c-.004-.24-.203-.435-.443-.435h-2.295c-.24 0-.438.195-.442.435v16.424h-6c-.003 0-.005 0-.008 0-.238 0-.435.197-.435.435v2.13h-.052c-.355-.027-.631-.327-.63-.682v-8.94s0 0 0-.001c0-.242-.2-.442-.443-.442-.007 0-.015 0-.022.001h-1.8c-.243 0-.443.199-.443.442l.075 10.05c.012 1.436 1.197 2.61 2.633 2.61h.225c.238 0 .435-.196.435-.435v-1.8h6.375v2.25c0 .239.196.435.435.435h.007 2.393c.24 0 .438-.195.442-.435v-2.25h.945c.243 0 .443-.2.443-.443v-2.542c0-.239-.197-.435-.435-.435-.003 0-.005 0-.008 0z"/><path d="m86.929 108.59v-4.177c0-.003 0-.005 0-.008 0-.239.196-.435.435-.435h.008 1.575l-.218-.832c-.01-.037-.015-.075-.015-.113 0-.238.196-.435.435-.435h3.458c.19-.003.361.119.42.3l.36 1.08h2.579l-.239-.825c-.012-.039-.017-.079-.017-.12 0-.239.196-.435.435-.435h.001 3.75c.185-.004.352.111.413.285l.397 1.095h2.213l.525-1.132c.074-.152.229-.248.397-.248h3.6c.241.004.436.202.436.443 0 .062-.013.123-.038.18l-.353.75h1.5.005c.238 0 .435.196.435.435 0 .02-.002.04-.005.06v4.185c-.03.215-.217.377-.435.375h-3c-.001 0-.002 0-.003 0-.238 0-.435-.197-.435-.435 0-.018.001-.036.003-.053v-1.5h-14.684v1.545c0 .239-.197.435-.435.435-.003 0-.005 0-.008 0h-3.067c-.231-.004-.42-.19-.428-.42zm2.505 1.133h17.422c.239 0 .435.196.435.435v2.377c0 .104-.037.205-.105.285l-2.25 2.558h4.448c.239 0 .435.196.435.435v2.099c0 .239-.196.435-.435.435h-4.448v5.25c.001.021.001.041.001.061 0 .986-.8 1.802-1.786 1.822h-13.702c-.239 0-.435-.196-.435-.435v-1.958c0-.238.196-.435.435-.435h11.04c.48 0 .592-.165.592-.697v-3.615h-13.499c-.239 0-.435-.196-.435-.435v-2.1c0-.239.196-.435.435-.435h13.499v-.682c0-.26.09-.512.255-.713l1.095-1.237h-12.997c-.241-.004-.438-.202-.442-.443v-2.1c-.001-.005-.001-.01-.001-.015 0-.243.2-.442.443-.442z"/><path d="m116.306 106.31v-1.897c0-.003 0-.005 0-.008 0-.239.197-.435.435-.435h.75c.201-.002.375-.142.42-.337l.165-.705c.046-.199.225-.34.428-.338h2.25c.242.001.441.2.441.443 0 .025-.002.05-.006.075l-.165.862h6.352c.243 0 .443.2.443.443v1.897c-.004.24-.203.435-.443.435h-3v.998h3c.24 0 .439.195.443.435v1.8c-.004.239-.203.435-.443.435h-2.932l.892.795c.223.187.504.293.795.3h1.245c.24 0 .439.195.443.435v1.905c-.004.239-.203.435-.443.435h-2.64c-.331-.001-.65-.127-.892-.353l-1.343-1.192-1.26 1.215c-.245.236-.574.368-.915.367h-3.585c-.238 0-.435-.196-.435-.435v-1.8c0-.002 0-.005 0-.007 0-.239.197-.435.435-.435h2.04c.233-.015.45-.123.6-.3l.893-.893h-3.533c-.238 0-.435-.196-.435-.435v-1.8c0-.239.197-.435.435-.435h3.75v-1.042h-3.75c-.235 0-.431-.192-.435-.428zm.435 8.55h21.503.007c.239 0 .435.196.435.435v7.56c0 1.444-1.188 2.632-2.632 2.632h-19.313c-.238 0-.435-.196-.435-.435v-9.749c0-.003 0-.005 0-.008 0-.239.197-.435.435-.435zm18.173 4.087v-1.215h-14.558v1.215zm-14.558 2.678v1.23h13.808c.349 0 .637-.288.637-.638v-.592zm8.573-18.345h9.33.007c.239 0 .435.196.435.435v7.935c0 1.444-1.188 2.633-2.632 2.633h-7.14c-.003 0-.005 0-.008 0-.238 0-.435-.197-.435-.435v-10.11c0-.008 0-.016 0-.024 0-.238.196-.435.435-.435.007 0 .015.001.023.001zm6.3 3h-3.173v5.25h2.88c.195 0 .293-.165.293-.495z"/><path d="m180.086 106.348h4.29.007c.239 0 .435-.197.435-.435v-2.1c0-.239-.196-.435-.435-.435-.002 0-.005 0-.007 0h-9.045c-.003 0-.005 0-.008 0-.238 0-.435.196-.435.435v2.1c0 .238.197.435.435.435h.008 1.147v2.25c0 .683-.562 1.245-1.245 1.245-.002 0-.005-.001-.007-.001-.239 0-.435.197-.435.435v.008 1.988.007c0 .239.196.435.435.435h.007.45v11.85c0 .239.197.435.435.435h.008 5.91.007c1.438 0 2.621-1.18 2.625-2.618l.045-11.249c0-.239-.196-.435-.435-.435h-4.672c.331-.586.504-1.248.502-1.92zm1.162 7.207v7.793c0 .357-.294.652-.652.652-.003 0-.005 0-.008 0h-1.432v-8.445z"/><path d="m204.356 108.538v-4.23c.004-.24.202-.435.442-.435h8.558v-.885c0-.243.199-.443.442-.443h2.888c.241.004.438.201.442.443v.885h9.053.001c.242 0 .442.199.442.442 0 .01 0 .02-.001.03v4.208c-.029.232-.224.41-.457.42h-2.634c-.242 0-.442-.2-.442-.443 0-.007 0-.015.001-.022v-2.055h-15.165v2.085c0 .238-.197.435-.435.435h-2.693c-.24 0-.438-.196-.442-.435z"/><path d="m234.61 125.487c-.238 0-.435-.196-.435-.435v-22.019c0-.003 0-.005 0-.008 0-.239.197-.435.435-.435h.008 7.65c.239 0 .435.196.435.435v.008 6.705c-.027.959-.666 1.8-1.583 2.085.877.414 1.455 1.281 1.5 2.25v4.664c0 1.803-1.482 3.285-3.285 3.285h-1.672v3.083c0 .239-.196.435-.435.435-.003 0-.005 0-.008 0zm4.028-14.864c.532.067.795-.263.795-.99v-4.275h-1.785v5.25zm-.99 8.804h.892c.525.068.795-.232.795-.892v-5.25h-1.687zm5.655-11.744v-3.683c0-.239.196-.435.435-.435h4.417v-.577c.004-.24.203-.435.443-.435h2.692c.239 0 .435.196.435.435v.555h4.62.008c.238 0 .435.196.435.435v3.697.008c0 .238-.196.435-.435.435-.003 0-.005 0-.008 0h-2.49c-.002 0-.005 0-.007 0-.239 0-.435-.197-.435-.435 0-.003 0-.005 0-.008v-1.26h-6.938v1.238c0 .242-.199.442-.442.442h-2.295c-.23 0-.423-.182-.435-.412zm13.042 4.05h-12.607c-.24-.005-.435-.203-.435-.443v-1.897c0-.24.195-.439.435-.443h12.607c.243 0 .443.2.443.443v1.897.008c0 .242-.2.442-.443.442zm-13.042 3.48v-2.198c0-.239.196-.435.435-.435h12.607.008c.238 0 .435.196.435.435v2.198c0 .238-.197.435-.435.435-.003 0-.005 0-.008 0h-1.83v5.249.008c0 .959.789 1.747 1.748 1.747h1.17c.238 0 .435.197.435.435v1.98c0 .24-.195.439-.435.443h-2.438c-2.168 0-3.952-1.784-3.952-3.953v-5.894h-7.305c-.239 0-.435-.197-.435-.435z"/><path d="m32.449 119.487v1.41c0 .963-.792 1.755-1.755 1.755h-.51c-.238 0-.435.197-.435.435v.008 1.965c0 .239.197.435.435.435h1.89.008c2.16 0 3.937-1.777 3.937-3.938 0-.002 0-.005 0-.007v-2.063c0-.238-.196-.435-.435-.435h-2.692c-.003 0-.005 0-.008 0-.238 0-.435.197-.435.435z"/><path d="m49.534 119.487v1.41c0 .963.793 1.755 1.755 1.755h.818c.243 0 .442.2.442.443v1.965c-.004.24-.202.435-.442.435h-2.85c-.003 0-.005 0-.008 0-1.802 0-3.285-1.483-3.285-3.285v-2.723c0-.238.197-.435.435-.435h.008 2.7c.236.005.427.2.427.435z"/><path d="m60.402 112.438v9.089c0 .486-.4.885-.885.885-.003 0-.005 0-.008 0-.241.004-.438.202-.442.443v1.815c.004.24.202.435.442.435h.96.008c1.473 0 2.685-1.212 2.685-2.685 0-.003 0-.005 0-.008v-9.974c0-.239-.197-.435-.435-.435h-1.89c-.239 0-.435.196-.435.435z"/><path d="m74.374 104.413v2.385c0 .555.457 1.012 1.013 1.012h.562c.239 0 .435.196.435.435v1.973c0 .238-.196.435-.435.435h-1.605c-1.56-.005-2.842-1.29-2.842-2.85v-3.39c0-.239.196-.435.435-.435h1.995.007c.239 0 .435.196.435.435z"/><path d="m74.374 112.092v2.386c0 .555.457 1.012 1.013 1.012h.562c.239 0 .435.196.435.435v1.972c0 .239-.196.435-.435.435h-1.605c-1.56-.004-2.842-1.289-2.842-2.849v-3.39c0-.239.196-.435.435-.435h1.995c.002-.001.005-.001.007-.001.239 0 .435.197.435.435z"/><path d="m146.201 109.423h10.388c.238 0 .435-.197.435-.435v-3.983c0-.24-.196-.438-.435-.442h-2.775c-.24.004-.435.202-.435.442v1.545h-3.915l1.08-3.397c.014-.044.021-.09.021-.135 0-.239-.196-.435-.435-.435-.002 0-.004 0-.006 0h-2.768c-.187 0-.354.121-.412.3l-1.088 3.142c-.072.215-.107.441-.105.668v2.295c0 .238.196.435.435.435z"/><path d="m156.626 110.413h-10.38c-.243 0-.442.199-.442.442v14.295c0 .239.196.435.435.435h.007 2.693c.238 0 .435-.196.435-.435v-3.465h4.027v.803c0 .238-.196.435-.435.435-.002 0-.005-.001-.007-.001h-1.005c-.242.004-.439.202-.443.443v1.8c.004.24.203.435.443.435h3.36c.015 0 .03.001.045.001.958 0 1.747-.789 1.747-1.748 0-.005 0-.01 0-.016v-12.982s0-.001 0-.002c0-.242-.2-.442-.442-.442-.013 0-.025 0-.038.002zm-3.225 8.497h-4.027v-1.358h4.027zm0-4.132h-4.027v-1.5h4.027z"/><path d="m165.738 113.555c1.445 0 2.633-1.188 2.633-2.632v-2.685c0-.239-.196-.435-.435-.435h-2.498c-.238 0-.435.196-.435.435v1.815c-.004.36-.299.656-.66.66h-2.474c-.24-.005-.436-.203-.435-.443v-3.187h2.819c2.206 0 4.02-1.815 4.02-4.02 0-.239-.196-.435-.435-.435h-2.482c-.24 0-.438.195-.443.435.001.002.001.005.001.007 0 .634-.522 1.155-1.155 1.155h-2.31v-1.155c0-.239-.197-.435-.435-.435-.003 0-.005 0-.008 0h-2.692c-.239 0-.435.196-.435.435v8.775c0 .963.792 1.755 1.755 1.755h6.119z"/><path d="m165.738 125.585c1.442 0 2.629-1.184 2.633-2.625v-2.723c0-.238-.196-.435-.435-.435h-2.498c-.238 0-.435.197-.435.435v1.815c0 .363-.297.66-.66.66h-2.474c-.239 0-.435-.196-.435-.435v-3.42h2.819c2.206 0 4.02-1.814 4.02-4.019 0-.24-.195-.439-.435-.443h-2.482c-.241.004-.439.201-.443.443 0 .633-.521 1.155-1.155 1.155h-2.309v-1.156c0-.238-.197-.435-.435-.435-.003 0-.005 0-.008.001h-2.692c-.239 0-.435.196-.435.435v8.999c0 .959.788 1.748 1.747 1.748h.008 6.119z"/><path d="m197.531 105.125v-2.1c0-.239-.197-.435-.435-.435h-11.31c-.24 0-.439.195-.443.435v2.1c.004.24.203.435.443.435h1.05v6.428h-1.148c-.002-.001-.005-.001-.007-.001-.239 0-.435.197-.435.435v.008 2.468.007c0 .239.196.435.435.435h.007 1.148v6.337c0 .363-.298.66-.66.66h-.75c-.003 0-.005 0-.008 0-.238 0-.435.197-.435.435v2.288c0 .243.2.442.443.442h2.325c1.444 0 2.632-1.188 2.632-2.632v-7.5h2.25v9.75c0 .24.195.438.435.442h2.798c.24-.004.435-.202.435-.442v-9.75h1.2c.238 0 .435-.196.435-.435 0-.002 0-.005 0-.007v-2.468c0-.002 0-.005 0-.007 0-.239-.197-.435-.435-.435h-1.2v-6.428h.75c.015.002.031.003.046.003.239 0 .435-.197.435-.435 0-.011 0-.022-.001-.033zm-4.845 6.863h-2.25v-6.428h2.25z"/><path d="m210.356 107.75v1.185c0 .601-.495 1.095-1.095 1.095h-4.328c-.238 0-.435.196-.435.435v1.808c0 .239.195.438.435.442h6.465c1.441-.004 2.625-1.191 2.625-2.632v-2.333c0-.002 0-.005 0-.007 0-.239-.196-.435-.435-.435h-2.79c-.002 0-.005 0-.007 0-.239 0-.435.196-.435.434z"/><path d="m220.346 107.75v1.185c0 .601.494 1.095 1.095 1.095h4.327c.239 0 .435.196.435.435v1.808c0 .239-.195.438-.435.442h-6.465c-1.444 0-2.632-1.188-2.632-2.632v-2.333c0-.243.199-.442.442-.442h2.79c.243 0 .443.199.443.442z"/><path d="m224.373 120.987v-6.239c0-.003 0-.006 0-.008 0-.239-.196-.435-.435-.435-.002 0-.005 0-.007 0h-11.43v-.495c0-.003 0-.005 0-.008 0-.238-.197-.435-.435-.435-.003 0-.005 0-.008.001h-3c-.239 0-.435.196-.435.435v.007.495h-3.75c-.239 0-.435.196-.435.435v.008 1.739.008c0 .239.196.435.435.435h3.75v1.717c0 2.058-1.693 3.75-3.75 3.75-.238 0-.435.197-.435.435v2.25c0 .239.197.435.435.435h.84c3.703 0 6.75-3.047 6.75-6.75v-1.815h7.695v5.055c.004 1.929 1.589 3.514 3.518 3.518h3.24c.238 0 .435-.196.435-.435v-2.333c0-.238-.197-.435-.435-.435h-1.268c-.714-.02-1.287-.62-1.275-1.335z"/><path d="m244.915 116.922v3.96c0 .963-.792 1.755-1.755 1.755h-.36c-.238 0-.435.197-.435.435v.008 1.965c0 .239.197.435.435.435h1.733.007c2.165 0 3.945-1.781 3.945-3.945v-4.613c-.004-.241-.201-.438-.442-.442h-2.693c-.24.004-.435.203-.435.442z"/><path d="m85.317 137.81h-.105c-.797.024-1.56.33-2.153.862v-.495c0-.094-.078-.172-.172-.172h-1.613c-.091 0-.165.074-.165.165v.007 7.643.007c0 .091.074.165.165.165h1.583c.094 0 .172-.078.172-.172v-4.05c-.004-.254.031-.507.105-.75.206-.797.956-1.341 1.778-1.29h.067c.357-.033.709.097.96.352.291.392.42.881.36 1.365v4.38.008c0 .09.074.165.165.165h1.643c.094 0 .172-.078.172-.173v-4.755c.079-.881-.191-1.759-.75-2.445-.587-.575-1.392-.873-2.212-.817z"/><path d="m199.901 140.487c.226-.123.431-.283.607-.472.437-.516.662-1.178.63-1.853v-.045c-.195-1.74-1.43-2.667-3.705-2.782h-4.402c-.091 0-.165.074-.165.165v10.5c0 .09.074.165.165.165h4.702c.994.064 1.983-.199 2.813-.75.698-.578 1.087-1.45 1.05-2.355.023-1.124-.654-2.151-1.695-2.573zm-2.723-.75h-2.377v-2.67h2.37c1.71.038 1.95.705 1.987 1.185.038.48-.052 1.44-1.98 1.485zm2.43 3.15c.038.451-.141.894-.48 1.193-.488.318-1.069.466-1.65.42h-2.677v-3.068h2.527c1.47.023 2.198.488 2.28 1.448z"/><path d="m7.527 135.357c-.027-.063-.089-.104-.157-.105h-1.875c-.067 0-.129.038-.158.098l-4.425 10.552c-.026.049-.026.109 0 .158.032.047.086.075.143.075h1.807c.07.004.134-.039.158-.105l1.26-3.195h4.132l1.26 3.195c.027.063.089.104.158.105h1.86c.057.003.112-.026.142-.075.027-.049.027-.109 0-.158zm-2.55 5.753 1.41-3.413 1.365 3.413z"/></g><path d="m15.62 135.425c0-.095-.078-.173-.173-.173h-1.71c-.095 0-.172.078-.172.173v10.545c0 .095.077.172.172.172h1.71c.095 0 .173-.077.173-.172z"/><path d="m115.601 135.425c0-.095-.077-.173-.172-.173h-1.71c-.095 0-.173.078-.173.173v10.545c0 .095.078.172.173.172h1.71c.095 0 .172-.077.172-.172z"/><path d="m218.336 135.425c0-.095-.078-.173-.173-.173h-1.71c-.095 0-.172.078-.172.173v10.545c0 .095.077.172.172.172h1.71c.095 0 .173-.077.173-.172z"/><path d="m233.38 135.425c0-.095-.077-.173-.172-.173h-1.71c-.095 0-.173.078-.173.173v10.545c0 .095.078.172.173.172h1.71c.095 0 .172-.077.172-.172z"/><path d="m246.355 135.237h-1.717c-.091 0-.165.075-.165.165v8.31l-4.433-8.37c-.031-.053-.087-.088-.15-.09h-2.902c-.003 0-.005 0-.008 0-.09 0-.165.075-.165.165v10.553c0 .09.075.165.165.165h.008 1.71.007c.091 0 .165-.075.165-.165v-8.483l4.5 8.55c.026.055.082.09.143.09h2.842.008c.09 0 .165-.074.165-.165v-10.545c0-.005.001-.01.001-.015 0-.09-.075-.165-.165-.165-.003 0-.006 0-.009 0z" fill-rule="nonzero"/><path d="m69.679 135.372c0-.095-.077-.172-.172-.172h-1.658c-.095 0-.172.077-.172.172v1.733c0 .095.077.172.172.172h1.658c.095 0 .172-.077.172-.172z"/><path d="m69.679 138.267c0-.095-.077-.172-.172-.172h-1.658c-.095 0-.172.077-.172.172v7.688c0 .095.077.172.172.172h1.658c.095 0 .172-.077.172-.172z"/><path d="m145.474 138.252c0-.095-.078-.172-.173-.172h-1.657c-.096 0-.173.077-.173.172v7.71c0 .095.077.173.173.173h1.657c.095 0 .173-.078.173-.173z"/><path d="m145.474 135.372c0-.095-.078-.172-.173-.172h-1.657c-.096 0-.173.077-.173.172v1.733c0 .095.077.172.173.172h1.657c.095 0 .173-.077.173-.172z"/><path d="m162.356 138.08h-1.725c-.091 0-.165.074-.165.165v.007 4.245c.003.037.004.073.004.11 0 .88-.725 1.605-1.605 1.605-.881 0-1.605-.725-1.605-1.605 0-.037.001-.073.004-.11v-4.26c0-.002 0-.005 0-.007 0-.091-.075-.165-.165-.165h-1.613c-.095 0-.172.078-.172.172v4.793c-.001.03-.002.06-.002.09 0 1.629 1.327 2.976 2.957 3h.105c.765.014 1.51-.253 2.092-.75v.622c0 .091.075.165.165.165h1.725c.092 0 .169-.073.173-.165v-7.755c-.008-.089-.084-.157-.173-.157z" fill-rule="nonzero"/><path d="m122.254 137.817h-.105c-.771-.003-1.516.277-2.093.788v-.368c0-.094-.078-.172-.172-.172h-1.68c-.095 0-.173.078-.173.172v7.718c.004.092.081.165.173.165h1.68.007c.091 0 .165-.075.165-.165v-4.5c0-.877.721-1.598 1.598-1.598.876 0 1.597.721 1.597 1.598v4.5c.004.092.081.165.173.165h1.612c.091 0 .165-.075.165-.165v-5.055c.001-.028.001-.055.001-.083 0-1.626-1.322-2.972-2.948-3z" fill-rule="nonzero"/><path d="m227.951 135.237h-1.71c-.003 0-.005 0-.008 0-.09 0-.165.075-.165.165v7.628c.013.636-.496 1.172-1.132 1.192h-1.08c-.627-.016-1.133-.535-1.133-1.162 0-.01 0-.02 0-.03v-.383c0-.094-.078-.172-.172-.172h-1.696c-.09 0-.165.074-.165.165 0 .002 0 .005.001.007v.615c-.034 1.528 1.194 2.814 2.722 2.85h1.98c1.508-.032 2.731-1.281 2.731-2.789 0-.02-.001-.04-.001-.061v-7.837c.002-.046-.018-.09-.052-.12-.029-.038-.073-.063-.12-.068z" fill-rule="nonzero"/><path d="m212.906 144.395h-6.623v-2.918h5.573c.094 0 .172-.078.172-.172v-1.403c-.004-.091-.08-.165-.172-.165h-5.588v-2.67h6.195c.003 0 .005.001.008.001.09 0 .165-.075.165-.165v-1.411c0-.09-.075-.165-.165-.165-.003 0-.005 0-.008 0h-7.942c-.003 0-.005 0-.008 0-.09 0-.165.075-.165.165v10.5c0 .091.075.165.165.165h.008 8.385.007c.091 0 .165-.074.165-.165v-1.402c.001-.008.002-.015.002-.023 0-.094-.078-.172-.173-.172z" fill-rule="nonzero"/><path d="m169.916 144.402h-1.313c-.514-.012-.93-.438-.93-.952 0-.008 0-.015 0-.023v-3.615h1.628.007c.091 0 .165-.074.165-.165v-1.41c0-.094-.077-.172-.172-.172h-1.628v-2.663c0-.09-.074-.165-.165-.165h-1.717c-.092 0-.169.074-.173.165v2.663h-.967c-.095 0-.173.078-.173.172v1.395c0 .091.075.165.165.165h.008.967v4.02.053c0 1.22.993 2.23 2.213 2.25h2.085c.09 0 .165-.075.165-.165v-1.395c-.008-.086-.079-.154-.165-.158z" fill-rule="nonzero"/><path d="m153.304 144.402h-1.313c-.514-.012-.93-.438-.93-.952 0-.008 0-.015 0-.023v-3.615h1.628.007c.091 0 .165-.074.165-.165v-1.41c0-.094-.078-.172-.172-.172h-1.628v-2.663c0-.09-.074-.165-.165-.165h-1.717c-.092 0-.169.074-.173.165v2.663h-.967c-.095 0-.173.078-.173.172v1.395c0 .091.075.165.165.165h.008.967v4.02c0 .018-.001.035-.001.053 0 1.22.993 2.23 2.214 2.25h2.085c.09 0 .165-.075.165-.165v-1.395c-.008-.086-.079-.154-.165-.158z" fill-rule="nonzero"/><path d="m141.101 144.402h-1.305c-.514-.012-.93-.438-.93-.952 0-.008 0-.015 0-.023v-3.615h1.628c.09 0 .165-.074.165-.165v-1.41c0-.002 0-.005 0-.007 0-.091-.075-.165-.165-.165h-1.628v-2.663c0-.09-.074-.165-.165-.165-.002 0-.005 0-.007 0h-1.718c-.09 0-.165.075-.165.165v2.663h-.975c-.09 0-.165.074-.165.165v.007 1.395c0 .091.075.165.165.165h.975v4.02.053c0 1.218.988 2.226 2.205 2.25h2.085.008c.09 0 .165-.075.165-.165v-1.395c-.008-.089-.084-.158-.173-.158z" fill-rule="nonzero"/><path d="m259.225 139.737h-4.41c-.094 0-.172.078-.172.173v1.5c0 .09.074.165.165.165h.007 2.73v.21c.001.02.001.04.001.061 0 1.269-1.027 2.322-2.296 2.354h-1.267c-1.565-.041-2.82-1.36-2.783-2.925v-1.208c-.037-1.565 1.218-2.884 2.783-2.925h.75c.94.008 1.814.499 2.31 1.298.028.052.083.084.142.082h1.688c.057 0 .11-.028.142-.075.027-.049.027-.108 0-.157-.663-1.805-2.375-3.024-4.297-3.06h-.75c-2.595.061-4.682 2.242-4.628 4.837v1.208c-.054 2.595 2.033 4.776 4.628 4.837h1.245c2.334-.053 4.212-2.015 4.162-4.35v-1.882c-.012-.075-.074-.134-.15-.143z" fill-rule="nonzero"/><path d="m176.013 137.81h-.81c-2.024.069-3.636 1.785-3.577 3.81v.705c-.059 2.024 1.553 3.741 3.577 3.81h.81c1.555-.03 2.922-1.063 3.375-2.55.026-.047.026-.103 0-.15-.029-.046-.08-.074-.135-.075h-1.657c-.055.001-.105.029-.135.075-.31.487-.848.784-1.425.787h-.81c-.81-.022-1.509-.591-1.695-1.38h5.902c.09.001.165-.068.173-.157v-1.065c.058-2.03-1.563-3.749-3.593-3.81zm-2.505 3.3c.187-.789.885-1.358 1.695-1.38h.81c.812.017 1.514.588 1.695 1.38z" fill-rule="nonzero"/><path d="m103.166 137.81h-.81c-2.024.069-3.636 1.785-3.577 3.81v.705c-.059 2.024 1.553 3.741 3.577 3.81h.818c1.551-.033 2.915-1.066 3.367-2.55.031-.046.031-.105 0-.15-.029-.046-.08-.074-.135-.075h-1.657c-.055.001-.105.029-.135.075-.309.484-.843.781-1.418.787h-.84c-.809-.02-1.506-.591-1.687-1.38h5.895c.089.001.165-.068.172-.157v-1.065c.059-2.022-1.548-3.737-3.57-3.81zm-2.505 3.3c.185-.789.886-1.356 1.695-1.373h.818c.809.021 1.507.591 1.687 1.38z" fill-rule="nonzero"/><path d="m75.724 137.81h-.81c-2.017.088-3.619 1.791-3.585 3.81v.705c-.034 2.019 1.568 3.721 3.585 3.81h.81c1.554-.03 2.922-1.063 3.375-2.55.025-.047.025-.103 0-.15-.03-.046-.08-.074-.135-.075h-1.657c-.055.001-.106.029-.135.075-.311.487-.848.784-1.425.787h-.81c-.81-.022-1.509-.591-1.695-1.38h5.865c.089.001.164-.068.172-.157v-1.065c.059-2.017-1.539-3.729-3.555-3.81zm-2.505 3.3c.186-.789.885-1.358 1.695-1.38h.81c.811.02 1.511.59 1.695 1.38z" fill-rule="nonzero"/><path d="m131.651 141.395-.262-.045c-.6-.09-2.183-.315-2.25-1.08-.011-.17.052-.337.172-.458.313-.259.726-.366 1.125-.292.833.045 1.23.277 1.418.832.024.066.087.111.157.113h1.673c.053.002.104-.024.135-.068.022-.044.022-.097 0-.142l-.06-.233c-.39-1.5-1.545-2.212-3.458-2.212-.797-.015-1.581.209-2.25.645-.566.424-.9 1.092-.9 1.8-.082 1.26.938 2.13 2.88 2.46 1.943.33 1.868.81 1.875.997.008.169-.058.333-.18.45-.323.278-.746.411-1.17.368h-.112c-.96 0-1.5-.323-1.673-1.043-.02-.074-.088-.127-.165-.127h-1.575c-.05.002-.097.026-.127.067-.034.039-.048.092-.038.143l.038.142c.36 1.613 1.545 2.43 3.51 2.43h.247c.822.043 1.637-.169 2.333-.607.64-.396 1.034-1.093 1.042-1.845.038-1.193-.72-1.92-2.385-2.295z" fill-rule="nonzero"/><path d="m93.792 137.81h-.368c-2.072.069-3.723 1.827-3.66 3.9v.525c-.063 2.072 1.588 3.831 3.66 3.9h.368c1.564-.033 2.946-1.056 3.434-2.543.023-.05.023-.107 0-.157-.032-.045-.086-.071-.142-.068h-1.672c-.054-.002-.105.024-.135.068-.33.485-.877.779-1.463.787h-.367c-1.048-.044-1.876-.939-1.838-1.987v-.525c-.038-1.047.791-1.94 1.838-1.98h.367c.896.028 1.653.696 1.793 1.582.017.078.085.134.165.135h1.499c.047-.001.091-.023.12-.06.037-.031.054-.08.045-.127-.152-1.904-1.735-3.403-3.644-3.45z" fill-rule="nonzero"/><path d="m62.667 137.81h-.368c-2.072.069-3.722 1.827-3.66 3.9v.525c-.062 2.072 1.588 3.831 3.66 3.9h.368c1.564-.035 2.944-1.057 3.435-2.543.022-.05.022-.107 0-.157-.033-.046-.086-.074-.143-.075h-1.672c-.055.001-.105.029-.135.075-.332.483-.877.776-1.463.787h-.367c-1.049-.044-1.879-.938-1.845-1.987v-.525c-.034-1.048.797-1.94 1.845-1.98h.367c.899.024 1.661.688 1.808 1.575.011.082.082.143.165.142h1.5c.047-.001.091-.023.12-.06.036-.031.054-.08.045-.127-.153-1.909-1.745-3.41-3.66-3.45z" fill-rule="nonzero"/><path d="m32.404 137.81h-.427c-2.035.031-3.692 1.714-3.692 3.749 0 .038.001.076.002.113v.6c-.001.038-.002.076-.002.113 0 2.035 1.657 3.718 3.692 3.75h.427c2.038-.028 3.7-1.712 3.7-3.75 0-.037-.001-.075-.002-.113v-.6c.001-.037.002-.075.002-.113 0-2.038-1.662-3.722-3.7-3.749zm-2.25 3.862c-.025-1.038.807-1.914 1.845-1.942h.428c1.038.028 1.87.904 1.845 1.942v.6c.025 1.04-.806 1.918-1.845 1.95h-.428c-1.039-.032-1.87-.91-1.845-1.95z" fill-rule="nonzero"/><path d="m27.86 135.17h-2.085c-1.229.044-2.206 1.088-2.168 2.317v.608h-.975c-.091 0-.165.074-.165.165v.007 1.395c0 .091.075.165.165.165h.975v6.075c0 .091.075.165.165.165h1.718.007c.091 0 .165-.074.165-.165v-6.075h1.628c.091 0 .168-.073.172-.165v-1.425c0-.094-.078-.172-.172-.172h-1.628v-.203c-.013-.524.406-.966.93-.982h1.305.008c.09 0 .165-.074.165-.165v-1.395c-.005-.087-.078-.156-.165-.156-.016 0-.031.002-.045.006z" fill-rule="nonzero"/><path d="m54.244 139.947-.855-.21c-2.25-.427-2.317-1.387-2.317-1.5 0-.75.562-1.207 1.552-1.327.344-.046.692-.046 1.035 0 .767.098 1.41.635 1.643 1.372.022.068.086.113.157.113h1.785c.049-.001.096-.023.128-.06.034-.039.048-.092.037-.143v-.09c-.412-1.972-1.89-3-4.417-3-1.032-.033-2.05.241-2.925.788-.716.518-1.121 1.367-1.073 2.25 0 1.695 1.028 2.61 3.39 3.075.203.045.645.165.863.225l.142.037c1.568.42 2.04 1.238 1.965 1.808s-.75 1.17-1.965 1.17c-1.08.046-2.085-.57-2.535-1.553-.046-.106-.084-.217-.112-.33-.02-.074-.088-.127-.165-.127h-1.748c-.051-.001-.099.025-.127.067-.034.036-.048.087-.038.135v.068c.42 2.077 2.25 3.42 4.583 3.42h.232c2.505-.068 4.058-1.29 4.058-3.188-.038-1.365-1.253-2.505-3.293-3z" fill-rule="nonzero"/><path d="m43.309 137.825h-.825c-.852.004-1.683.265-2.385.75v-.578c0-.09-.074-.165-.165-.165h-1.717c-.003 0-.005 0-.008 0-.09 0-.165.075-.165.165v7.89c0 .091.075.165.165.165h.008 1.717c.091 0 .165-.074.165-.165v-3.69c0-.017 0-.035 0-.053 0-1.243 1.007-2.274 2.25-2.302h.968c.091 0 .165-.074.165-.165 0-.002 0-.005 0-.007v-1.68c0-.091-.075-.165-.165-.165-.003 0-.005 0-.008 0z" fill-rule="nonzero"/><path d="m186.528 142.737h-1.672c-.091 0-.165.075-.165.165v.008 1.837.008c0 .09.074.165.165.165h.637c-.102.262-.356.435-.637.435-.091 0-.165.074-.165.165v.457c0 .091.074.165.165.165h.315c.843-.028 1.517-.739 1.5-1.582v-1.65c.001-.085-.06-.158-.143-.173z" fill-rule="nonzero"/></g></svg>
