<svg fill="#fff" viewBox="0 0 635.73 296.99" xmlns="http://www.w3.org/2000/svg"><path d="m96.18 2.25h-91.25v31.22h78.44a10.41 10.41 0 0 1 10.41 10.4 10.41 10.41 0 0 1 -10.41 10.41h-78.44v31.22h78.44a10.41 10.41 0 0 1 0 20.81h-78.44v31.22h91.25a41.61 41.61 0 0 0 32.48-67.64 41.44 41.44 0 0 0 9.14-26 41.62 41.62 0 0 0 -41.62-41.64z" transform="translate(-1.27 -2.25)"/><path d="m588.05 0h47.11v135.28h-47.11z"/><path d="m486.74 0h-47.06-.05l-57.92 135.28h47.1l34.4-80.33 34.4 80.33h47.11l-57.93-135.28z"/><path d="m285.76 0h-47.06-.05l-57.93 135.28h47.11l34.4-80.33 34.4 80.33h47.11l-57.93-135.28z"/><path d="m140.85 211.88-10.53-33.88h17.27l10.46 33.88z"/><path d="m181.08 295.97 8.19-33.77h15.17l-8.26 33.77z"/><path d="m226.14 262.2h14.91l5.92 33.77h-15.13z"/><path d="m140.25 249.37-12.02-31.33h16.74l13.6 31.33z"/><g transform="translate(-1.27 -2.25)"><path d="m138.24 275.83 3-18.56h17.27l-3.88 25.54c-.47 3.46-3.94 9.28-6.57 11.3a20 20 0 0 1 -13.25 4.61h-4.29v-14.72s2.16-.7 2.83-1a10.24 10.24 0 0 0 4.87-7.09"/><path d="m248.18 199.76h-23.18l2.61-5.13h20v-14.38h-82.61v95.18c-.21 5.65-5.12 8.75-6.94 9h-.4v14.77h4.84a19.87 19.87 0 0 0 13.59-5.2 20.09 20.09 0 0 0 6.19-14v-85.38h25.72l-2.35 5.13h-20.23v59.56h22.5v16.91c.29 6.34-3.65 8.24-3.65 8.24l-1.06.52v14.25h2.36c7-.52 13.12-5 14.46-6.8a20.1 20.1 0 0 0 5.3-13.43l-.15-19.65h3.25a19.09 19.09 0 0 0 13.94-5.55c2.79-2.19 5.9-8.64 5.81-13.72zm-47.07 14.89h30.57v7.69h-30.57zm27.68 27.47c-1.69 1.44-3.33 2.88-6.75 2.82h-20.93v-7.7h30.34s-.87 3.36-2.66 4.88"/><path d="m1.27 200.06v-13.86h6.8l2.35-5.14h19.58l-1.31 4.62h33.25v14.38h-18.3v5.14h17.79v13.86h-17.54l5 4.1a5.24 5.24 0 0 0 4.19 1.54h8.89v14.38h-15.2a26.85 26.85 0 0 1 -4-.19 4.23 4.23 0 0 1 -2-1.09l-7.84-7.44-6.27 7.18c-1 1-3.05 1.54-6 1.54h-18.87v-13.86h12.29a4.18 4.18 0 0 0 3.4-1.54l4.45-4.61h-20.66v-13.87h22v-5.14z"/><path d="m65.61 182.09v56.49h33.66c12.79 0 20.21-11 20.21-19.24v-37.25zm35.57 32.38c-.1 2.65-.6 6.08-3.55 8.05-4.08 2.75-6.44 2.18-6.44 2.18h-6.76v-27.2h16.74z"/><path d="m3.84 242.93v55.84h93.75c10.3 0 19.76-8.66 19.75-20.64v-35.2zm90 40.29c-1.16 1.08-3.63 2-6.45 2.32h-64.72v-7.18h74.27a12 12 0 0 1 -3.08 4.86m2.92-18.73h-74.11v-6.66h74.1z"/><path d="m264.79 296.13v-64.81h-6v-15.1h2a3.21 3.21 0 0 0 2.41-1 12 12 0 0 0 2.09-3.78l6-15.86h-11.38v-14.93h50.7v14.91h-22.79l-4.94 12.66h29.39v57.27c0 3.41-.65 14.4-8.54 21.78-9.42 8.82-18.43 8.87-21.89 8.87zm31.63-72.94h-16.36v58h3.64c1.46 0 6-1.75 8.42-4.12a13.36 13.36 0 0 0 4.3-10.68zm27.47 23h-7.76v-15.58h7.76v-35.12h-7.76v-15.55h60.38v15.55h-5.2v35.12h4.69v15.61h-4.69v50.29h-16.31v-50.28h-14.23v23.77a28.48 28.48 0 0 1 -8.5 19.89c-8.16 7.91-16.14 7.56-16.14 7.56v-15.33a24.47 24.47 0 0 0 4.58-4 12.84 12.84 0 0 0 3.18-9.42zm31.11-50.7h-14.23v35.12h14.23z"/><path d="m436.52 184.68-.1-4.74h22.74l.08 4.74h43.89v23.8h-17.33v-9.21h-78.22v10h-17v-24.59zm3.59 19.13-3.19 11c-1 3.5-5 9.79-10.58 13.33-3.61 2.26-10.75 5.44-17.09 5.44h-18.48v-14.67h15.9a16.76 16.76 0 0 0 9.58-2.56c1.93-1.31 4.89-5.17 5.36-7l1.38-5.53zm-10 36.85h66.6v35.19 2.53a6 6 0 0 0 .67 2.94q.64 1.12 3.53 1.12h4.55v15.36h-10q-8 0-11.11-3a14.11 14.11 0 0 1 -4.07-7 29.84 29.84 0 0 1 -.92-6.56v-25.93h-50.67l-2.76 19.45a29.22 29.22 0 0 1 -10.32 17.06c-3.78 3.18-11 6-15.15 6h-7.77v-15.38h2.13c3.17 0 7.68-2.55 8.53-3.17s5-4.94 5.52-8.39l2-15.56h-20.1v-14.66h21.57l.76-4h17.52zm22.77-36.4h16.63l1.59 5.89a11.16 11.16 0 0 0 4.1 5.45 23 23 0 0 0 9.14 2.87h20.46v14.65h-21.7c-5 0-13.13-2.71-17.4-6.43-4.58-4-9-9.75-9.67-12.3z"/><path d="m519.83 181.45h42.67v42.87a19.91 19.91 0 0 1 -1.09 6.36c-.73 2.16-1.68 3.55-2.83 4.19l-2.58 1.67a23.51 23.51 0 0 1 5.07 5.18 10.49 10.49 0 0 1 1.48 5.76v17.52c.12 4-2.71 14.43-6.72 18.42a33.57 33.57 0 0 1 -16 9.4l-4.71.56v5h-15.2zm15.2 48h7.52a3.77 3.77 0 0 0 3.1-1.47q1.2-1.47 1.19-5.82v-27h-11.84zm0 13.7v36.66s3.66.18 7.78-3.55c3.11-2.83 3.92-8.21 4-9.74l.07-17.16q0-3.52-1.12-4.87a3.7 3.7 0 0 0 -3-1.34zm30.23 54.25v-13.2a29.85 29.85 0 0 0 4-2.8 13.38 13.38 0 0 0 4.64-7.34l5.75-23.13 16.63-.06-7.39 29.49c-7.09 16.09-23.68 17-23.68 17m.83-90.85v-22.2h24.45v-5h18.17v5h26.18v22.14l-15.73.06v-8.7h-37.49v8.7zm.71 19.32-.06-13.69 69.11-.06v13.75zm.25 8.06h69.3v13.63h-14.25v21.6c0 4 2.79 8.71 4.29 10.3 4.27 4.53 10.54 4.25 10.54 4.25l.13 14.4a31.13 31.13 0 0 1 -21.08-7.52c-6.64-5.68-9.65-15.66-9.65-18.95v-24.06h-39.23z"/></g></svg>
