<svg xmlns="http://www.w3.org/2000/svg" width="100%" height="100%" viewBox="0 0 369 137" fill-rule="evenodd" stroke-linejoin="round" stroke-miterlimit="2" xmlns:v="https://vecta.io/nano"><g fill-rule="nonzero"><path d="M112.135 38.608c26.444 2.562 53.229-1.35 78.795-8.079 10.729-2.863 21.233-6.508 31.429-10.905 1.518-.666 6.939-3.428 8.267-3.05.132.038.275.389.347.52-.021 1.029-.44 1.825-.976 2.682-1.365 2.177-3.22 4.185-4.934 6.102-8.683 9.716-21.224 19.072-34.162 22.075.058.084.051.07.11.173.576 1.006 2.561 16.105 2.249 17.123 1.56-.812 6.221-7.537 7.897-9.322 8.219-8.756 21.004-14.069 32.907-14.434 10.692-.327 24.239 2.191 32.311 9.801 2.155 2.032 3.334 4.303 3.408 7.29.08 3.242-.612 5.536-2.901 7.92-7.606 7.927-14.602 2.004-22.373-.765a25.03 25.03 0 0 0-8.746-1.421c-6.351.126-11.87 2.657-16.257 7.229-4.809 5.01-6.636 11.239-6.494 18.078.134 6.484 2.682 12.38 7.376 16.878a23.3 23.3 0 0 0 24.964 4.682c4.245-1.727 8.257-4.599 13.001-4.68 2.926-.051 5.483 1.068 7.574 3.086 1.006.972 2.243 2.158 2.273 3.617.976.697 1.21 1.972 1.399 3.09.486 2.877-.137 5.574-1.834 7.959-4.191 5.888-15.522 9.921-22.399 11.039a52.03 52.03 0 0 1-26.938-2.53c-9.221-4.024-18.336-10.386-23.629-19.168-1.376-2.285-2.604-5.873-4.721-7.482l.034.126c.054.189.109.368.132.565.272 2.393-7.29 25.7-8.759 27.503-.283.347-.42.305-.842.353-.54-.362-.727-.648-.89-1.291-.632-2.49-.441-5.579-.572-8.164-.251-4.955-.947-26.809-3.54-29.774-.015-.016-.03-.033-.044-.049-1.589 3.21-9.843 6.029-12.671 8.614-2.934 2.682-5.195 6.281-7.781 9.318-4.975 5.84-10.354 11.653-15.919 16.933-.808.767-3.056 3.126-4.099 3.099l-.273-.614c-.714-.337-5.843 1.223-7.182 1.382-2.056.243-3.951.167-5.97-.309-2.561-.603-4.798-1.953-6.186-4.234-2.133-3.505-1.408-15.794-1.43-20.437l.109-27.854c.039-5.491.273-11.13-.119-16.602-.201-2.806-1.326-4.85-2.213-7.449-.755-2.213-1.103-4.549-1.173-6.881-.118-3.966.518-7.899 1.445-11.743z" fill="url(#A)"/><path d="M220.772 111.494c2.192.874 4.195 2.131 6.421 2.977 6.839 2.6 14.295 1.88 20.904-.961 3.883-1.669 8.939-4.802 13.212-3.092 1.927.771 3.643 2.512 4.451 4.418.436 1.028.721 2.231.307 3.31a2.06 2.06 0 0 1-.064.145l.514-.596a2.23 2.23 0 0 1 .341-1.327c.294-.085.528-.161.774-.352l-.02-1.546c.438.457.385.862.461 1.469.4-.548-.264-1.891.127-2.731.976.697 1.21 1.972 1.399 3.09.486 2.877-.137 5.574-1.834 7.959-4.191 5.888-15.522 9.921-22.399 11.039a52.03 52.03 0 0 1-26.938-2.53c1.861-.174 5.096.584 6.692 1.47.368.204 3.313.624 3.821.486l.12-.51c-.061-.069-.263-.339-.333-.37-.051-.023-.465.276-.56.281-.396.017-1.044-.165-1.456-.24-1.79-.328-2.148-1.764-3.563-2.544-2.471-1.362-6.584-1.359-8.277-3.791-.261-.428-7.599-5.073-8.836-6.113-3.764-3.169-6.43-7.089-9.346-10.988 2.302.81 3.891 6.039 5.787 6.232.821-.453 1.792-1.089 2.693-1.333 2.131-.575 4.218.352 6.529-.489 1.695-.616 7.198-3.478 8.607-3.08.046.013.091.029.136.044.138-.106.259-.164.33-.327z" fill="url(#B)"/><path d="M268.2 113.208c.976.697 1.21 1.972 1.399 3.09.486 2.877-.137 5.574-1.834 7.959-4.191 5.888-15.522 9.921-22.399 11.039a52.03 52.03 0 0 1-26.938-2.53c1.861-.174 5.096.584 6.692 1.47.368.204 3.313.624 3.821.486l.12-.51c-.061-.069-.263-.339-.333-.37-.051-.023-.465.276-.56.281-.396.017-1.044-.165-1.456-.24-1.79-.328-2.148-1.764-3.563-2.544-2.471-1.362-6.584-1.359-8.277-3.791 2.249.492 4.654 1.903 6.864 2.679 11.109 3.905 24.483 2.939 35.072-2.157 3.062-1.474 7.978-3.926 9.146-7.353.284-.835.45-1.602.049-2.426l.514-.596a2.23 2.23 0 0 1 .341-1.327c.294-.085.528-.161.774-.352l-.02-1.546c.438.457.385.862.461 1.469.4-.548-.264-1.891.127-2.731z" fill="url(#C)"/><path d="M197.455 65.559l.114-.008c1.409-.12 2.51-2.612 3.387-3.612.388-.443.881-.649 1.466-.677 2.714-.132 5.655 1.288 8.348 1.709 2.08.325 4.122-.044 6.196.604 1.273.398 2.13 1.098 3.107 1.984l.474-.058c.055-.331.09-.619.287-.902l.557.272.123.375-.077.097c-1.385 1.713-3.618 2.983-5.15 4.668-4.946 5.441-7.095 14.061-6.452 21.254.386 4.319 1.685 9.23 4.112 12.875 1.386 2.08 3.192 3.966 5.057 5.619.414.367 1.656 1.247 1.768 1.735-.071.163-.192.221-.33.327-.045-.015-.09-.031-.136-.044-1.409-.398-6.912 2.464-8.607 3.08-2.311.841-4.398-.086-6.529.489-.901.244-1.872.88-2.693 1.333-1.896-.193-3.485-5.422-5.787-6.232-.065-1.075-1.591-3.369-2.066-4.453-1.326-3.029-1.954-6.242-3.211-9.249.481-1.69-.627-5.463-.66-7.451-.043-2.585.535-5.185.568-7.777 1.035-3.213 1.676-6.502 2.916-9.667.806-2.055 2.777-4.224 3.218-6.291z" fill="url(#D)"/><path d="M191.321 81.517l.468.294c.091.82-.011 1.306.629 1.872 3.287.648 8.269-1.039 11.094.922l.126.384c-.713-.107-1.712-.375-2.413-.276.941 1.083 3.539 1.961 3.432 3.728-.066 1.097-1.504 3.297-2.347 4.03-2.705 2.348-9.135 1.674-10.331 2.892.068.331.135.642.268.955l-.104.317-.73.11c.481-1.69-.627-5.463-.66-7.451-.043-2.585.535-5.184.568-7.777z" fill="#b4e0e9"/><path d="M216.72 48.778c3.104-.59 6.054-2.245 9.197-2.938 12.496-2.754 25.909-.712 36.534 6.534.989.674 3.003 1.973 3.268 3.159.805 1.078 1.028 2.944.83 4.254-.352 2.332-1.938 4.402-3.805 5.767-1.724 1.259-3.627 1.785-5.751 1.459-1.268-.195-2.532-.54-3.792-.793-.403-.807-5.264-2.701-6.457-3.178-6.214-2.492-13.127-2.613-19.423-.339-2.008.716-3.856 1.706-5.807 2.543l-.123-.375-.557-.272c-.197.283-.232.571-.287.902l-.474.058c-.977-.886-1.834-1.586-3.107-1.984-2.074-.648-4.116-.279-6.196-.604-2.693-.421-5.634-1.841-8.348-1.709-.585.028-1.078.234-1.466.677-.877 1-1.978 3.493-3.387 3.612l-.114.008c1.066-1.027 1.908-2.367 2.846-3.514 1.904-2.33 3.961-4.536 6.272-6.47 1.718-1.437 9.792-6.227 10.147-6.797z" fill="#26baea"/><path d="M216.72 48.778c.931-1.19 3.8-2.133 5.254-2.31l.147-.015.185-.694c.914-.387 2.016.07 2.963-.172.832-.212 1.566-.658 2.434-.838 2.09-.433 4.152-.336 6.264-.443 1.117-.057 2.135-.453 3.309-.471 5.734-.09 12.731 1.432 18.073 3.588 4.102 1.657 8.208 4.989 11.86 7.508.667 1.676 1.168 5.673.438 7.354a1.01 1.01 0 0 1-.233.327c-.358-.2-.349-.534-.458-.917-.73.448-1.305 1.501-1.818 2.184-2.741 3.655-5.715 4.321-10.059 3.282a4.02 4.02 0 0 1-1.686-.789l-.072-.053c-.041-.032-.081-.065-.12-.099 1.26.253 2.524.598 3.792.793 2.124.325 4.027-.2 5.751-1.459 1.867-1.365 3.453-3.435 3.805-5.767.198-1.31-.025-3.176-.83-4.254-.265-1.186-2.279-2.485-3.268-3.159-10.625-7.246-24.038-9.288-36.534-6.534-3.143.693-6.093 2.348-9.197 2.938z" fill="#010126"/><path d="M117.313 65.847c.019-4.073-.826-14.655 1.917-17.548 1.806-1.904 5.714-1.939 8.168-2.025 4.767-.168 9.571-.042 14.341-.021 10.533.046 21.515-.32 29.768 7.387 1.077 1.005 3.633 3.129 3.687 4.672 1.701.91 3.32 4.865 3.871 6.687.209.688.382 1.325.094 2.019 1.024.916 1.127 4.396 1.201 5.769.058 1.08.375 3.548-.35 4.39-.02.024-.042.046-.064.069.842 1.817-.229 4.996-.904 6.831-2.463 6.692-7.705 11.861-14.152 14.825-6.385 2.936-12.854 3.299-19.773 3.206-2.199-.029-4.516.009-6.68-.393-.085-.779-.382-1.563-.478-2.361-.326-2.705-.858-10.045.485-12.278.928-1.544 3.398-.906 4.931-1.279l.055-.014c2.476.181 5.293.119 7.747-.234 3.077-.443 6.694-1.683 8.615-4.281.727-.984 1.613-2.522 1.426-3.784.142-.3.267-.615.338-.939.389-1.768.411-4.969-.613-6.548.003-.028.007-.055.009-.082.076-1.071-1.198-2.79-1.894-3.533-1.87-1.996-4.449-3.081-7.153-3.156-3.764.561-13.746-.876-16.288.728-.691 1.615-.13 6.167-.025 8.071.307 5.539-.197 10.996-.165 16.522.707.194.816.003 1.218.702.446.777.227 1.924-.011 2.748-.191.663-.339 1.163-.334 1.87l-.47.401c-.454-.51-.389-1.012-.458-1.673-.237 1.846.463 9.108-.377 10.076-.183 4.739.085 9.481-.038 14.218.022 3.968.315 7.956-1.504 11.601a2.58 2.58 0 0 1-.088.261c-.016.04-.034.08-.049.12-.14.353-.315.571-.61.812-2.98 2.432-7.298 1.615-10.796 1.244l-.169.456-.305.03-.456-.548.159-.25c-1.302-.332-2.978-.754-3.986-1.685-.413-.381-2.152-6.196-2.172-7.063-.073-3.215 1.528-2.848 1.954-3.513.142-.222-.041-30.06-.042-32.963 0-1.306-.18-11.837-.006-12.154.063-.115.279-.288.375-.387.144-2.313.046-4.684.051-7.003z" fill="#26baea"/><path d="M133.453 128.49a2.58 2.58 0 0 1-.088.261l-.049.12c-.14.353-.315.571-.61.812-2.98 2.432-7.298 1.615-10.796 1.244l-.169.456-.305.03-.456-.548.159-.25c-1.302-.332-2.978-.754-3.986-1.685-.413-.381-2.152-6.196-2.172-7.063-.073-3.215 1.528-2.848 1.954-3.513.142-.222-.041-30.06-.042-32.963 0-1.305-.18-11.837-.006-12.154.063-.114.279-.288.375-.387.348 3.66.106 7.557.106 11.247-.001 9.676-.347 19.433-.028 29.099.024 4.1-.957 12.717 1.988 15.661 1.851 1.85 4.538 1.979 7.003 1.96 2.719-.021 4.875-.855 7.122-2.327z" fill="#010039"/><path d="M151.155 40.507c22.534-2.796 44.221-7.93 65.451-16.01 2.256-.859 7.734-2.526 9.112-4.294.038-.048.072-.099.107-.15.012 2.293-3.462 5.581-4.986 7.121-7.674 7.76-16.685 13.81-26.994 17.486-1.865.665-3.852 1.466-5.803 1.799 1.701 3.057 3.157 17.645 3.107 21.411-.019 1.431-.272 2.76-.662 4.129-1.352 4.736-2.736 9.121-3.076 14.08-.398 5.81 1.296 10.185 1.302 15.346.005 3.884-4.745 23.522-7.365 25.97.231-.414.393-.849.421-1.324.154-2.639-.344-5.561-.56-8.201-.586-7.179-.969-16.927-2.815-23.745-.077-.285-.218-.547-.371-.798.834-.733 1.32-1.91 1.824-2.881 2.197-4.233 3.734-8.519 4.037-13.301.531-8.39-1.799-17.182-7.442-23.569-5.987-6.777-14.689-10.067-23.571-10.61a48.08 48.08 0 0 0-1.609-.07c.149-.658-.058-1.692-.107-2.389z" fill="#e8da03"/><path d="M138.437 101.715l-.278.294c-.614-.532-.63-2.008-.694-2.774-.358-4.308.016-7.416-.049-11.492l-.176-13.604c-.021-1.808-.255-3.745-.127-5.54.034-.478.129-.828.441-1.197.216.337.104 1.309.106 1.732.551-.726.18-1.594.344-2.42.115-.578.372-.75.816-1.063 1.7.033 3.428.073 5.103.385 4.337.141 9.244-.719 12.505 2.782 1.492 1.604 2.218 3.695 2.121 5.877-.092 2.069-.896 3.997-2.439 5.4-3.943 3.584-12.13 2.603-17.186 2.593l-.355.302c.02.518.038.964-.127 1.46.199.72.171.776.793 1.173 1.129-.034 3.141-.22 4.195.16l-.055.014c-1.533.373-4.003-.265-4.931 1.279-1.343 2.233-.811 9.573-.485 12.278.096.798.393 1.582.478 2.361z" fill="#fefefe"/><path d="M138.437 101.715l-.278.294c-.614-.532-.63-2.008-.694-2.774-.358-4.308.016-7.416-.049-11.492l-.176-13.604c-.021-1.808-.255-3.745-.127-5.54.034-.478.129-.828.441-1.197.216.337.104 1.309.106 1.732.551-.726.18-1.594.344-2.42.115-.578.372-.75.816-1.063 1.7.033 3.428.073 5.103.385-1.863.355-3.979.236-5.882.285.943 2.469-.533 15.053.384 16.044.101.11.367.237.499.323l-.355.302c.02.518.038.964-.127 1.46.199.72.171.776.793 1.173 1.129-.034 3.141-.22 4.195.16l-.055.014c-1.533.373-4.003-.265-4.931 1.279-1.343 2.233-.811 9.573-.485 12.278.096.798.393 1.582.478 2.361z" fill="#010126"/><path d="M157.885 105.624l.378.129c-.072 1.158-15.95 18.347-18.302 20.631-.667-2.18 6.342-15.11 6.178-17.319 3.615-.276 8.568-1.734 11.746-3.441z" fill="#e8da03"/><path d="M139.363 105.372c3.526-.139 7.308-.152 10.827.094-1.357.893-3.48.861-5.043.865-.261 1.304-2.725 6.808-3.562 7.794l.01.077c.156 1.576-2.701 6.243-3.707 7.544 1.648-3.105-.955-13.735.617-16.14.107-.163.651-.195.858-.234z" fill="#fefefe"/><path d="M113.568 41.228c2.166-.196 4.465-.153 6.611.216l.707 1.918c-1.4.584-2.59 1.214-3.719 2.252-3.084 2.836-3.201 6.623-3.347 10.519-.963-5.088-.755-9.787-.252-14.905z" fill="#e8da03"/><path d="M125.967 41.669a170.1 170.1 0 0 0 12.716-.131c.543.276 1.07.421 1.244 1.077.01.039.013.08.02.121-4.317.565-9.166.16-13.524.114l-.456-1.181z" fill="#b3b49a"/><path d="M145.384 41.033l5.771-.526c.049.697.256 1.731.107 2.389-1.658-.17-3.399-.125-5.068-.181-.013-.323.014-.637.04-.959l-.85-.723z" fill="#d3c346"/><path d="M138.683 41.538l6.701-.505.85.724-.04.958c-2.068.123-4.174.034-6.247.021l-.02-.121c-.174-.656-.701-.801-1.244-1.077zm-18.504-.094c1.628.027 4.292-.279 5.788.225l.456 1.181c-1.825.119-3.746.142-5.537.512l-.707-1.918z" fill="#c9af70"/><path d="M299.207 91.582c.378.57.618 1.082.697 1.765.436 3.741.116 7.797.115 11.572 0 5.743.211 11.589-.077 17.319-.163 3.237-.749 6.931-3.274 9.184-2.808 2.505-6.893 2.999-10.516 2.775-2.926-.182-5.774-1.047-7.757-3.318-1.514-1.734-2.19-3.872-2.473-6.121-.418-3.337-.17-6.918-.174-10.284l.014-19.8-.026-26.49c-.004-4.656-.248-9.45.072-14.09.215-3.107 1.098-6.53 3.555-8.637 3.586-3.074 12.153-2.752 16.73-2.376 3.705.304 6.45 1.549 8.872 4.419.663.778 1.227 1.634 1.68 2.551 3.551 7.083 6.523 14.589 9.714 21.849 1.65 3.754 3.744 7.51 5.203 11.316.107.28.106.62.08.915 2.168-1.903 11.343-25.472 13.315-29.817 1.756-3.867 4.084-8.693 8.336-10.265 3.864-1.428 15.656-1.66 19.409.083 2.048.951 4.128 2.975 4.901 5.126.281.785.42 1.413.047 2.198.251.263.418.545.476.906.369 2.275.126 4.98.121 7.294l-.056 12.767c-.018.724.006 1.399-.386 2.036a2.76 2.76 0 0 1 .351 1.29c.381 7.208.043 14.616.047 21.842.004 8.433.307 16.973-.024 25.395-.059 1.515-.177 3.204-.588 4.667-.595 2.122-2.252 3.876-4.139 4.938-3.399 1.913-8.793 2.072-12.524 1.027a8.73 8.73 0 0 1-5.879-5.273c-1.957-4.851-1.03-15.237-1.032-20.634-.002-3.577-.149-7.13-.221-10.701-.028-1.4.442-3.892-.221-5.037-.009-.016-.019-.032-.029-.048-.094.874-8.974 19.963-10.062 22.113a19.46 19.46 0 0 1-1.848 2.981c-1.754 2.303-4.22 4.072-7.139 4.457-3.543.467-7.36.016-10.218-2.292-4.222-3.411-8.609-16.252-11.164-21.642-.889-1.877-2.178-4.657-3.842-5.911l-.066-.049z" fill="#010039"/><path d="M321.83 92.326c3.209-5.31 5.386-11.558 7.808-17.27 1.793-4.228 3.838-8.345 5.623-12.574 1.485-3.519 2.603-7.26 4.623-10.527 1.498-2.423 3.29-4.553 6.19-5.219 3.991-.916 13.532-.778 16.974 1.433.507.325 1.253.867 1.38 1.487.999 4.868.585 12.561.596 17.689l-.023 32.257.027 15.016c.017 3.412.3 7.281-.342 10.633-.324 1.687-1.173 3.247-2.622 4.215-2.209 1.475-6.105 1.713-8.615 1.197-2.04-.419-4.388-1.511-5.336-3.492-1.321-2.756-.594-8.914-.568-12.174.027-3.352.325-24.247-.576-25.623a2.47 2.47 0 0 0 .308-.66c.426-1.543.326-9.788-.436-11.114-.03.447-4.121 7.656-4.724 8.977l-9.083 20.331c-1.177 2.561-2.14 5.562-3.848 7.802-1.579 2.069-3.752 3.393-6.346 3.719-2.798.352-5.105-.804-6.993-2.814-3.45-3.675-12.096-24.848-14.679-30.666-1.07-2.411-2.504-6.462-4.63-8.073l-.07-.051c.178.398.381.862.409 1.298.126 1.981-.075 4.081-.1 6.074l-.035 11.841-.058 19.052c-.034 3.28.103 6.725-.284 9.978-.14 1.177-.476 2.162-1.269 3.062-1.643 1.863-4.327 2.737-6.744 2.892-2.497.16-5.356-.347-7.276-2.067-1.717-1.538-1.842-3.483-1.962-5.645-.282-5.052-.09-10.184-.076-15.244l.022-24.845-.034-19.725c.015-3.281-.129-6.677.207-9.938.171-1.669.581-3.792 1.754-5.075 2.014-2.203 5.82-2.001 8.546-2.108 3.429-.048 8.535-.629 11.357 1.648 1.71 1.379 3.276 4.769 4.245 6.716 4.514 9.072 8.04 18.72 12.21 27.969.915 2.03 4.332 8.124 4.45 9.618z" fill="url(#E)"/><path d="M66.732 43.102c3.293-.053 7.133-.429 10.272.683 2.739.971 3.934 2.625 5.137 5.136 1.916 4 3.328 8.393 4.936 12.537l10.25 26.755 8.132 21.209c1.603 4.139 3.484 8.343 4.719 12.605.597 2.062 1.189 4.007.439 6.109-.809 2.268-2.175 3.839-4.365 4.869-3.477 1.634-9.937 1.783-13.532.475-6.002-2.185-7.285-11.498-9.854-17.044-3.115.634-6.263.728-9.432.791l-17.647.016c-2.275 4.289-2.696 10.123-5.902 13.794-1.854 2.124-4.528 2.996-7.276 3.18-3.863.26-8.882.08-11.916-2.602-1.551-1.371-2.599-3.472-2.716-5.545-.078-1.376.242-2.709.671-4.005 1.191-3.604 2.717-7.128 4.085-10.67l8.135-21.107 9.222-24.133c1.957-5.174 3.79-10.443 5.959-15.533.623-1.46 1.246-2.992 2.315-4.185 2.337-2.611 5.039-3.138 8.368-3.335z" fill="url(#F)"/><path d="M65.644 46.324c3.46-.137 8.666-.65 11.711 1.097.985.564 1.495 1.907 1.966 2.906 2.31 4.906 3.93 10.337 5.819 15.429l8.36 21.727 8.087 21.063c1.83 4.699 3.853 9.415 5.309 14.245.448 1.488.975 3.197.404 4.724-.428 1.146-1.39 1.969-2.483 2.461-3.365 1.515-9.125 1.012-12.475-.282-3.325-4.172-7.214-17.236-9.157-22.701l-7.844-21.968-5.784-15.718c-2.249 4.42-3.717 9.077-5.289 13.763-1.763 4.666-3.651 9.341-4.943 14.165 4.18-.012 13.27-.875 16.551 1.257 4.102 2.664 5.174 10.339 6.102 14.769-4.623.635-23.443 1.031-27.362-.233-4.196 4.551-4.373 13.332-7.829 16.224-3.135 2.623-9.403 1.432-13.223 1.066-.854-1.055-1.791-2.177-2.029-3.555-.267-1.543.088-2.93.562-4.385 1.269-3.89 2.977-7.66 4.416-11.492l12.494-32.585 6.574-17.166c1.434-3.749 2.715-8.694 5.053-11.939 1.206-1.674 3.021-2.546 5.01-2.872z" fill="#26baea"/><path d="M69.453 79.61l.263.118c1.244 1.341 4.495 11.907 5.124 14.276-1.794.152-3.604.077-5.403.046-1.799-.014-3.573-.137-5.365-.29 1.36-4.679 2.929-9.937 5.381-14.15z" fill="#fefefe"/><path d="M6.007 44.321c3.194-1.672 8.752-1.713 12.164-.66 2.4.741 4.325 2.358 5.502 4.577.898 1.693 1.147 4.089 1.266 5.99.257 4.138.095 8.354.091 12.501l-.023 22.016.036 21.708c.014 4.282.161 8.642-.062 12.915-.075 1.431-.293 2.876-.73 4.242-.754 2.357-2.221 4.117-4.433 5.247-3.329 1.701-8.937 1.837-12.488.652-2.319-.774-4.591-2.562-5.689-4.772-.51-1.026-.706-2.144-.802-3.278-.369-4.338-.086-8.923-.083-13.284.004-5.902-.187-11.875.033-17.769-.173-4.079-.024-8.227-.028-12.312l.04-19.186c-.064-4.074-.664-9.102.54-13.034.784-2.565 2.318-4.309 4.666-5.553z" fill="url(#G)"/><path d="M6.52 47.632c3.182-1.471 7.378-1.857 10.712-.64 1.214.443 2.887 1.416 3.494 2.615 1.508 2.977 1.006 64.937.71 72.356-.077 1.948-.196 3.852-.61 5.761-2.214 2.251-4.007 3.14-7.233 3.168-2.768.024-6.041-.366-8.102-2.39a21.47 21.47 0 0 1-1.011-1.078c-.86-4.128-.483-8.771-.492-12.983l-.032-20.208.01-26.188c.002-4.776-.241-9.701.133-14.458.14-1.787.441-3.515 1.444-5.036.129-.195.258-.386.404-.569l.573-.35z" fill="#26baea"/><path d="M166.346.874c4.85-.549 9.488-.037 13.508 2.94 3.534 2.616 5.853 6.724 6.478 11.059.622 4.324-.631 9.133-3.256 12.62-2.671 3.547-6.174 5.634-10.547 6.25-3.734.389-7.035.036-10.383-1.725-3.934-2.038-6.875-5.582-8.152-9.824a16.56 16.56 0 0 1 1.183-12.717c2.422-4.547 6.322-7.125 11.169-8.603z" fill="#000002"/><path d="M168.731 2.906c7.969-.67 14.954 5.287 15.55 13.262s-5.428 14.904-13.407 15.424c-7.875.514-14.692-5.413-15.28-13.282s5.274-14.742 13.137-15.404z" fill="#e8da03"/></g><defs><linearGradient id="A" x1="187.979" y1="19.016" x2="194.321" y2="136.606" href="#H"><stop offset="0" stop-color="#010005"/><stop offset="1" stop-color="#010124"/></linearGradient><linearGradient id="B" x1="236.937" y1="132.683" x2="232.67" y2="109.074" href="#H"><stop offset="0" stop-color="#00ade5"/><stop offset="1" stop-color="#16c5ec"/></linearGradient><linearGradient id="C" x1="263.7" y1="109.892" x2="232.57" y2="140.669" href="#H"><stop offset="0" stop-color="#000018"/><stop offset="1" stop-color="#01045e"/></linearGradient><linearGradient id="D" x1="191.678" y1="88.769" x2="220.228" y2="89.062" href="#H"><stop offset="0" stop-color="#a7dde8"/><stop offset="1" stop-color="#3dcaec"/></linearGradient><linearGradient id="E" x1="370.133" y1="77.866" x2="273.926" y2="99.041" href="#H"><stop offset="0" stop-color="#00abed"/><stop offset="1" stop-color="#14bfeb"/></linearGradient><linearGradient id="F" x1="103.006" y1="70.102" x2="35.607" y2="135.763" href="#H"><stop offset="0" stop-color="#02001a"/><stop offset="1" stop-color="#010338"/></linearGradient><linearGradient id="G" x1="1.119" y1="88.615" x2="24.817" y2="88.381" href="#H"><stop offset="0" stop-color="#01002b"/><stop offset="1" stop-color="#01014b"/></linearGradient><linearGradient id="H" gradientUnits="userSpaceOnUse"/></defs></svg>
