<svg xmlns="http://www.w3.org/2000/svg" width="100%" height="100%" viewBox="0 0 270 312" fill-rule="evenodd" xmlns:v="https://vecta.io/nano"><style><![CDATA[.B{fill:#fff}.C{fill-rule:nonzero}.D{stroke:#000}.E{stroke-width:.15}]]></style><g class="C"><path d="M62.588 1.373h144.877l6.63-.083h14.708c7.05 0 18.652-.338 35.025-1.02l6.157-.27c-.892 12.705-1.072 17.7-1.11 24.435l-.082 19.462-.083 18.45v103.058c0 64.897-14.685 86.932-84.675 121.5l-42.51 21.33-3.54 1.883L134.43 312l-3.562-1.868-3.578-1.882c-14.707-7.702-29.647-14.482-41.25-20.175C21.908 256.628 1.365 234.293 1.365 165.42V62.362l-.172-18.45L1.11 24.45C1.05 12.682.93 8.873 0 .015L6.12.27l35.115 1.02H55.86l6.728.083z"/><path d="M134.423 305.685L162 292.148l.69-.255-.172-.6V164.445l-.255-.772.855.172h99.787l.863.263-.263-1.125v-53.775l.263-.855-.863.255h-99.787l-.855.172.255-.862V7.013l.172-.863-.78.255h-54.63l-.855-.255.248.863v100.905l.187.862-.787-.173H7.065l-.862-.255.255.855V163.5l-.255.608.862-.263h99.008l.787-.173-.187 1.035V291.03l-.248 1.035.683.172 27.315 13.448z" class="B"/><path d="M163.553 6.405l-1.208-.255.173.945v101.002l-.173.781 1.118-.27h99.36l.945.262-.263-.87V6.84l.263-.69-.945.255H7.493l-1.29-.255.255.945V108.09l-.255.78 1.207-.262h98.58l.87.269-.187-.877V6.84l.187-.69-.87.255m.435 157.447H6.81l-.607-.262.255.69v6c0 55.447 18.51 82.417 75.487 109.95l18 8.707 6.278 2.933.517.607-.09-.87V164.37l.18-.75m56.205.233l-.69-.263.173.607v127.096l-.173.944.69-.75 5.685-2.595c77.363-36.405 94.785-58.095 94.785-118.042v-6.383l.263-.855-.863.255" fill="#020202"/><path d="M22.665 113.603l.6.69.69.75.75.75.69.697-.435.338-.855.75-.69.75-.255.262v.803c0 6.982 1.815 11.737 5.693 14.88l.69.562-.69.472-.75-.082-1.635-.173-1.5-.262-.855-.173-.878 6.3h-1.207l-.863-6.202-.855.172c-.75.158-1.207.248-1.38.263l-1.725.172-.75.083c-.367 0-.652-.127-.652-.263a.84.84 0 0 1 .397-.555l1.29-.982c1.065-.825 1.77-1.853 3-4.403a7.2 7.2 0 0 0 .863-2.842c0-1.815.285-3.27.6-3.27l.18-3.195.082-1.208-.345-.262-.69-.75-.855-.75-.352-.338.69-.697a13.25 13.25 0 0 0 1.987-2.25m32.67-.038a13.05 13.05 0 0 0 1.98 2.25l.69.698-.337.337-.863.75-.69.75-.435.263.173 1.207.172 3.195c.248 4.568 2.783 9.84 5.43 11.25.458.248.75.465.75.563 0 .008.001.015.001.023 0 .217-.174.397-.391.404l-1.117-.037-1.643-.173-1.5-.262-.855-.173-.862 6.203h-1.088l-.862-6.203-.863.173-1.462.262-1.643.173-.75.082h-.12c-.345 0-.577-.112-.577-.277a.75.75 0 0 1 .352-.548l1.29-.982c1.125-.87 1.433-1.313 3-4.403.521-.866.846-1.836.953-2.842 0-1.815.232-3.27.517-3.27l.173-3.195.082-1.208-.255-.262-.75-.75-.862-.75-.345-.338.69-.697a22.1 22.1 0 0 0 .75-.75c.082-.09.36-.405.69-.75l.6-.69M39.038 132.75l.6.697.607.75c.226.274.477.525.75.75l.75.698-.442.337-.75.75-.75.69-.255.345v.81c0 7.17 1.71 11.64 5.692 14.873l.69.562-.69.473-.75-.083-1.635-.172-1.5-.263-.855-.172-.862 6.202H38.43l-.862-6.202-.855.172-1.5.263-1.635.172-.75.083h-.09c-.33 0-.6-.128-.6-.285s.157-.323.435-.533l1.29-.99c2.745-2.107 4.665-7.89 4.665-14.1v-.81l-.263-.345-.75-.69-.75-.75-.435-.337a15.45 15.45 0 0 0 2.76-2.94m32.693.045c.782 1.098 1.708 2.087 2.752 2.94l-.435.337-.75.75-.75.69-.255.345v.81c0 4.68 1.365 10.305 2.933 12.113l1.725 1.987a6.56 6.56 0 0 0 .952.75l.75.563-.682.472-.75-.082-1.635-.173-1.5-.262-.863-.173-.855 6.203h-1.207l-.863-6.203-.862.173-1.5.262-1.628.173-.75.082h-.09c-.33 0-.6-.127-.6-.292s.143-.33.39-.525l1.253-.99c2.707-2.153 4.747-7.928 4.747-14.1v-.81l-.262-.345-.75-.69-.75-.75-.428-.338c.345-.307.6-.532.75-.697.272-.226.524-.478.75-.75l.6-.75.563-.72zm16.372-19.148a12.97 12.97 0 0 0 1.973 2.25c.165.15.39.383.69.698l-.338.337-.87.75-.682.75-.345.263.09 1.208.172 3.194c.233 4.441 2.858 9.9 5.43 11.25.443.248.75.458.75.563a.39.39 0 0 1-.337.427l-1.08-.037-1.718-.173c-.505-.059-1.005-.147-1.5-.262l-.75-.173-.855 6.203h-1.207l-.863-6.203-.907.218-1.41.217-1.643.173-.75.082h-.112c-.323 0-.585-.12-.585-.262s.15-.36.397-.563l1.253-.982c1.14-.915 1.5-1.448 3-4.403.513-.869.835-1.838.945-2.842 0-1.815.24-3.27.517-3.27l.173-3.195.09-1.208-1.013-1.012c-.382-.405-.645-.66-.75-.75a4.6 4.6 0 0 0-.435-.338l1.448-1.447.69-.75.607-.69m92.895-.195l.615.75.593.69.75.862c.09.113.42.39.75.69l-.428.338-.75.75-.75.682-.262.338v.75c0 6.945 2.325 13.005 5.692 14.85.525.292.75.51.75.75l-.052.105-.69.172h-.75a15.38 15.38 0 0 1-3.968-.69l-.855 6.203h-1.207l-.863-6.203a15.34 15.34 0 0 1-3.975.69h-.75c-.51 0-.75-.082-.75-.292s.218-.473.75-.75c3.308-1.718 5.685-7.92 5.685-14.85v-.75l-.255-.338-.75-.682-.75-.75-.427-.338c.352-.3.607-.525.75-.69l.75-.862.607-.69.54-.735zm32.835 0l.608.75.682.69.75.862.69.69-.427.338-.75.75-.75.682-.255.338v.75c0 6.87 2.362 13.042 5.685 14.85.525.292.75.51.75.75l-.06.105-.69.172h-.75c-1.347-.056-2.681-.288-3.968-.69l-.855 6.203h-1.26l-.862-6.203c-1.388.453-2.838.689-4.298.698-.945 0-1.14-.06-1.14-.345s.203-.45.75-.698a8.51 8.51 0 0 0 2.67-2.752c1.365-2.19 2.145-4.065 2.153-5.168 0-1.867.277-3.367.6-3.367l.18-3.188.075-1.125-.338-.337c-.608-.657-1.271-1.261-1.98-1.808l.75-.69.75-.862.69-.69.6-.705zm-16.372 19.132l.6.69.69.75c.112.105.33.405.75.818.15.15.435.33.75.637l-.435.353-.75.862-.75.69-.255.345.082 1.118.173 3.187c.262 4.71 2.715 9.803 5.43 11.288.517.285.75.51.75.75l-.06.105-.69.165h-.75a15.77 15.77 0 0 1-3.968-.683l-.862 6.21h-1.2l-.863-6.21c-1.395.457-2.853.69-4.32.69-.885 0-1.095-.067-1.095-.382s.203-.413.75-.653c1.087-.706 2-1.649 2.67-2.76 1.403-2.302 2.25-4.222 2.25-5.167 0-1.86.225-3.36.518-3.36l.172-3.188.083-1.117-1.898-1.898-.345-.352.69-.69c.744-.672 1.408-1.427 1.98-2.25m32.993.052l.6.69.69.75 1.44 1.44-.346.353-.862.862-.75.69c0 .06-.127.165-.255.345l.082 1.118.173 3.187c.263 4.71 2.708 9.803 5.43 11.288.518.285.75.51.75.75l-.06.105-.69.165h-.75a15.62 15.62 0 0 1-3.96-.683l-.87 6.21h-1.14l-.952-6.21a13.8 13.8 0 0 1-4.313.69c-.885 0-1.095-.067-1.095-.382s.203-.413.75-.653a8.42 8.42 0 0 0 2.678-2.76c1.41-2.302 2.25-4.222 2.25-5.167 0-1.86.225-3.36.517-3.36l.165-3.188.09-1.117-.352-.345-.69-.69-.855-.863-.345-.352.69-.69c.744-.672 1.408-1.427 1.979-2.25m16.373-19.065l.6.75.69.69.75.862.69.69-.428.338-.75.75-.75.682-.255.338v.75c0 6.87 2.363 13.042 5.685 14.85.518.292.75.51.75.75l-.06.105-.69.172h-.75c-1.344-.055-2.676-.287-3.959-.69l-.87 6.203h-1.208l-.862-6.203a14.06 14.06 0 0 1-4.291.698c-.945 0-1.132-.06-1.132-.345s.195-.45.75-.698a8.58 8.58 0 0 0 2.67-2.752c1.365-2.19 2.145-4.065 2.153-5.168 0-1.867.277-3.367.599-3.367l.173-3.188.082-1.125-.345-.337c-.375-.383-.6-.615-.689-.683l-.856-.75-.345-.337.69-.69.75-.863.69-.69.518-.742zm-127.53 89.017c.573.821 1.234 1.575 1.973 2.25l.69.683-.338.352-.862.75-.69.75-.345.345.09 1.118.172 3.187c.214 3.041 1.167 5.984 2.775 8.573a8.62 8.62 0 0 0 2.678 2.76c.57.255.75.442.75.697s-.21.338-1.223.338c-1.432-.015-2.853-.247-4.215-.69l-.862 6.21h-1.208l-.862-6.21c-1.286.397-2.617.626-3.96.682h-.75c-.503 0-.75-.082-.75-.292s.217-.473.75-.75a8.38 8.38 0 0 0 2.677-2.76c1.5-2.528 2.25-4.2 2.25-5.168 0-1.86.24-3.36.518-3.36l.172-3.187.09-1.118-.262-.345-1.5-1.5-.428-.352.69-.683.75-.75.69-.75.608-.682m30.69-.098a13.76 13.76 0 0 0 1.987 2.25l.69.683-.345.352-.862.75-.69.75-.345.345.082 1.118.173 3.188c.212 3.039 1.162 5.982 2.767 8.572.669 1.111 1.582 2.055 2.67 2.76.578.255.795.442.795.697s-.217.338-1.23.338c-1.432-.013-2.854-.246-4.215-.69l-.862 6.21h-1.2l-.87-6.21a15.73 15.73 0 0 1-3.968.682h-.75c-.502 0-.75-.082-.75-.292s.225-.472.75-.75c1.092-.7 2.006-1.645 2.67-2.76 1.5-2.528 2.25-4.2 2.25-5.167 0-1.861.225-3.361.51-3.361l.18-3.187.075-1.118-.255-.345-1.5-1.5-.435-.352.69-.683.75-.75.69-.75.592-.682m-15.727 27.825l.39.9.817.563.75.862.69.69-.345.345-.862.75c-.083.068-.308.3-.69.683-.083.075-.195.187-.345.352l.082 1.11.173 3.195c.255 4.665 2.88 10.118 5.43 11.25.592.278.75.435.75.675l-.09.188-.6.255-.75-.076-1.725-.179a13.94 13.94 0 0 1-1.463-.255l-.75-.173-.952 6.202h-1.11l-.87-6.202-.855.172-1.5.256-1.643.179-.75.076h-.09c-.382 0-.622-.151-.622-.383s.202-.458.712-.75c1.095-.697 2.012-1.639 2.678-2.752 1.5-2.543 2.25-4.2 2.25-5.168 0-1.86.232-3.36.517-3.36l.18-3.195.075-1.11-.255-.352-.75-.683-.75-.75-.435-.345.69-.69.75-.862.698-.69.57-.728zm-15.248 28.433l.6.75.69.69.75.862.563.81-.308.225-.75.75-.75.682-.255.345.083 1.125.172 3.188c.263 4.71 2.708 9.802 5.43 11.25.518.285.75.51.75.75l-.052.112-.69.173h-.75c-1.337-.09-2.664-.294-3.968-.608l-.877 6.21h-1.208l-.862-6.12c-1.413.366-2.862.572-4.32.616-.885-.001-1.095-.083-1.095-.398s.21-.412.75-.645c1.087-.706 2-1.65 2.67-2.76 1.41-2.295 2.25-4.215 2.25-5.167 0-1.853.232-3.361.517-3.361l.173-3.187.082-1.125-.344-.345c-.375-.382-.608-.607-.691-.683l-.862-.75-.337-.352.69-.683.75-.862.69-.69.509-.803zm30.93 0l.518.75.69.69.652.99.818.555-.345.353-.863.75-.69.682-.345.345.083 1.125.172 3.188a18.76 18.76 0 0 0 2.768 8.58c.671 1.109 1.584 2.052 2.67 2.76.577.247.795.442.795.705s-.218.338-1.155.338c-1.448-.046-2.887-.252-4.29-.616l-.863 6.12h-1.2l-.87-6.12a23.62 23.62 0 0 1-3.967.608h-.75c-.502 0-.75-.09-.75-.3s.225-.473.75-.75c1.095-.697 2.01-1.643 2.67-2.76 1.5-2.535 2.25-4.193 2.25-5.168 0-1.852.225-3.36.51-3.36l.18-3.187.075-1.125-.255-.345-.75-.683-.75-.75-.435-.352.69-.683.75-.862.69-.69.547-.788z"/><path d="M134.595 174.36l.518.75.69.69.75.862.69.683-.345.345-.863.75c-.082.067-.307.3-.69.69l-.345.345.083 1.117.172 3.188c.255 4.658 2.933 10.222 5.43 11.25.57.24.75.412.75.668s-.225.382-1.095.382a19.64 19.64 0 0 1-4.32-.615l-.907 6.285h-1.11l-.87-6.21a24.28 24.28 0 0 1-3.968.6h-.75c-.502 0-.75-.09-.75-.293s.218-.48.75-.75a8.3 8.3 0 0 0 2.678-2.759c1.5-2.528 2.25-4.201 2.25-5.168 0-1.853.232-3.36.517-3.36l.18-3.188.075-1.117-.255-.345-.75-.69-.75-.75-.435-.345.69-.683.75-.862.698-.69.532-.78zm-15.51-157.267l.608.69.69.75c.135.12.367.375.75.75l.69.682-.353.353-.855.75-1.012 1.012.09 1.208.172 3.097c.165 3 1.5 7.178 2.753 8.625l1.725 1.973a7.93 7.93 0 0 0 .952.75l.75.562-.75.473-.75-.09-1.642-.173-1.455-.255-.863-.172-.952 5.947-1.035.255-.863-6.075-.855.173-1.5.255-1.635.172-.907.09c-.315 0-.57-.12-.57-.27a.85.85 0 0 1 .352-.547l1.298-.998c1.117-.84 1.432-1.297 3-4.395.516-.865.839-1.833.945-2.835 0-1.86.24-3.367.517-3.367l.173-3.098.09-1.207-.345-.263-.69-.75-.863-.75-.337-.352.69-.683c.74-.673 1.401-1.428 1.972-2.25m31.208-.038a13.42 13.42 0 0 0 1.987 2.25l.69.683-.345.353-.862.75-.69.75-.345.262.082 1.208.173 3.097c.255 4.568 2.842 9.983 5.43 11.378.457.247.75.457.75.562.021.212-.134.404-.345.428l-1.08-.045-1.718-.173c-.505-.053-1.006-.138-1.5-.255l-.75-.172-.862 6.202h-1.2l-.87-6.202-.945-.09-1.38.517-1.643.173-.75.09h-.12c-.315 0-.577-.12-.577-.27a.87.87 0 0 1 .397-.555l1.245-.998c1.148-.9 1.5-1.447 3-4.395.509-.87.833-1.835.953-2.835 0-1.86.232-3.367.51-3.367l.18-3.098.075-1.207-.255-.263-1.5-1.5-.435-.352.689-.683.75-.75.69-.75.593-.69m-15.878 26.917l.608.69.69.75.75.855c.075.106.375.398.69.698l-.428.345-.75.75-.75.683-.262.344.09 1.118.082 2.932c.255 4.703 2.79 10.066 5.52 11.543.518.292.75.51.75.75l-.052.105-.69.172h-.75a15.32 15.32 0 0 1-3.96-.69l-.863 6.21h-1.207l-.855-6.21a13.87 13.87 0 0 1-4.305.698c-.938 0-1.14-.06-1.14-.345s.218-.45.75-.697c1.09-.702 2.006-1.644 2.678-2.753 1.365-2.183 2.152-4.065 2.152-5.168 0-1.867.278-3.367.6-3.367l.173-3.188.097-1.117-.352-.345c-.375-.39-.608-.622-.683-.683l-.862-.75-.353-.345.697-.697.75-.855.683-.75c.053-.045.3-.383.518-.69M119.003 70.95l.6.69.607.75c.231.268.482.519.75.75l.75.69-.435.338-1.5 1.5-.255.262v.803c0 4.545 1.35 10.23 2.85 11.864l1.898 2.25.945.75.69.563-.69.473-.75-.09-1.628-.166-1.5-.262-.862-.173-.87 6.308h-1.208l-.855-6.203-.862.173-1.5.263-1.635.165-.75.09h-.113c-.315 0-.585-.12-.585-.278s.15-.345.398-.555l1.252-.982c2.865-2.25 4.748-7.845 4.748-14.108v-.802L117.48 75a22.1 22.1 0 0 0-.75-.75c-.105-.097-.225-.172-.442-.337l.75-.69c.267-.232.518-.483.75-.75l.6-.75.615-.773zm31.102 0l.608.69.69.75 1.439 1.44-.427.338-1.763 1.762.083 1.32.172 3.188c.255 4.747 2.1 8.58 5.43 11.287l.69.563-.69.472-.75-.09-1.635-.165-1.5-.262-.862-.173-.855 6.18h-1.207l-.945-6.465c-1.575.36-1.628.645-2.153.698l-1.725.165-.75.09h-.097c-.308 0-.525-.113-.525-.293.039-.22.166-.415.352-.54l1.298-.982c1.117-.863 1.447-1.328 3-4.395.507-.873.829-1.841.945-2.843 0-1.815.24-3.277.517-3.277l.165-3.188.098-1.207-.353-.263-.682-.75-.863-.75-.345-.337.69-.69c.742-.672 1.404-1.427 1.973-2.25m-64.56-13.898l.345 1.298.69 2.752c1.08 4.92 2.002 6.218 4.387 6.218 1.264.068 2.43-.711 2.85-1.905l.518-1.725c.091-.377.437-.641.825-.63.93 0 1.365.975 1.41 3.127.122 1.418.325 2.828.607 4.223a21.43 21.43 0 0 1 .345 3.75c.033.927-.144 1.85-.517 2.7a35.96 35.96 0 0 1 .525 5.25 10.82 10.82 0 0 1-1.043 5.145 10.55 10.55 0 0 1 .435 3.247 15.92 15.92 0 0 1-.262 2.873c-.224.987-.377 1.99-.458 3a3.53 3.53 0 0 0 .195 1.147 3.9 3.9 0 0 1 .263 1.035c0 .24-.12.435-.263.435l-1.717-.69-1.898-1.035a9.05 9.05 0 0 1-1.987-1.545c-1.665 1.5-2.16 1.733-6.54 2.925-.671.142-1.312.395-1.898.75a2.79 2.79 0 0 1-1.155.608c-.75-.001-1.087-1.193-1.087-3.653a19.93 19.93 0 0 1 .517-4.8c-.98-.416-2.021-.669-3.082-.75-.128 0-.563.053-1.313.173h-.315c-.262 0-.465-.368-.465-.826.084-.644.261-1.273.525-1.867l.855-2.07c.499-.972 1.206-1.822 2.07-2.49.633-.609 1.406-1.055 2.25-1.298l3.105-.607c1.845-.36 2.933-1.328 2.933-2.61s-.825-2.085-2.678-2.73l-3.705-1.298a19.98 19.98 0 0 1-3.36-1.627c-2.055-1.215-2.4-1.38-2.887-1.38-.75 0-1.17.547-1.17 1.5a2.28 2.28 0 0 0-.009.203 2.42 2.42 0 0 0 2.407 2.407 2.31 2.31 0 0 0 .879-.173c.279-.134.578-.222.885-.262.015-.001.029-.002.044-.002.312 0 .57.258.57.57 0 .028-.002.057-.006.084v.383l-.173 1.5c-.15 1.252-.952 2.767-2.76 5.167l-.75 1.028a11.78 11.78 0 0 1-4.65 6.817 7.96 7.96 0 0 0-.937.683c-.261.386-.494.789-.698 1.207a14.3 14.3 0 0 1-1.725 2.07c-.659.721-1.38 1.383-2.152 1.98-.647.43-1.225.953-1.718 1.553l-.862 1.5c-.142.254-.407.417-.698.427-.75 0-1.462-.795-1.897-2.152-.315-1.005-.593-1.298-1.245-1.298-.509.03-1.012.118-1.5.263l-1.208.172H52.11a13.97 13.97 0 0 0-4.74.863 2.36 2.36 0 0 1-.892.277c-.21 0-.338-.12-.563-.54-.14-.202-.208-.444-.195-.69 0-1.575 1.118-4.537 2.603-6.892.579-1.066 1.37-2.003 2.325-2.753-.242-1.33-1.157-2.445-2.415-2.94l-1.523-.397c-.2-.049-.346-.222-.36-.428 0-.442.705-1.057 1.988-1.732a10.79 10.79 0 0 1 4.732-1.38c1.635.077 3.194.719 4.41 1.815 2.333 1.83 2.963 2.152 4.103 2.152 1.889-.073 3.442-1.565 3.592-3.45 0-1.177-.63-2.445-2.25-4.567-2.415-3.105-3.127-4.725-3.127-6.998a8.67 8.67 0 0 1 .967-4.027l.863-1.298a1.51 1.51 0 0 0 .285-.825c0-.57-.66-.982-1.56-.982-1.365 0-3.968.967-6.053 2.25-1.035.63-1.732 1.38-1.732 1.83-.012.269.123.525.352.667l.953.608c.118.077.189.211.187.352-.064.253-.19.485-.367.675l-1.718 2.25a29.02 29.02 0 0 1-3.622 3.788c-.311.263-.6.552-.863.862s-.232.458-.69 1.298c-.972 1.535-2.248 2.855-3.75 3.877a6.45 6.45 0 0 0-1.2.945 7.48 7.48 0 0 0-.69 1.208c-.225.427-.6 1.027-1.125 1.807a19.44 19.44 0 0 1-2.07 2.678l-2.407 2.415c-.75.75-1.395 2.175-2.415 5.332-.615 1.913-1.163 3-1.5 3-.135 0-.383-.187-.675-.517-1.733-1.957-3.233-3.105-3.983-3.105a2.38 2.38 0 0 0-.96.443c-.715.426-1.504.716-2.325.855l-3.195.607c-2.4.458-3.352.975-4.74 2.588-.33.382-.6.6-.75.6-.262 0-.457-.428-.457-1.005l.09-.803.435-2.325c.282-1.947.861-3.839 1.717-5.61l1.5-2.67a3.1 3.1 0 0 0 .428-1.395c0-1.987-2.055-3.802-4.568-4.027-.63-.06-.87-.218-.87-.563s.705-1.305 1.643-2.025c1.732-1.312 3.99-2.25 5.437-2.25 1.342.122 2.653.472 3.878 1.035l1.89.75a5.03 5.03 0 0 0 1.92.443c2.01 0 3.952-1.823 6.352-5.955 1.08-1.853 1.553-3.203 1.553-4.418 0-2.182-1.035-3.51-2.738-3.51-1.415.043-2.759.632-3.75 1.643-.783.672-1.265 1.632-1.335 2.662v1.17c0 .803-.27 1.253-.75 1.253-.81 0-1.995-1.163-5.377-5.25-2.52-3.06-3.083-4.365-3.188-7.418-2.925-3.75-3.652-5.302-3.652-7.957l.12-1.778c-2.018-2.43-2.595-3.75-2.595-6 .003-.791.215-1.567.615-2.25-.781-.987-1.341-2.131-1.643-3.352l-.427-1.815c-.254-1.139-.723-2.218-1.38-3.18C9.075 32.625 9 32.475 9 32.093c0-.998.69-1.403 3.705-2.145a14.6 14.6 0 0 1-.18-1.913c.024-.692.114-1.38.27-2.055l.608-3.188c.193-.908.314-1.831.36-2.759-.225-1.642-.698-3.241-1.403-4.741a3.38 3.38 0 0 1-.525-1.177c0-.3.218-.472.6-.472.855 0 3.113 1.365 5.445 3.292 4.943 4.095 5.963 5.737 6.638 10.687.045.383.135.96.255 1.726 2.37 1.747 3.615 3.847 3.615 6.104a10.68 10.68 0 0 1-1.725 5.528l-1.725 2.67a5.28 5.28 0 0 0-.75 2.85c.06 1.839.623 3.626 1.627 5.168 1.328 2.31 2.445 3.277 3.84 3.277 2.25 0 4.275-3.96 4.275-8.46v-2.152a22.2 22.2 0 0 1 .188-2.835c.157-1.343.24-2.175.255-2.498l.09-2.077v-1.358a2.61 2.61 0 0 0-.893-1.657l-1.89-2.055c-2.752-3-4.26-5.805-4.26-7.913l-.004-.18c0-2.415 1.988-4.403 4.403-4.403.632.024 1.246.138 1.834.338v-.592c0-3.795.75-6.6 1.83-6.6l.405.127 1.56 1.38 1.897 1.2.518.518c0-1.066.045-1.178 1.117-2.408.263-.3.653-.855 1.2-1.642.443-.63.75-1.065.863-1.29.158-.242.303-.493.435-.75.232-.435.457-.638.75-.638s.427.315.75 1.253c.202.585.345.75 1.807 2.062.395.323.744.699 1.035 1.118a12.12 12.12 0 0 1 .69 1.725l.263.682a5.27 5.27 0 0 1 1.725-1.545l1.282-.75c.293-.207.621-.359.968-.45.105 0 .27.21.412.533s.375.75.698 1.297c.915 1.598 1.222 2.362 1.222 3.112v1.883c2.82.885 3.878 2.355 3.878 5.392 0 2.206-1.148 4.718-3.36 7.358-1.5 1.77-1.658 2.115-1.658 3.353 0 6.375 4.44 10.065 12.255 10.185l5.775.082c3.196-.03 6.372.493 9.39 1.545 4.095 1.343 5.25 1.643 6.473 1.643.397-.002.784-.125 1.11-.353a1.03 1.03 0 0 0 .517-.75c0-1.215-2.122-2.175-9.052-4.147-14.205-4.028-20.25-9.75-20.25-19.163 0-7.275 6.052-12.907 13.867-12.907 2.93.078 5.833.583 8.618 1.5l3.532 1.297c.593.223 1.219.342 1.853.353 1.2 0 1.815-.998 1.852-3 0-1.088.27-1.463.983-1.463.997 0 2.535 1.245 3.93 3.188s2.325 4.177 2.325 5.662c0 1.958-.908 3.323-3 4.5-1.928 2.94-4.313 4.305-7.5 4.305-2.498 0-6-1.41-11.88-4.732-2.048-1.17-3.075-1.553-4.155-1.553-1.5 0-2.52.885-2.52 2.25 0 1.23.967 2.04 3.487 2.925 3.75 1.298 4.635 1.808 6.12 3.36 4.388.75 6.3 1.5 9.045 3.623 7.568 2.4 12.255 7.545 12.255 13.5 0 5.745-3.892 9.885-9.3 9.885a17.05 17.05 0 0 1-4.072-.525m160.762-.158l.345 1.298.69 2.752c1.095 4.92 2.003 6.218 4.403 6.218a2.86 2.86 0 0 0 2.835-1.905l.517-1.725a.83.83 0 0 1 .825-.63c.938 0 1.44 1.035 1.5 3.127.03.795.203 2.203.518 4.223.219 1.318.334 2.653.345 3.99.006.852-.17 1.696-.518 2.475l.173 1.035c.215 1.039.338 2.096.367 3.157 0 3.698-.18 4.793-1.057 6.233a10.86 10.86 0 0 1 .45 3.097c-.031 1.005-.124 2.007-.278 3L257.13 96l.09 1.553c.152.331.267.678.345 1.035a.4.4 0 0 1-.345.435l-1.725-.69-1.897-1.035c-.729-.418-1.393-.938-1.973-1.545-1.672 1.5-1.905 1.605-3.885 2.145-2.865.787-3.915 1.155-4.5 1.552-.345.293-.753.501-1.192.608-.675 0-1.14-1.298-1.14-3.203 0-2.752.165-4.177.6-5.25a10.85 10.85 0 0 0-3.128-.75c-.424.018-.846.076-1.26.173h-.39c-.247 0-.397-.308-.397-.818a10.42 10.42 0 0 1 1.387-3.952c1.08-1.928 2.865-3.525 4.223-3.788l3.105-.607c1.845-.36 2.932-1.328 2.932-2.618s-.802-2.055-2.67-2.722l-3.622-1.298c-1.203-.423-2.359-.968-3.45-1.627-.908-.563-1.545-.938-1.898-1.125a1.92 1.92 0 0 0-.93-.263c-.75 0-1.23.555-1.23 1.5-.042 1.417 1.081 2.621 2.498 2.678.299-.002.594-.063.87-.18.249-.129.517-.218.795-.263.39 0 .682.383.682.923a10.92 10.92 0 0 1-1.995 5.46l-1.035 1.29-.75 1.027c-.3 2.25-2.467 5.408-4.665 6.818a5.86 5.86 0 0 0-.945.682c-.067.083-.292.495-.682 1.208-.512.74-1.089 1.433-1.725 2.07-.659.724-1.382 1.387-2.16 1.98-.647.429-1.225.952-1.718 1.552l-.862 1.5c-.12.266-.384.439-.675.443-.75 0-1.5-.803-1.913-2.168-.322-1.005-.592-1.297-1.245-1.297a6.7 6.7 0 0 0-1.5.262l-1.215.173h-3a14.06 14.06 0 0 0-4.822.862 2.42 2.42 0 0 1-.9.278c-.435 0-.675-.45-.675-1.32 0-2.73 2.1-6.885 4.845-9.555-.405-1.59-1.238-2.64-2.333-2.94l-1.545-.42c-.156-.083-.256-.244-.262-.42 0-.555.615-1.095 1.98-1.74 2.445-1.155 3.165-1.38 4.5-1.38 1.668.046 3.266.69 4.5 1.815 2.34 1.822 3 2.16 4.102 2.16 1.89-.07 3.446-1.558 3.6-3.443 0-1.2-.652-2.52-2.25-4.582-2.295-2.933-3.105-4.845-3.105-7.328 0-1.665.338-2.572 1.815-4.995a2.04 2.04 0 0 0 .36-.907c0-.48-.75-.9-1.65-.9-1.266.093-2.499.445-3.622 1.035-2.595 1.192-4.14 2.295-4.14 3 .011.306.174.588.435.75l.862.607c.12.08.191.216.188.36a1.38 1.38 0 0 1-.36.668c-.587.739-1.16 1.489-1.718 2.25a19.78 19.78 0 0 1-3.615 3.787 3.74 3.74 0 0 0-.877.863l-.683 1.297c-.983 1.512-2.239 2.827-3.705 3.878a9.43 9.43 0 0 0-1.2.945c-.292.374-.543.779-.75 1.207-.899 1.611-1.97 3.12-3.195 4.5l-2.317 2.415c-.668.69-1.605 2.678-2.505 5.333-.705 2.085-1.163 3-1.5 3-.143 0-.39-.188-.675-.518-1.673-1.912-3.173-3.105-3.908-3.105a2.56 2.56 0 0 0-1.005.435 7.09 7.09 0 0 1-2.325.855l-3.105.608c-2.595.502-3.63 1.065-4.83 2.587-.292.383-.54.6-.682.6-.3 0-.533-.442-.533-1.05l.105-.75c0-.082.158-.862.42-2.325a19.61 19.61 0 0 1 1.733-5.61l1.552-2.67a2.88 2.88 0 0 0 .428-1.387c0-1.988-1.853-3.593-4.65-4.035-.578-.09-.87-.308-.87-.63s.675-1.163 1.732-1.958c1.823-1.387 3.84-2.25 5.25-2.25a11.33 11.33 0 0 1 3.953 1.028l1.89.75c.606.274 1.261.424 1.927.442 2.01 0 3.945-1.822 6.353-5.955 1.08-1.86 1.552-3.202 1.552-4.432 0-2.183-1.02-3.495-2.715-3.495-1.394.025-2.72.619-3.667 1.642-.812.694-1.325 1.675-1.433 2.738l.053.877v.458c0 .697-.233 1.012-.75 1.012-.645 0-1.41-.63-2.895-2.422L182.94 67.5c-2.617-3.06-3.165-4.297-3.27-7.417-2.932-3.75-3.645-5.798-3.645-7.958l.105-1.777c-2.092-2.513-2.497-3.488-2.497-6a3.93 3.93 0 0 1 .517-2.303 8.67 8.67 0 0 1-1.635-3.352l-.435-1.815c-.252-1.139-.72-2.219-1.38-3.181-.75-1.109-.862-1.274-.862-1.597 0-.907.862-1.5 3-2.025l.69-.172a14.6 14.6 0 0 1-.18-1.913c.02-.692.108-1.38.262-2.055l.608-3.187a17.03 17.03 0 0 0 .352-2.828 8.71 8.71 0 0 0-.525-2.685c-.192-.7-.483-1.369-.862-1.987a2.31 2.31 0 0 1-.518-1.125c0-.3.293-.525.683-.525a2.13 2.13 0 0 1 .87.277 33.93 33.93 0 0 1 8.355 6.63c1.957 2.175 2.572 3.975 3 8.798 2.64 1.965 3.63 3.75 3.63 6.532a9.12 9.12 0 0 1-1.733 5.1l-1.725 2.67c-.505.888-.764 1.896-.75 2.918 0 1.56.473 3 1.643 5.1 1.29 2.25 2.445 3.277 3.817 3.277 2.25 0 4.305-3.915 4.305-8.212v-3.173l.263-2.062.172-2.498.173-2.077.06-1.148c0-.847-.173-1.095-2.828-3.922-2.925-3.15-4.312-5.783-4.312-8.25.06-2.365 2.029-4.273 4.395-4.26.62.023 1.234.137 1.822.337V18.6l.083-1.807.517-2.25c.413-1.785.6-2.108 1.215-2.108l.428.128 1.545 1.38 1.897 1.2.518.517c.12-1.072.217-1.282 1.125-2.407a25.37 25.37 0 0 0 1.2-1.643l.862-1.29.518-.75c.345-.51.495-.645.75-.645s.39.3.66 1.26c.139.433.4.818.75 1.11l1.125.953a6.18 6.18 0 0 1 1.89 3.524c.449-.639 1.039-1.168 1.725-1.544l1.38-.75c.28-.19.585-.339.907-.443.09 0 .24.21.383.525a10.68 10.68 0 0 0 .69 1.298c1.117 1.785 1.215 2.032 1.215 3.24v1.755c2.797.75 3.885 2.25 3.885 5.37 0 2.317-1.058 4.702-3.285 7.38-1.5 1.777-1.725 2.325-1.725 3.652 0 6.083 4.582 9.75 12.33 9.885l5.685.083a27.74 27.74 0 0 1 9.39 1.545c3.99 1.312 5.295 1.642 6.502 1.642.878 0 1.605-.495 1.605-1.072 0-1.253-2.092-2.213-9.045-4.185-14.197-4.013-20.25-9.75-20.25-19.155 0-7.283 6.075-12.908 13.943-12.908 2.907.085 5.787.591 8.55 1.5l3.525 1.298c.595.222 1.224.342 1.86.352 1.215 0 1.672-.75 1.852-3 .083-1.012.405-1.462 1.05-1.462.908 0 2.67 1.417 3.945 3.187s2.25 4.215 2.25 5.783c0 1.83-.96 3.225-3 4.387-1.935 2.94-4.312 4.305-7.5 4.305-2.452 0-6.615-1.657-11.872-4.732-2.063-1.215-3-1.553-4.125-1.553-1.553 0-2.543.87-2.543 2.25 0 1.238.915 2.018 3.473 2.925 4.08 1.455 4.957 1.935 6.12 3.36 4.395.75 6.3 1.5 9.052 3.623 7.86 2.52 12.24 7.38 12.24 13.597 0 5.663-3.847 9.75-9.18 9.75a16.83 16.83 0 0 1-4.185-.525"/><path d="M87.203 219.75c.584 1.285.964 2.654 1.125 4.058l.172 3.615c.125 3.625 1.33 5.435 3.615 5.43.687.047 1.366-.17 1.898-.608l.952-.945.375-.112c.6 0 .93.397.93 1.125l-.105 1.402a19.85 19.85 0 0 0 .345 3.96c.172 1.152.26 2.315.263 3.48a9.23 9.23 0 0 1-.75 4.193 16.33 16.33 0 0 1 .945 5.197 7.01 7.01 0 0 1-1.028 4.193 11.48 11.48 0 0 1 .428 2.925c-.037 1.121-.165 2.237-.383 3.337a17.11 17.11 0 0 0-.337 4.132v.225c0 .54-.173.81-.503.81-.436-.069-.823-.32-1.065-.69-.525-.675-.862-.922-1.26-.922-.6 0-.787.315-1.672 2.91a11.41 11.41 0 0 1-2.063 3.18 7.36 7.36 0 0 0-1.552 2.505l-.518 1.807c-.084.224-.282.387-.517.428h-.105c-1.418 0-3.053-3-4.718-8.798-.472-1.612-1.072-2.339-1.95-2.339-.643.008-1.227.385-1.5.967l-.525 1.2c-.067.196-.244.334-.45.353-.69 0-1.74-1.253-2.392-2.85a10.94 10.94 0 0 1-.84-3.96c0-2.7 1.987-4.718 7.995-8.108 2.61-1.5 3.622-3.337 3.622-6.75 0-2.677-.802-4.207-3.105-5.947-1.822-1.373-2.88-1.898-3.84-1.898a1.48 1.48 0 0 0-.116-.005 1.35 1.35 0 0 0-1.339 1.25c0 .81.465 1.305 1.59 1.702 1.328.465 1.905.938 1.905 1.5a8.25 8.25 0 0 1-1.5 3.12 8.06 8.06 0 0 1-2.76 2.85c-.405 2.363-1.5 3.885-4.14 5.595-.353 1.169-.94 2.253-1.725 3.188l-1.8 2.325a7.29 7.29 0 0 0-1.297 2.678c-.188 1.312-.315 1.552-.818 1.552-.682 0-2.085-1.215-3.495-3a4.21 4.21 0 0 1-1.117-2.842c-.9.697-1.178.802-2.933 1.027-.802.08-1.586.285-2.325.607a6.62 6.62 0 0 1-1.995.893c-.352 0-.48-.195-.502-.81l-.09-1.89c.052-2.76.956-5.438 2.587-7.665a8.5 8.5 0 0 0-4.222-2.25c-.51-.045-.645-.112-.645-.3.127-.593.409-1.141.817-1.59a12.77 12.77 0 0 1 1.553-1.725c1.43-1.117 3.18-1.751 4.995-1.807 1.692.132 3.351.54 4.912 1.207.655.262 1.35.407 2.055.428.953 0 1.5-.608 1.5-1.703 0-1.56-.75-4.012-2.505-7.95-1.177-2.67-1.71-4.447-1.71-5.692 0-3 1.41-6.083 3.173-6.975a3.56 3.56 0 0 0-1.928-.518c-.943.025-1.858.325-2.632.863-1.29.75-1.995 1.402-1.995 1.837 0 .173.262.443.697.75.675.473.788.653.788 1.275 0 2.13-1.77 4.973-4.23 6.825a7.58 7.58 0 0 1-4.658 6.113c-.352 1.642-.585 2.13-1.897 3.967-2.25 3.173-2.783 4.163-3.188 5.948-.21.922-.42 1.305-.705 1.305s-1.132-.57-1.965-1.5c-.493-.517-.953-1.063-1.38-1.635-.475-.858-.798-1.792-.952-2.76a3.47 3.47 0 0 1-1.223.21h-2.122c-1.701-.045-3.388.317-4.92 1.057-.226.163-.48.28-.75.345-.563 0-1.005-1.17-1.005-2.617-.017-3.073.994-6.065 2.872-8.498-.584-.474-1.131-.993-1.635-1.553-.204-.23-.436-.434-.69-.607l-.952-.518c-.323-.172-.518-.389-.518-.562 0-.458 1.26-1.65 2.76-2.618a7.83 7.83 0 0 1 4.17-1.559c1.418-.001 2.168.367 3.938 1.904 1.215 1.065 2.047 1.545 2.647 1.545.503-.049.956-.325 1.23-.75a2.25 2.25 0 0 0 .435-1.282c0-1.65-1.972-4.433-4.147-5.873-1.516-1.035-3.303-1.604-5.138-1.635-2.217-.083-4.295 1.111-5.34 3.068l-.945 1.972c-.225.473-.502.705-.825.705-.547 0-.84-.247-2.797-2.505l-2.25-2.587a6.84 6.84 0 0 1-1.38-2.25 6.91 6.91 0 0 0-.428-1.118c-.266-.259-.557-.49-.87-.69-1.717-1.222-3-3.645-3.697-7.155-.078-.374-.166-.747-.263-1.117a14.18 14.18 0 0 1-3.367-8.573 4.01 4.01 0 0 1 .18-1.17c-1.223-1.237-1.373-1.5-2.325-4.822-.69-2.355-1.133-3.353-1.988-4.5-.172-.188-.291-.419-.345-.668 0-.465.75-.855 1.988-1.057a8.77 8.77 0 0 1 1.732-.203l1.71.113-.097-2.355a16.51 16.51 0 0 1 .442-3.93 10.11 10.11 0 0 0 .263-1.807c0-.151-.06-.638-.173-1.5-.046-.438-.134-.87-.262-1.291-.102-.238-.165-.491-.188-.75 0-.277.188-.419.525-.419a2.98 2.98 0 0 1 1.133.375 21.33 21.33 0 0 1 3.697 2.25c3 2.317 5.31 5.902 5.31 8.122l-.052.668-.173 1.267a2.64 2.64 0 0 0 .608 1.403l.945 1.297c.775.969 1.257 2.141 1.387 3.375 0 .81-.172 1.163-1.56 3.173a6.54 6.54 0 0 0-1.462 3.855 11.65 11.65 0 0 0 1.725 5.452c1.02 1.785 2.19 2.768 3.315 2.768 1.927 0 2.752-1.703 3.06-6.308.165-2.392.39-4.545.69-6.547l.09-1.178c0-.54-.158-.847-.863-1.665l-2.587-3c-2.468-2.872-3.21-4.365-3.21-6.427 0-2.37 1.56-4.013 3.81-4.013l1.035.098v-.683a8.82 8.82 0 0 1 .442-2.325c.54-1.86 1.223-3.277 1.583-3.277a2.53 2.53 0 0 1 .832.427 13.21 13.21 0 0 0 1.545.608 8.91 8.91 0 0 1 1.725.855c.229-1.09.698-2.115 1.373-3 1.117-1.433 2.385-2.588 2.827-2.588.27 0 .75.375 1.403 1.042l1.635 1.718c.4.494.718 1.048.945 1.643l.345.75 1.035-.601c.675-.404 1.14-.674 1.38-.75l1.635-.75a2.47 2.47 0 0 1 .892-.442c.285 0 .45.51 1.095 3.368a19.41 19.41 0 0 1 .6 3.794c2.753.39 4.05 1.958 4.05 4.92 0 2.775-1.365 5.535-4.305 8.693-.802.862-.997 1.268-.997 2.07 0 7.612 2.647 10.012 12.195 11.032 5.872.615 7.612.99 14.647 3.098 3.713 1.11 5.835 1.575 7.208 1.575 1.627 0 2.535-.593 2.535-1.643 0-1.597-1.148-2.107-8.018-3.547-15.96-3.368-22.23-8.828-22.23-19.343-.003-.111-.004-.222-.004-.333 0-7.031 5.786-12.817 12.817-12.817l.297.003c3.3 0 6.263.998 10.935 3.705 4.328 2.513 5.25 2.932 6.218 2.932 1.17 0 1.62-.75 1.62-2.61 0-1.207.367-1.792 1.125-1.792s1.732.713 2.67 1.815c1.432 1.687 1.98 2.55 1.98 4.897 0 3.105-1.658 5.153-4.913 6.045l-.75.863c-1.755 1.995-3.315 2.677-6.15 2.677a14.34 14.34 0 0 1-7.627-2.505l-4.14-2.932c-1.785-1.26-3.09-1.808-4.343-1.808a2.66 2.66 0 0 0-.236-.01 2.61 2.61 0 0 0-2.595 2.595 2.47 2.47 0 0 0 .011.243 3.94 3.94 0 0 0 3 3.75l3.885 1.2c1.282.392 2.52.912 3.698 1.552a12.21 12.21 0 0 1 1.927-.187c2.551.015 5.063.627 7.335 1.785.497.274 1.016.505 1.553.69l2.145.607c4.897 1.365 8.887 6.848 8.887 12.18 0 6.098-3.952 9.885-10.327 9.885l-2.04-.112zm149.94-1.275c1.5 1.987 3.607 3.292 5.347 3.292.785-.041 1.564-.161 2.325-.36.382-.101.775-.154 1.17-.157.42 0 .593.165.593.555a5.53 5.53 0 0 1-.45 1.605c-.213.501-.386 1.017-.518 1.545l-.337 1.815-.863 1.552-1.207 1.125-.345.345v1.163c.157 1.802-.754 3.538-2.326 4.432-.207.135-.407.28-.599.435l-.173.69c-.219 1.019-.507 2.021-.863 3-.478.848-1.028 1.653-1.642 2.408a15.48 15.48 0 0 0-2.145 3.54c-.353.862-.63 1.102-1.185 1.102-.863 0-1.695-1.057-1.838-2.31-.13.185-.275.358-.435.518l-1.035.69-1.627 1.11c-.483.313-.944.659-1.38 1.035l-.953.952c-.124.149-.302.243-.495.263-.435 0-.885-.75-1.312-2.16l-.863-2.843a9.68 9.68 0 0 1-.352-2.782c-.07-1.06.139-2.121.607-3.075-1.055.053-2.098.255-3.097.6a2.66 2.66 0 0 1-.75.18c-.285 0-.458-.203-.458-.54.065-.439.181-.87.345-1.283L221.4 234c.87-2.25 3.675-4.335 5.902-4.335a7.37 7.37 0 0 1 2.206.457c.417.151.854.242 1.297.27.025.002.051.002.076.002.922 0 1.689-.738 1.724-1.659-.014-.468-.277-.895-.69-1.118-.142-.067-1.177-.382-3.097-.952-1.448-.42-2.168-.953-3.803-2.835-1.177-1.365-1.635-1.755-2.07-1.755s-.51.217-.51.607l.09 1.148v.525c0 2.392-.75 4.68-2.445 7.83l-2.407 4.387a10.68 10.68 0 0 0-1.643 5.25c0 1.733.75 3.278 1.725 3.533l1.297.345a.83.83 0 0 1 .691.757 1.5 1.5 0 0 1-.436.75c-.157.18-.667.84-1.552 1.988-1.5 1.942-2.423 2.64-4.23 3.195-1.035 2.52-2.73 3.99-5.768 4.995l-.345.6c-1.035 1.8-3.307 3.45-4.755 3.45h-.322c-.358 1.81-1.443 3.397-3 4.387-.691.462-1.354.963-1.988 1.5-.169.233-.31.485-.42.75-.39.855-.75 1.215-1.23 1.215-.922 0-1.687-.855-2.25-2.505-.337.225-.6.398-.75.518-.982.682-1.5 1.065-1.642 1.117a20.47 20.47 0 0 1-3 .863c-2.108.502-3.945 1.395-4.395 2.152l-.75 1.298-.353.142c-.42 0-.907-.585-1.11-1.35-.437-1.577-.689-3.201-.75-4.837 0-3.068 1.013-5.055 4.14-8.175v-.75c0-4.755 3.638-7.995 9-7.995h.855l2.933.165h.277a7.15 7.15 0 0 0 4.635-1.905c2.1-1.725 2.715-2.782 2.715-4.717 0-.6-.172-1.305-.825-3.465a14.04 14.04 0 0 1-.637-4.058c0-3.547 2.617-7.972 6.15-10.425.915-.63 1.597-1.455 1.597-1.942 0-.203-.105-.368-.232-.368a2.19 2.19 0 0 0-1.103.683c-.634.512-1.329.946-2.07 1.29l-1.372.69-1.553.6c-.472.187-.75.45-.75.75a2.1 2.1 0 0 0 .195.75 2.03 2.03 0 0 1 .173.63c-.065.366-.214.713-.435 1.012l-1.2 1.973c-1.185 1.95-2.033 2.767-3.54 3.457-.96 2.828-2.355 4.275-4.388 4.56-1.627 3.278-3.06 4.425-5.947 4.74-.398 1.26-1.088 2.318-2.588 3.96-.413.425-.787.887-1.117 1.38-.668 1.223-.75 1.298-1.043 1.298-.77-.234-1.458-.684-1.98-1.298a5 5 0 0 1-.75-1.035l-.787-1.38c-.24-.435-.503-.637-.825-.637h-.548l-1.897.255c-1.34.252-2.554.953-3.443 1.987l-1.102 1.733a.54.54 0 0 1-.42.255c-.75 0-1.245-1.703-1.245-4.5 0-2.475.382-4.118 1.23-5.303l2.415-3.36c.299-.374.479-.828.517-1.305a1.72 1.72 0 0 0-.427-1.102c-.335-.487-.82-.85-1.38-1.035l-1.815-.263c-.323-.045-.45-.12-.45-.27.031-.221.128-.427.277-.592a8.48 8.48 0 0 1 2.16-1.898c2.123-1.297 3.533-1.815 4.973-1.815 1.612.06 3.174.58 4.5 1.5l2.505 1.643c.357.232.774.354 1.2.352 1.147 0 2.032-.69 2.85-2.25a8.34 8.34 0 0 0 1.11-4.005c.003-.073.005-.147.005-.22a5.39 5.39 0 0 0-5.363-5.363c-.056 0-.113.001-.169.003-1.652.049-3.239.658-4.5 1.725-.359.242-.655.566-.863.945l-.69 1.552c-.172.368-.412.601-.622.601-.435 0-1.41-1.245-2.25-2.843a18.59 18.59 0 0 1-1.208-3.105 14.04 14.04 0 0 1-.75-4.298l.128-2.332a8.67 8.67 0 0 1-1.56-5.332 9.85 9.85 0 0 1 .615-3.001c-.718-1.145-1.052-2.491-.953-3.839l.09-1.073.255-1.207.173-1.036c-.833-1.087-1.08-1.8-1.898-5.595-.457-2.137-.75-3.067-1.125-3.622a1.29 1.29 0 0 1-.247-.51c0-.51 1.2-.96 2.572-.96l1.215.097c-.248-.548-.374-1.145-.367-1.747.02-1.169.232-2.327.63-3.428a6.63 6.63 0 0 0 .547-2.107 8.36 8.36 0 0 0-.375-2.633l-.69-1.717a2.4 2.4 0 0 1-.225-.893c0-.172.113-.232.435-.232 1.695 0 4.913 1.822 7.455 4.222s3.338 4.298 3.338 7.853l-.15 1.882c2.347 2.055 3.375 3.75 3.375 5.611 0 1.342-.435 2.25-1.74 3.525-2.325 2.317-2.85 3.51-2.85 6.487 0 4.575 1.365 7.05 3.892 7.05 2.25 0 3.938-2.415 4.215-5.955l.255-3.27c.075-.848.218-1.89.435-3.105.139-.743.227-1.495.263-2.25 0-1.17-.75-2.618-3-5.25-2.423-2.835-3.24-4.35-3.24-6.563 0-2.655 1.83-4.597 4.32-4.597.592-.005 1.173.162 1.672.48 0-1.5.098-1.778.945-3.885.683-1.658 1.395-2.843 1.733-2.843.112 0 .292.128.517.353a7.94 7.94 0 0 0 1.118.945l.862.607c.27.23.52.481.75.75a8.39 8.39 0 0 1 2.67-4.402c1.208-1.178 1.658-1.545 1.898-1.545.253.051.472.21.6.435l1.035 1.373 1.5 1.642c.555.615.75 1.155 1.035 2.663l.862-.51 1.373-.75a13.49 13.49 0 0 0 1.035-.69c.156-.137.344-.232.547-.278.143 0 .308.263.405.623l.518 1.98 1.117 2.25c.345.697.497 1.474.443 2.25v.532h.577c1.703 0 3.158 2.003 3.158 4.32 0 3.068-2.438 7.043-5.625 9.143-.247.724-.369 1.485-.36 2.25 0 6.855 1.792 8.302 12.337 9.87 2.382.333 4.739.822 7.058 1.462.34.095 2.61.845 6.81 2.25 1.634.635 3.357 1.015 5.107 1.125 1.283 0 1.988-.367 1.988-1.042 0-1.17-1.718-2.25-7.005-4.305l-7.5-2.925c-7.62-3-11.25-7.635-11.25-14.49-.003-.109-.004-.218-.004-.327 0-7.476 6.151-13.628 13.627-13.628l.349.005c3 0 5.955.615 10.178 2.152 5.437 1.988 5.722 2.07 6.307 2.07 1.05 0 1.628-.75 1.785-2.25.143-1.275.488-1.807 1.2-1.807 1.065 0 2.213.982 3 2.587a10.27 10.27 0 0 1 1.118 4.5c0 2.85-1.5 4.71-4.223 5.25a8.39 8.39 0 0 1-6.937 3.57c-3.435 0-5.13-.682-10.98-4.342-2.1-1.313-3-1.635-4.5-1.635-2.063 0-3.578 1.267-3.578 3 0 1.575 1.275 2.61 4.14 3.367 1.703.45 1.958.578 2.843 1.5.466-.13.948-.2 1.432-.21 2.798 0 6.248 1.5 9.165 4.005 5.318 1.643 10.035 7.373 10.035 12.173 0 5.325-4.605 10.08-9.75 10.08a34.42 34.42 0 0 1-6.66-1.058"/><g class="B"><path d="M94.095 94.822c-.183-.68-.289-1.38-.315-2.084l.06-.675.255-1.38.09-1.11c.073-.908-.139-1.815-.607-2.595l-1.028-1.38a6.02 6.02 0 0 1-.87-1.635 2.39 2.39 0 0 1-.165-.75.49.49 0 0 1-.003-.054.58.58 0 0 1 .578-.578c.013 0 .027.001.04.002.24 0 .33.045 1.11.502.251.167.54.267.84.293.51 0 .795-.833.795-2.295 0-1.665-.157-2.58-.517-3l-1.29-1.5-1.125-.945c-.244-.181-.405-.451-.45-.75a.64.64 0 0 1 .637-.634c.023 0 .045.001.068.004.648.059 1.286.203 1.897.427l.398.098c.344 0 .495-.21.495-.75v-.315l-.263-1.815-.518-1.898c-.165-.615-.255-.705-.644-.705h-.218l-2.16.435h-.338c-2.82 0-5.797-2.385-6.75-5.377l-1.725-5.595c-.532-1.733-1.822-3.368-4.132-5.25-.485-.456-1.079-.779-1.725-.938l-1.53-.075c-.285 0-.465-.203-.465-.435 0-.36.33-.518 1.073-.518l2.85.263c1.589.229 3.149.634 4.65 1.208 1.844.728 3.794 1.154 5.775 1.26 4.312 0 6.885-2.333 6.885-6.226a10.88 10.88 0 0 0-3.518-7.604c-1.207-1.095-2.415-1.906-2.835-1.906-.244.005-.443.206-.443.45l.098 1.111v.097c0 .435-.262.75-.592.75s-.93-.57-1.5-1.725c-1.635-3.382-4.215-5.407-6.9-5.407-.45 0-.75.187-.75.465a4.9 4.9 0 0 0 .427 1.237l.69 1.545a3 3 0 0 1 .285.795c0 .105-.165.195-.367.195a2.45 2.45 0 0 1-1.5-.817l-1.29-1.373-1.125-1.725c-.9-1.38-1.628-1.995-3.533-3l-2.07-1.11a2.18 2.18 0 0 0-1.072-.345.46.46 0 0 0-.064-.005.4.4 0 0 0-.397.397c0 .017.001.034.003.051.018.336.129.661.323.937a4.78 4.78 0 0 1 .892 1.725.49.49 0 0 1-.442.51c-.675 0-2.07-1.35-3.293-3.187a8.8 8.8 0 0 1-1.552-4.845l-.004-.22c0-3.415 2.81-6.225 6.225-6.225l.146.002c2.311.136 4.547.879 6.48 2.153l4.043 2.497c1.425.881 3.039 1.413 4.71 1.553a11.78 11.78 0 0 0 2.535-.428c.359-.098.704-.242 1.027-.427.24-.15.413-.345.413-.488.007-.165-.089-.317-.24-.382l-.51-.165-1.898-.353c-.808-.196-1.591-.486-2.332-.862-1.477-.633-2.914-1.352-4.305-2.153-.895-.636-1.85-1.184-2.85-1.635-.698-.24-1.125-.547-1.125-.817a.26.26 0 0 1-.004-.048.34.34 0 0 1 .338-.337l.041.002c.334.026.656.143.93.338.937.676 2.037 1.092 3.187 1.207l3.75 1.29a22.57 22.57 0 0 0 5.7 1.23c1.557-.004 2.835-1.286 2.835-2.842-.144-1.372-.664-2.671-1.5-3.758-.202-.278-.412-.435-.585-.435-.345 0-.532.24-.532.683l.082.69.135 1.034.006.148a1.86 1.86 0 0 1-1.716 1.848c-.461-.018-.917-.109-1.35-.271l-5.625-1.867c-4.695-1.5-6.87-1.98-9.217-1.98-6.75 0-11.805 4.605-11.805 10.65 0 6.87 4.807 11.288 16.71 15.375 11.715 4.012 13.357 4.995 13.357 8.01 0 1.733-1.747 3.278-3.712 3.278-.692.011-1.383-.047-2.063-.173-.39-.083-2.347-.54-5.857-1.38a43.72 43.72 0 0 0-10.725-1.208c-8.453 0-13.14 1.5-17.198 5.431-1.005.99-1.35 1.14-2.52 1.14h-.577l-1.208-.09h-.157a2.72 2.72 0 0 0-2.423 1.552l-1.5 2.333c-.23.314-.594.502-.982.509-.75 0-1.245-.584-2.115-2.669-.409-.985-1.029-1.868-1.815-2.588l-1.725-1.552c-.221-.161-.375-.395-.435-.66.044-.294.166-.571.352-.803.542-.666.952-1.43 1.208-2.25.225-1.14.262-1.207.75-1.207s.69.532.75 2.505c.079.811.313 1.601.69 2.325l.952 2.069a.82.82 0 0 0 .75.436c.893-.001 2.025-2.093 2.325-4.313.255-1.845.443-2.423.833-2.423a.46.46 0 0 1 .375.18c.09.128.345.646.75 1.546a3.42 3.42 0 0 0 1.117 1.297c.309.258.659.463 1.035.607h.113c.697 0 .93-.457 1.095-2.077l.09-.862-.173-1.215-.12-.825c0-.555.188-.9.51-.9.252.035.483.163.645.36l.863.855c.428.504 1.042.818 1.702.87.713 0 1.163-.3 1.163-.75s-.173-.818-.803-1.988l-.607-1.125c-.69-1.297-1.23-1.815-1.883-1.815l-.87.09-1.035.428a2.19 2.19 0 0 1-.667.195c-.158 0-.278-.143-.278-.345 0-.75.51-1.98 1.5-3.51.683-1.088 1.163-3.413 1.373-6.75.307-4.5.9-7.403 1.537-7.403.42 0 .585.36.585 1.313L53.85 27.9v.825c0 .81.173 1.455.383 1.455.75 0 1.612-1.095 2.317-2.88a5.49 5.49 0 0 0 .435-1.8l-.097-.397-1.725-3.195-1.725-.518c-.246-.041-.463-.183-.6-.39v-2.1l-.173-1.035-.352-.87-.42-.945c-1.89 1.028-2.783 1.703-3.451 2.588s-1.057 1.237-1.395 1.237c-.234-.012-.42-.208-.419-.442a9.03 9.03 0 0 1 .262-1.403l.052-.48c-.101-2.025-1.235-3.862-3-4.86l-.517.69-.6.863-1.028 1.2a4.96 4.96 0 0 0-.862 1.732 3.02 3.02 0 0 0-.18.983v.45c0 .712-.083.892-.398.892l-.217-.082-.6-.87-.952-1.035-1.463-.945-.75-.608-.337.75a4.48 4.48 0 0 0-.435 1.38l-.083 1.38-.098 1.463v.247c0 .75-.18 1.05-.637 1.05a2.87 2.87 0 0 1-1.005-.435c-.379-.224-.812-.343-1.252-.345-.022-.001-.044-.001-.066-.001-1.176 0-2.145.968-2.145 2.145 0 .078.005.156.013.234-.033 1.609.454 3.188 1.388 4.5l1.11 1.5c.307.39.877.75.907.517l.218-1.815-.263-1.462-.052-.66c0-.555.195-.893.517-.893.48 0 .75.525 1.087 1.98l.683 3.188.698 4.057a15.07 15.07 0 0 0 1.035 3.443c.393 1.042.883 2.047 1.462 3 .953 1.215 1.058 1.395 1.058 1.657.008.211-.157.393-.368.405a1.83 1.83 0 0 1-.75-.262c-.329-.158-.677-.274-1.035-.345l-.682-.09c-1.38 0-1.666 1.185-1.666 6.937 0 3.518.75 8.25 1.65 10.56l1.816 4.568c.277.681.424 1.409.434 2.145 0 6.285-8.34 16.147-17.497 20.692-3.397 1.688-4.5 3.308-4.74 7.065l-.083 1.125a11.98 11.98 0 0 1 2.933-1.207c2.565-.668 3.052-.99 3.442-2.25l.345-1.125c.128-.413.345-.578 2.333-1.628a3.65 3.65 0 0 0 1.372-1.125c.435-.75.795-1.11 1.028-1.11s.33.098.33.278l-.06.315-.87 2.46-.098.6a4.7 4.7 0 0 0 2.858 4.26c.307-1.995.517-2.678 1.125-3.615l1.545-2.408c.631-1.125.913-2.412.81-3.697.005-.899-.063-1.797-.203-2.685l-.067-.69a.58.58 0 0 1-.006-.083.61.61 0 0 1 .608-.608c.313.001.553.113.583.263l.345 1.635c.105.375.459.629.847.608.826 0 1.905-1.073 3-3 .408-.681.628-1.457.638-2.25l-.12-1.163-.255-1.297v-.248c0-.562.315-.96.75-.96.195 0 .353.075.383.18l.509 1.98c.181.66.638 1.118 1.125 1.118s1.568-.99 2.153-2.153a7.71 7.71 0 0 0 .75-3.525c0-1.837.195-2.37.862-2.37.218 0 .398.083.435.203l.338 1.125c.127.412.375.69.615.69.36 0 1.327-1.05 1.972-2.16.156-.237.244-.512.255-.795 0-.375-.232-.75-.75-1.178-.9-.75-.952-.87-.952-1.995a5.17 5.17 0 0 1 .952-3l1.118-2.07c1.095-2.13 1.5-2.67 1.882-2.67a.75.75 0 0 1 .63.75 1.62 1.62 0 0 1-.187.75c-.18.318-.3.666-.353 1.028.008.339.29.615.63.615.549-.051 1.064-.229 1.515-.518.225-.127 1.043-.442 2.415-.952l2.835-1.028c.555-.189 1.139-.278 1.725-.262a6.71 6.71 0 0 1 1.56.172c.65.169 1.312.287 1.98.353a1.51 1.51 0 0 0 1.5-1.44 5.39 5.39 0 0 0-1.387-2.618c-.218-.201-.372-.462-.443-.75l.098-.345a.58.58 0 0 1 .457-.345c.585 0 1.95 1.455 3.158 3.368 7.417 11.685 10.08 14.512 15.09 16.027s6.39 2.723 6.39 5.738c0 1.642-.84 3.57-2.693 6.15-3.75 5.25-4.657 7.372-4.657 10.83v.63c.427-.18.75-.323.952-.42.434-.253.894-.457 1.373-.608l2.152-.435c.741-.261 1.235-.97 1.223-1.755V93l-.255-1.897v-.248c.007-.69.294-1.348.795-1.822.127-.106.285-.167.45-.173a.87.87 0 0 1 .675.525l1.372 2.925c.57 1.2 1.23 1.77 3 2.588M24.622 32.34c-.622 0-.945.555-1.012 1.733l-.173 1.627c-.123.691-.195 1.391-.217 2.093 0 1.222.367 2.137.862 2.137s1.418-1.042 1.853-2.25c.249-.644.381-1.327.39-2.017-.021-.665-.152-1.322-.39-1.943-.315-.885-.795-1.387-1.313-1.387m-7.904-13.426v.75c0 1.065-.263 2.348-1.133 5.633-.149.51-.237 1.036-.262 1.568a3.77 3.77 0 0 0 .69 1.964c.179.342.436.638.75.863l1.035.517.172 1.2c-.023.643.065 1.286.263 1.898.231.838.349 1.703.352 2.572 0 .75-.06 1.005-.225 1.005-.322 0-.9-.877-1.425-2.197-.825-2.085-1.575-2.858-2.745-2.858-.941 0-1.866.243-2.685.705a6.94 6.94 0 0 1 .518.69c.067.105.322.593.75 1.5l1.207 2.333 1.463 2.752c.305.49.718.903 1.207 1.208l1.38.75c.405.225.705.548.705.75-.011.371-.319.67-.69.67-.02 0-.04-.001-.06-.003l-1.117-.172-.63-.068c-.338 0-.495.315-.495.96 0 2.34 1.852 5.025 5.085 7.38a1.62 1.62 0 0 1 .697.93c-.039.318-.318.555-.637.54-.38-.053-.747-.17-1.088-.345a1.6 1.6 0 0 0-.607-.187c-.42 0-.705.352-.705.885s.495 1.83 1.567 3.87a6.1 6.1 0 0 0 2.933 2.842l3.87 1.643a.55.55 0 0 1 .345.517c.006.302-.219.562-.518.6l-.75.083-.682.083-1.125-.083h-.143c-.532 0-.75.105-.75.368a8.18 8.18 0 0 0 1.268 2.82c.922 1.537 1.725 2.415 2.25 2.415.242-.033.448-.198.532-.428l.953-1.987a9.74 9.74 0 0 1 4.65-2.67l1.552-.255c.389-.065.663-.426.623-.818v-.217L34.8 60.24l-.172-1.815-.173-1.627-.173-1.898c0-.48-.15-.705-.427-.705-.321.104-.589.327-.75.622-1.35 2.063-2.295 2.753-3.75 2.753-4.598 0-8.07-8.085-8.07-18.75 0-.922.06-2.115.173-3.54.225-2.745.262-3.427.262-4.447 0-4.635-.967-7.898-2.932-9.863l-1.208-1.207-.862-.856zm11.115 62.985a9.46 9.46 0 0 1-2.498-.599l-1.635-.691c-1.032-.503-2.154-.799-3.3-.869a5.31 5.31 0 0 0-3.6 1.499l.75.608 1.725 1.207 1.628 1.29c.405.325.906.507 1.425.518 1.687 0 3.157-.788 5.475-2.933m33.202 15.653c.342-.905.945-1.688 1.733-2.25 2.407-2.07 3.525-3.6 3.525-4.823v-1.897c0-1.11.187-1.5.75-1.5.213-.025.423.074.54.255l.42 1.035a.75.75 0 0 0 .75.397c.33 0 .825-.397 1.26-.997l.862-1.208a2.78 2.78 0 0 0 .63-1.687 2.63 2.63 0 0 0-.24-.9l-.607-1.38a4.11 4.11 0 0 1-.353-1.35c0-.563.293-.893.75-.893a.75.75 0 0 1 .615.263l.69.862c.162.192.402.3.653.293a1.15 1.15 0 0 0 .892-.75l.69-1.38c.141-.229.235-.484.278-.75 0-.27-.285-.555-.795-.75l-1.118-.518c-1.5-.682-2.587-3.06-2.587-5.527-.003-.321.058-.64.18-.938l.6-1.462a3.64 3.64 0 0 0 .262-1.388 4.93 4.93 0 0 0-.862-2.662l-1.125-1.815c-.51-1.358-.75-1.74-1.193-1.74l-.442.105-.6.352-.953.51-1.117 1.373-1.208.607c-.75.36-1.402 1.898-1.402 3.173 0 2.25.247 2.85 3.21 7.942 1.147 1.973 1.747 3.675 1.747 4.935 0 3.533-3.157 6.045-9.502 7.568l-3.96.945c-2.925.697-4.643 2.7-5.25 6.12 1.207-.623 1.68-.713 3.817-.713h1.463c1.155 0 1.312-.09 2.047-1.125.702-1.068 1.704-1.906 2.88-2.407l1.38-.608 1.125-.6.345-.09c.308 0 .473.128.473.353-.121.558-.406 1.068-.818 1.462a4.57 4.57 0 0 0-1.38 3.33c.005.846.345 1.655.945 2.25"/><path d="M50.153 84.218a10.01 10.01 0 0 1 2.58 2.332c.825 1.125.945 1.208 1.755 1.208a5.83 5.83 0 0 0 1.267-.173l.75-.18c1.418-.27 1.898-.48 1.898-.832a1.14 1.14 0 0 0-.435-.751l-.953-.854-.937-.863c-.822-.61-1.82-.936-2.843-.93-1.035 0-1.642.203-3.105 1.043m27.945 4.657l.518-.082.75-.091.75.091h.375c1.927 0 3.75-1.621 3.75-3.323 0-.593-.548-.923-1.5-.923-2.325 0-3.75 1.343-4.68 4.313m176.857 5.962c-.164-.514-.255-1.049-.27-1.59l.098-1.17c.176-1.109.268-2.229.277-3.352-.003-.632-.222-1.244-.623-1.733l-1.034-1.38c-.577-.65-.914-1.479-.953-2.347 0-.495.12-.668.472-.668l.39.09.75.428c.258.165.551.266.855.292.526 0 .751-.802.751-2.415 0-2.25-.42-3.322-1.725-4.342l-1.148-.945a.95.95 0 0 1-.352-.705c-.003-.02-.004-.041-.004-.061a.62.62 0 0 1 .615-.615l.034.001c.34.015.678.073 1.005.172l.945.255.367.098c.3 0 .428-.24.428-.75v-.3l-.263-1.815c-.262-1.883-.577-2.603-1.132-2.603h-.158l-2.25.435h-.375c-2.692 0-5.865-2.55-6.69-5.377l-1.635-5.595c-.495-1.673-1.942-3.518-4.14-5.25-.512-.462-1.135-.785-1.807-.938l-1.545-.172c-.285 0-.48-.21-.48-.428 0-.36.307-.532.945-.532a24.32 24.32 0 0 1 7.627 1.5c2.835.922 4.38 1.26 5.76 1.26 4.313 0 6.908-2.25 6.908-6-.045-2.014-.608-3.982-1.635-5.715-1.079-1.529-2.46-2.821-4.058-3.795a1.36 1.36 0 0 0-.675-.263.44.44 0 0 0-.443.435l.091 1.125v.09c0 .428-.255.75-.555.75-.48 0-.975-.562-1.5-1.725-1.583-3.367-4.14-5.4-6.75-5.4-.578 0-.908.203-.908.555.053.412.207.804.45 1.14a10.01 10.01 0 0 1 .75 1.545c.11.238.184.491.218.75 0 .158-.143.248-.398.248-.58-.088-1.112-.377-1.5-.818l-1.282-1.372-1.125-1.725c-.846-1.301-2.038-2.34-3.443-3L231.623 30a2.45 2.45 0 0 0-1.103-.345c-.27 0-.405.127-.405.382a1.9 1.9 0 0 0 .398.998 4.37 4.37 0 0 1 .75 1.717c.021.259-.17.491-.428.518-.6 0-1.695-1.088-3.21-3.188-1.05-1.395-1.625-3.091-1.642-4.837l-.002-.113a6.37 6.37 0 0 1 6.338-6.337h.061c2.3.146 4.523.888 6.45 2.152l4.133 2.498a10.76 10.76 0 0 0 4.732 1.552c.825-.012 1.643-.156 2.423-.427a4.82 4.82 0 0 0 1.117-.428.62.62 0 0 0 .315-.502c0-.353-.21-.495-.75-.533-1.92-.15-5.902-1.717-8.527-3.367-.907-.613-1.857-1.16-2.843-1.635-.713-.255-1.185-.623-1.185-.923 0-.12.143-.202.375-.202l.51.09 3.75 1.38 3.615 1.29c1.872.653 3.821 1.059 5.797 1.207l.123.003c1.449 0 2.64-1.191 2.64-2.64l-.003-.123c-.001-.834-.185-1.659-.539-2.415-.526-1.02-1.216-1.89-1.501-1.89s-.517.338-.517.923v.45l.112 1.11c0 1.17-.637 1.92-1.627 1.92a4.5 4.5 0 0 1-1.41-.27l-5.603-1.808c-4.86-1.567-6.75-1.98-9.142-1.98-6.75 0-11.88 4.575-11.88 10.65 0 6.878 4.71 11.183 16.8 15.375 11.737 4.073 13.267 4.995 13.267 8.1 0 1.77-1.665 3.188-3.75 3.188-.679.011-1.357-.047-2.025-.173-.502-.097-2.46-.555-5.857-1.38-3.505-.853-7.103-1.259-10.71-1.207-8.558 0-12.66 1.305-17.115 5.43-1.035.96-1.5 1.14-2.603 1.14h-.592l-1.358-.09c-1.039.005-1.988.611-2.43 1.552l-1.38 2.333a1.15 1.15 0 0 1-.997.51c-.878 0-1.365-.593-2.19-2.67a6.64 6.64 0 0 0-1.725-2.588l-1.815-1.552a1.03 1.03 0 0 1-.428-.623 1.75 1.75 0 0 1 .428-.84 9.56 9.56 0 0 0 .75-1.207 3.44 3.44 0 0 0 .428-1.035l.09-.75a.61.61 0 0 1 .607-.435c.577 0 .682.382.682 2.505a6.07 6.07 0 0 0 .698 2.325l.945 2.07c.149.274.439.442.75.435.885 0 2.017-2.1 2.317-4.313.255-1.845.45-2.422.833-2.422s.51.217 1.237 1.725c.25.5.603.943 1.035 1.297a2.6 2.6 0 0 0 1.035.608h.09c.75 0 .953-.45 1.118-2.078l.082-.862-.172-1.215-.12-.825c0-.555.195-.9.518-.9a1.02 1.02 0 0 1 .637.36l.863.855c.437.51 1.062.823 1.732.87.75 0 1.192-.33 1.192-.855s-.089-.638-.862-1.905l-.6-1.125c-.75-1.455-1.125-1.815-1.792-1.815l-.878.09-1.117.427a2.47 2.47 0 0 1-.683.195c-.157 0-.27-.15-.27-.345 0-.75.51-1.995 1.5-3.51.585-.922 1.088-3.24 1.5-6.75l.435-4.05c.263-2.482.533-3.352 1.035-3.352.18 0 .323.067.338.165l.255 1.29v1.035c0 1.26.142 2.25.3 2.25.367 0 .892-.427 1.425-1.155.378-.525.669-1.107.862-1.725a7.86 7.86 0 0 0 .435-2.25c0-1.995-.832-2.85-3.54-3.608a1.01 1.01 0 0 1-.517-.255l-.075-.75v-1.5l-.173-1.034-.345-.871-.435-.945-.69.428c-1.763 1.102-2.183 1.432-2.76 2.16-.75.99-1.057 1.237-1.38 1.237-.01.001-.02.002-.031.002a.4.4 0 0 1-.396-.377l.344-1.5v-.255c0-1.882-1.064-3.712-3-5.085l-.6.691-.599.862-1.043 1.2c-.603.72-.94 1.626-.952 2.565v.57c0 .683-.105.907-.42.907l-.188-.067-.69-.87-.72-.99-1.545-.945-.75-.607c-.832 1.815-.87 2.01-.87 4.327V21c0 .75-.247 1.26-.667 1.26-.381-.066-.742-.214-1.058-.435-.39-.226-.832-.347-1.282-.353-1.253 0-2.168 1.073-2.168 2.52-.007 1.569.478 3.102 1.388 4.38.675 1.125 1.567 2.033 1.98 2.033.139-.611.224-1.234.255-1.86l-.255-1.463-.06-.66c0-.555.195-.892.517-.892.488 0 .75.525 1.095 1.98l.69 3.187.69 4.058c.214 1.182.559 2.336 1.028 3.442.405 1.045.908 2.049 1.5 3 .96 1.215 1.065 1.395 1.065 1.658a.4.4 0 0 1-.375.405 1.84 1.84 0 0 1-.75-.263 3.95 3.95 0 0 0-1.035-.345l-.63-.082c-1.425 0-1.718 1.14-1.718 6.855 0 3.577.75 8.325 1.658 10.635l1.807 4.567c.281.681.428 1.409.435 2.145 0 6.308-8.512 16.38-17.497 20.693-3.495 1.68-4.5 3.427-4.823 8.19a16.54 16.54 0 0 1 3-1.208c2.535-.75 3.083-1.065 3.443-2.25l.345-1.125c.15-.48.472-.75 2.25-1.627.55-.248 1.025-.636 1.38-1.125.457-.75.802-1.11 1.02-1.11s.39.165.39.45v.142l-.945 2.46-.113.6a4.73 4.73 0 0 0 2.865 4.26c.12-.45.21-.795.255-1.027.164-.899.454-1.77.863-2.588l1.642-2.407c.6-.878.705-1.455.705-3.675l-.097-2.708-.053-.697c0-.443.21-.69.593-.69s.547.12.577.27l.263 1.635c.093.379.45.637.84.607.825 0 1.897-1.065 3-3a3.81 3.81 0 0 0 .622-2.055 22.01 22.01 0 0 0-.277-2.685V75.6c-.003-.023-.004-.045-.004-.068a.64.64 0 0 1 .637-.638c.009 0 .018.001.027.001.217 0 .382.075.412.18l.608 1.98c.202.667.652 1.117 1.132 1.117 1.32 0 2.685-2.7 2.828-5.602.09-1.815.307-2.453.87-2.453.17-.019.338.063.427.21l.345 1.125c.12.413.375.69.608.69s.66-.382 1.192-1.035c.285-.35.537-.726.75-1.125.166-.274.256-.587.263-.907 0-.428-.09-.548-.75-1.065a2.25 2.25 0 0 1-.945-1.823c0-1.23.525-2.587 2.07-5.25 1.402-2.422 1.59-2.692 1.927-2.692s.57.315.57.75c.001.26-.058.517-.172.75-.222.303-.387.644-.488 1.005.02.352.322.628.675.615.557-.042 1.095-.219 1.568-.518a18.97 18.97 0 0 1 2.332-.952l2.925-1.028a5.7 5.7 0 0 1 1.778-.262c.505-.001 1.008.056 1.5.172a11.85 11.85 0 0 0 1.987.353c.018.001.035.001.053.001.744 0 1.357-.613 1.357-1.357v-.024c-.063-.534-.245-1.046-.532-1.5-.443-.75-.706-1.132-.75-1.208-.383-.397-.526-.615-.526-.75l.09-.36c.082-.196.268-.33.48-.345.683 0 2.018 1.388 3.233 3.368 6.75 11.032 10.02 14.52 15 16.028 5.175 1.567 6.39 2.662 6.39 5.745 0 1.642-.87 3.622-2.693 6.142-3.442 4.785-4.657 7.59-4.657 10.755v.705c.427-.18.75-.322.952-.42.436-.255.899-.458 1.38-.608l2.145-.434c.763-.261 1.262-1.003 1.215-1.808v-.172l-.172-1.898v-.24c0-1.073.525-1.95 1.162-1.95a.83.83 0 0 1 .66.525l1.38 2.925c.563 1.2 1.223 1.77 3 2.587"/><path d="M184.23 35.7l-.082 1.38v.855c0 1.387.225 1.995.75 1.995s1.5-1.072 1.867-2.25c.252-.756.399-1.544.435-2.34-.05-.555-.208-1.095-.465-1.59-.39-.945-.795-1.388-1.267-1.388-.75 0-1.088.953-1.238 3.36m-6.72-16.815v.75a16.82 16.82 0 0 1-.622 3.646l-.51 1.987c-.122.514-.183 1.04-.18 1.567a3.24 3.24 0 0 0 1.5 2.828l.952.517.165 1.2c-.019.643.07 1.285.263 1.898.234.845.353 1.718.352 2.595 0 .712-.06.982-.225.982-.322 0-.892-.877-1.417-2.197-.833-2.085-1.575-2.858-2.753-2.858-.938.001-1.861.243-2.677.705a19.75 19.75 0 0 1 2.497 4.5c1.365 3.045 1.898 3.668 4.05 4.74.473.233.795.548.795.795 0 .405-.315.668-.795.668-.407-.028-.81-.088-1.207-.18l-.638-.068c-.337 0-.487.315-.487.99 0 2.25 1.95 5.063 5.182 7.35.428.308.69.638.69.885a.56.56 0 0 1-.27.405c-.128.11-.289.174-.457.18a2.97 2.97 0 0 1-.998-.345 1.57 1.57 0 0 0-.645-.187c-.405 0-.675.39-.675.997 0 .75.585 2.168 1.568 3.75.656 1.202 1.646 2.189 2.85 2.843l3.877 1.642a.54.54 0 0 1 .345.48c0 .307-.217.575-.517.638l-.69.082-.75.083-1.035-.083h-.18c-.533 0-.75.113-.75.39 0 .413.397 1.283 1.275 2.805.907 1.613 1.582 2.363 2.092 2.363.244-.035.45-.198.54-.428l.945-1.987a8.73 8.73 0 0 1 2.25-1.718c.726-.489 1.55-.815 2.415-.952 2.063-.27 2.25-.368 2.25-1.238a10.8 10.8 0 0 0-.262-1.695 16.79 16.79 0 0 1-.255-1.815l-.173-1.627-.172-1.898c0-.472-.165-.705-.428-.705s-.472.263-.697.623c-1.013 1.65-2.513 2.76-3.713 2.76-4.807 0-8.092-7.68-8.092-18.945l.082-3.375.263-4.058.052-1.432c0-3.473-1.215-7.05-3-8.82l-1.215-1.208-.765-.825zm11.115 62.985a12.59 12.59 0 0 1-4.132-1.29c-1.006-.518-2.111-.814-3.24-.87a5.26 5.26 0 0 0-3.653 1.5l.75.608 1.725 1.207 1.643 1.29a2.31 2.31 0 0 0 1.44.518c1.695 0 3.12-.75 5.445-2.933m33.202 15.653c.336-.906.937-1.69 1.725-2.25 2.408-2.07 3.533-3.6 3.533-4.823v-1.897c0-1.11.18-1.5.75-1.5.211-.024.418.075.532.255l.435 1.035a.75.75 0 0 0 .75.382c.615 0 1.043-.45 2.108-2.19.371-.494.592-1.085.637-1.702a2.7 2.7 0 0 0-.202-.967l-.608-1.381c-.19-.427-.307-.883-.345-1.35 0-.562.285-.892.75-.892a.75.75 0 0 1 .615.262l.698.863c.15.187.18.292.45.292a1.44 1.44 0 0 0 1.095-.75l.69-1.38c.139-.228.228-.484.262-.75 0-.285-.27-.585-.69-.75l-1.207-.517c-1.418-.608-2.588-3.038-2.588-5.348.025-.383.111-.76.255-1.117l.518-1.463c.171-.458.26-.943.262-1.432-.029-.937-.329-1.846-.862-2.618-.384-.58-.727-1.187-1.028-1.815-.495-1.275-.81-1.702-1.23-1.702a2.1 2.1 0 0 0-1.102.42l-.863.51-1.207 1.372-1.208.608c-.75.367-1.41 1.927-1.41 3.232 0 1.86.413 2.865 3.218 7.883 1.2 2.13 1.755 3.705 1.755 4.912 0 3.51-3.578 6.39-9.42 7.59-6.983 1.425-8.505 2.58-9.308 7.065 1.208-.622 1.68-.712 3.818-.712h1.47c1.147 0 1.305-.09 2.04-1.125.7-1.035 1.688-1.843 2.842-2.325l1.38-.608 1.118-.6.345-.09c.307 0 .48.128.48.36a3.08 3.08 0 0 1-.825 1.455c-.734.781-1.195 1.778-1.313 2.843-.049.994.265 1.973.885 2.752"/><path d="M210.945 84.218a9.86 9.86 0 0 1 2.58 2.332c.833 1.125.945 1.208 1.763 1.208a5.89 5.89 0 0 0 1.26-.173l.75-.18c1.5-.277 1.92-.48 1.92-.877-.023-.267-.156-.512-.368-.675l-1.035-.855-.945-.863c-.78-.599-1.732-.933-2.715-.952-1.155.023-2.279.383-3.232 1.035m27.945 4.657l.517-.082.863-.09.69.09h.457a2.61 2.61 0 0 0 1.695-.375c.66-.556 1.214-1.227 1.635-1.98.198-.29.317-.626.345-.975 0-.585-.54-.923-1.5-.923-2.37 0-3.81 1.32-4.725 4.313M85.748 270.952l.51-1.034 1.207-1.291a6.38 6.38 0 0 0 1.568-4.455c-.006-.945-.158-1.883-.45-2.782a7.1 7.1 0 0 1-.36-1.5c0-.548.412-1.065.832-1.065.264.059.496.214.653.435l1.282 1.5a3.04 3.04 0 0 0 2.078 1.297l.082-1.207.09-1.425c-.013-2.091-.679-4.126-1.905-5.82-.69-.878-.997-1.41-.997-1.718s.232-.607.472-.607a.71.71 0 0 1 .353.173c.832.615 1.26.869 1.5.869.42 0 .795-1.035.795-2.175-.041-1.752-.661-3.443-1.763-4.807l-1.035-1.298c-.101-.143-.158-.312-.165-.487.013-.353.306-.636.66-.636a.68.68 0 0 1 .09.006 1.73 1.73 0 0 1 1.065.427c.192.145.421.234.66.255.668.001.923-.944.923-3.502v-1.057l-.083-1.553c-.105-1.83-.262-2.152-1.042-2.152h-.683c-4.2 0-6.157-2.663-7.237-9.833-.788-5.175-2.715-8.857-5.093-9.645-1.417-.48-1.927-.75-1.927-1.162 0-.24.397-.48.832-.48.556.066 1.099.212 1.613.435a24.02 24.02 0 0 0 8.857 2.07c4.133 0 7.388-3.045 7.388-6.893-.119-3.201-1.533-6.221-3.915-8.363a4.95 4.95 0 0 0-2.16-1.289h-.158l-.442.15.172 1.252.338.862.097.361a.37.37 0 0 1-.366.332c-.013 0-.026-.001-.039-.002-.255-.001-.492-.131-.63-.345l-1.552-2.333c-1.23-1.837-3.93-3.375-5.918-3.375-.712 0-1.162.315-1.162.818a1.94 1.94 0 0 0 .525 1.005 2.94 2.94 0 0 1 .787 1.372l-.097.353c-.09.195-.218.33-.345.345h-.075c-.428 0-.63-.195-2.505-2.333-1.538-1.762-4.665-3.457-6.36-3.457-.236.002-.46.1-.623.27-.097.084-.159.202-.172.33a1.5 1.5 0 0 0 .607.96c.433.343.763.8.953 1.32 0 .172-.218.322-.488.322-.487 0-1.597-.712-3.652-2.332-3.218-2.528-4.658-4.905-4.658-7.673 0-3.337 2.385-5.947 5.43-5.947 2.085.108 4.092.831 5.768 2.077l4.222 3.188a11.26 11.26 0 0 0 6.788 2.25c.521.005 1.035-.116 1.5-.353.375-.18.6-.412.6-.57s-.323-.262-.75-.375a9.92 9.92 0 0 1-3.623-1.545l-4.38-3.36c-1.063-.854-2.186-1.631-3.36-2.325-2.25-1.193-2.715-1.5-2.715-1.74 0-.135.225-.24.495-.24a2 2 0 0 1 .75.165l2.25.952a25.07 25.07 0 0 1 3.615 2.153c4.613 3.082 6.96 4.072 9.668 4.072.077.005.155.007.232.007a4.29 4.29 0 0 0 4.268-4.268v-.051a3.41 3.41 0 0 0-.36-1.5l-.428-.863c-.15-.307-.435-.532-.517-.427l-.255.345-.263 1.807a2.76 2.76 0 0 1-.255.6c-.149.322-.355.614-.607.863a1.94 1.94 0 0 1-1.575.615c-1.335 0-2.835-.75-6.863-3.285s-7.762-3.96-10.687-3.96c-6.147 0-11.194 5.043-11.198 11.175 0 8.64 5.25 12.532 21.795 16.14 6.285 1.365 9.053 3.202 9.053 6 0 2.55-2.07 4.162-5.34 4.162a11.19 11.19 0 0 1-2.333-.18c-.555-.105-3.515-.907-8.88-2.407-3.763-1.023-7.643-1.548-11.542-1.56-6.48 0-10.853 1.927-13.823 6.09-.352.495-.69.75-.922.75-.282-.034-.545-.158-.75-.353l-1.208-.952c-.894-.683-1.968-1.092-3.09-1.178a2.75 2.75 0 0 0-1.822.75 2.13 2.13 0 0 1-.885.6c-.48 0-1.365-1.072-2.04-2.49a13.87 13.87 0 0 1-1.463-5.865c0-.862.263-1.5.645-1.5s.518.24.645.698l.69 2.49c.383 1.402 1.17 2.512 1.763 2.512.262 0 .75-.39 1.252-1.042.299-.359.533-.767.69-1.208.54-1.582.675-1.807 1.095-1.807s.75.307 1.103 1.897c.107.526.294 1.032.555 1.5.285.555.632 1.076 1.035 1.553a1.25 1.25 0 0 0 .9.442c.75 0 1.447-1.267 1.447-2.647v-.383l-.105-1.59c0-.622.098-.817.45-.817.203 0 .36.112.6.427a4.47 4.47 0 0 0 1.463 1.2 2.88 2.88 0 0 0 1.23.435 1.27 1.27 0 0 0 .84-.435.98.98 0 0 0 .36-.675c0-.247-.308-.645-1.223-1.56a10.94 10.94 0 0 1-1.725-3.442c-.24-.675-.562-1.133-.81-1.133-.194.037-.383.098-.562.18l-1.125.428-.75.352-.3.053a.63.63 0 0 1-.66-.585c0-.338.787-1.268 1.732-2.055a3.18 3.18 0 0 0 1.125-2.333c.053-1.44.315-2.58.6-2.58l.263-3a31.65 31.65 0 0 1 1.282-5.947c.113-.308.248-.518.353-.518.24 0 .457.645.457 1.373v.435l-.052.877c0 1.095.18 1.643.517 1.643s.803-.54 1.178-1.5l.75-1.98c.215-.511.332-1.058.345-1.613 0-1.672-1.005-2.887-2.393-2.887l-.622.105a3.21 3.21 0 0 1-.615.172 1 1 0 0 1-.833-1.08l.068-1.245-.09-1.725-.338-1.807-.097-.87-.75.442-.953.75-1.38 1.125-1.117.953c-.181.155-.408.244-.645.255-.653 0-.75-.173-.75-1.5v-.345c0-1.08-.48-1.928-2.25-3.998-.098-.12-.233-.292-.428-.517l-.345.6-.96 1.575-.937 2.407-.18 1.561c-.045.442-.218.75-.39.75s-.473-.225-.81-.616a6.76 6.76 0 0 0-3.705-2.497l-.173.6c-.315 1.02-.487 1.627-.517 1.815l-.098 1.635v1.245c0 .465-.18.75-.465.75h-.06l-.51-.428c-.308-.203-.675-.298-1.042-.27-1.613 0-2.633.87-2.633 2.25 0 1.035.36 1.808 1.95 4.223.698 1.065 1.5 1.912 1.845 1.912.203 0 .383-.57.383-1.23l-.158-1.027c-.149-.422-.23-.865-.24-1.313 0-.495.135-.75.398-.75.75 0 1.575 2.25 1.905 5.348l.352 3.187c.143 1.201.491 2.368 1.028 3.45.501 1.218 1.27 2.308 2.25 3.188.817.577 1.327 1.14 1.327 1.5a.52.52 0 0 1-.45.517c-.258.034-.622-.202-1.74-.6l-.75-.112c-1.725 0-2.295.982-2.295 3.952 0 3.585 2.408 8.738 5.085 10.89l3.968 3.188c2.002 1.62 3.54 4.305 3.54 6.21 0 2.52-2.768 5.002-7.5 6.75l-2.843 1.035c-2.205.802-3.09 2.25-3.96 6.367a7.05 7.05 0 0 1 2.37-.435h.383l1.29.038c.068.008.136.012.204.012a1.79 1.79 0 0 0 1.776-1.685v-.75c0-.232.322-.555.75-.75.75-.375 1.177-.57 1.207-.607l.953-.75c.134-.114.303-.18.48-.188.269.02.477.255.465.525s-.071.537-.173.788a8.54 8.54 0 0 0-.45 2.962 7.27 7.27 0 0 0 1.395 4.793 6.78 6.78 0 0 1 .263-1.125c.414-.816.904-1.592 1.462-2.318 1.305-1.837 2.25-4.05 2.25-5.25v-.36l-.262-1.98a1.26 1.26 0 0 1 .435-.945c.157-.154.365-.247.585-.262.367 0 .592.225.877.862.21.48.45.75.623.75.3 0 .892-.795 1.275-1.725a4.88 4.88 0 0 0 .427-1.822c-.012-.386-.102-.766-.262-1.118-.148-.306-.24-.636-.27-.975 0-.225.075-.33.36-.562a.65.65 0 0 1 .435-.18c.187.004.368.067.517.18l.75.517c.198.15.435.241.683.263.352 0 .84-.39 1.215-.96a7.26 7.26 0 0 0 1.222-2.453c0-.225-.142-.397-.622-.75-1.71-1.207-2.843-3-2.843-4.612a3.66 3.66 0 0 1 .263-1.238l.862-2.332.69-1.815.24-.098c.3 0 .48.248.48.668a2.9 2.9 0 0 1-.202.982 5.4 5.4 0 0 0-.368 1.643.86.86 0 0 0-.009.124c0 .457.375.833.832.833.028 0 .056-.002.085-.005a3.74 3.74 0 0 0 1.432-.352c2.61-1.125 4.68-1.725 5.918-1.725 1.144-.016 2.255.384 3.127 1.125a1.63 1.63 0 0 0 .803.345c.391-.043.685-.387.667-.78a1.9 1.9 0 0 0-.517-1.118c-.338-.322-.553-.751-.608-1.214-.001-.009-.001-.018-.001-.026 0-.231.19-.42.42-.42a.49.49 0 0 1 .054.003c1.342 0 3.465 4.282 5.475 11.055 1.597 5.34 2.047 5.888 7.155 8.783 4.327 2.445 6 4.875 6 8.805s-1.065 8.827-3.3 15.322c-.583 1.468-.925 3.021-1.013 4.597 0 .916.18 1.786.848 4.111.315 1.11.517 1.77.6 1.98.201.446.434.877.697 1.29m-19.965-12.173c.428-1.037.979-2.02 1.643-2.925 1.395-2.1 1.897-3.217 1.897-4.222v-1.373c0-1.305.233-1.905.75-1.905a.55.55 0 0 1 .458.263l.435.689c.125.217.357.352.607.353a1.62 1.62 0 0 0 .968-.75c.587-.901.926-1.941.982-3.015l-.097-.945-.075-.983c0-.517.21-.75.697-.75.345 0 .48.135.75.75.188.428.45.698.66.698a.99.99 0 0 0 .75-.518l.69-1.035.525-.75.128-.412c0-.233-.188-.465-.653-.788-1.59-1.162-2.287-2.917-2.415-6.12.001-1.589-.139-3.175-.42-4.74-.055-.165-.572-1.402-1.552-3.712a21.25 21.25 0 0 1-1.035-3.098c-.203-.795-.458-1.035-1.08-1.035-2.348 0-4.11 2.003-4.11 4.643 0 1.56.645 4.013 1.83 6.99 1.657 4.185 2.092 5.678 2.092 7.155 0 3.172-1.267 4.545-5.632 6.12-4.935 1.77-7.245 4.297-8.093 8.873l.855-.346a10.96 10.96 0 0 1 1.208-.427l1.38-.345c1.185-.293 2.137-.968 2.332-1.643l.345-1.207a.85.85 0 0 1 .518-.6l1.5-.69.172.345-.345 1.117a8.05 8.05 0 0 0-.172 2.018c-.098 1.587.427 3.151 1.462 4.357m-46.215-79.74a6.04 6.04 0 0 1 .165.96 19.82 19.82 0 0 1-.337 2.25l-.158 1.763c.004 1.531.258 3.051.75 4.5.288.622.477 1.285.563 1.965l-.045.36c-.06.36-.203.615-.33.615a1.89 1.89 0 0 1-.878-.525c-.859-.819-1.993-1.29-3.18-1.32-.505.013-1.007.073-1.5.18l.428.952 1.29 3.188 1.815 2.76 1.89 1.282c.201.142.376.317.517.518.139.163.232.359.27.57-.027.175-.183.302-.36.292l-1.717.09c-.263 0-.473.18-.473.368.163.878.414 1.737.75 2.565l.863 2.497 1.455 1.373 1.552 1.125c.465.337.75.697.75.99s-.142.457-.3.472l-.862.083c-.278.037-.435.277-.435.69 0 .652.6 1.822 1.732 3.367 1.32 1.815 2.25 2.408 3.788 2.408h1.29c.622 0 .997.308.997.795s-.262.645-.817.75c-1.208.255-1.56.495-1.56 1.042.053.35.204.677.435.945l.69.938c.577.795 1.222 1.312 1.635 1.312.499-.105.944-.387 1.252-.795.713-.903 1.692-1.562 2.798-1.882 3-.75 3.615-1.08 3.615-1.763-.031-.357-.147-.701-.338-1.005-.819-1.254-1.267-2.716-1.29-4.215 0-1.057-.277-1.814-.675-1.814-.157 0-.427.255-.705.689-.648 1.053-1.767 1.73-3 1.815-3 0-6.585-4.665-8.362-10.86-.421-1.511-.633-3.073-.63-4.642a23.74 23.74 0 0 1 .63-5.25l.952-4.23.105-1.163c0-2.137-1.972-4.89-5.017-7.02m6.18 11.993c-.757 1.779-1.169 3.685-1.215 5.617 0 .998.33 1.8.75 1.8.142 0 .315-.165.457-.442l.953-1.718.615-1.05a3.23 3.23 0 0 0 .6-1.29c0-1.012-.945-2.25-2.168-2.917m9.495 38.865l1.118 1.117c1.68 1.74 1.927 1.913 2.737 1.913 1.111-.101 2.195-.398 3.203-.878.375-.187.607-.42.607-.592s-.307-.458-.855-.96l-.952-.855c-.633-.625-1.428-1.062-2.295-1.26-.983 0-1.995.435-3.563 1.5m19.988 15.615a7.82 7.82 0 0 1 1.725.863l1.372.855c.444.138.908.197 1.373.172a3.08 3.08 0 0 0 1.05-.172l1.807-.69 1.718-.6c.465-.165.787-.428.787-.668 0-.127-.397-.315-.96-.45-.436-.119-.864-.264-1.282-.435-2.123-.847-2.438-.967-3.188-.967-1.705.008-3.32.776-4.402 2.092m21.802 17.318c.578-1.388.968-1.62 2.925-1.725 2.25-.12 4.32-4.088 4.32-6.75 0-.27-.09-.488-.195-.488a1.29 1.29 0 0 0-.585.27 11.46 11.46 0 0 1-1.297.75l-2.498 1.118a5.1 5.1 0 0 0-3.128 4.698c0 .728.156 1.449.458 2.112"/><path d="M234.045 242.34l.345-.945.338-1.2a6.77 6.77 0 0 1 .945-1.5 6.89 6.89 0 0 0 1.32-4.283c-.014-.584-.171-1.155-.458-1.665-.14-.243-.227-.514-.255-.795a.68.68 0 0 1 .173-.412.64.64 0 0 1 .345-.255h.052a1.51 1.51 0 0 1 .893.6c.367.442.69.69.877.69.39 0 .803-.653 1.013-1.635.077-.281.137-.567.18-.855a8.21 8.21 0 0 0-.75-2.423c-.144-.266-.229-.56-.248-.862a.47.47 0 0 1-.003-.053c0-.266.21-.488.476-.502.452.121.855.384 1.147.75.167.19.395.315.645.352.548 0 .938-.555 1.335-1.905a8.38 8.38 0 0 0 .36-1.342c0-.248-.12-.397-.315-.397h-.3l-1.02.097c-1.852-.133-3.584-.971-4.837-2.34l-2.408-2.925c-.772-.909-1.493-1.861-2.16-2.85l-1.98-1.29c-.277-.138-.472-.4-.525-.705 0-.322.338-.54.825-.54s1.868.502 4.44 1.59c2.782 1.121 5.734 1.765 8.73 1.905 4.067.001 7.431-3.306 7.5-7.373 0-2.205-.997-4.26-3.42-7.11-.402-.509-.957-.877-1.582-1.05a.48.48 0 0 0-.489.473c0 .007.001.015.001.022.027.34.119.671.27.975a2.27 2.27 0 0 1 .173.795c0 .39-.15.623-.42.623-.54 0-1.11-.893-1.568-2.445-.562-1.92-1.687-3.068-4.305-4.395a9.83 9.83 0 0 0-2.73-.975c-.172 0-.292.157-.292.382.013.367.133.721.345 1.02.344.492.58 1.052.69 1.643v.082c0 .338-.173.525-.48.525-.555 0-.675-.142-1.935-2.07-1.031-1.285-2.366-2.294-3.885-2.932-.464-.198-.959-.315-1.463-.345h-.052c-.308 0-.548.142-.548.33.091.279.219.544.383.787l.127.488c.001.013.002.026.002.038a.43.43 0 0 1-.399.427c-.518 0-2.123-1.305-3.39-2.76a8.62 8.62 0 0 1-2.25-5.16c0-3.293 3.15-6.225 6.682-6.225.757-.026 1.51.126 2.198.443l3 1.552 3.532 2.325c2.04 1.335 4.822 2.34 6.51 2.34.923-.046 1.835-.225 2.708-.532.847-.233 1.38-.57 1.38-.878v-.067l-.308-.18-1.897-.165c-1.05-.098-3.443-1.178-5.34-2.416l-3.96-2.58-3.533-1.5c-.262-.105-.435-.285-.435-.457a.37.37 0 0 1 .398-.323l.982.181 3.277.944a24.86 24.86 0 0 1 3.96 1.808c3.6 1.912 5.933 2.752 7.665 2.752.07.005.14.007.211.007 1.771 0 3.231-1.453 3.239-3.224a11.68 11.68 0 0 0-.345-2.46 3.11 3.11 0 0 0-.517-1.125c-.15-.21-.315-.345-.42-.345-.248 0-.39.27-.39.712l.045.586v.502c0 1.59-.623 2.145-2.378 2.145-1.432 0-3.352-.57-7.74-2.303-4.11-1.627-6.667-2.25-9.225-2.25-6.48 0-12.172 5.295-12.172 11.34 0 5.25 3.457 9.195 10.5 12.105l7.327 3c6.053 2.498 8.25 4.275 8.25 6.63 0 1.973-1.822 3.233-4.68 3.233-1.23 0-2.76-.345-5.587-1.245-6.855-2.183-11.31-3.09-15.233-3.09-6.397 0-10.95 1.747-14.58 5.587-.48.51-.75.668-1.192.668a2.56 2.56 0 0 1-1.223-.495c-.572-.357-1.224-.568-1.897-.615a3.19 3.19 0 0 0-2.063 1.132l-.862 1.125a1.11 1.11 0 0 1-.75.518c-.623 0-1.733-1.065-2.423-2.333a8.13 8.13 0 0 1-.862-2.25c-.131-.777-.192-1.566-.18-2.355l.097-1.605.255-1.717c.057-.505.145-1.006.263-1.5.044-.194.213-.336.412-.345.45 0 .638.412.638 1.35v.937c0 2.453.975 4.695 2.04 4.695.84 0 1.582-1.5 2.197-4.5.128-.6.368-.945.66-.945s.555.435.803 1.718a7.6 7.6 0 0 0 1.297 2.76c.214.362.571.618.983.705.75 0 1.162-1.073 1.5-3.548.135-.96.427-1.552.75-1.552a.47.47 0 0 1 .367.18c.053.067.255.39.608.937.226.372.55.673.937.87.305.183.645.299.998.338a1.27 1.27 0 0 0 .817-.338c.375-.352.6-.6.6-.75s-.187-.39-.517-.75c-.695-.841-1.222-1.809-1.553-2.85l-.75-1.987a1.29 1.29 0 0 0-.435-.593l-.27-.067-.51.067-1.807.518-.563.075c-.01.001-.02.001-.031.001-.206 0-.375-.169-.375-.375 0-.01.001-.021.001-.031.113-.394.363-.735.705-.96 2.183-1.748 3.48-4.65 3.96-8.888.308-2.557.63-3.54 1.733-5.084.225-.315.427-.518.532-.518.338 0 .518.277.518.75a3.57 3.57 0 0 1-.278 1.222 2.92 2.92 0 0 0-.187 1.05v.33l.172.518.953-.345 1.027-1.208a6.4 6.4 0 0 0 1.125-3.525 2.82 2.82 0 0 0-.697-1.987c-.533-.638-.908-.908-1.298-.908l-.592.045-.608.038c-.562 0-.84-.158-.84-.503l.158-.66.083-.945-.518-2.152-.435-1.035-.255-.863-.608.428-1.29.75a4.52 4.52 0 0 0-.967 1.14c-1.23 1.5-1.313 1.552-1.8 1.552-.307 0-.48-.112-.48-.33v-.36c.144-.585.229-1.183.255-1.785-.189-1.904-1.044-3.682-2.415-5.017-1.792 1.725-2.752 3.622-2.752 5.437v1.02c0 .398-.135.608-.398.608-.245-.065-.458-.217-.6-.428l-1.027-1.387c-.083-.09-.54-.473-1.38-1.118a8.46 8.46 0 0 1-.698-.6l-.337.683c-.734 1.264-1.148 2.688-1.208 4.147-.045 1.14-.143 1.5-.405 1.5-.195-.021-.383-.088-.547-.195-1.313-.75-1.425-.75-1.995-.75h-.068c-1.399 0-2.55 1.151-2.55 2.55a2.12 2.12 0 0 0 .008.195 6.74 6.74 0 0 0 1.072 2.858c.787 1.41 1.98 2.707 2.49 2.707.15 0 .188-.105.188-.54v-.247l-.09-1.5-.173-1.118v-.142c0-.33.12-.48.383-.48.75 0 1.5 2.25 2.04 6.825.51 4.012 1.612 6.75 3.352 8.37.45.405.698.75.698.93a.31.31 0 0 1-.338.27c-.403-.055-.788-.201-1.125-.428-.283-.171-.606-.267-.937-.277-.863 0-1.831 1.012-1.995 2.077l-.75 4.913-.608 6.9a18.57 18.57 0 0 0 .518 5.167 21.8 21.8 0 0 1 .607 4.088c0 5.16-3.217 9.247-8.527 10.83l-5.52 1.627c-3.443 1.02-5.123 3.278-5.595 7.5.682-.631 1.568-.998 2.497-1.035l1.635-.262a4.19 4.19 0 0 0 1.463-.428c.348-.282.667-.598.952-.945l1.5-1.635c.548-.63 1.043-.975 1.35-.975.235.035.402.252.375.488-.08.52-.292 1.01-.615 1.425-.42.674-.639 1.455-.63 2.25 0 1.095.293 1.8 1.41 3.382.085-.354.2-.7.345-1.035.391-.627.822-1.228 1.29-1.8 1.2-1.537 2.063-3.165 2.07-3.885 0-1.342.143-1.77.473-1.77s.337.075.472.825c.035.193.126.37.263.51.125.182.316.309.532.353.247-.069.477-.19.675-.353.515-.328.978-.732 1.373-1.2.368-.469.662-.993.87-1.552a5.72 5.72 0 0 0 .427-1.62v-1.118c0-.292.128-.532.285-.532s.645.442.93.945c.188.345.308.435.54.435h.06c.281-.034.544-.158.75-.353a5.13 5.13 0 0 0 1.725-3.225l-.09-1.597-.345-1.29v-.12c.012-.212.167-.391.375-.435.39 0 .81.54 1.403 1.815.277.6.532.87.75.87.412 0 .75-.3 1.537-1.5l.75-1.11a1.56 1.56 0 0 0 .255-.87 1.6 1.6 0 0 0-.255-.855l-.69-1.028a1.73 1.73 0 0 1-.18-.877 8.39 8.39 0 0 1 1.305-4.043 19.13 19.13 0 0 0 1.11-2.16c.135-.36.285-.517.48-.517s.3.21.3.442l-.09.953v1.38c.128.322.33.442.75.442a2.65 2.65 0 0 0 .893-.18l2.152-.75a12.61 12.61 0 0 0 1.98-.945c3.375-1.86 4.425-2.25 6.083-2.25a10.51 10.51 0 0 1 4.087 1.223c.277.145.581.231.893.255.3-.026.574-.183.75-.428.158-.181.251-.411.262-.652-.016-.382-.135-.753-.345-1.073a3.74 3.74 0 0 1-.525-1.29c0-.213.162-.376.36-.376.01 0 .02.001.03.001a.98.98 0 0 1 .653.458c.255.405.907 1.56 1.98 3.45 1.605 2.85 3.69 4.837 5.52 5.25l3.75.855c1.17.27 1.5.75 1.5 2.19a7.51 7.51 0 0 1-3.465 6.427l-3.098 1.988c-1.125.75-2.07 2.692-2.07 4.35.061 1.493.264 2.978.608 4.432l.6-.6 1.5-.862 1.29-1.298.69-1.89.682-1.725c.338-.84.75-1.38 1.005-1.38s.473.465.473 1.32v.548c0 1.245.165 1.785 1.132 3.645m-50.917 26.07c1.05-.975 1.222-1.043 4.14-1.635 2.362-.48 3.457-1.56 3.96-3.878.367-1.717.607-2.032 2.152-2.932a4.13 4.13 0 0 0 1.125-.863c.18-.217.345-.345.42-.345.188.024.325.195.308.383-.08.512-.269 1.001-.555 1.432a3.14 3.14 0 0 0-.353 1.643c-.045 1.231.322 2.443 1.043 3.442.525-1.155.81-1.5 2.152-2.422 1.71-1.2 2.363-2.588 2.67-5.685.127-1.313.382-1.995.75-1.995a.45.45 0 0 1 .382.277l.6 1.29a.58.58 0 0 0 .54.285 2.15 2.15 0 0 0 1.096-.63l1.207-1.117c.51-.48.848-1.673 1.035-3.623.06-.75.308-1.2.593-1.2s.36.165.442.428l.518 1.717c.12.413.367.69.607.69a1.66 1.66 0 0 0 .69-.427c.449-.382.85-.818 1.193-1.298a2.94 2.94 0 0 0 .607-1.717v-1.5a1.59 1.59 0 0 1 .345-.953c.165-.217.307-.345.383-.345.23.034.419.203.479.428l.345.952a.94.94 0 0 0 .81.69c.458 0 .908-.39 1.598-1.38l.518-.69c.3-.298.511-.675.607-1.087-.052-.239-.172-.457-.345-.63-1.271-1.685-1.939-3.748-1.898-5.858 0-2.865 1.088-5.25 4.403-9.75 1.972-2.662 3.097-5.167 3.097-6.9 0-.502-.224-.75-.674-.75-.37.016-.729.127-1.043.323-.202.127-.426.216-.66.262a.85.85 0 0 1-.555-.352l-.6-.683-.427-.69a.89.89 0 0 0-.75-.435c-.229.044-.454.102-.676.173l-.749.082c-.893.045-1.223.36-1.223 1.215v.9c-.178 1.067-.735 2.033-1.568 2.723l-1.642 1.5c-2.01 1.8-3.577 4.687-3.577 6.592a14.72 14.72 0 0 0 .75 3.75c.75 2.58 1.049 3.803 1.049 4.635 0 4.148-6.322 9.593-18 15.533-5.939 3-7.432 4.8-7.432 8.895l.113 1.53z"/><path d="M177.42 178.058v2.144a5.47 5.47 0 0 1-.18 1.395 9.65 9.65 0 0 0-.352 1.951 6.9 6.9 0 0 0 1.215 4.162 6.52 6.52 0 0 1 .877 2.895c0 .345-.142.555-.367.555a.54.54 0 0 1-.428-.255l-.69-.953c-.547-.75-1.065-.96-2.467-.96l-1.5.098a18.92 18.92 0 0 1 1.035 3c.69 2.813.795 3 2.317 4.387s1.688 1.568 1.688 2.063l.002.054a.65.65 0 0 1-.602.643l-.57-.09h-.338c-.465 0-.892.863-.892 1.831.047.75.232 1.485.547 2.167a3.53 3.53 0 0 0 .6 1.042l.863.863c.23.235.355.555.345.885 0 .412-.24.75-.525.75a1.86 1.86 0 0 1-.75-.27c-.188-.1-.396-.156-.608-.165-.382 0-.577.225-.577.697l.142 1.283.525 2.25a3.97 3.97 0 0 0 .945 1.635c.352.435.795.788 1.298 1.035l1.725.75c.182.178.273.429.247.682v.023a.58.58 0 0 1-.562.577 5.52 5.52 0 0 1-.893-.172l-.877-.083c-.87 0-.938.045-.938.75a5.61 5.61 0 0 0 .173 1.335l.345 1.38c.367 1.455.84 2.25 1.357 2.25a1.37 1.37 0 0 0 .63-.345 10.69 10.69 0 0 1 5.31-1.807c1.4-.031 2.799.115 4.163.435a3.16 3.16 0 0 0 .825.202c.217 0 .285-.21.3-.975l.172-1.56.345-2.662.255-1.988v-1.125l-.69.608c-1.5 1.38-2.392 1.815-3.9 1.815-3.975 0-6.24-4.455-6.24-12.233.113-4.341.564-8.666 1.35-12.937a15.26 15.26 0 0 0 .27-2.393c0-2.827-1.8-5.602-4.927-7.605m5.872 19.29l.75-.75.75-.69c.695-.711 1.106-1.653 1.155-2.647a2.79 2.79 0 0 0-.292-1.23c-.3-.645-.878-1.223-1.223-1.223s-.562.75-.675 1.823l-.172 1.29-.263 1.297-.03 1.268v.862zm-7.59 35.243c.885.337 1.073.48 1.988 1.552 1.185 1.395 1.852 1.725 3.442 1.725.409.006.816-.052 1.208-.172l1.125-.345.862-.255c.413-.12.69-.3.69-.443s-.682-.75-1.725-1.455a18.09 18.09 0 0 0-2.062-1.207c-.609-.331-1.288-.513-1.98-.533-1.269.018-2.504.412-3.548 1.133m11.723 25.245a34.92 34.92 0 0 0 3.795-1.89l2.497-1.38c1.598-.84 2.333-1.44 2.333-1.883 0-.57-.975-.9-2.64-.9-3.33 0-6.068 2.25-6.068 5.07l.083.983zm34.987-21.885c1.215-.248 1.635-.563 2.25-.6l1.56.082c.367-.191.709-.425 1.02-.697a19.74 19.74 0 0 1 1.208-.862c1.725-1.17 1.807-1.253 1.807-1.628s-.697-.75-2.145-.75c-2.722 0-4.365 1.275-5.7 4.403"/></g><path d="M45.735 28.298l-.427-1.208-.128-.69c0-.705.353-1.095 1.335-1.463 1.075-.301 2.073-.831 2.925-1.552l.945-.862h.098c.24 0 .42.285.42.645 0 1.095-1.17 3.12-2.393 5.19-.892 1.5-1.297 2.475-1.665 2.475s-.847-.668-.937-1.5l-.173-1.035zm-5.062-3.443l1.462.75c.348.131.589.454.615.825l-.09.548c-.123.607-.145 1.23-.067 1.845l.001.067c0 .798-.657 1.455-1.455 1.455a1.46 1.46 0 0 1-.256-.022c-.278 0-.135-.18-.81-.953l-1.905-2.152c-.755-1.161-1.2-2.496-1.29-3.878v-.225c0-.465.142-.645.517-.645a1.95 1.95 0 0 1 .96.435l2.318 1.95zm5.175 8.955l1.372-.862.81.187c.953 0 1.178.285 1.178 1.328 0 1.537-.96 2.175-2.678 6.502-.75 1.905-.915 3-2.047 3-1.268 0-2.25-1.027-3.203-3.45l-1.125-2.767c-.787-1.95-1.14-3.113-1.14-3.825s.51-1.095 1.283-1.095a2.44 2.44 0 0 1 1.237.36l1.028.6.997.105h.473l1.815-.083zm160.987-5.227l-.712-1.5-.128-.691c0-.75.323-1.065 1.418-1.462 1.026-.357 1.987-.881 2.842-1.552l.953-.863h.09c.24 0 .427.285.427.645 0 1.095-1.012 2.828-2.25 4.905-.892 1.5-1.5 2.76-1.83 2.76s-.84-.667-.937-1.5l.127-.742zm-5.37-3.728l1.5.75a1.13 1.13 0 0 1 .653 1.013l-.045.36-.428 1.552-.262 1.733c-.048.21-.242.357-.458.345h-.052a4.59 4.59 0 0 1-1.883-1.178l-1.297-2.182c-.515-.732-.901-1.546-1.14-2.408a11.33 11.33 0 0 1-.338-1.5v-.24c0-.435.158-.63.533-.63.351.055.681.205.952.435l2.265 1.95zm5.258 8.955l1.29-.862.502-.105c1.056.064 1.923.884 2.048 1.935 0 .855-1.14 1.364-1.598 2.565l-.952 3.907c-.698 1.837-1.598 2.753-2.715 2.753-1.298 0-2.25-1.043-3.225-3.443l-1.125-2.767a11.6 11.6 0 0 1-1.095-3.585c-.006-.046-.008-.092-.008-.138 0-.658.541-1.2 1.2-1.2l.075.003a2.41 2.41 0 0 1 1.215.36l1.028.6 1.005.105h.457l1.898-.128zM38.52 185.91l-.435-1.298-.09-.382c0-.127.165-.232.353-.232.382.088.737.268 1.035.525a2.58 2.58 0 0 0 1.207.435c2.34.607 2.835 1.042 2.835 2.175l-.082 1.44-.345 1.297c-.143.548-.293.75-.555.75-.678-.361-1.302-.816-1.853-1.35l-.855-1.215-1.215-2.145zm10.425 2.138l-1.125 1.987-.427.48h-.083c-.457 0-.93-1.05-.96-2.13l-.157-1.725c.127-.705.547-1.012 1.627-1.2.602-.064 1.187-.24 1.725-.518l1.38-.952h.143c.226 0 .399.172.399.382 0 .013-.001.025-.002.038v.12l-.6 1.5-1.92 2.018zm-2.235 5.865l1.373-.683a1.5 1.5 0 0 1 .652-.18c.675 0 1.17.488 1.17 1.403s-.75 2.302-1.822 4.207c-1.14 2.048-1.995 3.443-2.888 3.443-1.23 0-3-1.965-4.695-5.25-.393-.742-.616-1.562-.652-2.4 0-1.088.472-1.665 1.387-1.665.347-.013.69.081.983.269l.75.518a3.98 3.98 0 0 0 2.19.69c.52-.001 1.033-.121 1.5-.352m149.73-10.425l1.2.75c.545.365 1.122.682 1.725.945 1.327.547 1.807.75 1.807 1.252a3.57 3.57 0 0 1-.172.983 5.85 5.85 0 0 0-.255 1.215c-.12 1.177-.825 1.499-1.305 1.499s-1.193-.892-2.138-2.58a19.46 19.46 0 0 1-1.38-3.449l-.053-.331c0-.217.128-.322.368-.322l.203.038zm11.625 3.007l-1.98 1.988c-.37.594-.66 1.234-.863 1.905a1.05 1.05 0 0 1-.6.254l-.135.001h-.023a.88.88 0 0 1-.877-.87l-.09-1.5-.082-1.456v-.067c-.037-.462.292-.88.75-.952l1.83-.503 1.897-.952a3.09 3.09 0 0 1 .803-.345.46.46 0 0 1 .414.455l-.002.047a1.41 1.41 0 0 1-.18.532l-.862 1.463zm-8.7 5.857l1.29.96c.351.2.75.301 1.155.293.706-.048 1.397-.234 2.032-.548l1.125-.517c.209-.108.44-.17.675-.18.683 0 1.23.75 1.23 1.65 0 1.267-.922 2.572-2.25 4.5l-.945 1.98c-.75 1.08-1.252 1.5-1.867 1.5-1.02 0-1.5-.585-3.053-3.623-1.095-2.175-1.552-3.51-1.552-4.567 0-.915.472-1.553 1.162-1.553.342-.052.691.006.998.165"/><path d="M43.943 36.315h-1.118c-.179.005-.343.102-.435.255l-.172.435.442 2.062.338 1.808c.195.998.555 1.388 1.297 1.388s1.365-.578 1.463-1.643l.172-1.897.173-1.973c-.011-.202-.103-.392-.255-.525a.67.67 0 0 0-.443-.187h-.075l-1.387.277zm160.792 0H203.7c-.178.007-.342.103-.435.255-.105.132-.191.279-.255.435l.428 2.062.345 1.808c.195.997.36 1.388 1.102 1.388a1.66 1.66 0 0 0 1.658-1.643l.172-1.897.173-1.973c-.011-.202-.103-.392-.255-.525-.118-.118-.277-.185-.443-.187h-.075l-1.38.277zM44.723 195.982l-.953-.165h-.142c-.548 0-.818.315-.818.938.193 1.363.733 2.655 1.568 3.75.153.214.396.347.66.36.555 0 .952-1.05 1.237-2.768l.263-1.297v-.3c0-.533-.15-.713-.585-.713h-.203l-1.027.195zm155.707 1.125l.09 1.635a1.54 1.54 0 0 0 1.26 1.5c.788 0 1.35-1.192 1.665-3a10.33 10.33 0 0 0 .203-1.2c0-.63-.218-.802-1.035-.802h-1.448c-.532 0-.75.42-.75 1.5l.015.367z" class="B"/><path d="M103.403 113.603h9.127c1.028-2.168 2.438-3.12 4.605-3.12s3.548.899 4.778 3.12h7.5a5.21 5.21 0 0 1 4.897-3.128 5.07 5.07 0 0 1 4.658 3.128h6.952c1.05-2.018 2.663-3.128 4.56-3.128a5.38 5.38 0 0 1 4.658 2.61l.345.518h9.645v44.647h-8.453v17.123h-9.907V158.25H121.74v17.123h-9.9V158.1h-8.437v-44.497z"/><path d="M107.01 117.278h54.795v37.552H107.01z" fill="#020202"/><path d="M112.703 125.858c-1.432 0-2.61 1.178-2.61 2.61s1.178 2.61 2.61 2.61 2.61-1.179 2.61-2.611a2.62 2.62 0 0 0-2.603-2.61" class="B"/></g><path d="M112.703 125.858c-1.432 0-2.61 1.178-2.61 2.61s1.178 2.61 2.61 2.61 2.61-1.179 2.61-2.611a2.62 2.62 0 0 0-2.603-2.61z" fill="none" class="D E"/><path d="M155.723 125.858c-1.44-.001-2.618 1.178-2.618 2.609s1.178 2.61 2.61 2.61 2.61-1.178 2.61-2.609-1.174-2.606-2.602-2.611" class="B C"/><path d="M155.723 125.858c-1.44-.001-2.618 1.178-2.618 2.609s1.178 2.61 2.61 2.61 2.61-1.178 2.61-2.609-1.174-2.606-2.602-2.611z" fill="none" class="D E"/><path d="M112.703 146.25c-1.428 0-2.603 1.175-2.603 2.602.02 1.442 1.205 2.611 2.64 2.611h.053a2.58 2.58 0 0 0 2.52-2.603c0-1.432-1.179-2.61-2.61-2.61" class="B C"/><path d="M112.703 146.25c-1.428 0-2.603 1.175-2.603 2.602.02 1.442 1.205 2.611 2.64 2.611h.053a2.58 2.58 0 0 0 2.52-2.603c0-1.432-1.179-2.61-2.61-2.61z" fill="none" class="D E"/><path d="M155.723 146.25c-1.44 0-2.618 1.178-2.618 2.61s1.178 2.61 2.61 2.61 2.61-1.178 2.61-2.61-1.174-2.606-2.602-2.61" class="B C"/><path d="M155.723 146.25c-1.44 0-2.618 1.178-2.618 2.61s1.178 2.61 2.61 2.61 2.61-1.178 2.61-2.61-1.174-2.606-2.602-2.61z" fill="none" class="D E"/><g class="C"><path d="M120.87 138.375c3.175 4.24 8.204 6.701 13.5 6.608 5.1 0 8.618-1.83 12.75-6.608-4.117-4.23-7.95-6-12.99-6-5.091-.092-9.962 2.114-13.252 6" class="B"/><path d="M123.48 138.375c3.638-2.835 6.713-4.005 10.5-4.005s6.69 1.118 10.433 4.087c-3.255 3.226-6.113 4.433-10.5 4.433a14.56 14.56 0 0 1-10.455-4.5"/><path d="M127.913 137.505c1.74 1.219 3.807 1.886 5.932 1.913a10.68 10.68 0 0 0 6.315-1.913 14.24 14.24 0 0 0-6.217-1.5 12.57 12.57 0 0 0-6 1.5" class="B"/></g><g fill="none" class="D"><path d="M106.238 120.142h56.332" stroke-width=".41"/><path d="M106.238 119.19h56.333v1.92h-56.333z" stroke-width=".05"/></g><path d="M114.87 115.785v6.345a2.26 2.26 0 0 0 2.25 2.251l.075-.001c1.5 0 2.378-.81 2.378-2.25v-5.303c0-2.055-.84-3.315-2.175-3.315a2.82 2.82 0 0 0-1.043.27 3.07 3.07 0 0 0-.615.345 2.32 2.32 0 0 0-.517.698c-.17.298-.29.623-.353.96zm16.95.952v5.394c0 1.234 1.016 2.25 2.25 2.25l.068-.001c1.5 0 2.377-.81 2.377-2.25v-5.302c0-2.041-.84-3.323-2.152-3.323-1.553 0-2.543 1.267-2.543 3.232zm16.425-.952v6.345a2.26 2.26 0 0 0 2.25 2.251l.075-.001c1.5 0 2.37-.81 2.37-2.25v-5.302c0-2.055-.832-3.315-2.175-3.315a2.81 2.81 0 0 0-1.042.269c-.217.088-.421.204-.608.345-.222.194-.401.431-.525.698-.169.298-.286.623-.345.96zm-34.59 46.395h5.123v6.6h-5.123v-6.6zm0 8.085h5.123v2.085h-5.123v-2.085zm34.935-8.085h5.138v6.6h-5.138v-6.6zm0 8.085h5.138v2.085h-5.138v-2.085z" class="B C"/></svg>
