<svg xmlns="http://www.w3.org/2000/svg" width="100%" height="100%" viewBox="0 0 239 239" fill-rule="evenodd" stroke-linejoin="round" stroke-miterlimit="2" xmlns:v="https://vecta.io/nano"><style><![CDATA[.B{fill:#fefefe}.C{fill:#243d74}.D{fill:#273563}.E{fill:#gray}]]></style><g fill-rule="nonzero"><path d="M114.586.084l5.849-.076 5.847.211 5.828.497 5.797.784 5.751 1.067 5.693 1.348 5.619 1.627 5.533 1.9 5.432 2.17 5.319 2.434 5.194 2.692 5.055 2.944 4.904 3.189 4.741 3.426 4.568 3.654 4.383 3.875 4.187 4.085 3.981 4.286 3.766 4.476 3.542 4.656 3.308 4.824 3.069 4.981 2.819 5.125 2.564 5.258 2.303 5.377 2.037 5.484 1.764 5.577 1.488 5.658 1.209 5.724.926 5.775.641 5.815.355 5.839.067 5.849-.219 5.846-.507 5.828-.792 5.796-1.076 5.749-1.357 5.691-1.635 5.616-1.908 5.53-2.178 5.429-2.442 5.316-2.7 5.189-2.952 5.05-3.196 4.9-3.433 4.736-3.661 4.563-3.882 4.377-4.091 4.18-4.292 3.975-4.482 3.76-4.661 3.535-4.829 3.3-4.985 3.061-5.13 2.812-5.262 2.556-5.381 2.295-5.487 2.028-5.58 1.756-5.659 1.479-5.726 1.2-5.777.918-5.815.633-5.84.345-5.838.06-5.834-.228-5.816-.513-5.784-.797-5.738-1.08-5.677-1.36-5.605-1.637-5.518-1.909-5.417-2.178-5.304-2.441-5.177-2.697-5.04-2.948-4.889-3.192-4.726-3.428-4.553-3.654-4.369-3.875-4.173-4.083-3.968-4.283-3.753-4.472-3.529-4.651-3.297-4.819-3.057-4.974-2.81-5.118-2.555-5.25-2.295-5.368-2.029-5.475-1.758-5.568-1.483-5.647-1.204-5.713-.923-5.765-.639-5.804-.354-5.827-.068-5.838.218-5.834.505-5.817.788-5.785 1.072-5.74 1.351-5.68 1.628-5.607 1.901-5.52 2.17-5.421 2.432-5.307 2.69-5.182 2.941-5.044 3.184-4.894 3.42-4.732 3.649-4.558 3.867-4.374 4.077-4.179 4.277-3.975 4.467-3.76 4.646-3.536 4.813-3.304 4.97-3.065 5.113-2.817 5.246-2.563L74.8 8.535l5.472-2.037 5.565-1.767 5.645-1.491 5.711-1.213 5.764-.932 5.802-.648 5.827-.363z" class="C"/><path d="M111.866 2.268l5.741-.213 5.745.069 5.735.351 5.709.632 5.673.912 5.621 1.188 5.556 1.464 5.477 1.734 5.385 2.001 5.282 2.262 5.163 2.52 5.034 2.769 4.891 3.014 4.738 3.249 4.572 3.479 4.396 3.698 4.21 3.91 4.013 4.112 3.805 4.304 3.59 4.485 3.366 4.656 3.133 4.816 2.894 4.964 2.645 5.099 2.392 5.224 2.133 5.334 1.869 5.433 1.6 5.518 1.328 5.589 1.05 5.649.774 5.693.492 5.724.21 5.741-.071 5.745-.352 5.735-.635 5.709-.913 5.673-1.191 5.62-1.465 5.555-1.736 5.477-2.003 5.385-2.265 5.28-2.521 5.162-2.771 5.033-3.015 4.89-3.251 4.737-3.48 4.571-3.701 4.396-3.911 4.207-4.113 4.012-4.305 3.804-4.486 3.589-4.658 3.363-4.816 3.132-4.965 2.891-5.101 2.644-5.224 2.391-5.335 2.131-5.434 1.867-5.519 1.598-5.589 1.325-5.649 1.05-5.694.77-5.724.49-5.739.209a115.73 115.73 0 0 1-5.742-.073l-5.731-.354-5.708-.636-5.669-.914-5.617-1.192-5.553-1.465-5.474-1.737-5.382-2.002-5.278-2.264-5.16-2.521-5.03-2.771-4.888-3.014-4.734-3.25-4.569-3.479-4.393-3.698-4.206-3.91-4.01-4.111-3.803-4.303-3.587-4.484-3.363-4.655-3.131-4.814-2.89-4.962-2.644-5.099-2.391-5.221-2.131-5.332-1.867-5.431-1.599-5.515-1.326-5.588-1.05-5.646-.773-5.69-.492-5.722-.211-5.739.071-5.742.353-5.731.633-5.708.913-5.67 1.189-5.618 1.464-5.553 1.734-5.474 2.001-5.383 2.263-5.278 2.518-5.161 2.769-5.031 3.013-4.889 3.248-4.736 3.477-4.57 3.697-4.394 3.908-4.208 4.11-4.011 4.302-3.805 4.483-3.588 4.654-3.365 4.812-3.132 4.962-2.893 5.097-2.645 5.22-2.392 5.332-2.134 5.43-1.869 5.515-1.6 5.587-1.329 5.646-1.052 5.69-.774 5.721-.494z" class="B"/><path d="M112.585 4.57l5.627-.18 5.63.097 5.617.372 5.593.648 5.555.922 5.502 1.193 5.437 1.461 5.359 1.727 5.268 1.988 5.164 2.244 5.047 2.494 4.919 2.74 4.778 2.977 4.627 3.209 4.463 3.431 4.29 3.647 4.105 3.853 3.912 4.05 3.708 4.236 3.495 4.414 3.275 4.58 3.046 4.735 2.81 4.879 2.567 5.011 2.318 5.131 2.064 5.238 1.803 5.334 1.54 5.415 1.272 5.484 1.002 5.541.728 5.583.453 5.612.178 5.627-.099 5.63-.376 5.617-.65 5.593-.924 5.554-1.195 5.502-1.465 5.436-1.729 5.358-1.99 5.267-2.247 5.162-2.497 5.046-2.741 4.918-2.98 4.777-3.211 4.625-3.433 4.462-3.649 4.288-3.855 4.103-4.052 3.91-4.238 3.706-4.415 3.493-4.582 3.273-4.736 3.044-4.88 2.808-5.013 2.564-5.131 2.316-5.24 2.061-5.334 1.801-5.416 1.537-5.486 1.27-5.541.998-5.583.726-5.612.451-5.624.175a115.99 115.99 0 0 1-5.626-.101l-5.614-.378-5.589-.651-5.55-.926-5.499-1.197-5.432-1.465-5.354-1.729-5.264-1.991-5.159-2.246-5.043-2.496-4.914-2.74-4.774-2.979-4.622-3.209-4.459-3.432-4.285-3.646-4.101-3.853-3.908-4.049-3.704-4.236-3.492-4.412-3.271-4.578-3.043-4.733-2.807-4.877-2.564-5.008-2.315-5.129-2.061-5.235-1.802-5.331-1.538-5.412-1.271-5.482-1.001-5.537-.727-5.58-.453-5.608-.178-5.624.099-5.626.374-5.615.65-5.589.923-5.55 1.194-5.499 1.462-5.433 1.727-5.355 1.988-5.265 2.244-5.16 2.493-5.044 2.739-4.916 2.976-4.775 3.207-4.623 3.43-4.461 3.644-4.287 3.851-4.103 4.047-3.91 4.234-3.706 4.41-3.494 4.577-3.273 4.732-3.045 4.875-2.809 5.007-2.567 5.127-2.318 5.235-2.063 5.33-1.805 5.412-1.54 5.481-1.274 5.536-1.003 5.58-.73 5.608-.456z" class="E"/><g class="B"><path d="M114.387 37.504l4.011-.133 4.013.065 4.005.262 3.986.459 3.96.653 3.923.847 3.876 1.039 3.821 1.228 3.755 1.414 3.682 1.597 3.599 1.775 3.508 1.951 3.407 2.12 3.299 2.284 3.183 2.445 3.06 2.597 2.927 2.744 2.79 2.886 2.644 3.018 2.493 3.145 2.336 3.263 2.173 3.375 2.004 3.477 1.831 3.57 1.653 3.657 1.472 3.734 1.287 3.801 1.099 3.859.908 3.91.714 3.949.52 3.979.324 4 .127 4.011-.07 4.013-.267 4.004-.463 3.986-.659 3.959-.852 3.921-1.044 3.876-1.233 3.819-1.419 3.753-1.601 3.68-1.781 3.597-1.954 3.505-2.124 3.405-2.289 3.296-2.449 3.179-2.601 3.056-2.749 2.925-2.888 2.785-3.022 2.641-3.148 2.489-3.266 2.332-3.377 2.168-3.48 2-3.573 1.826-3.658 1.649-3.736 1.467-3.803 1.282-3.861 1.094-3.91.902-3.95.711-3.98.514-4 .319-4.005.121a81.08 81.08 0 0 1-4.006-.074l-3.998-.271-3.978-.466-3.952-.662-3.915-.854-3.868-1.045-3.812-1.233-3.747-1.419-3.673-1.6-3.589-1.779-3.499-1.953-3.398-2.122-3.291-2.286-3.174-2.445-3.051-2.597-2.92-2.744-2.782-2.883-2.637-3.017-2.485-3.142-2.329-3.26-2.167-3.37-1.998-3.473-1.826-3.566-1.648-3.652-1.468-3.728-1.283-3.796-1.096-3.853-.905-3.903-.713-3.943-.518-3.973-.323-3.994-.127-4.004.069-4.006.266-3.998.461-3.98.656-3.953.85-3.915 1.039-3.87 1.229-3.813 1.414-3.749 1.596-3.675 1.774-3.592 1.948-3.501 2.118-3.402 2.282-3.293 2.44-3.178 2.594-3.054 2.74-2.922 2.88-2.786 3.013-2.641 3.139-2.49 3.257-2.333 3.368-2.17 3.47-2.003 3.564-1.83 3.65-1.654 3.726-1.472 3.794-1.288 3.852-1.101 3.902-.91 3.942-.717 3.972-.524 3.993-.328z"/><path d="M40.188 112.078c-.045-2.198.467-4.712.86-6.87 2.151-11.793 6.971-23.471 14.281-33.004 13.725-17.901 31.94-28.799 54.379-31.746 21.02-2.76 41.309 3.435 58.012 16.282 2.1 1.735 4.197 3.468 6.052 5.469 2.15 2.099 5.575 5.109 7.018 7.626 2.55 2.59 8.183 10.941 9.197 14.337 1.108 2.029 2.063 4.18 2.911 6.33.465 1.206.995 2.415 1.252 3.685 1.149 2.655 1.798 5.766 2.405 8.589a79.35 79.35 0 0 1 .546 2.814c.165.942.313 1.887.443 2.834s.243 1.896.339 2.848.173 1.903.234 2.857a78.42 78.42 0 0 1 .13 2.865 78.3 78.3 0 0 1 .025 2.867 80.62 80.62 0 0 1-.08 2.867c-.044.955-.106 1.909-.186 2.862a78.27 78.27 0 0 1-.289 2.853c-.114.949-.245 1.896-.394 2.84a77.24 77.24 0 0 1-.497 2.825 78.91 78.91 0 0 1-.6 2.803 80.15 80.15 0 0 1-.703 2.78 77.37 77.37 0 0 1-.804 2.753c-.284.913-.586 1.82-.904 2.722s-.652 1.797-1.002 2.686c-3.477 8.809-8.799 17.778-15.468 24.551-1.598 1.765-3.286 3.439-5.064 5.022-1.475 1.5-3.174 2.877-4.847 4.147-16.824 12.782-37.937 18.934-59.005 16.028-14.297-1.973-27.239-7.782-38.549-16.671-4.282-3.366-8.471-7.25-11.771-11.598-.826-.703-1.627-1.828-2.293-2.698-.61-.806-1.204-1.623-1.783-2.452s-1.141-1.668-1.687-2.518-1.076-1.711-1.589-2.582-1.01-1.751-1.489-2.641a75.26 75.26 0 0 1-1.386-2.696 76.93 76.93 0 0 1-1.281-2.747c-.41-.924-.801-1.856-1.175-2.795s-.728-1.885-1.065-2.838-.656-1.912-.956-2.877a77.41 77.41 0 0 1-.844-2.911c-.263-.976-.507-1.957-.732-2.942a78.9 78.9 0 0 1-.618-2.968c-.187-.993-.354-1.99-.503-2.99a79.63 79.63 0 0 1-.387-3.006c-.11-1.005-.201-2.011-.272-3.019a78.58 78.58 0 0 1-.155-3.028c-.096-3.109-.113-6.455.294-9.545z"/></g><path d="M110.467 53.217c4.472-2.373 9.397-4.23 14.06-6.206 2.728-1.156 5.454-2.611 8.296-3.45 2.315 3.728 4.224 7.794 6.287 11.67 1.49 2.798 4.224 7.027 5.041 9.991-.409 1.686-1.13 3.359-1.703 5.002-1.694 4.853-3.75 9.855-4.931 14.844a716.35 716.35 0 0 1 22.325-4.228l12.553-2.334 12.114 8.958c2.043 1.539 4.326 3.695 6.513 4.938.318.181.688.21 1.047.228l.044.216-7.415 12.005c-1.47 2.37-2.873 4.872-4.491 7.136-.493.689-.981 1.38-1.772 1.743-2.387 1.093-5.692 1.313-8.274 1.81l-12.934 2.468 23.128 26.938c-.331 6.202-1.278 12.562-2.038 18.733-.234 1.903-.576 3.789-.722 5.703-8.077-.303-15.973-.819-24.085-.828-2.531-2.806-4.93-5.724-7.406-8.579l-6.925-7.979c-1.913 5.952-4.206 11.799-6.27 17.701-1.524 4.363-2.801 8.949-4.596 13.202-.249.591-.53 1.33-1.087 1.694-2.099 1.369-4.76 2.22-7.063 3.224l-14.734 6.406c-1.661-2.581-2.959-5.545-4.416-8.261-2.361-4.406-4.998-8.8-7.002-13.374 1.974-6.68 4.869-13.146 6.71-19.862-5.327.691-10.526 1.905-15.803 2.878-5.979 1.103-12.058 1.996-17.982 3.356-2.555-1.058-5.148-3.464-7.386-5.119l-12.569-9.344c1.327-2.578 3.062-5.052 4.594-7.518l8.309-13.307c7.002-1.026 13.898-2.919 20.895-3.995-1.105-1.172-2.077-2.501-3.117-3.734l-6.075-7.11c-4.521-5.267-9.271-10.438-13.558-15.892l1.549-13.514c.387-3.517.854-7.043 1.048-10.576 1.837.22 3.794.148 5.647.199 5.373.148 10.852.038 16.206.434.942.07 2.059.165 2.854.722 1.562 1.095 3.066 3.335 4.344 4.805l9.154 10.556c1.518-3.358 2.65-6.9 3.875-10.373l7.761-21.977z" class="E"/><path d="M109.914 109.451c5.217-2.018 10.145-4.944 15.442-6.708-.642 1.176-1.363 2.291-2.092 3.415 2.505 2.201 9.444 6.06 10.827 8.231 1.161.399 1.927 1.036 2.772 1.905-.792-.026-1.618-.104-2.407-.064-.836.201-1.769.163-2.628.188-.488 4.948-.821 9.995-1.721 14.887l-1.839-3.035c-4.869 1.879-9.511 4.525-14.466 6.117l1.592-3.154c-1.351-1.145-2.904-2.138-4.333-3.19-2.995-2.206-5.976-4.419-9.066-6.491 1.52-.011 3.038.001 4.553-.164.813-4.704 1.194-10.05 1.482-14.826.687.942 1.325 1.861 1.884 2.889z" class="B"/><path d="M134.091 114.389c1.161.399 1.927 1.036 2.772 1.905l-2.407-.064c-.233-.638-.317-1.171-.365-1.841z" fill="#ffe1b1"/><path d="M118.442 110.987l.384-.021.385-.001.384.017.384.035.381.055.377.073.374.091.369.11.363.127.356.145.35.162.34.179.332.196.322.211.31.227.299.242.288.255.275.27.261.283.247.295.232.307.217.318.201.327.185.338.168.346.152.354.133.36.116.367.099.373.079.376.062.38.042.382.024.384.006.385-.014.385-.032.383-.051.382-.069.378-.089.375-.105.37-.124.364-.142.358-.159.35-.175.343-.192.333-.209.324-.223.313-.24.301-.252.29-.267.277-.281.264-.293.25-.305.235-.315.22-.326.204-.336.188-.344.172-.353.155-.359.137-.366.119-.371.102-.376.083-.379.065-.382.046-.389.028-.389.009a8.38 8.38 0 0 1-.389-.01l-.389-.03-.386-.049-.383-.068-.38-.087-.375-.105-.369-.124-.363-.142-.355-.16-.347-.177-.338-.193-.328-.211-.317-.226-.305-.241-.293-.257-.281-.27-.266-.285-.252-.296-.237-.309-.222-.32-.206-.331-.189-.34-.171-.35-.155-.358-.136-.364-.119-.371-.1-.377-.081-.38-.063-.385-.043-.387-.024-.388-.005-.39.014-.39.034-.387.052-.387.071-.382.09-.379.11-.374.127-.368.145-.361.163-.354.181-.345.196-.336.214-.326.229-.315.244-.303.26-.291.273-.278.286-.264.299-.249.312-.234.322-.219.333-.202.342-.186.351-.168.359-.152.366-.133.372-.115.378-.096.381-.078.385-.059.388-.039z" class="E"/><path d="M114.978 88.781c.194-.057.392-.099.593-.127a4.21 4.21 0 0 1 .605-.041 4.23 4.23 0 0 1 .605.047c.2.03.397.075.591.133l.318.111.309.135.296.159.283.183.267.205.249.225.231.245.211.262.189.279.167.293.142.304.117.316.092.324.066.33.039.334.012.336-.015.336-.042.335-.069.329-.093.323-.12.315-.145.303-.169.291-.191.277-.213.261-.233.243-.252.224-.269.202-.284.18-.297.158-.31.132-.319.108c-.149.044-.3.079-.453.106a4.22 4.22 0 0 1-.462.055 4.26 4.26 0 0 1-.466.004 4.01 4.01 0 0 1-.464-.048 4.19 4.19 0 0 1-.455-.098 4.39 4.39 0 0 1-.441-.148c-.144-.058-.285-.123-.422-.197a4.01 4.01 0 0 1-.398-.241l-.239-.177-.225-.192-.211-.208-.196-.222-.18-.236-.163-.247-.145-.259-.126-.268-.108-.276-.087-.283-.067-.289-.047-.292-.027-.296-.005-.296.016-.296.037-.294.057-.291.077-.286.097-.28.117-.272.136-.264.154-.253.172-.241.188-.23.203-.215.219-.2.232-.185.244-.167.255-.15.266-.132.274-.113.282-.093zm-17.426 41.213l.204-.017.205-.006.205.003.204.013.204.024.202.033.2.044.198.052.195.063.192.072.188.082.184.091.179.099.174.108.168.117.163.124.156.133.15.139.142.148.135.154.128.16.119.167.111.172.103.177.093.183.085.186.076.19.066.194.056.198.047.198.036.202.027.203.018.204.006.205-.003.205-.013.205-.023.203-.033.202-.043.201-.053.198-.063.195-.072.192-.081.188-.09.184-.099.179-.108.174-.117.169-.124.162-.133.156-.139.15-.147.143-.154.136-.161.127-.166.119-.172.112-.177.103-.182.094-.187.084-.19.076-.194.066-.197.057-.2.047-.201.037-.203.027-.205.017-.204.007a3.54 3.54 0 0 1-.206-.003l-.205-.013-.203-.023-.202-.033-.201-.043-.198-.052-.196-.063-.192-.072-.188-.081-.185-.091-.179-.099-.175-.108-.169-.117-.162-.124-.157-.132-.15-.141-.143-.147-.135-.154-.129-.161-.119-.166-.112-.173-.102-.177-.094-.183-.085-.186-.076-.191-.066-.194-.057-.197-.046-.201-.037-.201-.027-.204-.017-.204-.007-.205.004-.206.013-.204.023-.204.034-.202.042-.201.054-.198.063-.195.072-.193.081-.188.09-.184.1-.179.108-.175.117-.168.125-.163.133-.156.14-.15.147-.143.155-.136.16-.127.167-.119.172-.111.178-.103.182-.094.188-.085.19-.075.195-.066.197-.056.2-.046.202-.037.203-.027zm-2.662-26.149l.204-.016.204-.006.204.005.204.014.202.024.202.035.199.043.197.054.194.064.191.073.187.081.183.091.178.101.173.108.167.117.162.125.155.133.148.141.142.147.134.154.126.161.118.166.11.172.102.178.092.182.084.186.074.19.065.194.055.196.045.2.036.201.026.202.015.204.006.204-.004.204-.014.204-.024.203-.035.201-.044.199-.053.198-.064.194-.073.19-.082.188-.091.182-.1.179-.109.172-.117.168-.125.161-.133.156-.14.148-.148.141-.153.134-.162.126-.166.119-.172.109-.178.102-.181.093-.187.083-.19.074-.194.065-.196.055-.2.045-.201.036-.202.026-.204.015-.204.006c-.068 0-.136-.001-.204-.004l-.204-.014-.203-.025-.201-.034-.199-.044-.198-.054-.193-.063-.191-.073-.187-.082-.183-.091-.178-.101-.173-.108-.167-.117-.162-.125-.155-.133-.148-.14-.141-.148-.135-.153-.126-.161-.118-.166-.11-.173-.101-.177-.092-.182-.084-.186-.074-.191-.065-.193-.055-.197-.045-.199-.036-.201-.026-.203-.016-.203-.006-.205.005-.204.014-.203.024-.203.035-.201.044-.2.053-.197.064-.194.073-.191.081-.186.092-.183.1-.178.108-.173.117-.168.125-.161.133-.155.14-.149.148-.141.153-.134.161-.126.166-.118.173-.111.177-.101.182-.092.186-.083.191-.075.193-.065.197-.055.199-.045.201-.036.203-.026zm45.252-4.6a4.15 4.15 0 0 1 1.09-.043 4.09 4.09 0 0 1 .539.087c.178.041.353.093.524.157s.337.139.498.225a4.27 4.27 0 0 1 .463.29 4 4 0 0 1 .422.348c.132.125.256.258.371.4a4.09 4.09 0 0 1 .315.447c.096.155.18.316.254.483s.136.338.187.513a3.95 3.95 0 0 1 .118.534c.027.181.043.362.046.545a3.97 3.97 0 0 1-.026.545c-.02.182-.053.361-.098.538s-.101.35-.168.52a3.9 3.9 0 0 1-.236.492 4.33 4.33 0 0 1-.298.458 4.14 4.14 0 0 1-.357.414 4.13 4.13 0 0 1-.408.363 4.17 4.17 0 0 1-.452.306c-.158.092-.321.173-.489.244a4.27 4.27 0 0 1-.518.177 4.05 4.05 0 0 1-.535.106l-.199.021-.199.012-.2.002-.2-.008-.198-.018-.198-.027-.196-.036-.194-.046-.192-.056-.189-.064-.186-.074-.182-.082-.178-.092-.172-.1-.168-.108-.163-.116-.157-.124-.15-.131-.144-.139-.137-.144-.13-.152-.122-.158-.115-.164-.106-.168-.098-.174-.09-.179-.081-.182-.072-.186-.063-.19-.054-.192-.045-.195-.034-.196-.026-.198-.015-.2-.006-.199.003-.2.014-.199.023-.198.032-.198.042-.195.052-.192.061-.191.07-.187.078-.183.088-.18.096-.175.104-.17.114-.165.12-.159.128-.153.136-.147.141-.14.15-.133.155-.126.161-.117.167-.111.171-.102.177-.093.18-.084.186-.077.188-.067.19-.057.195-.048.195-.039zm-19.302 41.582l.267-.07.27-.052.273-.033.276-.015.275.003.274.022.273.041.268.057.265.077.259.094.252.111.244.127.235.143.225.159.213.174.202.188.188.201.175.212.159.224.145.235.129.243.112.251.094.259.078.264.06.269.041.273.022.274.005.275-.014.275-.032.274-.051.27-.068.267c-.05.171-.111.338-.183.501a4.09 4.09 0 0 1-.247.473c-.092.152-.194.298-.306.437s-.231.271-.359.395-.265.237-.408.343a3.98 3.98 0 0 1-.449.288 3.94 3.94 0 0 1-.483.228 4.29 4.29 0 0 1-.508.163l-.299.063-.303.041-.304.018c-.102.002-.204.001-.305-.004l-.304-.027-.302-.051-.296-.071-.291-.094-.283-.115-.273-.136-.263-.155-.25-.175-.237-.193-.221-.21-.205-.225-.189-.241-.169-.254-.151-.265-.13-.277-.109-.285-.089-.292-.065-.298-.044-.302-.021-.304.001-.305.025-.305.047-.301.069-.298.09-.291.113-.284.133-.275.153-.264a4.24 4.24 0 0 1 .447-.586c.167-.181.349-.346.546-.495a4.03 4.03 0 0 1 1.308-.664zm21.27-14.593c1.02-.134 1.874-.089 2.799.379.998.504 1.75 1.336 2.058 2.425a3.71 3.71 0 0 1 .09.392l.048.399.008.402a3.83 3.83 0 0 1-.107.796l-.112.385-.152.373-.189.355c-.674 1.137-1.578 1.578-2.803 1.883-1.071.073-1.968-.149-2.975-.484-.579-.626-1.253-1.469-1.532-2.284-.319-.933-.313-2.017.14-2.903.594-1.164 1.527-1.726 2.727-2.118z" class="B"/><path d="M40.188 112.078c-.045-2.198.467-4.712.86-6.87 2.151-11.793 6.971-23.471 14.281-33.004 13.725-17.901 31.94-28.799 54.379-31.746 21.02-2.76 41.309 3.435 58.012 16.282l-1.044 1.124c-3.496-2.484-7.057-4.955-10.832-6.997-.953-.509-1.916-.998-2.889-1.468s-1.957-.918-2.949-1.346-1.992-.836-3.001-1.223-2.026-.752-3.05-1.096a77.45 77.45 0 0 0-3.093-.969 76.7 76.7 0 0 0-3.129-.838c-1.05-.258-2.104-.494-3.163-.708s-2.123-.406-3.19-.575-2.137-.317-3.211-.442a77.45 77.45 0 0 0-3.225-.308c-1.078-.08-2.157-.138-3.237-.173s-2.16-.048-3.24-.038a77.77 77.77 0 0 0-3.24.097 77.61 77.61 0 0 0-3.232.232 79.11 79.11 0 0 0-3.221.366 78.81 78.81 0 0 0-3.201.5c-20.64 3.484-38.392 15.345-50.412 32.321-.804 1.154-1.576 2.329-2.316 3.526s-1.445 2.414-2.116 3.651a75.38 75.38 0 0 0-1.911 3.761 76.61 76.61 0 0 0-1.699 3.862 75.92 75.92 0 0 0-1.481 3.951 76.6 76.6 0 0 0-1.26 4.027c-.382 1.354-.727 2.718-1.034 4.091a76.59 76.59 0 0 0-.805 4.141c-.501 3.025-.618 6.053-1.012 9.08-.117-.219-.226-.423-.381-.619-.724-.917-.86-1.45-.958-2.592z" class="D"/><path d="M59.576 168.825c15.318 17.451 33.682 26.237 56.887 27.734 3.031.195 6.054-.142 9.07-.394 17.144-1.436 32.461-8.133 45.393-19.454l.287-.261 1.068.975c-1.475 1.5-3.174 2.877-4.847 4.147-16.824 12.782-37.937 18.934-59.005 16.028-14.297-1.973-27.239-7.782-38.549-16.671-4.282-3.366-8.471-7.25-11.771-11.598.293-.096.286-.054.565.032.461.89 1.332 1.85 2.117 2.48l.24-.274c-.014-1.038-1.279-1.63-1.455-2.744z" class="E"/><path d="M191.577 90.794l.28-.337c.35.037.69.045 1.041.045.465 1.206.995 2.415 1.252 3.685 1.149 2.655 1.798 5.766 2.405 8.589l.546 2.814.443 2.834.339 2.848.234 2.857.13 2.865.025 2.867-.08 2.867-.186 2.862-.289 2.853-.394 2.84-.497 2.825-.6 2.803-.703 2.78-.804 2.753-.904 2.722-1.002 2.686c-3.477 8.809-8.799 17.778-15.468 24.551-1.598 1.765-3.286 3.439-5.064 5.022l-1.068-.975c1.811-1.479 3.435-3.228 5.065-4.901.584-1.108 1.757-1.978 2.539-2.965 2.025-2.555 3.982-5.295 5.767-8.024 1.827-2.794 3.328-5.798 4.739-8.82 5.446-11.669 7.437-22.94 7.011-35.758-.083-2.479-.138-4.97-.453-7.432-.501-3.911-1.602-7.682-2.408-11.528-.47-1.386-.721-2.851-1.36-4.176l-.044-.216c-.088-.636-.295-1.227-.492-1.836z" class="D"/><path d="M191.577 90.794l.28-.337c.35.037.69.045 1.041.045.465 1.206.995 2.415 1.252 3.685l-.339-.062-.048-.166a3.85 3.85 0 0 0-.641-1.315l-.194.13c.082.246.374.903.297 1.116-.096.264-.172.442-.116.729.557.762.567 1.238.408 2.193-.011.071-.029.141-.044.21-.47-1.386-.721-2.851-1.36-4.176l-.044-.216c-.088-.636-.295-1.227-.492-1.836z" class="E"/><path d="M40.188 112.078c.098 1.142.234 1.675.958 2.592.155.196.264.4.381.619l-.072 2.866.033 2.867.137 2.863.241 2.857.345 2.845.449 2.832.552 2.813.653 2.791.755 2.766.856 2.736.954 2.703 1.052 2.667 1.149 2.626 1.244 2.583 1.337 2.536 1.429 2.485 4.422 6.452c.783 1.034 1.866 2.142 2.513 3.248.176 1.114 1.441 1.706 1.455 2.744l-.24.274c-.785-.63-1.656-1.59-2.117-2.48-.279-.086-.272-.128-.565-.032-.826-.703-1.627-1.828-2.293-2.698l-1.783-2.452-1.687-2.518-1.589-2.582-1.489-2.641-1.386-2.696-1.281-2.747-1.175-2.795-1.065-2.838-.956-2.877-.844-2.911-.732-2.942-.618-2.968-.503-2.99-.387-3.006-.272-3.019-.155-3.028c-.096-3.109-.113-6.455.294-9.545z" class="C"/><path d="M179.447 70.242l.144-.264c-.347-.746-1.054-1.352-1.534-2.027l.078-.218c1.046.246 1.436 1.74 2.431 2.044.073.023.149.038.224.058 2.55 2.59 8.183 10.941 9.197 14.337-.06.601-.081 1.153-.541 1.586l-.344-.107c-2.79-5.468-6.108-10.412-9.655-15.409z" class="E"/><path d="M167.72 56.74l6.052 5.469c2.15 2.099 5.575 5.109 7.018 7.626-.075-.02-.151-.035-.224-.058-.995-.304-1.385-1.798-2.431-2.044l-.078.218c.48.675 1.187 1.281 1.534 2.027l-.144.264c-2.167-2.566-4.398-5.015-6.81-7.354-2-1.67-3.865-3.465-5.961-5.024l1.044-1.124zm22.267 27.432c1.108 2.029 2.063 4.18 2.911 6.33-.351 0-.691-.008-1.041-.045l-.28.337c-1.031-1.209-1.806-3.649-2.475-5.143l.344.107c.46-.433.481-.985.541-1.586z" class="D"/><path d="M34.065 178.139c-2.387-3.339-4.085-7.264-5.924-10.913-.556-1.104-1.409-2.32-1.735-3.505 1.141-.084 2.447-.101 3.55-.418 1.26-.362 5.754-2.598 6.601-3.509.431-.465.242-1.149.75-1.72.441.213.595.463.841.878 1.021 1.722 1.795 3.652 2.666 5.457 1.475 3.059 3.315 6.594 5.358 9.31.029.039.06.077.089.115-.911 2.589-2.05 5.092-2.964 7.676.905-.765 3.891-2.564 3.973-3.744.04-.578-.114-1.012.278-1.458.495.093.69.253 1.04.604.933.933 1.581 2.13 2.42 3.14 1.284 1.546 3.049 2.956 4.122 4.639.156.246.196.386.216.67.163.281.313.58.534.821-1.474 1.158-3.104 2.217-3.512 4.173-.36.165-.72.29-1.011.561-1.294.174-2.988 2.436-3.814 3.453-.331-.149-.646-.374-.955-.566-1.422-.979-5.226-4.787-5.621-6.419.353-.528 1.551-.401 2.179-.656.661-.267 1.251-.73 1.78-1.198 1.154-1.022 4.528-3.755 4.613-5.145-.088-.129-.182-.288-.312-.383-1.944-1.429-7.469 5.448-10.309 5.739l-.234-.192c.04-.519 3.422-8.515 3.898-9.762-1.34 1.073-2.825 1.959-4.161 3.04-1.542 1.247-.873 1.268-1.079 2.854-.043.329-.15.309-.403.496-.363.056-.785.162-1.144.051-.271-.084-.304-.299-.43-.539.143-1.692-.759-1.867-1.294-3.295.91-.226 1.61.182 2.457.05 1.379-.215 5.952-3.996 6.768-5.201.316-.465.588-.951.477-1.527-.392-.135-.683-.15-1.089-.054-1.273.303-7.464 3.676-8.052 4.672-.052.645-.056 1.181-.482 1.708-.027.034-.057.065-.085.097z" class="B"/><path d="M48.144 186.362c.852-1.191 2.121-3.142 3.65-3.43.361.124.484.125.661.496.281.59.235 1.803.11 2.427-.279.693-.619 1.351-.572 2.111l.271.1c1.11-.585 2.114-1.874 3.082-2.705.163.281.313.58.534.821-1.474 1.158-3.104 2.217-3.512 4.173-.36.165-.72.29-1.011.561-1.294.174-2.988 2.436-3.814 3.453-.331-.149-.646-.374-.955-.566 1.036-.838 2.292-1.846 2.828-3.1-.393-.92-.311-1.565-.1-2.506.574-.953 1.999-1.82 2.878-2.506-.442-.378-.734-.671-1.368-.595-.924.11-1.822.903-2.682 1.266z" class="C"/><path d="M44.13 189.638c1.245-1.47 2.697-2.619 4.243-3.749-.376.986-1.285 2.276-1.074 3.358l.329.112c.678-.204 1.169-.705 1.688-1.162-.211.941-.293 1.586.1 2.506-1.125.235-2.227.388-3.372.492-.72-.437-1.301-.986-1.914-1.557z" class="D"/><path d="M40.311 166.838l.364.072c.406.483.823 1.294.782 1.931-1.017 1.303-6.386 4.219-8.027 4.441-.373-.086-.873-.187-1.16-.459-.384-.363-.392-.587-.41-1.076.855-1.846 6.532-4 8.451-4.909zm-7.54-2.248c.034.006.07.007.103.019.665.218 1.288 1.665 1.626 2.273l-3.308 1.9c-.429-.193-.832-.467-1.189-.774-.437-.377-.518-.652-.559-1.186.521-1.16 2.231-1.715 3.327-2.232zm4.837-2.443c.181-.002.119-.011.286.021.542.107.961.655 1.214 1.153.097.189.156.444.093.65-.321 1.058-1.944 1.637-2.864 2.113-.212.061-.352.009-.564-.031-.597-.607-.92-1.481-1.282-2.243.933-.67 2.09-1.144 3.117-1.663z" class="C"/><path d="M57.615 32.686c.206-1.366.737-2.596 1.428-3.787 1.172-2.018 3.264-4.496 5.637-5.081 1.118-.276 1.827-.01 2.756.566 1.036.888 1.9 1.717 2.663 2.861.932 1.398 7.544 14.22 7.704 15.212l-.206.401c-.17.156-.344.305-.524.448-2.453 1.946-6.216 3.656-9.414 3.244-1.624-.209-3.103-.895-4.098-2.218-.164-.217-.237-.204-.484-.297-.782.654.449 5.133-.223 6.605-.069.151-.18.143-.328.198-.033-.019-.066-.037-.098-.057-2.337-1.474-6.331-12.769-7.097-15.903.899.59 1.596 1.392 2.325 2.172l.082-.141a18.48 18.48 0 0 1-.564-1.211c-.357-.865.015-1.995.359-2.818l.082-.194z" class="B"/><path d="M57.615 32.686c.206-1.366.737-2.596 1.428-3.787 1.172-2.018 3.264-4.496 5.637-5.081 1.118-.276 1.827-.01 2.756.566 1.036.888 1.9 1.717 2.663 2.861.932 1.398 7.544 14.22 7.704 15.212l-.206.401c-.147-.415-.285-.67-.577-1.002-.337.01-.673.033-1.002-.062-.065-.019-.13-.041-.196-.061-1.467 1.261-3.534 2.52-5.365 3.111-.835.27-2.363.721-3.188.304-.037-1.561 3.15-2.392 3.797-3.711-.032-1-.87-1.834-1.206-2.762-.544-1.504.93-2.784 1.573-4.06-.048-.035-.095-.071-.144-.104-.455-.3-1.656-.475-2.175-.313-1.522.477-1.157 3.062-1.707 4.224-.123.257-.129.236-.395.328l-.239-.191c.027-.185.049-.369.071-.555.119-.998-.06-1.833-.556-2.702-.444-.777-2.318-3.576-3.174-3.818-1.563.578-2.413-.272-3.966-.196l-.266.281-.263-.416c-.178.382-.346.76-.493 1.154l-.511.379z" class="E"/><path d="M67.436 24.384c1.036.888 1.9 1.717 2.663 2.861.932 1.398 7.544 14.22 7.704 15.212l-.206.401c-.147-.415-.285-.67-.577-1.002-.337.01-.673.033-1.002-.062-.065-.019-.13-.041-.196-.061-.491-1.946-2.799-5.55-3.765-7.509-1.567-3.627-2.985-7.065-6.685-8.984.71-.687 1.092-.811 2.064-.856z" fill="url(#A)"/><path d="M57.615 32.686c.206-1.366.737-2.596 1.428-3.787 1.172-2.018 3.264-4.496 5.637-5.081 1.118-.276 1.827-.01 2.756.566-.972.045-1.354.169-2.064.856-3.878 1.461-4.038 4.4-6.149 5.812l-.075.236-.266.281-.263-.416-.493 1.154-.511.379z" fill="#fbf8f0"/><path d="M60.99 38.348c.416.327.933.589 1.012 1.158.106.766-.361 1.676.365 2.259.099.08.136.085.242.122l-.284.301c-.903-.398-1.364-1.39-2.244-1.706-1.17 1.659 1.918 4.292 1.356 6.034-1.101-.84-2.028-4.348-2.574-5.737.306-.557.551-1.031.674-1.665l.1-.276c.221.258.185.32.538.369l.815-.859z" class="C"/><path d="M59.537 39.114c-.374.183-.62.277-1.039.282l-.25-.295c.123-.352.373-.576.504-.915.378-.974.261-2.281 1.087-3.004l.41.108c1.088.926.557 1.646.717 2.89l.024.168-.815.859c-.353-.049-.317-.111-.538-.369l-.1.276z" class="E"/><path d="M63.801 42.354c.845-.985 1.633-1.773 2.756-2.432-.524 1.312-1.215 2.594-1.344 4.014l-.038.349.008-.134-.248.335c-1.122-.32-2.007-1.343-2.61-2.298l.284-.301 1.192.467z" fill="url(#B)"/><path d="M63.801 42.354c.845-.985 1.633-1.773 2.756-2.432-.524 1.312-1.215 2.594-1.344 4.014-.041-.45-.053-.769-.318-1.144-.333-.073-.716-.115-.989-.331-.039-.031-.07-.072-.105-.107z" fill="#363334"/><path d="M196.4 178.308l.579-.7c1.369.959 4.075 2.735 4.75 4.254l-.108.193c-3.349.187-6.849-.924-10.232-1.016.782.716 2.207 1.705 2.801 2.551.635.536 1.239 1.071 1.809 1.677.864-.077 1.743-.189 2.61-.198-.712 1.321-1.431 2.581-2.643 3.506l-.851.566c-1.97 1.78-3.409 4.038-5.588 5.628-.235.17-.322.316-.622.283-.935 1.555-2.329 2.803-3.775 3.871-.182-.731-.342-1.541-.694-2.211-.97-1.854-4.026-5.847-5.791-6.915-.589-.357-.997-.165-1.614-.034l-.56-.305c1.225-1.467 2.748-2.514 4.162-3.764 1.125-.993 2.117-2.16 3.179-3.221 1.579-1.579 3.258-2.948 4.615-4.748 2.546.398 5.314.835 7.878.996l.095-.413z" class="B"/><path d="M186.804 182.841c.875.456 1.396.887 2.415.899l.288-.216c-.347-1.143-1.905-1.707-2.064-2.879.397-.157.639-.223 1.062-.07 1.25.451 4.866 3.68 5.973 4.673.205-.167.24-.208.339-.452-.255-.36-.445-.678-.591-1.095l-.036-.111 1.809 1.677 2.61-.198c-.712 1.321-1.431 2.581-2.643 3.506l-.851.566c-.574-1.957-2.347-2.775-3.856-3.978.739 1.233 1.248 2.336 1.626 3.73-.199.583-.429 1.49-.897 1.905-.235.209-.492.313-.8.283-1.235-.118-2.599-2.307-3.34-3.255l3.73.561c-1.258-1.605-2.82-3.766-4.674-4.669-.206.895.512 2.33.158 3.001-.425-.001-.608-.103-.96-.351-.846-.594-1.555-1.6-1.725-2.616.103-.36.104-.563.441-.789.619-.412 1.317-.283 1.986-.122z" class="C"/><path d="M194.19 183.59l1.809 1.677 2.61-.198c-.712 1.321-1.431 2.581-2.643 3.506-.659-1.514-.02-2.011-1.488-3.327.205-.167.24-.208.339-.452-.255-.36-.445-.678-.591-1.095l-.036-.111z" class="B"/><path d="M186.614 195.056c-1.949-2.337-4.447-4.74-5.992-7.338-.022-.754.394-.714.684-1.284.107-.211.071-.759.168-1.043 1.334.746 7.305 6.601 7.885 7.893-.029.408-.107.899.067 1.281.031.069.067.136.101.204-.235.17-.322.316-.622.283l-.385-.32c-.654-.151-1.281.129-1.906.324z" class="C"/><g class="B"><path d="M201.989 156.933c-.113-.104-.157-.138-.251-.244a2.35 2.35 0 0 1-.585-1.817c.093-1.114 1.198-3.457 2.048-4.19l.117.011c1.093.13 3.525 1.08 4.184 1.93l.765.26.121.022c1.975.333 4.031.089 5.361 1.99.513.734.631 1.614.445 2.478-.255 1.188-1.032 1.911-1.404 2.965-.157.446-.083.931-.245 1.37-.387.326-.85.648-1.163 1.045.215.242.339.254.311.595-.067.841-2.966 6.946-3.639 7.456-.19.144-.396.214-.618.294l-.4-.729c.027-.457.021-.852-.051-1.305-1.039-1.317-3.657-2.189-5.194-2.907-.499.297-1.096.581-1.498 1.002-.68-.534-1.98-.921-2.409-1.665-.208-.36-.148-.449-.03-.84-.197-.135-.498-.198-.726-.277.273-1.089.89-2.159 1.367-3.175.381-.859 1.212-3.253 2.047-3.648.26-.124.629.086.898.173.115-.311.342-.539.549-.794z"/><path d="M199.427 161.537c.593-.558 1.315-1.304 2.103-1.572.398-.135.475-.062.838.102l.113.57c1.234.589 2.298 1.56 3.517 2.101.342-.387.665-.611.702-1.144a5.26 5.26 0 0 1 .729-.785c.584-.043.789.158 1.27.438.852.575 1.727 1.117 2.683 1.506.215.242.339.254.311.595-.067.841-2.966 6.946-3.639 7.456-.19.144-.396.214-.618.294l-.4-.729c.027-.457.021-.852-.051-1.305-1.039-1.317-3.657-2.189-5.194-2.907-.499.297-1.096.581-1.498 1.002-.68-.534-1.98-.921-2.409-1.665-.208-.36-.148-.449-.03-.84-.197-.135-.498-.198-.726-.277.273-1.089.89-2.159 1.367-3.175l.932.335z"/></g><path d="M206.7 161.594l1.889 1.191c.442.738 1.147 2.085.874 2.978-.102.333-.276.51-.598.643-.6.247-1.478-.088-2.039-.345-.821-.378-1.823-.838-2.139-1.717.603-.667 1.922-.137 2.376-.712-.27-.435-.57-.721-1.065-.894.342-.387.665-.611.702-1.144z" class="C"/><path d="M199.427 161.537c.593-.558 1.315-1.304 2.103-1.572.398-.135.475-.062.838.102l.113.57-.031.192c-.09.591-.1.888.185 1.431.244.465.609.974.531 1.511-.659.127-2.586-.969-3.191-1.382-.316-.216-.454-.486-.548-.852zm-1.573 3.117c1.437.158 2.679.827 3.937 1.503-.499.297-1.096.581-1.498 1.002-.68-.534-1.98-.921-2.409-1.665-.208-.36-.148-.449-.03-.84z" class="D"/><path d="M205.944 158.738c.567-.202 1.293-.4 1.788-.741.996-.686 2.673-3.4 4.029-2.801.546.241 1.009.932 1.22 1.481.185.482.071.72-.104 1.161-1.407 1.403-3.492 1.008-5.25 1.316.285.573.501.874 1.046 1.217l3.872 1.337c-.387.326-.85.648-1.163 1.045-.956-.389-1.831-.931-2.683-1.506-.481-.28-.686-.481-1.27-.438a5.26 5.26 0 0 0-.729.785c-.037.533-.36.757-.702 1.144-1.219-.541-2.283-1.512-3.517-2.101l-.113-.57c-.363-.164-.44-.237-.838-.102-.788.268-1.51 1.014-2.103 1.572l-.932-.335c.381-.859 1.212-3.253 2.047-3.648.26-.124.629.086.898.173.115-.311.342-.539.549-.794l1.296 1.105c.415.472.823.623 1.444.667l1.215.033z" class="C"/><path d="M198.495 161.202c.381-.859 1.212-3.253 2.047-3.648.26-.124.629.086.898.173l.094.088c.85.764 2.112 1.165 2.823 2.039l-.137.366c-.595.222-1.273.078-1.852-.153-.363-.164-.44-.237-.838-.102-.788.268-1.51 1.014-2.103 1.572l-.932-.335z" class="B"/><path d="M207.502 152.623l.765.26c-1.774.996-2.563 2.901-4.48 3.81-.585-.454-1.164-1.201-1.345-1.921.034-.209.035-.521.158-.691.975-1.356 3.421-1.201 4.902-1.458z" class="C"/><path d="M55.88 186.182c.753-.171 1.351-.048 1.999.382 1.173.779 1.68 2.231 2.697 3.155 2.052 1.864 4.745 2.896 6.641 5.034-.584 1.212-1.241 2.248-2.172 3.225-.136 1.076-2.259 1.546-2.234 2.996-.343 1.561-1.798 3.279-2.652 4.656-2.079-1.979-4.782-3.539-6.603-5.722l-.07-.311c-.384-.273-.713-.547-1.038-.89l-.095-.101c-.442-.289-1.18-.376-1.7-.508-1.166-.999-2.104-2.547-3.11-3.729.826-1.017 2.52-3.279 3.814-3.453.291-.271.651-.396 1.011-.561.408-1.956 2.038-3.015 3.512-4.173z" class="B"/><path d="M56.978 193.166l-.089-.105c-.817-.991-1.604-2.368-1.453-3.687.073-.635.312-1.022.79-1.429.458-.127.673-.18 1.133.035.526.248.716 1.018.895 1.525-.3.988-.491 2.014-.708 3.023l.113.683c.399.64 1.018.594 1.644.951-.975 1.44-3.077 5.135-4.889 5.514l-.431.067c-.184.027-.275.061-.427.165l-.07-.311c-.384-.273-.713-.547-1.038-.89l-.095-.101c1.337-.256 2.475-1.492 3.314-2.513.697-.851 1.432-1.768 1.311-2.927zm-5.992-.622c.818-.276.89-.026 1.692.172.696.769 1.029 2.052 1.403 3.012l-1.016.81c-.407.306-.955.588-1.484.457-.395-.097-.621-.31-.812-.655-.672-1.218-.189-2.592.217-3.796z" class="C"/><path d="M62.79 197.811c.297-.505.675-1.011.721-1.606l-.23-.255c-.621.186-1.356.792-1.968.784l-.266-.223c-.048-.794.609-1.635 1.123-2.204.436-.482.82-.735 1.469-.802.45.204.65.29.855.78.461 1.098-.049 2.822-.279 3.923-.385-.434-.862-.343-1.425-.397z" class="D"/><g class="C"><path d="M61.329 201.494c-.221.226-.441.427-.714.59-.591.353-1.608.358-2.268.142-.523-.171-.623-.318-.876-.767.012-.511.12-.781.408-1.204.456-.671 1.494-2.301 2.346-2.46l.123.293c-.046.463-.099.792-.365 1.184-.221.326-.369.616-.511.983.078.616.135.701.531 1.185.609.234.75.007 1.326.054z"/><path d="M62.79 197.811c.563.054 1.04-.037 1.425.397.321.072.536-.1.83-.23-.136 1.076-2.259 1.546-2.234 2.996l-1.482.52c-.576-.047-.717.18-1.326-.054 1.173-.894 1.697-2.577 2.787-3.629z"/></g><path d="M57.659 193.211c.948-.801 1.932-2.005 3.05-2.514l.284.087c.12 1.214-.981 2.481-1.69 3.378-.626-.357-1.245-.311-1.644-.951z" fill="url(#C)"/><path d="M52.368 190.355c.067.789.098 1.595.31 2.361-.802-.198-.874-.448-1.692-.172.186-.527.269-1.08.371-1.628.291-.271.651-.396 1.011-.561z" class="D"/><path d="M174.417 37.614c-1.162-.519-2.148-.941-2.96-1.955l.06-.311c1.561-.603 5.208.477 6.866.912.654.173 1.227.498 1.909.543.357-.243.368-.227.481-.641-.377-.719-1.35-.995-2.071-1.25-2.452-.866-4.945-1.269-7.534-1.402-1.171-.061-2.449-.014-3.6-.229-.566-.106-1.023-.284-1.425-.712-.153-.529-.111-.54.093-1.021 1.947-1.809 4.382.506 6.621.153 1.132-.179 1.279-1.256 1.844-2.062.355-.506.688-.679 1.288-.796.922-.181 1.757-.725 2.697-.731.477.296.453.404.636.915.29.63.548.843 1.184 1.161.521-.291.566-.363 1.146-.266.662.515.905 1.493 1.018 2.304.036.259-.005.47-.064.722-.587.482-1.403.137-1.9.654.878 1.06 2.906 1.409 2.78 3.124-.049.676-.426 1.334-.946 1.761-.405.332-.785.438-1.299.447-.37-.244-.557-.493-1.017-.388-1.568.358-3.305 1.339-4.834 1.936l-.094.265c1.077 1.115 4.206 2.042 4.104 3.899-.024.42-.354.837-.68 1.077-.198.145-.308.256-.557.215-.669-.108-1.55-1.181-2.159-1.578-.536-.351-1.161-.614-1.741-.884-1.22 2.147-2.864 4.254-5.367 4.932-.788.213-1.679.21-2.405-.202-.853-.486-1.337-1.4-1.543-2.332-.291-1.308-.401-4.023.083-5.242.27-.074.284-.104.572-.033.468 1.231 1.06 2.911 2.131 3.74.409.317.894.454 1.408.366 1.051-.181 1.723-1.28 2.321-2.061-1.372-1.014-3.038-1.785-4.544-2.59-1.534-1.13-3.005-2.29-4.301-3.692 3.271.333 6.36 2.014 9.322 3.357.649-.809 1.664-1.467 2.477-2.105z" class="B"/><path d="M179.322 29.027c.29.63.548.843 1.184 1.161-.47.795-.911 2.668-1.025 2.828-.166.232-.378.202-.645.252-.717-.193-1.19-.499-1.788-.922.168-.555 1.619-1.291 2.274-3.319z" class="D"/><path d="M24.708 70.617c.349-1.566.708-4.432 2.072-5.448.457-.34.76-.286 1.293-.25.75.814 1.301 4.735 1.722 6.019.252.768.638 1.472 1.035 2.173.15-1.078.104-2.555 1.004-3.276 1.836.385.549 3.712 1.451 4.914l.114.14c1.453 1.836 3.703 3.629 5.612 5.007.736.531 1.64 1.016 2.307 1.619l.206.198c.065.042.141.062.212.093l-.238.266c-2.159.34-5.806-1.49-7.872-2.289-.566.105-.815 1.411-1.342 1.868-.417.362-.925.314-1.442.288-.247-.311-.36-.36-.29-.778.115-.681.83-1.521 1.229-2.085-.96-.441-2.061-1.097-3.126-1.152-.364.153-.485.146-.631.541-.274.743.19 2.123.363 2.899.797.439 1.676.85 2.378 1.43-.003.564-.386 1.493-.732 1.936-.45.576-1.287.748-1.98.787-1.747.1-3.776-.481-5.069-1.692-.372-.35-.7-.73-.71-1.26 1.013-.772 2.348.683 3.45.454.438-.091.486-.265.72-.598.359-2.056-1.275-4.776-1.701-6.861-.777-.499-1.605-1.08-2.469-1.411-1.257-.482-2.956-.368-4.011-1.235-.403-.645-.294-1.359-.274-2.094 1.448-.258 2.133-.585 3.214-1.593 1.334.29 2.331.674 3.505 1.39z" class="B"/><path d="M26.445 69.035c.259.075.516.196.712.385.862.83 1.091 1.898 1.124 3.047-.558-.23-1.13-.547-1.508-1.03-.583-.744-.459-1.541-.328-2.402z" class="D"/><path d="M119.04 210.979c.878-.113 1.775-.309 2.641-.053.216.174.35.273.449.537l.041-.321c.748-.362 3.301-.277 4.103-.054-.43.702-.989 1.538-1.156 2.353-.323 1.576-.019 6.544.382 8.195.219.9.715 1.781 1.12 2.61-1.788-.008-3.577 0-5.365-.027.213-.464 1.441-2.583 1.363-2.876-.482-1.793.662-4.502.119-5.827l-.235.028c-1.037 2.12-.914 6.543-2.032 8.224l-.49.161c-.399.18-.604.231-1.039.173l-4.025.055c-.402-.633.236-1.154.625-1.635.177-.218.415-.514.481-.793.192-.828-.292-3.467-.32-4.494-.04-1.464.35-2.906.451-4.368-.239-.516-.602-.454-1.097-.685-.318-.148-.281-.243-.401-.578l.188-.366c.922-.527 3.073-.246 4.197-.259z" class="B"/><path d="M119.04 210.979c.878-.113 1.775-.309 2.641-.053.216.174.35.273.449.537-.599 1.581-.494 3.667-1.478 5.072l-.205-.033c-.77-1.66-1.113-3.721-1.407-5.523z" class="C"/><path d="M118.941 224.102c-1.589-3.086-1.577-5.616-1.175-9.009.165 1.517.432 3.015.803 4.494a33.23 33.23 0 0 0 1.411 4.342c-.399.18-.604.231-1.039.173z" class="D"/><path d="M209.295 67.583l.27-.048c.537-.054 1.146-.042 1.573.276l-.045.386c-.364.664-1.015.922-1.66 1.25 1.754 1.289 5.159 2.833 5.859 4.972.123.372.132.787-.061 1.138-.578 1.051-2.144 1.286-3.199 1.549l-6.139-3.196c-.396-.196-.857-.484-1.285-.346.737 1.373 3.294 1.827 3.765 3.298.088.274.039.251-.08.479-.255.19-.546.25-.855.294-.747.106-1.202-.252-1.777-.665-.2-.144-.245-.192-.488-.164-.114.013-4.623 1.914-4.768 2.028-.107.083-.232.32-.317.438-.006.509.163.761.43 1.184.22.442.412.754.764 1.104.862.343 2.023-.007 2.928-.135-.758 1.103-1.596 3.234-2.907 3.662-.903-.539-1.348-2.276-1.977-3.156-.513-.718-1.347-1.346-2.011-1.929 1.186-1.487 2.322-2.469 3.907-3.482-1.704-.484-2.789-.98-4.106-2.185 1.89-.926 2.753-.989 4.882-.747.538-.313.316-.916.823-1.412.93-.391 2.184-.155 3.174-.087.231-.363.175-.523.162-.945-.373-.426-.753-.402-1.287-.505-.32-.265-.413-.275-.439-.713-.024-.408.148-.83.419-1.131 1.007-1.122 3.053-1.121 4.445-1.212z" class="B"/><path d="M207.313 70.78c1.584.197 4.265 1.795 5.33 2.995.514.579.426 1.008.399 1.716-1.499.278-3.411-1.231-4.62-1.995-.446-.866-.974-1.74-1.109-2.716z" class="C"/><path d="M121.872 13.541c-.366-.498-1.297-1.511-1.318-2.098.344-.372.384-.45.896-.577.304.113 1.34.741 1.494.655.212-.118.285-.222.432-.401.596-.729 1.023-1.172 1.862-1.597l.456-.229 1.536 1.354-.032 5.75 1.987 2.762c-.701.551-1.382 1.124-2.177 1.538-.221 3.479-1.284 9.928-2.698 13.101-.807-3.976-.455-8.272-.603-12.321-1.126.727-2.891 2.241-4.272 2.091-.417-.341-.446-.392-.483-.921-.013-.179-.009-.26-.008-.428.442-1.589 1.206-2.738 2.362-3.901-.19-.682-.448-1.32-.718-1.973.021-1.265.516-1.855 1.284-2.805zm24.743 192.491c1.24-.054 2.013.172 3.019.913 2 1.475 3.313 3.985 3.644 6.423.219 1.612.163 3.475-.887 4.81-.747.95-1.59 1.178-2.719 1.329-.497-.001-1.04-.034-1.514-.201-1.778-.628-3.15-2.275-3.955-3.922-.907-1.857-1.415-4.254-.704-6.258.573-1.612 1.626-2.364 3.116-3.094z" class="B"/><path d="M146.394 207.647c.299.04.599.09.873.223 1.549.752 2.478 2.818 3 4.349.698 2.04 1.114 4.071.123 6.068-.36-.082-.693-.18-1.001-.392-2.02-1.39-3.208-4.881-3.587-7.173-.218-1.314-.197-1.979.592-3.075z" class="E"/><path d="M109.452 20.131c-.135-.162-.237-.371-.347-.553-.265-2.137 4.306-5.918 5.615-7.876.549-.822.558-1.644.975-2.495.399-.273.595-.429 1.109-.368.557.066 1.254.452 1.546.939.167.278.256.582.133.906-.064.166-1.3.961-1.528 1.155-.942.802-4.36 4.301-4.573 5.368-.06.303.02.314.172.558.6.233 1.307.197 1.929.043 1.092-.27 1.529-1.373 2.046-2.267.991.361 2.073.672 2.938 1.287.355-.065.788-.327 1.121-.482l.718 1.973c-1.156 1.163-1.92 2.312-2.362 3.901l-.16-.304c-.431.014-.851.001-1.283-.026-.411 1.614.832 4.196-.081 5.592-.201.308-.342.297-.677.374-.181-.063-.519-.129-.668-.232-.445-.307-1.281-2.947-1.598-3.557-.521.638-1.05 1.355-1.659 1.909-.538.489-1.059.816-1.799.785-.416-.324-.556-.474-.673-1.023-.167-.779-.14-2.424.312-3.067.573-.266 1.055-.463 1.44-.992l.072-.106c-.967-.405-1.9-.765-2.718-1.442z" class="B"/><path d="M119.467 16.828c.355-.065.788-.327 1.121-.482l.718 1.973c-1.156 1.163-1.92 2.312-2.362 3.901l-.16-.304c-.431.014-.851.001-1.283-.026.368-.927.891-1.798 1.12-2.776l-.229-.141c-.51.193-1.005.315-1.539.42l-.131-.153c.575-1.005 1.818-1.746 2.745-2.412zm-9.201 3.204c1.167-.24 3.079-.764 4.154-.078.291.186.357.413.51.712.037.734-.138 1.292-.636 1.844-.231.257-.291.262-.625.346-.427-.697-.063-1.341-.55-2.08-.316.254-.673.501-.949.797-.967-.405-1.9-.765-2.718-1.442l.814-.099z" class="D"/><path d="M109.452 20.131l.814-.099c1.183.022 1.869.017 2.853.744-.316.254-.673.501-.949.797-.967-.405-1.9-.765-2.718-1.442z" class="C"/><path d="M96.202 208.523l4.384-.042c1.275.777 2.462 1.5 3.362 2.718 1.105 1.497 1.251 3.228.964 5.019-.452 2.811-1.72 4.503-3.955 6.138-1.406.048-2.32-.416-3.647-.638-.872-.145-2.725.049-3.386-.55l1.173-1.002c1.284-1.119 2.131-7.429 2.568-9.422-.626-.66-1.304-1.29-1.463-2.221z" class="B"/><path d="M100.432 210.394c.753.243 1.56.639 1.922 1.381 1.167 2.388-.73 6.625-1.572 8.945l-2.523-.041c.27-3.446 1.192-6.981 2.173-10.285z" class="C"/><path d="M104.529 223.286c.795-1.255 1.383-2.287 1.727-3.752.337-1.435.948-5.996.679-7.396-.102-.528-.571-1.152-.855-1.61l.108-.166c2.689-.266 5.625-.053 8.325.115l-.032.117c-.548 1.821-.054 3.806-.758 5.518-.491-.05-.76-.021-1.202.204-.27.324-.488.641-.428 1.085.091.677.26.95.804 1.34.051.037.107.067.16.101l.136.162c.565.776.014 4.131-.177 5.123-.927.545-1.451-.319-2.293-.548-1.829-.497-4.283-.272-6.194-.293z" class="B"/><path d="M111.681 213.947l-.957 1.08c-.388.414-.683.636-1.265.651l-.33-.321c-.063-.336-.079-.627-.02-.967.148-.85.52-1.708 1.238-2.214.494-.107.766-.198 1.229.095 1.176.745.882 1.763 1.185 2.885.153.57.492.683.962.956-.491-.05-.76-.021-1.202.204-.27.324-.488.641-.428 1.085.091.677.26.95.804 1.34.051.037.107.067.16.101-.563.498-.775.967-1.061 1.645l-.219-.393-.339.024c-.029-2.059.122-4.118.243-6.171z" class="D"/><path d="M108.657 222.225c.02-1.441-.052-3.366.423-4.729l.456-.05c.549.551.395 1.746.798 2.495.485.293.535.255 1.104.177l.339-.024.219.393c-.126.363-.26.848-.534 1.128-.632.645-1.95.56-2.805.61z" class="E"/><path d="M207.366 58.991c.165.056.327.115.482.193.713.358 1.417 1.86 1.647 2.613.223.731.184 1.103-.154 1.751-.598.427-1.421.336-2.135.447-.728.674-1.094 2.236-1.719 3.147-1.006.321-1.971.705-3.009.288-.454-.471-.467-.838-.609-1.461l-.359-.069c-1.215.514-2.169 1.432-3.187 2.252-2.24.212-4.112.74-6.179 1.589-.539-.371-.984-.607-1.207-1.256-.027-1.646 1.351-3.185 2.227-4.504 2.098-.387 7.368-2.163 9.133-1.541.858.302.996 1.847 1.31 2.607l.331.106c.284-.103.618-.21.876-.372 1.767-1.115.839-3.273 1.371-4.86.158-.471.594-.644 1.008-.848l.173-.082zM167.05 204.144c-.775-.625-1.411-1.229-1.893-2.113-.586-1.073-1.027-2.376-.631-3.591.341-1.048 1.21-1.693 2.163-2.144.454.035.842.047 1.292-.031l.532-.967.392.072c1.153.937 1.861 2.615 2.548 3.921-.508.148-.596.19-1.089-.066-1.153-.601-1.968-1.556-3.369-1.572-.471.205-.693.3-.917.804-.217.489-.249.96-.139 1.473.371.482.587.696 1.23.797 1.602.252 3.205-.384 4.814-.268 1.996 1.419 2.695 3.106 3.254 5.426-1.585 2.6-3.205 2.35-5.119 4.145-1.14-1.575-2.631-3.112-3.056-5.049l-.012-.837z" class="B"/><path d="M167.05 204.144c.512.063 1.068.149 1.582.102 1.278-.117 3.438-1.074 4.442.154.369.451.453.991.417 1.553-.379.929-1.186 1.218-2.038 1.607-1.031-.501-2.955-2.589-3.741-2.71-.14-.021-.496.1-.65.131l-.012-.837z" class="C"/><path d="M65.93 208.994c.708-.322 1.462-.639 2.075-1.126 1.832-1.454 6.946-7.952 8.677-8.314.665 1.067-1.064 7.709-1.256 9.304-.213 1.764-.09 3.545-.442 5.295-1.184-.387-3.529-1.192-4.313-2.159-.225-.297-.268-.278-.636-.372-1.511-.619-2.842-1.608-4.105-2.628z" class="B"/><path d="M70.035 211.622l.009-.132c.036-1.277-1.248-2.278-.458-3.427.546-.311 1.038-.428 1.661-.264.481.126.951.387 1.19.84.233.442.218.937.034 1.394-.336.836-1.122 1.406-1.8 1.961-.225-.297-.268-.278-.636-.372z" class="C"/><path d="M157.202 208.884c.301 1.183 1.339 4.504 2.327 5.147.506.329.962.089 1.27.713l-.208.37c-.982.641-1.979 1.179-3.146 1.392-.638.117-1.057.089-1.59-.278l.004-.341.695-.708.162-.143.004-.208c-.012-.38-3.336-8.017-3.642-8.375-.357-.416-1.166-.523-1.624-.907l.021-.404c1.09-1.196 5.627-2.728 7.27-3.164.615 1.04 2.131 2.568 2.076 3.809-.025.543-.282.697-.651 1.029-.327.4-.552.694-.699 1.193.069.238.174.449.276.676.356.786 1.003 1.956.68 2.814-1.271-.564-2.216-1.688-3.225-2.615z" class="B"/><path d="M155.348 204.378l2.813.008c.785.694 1.253 1.681 2.009 2.43-.327.4-.552.694-.699 1.193-.334-.743-.727-2.101-1.41-2.548-1.049.315-.159 2.065-.777 2.862l-.378-.001c-.731-.687-1.191-2.913-1.558-3.944z" class="C"/><path d="M84.135 217.76c.749-.585 1.445-1.168 2.045-1.91 1.471-1.817 4.939-8.317 6.379-9.096.268.035.417-.015.603.203.297.352.312 1.008.327 1.453.068 1.91-.167 3.851-.225 5.762-.069 2.295.06 4.561.248 6.846-1.295-.462-3.095-.884-4.229-1.638-.303-.168-.712-.112-1.056-.117-1.465-.319-2.707-.975-4.092-1.503z" class="B"/><path d="M88.227 219.263l-.003-.138c-.05-1.154-1.058-2.237-.588-3.363.849-.486 2.127-.078 3.027.107.015.994.172 2.009-.584 2.773l-.305.282-.491.456c-.303-.168-.712-.112-1.056-.117z" class="D"/><g class="B"><path d="M193.979 171.389c.009-.377.015-.768.082-1.14.141-.782.53-1.872 1.2-2.315.08.38-.278.475-.089 1.036.898 2.612 3.774 4.537 6.187 5.692.644.309 1.675.774 2.383.467.453-.197.708-.564.853-1.027.219-.696.193-1.794-.198-2.428-.361-.586-1.133-1.037-1.216-1.736.264-.139.261-.156.552-.072.914.264 1.602.974 2.032 1.798a8.35 8.35 0 0 1 .57 1.373c-.049 1.203-.252 2.303-1.21 3.145-.968.85-2.434.921-3.652.797-1.058-.108-2.067-.412-3.056-.791-.592.152-.795.102-1.344-.229l-.534-.343-.327.257c.048.464.254.71.529 1.076l.005.359.233.3-.579.7c-1.173-.746-2.146-1.921-3.426-2.492-.8-.356-1.755-.127-2.508-.566.022-.094.047-.227.085-.321.347-.859 1.784-2.667 2.615-3.009.034-.435.355-.93.544-1.32l.269.789z"/><path d="M196.4 178.308c-1.173-.746-2.146-1.921-3.426-2.492-.8-.356-1.755-.127-2.508-.566.022-.094.047-.227.085-.321.347-.859 1.784-2.667 2.615-3.009.55 2.502 1.684 3.75 3.58 5.388l.233.3-.579.7z"/></g><path d="M193.71 170.6l.269.789c.438 1.779 2.155 3.462 3.682 4.372l.756.427c-.592.152-.795.102-1.344-.229l-.534-.343-.327.257c.048.464.254.71.529 1.076l.005.359c-1.896-1.638-3.03-2.886-3.58-5.388.034-.435.355-.93.544-1.32z" class="D"/><path d="M31.146 150.773l.45-.039.191-.008c.435-.021.754.035 1.158.189 5.635 2.15 2.474 2.11 4.421 6.56l-.53.352c-1.482.971-3.265.959-4.98 1.118 1.178-.991 2.486-1.881 3.138-3.327.225-.499.282-.897.082-1.411-.102-.26-.455-.509-.707-.603-1.989-.75-4.966.797-6.741 1.675a9.5 9.5 0 0 0-2.255 1.991c-.311.379-.354.609-.29 1.079.943 1.304 3.681.635 4.994 1.404l.063.353c-.085.142-.169.298-.29.414-1.26 1.214-3.01.29-4.408.024-.679-.129-1.442-.069-2.132-.057l.01-4.921c2.28-2.279 4.755-3.79 7.826-4.793zm100.54 59.715c1.157-.693 2.931-.508 4.245-.516l-.978 1.995c-1.329 3.066-2.181 6.034-.9 9.269.312.168.584.176.929.198.232.015.243.113.393.28.064.515.093.533-.195 1.002-1.283.876-4.089.601-5.649.632.484-.643 1.065-1.2 1.629-1.771.072-4.264-2.259-7.495-4.84-10.678 1.701-.084 3.42-.582 5.11-.525l.256.114z" class="B"/><path d="M131.43 210.374l.256.114c.32.844.749 1.012 1.496 1.467.273.993-.291 2.422-.541 3.423-.493-.632-1.051-1.353-1.397-2.074-.515-1.073-.204-1.897.186-2.93z" class="D"/><path d="M83.399 204.969c-2.241 2.132-3.989 4.937-4.091 8.102-.021.654.033 1.221.396 1.786.309.19.514.246.882.161 1.549-.361 2.52-2.352 4.026-2.457l.263.168c-.17 1.026-1.364 2.263-2.195 2.848s-1.919 1.117-2.964.917c-.822-.158-1.427-.77-1.851-1.458-1.024-1.659-1.142-3.474-.66-5.332.561-2.169 1.882-4.543 3.873-5.7.869-.506 2.048-.844 3.047-.566 1.312.366 2.484 1.821 3.702 2.499-.467 1.086-1.203 3.567-2.12 4.275l-.256-.143c-.284-1.105-.127-2.177-.023-3.296-.135-.556-.284-.965-.602-1.442-.487-.359-.835-.368-1.427-.362zm88.654-11.886c.597-.156.906-.294 1.515-.127l.171.172c-.03.425-.051.883.037 1.301.615 2.895 3.734 5.844 6.161 7.305 3.478-3.177.447-2.988 1.246-5.461l.392-.115c.192.071.417.109.561.26 1.059 1.112 1.009 2.943.949 4.361-.947 1.472-1.84 2.125-3.427 2.852-1.538-.448-3.306-1.113-4.508-2.208-1.54-1.404-3.507-4.583-3.54-6.736-.009-.593.004-1.164.443-1.604zm14.328-161.45c.664-.026 1.31.745 1.779 1.16l-.052 2.468c-1.11.371-2.048.592-3.227.553-1.209-.524-1.96-1.405-2.844-2.338 1.663-.407 3.01-.695 4.344-1.843z" class="B"/><path d="M172.053 193.083c1.299-1.483 3.209-2.106 4.418-3.625l.56.305.014.133c.226 1.597 2.488 2.64 2.502 4.322-.174.089-.186.146-.384.085-1.468-.456-2.816-2.636-4.562-1.887-.335.144-.611.454-.862.712l-.171-.172c-.609-.167-.918-.029-1.515.127zm25.075-28.706c.228.079.529.142.726.277-.118.391-.178.48.03.84.429.744 1.729 1.131 2.409 1.665.294.392.379.414.353.922-1.84.677-3.498-1.922-5.474.889-.189-.561.169-.656.089-1.036-.67.443-1.059 1.533-1.2 2.315-.067.372-.073.763-.082 1.14l-.269-.789c.106-.947.298-1.809.567-2.722 1.299-1.091 2.025-2.019 2.851-3.501z" fill="#fbf8f0"/><path d="M215.325 66.611l.395.123c.54.523.876 1.656.976 2.396.094.691.048 1.228-.366 1.795-.507.245-.548.243-1.102.135-.8-.64-1.669-1.131-2.555-1.638a9.98 9.98 0 0 0 2.652-2.811z" class="B"/></g><defs><linearGradient id="A" x1="69.446" y1="34.282" x2="73.186" y2="30.652" gradientUnits="userSpaceOnUse"><stop offset="0" stop-color="#f8ffe6"/><stop offset="1" stop-color="#fff8f8"/></linearGradient><linearGradient id="B" x1="64.38" y1="42.615" x2="63.951" y2="43.305" gradientUnits="userSpaceOnUse"><stop offset="0" stop-color="#2e2d31"/><stop offset="1" stop-color="#312839"/></linearGradient><linearGradient id="C" x1="59.551" y1="191.793" x2="59.954" y2="192.401" gradientUnits="userSpaceOnUse"><stop offset="0" stop-color="#3d4650"/><stop offset="1" stop-color="#393f58"/></linearGradient></defs></svg>
