<?xml version="1.0" encoding="UTF-8" standalone="no"?><!DOCTYPE svg PUBLIC "-//W3C//DTD SVG 1.1//EN" "http://www.w3.org/Graphics/SVG/1.1/DTD/svg11.dtd"><svg width="100%" height="100%" viewBox="0 0 239 239" version="1.1" xmlns="http://www.w3.org/2000/svg" xmlns:xlink="http://www.w3.org/1999/xlink" xml:space="preserve" xmlns:serif="http://www.serif.com/" style="fill-rule:evenodd;clip-rule:evenodd;stroke-linejoin:round;stroke-miterlimit:2;"><path d="M114.586,0.084c1.949,-0.073 3.899,-0.099 5.849,-0.076c1.951,0.022 3.9,0.093 5.847,0.211c1.946,0.118 3.889,0.284 5.828,0.497c1.939,0.214 3.871,0.475 5.797,0.784c1.926,0.308 3.843,0.664 5.751,1.067c1.909,0.403 3.806,0.852 5.693,1.348c1.886,0.496 3.759,1.039 5.619,1.627c1.86,0.588 3.704,1.221 5.533,1.9c1.828,0.679 3.639,1.402 5.432,2.17c1.793,0.768 3.566,1.579 5.319,2.434c1.753,0.855 3.485,1.752 5.194,2.692c1.709,0.94 3.394,1.921 5.055,2.944c1.661,1.023 3.295,2.086 4.904,3.189c1.608,1.103 3.189,2.245 4.741,3.426c1.553,1.181 3.075,2.399 4.568,3.654c1.492,1.256 2.953,2.548 4.383,3.875c1.429,1.327 2.825,2.689 4.187,4.085c1.362,1.396 2.689,2.825 3.981,4.286c1.292,1.461 2.547,2.953 3.766,4.476c1.219,1.523 2.4,3.075 3.542,4.656c1.143,1.581 2.245,3.189 3.308,4.824c1.064,1.635 2.087,3.295 3.069,4.981c0.981,1.685 1.921,3.394 2.819,5.125c0.898,1.732 1.753,3.484 2.564,5.258c0.812,1.773 1.58,3.566 2.303,5.377c0.724,1.811 1.403,3.639 2.037,5.484c0.633,1.845 1.221,3.704 1.764,5.577c0.542,1.874 1.038,3.76 1.488,5.658c0.45,1.898 0.853,3.806 1.209,5.724c0.356,1.917 0.664,3.842 0.926,5.775c0.261,1.933 0.475,3.872 0.641,5.815c0.166,1.944 0.284,3.89 0.355,5.839c0.07,1.949 0.093,3.899 0.067,5.849c-0.025,1.951 -0.098,3.899 -0.219,5.846c-0.121,1.947 -0.29,3.889 -0.507,5.828c-0.216,1.938 -0.48,3.87 -0.792,5.796c-0.311,1.925 -0.67,3.842 -1.076,5.749c-0.405,1.908 -0.858,3.805 -1.357,5.691c-0.499,1.885 -1.044,3.757 -1.635,5.616c-0.591,1.859 -1.227,3.703 -1.908,5.53c-0.682,1.828 -1.408,3.637 -2.178,5.429c-0.77,1.792 -1.584,3.564 -2.442,5.316c-0.858,1.752 -1.758,3.481 -2.7,5.189c-0.943,1.708 -1.927,3.391 -2.952,5.05c-1.025,1.66 -2.091,3.293 -3.196,4.9c-1.106,1.607 -2.25,3.186 -3.433,4.736c-1.183,1.551 -2.404,3.072 -3.661,4.563c-1.258,1.49 -2.552,2.949 -3.882,4.377c-1.329,1.427 -2.693,2.82 -4.091,4.18c-1.398,1.361 -2.829,2.686 -4.292,3.975c-1.463,1.29 -2.957,2.543 -4.482,3.76c-1.525,1.216 -3.078,2.394 -4.661,3.535c-1.583,1.14 -3.192,2.24 -4.829,3.3c-1.637,1.061 -3.299,2.082 -4.985,3.061c-1.687,0.979 -3.397,1.916 -5.13,2.812c-1.733,0.895 -3.487,1.747 -5.262,2.556c-1.775,0.809 -3.568,1.574 -5.381,2.295c-1.812,0.721 -3.641,1.397 -5.487,2.028c-1.845,0.631 -3.705,1.216 -5.58,1.756c-1.874,0.539 -3.761,1.032 -5.659,1.479c-1.899,0.447 -3.807,0.847 -5.726,1.2c-1.918,0.353 -3.843,0.659 -5.777,0.918c-1.933,0.258 -3.872,0.469 -5.815,0.633c-1.944,0.163 -3.89,0.278 -5.84,0.345c-1.945,0.068 -3.891,0.088 -5.838,0.06c-1.946,-0.028 -3.891,-0.104 -5.834,-0.228c-1.943,-0.123 -3.882,-0.294 -5.816,-0.513c-1.935,-0.218 -3.863,-0.484 -5.784,-0.797c-1.921,-0.313 -3.834,-0.673 -5.738,-1.08c-1.903,-0.407 -3.796,-0.86 -5.677,-1.36c-1.882,-0.5 -3.75,-1.045 -5.605,-1.637c-1.855,-0.591 -3.694,-1.228 -5.518,-1.909c-1.823,-0.682 -3.629,-1.408 -5.417,-2.178c-1.788,-0.77 -3.556,-1.584 -5.304,-2.441c-1.748,-0.856 -3.474,-1.755 -5.177,-2.697c-1.704,-0.941 -3.384,-1.924 -5.04,-2.948c-1.656,-1.024 -3.285,-2.088 -4.889,-3.192c-1.603,-1.104 -3.179,-2.247 -4.726,-3.428c-1.548,-1.181 -3.066,-2.399 -4.553,-3.654c-1.488,-1.256 -2.944,-2.548 -4.369,-3.875c-1.424,-1.327 -2.815,-2.688 -4.173,-4.083c-1.357,-1.395 -2.68,-2.823 -3.968,-4.283c-1.287,-1.46 -2.538,-2.951 -3.753,-4.472c-1.214,-1.522 -2.391,-3.072 -3.529,-4.651c-1.139,-1.58 -2.238,-3.186 -3.297,-4.819c-1.06,-1.633 -2.079,-3.291 -3.057,-4.974c-0.979,-1.683 -1.915,-3.389 -2.81,-5.118c-0.895,-1.729 -1.746,-3.479 -2.555,-5.25c-0.809,-1.771 -1.574,-3.56 -2.295,-5.368c-0.721,-1.809 -1.397,-3.634 -2.029,-5.475c-0.631,-1.842 -1.217,-3.698 -1.758,-5.568c-0.54,-1.87 -1.035,-3.753 -1.483,-5.647c-0.448,-1.895 -0.849,-3.799 -1.204,-5.713c-0.355,-1.914 -0.663,-3.836 -0.923,-5.765c-0.261,-1.929 -0.474,-3.864 -0.639,-5.804c-0.166,-1.939 -0.284,-3.882 -0.354,-5.827c-0.071,-1.946 -0.093,-3.892 -0.068,-5.838c0.025,-1.947 0.098,-3.891 0.218,-5.834c0.121,-1.943 0.289,-3.882 0.505,-5.817c0.215,-1.935 0.478,-3.864 0.788,-5.785c0.31,-1.922 0.668,-3.835 1.072,-5.74c0.404,-1.904 0.854,-3.798 1.351,-5.68c0.497,-1.882 1.04,-3.751 1.628,-5.607c0.589,-1.855 1.223,-3.695 1.901,-5.52c0.679,-1.825 1.402,-3.632 2.17,-5.421c0.767,-1.789 1.578,-3.558 2.432,-5.307c0.855,-1.749 1.751,-3.477 2.69,-5.182c0.939,-1.706 1.919,-3.387 2.941,-5.044c1.021,-1.657 2.083,-3.289 3.184,-4.894c1.102,-1.605 2.242,-3.182 3.42,-4.732c1.179,-1.549 2.395,-3.068 3.649,-4.558c1.253,-1.49 2.542,-2.948 3.867,-4.374c1.325,-1.426 2.684,-2.82 4.077,-4.179c1.393,-1.36 2.819,-2.685 4.277,-3.975c1.458,-1.289 2.947,-2.543 4.467,-3.76c1.52,-1.216 3.068,-2.395 4.646,-3.536c1.577,-1.141 3.182,-2.242 4.813,-3.304c1.632,-1.063 3.288,-2.084 4.97,-3.065c1.681,-0.981 3.386,-1.92 5.113,-2.817c1.728,-0.897 3.477,-1.752 5.246,-2.563c1.77,-0.812 3.558,-1.579 5.365,-2.303c1.808,-0.724 3.632,-1.403 5.472,-2.037c1.841,-0.635 3.696,-1.223 5.565,-1.767c1.869,-0.543 3.751,-1.04 5.645,-1.491c1.894,-0.451 3.797,-0.856 5.711,-1.213c1.913,-0.358 3.835,-0.669 5.764,-0.932c1.928,-0.263 3.862,-0.479 5.802,-0.648c1.939,-0.168 3.882,-0.289 5.827,-0.363Z" style="fill:#243d74;fill-rule:nonzero;"/><path d="M111.866,2.268c1.912,-0.118 3.826,-0.189 5.741,-0.213c1.916,-0.024 3.831,-0.001 5.745,0.069c1.914,0.07 3.826,0.187 5.735,0.351c1.908,0.164 3.811,0.375 5.709,0.632c1.899,0.257 3.79,0.561 5.673,0.912c1.883,0.35 3.757,0.746 5.621,1.188c1.864,0.443 3.716,0.93 5.556,1.464c1.84,0.533 3.666,1.111 5.477,1.734c1.812,0.623 3.607,1.29 5.385,2.001c1.779,0.711 3.54,1.465 5.282,2.262c1.741,0.798 3.462,1.638 5.163,2.52c1.7,0.882 3.378,1.805 5.034,2.769c1.655,0.965 3.285,1.969 4.891,3.014c1.606,1.044 3.185,2.127 4.738,3.249c1.552,1.122 3.076,2.282 4.572,3.479c1.496,1.197 2.961,2.429 4.396,3.698c1.436,1.269 2.839,2.572 4.21,3.91c1.371,1.338 2.709,2.708 4.013,4.112c1.304,1.403 2.572,2.838 3.805,4.304c1.234,1.465 2.43,2.96 3.59,4.485c1.16,1.524 2.282,3.077 3.366,4.656c1.084,1.58 2.128,3.185 3.133,4.816c1.005,1.631 1.97,3.285 2.894,4.964c0.923,1.678 1.805,3.378 2.645,5.099c0.84,1.722 1.638,3.463 2.392,5.224c0.755,1.76 1.466,3.538 2.133,5.334c0.668,1.796 1.291,3.607 1.869,5.433c0.579,1.826 1.112,3.665 1.6,5.518c0.488,1.852 0.931,3.715 1.328,5.589c0.396,1.875 0.746,3.758 1.05,5.649c0.305,1.891 0.563,3.789 0.774,5.693c0.21,1.904 0.374,3.812 0.492,5.724c0.117,1.912 0.187,3.826 0.21,5.741c0.024,1.916 0,3.831 -0.071,5.745c-0.07,1.914 -0.188,3.826 -0.352,5.735c-0.165,1.908 -0.377,3.811 -0.635,5.709c-0.258,1.898 -0.562,3.789 -0.913,5.673c-0.351,1.883 -0.748,3.756 -1.191,5.62c-0.443,1.864 -0.931,3.715 -1.465,5.555c-0.534,1.84 -1.113,3.665 -1.736,5.477c-0.624,1.811 -1.291,3.606 -2.003,5.385c-0.711,1.778 -1.466,3.538 -2.265,5.28c-0.798,1.741 -1.638,3.462 -2.521,5.162c-0.882,1.7 -1.806,3.378 -2.771,5.033c-0.965,1.655 -1.97,3.285 -3.015,4.89c-1.045,1.606 -2.129,3.185 -3.251,4.737c-1.123,1.552 -2.283,3.076 -3.48,4.571c-1.198,1.495 -2.431,2.961 -3.701,4.396c-1.269,1.434 -2.572,2.837 -3.911,4.207c-1.338,1.371 -2.709,2.708 -4.113,4.012c-1.404,1.303 -2.839,2.571 -4.305,3.804c-1.466,1.233 -2.961,2.429 -4.486,3.589c-1.525,1.159 -3.078,2.28 -4.658,3.363c-1.58,1.084 -3.185,2.128 -4.816,3.132c-1.632,1.004 -3.287,1.968 -4.965,2.891c-1.679,0.923 -3.379,1.805 -5.101,2.644c-1.722,0.84 -3.463,1.637 -5.224,2.391c-1.761,0.754 -3.539,1.464 -5.335,2.131c-1.796,0.667 -3.608,1.289 -5.434,1.867c-1.826,0.578 -3.666,1.111 -5.519,1.598c-1.852,0.488 -3.715,0.929 -5.589,1.325c-1.875,0.396 -3.758,0.746 -5.649,1.05c-1.892,0.303 -3.79,0.56 -5.694,0.77c-1.904,0.21 -3.812,0.374 -5.724,0.49c-1.911,0.117 -3.824,0.186 -5.739,0.209c-1.914,0.023 -3.828,-0.001 -5.742,-0.073c-1.913,-0.071 -3.824,-0.189 -5.731,-0.354c-1.908,-0.165 -3.811,-0.377 -5.708,-0.636c-1.897,-0.258 -3.787,-0.563 -5.669,-0.914c-1.882,-0.351 -3.755,-0.748 -5.617,-1.192c-1.863,-0.443 -3.714,-0.931 -5.553,-1.465c-1.839,-0.534 -3.663,-1.113 -5.474,-1.737c-1.81,-0.623 -3.604,-1.291 -5.382,-2.002c-1.778,-0.712 -3.537,-1.466 -5.278,-2.264c-1.74,-0.798 -3.46,-1.639 -5.16,-2.521c-1.699,-0.883 -3.375,-1.806 -5.03,-2.771c-1.654,-0.965 -3.283,-1.969 -4.888,-3.014c-1.604,-1.044 -3.182,-2.128 -4.734,-3.25c-1.551,-1.122 -3.074,-2.282 -4.569,-3.479c-1.495,-1.196 -2.959,-2.429 -4.393,-3.698c-1.434,-1.269 -2.836,-2.572 -4.206,-3.91c-1.371,-1.337 -2.707,-2.708 -4.01,-4.111c-1.303,-1.403 -2.57,-2.838 -3.803,-4.303c-1.232,-1.465 -2.428,-2.96 -3.587,-4.484c-1.159,-1.524 -2.28,-3.076 -3.363,-4.655c-1.083,-1.579 -2.127,-3.184 -3.131,-4.814c-1.004,-1.631 -1.967,-3.285 -2.89,-4.962c-0.923,-1.678 -1.805,-3.378 -2.644,-5.099c-0.84,-1.72 -1.636,-3.461 -2.391,-5.221c-0.754,-1.76 -1.464,-3.537 -2.131,-5.332c-0.667,-1.795 -1.289,-3.605 -1.867,-5.431c-0.578,-1.825 -1.111,-3.664 -1.599,-5.515c-0.488,-1.852 -0.93,-3.715 -1.326,-5.588c-0.396,-1.873 -0.747,-3.755 -1.05,-5.646c-0.304,-1.89 -0.562,-3.787 -0.773,-5.69c-0.21,-1.903 -0.375,-3.811 -0.492,-5.722c-0.117,-1.911 -0.187,-3.824 -0.211,-5.739c-0.023,-1.914 0.001,-3.828 0.071,-5.742c0.071,-1.913 0.188,-3.824 0.353,-5.731c0.164,-1.908 0.375,-3.811 0.633,-5.708c0.258,-1.897 0.562,-3.787 0.913,-5.67c0.35,-1.882 0.747,-3.755 1.189,-5.618c0.443,-1.863 0.931,-3.714 1.464,-5.553c0.533,-1.839 1.111,-3.664 1.734,-5.474c0.623,-1.811 1.29,-3.605 2.001,-5.383c0.711,-1.778 1.465,-3.537 2.263,-5.278c0.797,-1.741 1.637,-3.462 2.518,-5.161c0.882,-1.7 1.805,-3.377 2.769,-5.031c0.964,-1.654 1.968,-3.284 3.013,-4.889c1.044,-1.605 2.127,-3.184 3.248,-4.736c1.122,-1.552 2.281,-3.075 3.477,-4.57c1.196,-1.495 2.429,-2.96 3.697,-4.394c1.268,-1.435 2.571,-2.838 3.908,-4.208c1.337,-1.371 2.707,-2.708 4.11,-4.011c1.403,-1.303 2.837,-2.572 4.302,-3.805c1.465,-1.233 2.959,-2.429 4.483,-3.588c1.523,-1.16 3.075,-2.282 4.654,-3.365c1.578,-1.083 3.182,-2.128 4.812,-3.132c1.63,-1.005 3.284,-1.969 4.962,-2.893c1.677,-0.923 3.376,-1.805 5.097,-2.645c1.72,-0.84 3.46,-1.638 5.22,-2.392c1.76,-0.755 3.537,-1.466 5.332,-2.134c1.795,-0.667 3.605,-1.29 5.43,-1.869c1.825,-0.579 3.663,-1.112 5.515,-1.6c1.851,-0.489 3.714,-0.932 5.587,-1.329c1.873,-0.397 3.755,-0.747 5.646,-1.052c1.89,-0.305 3.786,-0.563 5.69,-0.774c1.903,-0.212 3.81,-0.376 5.721,-0.494Z" style="fill:#fefefe;fill-rule:nonzero;"/><path d="M112.585,4.57c1.875,-0.106 3.75,-0.166 5.627,-0.18c1.878,-0.014 3.754,0.019 5.63,0.097c1.875,0.078 3.748,0.202 5.617,0.372c1.87,0.17 3.735,0.386 5.593,0.648c1.859,0.262 3.711,0.569 5.555,0.922c1.844,0.352 3.678,0.75 5.502,1.193c1.824,0.442 3.637,0.93 5.437,1.461c1.801,0.532 3.587,1.108 5.359,1.727c1.772,0.62 3.528,1.282 5.268,1.988c1.739,0.706 3.461,1.454 5.164,2.244c1.703,0.79 3.385,1.622 5.047,2.494c1.662,0.873 3.302,1.786 4.919,2.74c1.617,0.953 3.21,1.946 4.778,2.977c1.568,1.032 3.111,2.101 4.627,3.209c1.516,1.107 3.003,2.251 4.463,3.431c1.46,1.181 2.89,2.396 4.29,3.647c1.4,1.251 2.768,2.535 4.105,3.853c1.337,1.318 2.641,2.668 3.912,4.05c1.271,1.381 2.507,2.794 3.708,4.236c1.201,1.443 2.366,2.914 3.495,4.414c1.129,1.5 2.221,3.026 3.275,4.58c1.054,1.553 2.07,3.132 3.046,4.735c0.977,1.603 1.913,3.23 2.81,4.879c0.897,1.649 1.753,3.319 2.567,5.011c0.815,1.691 1.587,3.401 2.318,5.131c0.731,1.729 1.419,3.475 2.064,5.238c0.645,1.763 1.246,3.541 1.803,5.334c0.558,1.792 1.071,3.597 1.54,5.415c0.469,1.818 0.893,3.646 1.272,5.484c0.38,1.839 0.714,3.686 1.002,5.541c0.288,1.855 0.531,3.716 0.728,5.583c0.197,1.867 0.348,3.737 0.453,5.612c0.105,1.874 0.165,3.75 0.178,5.627c0.013,1.878 -0.02,3.754 -0.099,5.63c-0.079,1.875 -0.205,3.748 -0.376,5.617c-0.171,1.87 -0.387,3.734 -0.65,5.593c-0.262,1.859 -0.57,3.71 -0.924,5.554c-0.353,1.843 -0.752,3.677 -1.195,5.502c-0.444,1.824 -0.933,3.636 -1.465,5.436c-0.533,1.8 -1.109,3.586 -1.729,5.358c-0.62,1.772 -1.284,3.527 -1.99,5.267c-0.707,1.739 -1.456,3.46 -2.247,5.162c-0.791,1.703 -1.623,3.385 -2.497,5.046c-0.874,1.662 -1.787,3.301 -2.741,4.918c-0.954,1.617 -1.948,3.209 -2.98,4.777c-1.033,1.568 -2.103,3.109 -3.211,4.625c-1.108,1.515 -2.252,3.003 -3.433,4.462c-1.182,1.459 -2.398,2.889 -3.649,4.288c-1.252,1.4 -2.537,2.767 -3.855,4.103c-1.319,1.337 -2.669,2.64 -4.052,3.91c-1.382,1.27 -2.795,2.505 -4.238,3.706c-1.443,1.201 -2.915,2.365 -4.415,3.493c-1.501,1.129 -3.028,2.22 -4.582,3.273c-1.554,1.053 -3.133,2.068 -4.736,3.044c-1.604,0.976 -3.231,1.912 -4.88,2.808c-1.65,0.895 -3.321,1.75 -5.013,2.564c-1.691,0.814 -3.402,1.586 -5.131,2.316c-1.73,0.73 -3.477,1.417 -5.24,2.061c-1.763,0.644 -3.541,1.244 -5.334,1.801c-1.793,0.557 -3.598,1.069 -5.416,1.537c-1.818,0.468 -3.647,0.892 -5.486,1.27c-1.839,0.378 -3.686,0.711 -5.541,0.998c-1.855,0.288 -3.716,0.53 -5.583,0.726c-1.867,0.196 -3.737,0.347 -5.612,0.451c-1.873,0.104 -3.748,0.162 -5.624,0.175c-1.876,0.012 -3.751,-0.022 -5.626,-0.101c-1.874,-0.08 -3.746,-0.206 -5.614,-0.378c-1.868,-0.171 -3.731,-0.388 -5.589,-0.651c-1.858,-0.264 -3.708,-0.572 -5.55,-0.926c-1.843,-0.354 -3.676,-0.753 -5.499,-1.197c-1.822,-0.444 -3.633,-0.932 -5.432,-1.465c-1.799,-0.533 -3.584,-1.109 -5.354,-1.729c-1.771,-0.621 -3.526,-1.284 -5.264,-1.991c-1.738,-0.706 -3.457,-1.455 -5.159,-2.246c-1.701,-0.79 -3.382,-1.622 -5.043,-2.496c-1.66,-0.873 -3.298,-1.787 -4.914,-2.74c-1.615,-0.954 -3.207,-1.947 -4.774,-2.979c-1.567,-1.032 -3.107,-2.101 -4.622,-3.209c-1.514,-1.107 -3.001,-2.251 -4.459,-3.432c-1.458,-1.18 -2.886,-2.396 -4.285,-3.646c-1.399,-1.251 -2.766,-2.535 -4.101,-3.853c-1.336,-1.318 -2.638,-2.667 -3.908,-4.049c-1.269,-1.381 -2.504,-2.793 -3.704,-4.236c-1.2,-1.442 -2.364,-2.912 -3.492,-4.412c-1.128,-1.499 -2.218,-3.025 -3.271,-4.578c-1.053,-1.553 -2.067,-3.131 -3.043,-4.733c-0.975,-1.603 -1.911,-3.228 -2.807,-4.877c-0.895,-1.648 -1.75,-3.318 -2.564,-5.008c-0.814,-1.691 -1.585,-3.4 -2.315,-5.129c-0.73,-1.728 -1.417,-3.473 -2.061,-5.235c-0.645,-1.762 -1.245,-3.539 -1.802,-5.331c-0.557,-1.791 -1.07,-3.595 -1.538,-5.412c-0.469,-1.817 -0.893,-3.644 -1.271,-5.482c-0.379,-1.838 -0.713,-3.683 -1.001,-5.537c-0.288,-1.854 -0.53,-3.714 -0.727,-5.58c-0.197,-1.866 -0.348,-3.735 -0.453,-5.608c-0.106,-1.873 -0.165,-3.748 -0.178,-5.624c-0.013,-1.876 0.02,-3.752 0.099,-5.626c0.079,-1.875 0.204,-3.746 0.374,-5.615c0.171,-1.868 0.388,-3.731 0.65,-5.589c0.262,-1.858 0.57,-3.708 0.923,-5.55c0.353,-1.843 0.751,-3.676 1.194,-5.499c0.443,-1.823 0.93,-3.634 1.462,-5.433c0.532,-1.8 1.108,-3.585 1.727,-5.355c0.62,-1.771 1.282,-3.526 1.988,-5.265c0.706,-1.738 1.453,-3.458 2.244,-5.16c0.79,-1.702 1.621,-3.383 2.493,-5.044c0.873,-1.661 1.786,-3.3 2.739,-4.916c0.953,-1.616 1.945,-3.207 2.976,-4.775c1.031,-1.567 2.1,-3.108 3.207,-4.623c1.107,-1.515 2.25,-3.002 3.43,-4.461c1.18,-1.459 2.394,-2.888 3.644,-4.287c1.25,-1.399 2.534,-2.767 3.851,-4.103c1.317,-1.336 2.666,-2.64 4.047,-3.91c1.381,-1.27 2.792,-2.505 4.234,-3.706c1.441,-1.2 2.911,-2.365 4.41,-3.494c1.499,-1.128 3.024,-2.219 4.577,-3.273c1.552,-1.054 3.13,-2.069 4.732,-3.045c1.602,-0.976 3.227,-1.913 4.875,-2.809c1.648,-0.897 3.317,-1.752 5.007,-2.567c1.69,-0.814 3.399,-1.587 5.127,-2.318c1.729,-0.73 3.474,-1.418 5.235,-2.063c1.762,-0.645 3.539,-1.247 5.33,-1.805c1.791,-0.557 3.595,-1.071 5.412,-1.54c1.816,-0.47 3.643,-0.894 5.481,-1.274c1.837,-0.379 3.683,-0.714 5.536,-1.003c1.854,-0.289 3.714,-0.532 5.58,-0.73c1.866,-0.198 3.735,-0.35 5.608,-0.456Z" style="fill:#gray;fill-rule:nonzero;"/><path d="M114.387,37.504c1.336,-0.077 2.673,-0.121 4.011,-0.133c1.338,-0.011 2.676,0.011 4.013,0.065c1.337,0.055 2.672,0.142 4.005,0.262c1.332,0.12 2.661,0.273 3.986,0.459c1.326,0.185 2.646,0.403 3.96,0.653c1.315,0.25 2.622,0.533 3.923,0.847c1.3,0.315 2.592,0.661 3.876,1.039c1.284,0.378 2.557,0.787 3.821,1.228c1.263,0.44 2.515,0.912 3.755,1.414c1.241,0.502 2.468,1.034 3.682,1.597c1.214,0.562 2.414,1.154 3.599,1.775c1.185,0.622 2.354,1.272 3.508,1.951c1.153,0.678 2.289,1.385 3.407,2.12c1.119,0.734 2.218,1.496 3.299,2.284c1.081,0.789 2.142,1.604 3.183,2.445c1.041,0.84 2.061,1.706 3.06,2.597c0.998,0.891 1.973,1.806 2.927,2.744c0.953,0.939 1.883,1.901 2.79,2.886c0.906,0.984 1.787,1.99 2.644,3.018c0.857,1.028 1.688,2.077 2.493,3.145c0.805,1.069 1.584,2.156 2.336,3.263c0.752,1.107 1.476,2.232 2.173,3.375c0.696,1.142 1.364,2.301 2.004,3.477c0.639,1.175 1.25,2.365 1.831,3.57c0.581,1.206 1.132,2.425 1.653,3.657c0.522,1.233 1.012,2.477 1.472,3.734c0.46,1.256 0.889,2.523 1.287,3.801c0.398,1.277 0.764,2.564 1.099,3.859c0.335,1.296 0.637,2.6 0.908,3.91c0.27,1.31 0.508,2.626 0.714,3.949c0.206,1.322 0.38,2.648 0.52,3.979c0.141,1.331 0.249,2.664 0.324,4c0.075,1.336 0.117,2.673 0.127,4.011c0.009,1.338 -0.014,2.676 -0.07,4.013c-0.056,1.337 -0.145,2.671 -0.267,4.004c-0.122,1.332 -0.276,2.661 -0.463,3.986c-0.187,1.325 -0.407,2.645 -0.659,3.959c-0.252,1.314 -0.536,2.621 -0.852,3.921c-0.316,1.301 -0.664,2.593 -1.044,3.876c-0.379,1.283 -0.79,2.556 -1.233,3.819c-0.442,1.263 -0.915,2.514 -1.419,3.753c-0.503,1.24 -1.037,2.466 -1.601,3.68c-0.564,1.213 -1.158,2.412 -1.781,3.597c-0.622,1.184 -1.274,2.353 -1.954,3.505c-0.68,1.152 -1.388,2.287 -2.124,3.405c-0.736,1.117 -1.499,2.216 -2.289,3.296c-0.791,1.08 -1.607,2.14 -2.449,3.179c-0.842,1.04 -1.709,2.059 -2.601,3.056c-0.892,0.997 -1.809,1.972 -2.749,2.925c-0.94,0.952 -1.902,1.88 -2.888,2.785c-0.986,0.905 -1.993,1.785 -3.022,2.641c-1.029,0.855 -2.078,1.685 -3.148,2.489c-1.07,0.804 -2.158,1.581 -3.266,2.332c-1.108,0.75 -2.234,1.473 -3.377,2.168c-1.143,0.695 -2.303,1.362 -3.48,2c-1.176,0.638 -2.367,1.246 -3.573,1.826c-1.206,0.579 -2.425,1.129 -3.658,1.649c-1.233,0.52 -2.479,1.009 -3.736,1.467c-1.257,0.459 -2.525,0.886 -3.803,1.282c-1.278,0.396 -2.565,0.761 -3.861,1.094c-1.296,0.333 -2.599,0.634 -3.91,0.902c-1.311,0.269 -2.628,0.506 -3.95,0.711c-1.322,0.204 -2.649,0.375 -3.98,0.514c-1.331,0.139 -2.664,0.245 -4,0.319c-1.334,0.073 -2.669,0.114 -4.005,0.121c-1.336,0.008 -2.671,-0.016 -4.006,-0.074c-1.335,-0.057 -2.667,-0.148 -3.998,-0.271c-1.33,-0.123 -2.656,-0.278 -3.978,-0.466c-1.323,-0.188 -2.641,-0.409 -3.952,-0.662c-1.312,-0.252 -2.617,-0.537 -3.915,-0.854c-1.298,-0.316 -2.587,-0.665 -3.868,-1.045c-1.28,-0.38 -2.551,-0.791 -3.812,-1.233c-1.261,-0.442 -2.51,-0.915 -3.747,-1.419c-1.237,-0.503 -2.461,-1.037 -3.673,-1.6c-1.211,-0.564 -2.407,-1.157 -3.589,-1.779c-1.183,-0.623 -2.349,-1.274 -3.499,-1.953c-1.15,-0.68 -2.283,-1.387 -3.398,-2.122c-1.116,-0.735 -2.213,-1.497 -3.291,-2.286c-1.078,-0.789 -2.136,-1.604 -3.174,-2.445c-1.038,-0.84 -2.055,-1.706 -3.051,-2.597c-0.996,-0.891 -1.969,-1.805 -2.92,-2.744c-0.951,-0.938 -1.878,-1.899 -2.782,-2.883c-0.903,-0.984 -1.782,-1.989 -2.637,-3.017c-0.854,-1.027 -1.682,-2.074 -2.485,-3.142c-0.803,-1.067 -1.58,-2.154 -2.329,-3.26c-0.75,-1.106 -1.472,-2.229 -2.167,-3.37c-0.694,-1.141 -1.36,-2.299 -1.998,-3.473c-0.638,-1.174 -1.246,-2.363 -1.826,-3.566c-0.579,-1.204 -1.129,-2.421 -1.648,-3.652c-0.52,-1.231 -1.009,-2.474 -1.468,-3.728c-0.459,-1.255 -0.886,-2.52 -1.283,-3.796c-0.397,-1.275 -0.762,-2.56 -1.096,-3.853c-0.333,-1.294 -0.635,-2.595 -0.905,-3.903c-0.27,-1.309 -0.507,-2.623 -0.713,-3.943c-0.205,-1.32 -0.378,-2.644 -0.518,-3.973c-0.141,-1.328 -0.248,-2.66 -0.323,-3.994c-0.075,-1.334 -0.118,-2.668 -0.127,-4.004c-0.01,-1.336 0.013,-2.671 0.069,-4.006c0.056,-1.335 0.145,-2.667 0.266,-3.998c0.121,-1.33 0.275,-2.657 0.461,-3.98c0.187,-1.323 0.405,-2.64 0.656,-3.953c0.251,-1.312 0.534,-2.617 0.85,-3.915c0.315,-1.298 0.661,-2.588 1.039,-3.87c0.379,-1.281 0.788,-2.552 1.229,-3.813c0.441,-1.261 0.912,-2.511 1.414,-3.749c0.502,-1.238 1.034,-2.463 1.596,-3.675c0.562,-1.212 1.154,-2.409 1.774,-3.592c0.621,-1.183 1.27,-2.35 1.948,-3.501c0.679,-1.151 1.385,-2.285 2.118,-3.402c0.734,-1.116 1.494,-2.214 2.282,-3.293c0.787,-1.079 1.601,-2.138 2.44,-3.178c0.84,-1.039 1.704,-2.057 2.594,-3.054c0.889,-0.996 1.803,-1.97 2.74,-2.922c0.937,-0.952 1.897,-1.881 2.88,-2.786c0.983,-0.905 1.987,-1.785 3.013,-2.641c1.026,-0.855 2.072,-1.685 3.139,-2.49c1.067,-0.804 2.152,-1.582 3.257,-2.333c1.105,-0.751 2.228,-1.474 3.368,-2.17c1.14,-0.696 2.297,-1.364 3.47,-2.003c1.173,-0.639 2.361,-1.249 3.564,-1.83c1.203,-0.581 2.42,-1.132 3.65,-1.654c1.23,-0.521 2.472,-1.012 3.726,-1.472c1.254,-0.46 2.519,-0.89 3.794,-1.288c1.275,-0.398 2.559,-0.765 3.852,-1.101c1.294,-0.335 2.594,-0.638 3.902,-0.91c1.308,-0.271 2.622,-0.51 3.942,-0.717c1.32,-0.208 2.644,-0.382 3.972,-0.524c1.329,-0.142 2.66,-0.252 3.993,-0.328Z" style="fill:#fefefe;fill-rule:nonzero;"/><path d="M40.188,112.078c-0.045,-2.198 0.467,-4.712 0.86,-6.87c2.151,-11.793 6.971,-23.471 14.281,-33.004c13.725,-17.901 31.94,-28.799 54.379,-31.746c21.02,-2.76 41.309,3.435 58.012,16.282c2.1,1.735 4.197,3.468 6.052,5.469c2.15,2.099 5.575,5.109 7.018,7.626c2.55,2.59 8.183,10.941 9.197,14.337c1.108,2.029 2.063,4.18 2.911,6.33c0.465,1.206 0.995,2.415 1.252,3.685c1.149,2.655 1.798,5.766 2.405,8.589c0.199,0.935 0.381,1.873 0.546,2.814c0.165,0.942 0.313,1.887 0.443,2.834c0.13,0.947 0.243,1.896 0.339,2.848c0.095,0.951 0.173,1.903 0.234,2.857c0.061,0.955 0.104,1.91 0.13,2.865c0.026,0.956 0.034,1.911 0.025,2.867c-0.01,0.956 -0.036,1.912 -0.08,2.867c-0.044,0.955 -0.106,1.909 -0.186,2.862c-0.079,0.952 -0.175,1.903 -0.289,2.853c-0.114,0.949 -0.245,1.896 -0.394,2.84c-0.148,0.945 -0.314,1.886 -0.497,2.825c-0.183,0.938 -0.383,1.872 -0.6,2.803c-0.218,0.931 -0.452,1.858 -0.703,2.78c-0.251,0.923 -0.519,1.84 -0.804,2.753c-0.284,0.913 -0.586,1.82 -0.904,2.722c-0.318,0.901 -0.652,1.797 -1.002,2.686c-3.477,8.809 -8.799,17.778 -15.468,24.551c-1.598,1.765 -3.286,3.439 -5.064,5.022c-1.475,1.5 -3.174,2.877 -4.847,4.147c-16.824,12.782 -37.937,18.934 -59.005,16.028c-14.297,-1.973 -27.239,-7.782 -38.549,-16.671c-4.282,-3.366 -8.471,-7.25 -11.771,-11.598c-0.826,-0.703 -1.627,-1.828 -2.293,-2.698c-0.61,-0.806 -1.204,-1.623 -1.783,-2.452c-0.579,-0.828 -1.141,-1.668 -1.687,-2.518c-0.547,-0.85 -1.076,-1.711 -1.589,-2.582c-0.514,-0.87 -1.01,-1.751 -1.489,-2.641c-0.48,-0.889 -0.942,-1.788 -1.386,-2.696c-0.445,-0.907 -0.872,-1.823 -1.281,-2.747c-0.41,-0.924 -0.801,-1.856 -1.175,-2.795c-0.373,-0.939 -0.728,-1.885 -1.065,-2.838c-0.337,-0.953 -0.656,-1.912 -0.956,-2.877c-0.3,-0.965 -0.582,-1.935 -0.844,-2.911c-0.263,-0.976 -0.507,-1.957 -0.732,-2.942c-0.225,-0.985 -0.431,-1.975 -0.618,-2.968c-0.187,-0.993 -0.354,-1.99 -0.503,-2.99c-0.148,-0.999 -0.277,-2.001 -0.387,-3.006c-0.11,-1.005 -0.201,-2.011 -0.272,-3.019c-0.071,-1.009 -0.123,-2.018 -0.155,-3.028c-0.096,-3.109 -0.113,-6.455 0.294,-9.545Z" style="fill:#fefefe;fill-rule:nonzero;"/><path d="M110.467,53.217c4.472,-2.373 9.397,-4.23 14.06,-6.206c2.728,-1.156 5.454,-2.611 8.296,-3.45c2.315,3.728 4.224,7.794 6.287,11.67c1.49,2.798 4.224,7.027 5.041,9.991c-0.409,1.686 -1.13,3.359 -1.703,5.002c-1.694,4.853 -3.75,9.855 -4.931,14.844c7.419,-1.527 14.861,-2.937 22.325,-4.228c4.187,-0.761 8.348,-1.671 12.553,-2.334c3.997,3.04 8.102,5.939 12.114,8.958c2.043,1.539 4.326,3.695 6.513,4.938c0.318,0.181 0.688,0.21 1.047,0.228l0.044,0.216c-2.45,4.015 -4.921,8.017 -7.415,12.005c-1.47,2.37 -2.873,4.872 -4.491,7.136c-0.493,0.689 -0.981,1.38 -1.772,1.743c-2.387,1.093 -5.692,1.313 -8.274,1.81c-4.308,0.828 -8.608,1.736 -12.934,2.468c7.781,8.918 15.491,17.897 23.128,26.938c-0.331,6.202 -1.278,12.562 -2.038,18.733c-0.234,1.903 -0.576,3.789 -0.722,5.703c-8.077,-0.303 -15.973,-0.819 -24.085,-0.828c-2.531,-2.806 -4.93,-5.724 -7.406,-8.579c-2.308,-2.662 -4.69,-5.254 -6.925,-7.979c-1.913,5.952 -4.206,11.799 -6.27,17.701c-1.524,4.363 -2.801,8.949 -4.596,13.202c-0.249,0.591 -0.53,1.33 -1.087,1.694c-2.099,1.369 -4.76,2.22 -7.063,3.224l-14.734,6.406c-1.661,-2.581 -2.959,-5.545 -4.416,-8.261c-2.361,-4.406 -4.998,-8.8 -7.002,-13.374c1.974,-6.68 4.869,-13.146 6.71,-19.862c-5.327,0.691 -10.526,1.905 -15.803,2.878c-5.979,1.103 -12.058,1.996 -17.982,3.356c-2.555,-1.058 -5.148,-3.464 -7.386,-5.119c-4.207,-3.092 -8.396,-6.206 -12.569,-9.344c1.327,-2.578 3.062,-5.052 4.594,-7.518c2.746,-4.451 5.516,-8.886 8.309,-13.307c7.002,-1.026 13.898,-2.919 20.895,-3.995c-1.105,-1.172 -2.077,-2.501 -3.117,-3.734l-6.075,-7.11c-4.521,-5.267 -9.271,-10.438 -13.558,-15.892c0.558,-4.5 1.074,-9.005 1.549,-13.514c0.387,-3.517 0.854,-7.043 1.048,-10.576c1.837,0.22 3.794,0.148 5.647,0.199c5.373,0.148 10.852,0.038 16.206,0.434c0.942,0.07 2.059,0.165 2.854,0.722c1.562,1.095 3.066,3.335 4.344,4.805l9.154,10.556c1.518,-3.358 2.65,-6.9 3.875,-10.373c2.582,-7.317 4.982,-14.737 7.761,-21.977Z" style="fill:#gray;fill-rule:nonzero;"/><path d="M109.914,109.451c5.217,-2.018 10.145,-4.944 15.442,-6.708c-0.642,1.176 -1.363,2.291 -2.092,3.415c2.505,2.201 9.444,6.06 10.827,8.231c1.161,0.399 1.927,1.036 2.772,1.905c-0.792,-0.026 -1.618,-0.104 -2.407,-0.064c-0.836,0.201 -1.769,0.163 -2.628,0.188c-0.488,4.948 -0.821,9.995 -1.721,14.887l-1.839,-3.035c-4.869,1.879 -9.511,4.525 -14.466,6.117l1.592,-3.154c-1.351,-1.145 -2.904,-2.138 -4.333,-3.19c-2.995,-2.206 -5.976,-4.419 -9.066,-6.491c1.52,-0.011 3.038,0.001 4.553,-0.164c0.813,-4.704 1.194,-10.05 1.482,-14.826c0.687,0.942 1.325,1.861 1.884,2.889Z" style="fill:#fefefe;fill-rule:nonzero;"/><path d="M134.091,114.389c1.161,0.399 1.927,1.036 2.772,1.905c-0.792,-0.026 -1.618,-0.104 -2.407,-0.064c-0.233,-0.638 -0.317,-1.171 -0.365,-1.841Z" style="fill:#ffe1b1;fill-rule:nonzero;"/><path d="M118.442,110.987c0.128,-0.01 0.256,-0.017 0.384,-0.021c0.128,-0.004 0.257,-0.004 0.385,-0.001c0.128,0.002 0.256,0.008 0.384,0.017c0.128,0.009 0.256,0.02 0.384,0.035c0.127,0.016 0.254,0.034 0.381,0.055c0.126,0.022 0.252,0.046 0.377,0.073c0.125,0.027 0.25,0.058 0.374,0.091c0.124,0.034 0.247,0.07 0.369,0.11c0.122,0.039 0.243,0.082 0.363,0.127c0.12,0.046 0.239,0.094 0.356,0.145c0.118,0.052 0.235,0.106 0.35,0.162c0.115,0.057 0.228,0.117 0.34,0.179c0.112,0.063 0.223,0.128 0.332,0.196c0.109,0.068 0.216,0.138 0.322,0.211c0.105,0.073 0.209,0.149 0.31,0.227c0.102,0.078 0.202,0.159 0.299,0.242c0.098,0.083 0.194,0.168 0.288,0.255c0.094,0.088 0.185,0.178 0.275,0.27c0.089,0.092 0.176,0.187 0.261,0.283c0.084,0.096 0.167,0.194 0.247,0.295c0.08,0.1 0.157,0.203 0.232,0.307c0.075,0.104 0.147,0.21 0.217,0.318c0.069,0.107 0.136,0.216 0.201,0.327c0.064,0.111 0.126,0.224 0.185,0.338c0.059,0.114 0.115,0.229 0.168,0.346c0.054,0.117 0.104,0.235 0.152,0.354c0.047,0.119 0.092,0.239 0.133,0.36c0.042,0.122 0.081,0.244 0.116,0.367c0.036,0.124 0.069,0.248 0.099,0.373c0.029,0.124 0.056,0.25 0.079,0.376c0.024,0.126 0.044,0.253 0.062,0.38c0.017,0.127 0.031,0.254 0.042,0.382c0.011,0.128 0.019,0.256 0.024,0.384c0.005,0.129 0.007,0.257 0.006,0.385c-0.002,0.129 -0.006,0.257 -0.014,0.385c-0.007,0.128 -0.018,0.256 -0.032,0.383c-0.014,0.128 -0.031,0.255 -0.051,0.382c-0.02,0.126 -0.043,0.252 -0.069,0.378c-0.027,0.126 -0.056,0.251 -0.089,0.375c-0.032,0.124 -0.067,0.247 -0.105,0.37c-0.039,0.122 -0.08,0.244 -0.124,0.364c-0.045,0.121 -0.092,0.24 -0.142,0.358c-0.05,0.118 -0.103,0.235 -0.159,0.35c-0.055,0.116 -0.114,0.23 -0.175,0.343c-0.062,0.112 -0.126,0.223 -0.192,0.333c-0.067,0.109 -0.137,0.217 -0.209,0.324c-0.072,0.106 -0.146,0.21 -0.223,0.313c-0.078,0.102 -0.158,0.203 -0.24,0.301c-0.082,0.099 -0.166,0.196 -0.252,0.29c-0.087,0.095 -0.176,0.187 -0.267,0.277c-0.092,0.091 -0.185,0.179 -0.281,0.264c-0.095,0.086 -0.193,0.169 -0.293,0.25c-0.1,0.08 -0.201,0.159 -0.305,0.235c-0.103,0.076 -0.208,0.149 -0.315,0.22c-0.107,0.071 -0.216,0.139 -0.326,0.204c-0.11,0.066 -0.222,0.128 -0.336,0.188c-0.113,0.06 -0.228,0.118 -0.344,0.172c-0.117,0.055 -0.234,0.106 -0.353,0.155c-0.118,0.048 -0.238,0.094 -0.359,0.137c-0.121,0.043 -0.243,0.083 -0.366,0.119c-0.123,0.037 -0.247,0.071 -0.371,0.102c-0.125,0.031 -0.25,0.058 -0.376,0.083c-0.126,0.025 -0.252,0.046 -0.379,0.065c-0.127,0.018 -0.255,0.034 -0.382,0.046c-0.13,0.013 -0.259,0.022 -0.389,0.028c-0.129,0.006 -0.259,0.009 -0.389,0.009c-0.13,-0 -0.26,-0.004 -0.389,-0.01c-0.13,-0.007 -0.259,-0.017 -0.389,-0.03c-0.129,-0.013 -0.257,-0.03 -0.386,-0.049c-0.128,-0.02 -0.256,-0.042 -0.383,-0.068c-0.128,-0.026 -0.254,-0.055 -0.38,-0.087c-0.126,-0.032 -0.251,-0.067 -0.375,-0.105c-0.124,-0.038 -0.247,-0.08 -0.369,-0.124c-0.122,-0.045 -0.243,-0.092 -0.363,-0.142c-0.12,-0.05 -0.238,-0.104 -0.355,-0.16c-0.117,-0.056 -0.233,-0.115 -0.347,-0.177c-0.114,-0.062 -0.227,-0.126 -0.338,-0.193c-0.111,-0.068 -0.22,-0.138 -0.328,-0.211c-0.107,-0.072 -0.213,-0.148 -0.317,-0.226c-0.103,-0.078 -0.205,-0.158 -0.305,-0.241c-0.1,-0.083 -0.198,-0.169 -0.293,-0.257c-0.096,-0.088 -0.189,-0.178 -0.281,-0.27c-0.091,-0.093 -0.18,-0.188 -0.266,-0.285c-0.087,-0.096 -0.171,-0.195 -0.252,-0.296c-0.082,-0.101 -0.161,-0.204 -0.237,-0.309c-0.077,-0.105 -0.151,-0.212 -0.222,-0.32c-0.071,-0.109 -0.14,-0.219 -0.206,-0.331c-0.065,-0.112 -0.128,-0.225 -0.189,-0.34c-0.06,-0.115 -0.117,-0.232 -0.171,-0.35c-0.055,-0.118 -0.106,-0.237 -0.155,-0.358c-0.048,-0.12 -0.094,-0.242 -0.136,-0.364c-0.043,-0.123 -0.082,-0.246 -0.119,-0.371c-0.036,-0.125 -0.07,-0.25 -0.1,-0.377c-0.03,-0.126 -0.057,-0.253 -0.081,-0.38c-0.024,-0.128 -0.045,-0.256 -0.063,-0.385c-0.017,-0.128 -0.032,-0.257 -0.043,-0.387c-0.012,-0.129 -0.02,-0.259 -0.024,-0.388c-0.005,-0.13 -0.007,-0.26 -0.005,-0.39c0.001,-0.13 0.006,-0.26 0.014,-0.39c0.008,-0.129 0.019,-0.258 0.034,-0.387c0.014,-0.129 0.031,-0.258 0.052,-0.387c0.021,-0.128 0.044,-0.255 0.071,-0.382c0.027,-0.127 0.057,-0.253 0.09,-0.379c0.034,-0.125 0.07,-0.25 0.11,-0.374c0.039,-0.124 0.081,-0.246 0.127,-0.368c0.045,-0.122 0.094,-0.242 0.145,-0.361c0.052,-0.12 0.106,-0.238 0.163,-0.354c0.057,-0.117 0.118,-0.232 0.181,-0.345c0.062,-0.114 0.128,-0.226 0.196,-0.336c0.069,-0.111 0.14,-0.219 0.214,-0.326c0.073,-0.107 0.15,-0.212 0.229,-0.315c0.079,-0.103 0.16,-0.204 0.244,-0.303c0.084,-0.099 0.171,-0.196 0.26,-0.291c0.088,-0.095 0.179,-0.187 0.273,-0.278c0.093,-0.09 0.189,-0.178 0.286,-0.264c0.098,-0.085 0.198,-0.168 0.299,-0.249c0.102,-0.08 0.206,-0.158 0.312,-0.234c0.105,-0.075 0.213,-0.148 0.322,-0.219c0.109,-0.07 0.22,-0.137 0.333,-0.202c0.113,-0.065 0.227,-0.127 0.342,-0.186c0.116,-0.059 0.233,-0.115 0.351,-0.168c0.119,-0.054 0.238,-0.104 0.359,-0.152c0.121,-0.047 0.243,-0.092 0.366,-0.133c0.123,-0.041 0.247,-0.08 0.372,-0.115c0.125,-0.035 0.251,-0.067 0.378,-0.096c0.126,-0.029 0.253,-0.055 0.381,-0.078c0.128,-0.023 0.257,-0.042 0.385,-0.059c0.129,-0.016 0.258,-0.029 0.388,-0.039Z" style="fill:#gray;fill-rule:nonzero;"/><path d="M114.978,88.781c0.194,-0.057 0.392,-0.099 0.593,-0.127c0.2,-0.028 0.402,-0.042 0.605,-0.041c0.203,0.001 0.404,0.017 0.605,0.047c0.2,0.03 0.397,0.075 0.591,0.133c0.108,0.033 0.214,0.07 0.318,0.111c0.105,0.041 0.208,0.086 0.309,0.135c0.101,0.049 0.199,0.102 0.296,0.159c0.096,0.057 0.191,0.118 0.283,0.183c0.091,0.065 0.18,0.133 0.267,0.205c0.086,0.072 0.169,0.147 0.249,0.225c0.081,0.079 0.158,0.16 0.231,0.245c0.074,0.085 0.145,0.172 0.211,0.262c0.067,0.091 0.13,0.184 0.189,0.279c0.06,0.095 0.115,0.193 0.167,0.293c0.051,0.099 0.099,0.201 0.142,0.304c0.043,0.104 0.082,0.209 0.117,0.316c0.035,0.106 0.066,0.214 0.092,0.324c0.026,0.109 0.048,0.219 0.066,0.33c0.017,0.111 0.03,0.222 0.039,0.334c0.008,0.112 0.012,0.224 0.012,0.336c-0.001,0.113 -0.006,0.225 -0.015,0.336c-0.01,0.112 -0.024,0.224 -0.042,0.335c-0.018,0.11 -0.041,0.22 -0.069,0.329c-0.027,0.109 -0.058,0.217 -0.093,0.323c-0.036,0.106 -0.076,0.211 -0.12,0.315c-0.045,0.103 -0.093,0.204 -0.145,0.303c-0.053,0.1 -0.109,0.197 -0.169,0.291c-0.06,0.095 -0.124,0.188 -0.191,0.277c-0.068,0.09 -0.139,0.177 -0.213,0.261c-0.075,0.084 -0.152,0.165 -0.233,0.243c-0.081,0.078 -0.165,0.152 -0.252,0.224c-0.087,0.071 -0.176,0.138 -0.269,0.202c-0.092,0.064 -0.187,0.124 -0.284,0.18c-0.097,0.057 -0.196,0.109 -0.297,0.158c-0.102,0.048 -0.205,0.092 -0.31,0.132c-0.105,0.04 -0.211,0.076 -0.319,0.108c-0.149,0.044 -0.3,0.079 -0.453,0.106c-0.153,0.027 -0.307,0.045 -0.462,0.055c-0.155,0.01 -0.311,0.011 -0.466,0.004c-0.156,-0.007 -0.31,-0.023 -0.464,-0.048c-0.153,-0.024 -0.305,-0.057 -0.455,-0.098c-0.149,-0.041 -0.296,-0.091 -0.441,-0.148c-0.144,-0.058 -0.285,-0.123 -0.422,-0.197c-0.138,-0.073 -0.27,-0.153 -0.398,-0.241c-0.082,-0.056 -0.161,-0.115 -0.239,-0.177c-0.077,-0.061 -0.152,-0.125 -0.225,-0.192c-0.073,-0.067 -0.143,-0.136 -0.211,-0.208c-0.068,-0.072 -0.134,-0.146 -0.196,-0.222c-0.063,-0.077 -0.123,-0.155 -0.18,-0.236c-0.057,-0.08 -0.111,-0.163 -0.163,-0.247c-0.051,-0.085 -0.1,-0.171 -0.145,-0.259c-0.045,-0.088 -0.087,-0.177 -0.126,-0.268c-0.039,-0.091 -0.075,-0.183 -0.108,-0.276c-0.032,-0.094 -0.061,-0.188 -0.087,-0.283c-0.026,-0.096 -0.048,-0.192 -0.067,-0.289c-0.02,-0.097 -0.035,-0.194 -0.047,-0.292c-0.012,-0.099 -0.021,-0.197 -0.027,-0.296c-0.005,-0.099 -0.006,-0.198 -0.005,-0.296c0.002,-0.099 0.007,-0.198 0.016,-0.296c0.009,-0.099 0.021,-0.197 0.037,-0.294c0.015,-0.098 0.034,-0.195 0.057,-0.291c0.022,-0.096 0.048,-0.192 0.077,-0.286c0.029,-0.095 0.062,-0.188 0.097,-0.28c0.036,-0.092 0.075,-0.183 0.117,-0.272c0.042,-0.09 0.088,-0.178 0.136,-0.264c0.049,-0.086 0.1,-0.17 0.154,-0.253c0.054,-0.082 0.112,-0.163 0.172,-0.241c0.06,-0.079 0.122,-0.156 0.188,-0.23c0.065,-0.074 0.133,-0.146 0.203,-0.215c0.071,-0.069 0.144,-0.136 0.219,-0.2c0.075,-0.064 0.152,-0.126 0.232,-0.185c0.079,-0.058 0.161,-0.114 0.244,-0.167c0.083,-0.053 0.168,-0.103 0.255,-0.15c0.087,-0.047 0.176,-0.091 0.266,-0.132c0.09,-0.041 0.181,-0.078 0.274,-0.113c0.093,-0.034 0.187,-0.065 0.282,-0.093Z" style="fill:#fefefe;fill-rule:nonzero;"/><path d="M97.552,129.994c0.068,-0.007 0.136,-0.013 0.204,-0.017c0.069,-0.004 0.137,-0.006 0.205,-0.006c0.068,-0.001 0.137,0 0.205,0.003c0.068,0.003 0.136,0.007 0.204,0.013c0.068,0.007 0.136,0.015 0.204,0.024c0.068,0.01 0.135,0.021 0.202,0.033c0.067,0.013 0.134,0.028 0.2,0.044c0.067,0.016 0.133,0.033 0.198,0.052c0.066,0.02 0.131,0.041 0.195,0.063c0.065,0.023 0.129,0.047 0.192,0.072c0.063,0.026 0.126,0.053 0.188,0.082c0.062,0.028 0.123,0.059 0.184,0.091c0.06,0.031 0.12,0.064 0.179,0.099c0.059,0.035 0.117,0.071 0.174,0.108c0.057,0.037 0.113,0.076 0.168,0.117c0.055,0.04 0.11,0.081 0.163,0.124c0.053,0.043 0.105,0.087 0.156,0.133c0.051,0.045 0.101,0.092 0.15,0.139c0.048,0.048 0.096,0.098 0.142,0.148c0.047,0.05 0.092,0.101 0.135,0.154c0.044,0.052 0.087,0.106 0.128,0.16c0.041,0.055 0.08,0.11 0.119,0.167c0.038,0.056 0.075,0.114 0.111,0.172c0.036,0.058 0.07,0.117 0.103,0.177c0.033,0.06 0.064,0.121 0.093,0.183c0.03,0.061 0.059,0.123 0.085,0.186c0.027,0.063 0.052,0.126 0.076,0.19c0.023,0.065 0.045,0.129 0.066,0.194c0.02,0.065 0.039,0.131 0.056,0.198c0.017,0.066 0.033,0.132 0.047,0.198c0.014,0.067 0.026,0.135 0.036,0.202c0.011,0.068 0.02,0.135 0.027,0.203c0.008,0.068 0.014,0.136 0.018,0.204c0.004,0.069 0.006,0.137 0.006,0.205c0.001,0.069 -0,0.137 -0.003,0.205c-0.003,0.068 -0.007,0.137 -0.013,0.205c-0.006,0.068 -0.014,0.135 -0.023,0.203c-0.01,0.068 -0.021,0.135 -0.033,0.202c-0.013,0.067 -0.028,0.134 -0.043,0.201c-0.016,0.066 -0.034,0.132 -0.053,0.198c-0.019,0.065 -0.04,0.13 -0.063,0.195c-0.022,0.064 -0.046,0.128 -0.072,0.192c-0.025,0.063 -0.052,0.126 -0.081,0.188c-0.029,0.062 -0.059,0.123 -0.09,0.184c-0.032,0.06 -0.065,0.12 -0.099,0.179c-0.035,0.059 -0.071,0.117 -0.108,0.174c-0.038,0.057 -0.077,0.113 -0.117,0.169c-0.04,0.055 -0.082,0.109 -0.124,0.162c-0.043,0.053 -0.087,0.105 -0.133,0.156c-0.045,0.051 -0.091,0.101 -0.139,0.15c-0.048,0.049 -0.097,0.097 -0.147,0.143c-0.05,0.046 -0.102,0.092 -0.154,0.136c-0.053,0.043 -0.106,0.086 -0.161,0.127c-0.054,0.041 -0.11,0.081 -0.166,0.119c-0.057,0.039 -0.114,0.076 -0.172,0.112c-0.058,0.036 -0.117,0.07 -0.177,0.103c-0.06,0.032 -0.121,0.064 -0.182,0.094c-0.062,0.03 -0.124,0.058 -0.187,0.084c-0.062,0.027 -0.126,0.053 -0.19,0.076c-0.064,0.024 -0.129,0.046 -0.194,0.066c-0.065,0.021 -0.131,0.04 -0.197,0.057c-0.066,0.017 -0.133,0.033 -0.2,0.047c-0.066,0.014 -0.133,0.026 -0.201,0.037c-0.067,0.011 -0.135,0.02 -0.203,0.027c-0.068,0.008 -0.136,0.013 -0.205,0.017c-0.068,0.004 -0.136,0.007 -0.204,0.007c-0.069,0.001 -0.137,0 -0.206,-0.003c-0.068,-0.002 -0.136,-0.007 -0.205,-0.013c-0.068,-0.006 -0.135,-0.013 -0.203,-0.023c-0.068,-0.009 -0.135,-0.02 -0.202,-0.033c-0.068,-0.012 -0.135,-0.027 -0.201,-0.043c-0.067,-0.016 -0.133,-0.033 -0.198,-0.052c-0.066,-0.02 -0.132,-0.041 -0.196,-0.063c-0.065,-0.022 -0.129,-0.046 -0.192,-0.072c-0.064,-0.026 -0.126,-0.053 -0.188,-0.081c-0.063,-0.029 -0.124,-0.059 -0.185,-0.091c-0.06,-0.031 -0.12,-0.064 -0.179,-0.099c-0.059,-0.034 -0.117,-0.07 -0.175,-0.108c-0.057,-0.037 -0.113,-0.076 -0.169,-0.117c-0.055,-0.04 -0.109,-0.081 -0.162,-0.124c-0.054,-0.043 -0.106,-0.087 -0.157,-0.132c-0.051,-0.046 -0.101,-0.093 -0.15,-0.141c-0.049,-0.048 -0.097,-0.097 -0.143,-0.147c-0.046,-0.05 -0.091,-0.102 -0.135,-0.154c-0.044,-0.053 -0.087,-0.106 -0.129,-0.161c-0.041,-0.054 -0.08,-0.11 -0.119,-0.166c-0.038,-0.057 -0.076,-0.114 -0.112,-0.173c-0.035,-0.058 -0.069,-0.117 -0.102,-0.177c-0.033,-0.06 -0.064,-0.121 -0.094,-0.183c-0.03,-0.061 -0.058,-0.123 -0.085,-0.186c-0.027,-0.063 -0.052,-0.127 -0.076,-0.191c-0.023,-0.064 -0.045,-0.129 -0.066,-0.194c-0.02,-0.066 -0.039,-0.131 -0.057,-0.197c-0.017,-0.067 -0.032,-0.134 -0.046,-0.201c-0.014,-0.067 -0.026,-0.134 -0.037,-0.201c-0.01,-0.068 -0.019,-0.136 -0.027,-0.204c-0.007,-0.068 -0.013,-0.136 -0.017,-0.204c-0.004,-0.068 -0.006,-0.137 -0.007,-0.205c-0,-0.069 0.001,-0.137 0.004,-0.206c0.002,-0.068 0.007,-0.136 0.013,-0.204c0.006,-0.068 0.013,-0.136 0.023,-0.204c0.009,-0.068 0.021,-0.135 0.034,-0.202c0.012,-0.068 0.026,-0.135 0.042,-0.201c0.016,-0.067 0.034,-0.133 0.054,-0.198c0.019,-0.066 0.04,-0.131 0.063,-0.195c0.022,-0.065 0.046,-0.129 0.072,-0.193c0.025,-0.063 0.052,-0.126 0.081,-0.188c0.029,-0.062 0.059,-0.123 0.09,-0.184c0.032,-0.06 0.066,-0.12 0.1,-0.179c0.035,-0.059 0.071,-0.117 0.108,-0.175c0.038,-0.057 0.077,-0.113 0.117,-0.168c0.041,-0.055 0.082,-0.11 0.125,-0.163c0.043,-0.053 0.087,-0.105 0.133,-0.156c0.046,-0.051 0.092,-0.101 0.14,-0.15c0.048,-0.049 0.097,-0.096 0.147,-0.143c0.051,-0.046 0.102,-0.092 0.155,-0.136c0.052,-0.043 0.106,-0.086 0.16,-0.127c0.055,-0.041 0.11,-0.081 0.167,-0.119c0.056,-0.039 0.114,-0.076 0.172,-0.111c0.059,-0.036 0.118,-0.071 0.178,-0.103c0.06,-0.033 0.121,-0.064 0.182,-0.094c0.062,-0.03 0.125,-0.058 0.188,-0.085c0.063,-0.026 0.126,-0.051 0.19,-0.075c0.065,-0.024 0.13,-0.046 0.195,-0.066c0.065,-0.02 0.131,-0.039 0.197,-0.056c0.066,-0.017 0.133,-0.033 0.2,-0.046c0.067,-0.014 0.134,-0.027 0.202,-0.037c0.067,-0.011 0.135,-0.02 0.203,-0.027Z" style="fill:#fefefe;fill-rule:nonzero;"/><path d="M94.89,103.845c0.068,-0.007 0.136,-0.012 0.204,-0.016c0.068,-0.003 0.136,-0.005 0.204,-0.006c0.068,0 0.136,0.002 0.204,0.005c0.068,0.003 0.136,0.008 0.204,0.014c0.067,0.007 0.135,0.015 0.202,0.024c0.068,0.01 0.135,0.022 0.202,0.035c0.066,0.013 0.133,0.027 0.199,0.043c0.066,0.017 0.132,0.035 0.197,0.054c0.065,0.02 0.13,0.041 0.194,0.064c0.065,0.022 0.128,0.047 0.191,0.073c0.063,0.025 0.126,0.052 0.187,0.081c0.062,0.029 0.123,0.06 0.183,0.091c0.06,0.032 0.119,0.066 0.178,0.101c0.058,0.034 0.116,0.07 0.173,0.108c0.057,0.038 0.112,0.077 0.167,0.117c0.055,0.04 0.109,0.082 0.162,0.125c0.053,0.043 0.104,0.087 0.155,0.133c0.05,0.046 0.1,0.093 0.148,0.141c0.049,0.047 0.096,0.096 0.142,0.147c0.046,0.05 0.091,0.102 0.134,0.154c0.043,0.053 0.085,0.106 0.126,0.161c0.041,0.054 0.08,0.11 0.118,0.166c0.038,0.057 0.075,0.114 0.11,0.172c0.035,0.058 0.069,0.118 0.102,0.178c0.032,0.06 0.063,0.12 0.092,0.182c0.029,0.061 0.057,0.123 0.084,0.186c0.026,0.063 0.051,0.126 0.074,0.19c0.023,0.064 0.045,0.129 0.065,0.194c0.02,0.065 0.038,0.13 0.055,0.196c0.017,0.066 0.032,0.133 0.045,0.2c0.014,0.066 0.026,0.133 0.036,0.201c0.01,0.067 0.019,0.135 0.026,0.202c0.007,0.068 0.012,0.136 0.015,0.204c0.004,0.068 0.006,0.136 0.006,0.204c0,0.068 -0.001,0.136 -0.004,0.204c-0.003,0.068 -0.008,0.136 -0.014,0.204c-0.007,0.068 -0.015,0.135 -0.024,0.203c-0.01,0.067 -0.022,0.134 -0.035,0.201c-0.013,0.067 -0.028,0.133 -0.044,0.199c-0.016,0.067 -0.034,0.133 -0.053,0.198c-0.02,0.065 -0.042,0.13 -0.064,0.194c-0.023,0.064 -0.047,0.127 -0.073,0.19c-0.026,0.063 -0.053,0.126 -0.082,0.188c-0.029,0.061 -0.059,0.122 -0.091,0.182c-0.032,0.061 -0.065,0.12 -0.1,0.179c-0.035,0.058 -0.071,0.116 -0.109,0.172c-0.038,0.057 -0.077,0.113 -0.117,0.168c-0.04,0.055 -0.082,0.108 -0.125,0.161c-0.043,0.053 -0.087,0.105 -0.133,0.156c-0.045,0.05 -0.092,0.1 -0.14,0.148c-0.048,0.048 -0.097,0.095 -0.148,0.141c-0.05,0.046 -0.101,0.091 -0.153,0.134c-0.053,0.044 -0.107,0.086 -0.162,0.126c-0.054,0.041 -0.11,0.081 -0.166,0.119c-0.057,0.038 -0.114,0.074 -0.172,0.109c-0.058,0.036 -0.118,0.07 -0.178,0.102c-0.06,0.032 -0.12,0.063 -0.181,0.093c-0.062,0.029 -0.124,0.056 -0.187,0.083c-0.063,0.026 -0.126,0.051 -0.19,0.074c-0.064,0.023 -0.129,0.045 -0.194,0.065c-0.065,0.02 -0.13,0.038 -0.196,0.055c-0.066,0.017 -0.133,0.032 -0.2,0.045c-0.066,0.014 -0.133,0.026 -0.201,0.036c-0.067,0.01 -0.135,0.019 -0.202,0.026c-0.068,0.007 -0.136,0.012 -0.204,0.015c-0.068,0.004 -0.136,0.006 -0.204,0.006c-0.068,0 -0.136,-0.001 -0.204,-0.004c-0.068,-0.003 -0.136,-0.008 -0.204,-0.014c-0.068,-0.007 -0.135,-0.015 -0.203,-0.025c-0.067,-0.01 -0.134,-0.021 -0.201,-0.034c-0.067,-0.013 -0.133,-0.028 -0.199,-0.044c-0.066,-0.017 -0.132,-0.035 -0.198,-0.054c-0.065,-0.02 -0.129,-0.041 -0.193,-0.063c-0.065,-0.023 -0.128,-0.047 -0.191,-0.073c-0.063,-0.026 -0.126,-0.053 -0.187,-0.082c-0.062,-0.029 -0.123,-0.059 -0.183,-0.091c-0.06,-0.032 -0.119,-0.066 -0.178,-0.101c-0.058,-0.034 -0.116,-0.07 -0.173,-0.108c-0.057,-0.038 -0.112,-0.077 -0.167,-0.117c-0.055,-0.04 -0.109,-0.082 -0.162,-0.125c-0.053,-0.043 -0.104,-0.087 -0.155,-0.133c-0.05,-0.045 -0.1,-0.092 -0.148,-0.14c-0.048,-0.048 -0.095,-0.097 -0.141,-0.148c-0.046,-0.05 -0.091,-0.101 -0.135,-0.153c-0.043,-0.053 -0.085,-0.106 -0.126,-0.161c-0.04,-0.054 -0.08,-0.11 -0.118,-0.166c-0.038,-0.057 -0.075,-0.114 -0.11,-0.173c-0.035,-0.058 -0.068,-0.117 -0.101,-0.177c-0.032,-0.06 -0.063,-0.121 -0.092,-0.182c-0.03,-0.062 -0.058,-0.124 -0.084,-0.186c-0.026,-0.063 -0.051,-0.127 -0.074,-0.191c-0.023,-0.064 -0.045,-0.128 -0.065,-0.193c-0.02,-0.065 -0.038,-0.131 -0.055,-0.197c-0.017,-0.066 -0.032,-0.132 -0.045,-0.199c-0.014,-0.067 -0.026,-0.134 -0.036,-0.201c-0.01,-0.068 -0.019,-0.135 -0.026,-0.203c-0.007,-0.067 -0.012,-0.135 -0.016,-0.203c-0.003,-0.068 -0.005,-0.136 -0.006,-0.205c0,-0.068 0.002,-0.136 0.005,-0.204c0.003,-0.068 0.008,-0.135 0.014,-0.203c0.007,-0.068 0.015,-0.136 0.024,-0.203c0.01,-0.068 0.022,-0.135 0.035,-0.201c0.013,-0.067 0.027,-0.134 0.044,-0.2c0.016,-0.066 0.034,-0.131 0.053,-0.197c0.02,-0.065 0.041,-0.13 0.064,-0.194c0.022,-0.064 0.047,-0.128 0.073,-0.191c0.025,-0.063 0.052,-0.125 0.081,-0.186c0.029,-0.062 0.06,-0.123 0.092,-0.183c0.031,-0.06 0.065,-0.12 0.1,-0.178c0.035,-0.059 0.071,-0.116 0.108,-0.173c0.038,-0.057 0.077,-0.113 0.117,-0.168c0.04,-0.055 0.082,-0.108 0.125,-0.161c0.043,-0.053 0.087,-0.105 0.133,-0.155c0.046,-0.051 0.092,-0.1 0.14,-0.149c0.048,-0.048 0.097,-0.095 0.148,-0.141c0.05,-0.046 0.101,-0.09 0.153,-0.134c0.053,-0.043 0.106,-0.085 0.161,-0.126c0.054,-0.041 0.11,-0.08 0.166,-0.118c0.057,-0.038 0.114,-0.075 0.173,-0.111c0.058,-0.035 0.117,-0.068 0.177,-0.101c0.06,-0.032 0.121,-0.063 0.182,-0.092c0.062,-0.03 0.124,-0.057 0.186,-0.083c0.063,-0.027 0.127,-0.052 0.191,-0.075c0.064,-0.023 0.128,-0.045 0.193,-0.065c0.065,-0.02 0.131,-0.038 0.197,-0.055c0.066,-0.017 0.132,-0.032 0.199,-0.045c0.067,-0.014 0.134,-0.026 0.201,-0.036c0.068,-0.01 0.135,-0.019 0.203,-0.026Z" style="fill:#fefefe;fill-rule:nonzero;"/><path d="M140.142,99.245c0.18,-0.031 0.362,-0.051 0.544,-0.058c0.182,-0.007 0.364,-0.002 0.546,0.015c0.182,0.017 0.361,0.046 0.539,0.087c0.178,0.041 0.353,0.093 0.524,0.157c0.171,0.064 0.337,0.139 0.498,0.225c0.16,0.087 0.315,0.183 0.463,0.29c0.148,0.106 0.289,0.222 0.422,0.348c0.132,0.125 0.256,0.258 0.371,0.4c0.115,0.142 0.22,0.291 0.315,0.447c0.096,0.155 0.18,0.316 0.254,0.483c0.074,0.167 0.136,0.338 0.187,0.513c0.052,0.176 0.091,0.354 0.118,0.534c0.027,0.181 0.043,0.362 0.046,0.545c0.004,0.182 -0.005,0.364 -0.026,0.545c-0.02,0.182 -0.053,0.361 -0.098,0.538c-0.045,0.177 -0.101,0.35 -0.168,0.52c-0.068,0.169 -0.146,0.333 -0.236,0.492c-0.089,0.159 -0.189,0.312 -0.298,0.458c-0.11,0.146 -0.229,0.284 -0.357,0.414c-0.128,0.13 -0.264,0.251 -0.408,0.363c-0.144,0.112 -0.295,0.214 -0.452,0.306c-0.158,0.092 -0.321,0.173 -0.489,0.244c-0.169,0.07 -0.341,0.129 -0.518,0.177c-0.176,0.047 -0.354,0.083 -0.535,0.106c-0.066,0.009 -0.133,0.016 -0.199,0.021c-0.066,0.006 -0.132,0.01 -0.199,0.012c-0.067,0.002 -0.134,0.003 -0.2,0.002c-0.067,-0.001 -0.133,-0.004 -0.2,-0.008c-0.066,-0.004 -0.132,-0.01 -0.198,-0.018c-0.066,-0.007 -0.132,-0.016 -0.198,-0.027c-0.066,-0.01 -0.131,-0.022 -0.196,-0.036c-0.066,-0.014 -0.13,-0.029 -0.194,-0.046c-0.065,-0.017 -0.129,-0.036 -0.192,-0.056c-0.064,-0.02 -0.127,-0.041 -0.189,-0.064c-0.063,-0.023 -0.125,-0.048 -0.186,-0.074c-0.061,-0.026 -0.122,-0.053 -0.182,-0.082c-0.06,-0.029 -0.119,-0.06 -0.178,-0.092c-0.058,-0.032 -0.116,-0.065 -0.172,-0.1c-0.057,-0.035 -0.113,-0.071 -0.168,-0.108c-0.055,-0.037 -0.109,-0.076 -0.163,-0.116c-0.053,-0.04 -0.105,-0.081 -0.157,-0.124c-0.051,-0.042 -0.101,-0.086 -0.15,-0.131c-0.049,-0.045 -0.097,-0.091 -0.144,-0.139c-0.047,-0.047 -0.092,-0.095 -0.137,-0.144c-0.044,-0.05 -0.088,-0.1 -0.13,-0.152c-0.042,-0.052 -0.082,-0.105 -0.122,-0.158c-0.039,-0.054 -0.078,-0.108 -0.115,-0.164c-0.037,-0.055 -0.072,-0.111 -0.106,-0.168c-0.034,-0.057 -0.067,-0.115 -0.098,-0.174c-0.032,-0.059 -0.062,-0.118 -0.09,-0.179c-0.029,-0.06 -0.056,-0.121 -0.081,-0.182c-0.026,-0.062 -0.05,-0.124 -0.072,-0.186c-0.023,-0.063 -0.044,-0.126 -0.063,-0.19c-0.02,-0.063 -0.038,-0.127 -0.054,-0.192c-0.016,-0.064 -0.031,-0.129 -0.045,-0.195c-0.013,-0.065 -0.024,-0.13 -0.034,-0.196c-0.01,-0.066 -0.019,-0.132 -0.026,-0.198c-0.006,-0.067 -0.011,-0.133 -0.015,-0.2c-0.004,-0.066 -0.006,-0.133 -0.006,-0.199c-0,-0.067 0.001,-0.133 0.003,-0.2c0.003,-0.066 0.008,-0.133 0.014,-0.199c0.006,-0.066 0.014,-0.132 0.023,-0.198c0.009,-0.066 0.02,-0.132 0.032,-0.198c0.013,-0.065 0.027,-0.13 0.042,-0.195c0.016,-0.065 0.033,-0.129 0.052,-0.192c0.019,-0.064 0.039,-0.128 0.061,-0.191c0.021,-0.063 0.045,-0.125 0.07,-0.187c0.024,-0.062 0.05,-0.123 0.078,-0.183c0.028,-0.061 0.057,-0.121 0.088,-0.18c0.031,-0.059 0.063,-0.117 0.096,-0.175c0.034,-0.058 0.068,-0.114 0.104,-0.17c0.037,-0.056 0.075,-0.111 0.114,-0.165c0.038,-0.054 0.078,-0.107 0.12,-0.159c0.041,-0.052 0.084,-0.103 0.128,-0.153c0.044,-0.05 0.089,-0.099 0.136,-0.147c0.046,-0.048 0.093,-0.094 0.141,-0.14c0.049,-0.045 0.099,-0.09 0.15,-0.133c0.05,-0.043 0.102,-0.085 0.155,-0.126c0.052,-0.04 0.106,-0.079 0.161,-0.117c0.055,-0.038 0.11,-0.075 0.167,-0.111c0.056,-0.035 0.113,-0.069 0.171,-0.102c0.058,-0.032 0.117,-0.063 0.177,-0.093c0.06,-0.03 0.12,-0.058 0.18,-0.084c0.061,-0.027 0.123,-0.053 0.186,-0.077c0.062,-0.023 0.124,-0.046 0.188,-0.067c0.063,-0.02 0.126,-0.039 0.19,-0.057c0.065,-0.018 0.13,-0.034 0.195,-0.048c0.065,-0.015 0.13,-0.028 0.195,-0.039Z" style="fill:#fefefe;fill-rule:nonzero;"/><path d="M120.84,140.827c0.088,-0.026 0.177,-0.049 0.267,-0.07c0.089,-0.02 0.179,-0.037 0.27,-0.052c0.091,-0.014 0.182,-0.025 0.273,-0.033c0.092,-0.008 0.184,-0.013 0.276,-0.015c0.091,-0.002 0.183,-0.001 0.275,0.003c0.091,0.004 0.183,0.012 0.274,0.022c0.091,0.011 0.182,0.024 0.273,0.041c0.09,0.016 0.179,0.035 0.268,0.057c0.09,0.023 0.178,0.048 0.265,0.077c0.087,0.028 0.174,0.06 0.259,0.094c0.085,0.034 0.169,0.071 0.252,0.111c0.083,0.039 0.164,0.082 0.244,0.127c0.08,0.045 0.158,0.093 0.235,0.143c0.076,0.051 0.151,0.104 0.225,0.159c0.073,0.056 0.144,0.114 0.213,0.174c0.069,0.06 0.137,0.123 0.202,0.188c0.065,0.065 0.127,0.132 0.188,0.201c0.06,0.069 0.119,0.14 0.175,0.212c0.056,0.073 0.109,0.148 0.159,0.224c0.051,0.077 0.1,0.155 0.145,0.235c0.046,0.08 0.089,0.161 0.129,0.243c0.04,0.083 0.077,0.166 0.112,0.251c0.034,0.086 0.066,0.172 0.094,0.259c0.029,0.088 0.055,0.176 0.078,0.264c0.023,0.089 0.043,0.179 0.06,0.269c0.016,0.09 0.03,0.181 0.041,0.273c0.01,0.091 0.018,0.182 0.022,0.274c0.005,0.092 0.007,0.183 0.005,0.275c-0.002,0.092 -0.006,0.183 -0.014,0.275c-0.008,0.091 -0.018,0.183 -0.032,0.274c-0.014,0.09 -0.031,0.18 -0.051,0.27c-0.019,0.09 -0.042,0.179 -0.068,0.267c-0.05,0.171 -0.111,0.338 -0.183,0.501c-0.072,0.163 -0.154,0.32 -0.247,0.473c-0.092,0.152 -0.194,0.298 -0.306,0.437c-0.111,0.139 -0.231,0.271 -0.359,0.395c-0.129,0.123 -0.265,0.237 -0.408,0.343c-0.144,0.106 -0.293,0.202 -0.449,0.288c-0.156,0.087 -0.317,0.163 -0.483,0.228c-0.166,0.065 -0.335,0.119 -0.508,0.163c-0.099,0.024 -0.199,0.045 -0.299,0.063c-0.1,0.017 -0.201,0.031 -0.303,0.041c-0.101,0.01 -0.202,0.016 -0.304,0.018c-0.102,0.002 -0.204,0.001 -0.305,-0.004c-0.102,-0.006 -0.203,-0.015 -0.304,-0.027c-0.101,-0.013 -0.202,-0.03 -0.302,-0.051c-0.099,-0.02 -0.198,-0.043 -0.296,-0.071c-0.098,-0.028 -0.195,-0.059 -0.291,-0.094c-0.095,-0.035 -0.19,-0.073 -0.283,-0.115c-0.093,-0.042 -0.184,-0.087 -0.273,-0.136c-0.089,-0.048 -0.177,-0.1 -0.263,-0.155c-0.085,-0.056 -0.169,-0.114 -0.25,-0.175c-0.081,-0.061 -0.16,-0.126 -0.237,-0.193c-0.076,-0.067 -0.15,-0.137 -0.221,-0.21c-0.071,-0.073 -0.14,-0.148 -0.205,-0.225c-0.066,-0.078 -0.129,-0.159 -0.189,-0.241c-0.059,-0.083 -0.116,-0.167 -0.169,-0.254c-0.054,-0.087 -0.104,-0.175 -0.151,-0.265c-0.046,-0.091 -0.09,-0.183 -0.13,-0.277c-0.04,-0.093 -0.076,-0.188 -0.109,-0.285c-0.033,-0.096 -0.063,-0.193 -0.089,-0.292c-0.025,-0.098 -0.047,-0.198 -0.065,-0.298c-0.018,-0.1 -0.033,-0.201 -0.044,-0.302c-0.011,-0.101 -0.018,-0.203 -0.021,-0.304c-0.003,-0.102 -0.003,-0.204 0.001,-0.305c0.005,-0.102 0.013,-0.204 0.025,-0.305c0.012,-0.101 0.027,-0.201 0.047,-0.301c0.019,-0.1 0.042,-0.2 0.069,-0.298c0.027,-0.098 0.057,-0.195 0.09,-0.291c0.034,-0.096 0.072,-0.191 0.113,-0.284c0.041,-0.093 0.085,-0.185 0.133,-0.275c0.048,-0.09 0.099,-0.178 0.153,-0.264c0.132,-0.208 0.281,-0.404 0.447,-0.586c0.167,-0.181 0.349,-0.346 0.546,-0.495c0.196,-0.149 0.404,-0.28 0.624,-0.391c0.22,-0.112 0.448,-0.203 0.684,-0.273Z" style="fill:#fefefe;fill-rule:nonzero;"/><path d="M142.11,126.234c1.02,-0.134 1.874,-0.089 2.799,0.379c0.998,0.504 1.75,1.336 2.058,2.425c0.037,0.129 0.067,0.259 0.09,0.392c0.022,0.132 0.038,0.265 0.048,0.399c0.009,0.133 0.012,0.267 0.008,0.402c-0.004,0.134 -0.015,0.267 -0.033,0.4c-0.018,0.133 -0.042,0.265 -0.074,0.396c-0.031,0.13 -0.068,0.259 -0.112,0.385c-0.045,0.127 -0.095,0.251 -0.152,0.373c-0.057,0.121 -0.12,0.24 -0.189,0.355c-0.674,1.137 -1.578,1.578 -2.803,1.883c-1.071,0.073 -1.968,-0.149 -2.975,-0.484c-0.579,-0.626 -1.253,-1.469 -1.532,-2.284c-0.319,-0.933 -0.313,-2.017 0.14,-2.903c0.594,-1.164 1.527,-1.726 2.727,-2.118Z" style="fill:#fefefe;fill-rule:nonzero;"/><path d="M40.188,112.078c-0.045,-2.198 0.467,-4.712 0.86,-6.87c2.151,-11.793 6.971,-23.471 14.281,-33.004c13.725,-17.901 31.94,-28.799 54.379,-31.746c21.02,-2.76 41.309,3.435 58.012,16.282l-1.044,1.124c-3.496,-2.484 -7.057,-4.955 -10.832,-6.997c-0.953,-0.509 -1.916,-0.998 -2.889,-1.468c-0.974,-0.469 -1.957,-0.918 -2.949,-1.346c-0.992,-0.429 -1.992,-0.836 -3.001,-1.223c-1.009,-0.387 -2.026,-0.752 -3.05,-1.096c-1.024,-0.345 -2.055,-0.667 -3.093,-0.969c-1.037,-0.301 -2.08,-0.581 -3.129,-0.838c-1.05,-0.258 -2.104,-0.494 -3.163,-0.708c-1.06,-0.214 -2.123,-0.406 -3.19,-0.575c-1.067,-0.17 -2.137,-0.317 -3.211,-0.442c-1.073,-0.125 -2.148,-0.228 -3.225,-0.308c-1.078,-0.08 -2.157,-0.138 -3.237,-0.173c-1.08,-0.035 -2.16,-0.048 -3.24,-0.038c-1.081,0.01 -2.161,0.042 -3.24,0.097c-1.079,0.055 -2.156,0.132 -3.232,0.232c-1.076,0.1 -2.15,0.222 -3.221,0.366c-1.07,0.145 -2.137,0.311 -3.201,0.5c-20.64,3.484 -38.392,15.345 -50.412,32.321c-0.804,1.154 -1.576,2.329 -2.316,3.526c-0.739,1.197 -1.445,2.414 -2.116,3.651c-0.672,1.236 -1.309,2.489 -1.911,3.761c-0.602,1.272 -1.168,2.559 -1.699,3.862c-0.53,1.303 -1.024,2.62 -1.481,3.951c-0.457,1.331 -0.877,2.673 -1.26,4.027c-0.382,1.354 -0.727,2.718 -1.034,4.091c-0.306,1.373 -0.575,2.753 -0.805,4.141c-0.501,3.025 -0.618,6.053 -1.012,9.08c-0.117,-0.219 -0.226,-0.423 -0.381,-0.619c-0.724,-0.917 -0.86,-1.45 -0.958,-2.592Z" style="fill:#273563;fill-rule:nonzero;"/><path d="M59.576,168.825c15.318,17.451 33.682,26.237 56.887,27.734c3.031,0.195 6.054,-0.142 9.07,-0.394c17.144,-1.436 32.461,-8.133 45.393,-19.454c0.097,-0.086 0.192,-0.173 0.287,-0.261l1.068,0.975c-1.475,1.5 -3.174,2.877 -4.847,4.147c-16.824,12.782 -37.937,18.934 -59.005,16.028c-14.297,-1.973 -27.239,-7.782 -38.549,-16.671c-4.282,-3.366 -8.471,-7.25 -11.771,-11.598c0.293,-0.096 0.286,-0.054 0.565,0.032c0.461,0.89 1.332,1.85 2.117,2.48l0.24,-0.274c-0.014,-1.038 -1.279,-1.63 -1.455,-2.744Z" style="fill:#gray;fill-rule:nonzero;"/><path d="M191.577,90.794l0.28,-0.337c0.35,0.037 0.69,0.045 1.041,0.045c0.465,1.206 0.995,2.415 1.252,3.685c1.149,2.655 1.798,5.766 2.405,8.589c0.199,0.935 0.381,1.873 0.546,2.814c0.165,0.942 0.313,1.887 0.443,2.834c0.13,0.947 0.243,1.896 0.339,2.848c0.095,0.951 0.173,1.903 0.234,2.857c0.061,0.955 0.104,1.91 0.13,2.865c0.026,0.956 0.034,1.911 0.025,2.867c-0.01,0.956 -0.036,1.912 -0.08,2.867c-0.044,0.955 -0.106,1.909 -0.186,2.862c-0.079,0.952 -0.175,1.903 -0.289,2.853c-0.114,0.949 -0.245,1.896 -0.394,2.84c-0.148,0.945 -0.314,1.886 -0.497,2.825c-0.183,0.938 -0.383,1.872 -0.6,2.803c-0.218,0.931 -0.452,1.858 -0.703,2.78c-0.251,0.923 -0.519,1.84 -0.804,2.753c-0.284,0.913 -0.586,1.82 -0.904,2.722c-0.318,0.901 -0.652,1.797 -1.002,2.686c-3.477,8.809 -8.799,17.778 -15.468,24.551c-1.598,1.765 -3.286,3.439 -5.064,5.022l-1.068,-0.975c1.811,-1.479 3.435,-3.228 5.065,-4.901c0.584,-1.108 1.757,-1.978 2.539,-2.965c2.025,-2.555 3.982,-5.295 5.767,-8.024c1.827,-2.794 3.328,-5.798 4.739,-8.82c5.446,-11.669 7.437,-22.94 7.011,-35.758c-0.083,-2.479 -0.138,-4.97 -0.453,-7.432c-0.501,-3.911 -1.602,-7.682 -2.408,-11.528c-0.47,-1.386 -0.721,-2.851 -1.36,-4.176l-0.044,-0.216c-0.088,-0.636 -0.295,-1.227 -0.492,-1.836Z" style="fill:#273563;fill-rule:nonzero;"/><path d="M191.577,90.794l0.28,-0.337c0.35,0.037 0.69,0.045 1.041,0.045c0.465,1.206 0.995,2.415 1.252,3.685l-0.339,-0.062l-0.048,-0.166c-0.154,-0.516 -0.321,-0.885 -0.641,-1.315l-0.194,0.13c0.082,0.246 0.374,0.903 0.297,1.116c-0.096,0.264 -0.172,0.442 -0.116,0.729c0.557,0.762 0.567,1.238 0.408,2.193c-0.011,0.071 -0.029,0.141 -0.044,0.21c-0.47,-1.386 -0.721,-2.851 -1.36,-4.176l-0.044,-0.216c-0.088,-0.636 -0.295,-1.227 -0.492,-1.836Z" style="fill:#gray;fill-rule:nonzero;"/><path d="M40.188,112.078c0.098,1.142 0.234,1.675 0.958,2.592c0.155,0.196 0.264,0.4 0.381,0.619c-0.041,0.955 -0.065,1.911 -0.072,2.866c-0.006,0.956 0.005,1.912 0.033,2.867c0.028,0.955 0.074,1.91 0.137,2.863c0.063,0.954 0.143,1.906 0.241,2.857c0.098,0.95 0.213,1.899 0.345,2.845c0.133,0.947 0.282,1.891 0.449,2.832c0.167,0.941 0.351,1.879 0.552,2.813c0.201,0.934 0.418,1.865 0.653,2.791c0.235,0.927 0.487,1.849 0.755,2.766c0.269,0.917 0.554,1.829 0.856,2.736c0.301,0.907 0.619,1.808 0.954,2.703c0.334,0.895 0.685,1.784 1.052,2.667c0.367,0.882 0.75,1.758 1.149,2.626c0.399,0.869 0.814,1.73 1.244,2.583c0.43,0.854 0.876,1.699 1.337,2.536c0.461,0.837 0.937,1.665 1.429,2.485c1.373,2.22 2.847,4.371 4.422,6.452c0.783,1.034 1.866,2.142 2.513,3.248c0.176,1.114 1.441,1.706 1.455,2.744l-0.24,0.274c-0.785,-0.63 -1.656,-1.59 -2.117,-2.48c-0.279,-0.086 -0.272,-0.128 -0.565,-0.032c-0.826,-0.703 -1.627,-1.828 -2.293,-2.698c-0.61,-0.806 -1.204,-1.623 -1.783,-2.452c-0.579,-0.828 -1.141,-1.668 -1.687,-2.518c-0.547,-0.85 -1.076,-1.711 -1.589,-2.582c-0.514,-0.87 -1.01,-1.751 -1.489,-2.641c-0.48,-0.889 -0.942,-1.788 -1.386,-2.696c-0.445,-0.907 -0.872,-1.823 -1.281,-2.747c-0.41,-0.924 -0.801,-1.856 -1.175,-2.795c-0.373,-0.939 -0.728,-1.885 -1.065,-2.838c-0.337,-0.953 -0.656,-1.912 -0.956,-2.877c-0.3,-0.965 -0.582,-1.935 -0.844,-2.911c-0.263,-0.976 -0.507,-1.957 -0.732,-2.942c-0.225,-0.985 -0.431,-1.975 -0.618,-2.968c-0.187,-0.993 -0.354,-1.99 -0.503,-2.99c-0.148,-0.999 -0.277,-2.001 -0.387,-3.006c-0.11,-1.005 -0.201,-2.011 -0.272,-3.019c-0.071,-1.009 -0.123,-2.018 -0.155,-3.028c-0.096,-3.109 -0.113,-6.455 0.294,-9.545Z" style="fill:#243d74;fill-rule:nonzero;"/><path d="M179.447,70.242l0.144,-0.264c-0.347,-0.746 -1.054,-1.352 -1.534,-2.027l0.078,-0.218c1.046,0.246 1.436,1.74 2.431,2.044c0.073,0.023 0.149,0.038 0.224,0.058c2.55,2.59 8.183,10.941 9.197,14.337c-0.06,0.601 -0.081,1.153 -0.541,1.586l-0.344,-0.107c-2.79,-5.468 -6.108,-10.412 -9.655,-15.409Z" style="fill:#gray;fill-rule:nonzero;"/><path d="M167.72,56.74c2.1,1.735 4.197,3.468 6.052,5.469c2.15,2.099 5.575,5.109 7.018,7.626c-0.075,-0.02 -0.151,-0.035 -0.224,-0.058c-0.995,-0.304 -1.385,-1.798 -2.431,-2.044l-0.078,0.218c0.48,0.675 1.187,1.281 1.534,2.027l-0.144,0.264c-2.167,-2.566 -4.398,-5.015 -6.81,-7.354c-2,-1.67 -3.865,-3.465 -5.961,-5.024l1.044,-1.124Z" style="fill:#273563;fill-rule:nonzero;"/><path d="M189.987,84.172c1.108,2.029 2.063,4.18 2.911,6.33c-0.351,-0 -0.691,-0.008 -1.041,-0.045l-0.28,0.337c-1.031,-1.209 -1.806,-3.649 -2.475,-5.143l0.344,0.107c0.46,-0.433 0.481,-0.985 0.541,-1.586Z" style="fill:#273563;fill-rule:nonzero;"/><path d="M34.065,178.139c-2.387,-3.339 -4.085,-7.264 -5.924,-10.913c-0.556,-1.104 -1.409,-2.32 -1.735,-3.505c1.141,-0.084 2.447,-0.101 3.55,-0.418c1.26,-0.362 5.754,-2.598 6.601,-3.509c0.431,-0.465 0.242,-1.149 0.75,-1.72c0.441,0.213 0.595,0.463 0.841,0.878c1.021,1.722 1.795,3.652 2.666,5.457c1.475,3.059 3.315,6.594 5.358,9.31c0.029,0.039 0.06,0.077 0.089,0.115c-0.911,2.589 -2.05,5.092 -2.964,7.676c0.905,-0.765 3.891,-2.564 3.973,-3.744c0.04,-0.578 -0.114,-1.012 0.278,-1.458c0.495,0.093 0.69,0.253 1.04,0.604c0.933,0.933 1.581,2.13 2.42,3.14c1.284,1.546 3.049,2.956 4.122,4.639c0.156,0.246 0.196,0.386 0.216,0.67c0.163,0.281 0.313,0.58 0.534,0.821c-1.474,1.158 -3.104,2.217 -3.512,4.173c-0.36,0.165 -0.72,0.29 -1.011,0.561c-1.294,0.174 -2.988,2.436 -3.814,3.453c-0.331,-0.149 -0.646,-0.374 -0.955,-0.566c-1.422,-0.979 -5.226,-4.787 -5.621,-6.419c0.353,-0.528 1.551,-0.401 2.179,-0.656c0.661,-0.267 1.251,-0.73 1.78,-1.198c1.154,-1.022 4.528,-3.755 4.613,-5.145c-0.088,-0.129 -0.182,-0.288 -0.312,-0.383c-1.944,-1.429 -7.469,5.448 -10.309,5.739l-0.234,-0.192c0.04,-0.519 3.422,-8.515 3.898,-9.762c-1.34,1.073 -2.825,1.959 -4.161,3.04c-1.542,1.247 -0.873,1.268 -1.079,2.854c-0.043,0.329 -0.15,0.309 -0.403,0.496c-0.363,0.056 -0.785,0.162 -1.144,0.051c-0.271,-0.084 -0.304,-0.299 -0.43,-0.539c0.143,-1.692 -0.759,-1.867 -1.294,-3.295c0.91,-0.226 1.61,0.182 2.457,0.05c1.379,-0.215 5.952,-3.996 6.768,-5.201c0.316,-0.465 0.588,-0.951 0.477,-1.527c-0.392,-0.135 -0.683,-0.15 -1.089,-0.054c-1.273,0.303 -7.464,3.676 -8.052,4.672c-0.052,0.645 -0.056,1.181 -0.482,1.708c-0.027,0.034 -0.057,0.065 -0.085,0.097Z" style="fill:#fefefe;fill-rule:nonzero;"/><path d="M48.144,186.362c0.852,-1.191 2.121,-3.142 3.65,-3.43c0.361,0.124 0.484,0.125 0.661,0.496c0.281,0.59 0.235,1.803 0.11,2.427c-0.279,0.693 -0.619,1.351 -0.572,2.111l0.271,0.1c1.11,-0.585 2.114,-1.874 3.082,-2.705c0.163,0.281 0.313,0.58 0.534,0.821c-1.474,1.158 -3.104,2.217 -3.512,4.173c-0.36,0.165 -0.72,0.29 -1.011,0.561c-1.294,0.174 -2.988,2.436 -3.814,3.453c-0.331,-0.149 -0.646,-0.374 -0.955,-0.566c1.036,-0.838 2.292,-1.846 2.828,-3.1c-0.393,-0.92 -0.311,-1.565 -0.1,-2.506c0.574,-0.953 1.999,-1.82 2.878,-2.506c-0.442,-0.378 -0.734,-0.671 -1.368,-0.595c-0.924,0.11 -1.822,0.903 -2.682,1.266Z" style="fill:#243d74;fill-rule:nonzero;"/><path d="M44.13,189.638c1.245,-1.47 2.697,-2.619 4.243,-3.749c-0.376,0.986 -1.285,2.276 -1.074,3.358l0.329,0.112c0.678,-0.204 1.169,-0.705 1.688,-1.162c-0.211,0.941 -0.293,1.586 0.1,2.506c-1.125,0.235 -2.227,0.388 -3.372,0.492c-0.72,-0.437 -1.301,-0.986 -1.914,-1.557Z" style="fill:#273563;fill-rule:nonzero;"/><path d="M40.311,166.838l0.364,0.072c0.406,0.483 0.823,1.294 0.782,1.931c-1.017,1.303 -6.386,4.219 -8.027,4.441c-0.373,-0.086 -0.873,-0.187 -1.16,-0.459c-0.384,-0.363 -0.392,-0.587 -0.41,-1.076c0.855,-1.846 6.532,-4 8.451,-4.909Z" style="fill:#243d74;fill-rule:nonzero;"/><path d="M32.771,164.59c0.034,0.006 0.07,0.007 0.103,0.019c0.665,0.218 1.288,1.665 1.626,2.273c-1.089,0.656 -2.192,1.289 -3.308,1.9c-0.429,-0.193 -0.832,-0.467 -1.189,-0.774c-0.437,-0.377 -0.518,-0.652 -0.559,-1.186c0.521,-1.16 2.231,-1.715 3.327,-2.232Z" style="fill:#243d74;fill-rule:nonzero;"/><path d="M37.608,162.147c0.181,-0.002 0.119,-0.011 0.286,0.021c0.542,0.107 0.961,0.655 1.214,1.153c0.097,0.189 0.156,0.444 0.093,0.65c-0.321,1.058 -1.944,1.637 -2.864,2.113c-0.212,0.061 -0.352,0.009 -0.564,-0.031c-0.597,-0.607 -0.92,-1.481 -1.282,-2.243c0.933,-0.67 2.09,-1.144 3.117,-1.663Z" style="fill:#243d74;fill-rule:nonzero;"/><path d="M57.615,32.686c0.206,-1.366 0.737,-2.596 1.428,-3.787c1.172,-2.018 3.264,-4.496 5.637,-5.081c1.118,-0.276 1.827,-0.01 2.756,0.566c1.036,0.888 1.9,1.717 2.663,2.861c0.932,1.398 7.544,14.22 7.704,15.212l-0.206,0.401c-0.17,0.156 -0.344,0.305 -0.524,0.448c-2.453,1.946 -6.216,3.656 -9.414,3.244c-1.624,-0.209 -3.103,-0.895 -4.098,-2.218c-0.164,-0.217 -0.237,-0.204 -0.484,-0.297c-0.782,0.654 0.449,5.133 -0.223,6.605c-0.069,0.151 -0.18,0.143 -0.328,0.198c-0.033,-0.019 -0.066,-0.037 -0.098,-0.057c-2.337,-1.474 -6.331,-12.769 -7.097,-15.903c0.899,0.59 1.596,1.392 2.325,2.172l0.082,-0.141c-0.198,-0.398 -0.395,-0.799 -0.564,-1.211c-0.357,-0.865 0.015,-1.995 0.359,-2.818l0.082,-0.194Z" style="fill:#fefefe;fill-rule:nonzero;"/><path d="M57.615,32.686c0.206,-1.366 0.737,-2.596 1.428,-3.787c1.172,-2.018 3.264,-4.496 5.637,-5.081c1.118,-0.276 1.827,-0.01 2.756,0.566c1.036,0.888 1.9,1.717 2.663,2.861c0.932,1.398 7.544,14.22 7.704,15.212l-0.206,0.401c-0.147,-0.415 -0.285,-0.67 -0.577,-1.002c-0.337,0.01 -0.673,0.033 -1.002,-0.062c-0.065,-0.019 -0.13,-0.041 -0.196,-0.061c-1.467,1.261 -3.534,2.52 -5.365,3.111c-0.835,0.27 -2.363,0.721 -3.188,0.304c-0.037,-1.561 3.15,-2.392 3.797,-3.711c-0.032,-1 -0.87,-1.834 -1.206,-2.762c-0.544,-1.504 0.93,-2.784 1.573,-4.06c-0.048,-0.035 -0.095,-0.071 -0.144,-0.104c-0.455,-0.3 -1.656,-0.475 -2.175,-0.313c-1.522,0.477 -1.157,3.062 -1.707,4.224c-0.123,0.257 -0.129,0.236 -0.395,0.328l-0.239,-0.191c0.027,-0.185 0.049,-0.369 0.071,-0.555c0.119,-0.998 -0.06,-1.833 -0.556,-2.702c-0.444,-0.777 -2.318,-3.576 -3.174,-3.818c-1.563,0.578 -2.413,-0.272 -3.966,-0.196l-0.266,0.281l-0.263,-0.416c-0.178,0.382 -0.346,0.76 -0.493,1.154l-0.511,0.379Z" style="fill:#gray;fill-rule:nonzero;"/><path d="M67.436,24.384c1.036,0.888 1.9,1.717 2.663,2.861c0.932,1.398 7.544,14.22 7.704,15.212l-0.206,0.401c-0.147,-0.415 -0.285,-0.67 -0.577,-1.002c-0.337,0.01 -0.673,0.033 -1.002,-0.062c-0.065,-0.019 -0.13,-0.041 -0.196,-0.061c-0.491,-1.946 -2.799,-5.55 -3.765,-7.509c-1.567,-3.627 -2.985,-7.065 -6.685,-8.984c0.71,-0.687 1.092,-0.811 2.064,-0.856Z" style="fill:url(#_Linear1);fill-rule:nonzero;"/><path d="M57.615,32.686c0.206,-1.366 0.737,-2.596 1.428,-3.787c1.172,-2.018 3.264,-4.496 5.637,-5.081c1.118,-0.276 1.827,-0.01 2.756,0.566c-0.972,0.045 -1.354,0.169 -2.064,0.856c-3.878,1.461 -4.038,4.4 -6.149,5.812l-0.075,0.236l-0.266,0.281l-0.263,-0.416c-0.178,0.382 -0.346,0.76 -0.493,1.154l-0.511,0.379Z" style="fill:#fbf8f0;fill-rule:nonzero;"/><path d="M60.99,38.348c0.416,0.327 0.933,0.589 1.012,1.158c0.106,0.766 -0.361,1.676 0.365,2.259c0.099,0.08 0.136,0.085 0.242,0.122l-0.284,0.301c-0.903,-0.398 -1.364,-1.39 -2.244,-1.706c-1.17,1.659 1.918,4.292 1.356,6.034c-1.101,-0.84 -2.028,-4.348 -2.574,-5.737c0.306,-0.557 0.551,-1.031 0.674,-1.665l0.1,-0.276c0.221,0.258 0.185,0.32 0.538,0.369c0.263,-0.297 0.534,-0.579 0.815,-0.859Z" style="fill:#243d74;fill-rule:nonzero;"/><path d="M59.537,39.114c-0.374,0.183 -0.62,0.277 -1.039,0.282l-0.25,-0.295c0.123,-0.352 0.373,-0.576 0.504,-0.915c0.378,-0.974 0.261,-2.281 1.087,-3.004l0.41,0.108c1.088,0.926 0.557,1.646 0.717,2.89l0.024,0.168c-0.281,0.28 -0.552,0.562 -0.815,0.859c-0.353,-0.049 -0.317,-0.111 -0.538,-0.369l-0.1,0.276Z" style="fill:#gray;fill-rule:nonzero;"/><path d="M63.801,42.354c0.845,-0.985 1.633,-1.773 2.756,-2.432c-0.524,1.312 -1.215,2.594 -1.344,4.014l-0.038,0.349l0.008,-0.134l-0.248,0.335c-1.122,-0.32 -2.007,-1.343 -2.61,-2.298l0.284,-0.301l1.192,0.467Z" style="fill:url(#_Linear2);fill-rule:nonzero;"/><path d="M63.801,42.354c0.845,-0.985 1.633,-1.773 2.756,-2.432c-0.524,1.312 -1.215,2.594 -1.344,4.014c-0.041,-0.45 -0.053,-0.769 -0.318,-1.144c-0.333,-0.073 -0.716,-0.115 -0.989,-0.331c-0.039,-0.031 -0.07,-0.072 -0.105,-0.107Z" style="fill:#363334;fill-rule:nonzero;"/><path d="M196.4,178.308l0.579,-0.7c1.369,0.959 4.075,2.735 4.75,4.254l-0.108,0.193c-3.349,0.187 -6.849,-0.924 -10.232,-1.016c0.782,0.716 2.207,1.705 2.801,2.551c0.635,0.536 1.239,1.071 1.809,1.677c0.864,-0.077 1.743,-0.189 2.61,-0.198c-0.712,1.321 -1.431,2.581 -2.643,3.506l-0.851,0.566c-1.97,1.78 -3.409,4.038 -5.588,5.628c-0.235,0.17 -0.322,0.316 -0.622,0.283c-0.935,1.555 -2.329,2.803 -3.775,3.871c-0.182,-0.731 -0.342,-1.541 -0.694,-2.211c-0.97,-1.854 -4.026,-5.847 -5.791,-6.915c-0.589,-0.357 -0.997,-0.165 -1.614,-0.034l-0.56,-0.305c1.225,-1.467 2.748,-2.514 4.162,-3.764c1.125,-0.993 2.117,-2.16 3.179,-3.221c1.579,-1.579 3.258,-2.948 4.615,-4.748c2.546,0.398 5.314,0.835 7.878,0.996l0.095,-0.413Z" style="fill:#fefefe;fill-rule:nonzero;"/><path d="M186.804,182.841c0.875,0.456 1.396,0.887 2.415,0.899l0.288,-0.216c-0.347,-1.143 -1.905,-1.707 -2.064,-2.879c0.397,-0.157 0.639,-0.223 1.062,-0.07c1.25,0.451 4.866,3.68 5.973,4.673c0.205,-0.167 0.24,-0.208 0.339,-0.452c-0.255,-0.36 -0.445,-0.678 -0.591,-1.095c-0.012,-0.037 -0.024,-0.075 -0.036,-0.111c0.635,0.536 1.239,1.071 1.809,1.677c0.864,-0.077 1.743,-0.189 2.61,-0.198c-0.712,1.321 -1.431,2.581 -2.643,3.506l-0.851,0.566c-0.574,-1.957 -2.347,-2.775 -3.856,-3.978c0.739,1.233 1.248,2.336 1.626,3.73c-0.199,0.583 -0.429,1.49 -0.897,1.905c-0.235,0.209 -0.492,0.313 -0.8,0.283c-1.235,-0.118 -2.599,-2.307 -3.34,-3.255l3.73,0.561c-1.258,-1.605 -2.82,-3.766 -4.674,-4.669c-0.206,0.895 0.512,2.33 0.158,3.001c-0.425,-0.001 -0.608,-0.103 -0.96,-0.351c-0.846,-0.594 -1.555,-1.6 -1.725,-2.616c0.103,-0.36 0.104,-0.563 0.441,-0.789c0.619,-0.412 1.317,-0.283 1.986,-0.122Z" style="fill:#243d74;fill-rule:nonzero;"/><path d="M194.19,183.59c0.635,0.536 1.239,1.071 1.809,1.677c0.864,-0.077 1.743,-0.189 2.61,-0.198c-0.712,1.321 -1.431,2.581 -2.643,3.506c-0.659,-1.514 -0.02,-2.011 -1.488,-3.327c0.205,-0.167 0.24,-0.208 0.339,-0.452c-0.255,-0.36 -0.445,-0.678 -0.591,-1.095c-0.012,-0.037 -0.024,-0.075 -0.036,-0.111Z" style="fill:#fefefe;fill-rule:nonzero;"/><path d="M186.614,195.056c-1.949,-2.337 -4.447,-4.74 -5.992,-7.338c-0.022,-0.754 0.394,-0.714 0.684,-1.284c0.107,-0.211 0.071,-0.759 0.168,-1.043c1.334,0.746 7.305,6.601 7.885,7.893c-0.029,0.408 -0.107,0.899 0.067,1.281c0.031,0.069 0.067,0.136 0.101,0.204c-0.235,0.17 -0.322,0.316 -0.622,0.283l-0.385,-0.32c-0.654,-0.151 -1.281,0.129 -1.906,0.324Z" style="fill:#243d74;fill-rule:nonzero;"/><path d="M201.989,156.933c-0.113,-0.104 -0.157,-0.138 -0.251,-0.244c-0.456,-0.512 -0.642,-1.137 -0.585,-1.817c0.093,-1.114 1.198,-3.457 2.048,-4.19c0.039,0.004 0.078,0.007 0.117,0.011c1.093,0.13 3.525,1.08 4.184,1.93l0.765,0.26c0.041,0.007 0.08,0.015 0.121,0.022c1.975,0.333 4.031,0.089 5.361,1.99c0.513,0.734 0.631,1.614 0.445,2.478c-0.255,1.188 -1.032,1.911 -1.404,2.965c-0.157,0.446 -0.083,0.931 -0.245,1.37c-0.387,0.326 -0.85,0.648 -1.163,1.045c0.215,0.242 0.339,0.254 0.311,0.595c-0.067,0.841 -2.966,6.946 -3.639,7.456c-0.19,0.144 -0.396,0.214 -0.618,0.294l-0.4,-0.729c0.027,-0.457 0.021,-0.852 -0.051,-1.305c-1.039,-1.317 -3.657,-2.189 -5.194,-2.907c-0.499,0.297 -1.096,0.581 -1.498,1.002c-0.68,-0.534 -1.98,-0.921 -2.409,-1.665c-0.208,-0.36 -0.148,-0.449 -0.03,-0.84c-0.197,-0.135 -0.498,-0.198 -0.726,-0.277c0.273,-1.089 0.89,-2.159 1.367,-3.175c0.381,-0.859 1.212,-3.253 2.047,-3.648c0.26,-0.124 0.629,0.086 0.898,0.173c0.115,-0.311 0.342,-0.539 0.549,-0.794Z" style="fill:#fefefe;fill-rule:nonzero;"/><path d="M199.427,161.537c0.593,-0.558 1.315,-1.304 2.103,-1.572c0.398,-0.135 0.475,-0.062 0.838,0.102l0.113,0.57c1.234,0.589 2.298,1.56 3.517,2.101c0.342,-0.387 0.665,-0.611 0.702,-1.144c0.219,-0.3 0.456,-0.534 0.729,-0.785c0.584,-0.043 0.789,0.158 1.27,0.438c0.852,0.575 1.727,1.117 2.683,1.506c0.215,0.242 0.339,0.254 0.311,0.595c-0.067,0.841 -2.966,6.946 -3.639,7.456c-0.19,0.144 -0.396,0.214 -0.618,0.294l-0.4,-0.729c0.027,-0.457 0.021,-0.852 -0.051,-1.305c-1.039,-1.317 -3.657,-2.189 -5.194,-2.907c-0.499,0.297 -1.096,0.581 -1.498,1.002c-0.68,-0.534 -1.98,-0.921 -2.409,-1.665c-0.208,-0.36 -0.148,-0.449 -0.03,-0.84c-0.197,-0.135 -0.498,-0.198 -0.726,-0.277c0.273,-1.089 0.89,-2.159 1.367,-3.175l0.932,0.335Z" style="fill:#fefefe;fill-rule:nonzero;"/><path d="M206.7,161.594c0.615,0.431 1.239,0.816 1.889,1.191c0.442,0.738 1.147,2.085 0.874,2.978c-0.102,0.333 -0.276,0.51 -0.598,0.643c-0.6,0.247 -1.478,-0.088 -2.039,-0.345c-0.821,-0.378 -1.823,-0.838 -2.139,-1.717c0.603,-0.667 1.922,-0.137 2.376,-0.712c-0.27,-0.435 -0.57,-0.721 -1.065,-0.894c0.342,-0.387 0.665,-0.611 0.702,-1.144Z" style="fill:#243d74;fill-rule:nonzero;"/><path d="M199.427,161.537c0.593,-0.558 1.315,-1.304 2.103,-1.572c0.398,-0.135 0.475,-0.062 0.838,0.102l0.113,0.57l-0.031,0.192c-0.09,0.591 -0.1,0.888 0.185,1.431c0.244,0.465 0.609,0.974 0.531,1.511c-0.659,0.127 -2.586,-0.969 -3.191,-1.382c-0.316,-0.216 -0.454,-0.486 -0.548,-0.852Z" style="fill:#273563;fill-rule:nonzero;"/><path d="M197.854,164.654c1.437,0.158 2.679,0.827 3.937,1.503c-0.499,0.297 -1.096,0.581 -1.498,1.002c-0.68,-0.534 -1.98,-0.921 -2.409,-1.665c-0.208,-0.36 -0.148,-0.449 -0.03,-0.84Z" style="fill:#273563;fill-rule:nonzero;"/><path d="M205.944,158.738c0.567,-0.202 1.293,-0.4 1.788,-0.741c0.996,-0.686 2.673,-3.4 4.029,-2.801c0.546,0.241 1.009,0.932 1.22,1.481c0.185,0.482 0.071,0.72 -0.104,1.161c-1.407,1.403 -3.492,1.008 -5.25,1.316c0.285,0.573 0.501,0.874 1.046,1.217c1.282,0.461 2.563,0.958 3.872,1.337c-0.387,0.326 -0.85,0.648 -1.163,1.045c-0.956,-0.389 -1.831,-0.931 -2.683,-1.506c-0.481,-0.28 -0.686,-0.481 -1.27,-0.438c-0.273,0.251 -0.51,0.485 -0.729,0.785c-0.037,0.533 -0.36,0.757 -0.702,1.144c-1.219,-0.541 -2.283,-1.512 -3.517,-2.101l-0.113,-0.57c-0.363,-0.164 -0.44,-0.237 -0.838,-0.102c-0.788,0.268 -1.51,1.014 -2.103,1.572l-0.932,-0.335c0.381,-0.859 1.212,-3.253 2.047,-3.648c0.26,-0.124 0.629,0.086 0.898,0.173c0.115,-0.311 0.342,-0.539 0.549,-0.794l1.296,1.105c0.415,0.472 0.823,0.623 1.444,0.667c0.404,0.027 0.81,0.031 1.215,0.033Z" style="fill:#243d74;fill-rule:nonzero;"/><path d="M198.495,161.202c0.381,-0.859 1.212,-3.253 2.047,-3.648c0.26,-0.124 0.629,0.086 0.898,0.173c0.031,0.029 0.063,0.059 0.094,0.088c0.85,0.764 2.112,1.165 2.823,2.039l-0.137,0.366c-0.595,0.222 -1.273,0.078 -1.852,-0.153c-0.363,-0.164 -0.44,-0.237 -0.838,-0.102c-0.788,0.268 -1.51,1.014 -2.103,1.572l-0.932,-0.335Z" style="fill:#fefefe;fill-rule:nonzero;"/><path d="M207.502,152.623l0.765,0.26c-1.774,0.996 -2.563,2.901 -4.48,3.81c-0.585,-0.454 -1.164,-1.201 -1.345,-1.921c0.034,-0.209 0.035,-0.521 0.158,-0.691c0.975,-1.356 3.421,-1.201 4.902,-1.458Z" style="fill:#243d74;fill-rule:nonzero;"/><path d="M55.88,186.182c0.753,-0.171 1.351,-0.048 1.999,0.382c1.173,0.779 1.68,2.231 2.697,3.155c2.052,1.864 4.745,2.896 6.641,5.034c-0.584,1.212 -1.241,2.248 -2.172,3.225c-0.136,1.076 -2.259,1.546 -2.234,2.996c-0.343,1.561 -1.798,3.279 -2.652,4.656c-2.079,-1.979 -4.782,-3.539 -6.603,-5.722l-0.07,-0.311c-0.384,-0.273 -0.713,-0.547 -1.038,-0.89l-0.095,-0.101c-0.442,-0.289 -1.18,-0.376 -1.7,-0.508c-1.166,-0.999 -2.104,-2.547 -3.11,-3.729c0.826,-1.017 2.52,-3.279 3.814,-3.453c0.291,-0.271 0.651,-0.396 1.011,-0.561c0.408,-1.956 2.038,-3.015 3.512,-4.173Z" style="fill:#fefefe;fill-rule:nonzero;"/><path d="M56.978,193.166c-0.03,-0.036 -0.06,-0.069 -0.089,-0.105c-0.817,-0.991 -1.604,-2.368 -1.453,-3.687c0.073,-0.635 0.312,-1.022 0.79,-1.429c0.458,-0.127 0.673,-0.18 1.133,0.035c0.526,0.248 0.716,1.018 0.895,1.525c-0.3,0.988 -0.491,2.014 -0.708,3.023l0.113,0.683c0.399,0.64 1.018,0.594 1.644,0.951c-0.975,1.44 -3.077,5.135 -4.889,5.514c-0.142,0.029 -0.287,0.047 -0.431,0.067c-0.184,0.027 -0.275,0.061 -0.427,0.165l-0.07,-0.311c-0.384,-0.273 -0.713,-0.547 -1.038,-0.89l-0.095,-0.101c1.337,-0.256 2.475,-1.492 3.314,-2.513c0.697,-0.851 1.432,-1.768 1.311,-2.927Z" style="fill:#243d74;fill-rule:nonzero;"/><path d="M50.986,192.544c0.818,-0.276 0.89,-0.026 1.692,0.172c0.696,0.769 1.029,2.052 1.403,3.012c-0.333,0.278 -0.671,0.548 -1.016,0.81c-0.407,0.306 -0.955,0.588 -1.484,0.457c-0.395,-0.097 -0.621,-0.31 -0.812,-0.655c-0.672,-1.218 -0.189,-2.592 0.217,-3.796Z" style="fill:#243d74;fill-rule:nonzero;"/><path d="M62.79,197.811c0.297,-0.505 0.675,-1.011 0.721,-1.606l-0.23,-0.255c-0.621,0.186 -1.356,0.792 -1.968,0.784l-0.266,-0.223c-0.048,-0.794 0.609,-1.635 1.123,-2.204c0.436,-0.482 0.82,-0.735 1.469,-0.802c0.45,0.204 0.65,0.29 0.855,0.78c0.461,1.098 -0.049,2.822 -0.279,3.923c-0.385,-0.434 -0.862,-0.343 -1.425,-0.397Z" style="fill:#273563;fill-rule:nonzero;"/><path d="M61.329,201.494c-0.221,0.226 -0.441,0.427 -0.714,0.59c-0.591,0.353 -1.608,0.358 -2.268,0.142c-0.523,-0.171 -0.623,-0.318 -0.876,-0.767c0.012,-0.511 0.12,-0.781 0.408,-1.204c0.456,-0.671 1.494,-2.301 2.346,-2.46l0.123,0.293c-0.046,0.463 -0.099,0.792 -0.365,1.184c-0.221,0.326 -0.369,0.616 -0.511,0.983c0.078,0.616 0.135,0.701 0.531,1.185c0.609,0.234 0.75,0.007 1.326,0.054Z" style="fill:#243d74;fill-rule:nonzero;"/><path d="M62.79,197.811c0.563,0.054 1.04,-0.037 1.425,0.397c0.321,0.072 0.536,-0.1 0.83,-0.23c-0.136,1.076 -2.259,1.546 -2.234,2.996c-0.495,0.169 -0.995,0.331 -1.482,0.52c-0.576,-0.047 -0.717,0.18 -1.326,-0.054c1.173,-0.894 1.697,-2.577 2.787,-3.629Z" style="fill:#243d74;fill-rule:nonzero;"/><path d="M57.659,193.211c0.948,-0.801 1.932,-2.005 3.05,-2.514l0.284,0.087c0.12,1.214 -0.981,2.481 -1.69,3.378c-0.626,-0.357 -1.245,-0.311 -1.644,-0.951Z" style="fill:url(#_Linear3);fill-rule:nonzero;"/><path d="M52.368,190.355c0.067,0.789 0.098,1.595 0.31,2.361c-0.802,-0.198 -0.874,-0.448 -1.692,-0.172c0.186,-0.527 0.269,-1.08 0.371,-1.628c0.291,-0.271 0.651,-0.396 1.011,-0.561Z" style="fill:#273563;fill-rule:nonzero;"/><path d="M174.417,37.614c-1.162,-0.519 -2.148,-0.941 -2.96,-1.955l0.06,-0.311c1.561,-0.603 5.208,0.477 6.866,0.912c0.654,0.173 1.227,0.498 1.909,0.543c0.357,-0.243 0.368,-0.227 0.481,-0.641c-0.377,-0.719 -1.35,-0.995 -2.071,-1.25c-2.452,-0.866 -4.945,-1.269 -7.534,-1.402c-1.171,-0.061 -2.449,-0.014 -3.6,-0.229c-0.566,-0.106 -1.023,-0.284 -1.425,-0.712c-0.153,-0.529 -0.111,-0.54 0.093,-1.021c1.947,-1.809 4.382,0.506 6.621,0.153c1.132,-0.179 1.279,-1.256 1.844,-2.062c0.355,-0.506 0.688,-0.679 1.288,-0.796c0.922,-0.181 1.757,-0.725 2.697,-0.731c0.477,0.296 0.453,0.404 0.636,0.915c0.29,0.63 0.548,0.843 1.184,1.161c0.521,-0.291 0.566,-0.363 1.146,-0.266c0.662,0.515 0.905,1.493 1.018,2.304c0.036,0.259 -0.005,0.47 -0.064,0.722c-0.587,0.482 -1.403,0.137 -1.9,0.654c0.878,1.06 2.906,1.409 2.78,3.124c-0.049,0.676 -0.426,1.334 -0.946,1.761c-0.405,0.332 -0.785,0.438 -1.299,0.447c-0.37,-0.244 -0.557,-0.493 -1.017,-0.388c-1.568,0.358 -3.305,1.339 -4.834,1.936l-0.094,0.265c1.077,1.115 4.206,2.042 4.104,3.899c-0.024,0.42 -0.354,0.837 -0.68,1.077c-0.198,0.145 -0.308,0.256 -0.557,0.215c-0.669,-0.108 -1.55,-1.181 -2.159,-1.578c-0.536,-0.351 -1.161,-0.614 -1.741,-0.884c-1.22,2.147 -2.864,4.254 -5.367,4.932c-0.788,0.213 -1.679,0.21 -2.405,-0.202c-0.853,-0.486 -1.337,-1.4 -1.543,-2.332c-0.291,-1.308 -0.401,-4.023 0.083,-5.242c0.27,-0.074 0.284,-0.104 0.572,-0.033c0.468,1.231 1.06,2.911 2.131,3.74c0.409,0.317 0.894,0.454 1.408,0.366c1.051,-0.181 1.723,-1.28 2.321,-2.061c-1.372,-1.014 -3.038,-1.785 -4.544,-2.59c-1.534,-1.13 -3.005,-2.29 -4.301,-3.692c3.271,0.333 6.36,2.014 9.322,3.357c0.649,-0.809 1.664,-1.467 2.477,-2.105Z" style="fill:#fefefe;fill-rule:nonzero;"/><path d="M179.322,29.027c0.29,0.63 0.548,0.843 1.184,1.161c-0.47,0.795 -0.911,2.668 -1.025,2.828c-0.166,0.232 -0.378,0.202 -0.645,0.252c-0.717,-0.193 -1.19,-0.499 -1.788,-0.922c0.168,-0.555 1.619,-1.291 2.274,-3.319Z" style="fill:#273563;fill-rule:nonzero;"/><path d="M24.708,70.617c0.349,-1.566 0.708,-4.432 2.072,-5.448c0.457,-0.34 0.76,-0.286 1.293,-0.25c0.75,0.814 1.301,4.735 1.722,6.019c0.252,0.768 0.638,1.472 1.035,2.173c0.15,-1.078 0.104,-2.555 1.004,-3.276c1.836,0.385 0.549,3.712 1.451,4.914c0.036,0.048 0.076,0.093 0.114,0.14c1.453,1.836 3.703,3.629 5.612,5.007c0.736,0.531 1.64,1.016 2.307,1.619c0.043,0.039 0.175,0.18 0.206,0.198c0.065,0.042 0.141,0.062 0.212,0.093l-0.238,0.266c-2.159,0.34 -5.806,-1.49 -7.872,-2.289c-0.566,0.105 -0.815,1.411 -1.342,1.868c-0.417,0.362 -0.925,0.314 -1.442,0.288c-0.247,-0.311 -0.36,-0.36 -0.29,-0.778c0.115,-0.681 0.83,-1.521 1.229,-2.085c-0.96,-0.441 -2.061,-1.097 -3.126,-1.152c-0.364,0.153 -0.485,0.146 -0.631,0.541c-0.274,0.743 0.19,2.123 0.363,2.899c0.797,0.439 1.676,0.85 2.378,1.43c-0.003,0.564 -0.386,1.493 -0.732,1.936c-0.45,0.576 -1.287,0.748 -1.98,0.787c-1.747,0.1 -3.776,-0.481 -5.069,-1.692c-0.372,-0.35 -0.7,-0.73 -0.71,-1.26c1.013,-0.772 2.348,0.683 3.45,0.454c0.438,-0.091 0.486,-0.265 0.72,-0.598c0.359,-2.056 -1.275,-4.776 -1.701,-6.861c-0.777,-0.499 -1.605,-1.08 -2.469,-1.411c-1.257,-0.482 -2.956,-0.368 -4.011,-1.235c-0.403,-0.645 -0.294,-1.359 -0.274,-2.094c1.448,-0.258 2.133,-0.585 3.214,-1.593c1.334,0.29 2.331,0.674 3.505,1.39Z" style="fill:#fefefe;fill-rule:nonzero;"/><path d="M26.445,69.035c0.259,0.075 0.516,0.196 0.712,0.385c0.862,0.83 1.091,1.898 1.124,3.047c-0.558,-0.23 -1.13,-0.547 -1.508,-1.03c-0.583,-0.744 -0.459,-1.541 -0.328,-2.402Z" style="fill:#273563;fill-rule:nonzero;"/><path d="M119.04,210.979c0.878,-0.113 1.775,-0.309 2.641,-0.053c0.216,0.174 0.35,0.273 0.449,0.537l0.041,-0.321c0.748,-0.362 3.301,-0.277 4.103,-0.054c-0.43,0.702 -0.989,1.538 -1.156,2.353c-0.323,1.576 -0.019,6.544 0.382,8.195c0.219,0.9 0.715,1.781 1.12,2.61c-1.788,-0.008 -3.577,0 -5.365,-0.027c0.213,-0.464 1.441,-2.583 1.363,-2.876c-0.482,-1.793 0.662,-4.502 0.119,-5.827l-0.235,0.028c-1.037,2.12 -0.914,6.543 -2.032,8.224l-0.49,0.161c-0.399,0.18 -0.604,0.231 -1.039,0.173c-1.341,0.059 -2.683,0.077 -4.025,0.055c-0.402,-0.633 0.236,-1.154 0.625,-1.635c0.177,-0.218 0.415,-0.514 0.481,-0.793c0.192,-0.828 -0.292,-3.467 -0.32,-4.494c-0.04,-1.464 0.35,-2.906 0.451,-4.368c-0.239,-0.516 -0.602,-0.454 -1.097,-0.685c-0.318,-0.148 -0.281,-0.243 -0.401,-0.578l0.188,-0.366c0.922,-0.527 3.073,-0.246 4.197,-0.259Z" style="fill:#fefefe;fill-rule:nonzero;"/><path d="M119.04,210.979c0.878,-0.113 1.775,-0.309 2.641,-0.053c0.216,0.174 0.35,0.273 0.449,0.537c-0.599,1.581 -0.494,3.667 -1.478,5.072l-0.205,-0.033c-0.77,-1.66 -1.113,-3.721 -1.407,-5.523Z" style="fill:#243d74;fill-rule:nonzero;"/><path d="M118.941,224.102c-1.589,-3.086 -1.577,-5.616 -1.175,-9.009c0.165,1.517 0.432,3.015 0.803,4.494c0.371,1.48 0.841,2.927 1.411,4.342c-0.399,0.18 -0.604,0.231 -1.039,0.173Z" style="fill:#273563;fill-rule:nonzero;"/><path d="M209.295,67.583c0.072,-0.015 0.191,-0.04 0.27,-0.048c0.537,-0.054 1.146,-0.042 1.573,0.276l-0.045,0.386c-0.364,0.664 -1.015,0.922 -1.66,1.25c1.754,1.289 5.159,2.833 5.859,4.972c0.123,0.372 0.132,0.787 -0.061,1.138c-0.578,1.051 -2.144,1.286 -3.199,1.549c-2.011,-1.09 -4.088,-2.182 -6.139,-3.196c-0.396,-0.196 -0.857,-0.484 -1.285,-0.346c0.737,1.373 3.294,1.827 3.765,3.298c0.088,0.274 0.039,0.251 -0.08,0.479c-0.255,0.19 -0.546,0.25 -0.855,0.294c-0.747,0.106 -1.202,-0.252 -1.777,-0.665c-0.2,-0.144 -0.245,-0.192 -0.488,-0.164c-0.114,0.013 -4.623,1.914 -4.768,2.028c-0.107,0.083 -0.232,0.32 -0.317,0.438c-0.006,0.509 0.163,0.761 0.43,1.184c0.22,0.442 0.412,0.754 0.764,1.104c0.862,0.343 2.023,-0.007 2.928,-0.135c-0.758,1.103 -1.596,3.234 -2.907,3.662c-0.903,-0.539 -1.348,-2.276 -1.977,-3.156c-0.513,-0.718 -1.347,-1.346 -2.011,-1.929c1.186,-1.487 2.322,-2.469 3.907,-3.482c-1.704,-0.484 -2.789,-0.98 -4.106,-2.185c1.89,-0.926 2.753,-0.989 4.882,-0.747c0.538,-0.313 0.316,-0.916 0.823,-1.412c0.93,-0.391 2.184,-0.155 3.174,-0.087c0.231,-0.363 0.175,-0.523 0.162,-0.945c-0.373,-0.426 -0.753,-0.402 -1.287,-0.505c-0.32,-0.265 -0.413,-0.275 -0.439,-0.713c-0.024,-0.408 0.148,-0.83 0.419,-1.131c1.007,-1.122 3.053,-1.121 4.445,-1.212Z" style="fill:#fefefe;fill-rule:nonzero;"/><path d="M207.313,70.78c1.584,0.197 4.265,1.795 5.33,2.995c0.514,0.579 0.426,1.008 0.399,1.716c-1.499,0.278 -3.411,-1.231 -4.62,-1.995c-0.446,-0.866 -0.974,-1.74 -1.109,-2.716Z" style="fill:#243d74;fill-rule:nonzero;"/><path d="M121.872,13.541c-0.366,-0.498 -1.297,-1.511 -1.318,-2.098c0.344,-0.372 0.384,-0.45 0.896,-0.577c0.304,0.113 1.34,0.741 1.494,0.655c0.212,-0.118 0.285,-0.222 0.432,-0.401c0.596,-0.729 1.023,-1.172 1.862,-1.597c0.153,-0.077 0.3,-0.156 0.456,-0.229l1.536,1.354c0.063,1.897 0.144,3.86 -0.032,5.75c0.704,0.898 1.403,1.778 1.987,2.762c-0.701,0.551 -1.382,1.124 -2.177,1.538c-0.221,3.479 -1.284,9.928 -2.698,13.101c-0.807,-3.976 -0.455,-8.272 -0.603,-12.321c-1.126,0.727 -2.891,2.241 -4.272,2.091c-0.417,-0.341 -0.446,-0.392 -0.483,-0.921c-0.013,-0.179 -0.009,-0.26 -0.008,-0.428c0.442,-1.589 1.206,-2.738 2.362,-3.901c-0.19,-0.682 -0.448,-1.32 -0.718,-1.973c0.021,-1.265 0.516,-1.855 1.284,-2.805Z" style="fill:#fefefe;fill-rule:nonzero;"/><path d="M146.615,206.032c1.24,-0.054 2.013,0.172 3.019,0.913c2,1.475 3.313,3.985 3.644,6.423c0.219,1.612 0.163,3.475 -0.887,4.81c-0.747,0.95 -1.59,1.178 -2.719,1.329c-0.497,-0.001 -1.04,-0.034 -1.514,-0.201c-1.778,-0.628 -3.15,-2.275 -3.955,-3.922c-0.907,-1.857 -1.415,-4.254 -0.704,-6.258c0.573,-1.612 1.626,-2.364 3.116,-3.094Z" style="fill:#fefefe;fill-rule:nonzero;"/><path d="M146.394,207.647c0.299,0.04 0.599,0.09 0.873,0.223c1.549,0.752 2.478,2.818 3,4.349c0.698,2.04 1.114,4.071 0.123,6.068c-0.36,-0.082 -0.693,-0.18 -1.001,-0.392c-2.02,-1.39 -3.208,-4.881 -3.587,-7.173c-0.218,-1.314 -0.197,-1.979 0.592,-3.075Z" style="fill:#gray;fill-rule:nonzero;"/><path d="M109.452,20.131c-0.135,-0.162 -0.237,-0.371 -0.347,-0.553c-0.265,-2.137 4.306,-5.918 5.615,-7.876c0.549,-0.822 0.558,-1.644 0.975,-2.495c0.399,-0.273 0.595,-0.429 1.109,-0.368c0.557,0.066 1.254,0.452 1.546,0.939c0.167,0.278 0.256,0.582 0.133,0.906c-0.064,0.166 -1.3,0.961 -1.528,1.155c-0.942,0.802 -4.36,4.301 -4.573,5.368c-0.06,0.303 0.02,0.314 0.172,0.558c0.6,0.233 1.307,0.197 1.929,0.043c1.092,-0.27 1.529,-1.373 2.046,-2.267c0.991,0.361 2.073,0.672 2.938,1.287c0.355,-0.065 0.788,-0.327 1.121,-0.482c0.27,0.653 0.528,1.291 0.718,1.973c-1.156,1.163 -1.92,2.312 -2.362,3.901l-0.16,-0.304c-0.431,0.014 -0.851,0.001 -1.283,-0.026c-0.411,1.614 0.832,4.196 -0.081,5.592c-0.201,0.308 -0.342,0.297 -0.677,0.374c-0.181,-0.063 -0.519,-0.129 -0.668,-0.232c-0.445,-0.307 -1.281,-2.947 -1.598,-3.557c-0.521,0.638 -1.05,1.355 -1.659,1.909c-0.538,0.489 -1.059,0.816 -1.799,0.785c-0.416,-0.324 -0.556,-0.474 -0.673,-1.023c-0.167,-0.779 -0.14,-2.424 0.312,-3.067c0.573,-0.266 1.055,-0.463 1.44,-0.992c0.025,-0.035 0.048,-0.071 0.072,-0.106c-0.967,-0.405 -1.9,-0.765 -2.718,-1.442Z" style="fill:#fefefe;fill-rule:nonzero;"/><path d="M119.467,16.828c0.355,-0.065 0.788,-0.327 1.121,-0.482c0.27,0.653 0.528,1.291 0.718,1.973c-1.156,1.163 -1.92,2.312 -2.362,3.901l-0.16,-0.304c-0.431,0.014 -0.851,0.001 -1.283,-0.026c0.368,-0.927 0.891,-1.798 1.12,-2.776l-0.229,-0.141c-0.51,0.193 -1.005,0.315 -1.539,0.42l-0.131,-0.153c0.575,-1.005 1.818,-1.746 2.745,-2.412Z" style="fill:#273563;fill-rule:nonzero;"/><path d="M110.266,20.032c1.167,-0.24 3.079,-0.764 4.154,-0.078c0.291,0.186 0.357,0.413 0.51,0.712c0.037,0.734 -0.138,1.292 -0.636,1.844c-0.231,0.257 -0.291,0.262 -0.625,0.346c-0.427,-0.697 -0.063,-1.341 -0.55,-2.08c-0.316,0.254 -0.673,0.501 -0.949,0.797c-0.967,-0.405 -1.9,-0.765 -2.718,-1.442l0.814,-0.099Z" style="fill:#273563;fill-rule:nonzero;"/><path d="M109.452,20.131l0.814,-0.099c1.183,0.022 1.869,0.017 2.853,0.744c-0.316,0.254 -0.673,0.501 -0.949,0.797c-0.967,-0.405 -1.9,-0.765 -2.718,-1.442Z" style="fill:#243d74;fill-rule:nonzero;"/><path d="M96.202,208.523l4.384,-0.042c1.275,0.777 2.462,1.5 3.362,2.718c1.105,1.497 1.251,3.228 0.964,5.019c-0.452,2.811 -1.72,4.503 -3.955,6.138c-1.406,0.048 -2.32,-0.416 -3.647,-0.638c-0.872,-0.145 -2.725,0.049 -3.386,-0.55c0.398,-0.328 0.785,-0.664 1.173,-1.002c1.284,-1.119 2.131,-7.429 2.568,-9.422c-0.626,-0.66 -1.304,-1.29 -1.463,-2.221Z" style="fill:#fefefe;fill-rule:nonzero;"/><path d="M100.432,210.394c0.753,0.243 1.56,0.639 1.922,1.381c1.167,2.388 -0.73,6.625 -1.572,8.945l-2.523,-0.041c0.27,-3.446 1.192,-6.981 2.173,-10.285Z" style="fill:#243d74;fill-rule:nonzero;"/><path d="M104.529,223.286c0.795,-1.255 1.383,-2.287 1.727,-3.752c0.337,-1.435 0.948,-5.996 0.679,-7.396c-0.102,-0.528 -0.571,-1.152 -0.855,-1.61l0.108,-0.166c2.689,-0.266 5.625,-0.053 8.325,0.115c-0.011,0.039 -0.02,0.078 -0.032,0.117c-0.548,1.821 -0.054,3.806 -0.758,5.518c-0.491,-0.05 -0.76,-0.021 -1.202,0.204c-0.27,0.324 -0.488,0.641 -0.428,1.085c0.091,0.677 0.26,0.95 0.804,1.34c0.051,0.037 0.107,0.067 0.16,0.101c0.045,0.054 0.094,0.105 0.136,0.162c0.565,0.776 0.014,4.131 -0.177,5.123c-0.927,0.545 -1.451,-0.319 -2.293,-0.548c-1.829,-0.497 -4.283,-0.272 -6.194,-0.293Z" style="fill:#fefefe;fill-rule:nonzero;"/><path d="M111.681,213.947c-0.312,0.366 -0.631,0.726 -0.957,1.08c-0.388,0.414 -0.683,0.636 -1.265,0.651l-0.33,-0.321c-0.063,-0.336 -0.079,-0.627 -0.02,-0.967c0.148,-0.85 0.52,-1.708 1.238,-2.214c0.494,-0.107 0.766,-0.198 1.229,0.095c1.176,0.745 0.882,1.763 1.185,2.885c0.153,0.57 0.492,0.683 0.962,0.956c-0.491,-0.05 -0.76,-0.021 -1.202,0.204c-0.27,0.324 -0.488,0.641 -0.428,1.085c0.091,0.677 0.26,0.95 0.804,1.34c0.051,0.037 0.107,0.067 0.16,0.101c-0.563,0.498 -0.775,0.967 -1.061,1.645l-0.219,-0.393l-0.339,0.024c-0.029,-2.059 0.122,-4.118 0.243,-6.171Z" style="fill:#273563;fill-rule:nonzero;"/><path d="M108.657,222.225c0.02,-1.441 -0.052,-3.366 0.423,-4.729l0.456,-0.05c0.549,0.551 0.395,1.746 0.798,2.495c0.485,0.293 0.535,0.255 1.104,0.177l0.339,-0.024l0.219,0.393c-0.126,0.363 -0.26,0.848 -0.534,1.128c-0.632,0.645 -1.95,0.56 -2.805,0.61Z" style="fill:#gray;fill-rule:nonzero;"/><path d="M207.366,58.991c0.165,0.056 0.327,0.115 0.482,0.193c0.713,0.358 1.417,1.86 1.647,2.613c0.223,0.731 0.184,1.103 -0.154,1.751c-0.598,0.427 -1.421,0.336 -2.135,0.447c-0.728,0.674 -1.094,2.236 -1.719,3.147c-1.006,0.321 -1.971,0.705 -3.009,0.288c-0.454,-0.471 -0.467,-0.838 -0.609,-1.461l-0.359,-0.069c-1.215,0.514 -2.169,1.432 -3.187,2.252c-2.24,0.212 -4.112,0.74 -6.179,1.589c-0.539,-0.371 -0.984,-0.607 -1.207,-1.256c-0.027,-1.646 1.351,-3.185 2.227,-4.504c2.098,-0.387 7.368,-2.163 9.133,-1.541c0.858,0.302 0.996,1.847 1.31,2.607l0.331,0.106c0.284,-0.103 0.618,-0.21 0.876,-0.372c1.767,-1.115 0.839,-3.273 1.371,-4.86c0.158,-0.471 0.594,-0.644 1.008,-0.848c0.057,-0.028 0.116,-0.055 0.173,-0.082Z" style="fill:#fefefe;fill-rule:nonzero;"/><path d="M167.05,204.144c-0.775,-0.625 -1.411,-1.229 -1.893,-2.113c-0.586,-1.073 -1.027,-2.376 -0.631,-3.591c0.341,-1.048 1.21,-1.693 2.163,-2.144c0.454,0.035 0.842,0.047 1.292,-0.031c0.164,-0.335 0.337,-0.648 0.532,-0.967l0.392,0.072c1.153,0.937 1.861,2.615 2.548,3.921c-0.508,0.148 -0.596,0.19 -1.089,-0.066c-1.153,-0.601 -1.968,-1.556 -3.369,-1.572c-0.471,0.205 -0.693,0.3 -0.917,0.804c-0.217,0.489 -0.249,0.96 -0.139,1.473c0.371,0.482 0.587,0.696 1.23,0.797c1.602,0.252 3.205,-0.384 4.814,-0.268c1.996,1.419 2.695,3.106 3.254,5.426c-1.585,2.6 -3.205,2.35 -5.119,4.145c-1.14,-1.575 -2.631,-3.112 -3.056,-5.049l-0.012,-0.837Z" style="fill:#fefefe;fill-rule:nonzero;"/><path d="M167.05,204.144c0.512,0.063 1.068,0.149 1.582,0.102c1.278,-0.117 3.438,-1.074 4.442,0.154c0.369,0.451 0.453,0.991 0.417,1.553c-0.379,0.929 -1.186,1.218 -2.038,1.607c-1.031,-0.501 -2.955,-2.589 -3.741,-2.71c-0.14,-0.021 -0.496,0.1 -0.65,0.131l-0.012,-0.837Z" style="fill:#243d74;fill-rule:nonzero;"/><path d="M65.93,208.994c0.708,-0.322 1.462,-0.639 2.075,-1.126c1.832,-1.454 6.946,-7.952 8.677,-8.314c0.665,1.067 -1.064,7.709 -1.256,9.304c-0.213,1.764 -0.09,3.545 -0.442,5.295c-1.184,-0.387 -3.529,-1.192 -4.313,-2.159c-0.225,-0.297 -0.268,-0.278 -0.636,-0.372c-1.511,-0.619 -2.842,-1.608 -4.105,-2.628Z" style="fill:#fefefe;fill-rule:nonzero;"/><path d="M70.035,211.622c0.003,-0.044 0.009,-0.088 0.009,-0.132c0.036,-1.277 -1.248,-2.278 -0.458,-3.427c0.546,-0.311 1.038,-0.428 1.661,-0.264c0.481,0.126 0.951,0.387 1.19,0.84c0.233,0.442 0.218,0.937 0.034,1.394c-0.336,0.836 -1.122,1.406 -1.8,1.961c-0.225,-0.297 -0.268,-0.278 -0.636,-0.372Z" style="fill:#243d74;fill-rule:nonzero;"/><path d="M157.202,208.884c0.301,1.183 1.339,4.504 2.327,5.147c0.506,0.329 0.962,0.089 1.27,0.713l-0.208,0.37c-0.982,0.641 -1.979,1.179 -3.146,1.392c-0.638,0.117 -1.057,0.089 -1.59,-0.278l0.004,-0.341c0.225,-0.243 0.448,-0.487 0.695,-0.708l0.162,-0.143c0.001,-0.07 0.006,-0.139 0.004,-0.208c-0.012,-0.38 -3.336,-8.017 -3.642,-8.375c-0.357,-0.416 -1.166,-0.523 -1.624,-0.907l0.021,-0.404c1.09,-1.196 5.627,-2.728 7.27,-3.164c0.615,1.04 2.131,2.568 2.076,3.809c-0.025,0.543 -0.282,0.697 -0.651,1.029c-0.327,0.4 -0.552,0.694 -0.699,1.193c0.069,0.238 0.174,0.449 0.276,0.676c0.356,0.786 1.003,1.956 0.68,2.814c-1.271,-0.564 -2.216,-1.688 -3.225,-2.615Z" style="fill:#fefefe;fill-rule:nonzero;"/><path d="M155.348,204.378c0.935,-0.043 1.877,-0.006 2.813,0.008c0.785,0.694 1.253,1.681 2.009,2.43c-0.327,0.4 -0.552,0.694 -0.699,1.193c-0.334,-0.743 -0.727,-2.101 -1.41,-2.548c-1.049,0.315 -0.159,2.065 -0.777,2.862l-0.378,-0.001c-0.731,-0.687 -1.191,-2.913 -1.558,-3.944Z" style="fill:#243d74;fill-rule:nonzero;"/><path d="M84.135,217.76c0.749,-0.585 1.445,-1.168 2.045,-1.91c1.471,-1.817 4.939,-8.317 6.379,-9.096c0.268,0.035 0.417,-0.015 0.603,0.203c0.297,0.352 0.312,1.008 0.327,1.453c0.068,1.91 -0.167,3.851 -0.225,5.762c-0.069,2.295 0.06,4.561 0.248,6.846c-1.295,-0.462 -3.095,-0.884 -4.229,-1.638c-0.303,-0.168 -0.712,-0.112 -1.056,-0.117c-1.465,-0.319 -2.707,-0.975 -4.092,-1.503Z" style="fill:#fefefe;fill-rule:nonzero;"/><path d="M88.227,219.263c-0.001,-0.046 -0,-0.092 -0.003,-0.138c-0.05,-1.154 -1.058,-2.237 -0.588,-3.363c0.849,-0.486 2.127,-0.078 3.027,0.107c0.015,0.994 0.172,2.009 -0.584,2.773c-0.097,0.099 -0.203,0.188 -0.305,0.282c-0.165,0.151 -0.326,0.306 -0.491,0.456c-0.303,-0.168 -0.712,-0.112 -1.056,-0.117Z" style="fill:#273563;fill-rule:nonzero;"/><path d="M193.979,171.389c0.009,-0.377 0.015,-0.768 0.082,-1.14c0.141,-0.782 0.53,-1.872 1.2,-2.315c0.08,0.38 -0.278,0.475 -0.089,1.036c0.898,2.612 3.774,4.537 6.187,5.692c0.644,0.309 1.675,0.774 2.383,0.467c0.453,-0.197 0.708,-0.564 0.853,-1.027c0.219,-0.696 0.193,-1.794 -0.198,-2.428c-0.361,-0.586 -1.133,-1.037 -1.216,-1.736c0.264,-0.139 0.261,-0.156 0.552,-0.072c0.914,0.264 1.602,0.974 2.032,1.798c0.231,0.441 0.421,0.899 0.57,1.373c-0.049,1.203 -0.252,2.303 -1.21,3.145c-0.968,0.85 -2.434,0.921 -3.652,0.797c-1.058,-0.108 -2.067,-0.412 -3.056,-0.791c-0.592,0.152 -0.795,0.102 -1.344,-0.229c-0.181,-0.109 -0.357,-0.227 -0.534,-0.343l-0.327,0.257c0.048,0.464 0.254,0.71 0.529,1.076l0.005,0.359l0.233,0.3l-0.579,0.7c-1.173,-0.746 -2.146,-1.921 -3.426,-2.492c-0.8,-0.356 -1.755,-0.127 -2.508,-0.566c0.022,-0.094 0.047,-0.227 0.085,-0.321c0.347,-0.859 1.784,-2.667 2.615,-3.009c0.034,-0.435 0.355,-0.93 0.544,-1.32l0.269,0.789Z" style="fill:#fefefe;fill-rule:nonzero;"/><path d="M196.4,178.308c-1.173,-0.746 -2.146,-1.921 -3.426,-2.492c-0.8,-0.356 -1.755,-0.127 -2.508,-0.566c0.022,-0.094 0.047,-0.227 0.085,-0.321c0.347,-0.859 1.784,-2.667 2.615,-3.009c0.55,2.502 1.684,3.75 3.58,5.388l0.233,0.3l-0.579,0.7Z" style="fill:#fefefe;fill-rule:nonzero;"/><path d="M193.71,170.6l0.269,0.789c0.438,1.779 2.155,3.462 3.682,4.372c0.249,0.148 0.501,0.29 0.756,0.427c-0.592,0.152 -0.795,0.102 -1.344,-0.229c-0.181,-0.109 -0.357,-0.227 -0.534,-0.343l-0.327,0.257c0.048,0.464 0.254,0.71 0.529,1.076l0.005,0.359c-1.896,-1.638 -3.03,-2.886 -3.58,-5.388c0.034,-0.435 0.355,-0.93 0.544,-1.32Z" style="fill:#273563;fill-rule:nonzero;"/><path d="M31.146,150.773c0.15,-0.017 0.299,-0.03 0.45,-0.039l0.191,-0.008c0.435,-0.021 0.754,0.035 1.158,0.189c5.635,2.15 2.474,2.11 4.421,6.56c-0.174,0.122 -0.352,0.236 -0.53,0.352c-1.482,0.971 -3.265,0.959 -4.98,1.118c1.178,-0.991 2.486,-1.881 3.138,-3.327c0.225,-0.499 0.282,-0.897 0.082,-1.411c-0.102,-0.26 -0.455,-0.509 -0.707,-0.603c-1.989,-0.75 -4.966,0.797 -6.741,1.675c-0.836,0.521 -1.63,1.23 -2.255,1.991c-0.311,0.379 -0.354,0.609 -0.29,1.079c0.943,1.304 3.681,0.635 4.994,1.404l0.063,0.353c-0.085,0.142 -0.169,0.298 -0.29,0.414c-1.26,1.214 -3.01,0.29 -4.408,0.024c-0.679,-0.129 -1.442,-0.069 -2.132,-0.057c0.013,-1.64 0.016,-3.281 0.01,-4.921c2.28,-2.279 4.755,-3.79 7.826,-4.793Z" style="fill:#fefefe;fill-rule:nonzero;"/><path d="M131.686,210.488c1.157,-0.693 2.931,-0.508 4.245,-0.516c-0.341,0.655 -0.684,1.317 -0.978,1.995c-1.329,3.066 -2.181,6.034 -0.9,9.269c0.312,0.168 0.584,0.176 0.929,0.198c0.232,0.015 0.243,0.113 0.393,0.28c0.064,0.515 0.093,0.533 -0.195,1.002c-1.283,0.876 -4.089,0.601 -5.649,0.632c0.484,-0.643 1.065,-1.2 1.629,-1.771c0.072,-4.264 -2.259,-7.495 -4.84,-10.678c1.701,-0.084 3.42,-0.582 5.11,-0.525l0.256,0.114Z" style="fill:#fefefe;fill-rule:nonzero;"/><path d="M131.43,210.374l0.256,0.114c0.32,0.844 0.749,1.012 1.496,1.467c0.273,0.993 -0.291,2.422 -0.541,3.423c-0.493,-0.632 -1.051,-1.353 -1.397,-2.074c-0.515,-1.073 -0.204,-1.897 0.186,-2.93Z" style="fill:#273563;fill-rule:nonzero;"/><path d="M83.399,204.969c-2.241,2.132 -3.989,4.937 -4.091,8.102c-0.021,0.654 0.033,1.221 0.396,1.786c0.309,0.19 0.514,0.246 0.882,0.161c1.549,-0.361 2.52,-2.352 4.026,-2.457l0.263,0.168c-0.17,1.026 -1.364,2.263 -2.195,2.848c-0.834,0.587 -1.919,1.117 -2.964,0.917c-0.822,-0.158 -1.427,-0.77 -1.851,-1.458c-1.024,-1.659 -1.142,-3.474 -0.66,-5.332c0.561,-2.169 1.882,-4.543 3.873,-5.7c0.869,-0.506 2.048,-0.844 3.047,-0.566c1.312,0.366 2.484,1.821 3.702,2.499c-0.467,1.086 -1.203,3.567 -2.12,4.275l-0.256,-0.143c-0.284,-1.105 -0.127,-2.177 -0.023,-3.296c-0.135,-0.556 -0.284,-0.965 -0.602,-1.442c-0.487,-0.359 -0.835,-0.368 -1.427,-0.362Z" style="fill:#fefefe;fill-rule:nonzero;"/><path d="M172.053,193.083c0.597,-0.156 0.906,-0.294 1.515,-0.127l0.171,0.172c-0.03,0.425 -0.051,0.883 0.037,1.301c0.615,2.895 3.734,5.844 6.161,7.305c3.478,-3.177 0.447,-2.988 1.246,-5.461l0.392,-0.115c0.192,0.071 0.417,0.109 0.561,0.26c1.059,1.112 1.009,2.943 0.949,4.361c-0.947,1.472 -1.84,2.125 -3.427,2.852c-1.538,-0.448 -3.306,-1.113 -4.508,-2.208c-1.54,-1.404 -3.507,-4.583 -3.54,-6.736c-0.009,-0.593 0.004,-1.164 0.443,-1.604Z" style="fill:#fefefe;fill-rule:nonzero;"/><path d="M186.381,31.633c0.664,-0.026 1.31,0.745 1.779,1.16l-0.052,2.468c-1.11,0.371 -2.048,0.592 -3.227,0.553c-1.209,-0.524 -1.96,-1.405 -2.844,-2.338c1.663,-0.407 3.01,-0.695 4.344,-1.843Z" style="fill:#fefefe;fill-rule:nonzero;"/><path d="M172.053,193.083c1.299,-1.483 3.209,-2.106 4.418,-3.625l0.56,0.305c0.005,0.044 0.007,0.089 0.014,0.133c0.226,1.597 2.488,2.64 2.502,4.322c-0.174,0.089 -0.186,0.146 -0.384,0.085c-1.468,-0.456 -2.816,-2.636 -4.562,-1.887c-0.335,0.144 -0.611,0.454 -0.862,0.712l-0.171,-0.172c-0.609,-0.167 -0.918,-0.029 -1.515,0.127Z" style="fill:#fbf8f0;fill-rule:nonzero;"/><path d="M197.128,164.377c0.228,0.079 0.529,0.142 0.726,0.277c-0.118,0.391 -0.178,0.48 0.03,0.84c0.429,0.744 1.729,1.131 2.409,1.665c0.294,0.392 0.379,0.414 0.353,0.922c-1.84,0.677 -3.498,-1.922 -5.474,0.889c-0.189,-0.561 0.169,-0.656 0.089,-1.036c-0.67,0.443 -1.059,1.533 -1.2,2.315c-0.067,0.372 -0.073,0.763 -0.082,1.14l-0.269,-0.789c0.106,-0.947 0.298,-1.809 0.567,-2.722c1.299,-1.091 2.025,-2.019 2.851,-3.501Z" style="fill:#fbf8f0;fill-rule:nonzero;"/><path d="M215.325,66.611l0.395,0.123c0.54,0.523 0.876,1.656 0.976,2.396c0.094,0.691 0.048,1.228 -0.366,1.795c-0.507,0.245 -0.548,0.243 -1.102,0.135c-0.8,-0.64 -1.669,-1.131 -2.555,-1.638c1.14,-0.836 1.872,-1.623 2.652,-2.811Z" style="fill:#fefefe;fill-rule:nonzero;"/><defs><linearGradient id="_Linear1" x1="0" y1="0" x2="1" y2="0" gradientUnits="userSpaceOnUse" gradientTransform="matrix(3.74001,-3.63019,3.63019,3.74001,69.4462,34.2822)"><stop offset="0" style="stop-color:#f8ffe6;stop-opacity:1"/><stop offset="1" style="stop-color:#fff8f8;stop-opacity:1"/></linearGradient><linearGradient id="_Linear2" x1="0" y1="0" x2="1" y2="0" gradientUnits="userSpaceOnUse" gradientTransform="matrix(-0.429233,0.690806,-0.690806,-0.429233,64.3798,42.6146)"><stop offset="0" style="stop-color:#2e2d31;stop-opacity:1"/><stop offset="1" style="stop-color:#312839;stop-opacity:1"/></linearGradient><linearGradient id="_Linear3" x1="0" y1="0" x2="1" y2="0" gradientUnits="userSpaceOnUse" gradientTransform="matrix(0.403672,0.60807,-0.60807,0.403672,59.5506,191.793)"><stop offset="0" style="stop-color:#3d4650;stop-opacity:1"/><stop offset="1" style="stop-color:#393f58;stop-opacity:1"/></linearGradient></defs></svg>
