<?xml version="1.0" encoding="UTF-8" standalone="no"?><!DOCTYPE svg PUBLIC "-//W3C//DTD SVG 1.1//EN" "http://www.w3.org/Graphics/SVG/1.1/DTD/svg11.dtd"><svg width="100%" height="100%" viewBox="0 0 455 103" version="1.1" xmlns="http://www.w3.org/2000/svg" xmlns:xlink="http://www.w3.org/1999/xlink" xml:space="preserve" xmlns:serif="http://www.serif.com/" style="fill-rule:evenodd;clip-rule:evenodd;stroke-linejoin:round;stroke-miterlimit:2;"><path d="M223.021,0.172c2.753,-0.241 5.679,0.016 8.445,0.073c5.454,0.09 10.908,0.238 16.359,0.447c0.077,0.067 0.188,0.158 0.259,0.238c1.815,2.048 44.176,80.729 44.086,82.427c-8.213,0.225 -16.481,0.034 -24.7,0.037c0.006,-0.08 0.015,-0.16 0.018,-0.24c0.035,-1.071 -18.975,-35.817 -20.289,-36.843c0.173,0.402 0.35,0.817 0.467,1.239c0.704,2.541 0.702,41.275 0.154,52.694c-0.031,0.649 -0.145,1.12 -0.472,1.683l-24.613,0.005c0.369,-0.641 0.421,-1.228 0.437,-1.949c0.506,-22.745 0.397,-96.551 -0.151,-99.811Z" style="fill-rule:nonzero;"/><path d="M312.376,0.174c2.841,-0.299 5.843,-0.123 8.705,-0.12l15.717,0.027c0.167,0.291 0.294,0.615 0.387,0.936c0.563,1.966 0.601,73.896 0.11,98.32c-0.019,0.95 -0.007,1.745 -0.499,2.595c-8.207,-0.086 -16.421,-0.008 -24.628,-0.001c0.208,-0.338 0.378,-0.701 0.454,-1.093c0.6,-3.095 0.383,-53.027 -0.433,-54.437c-0,0.048 0.001,0.096 -0.001,0.144c-0.063,1.422 -15.271,29.497 -16.936,31.151c0.006,-0.167 0.015,-0.239 -0.001,-0.397c-0.161,-1.616 -11.169,-21.566 -12.375,-22.597c0.06,-0.046 0.121,-0.09 0.179,-0.138c1.123,-0.932 29.147,-52.883 29.321,-54.39Z" style="fill-rule:nonzero;"/><path d="M31.333,0.063c17.578,-0.046 32.375,-1.241 47.412,9.931c10.867,7.96 18.085,19.948 20.036,33.276c1.967,13.71 -1.218,27.356 -9.547,38.472c-8.08,10.798 -20.132,17.929 -33.486,19.815c-8.02,0.81 -16.422,0.364 -24.494,0.365c-0.067,-6.176 -0.047,-12.351 0.061,-18.525c12.887,0.064 23.826,0.478 33.757,-9.284c6.14,-6.019 9.58,-14.269 9.533,-22.867c0.037,-8.712 -3.236,-16.914 -9.417,-23.088c-9.974,-9.962 -20.964,-9.397 -33.957,-9.357c-0.009,-6.238 -0.142,-12.504 0.102,-18.738Z" style="fill-rule:nonzero;"/><path d="M396.994,0.477l3.781,-0.293c0.104,0.198 0.198,0.393 0.272,0.605c0.651,1.865 0.609,24.405 -0.188,25.979c-3.238,1.174 -6.391,1.306 -9.505,3.127c-5.651,3.307 -9.681,8.967 -11.304,15.261c-1.617,6.271 -0.56,12.815 2.731,18.384c4.385,7.42 10.092,9.703 18.016,11.762c0.097,0.156 0.188,0.315 0.262,0.484c0.658,1.53 0.599,24.121 -0.186,26.058c-1.862,-0.372 -3.843,-0.371 -5.736,-0.716c-4.097,-0.748 -7.986,-2.059 -11.923,-3.38c-1.066,-1.103 -5.651,-3.048 -7.305,-4.172c-11.145,-7.569 -19.347,-18.981 -21.885,-32.339c-2.578,-13.57 -0.005,-27.52 7.81,-38.974c8.516,-12.481 20.626,-19.011 35.16,-21.786Z" style="fill-rule:nonzero;"/><path d="M427.183,95.783c-2.481,3.015 -16.416,5.659 -20.254,5.923c0.196,-0.315 0.363,-0.653 0.427,-1.023c0.447,-2.559 0.318,-21.63 0.018,-24.561c-0.042,-0.411 -0.206,-0.753 -0.427,-1.1c4.091,-0.634 7.829,-2.086 11.122,-4.615c5.276,-4.05 8.586,-9.766 9.417,-16.364c0.829,-6.371 -0.903,-12.811 -4.818,-17.906c-3.909,-4.992 -9.352,-8.303 -15.666,-9.065c0.063,-0.099 0.092,-0.141 0.146,-0.254c0.635,-1.339 0.558,-24.85 0.036,-26.341c5.421,-0.437 12.265,1.969 17.129,4.21c12.394,5.586 22.001,15.948 26.636,28.728c4.668,12.781 4.068,26.893 -1.669,39.23c-3.851,8.292 -13.236,19.836 -22.036,23.043c-0.02,0.032 -0.037,0.066 -0.061,0.095Z" style="fill-rule:nonzero;"/><path d="M0.112,0.082l24.852,0.018c0,0 0.199,97.856 -0.073,101.968l-24.755,-0.011c-0.279,-12.177 -0.024,-101.975 -0.024,-101.975Z" style="fill-rule:nonzero;"/><path d="M136.307,0.106c8.295,-0.176 16.619,-0.039 24.916,-0.043c1.159,3.433 45.439,99.481 45.516,100.757c0.016,0.267 -0.105,0.664 -0.148,0.938c-1.777,0.662 -20.585,0.168 -24.034,0.17c-5.562,-11.754 -46.25,-101.822 -46.25,-101.822Z" style="fill-rule:nonzero;"/><path d="M137.988,17.538c1.482,2.079 4.584,10.036 5.808,12.736l15.625,34.421c-6.063,0.18 -12.138,0.082 -18.202,0.06c-5.629,12.241 -10.75,24.888 -16.824,36.898c-0.893,0.569 -1.735,0.408 -2.77,0.412c-7.327,-0.034 -14.654,-0.032 -21.981,0.008c2.12,-5.448 35.723,-79.507 38.344,-84.535Z" style="fill-rule:nonzero;"/></svg>
