<svg fill="#fff" viewBox="0 0 187 199" xmlns="http://www.w3.org/2000/svg"><path d="m26.232 150.21c0-14.153 2.19-28.455 4.335-42.285.517-3.33 1.035-6.75 1.5-10.125-18.57 3.694-32.067 20.141-32.067 39.074 0 18.368 12.703 34.471 30.567 38.746-2.883-8.161-4.349-16.755-4.335-25.41z"/><path d="m84.807 37.778c-2.34 0-4.238 3-4.238 6.69s1.898 6.682 4.238 6.682 4.23-3 4.23-6.682c0-3.683-1.89-6.69-4.23-6.69z"/><path d="m136.347 37.778c-2.34 0-4.238 3-4.238 6.69s1.898 6.682 4.238 6.682 4.237-3 4.237-6.682c0-3.683-1.897-6.69-4.237-6.69z"/><path d="m186.019 139.748c-.892-13.995-4.29-27.938-5.662-41.858-1.388-14.145-3.165-28.237-4.928-42.345-.09-.75-.187-1.432-.3-2.145-.351-1.992.36-4.03 1.875-5.37 3.676-3.149 5.794-7.754 5.794-12.593 0-9.097-7.485-16.583-16.582-16.583-1.238 0-2.472.139-3.679.414-1.994.451-4.086-.157-5.528-1.605-11.91-11.82-28.402-17.663-46.455-17.663-18.052 0-34.537 5.843-46.447 17.663-1.443 1.448-3.534 2.056-5.528 1.605-1.207-.275-2.441-.414-3.679-.414-9.097 0-16.583 7.486-16.583 16.583 0 4.839 2.119 9.444 5.795 12.593 1.515 1.34 2.226 3.378 1.875 5.37-.113.75-.21 1.425-.3 2.145-1.8 14.445-3.603 28.895-5.408 43.35-3.547 28.56-14.76 69.705 10.74 92.205 16.073 14.183 45.12 7.973 47.88-14.94.894-7.968-2.195-15.886-8.25-21.142-6.407-5.691-10.079-13.862-10.079-22.432 0-16.457 13.543-30 30-30 16.458 0 30 13.543 30 30 0 8.546-3.651 16.697-10.028 22.387-6.082 5.279-9.193 13.227-8.31 21.232l.127 1.08c2.085 17.288 20.078 24.173 35.408 19.778 23.542-6.75 29.61-36.165 28.252-57.315zm-67.537-56.295c-.321 1.59-1.731 2.744-3.353 2.745h-9.12c-1.625.003-3.039-1.152-3.36-2.745l-.87-4.343c3.716-1.143 6.859-3.663 8.783-7.042 1.916 3.382 5.058 5.904 8.775 7.042zm24.33-21.045c-1.13.175-2.052 1.008-2.34 2.115-1.44 6.75-8.108 11.857-16.118 11.857h-.142c-6.548-.045-11.79-4.852-11.79-10.672v-8.37c-.008-1.329.701-2.563 1.852-3.225 4.08-2.31 8.543-7.38 7.598-10.785-1.658-6-20.19-5.723-22.5 0-1.32 3.262 3.315 8.452 7.5 10.8 1.155.659 1.867 1.894 1.86 3.225v8.347c0 5.82-5.25 10.628-11.79 10.673h-.143c-8.01 0-14.677-5.108-16.117-11.858-.288-1.106-1.211-1.94-2.34-2.115-9.645-1.92-15.705-6.097-15.705-15.172 0-17.085 21.465-30.93 47.94-30.93s47.947 13.845 47.947 30.93c-.022 9.082-6.082 13.26-15.727 15.18z"/></svg>
