<svg clip-rule="evenodd" fill-rule="evenodd" stroke-linejoin="round" stroke-miterlimit="2" viewBox="0 0 84 83" xmlns="http://www.w3.org/2000/svg"><g fill-rule="nonzero"><path d="m41.654 44.853c.29.011.613.055.88.175 1.312.586 14.437 17.058 15.097 18.753-.029 2.542-4.611 15.934-5.944 18.477-3.002.318-6.169.13-9.19.132-3.405.003-6.854.122-10.252-.106-1.618-2.528-5.371-15.01-6.271-18.485.016-.025.031-.051.047-.075 1.771-2.802 13.526-17.495 15.633-18.871z" fill="#0d85fc"/><path d="m41.915 50.62c.62.125 10.46 12.717 11.434 13.929-1.378 4.584-3.133 9.102-4.319 13.736l-6.867.034c-2.446-.001-4.893.021-7.34.066-.936-4.605-2.869-9.327-4.324-13.806 3.925-4.545 7.381-9.509 11.416-13.959z" fill="#fefefe"/><path d="m32.168.117c6.459-.13 12.977-.185 19.435.014 1.354 2.907 5.782 15.263 5.987 18.148l.007.115c.097 1.435-9.731 12.87-11.032 14.474-1.063 1.374-2.168 3.122-3.57 4.155-.441.325-.81.509-1.363.432-2.198-1.182-13.684-15.763-15.764-18.852 1.065-3.441 2.212-6.862 3.326-10.288.892-2.744 1.681-5.611 2.974-8.198z" fill="#0d85fc"/><path d="m35.732 4.278c4.37-.156 8.988-.209 13.346.091.823 4.102 2.865 9.432 4.269 13.517-2.892 3.527-5.752 7.081-8.578 10.662l-2.719 3.512c-4.087-4.463-7.391-9.74-11.62-14.047 1.302-3.373 2.251-6.972 3.365-10.419.279-.865.542-2.273 1.015-2.994.192-.292.601-.266.922-.322z" fill="#fefefe"/><path d="m18.196 25.603c.467-.003.809.093 1.215.326 2.507 1.441 4.849 3.763 7.116 5.578 3.129 2.507 6.601 4.916 9.48 7.685.63.605 1.478 1.449 1.703 2.31-.368.839-1.212 1.59-1.88 2.198-2.621 2.387-5.609 4.514-8.385 6.728-2.68 2.138-5.265 4.45-8.06 6.433-.294.125-.622.269-.947.263-1.086-.018-14.717-4.482-16.361-5.133-.536-.213-1.186-.461-1.573-.901-.781-.886-.446-17.072-.351-19.457 2.885-1.522 6.295-2.353 9.399-3.343 2.863-.913 5.728-1.958 8.644-2.687z" fill="#0d85fc"/><path d="m17.549 30.112c.017-.004.035-.01.053-.011.126-.006.363-.016.48.014.727.19 12.197 9.841 14.178 11.233-4.705 3.077-9.326 7.532-13.861 11.016-.019.015-.037.029-.056.043-.294.205-.611.226-.954.169-3.976-.659-8.918-3.38-13.154-4.086.102-4.683.011-9.387.012-14.072 4.435-1.421 8.803-3.094 13.302-4.306z" fill="#fefefe"/><path d="m65.084 25.771c2.149-.115 16.122 4.653 18.711 5.851.245 2.127.368 18.545-.355 19.677-1.608 1.149-15.955 5.749-18.136 6.038-1.921-.917-17.641-13.631-18.848-15.321-.076-.107-.259-.322-.231-.447.157-.711.99-1.517 1.508-2.013 2.785-2.667 6.097-4.973 9.112-7.38 2.7-2.155 5.277-4.619 8.239-6.405z" fill="#0d85fc"/><path d="m66.066 30.024c4.46 1.437 9.16 3.397 13.696 4.432-.007 4.622-.282 9.451.16 14.049-4.694.992-9.151 3.182-13.834 4.315-1.719-1.104-3.304-2.552-4.894-3.836l-9.358-7.606c2.479-1.615 4.762-3.695 7.07-5.548 2.38-1.909 4.931-3.726 7.16-5.806z" fill="#fefefe"/></g></svg>
