<svg clip-rule="evenodd" fill-rule="evenodd" stroke-linejoin="round" stroke-miterlimit="2" viewBox="0 0 109 29" xmlns="http://www.w3.org/2000/svg"><path d="m0 .564h2.558v27.164h-2.558z" fill="#a2adb4"/><g fill-rule="nonzero"><path d="m63.698.488 9.596 21.728 9.931-21.705 4.787 27.217h-2.63l-3.149-19.7-8.987 19.723-8.718-19.715-3.504 19.692h-2.66l5.334-27.24z" fill="#a2adb4"/><path d="m105.168 4.841c-.542-.809-1.117-1.437-1.74-1.802-.809-.506-1.787-.724-2.879-.724-1.397 0-2.621.398-3.611 1.248-1.001.844-1.521 1.944-1.521 3.244 0 1.981 1.507 3.349 3.717 4.256l2.893 1.183c2.266.917 3.835 2.005 4.793 3.215.943 1.182 1.436 2.651 1.436 4.465 0 2.441-.804 4.403-2.392 5.957-1.609 1.576-3.598 2.369-6.029 2.369-2.322 0-4.169-.679-5.618-1.995-1.267-1.169-2.144-2.786-2.589-4.919l2.624-.578c.22 1.267.552 2.286 1.083 2.974 1.093 1.52 2.691 2.243 4.67 2.243 1.589 0 2.959-.542 4.043-1.641 1.085-1.1 1.613-2.494 1.613-4.11 0-.652-.09-1.254-.291-1.826-.189-.599-.482-1.114-.899-1.593-.397-.488-.883-.902-1.473-1.283-.581-.387-1.257-.741-2.021-1.071l-2.8-1.164c-3.765-1.592-5.392-3.784-5.392-6.52 0-1.911.716-3.487 2.189-4.781 1.478-1.313 3.328-1.987 5.611-1.988 2.709 0 4.885 1.174 6.566 3.665z" fill="#a2adb4"/><path d="m21.532 17.419c-1.817.223-3.471-1.069-3.694-2.885-.223-1.818 1.069-3.471 2.886-3.694s3.47 1.069 3.693 2.886c.224 1.816-1.069 3.47-2.885 3.693z" fill="#003762"/><g fill="#a2adb4"><path d="m27.936 4.574c-2.211-1.487-4.526-2.259-6.938-2.259-1.322 0-2.563.195-3.72.587l.023.16c.208 1.692-.995 3.232-2.687 3.44-.738.09-1.444-.087-2.027-.455-2.07 2.259-3.101 5.005-3.101 8.192 0 3.268 1.112 6.065 3.338 8.332 2.226 2.266 4.976 3.406 8.193 3.406 1.633 0 3.079-.265 4.305-.836.654-.275 1.307-.633 1.976-1.079l.638-.436v2.875c-2.232 1.172-4.554 1.752-6.975 1.752-3.905 0-7.207-1.351-9.965-4.072-2.745-2.745-4.105-6.029-4.105-9.904 0-3.471 1.139-6.555 3.446-9.286.282-.334.574-.651.873-.951l-.036-.227c-.208-1.692.996-3.232 2.687-3.44.787-.097 1.542.112 2.145.533 1.608-.604 3.37-.905 5.293-.906 2.271 0 4.479.575 6.637 1.745z"/><path d="m53.465 27.728h2.785l-12.444-27.709-12.901 27.709h2.705l10.155-22.321 9.7 22.321h-.001z"/></g></g></svg>
