<svg xmlns="http://www.w3.org/2000/svg" width="100%" height="100%" viewBox="0 0 200 164" fill-rule="nonzero" stroke-linejoin="round" stroke-miterlimit="2" xmlns:v="https://vecta.io/nano"><path d="M115.944 48.35c5.897-8.634 14.384-15.768 24.409-19.001a47 47 0 0 1 36.096 2.857c2.997 1.539 8.825 6.639 10.101 7.972 2.465 2.575 6.631 7.026 7.217 8.197 5.149 10.283 5.975 18.706 4.787 29.995a77.03 77.03 0 0 1-3.349 16.149c-8.515 25.646-28.662 45.203-52.461 57.117-26.626 13.33-59.72 16.051-88.014 6.597a88.27 88.27 0 0 1-38.223-24.993c-2.143-2.397-4.704-5.265-6.169-8.114-.037-.473-.097-.907-.208-1.37.747.55 1.628.891 2.334 1.451 1.918 1.523 7.808 7.54 9.76 7.859 12.362 9.067 28.665 13.927 43.834 14.884 24.617 1.453 48.907-6.221 68.221-21.554 2.552-2.053 5.09-4.224 7.356-6.593 1.912-1.999 3.642-4.189 5.721-6.021 4.147-.336 8.426-.134 12.585-.131l22.488-.047c.399-.935.926-1.82 1.415-2.71l-20.182-.035c-3.714 0-7.71-.266-11.386.22.463-1.256.958-2.89 1.888-3.876.477-.506 1.141-.65 1.817-.733 3.226-.394 6.731-.111 9.992-.099l20.43-.018c.64-1.026 1.116-2.106 1.605-3.209-3.233.381-6.707.161-9.966.165-7.205.007-14.434-.143-21.636-.022.881-1.421 1.645-2.928 2.442-4.398 10.375-.294 20.814.102 31.204-.053a34.68 34.68 0 0 1 .944-3.125l-19.371-.008c-3.619.019-7.405.281-11.004-.103l2.499-4.352c9.715.202 19.46.04 29.179.066l.873-3.212c-9.33.281-18.752.068-28.089.015.582-1.545 1.561-3.017 2.379-4.451 3.165.222 6.464.018 9.642-.003l17.056-.044c.093-1.007.291-2.019.445-3.02-8.363.02-17.084.489-25.412-.13.907-1.477 1.837-2.94 2.79-4.388l22.984.064c.399-11.42-1.61-21.098-9.365-29.978-7.561-8.62-18.204-13.927-29.638-14.78-11.516-.759-22.753 1.855-31.845 9.228-2.907 2.357-5.356 5.262-8.175 7.735z" fill="#0b3a8a"/><path d="M1.224 86.823a72.98 72.98 0 0 1 6.828-25.98C19.814 35.599 42.441 16.893 68.42 7.45c27.349-9.942 59.375-10.549 86.069 1.938 13.502 6.316 24.723 15.14 33.548 27.163 2.145 2.922 4.351 5.87 5.596 9.304l-.302.097c-.343-.106-7.967-9.977-10.917-11.705-1.43-1.167-3.081-2.332-4.684-3.247-19.017-13.526-43.359-17.69-66.168-13.853-17.829 3-35.128 10.703-48.707 22.713-2.208 1.949-4.319 4.004-6.326 6.158-1.557 1.659-3.067 3.506-4.806 4.967-11.825 1.113-23.936-.691-35.775.275-.527.841-1.082 1.672-1.516 2.566 8.434.075 17.023-.37 25.429.159-.735 1.276-1.428 2.63-2.265 3.84-8.441.784-17.095.012-25.58.357l-1.238 3.41c8.213-.664 16.537.241 24.757-.256-.824 1.528-1.663 3.032-2.577 4.509-5.456-.064-10.913-.063-16.369.004-1.971.015-4.057-.199-6.007-.039-.676.055-1.25.185-1.837.534-.432.478-.454 1.144-.548 1.755l.292.475c2.397.517 5.59.215 8.07.226l15.029.034c-.948 1.47-1.831 2.942-2.642 4.492-7.466.168-14.947.074-22.415.069-.242 1.039-.595 1.945-1.024 2.916 7.205.502 14.4-.028 21.6.279-.798 1.409-1.547 2.941-2.504 4.246l-19.605.03-.254 3.426c6.001-.054 12.018-.144 18.016.091-.554.766-2.136 3.583-2.703 3.997-.107.078-.565.133-.706.156-3.698.594-10.979.102-15.066.078l.003 3.033 13.794-.051c-.6 1.762-1.259 3.206-2.425 4.669-3.737.177-7.482.003-11.218-.113.131 1.051.307 2.122.383 3.178l9.346.04c-.904 1.505-1.765 3.087-2.833 4.482-.836-.229-2.791 2.005-1.937 3.047.003.045-1.216 2.116-1.425 3.243-.569 3.068 4.195 8.079 6.265 10.226 8.603 8.921 20.824 13.198 33.02 13.389 11.77.184 23.769-3.475 32.327-11.801 1.595-1.551 3.17-3.538 5.026-4.756-8.119 11.261-18.149 17.793-31.848 20.028-7.27 1.186-15.126.64-22.199-1.413-1.206-.35-7.561-3.267-7.941-3.133-.073.026-.321.27-.378.337-.011.013-.014.031-.021.047-1.952-.319-7.842-6.336-9.76-7.859-.706-.56-1.587-.901-2.334-1.451.111.463.171.897.208 1.37-4.515-5.583-7.756-14.057-8.873-21.05l-.411-.068-.166-.395c-.291-.228-.529-.214-.888-.224v-7.017c.654-2.519-.244-5.457.39-8.054l.052.056c.301-.494.534-1.03.782-1.551z" fill="#077eb1"/><path d="M0 96.372c.654-2.519-.244-5.457.39-8.054l.052.056c.301-.494.534-1.03.782-1.551-.446 5.849-.063 11.426.241 17.253l-.411-.068-.166-.395c-.291-.228-.529-.214-.888-.224v-7.017zm5.221 7.006l6.27.267c-.785.201-2.947 2.212-2.093 3.254-1.085-.004-2.225.155-3.311.241l-.866-3.762z" fill="#fff"/><path d="M75.117 54.712c7.35-.229 14.74-.075 22.094-.074l39.341.001c-3.81 7.239-8.073 14.281-12.045 21.438-7.118.267-14.268-.227-21.386.108l2.89-5.584-18.515.007c-1.736 3.549-3.751 7.012-5.614 10.502l-8.869 16.737c6.27-.179 12.555.109 18.831-.084l.834-2.117 1.656-3.146c7.055.297 14.219.028 21.292.115l-10.417 19.459-61.677-.013C54.235 93.069 64.04 73.485 75.117 54.712zm73.28-.745c5.618-.39 11.515-.042 17.163-.044 7.455-.002 15.082-.32 22.515.222.252 2.851.984 5.718 1.398 8.559.456 3.124.632 6.28 1.114 9.4-7.217.117-14.437-.015-21.655.031-2.62 3.544-4.671 7.654-6.858 11.477l-11.945 20.669-3.891 6.836c-2.975.286-6.043.16-9.034.158-4.526.039-9.053-.022-13.577-.183 4.847-8.875 10.155-17.603 15.244-26.35 2.427-4.17 4.984-8.295 7.125-12.621-3.328.096-6.669.026-9.999.014l6.237-10.813c1.152-2.066 2.367-5.28 3.975-6.957.342-.357 1.674-.357 2.188-.398zm-102.619-.036c6.57-.168 13.334.517 19.865-.047-4.175 7.142-30.648 56.125-32.273 57.414-6.687.147-13.591.177-20.266-.208l21.652-38.568c3.124-5.514 6.245-11.785 9.539-17.074.449-.722.723-1.118 1.483-1.517z" fill="#0b3a8a"/></svg>
