<svg xmlns="http://www.w3.org/2000/svg" viewBox="0 0 144 92" fill="none">
<path d="M0 3.533C0 1.582 1.611 0 3.597 0h16.497a3.63 3.63 0 0 1 2.544 1.035l69.84 68.583a3.5 3.5 0 0 1 1.054 2.498v16.2c0 1.951-1.611 3.533-3.597 3.533H73.438a3.63 3.63 0 0 1-2.544-1.035L1.054 22.231A3.5 3.5 0 0 1 0 19.733v-16.2z" fill="url(#gradient)"/>
<path d="M50.364 3.533C50.364 1.582 51.974 0 53.961 0h16.497a3.63 3.63 0 0 1 2.544 1.035l69.84 68.583a3.5 3.5 0 0 1 1.054 2.498v16.2c0 1.951-1.611 3.533-3.598 3.533h-16.497a3.63 3.63 0 0 1-2.543-1.035L51.417 22.231a3.5 3.5 0 0 1-1.054-2.498v-16.2z" fill="url(#gradient)"/>
<path d="M0 52.99c0-1.951 1.611-3.533 3.597-3.533h16.497a3.63 3.63 0 0 1 2.544 1.035l19.477 19.126a3.5 3.5 0 0 1 1.054 2.498v16.2c0 1.951-1.611 3.533-3.597 3.533H23.074a3.63 3.63 0 0 1-2.544-1.035L1.054 71.687A3.5 3.5 0 0 1 0 69.189v-16.2z" fill="url(#gradient)"/>
<defs>
<linearGradient id="gradient" x1="59" y1="0" x2="94.29" y2="89.123" gradientUnits="userSpaceOnUse">
<stop/>
<stop offset="1" stop-color="#666"/>
</linearGradient>
</defs>
</svg>
