<?xml version="1.0" encoding="utf-8"?>
<!-- Generator: Adobe Illustrator 15.0.0, SVG Export Plug-In . SVG Version: 6.00 Build 0)  -->
<!DOCTYPE svg PUBLIC "-//W3C//DTD SVG 1.0//EN" "http://www.w3.org/TR/2001/REC-SVG-20010904/DTD/svg10.dtd">
<svg
  version="1.0"
  id="图层_1"
  xmlns="http://www.w3.org/2000/svg"
  xmlns:xlink="http://www.w3.org/1999/xlink"
  x="0px"
  y="0px"
  width="268.223px"
  height="336.246px"
  viewBox="0 0 268.223 336.246"
  enable-background="new 0 0 268.223 336.246"
  xml:space="preserve"
>
  <g>
    <path
      fill-rule="evenodd"
      clip-rule="evenodd"
      fill="#6A005F"
      d="M0.117,0C17.14,9.924,39.544,16.917,66.38,17.159
		c27.508,0.318,50.838-5.055,67.68-15.722c16.969,10.612,40.564,16.147,67.806,15.722c26.337-0.347,49.532-7.235,66.291-17.026
		c0.319,39.529-0.61,77.225-0.61,116.568c0,39.079,2.104,79.646-7.9,109.523c-4.869,14.656-12.21,26.946-20.484,38.465
		c-8.141,11.41-18.249,21.414-29.101,29.659c-11.282,8.594-24.318,14.685-37.563,21.359c-11.358,5.721-22.772,11.627-33.838,17.64
		c-1.542,0.852-3.355,1.41-4.47,2.898c-5.963-4.016-12.45-7.237-18.889-10.613c-6.487-3.322-13.034-6.729-19.525-10.058
		c-6.703-3.429-13.409-6.355-19.765-9.735c-6.359-3.351-12.132-7.26-17.799-11.649c-22.267-17-39.448-39.026-49.638-68.343
		c-5.211-15.134-6.703-32.45-7.606-51.208C0.117,156.15,0.57,136.467,0.57,117.288c0-39.078-0.554-77.492-0.554-116.862
		C-0.014,0.214-0.014,0,0.117,0z M127.326,14.046c-23.407,10.32-60.28,13.33-90.176,7.291c-9.365-1.891-17.877-4.419-25.272-7.848
		c-0.985-0.479-2.077-1.281-3.302-1.173c-0.344,36.365,0.586,74.086,0.586,109.12c0,18.225-0.877,36.845-0.16,54.189
		c0.799,17.265,2.744,33.65,7.475,47.748c4.659,13.833,10.884,25.725,18.651,36.554c11.599,16.225,25.644,29.688,43.413,39.315
		c5.988,3.192,12.288,6.039,18.674,8.991c12.45,5.827,24.899,11.916,37.271,17.958c12.336-6.146,24.87-11.972,37.161-17.958
		c6.332-3.058,12.687-5.666,18.621-8.885c11.811-6.277,21.867-14.709,30.806-24.181c13.354-14.071,24.259-31.575,30.861-51.927
		c9.255-28.597,7.338-64.804,7.338-101.408c0-36.867,0.109-73.18,0.374-109.518c-1.117,0-2.21,0.693-3.271,1.173
		c-7.689,3.378-15.985,6.197-25.221,8.005c-21.733,4.229-48.386,3.591-68.844-0.877c-10.535-2.289-19.869-5.827-28.119-10.026
		C132.49,11.943,129.964,12.875,127.326,14.046z"
    />
    <path
      fill-rule="evenodd"
      clip-rule="evenodd"
      fill="#6A005F"
      d="M137.089,25.513c11.517,1.25,20.168,7.264,25.379,15.801
		c0.692,1.116,1.837,2.926,1.729,3.805c-0.16,0.928-0.853,1.674-1.729,1.621c-1.145-0.053-1.464-1.621-2.317-3.031
		c-4.384-7.689-11.487-12.983-21.651-14.767c0.48,2.343,1.543,4.604,2.449,7.027c0.852,2.393,1.756,4.866,2.578,7.205
		c0.401,0.427-0.052,0.984,0,1.571c1.836-0.133,3.887-0.053,3.592,1.994c-0.398,2.636-8.27,0.64-11.197,1.303
		c-0.32,2.022-0.053,4.709-0.137,6.971c1.601,0.956,9.205-0.8,10.748,0.317c0.453,0.292,0.641,1.226,0.586,1.704
		c-0.426,2.874-8.139,0.533-11.197,1.275c-0.451,2.396,0.658,5.747-1.73,5.907c-2.288,0.13-1.647-3.033-1.701-5.772
		c-2.877-1.037-10.749,1.518-11.336-1.25c-0.796-3.938,8.438-1.092,11.173-2.182c0.271-1.942,0.271-4.896,0-6.863
		c-2.552-0.96-10.64,1.33-11.173-1.277c-0.422-2.024,1.598-2.34,3.459-2.128c0.403-0.373-0.21-0.851,0-1.435
		c1.862-4.632,3.381-9.604,5.323-14.207c-12.293,1.675-20.058,9.125-23.944,19.604c1.333-0.054,3.354-0.825,6.01-1.277
		c2.822-0.478,8.546-1.782,6.869,2.157c-2.313,0.743-4.949,0.663-7.344,1.17c-2.341,0.45-4.469,1.274-6.437,1.994
		c-0.373,0.72-0.48,1.729-0.587,2.739c2.076-0.316,4.256-1.221,7.023-1.728c1.991-0.346,7.931-1.778,7.344,1.435
		c-0.268,1.411-1.969,1.228-3.3,1.304c-3.833,0.242-8.645,1.491-11.067,2.848c-0.106,0.506,0,1.65,0.157,2.287
		c2.344-0.612,4.045-1.117,7.026-1.597c1.86-0.238,6.33-1.488,6.756,0.585c0.613,2.981-4.628,2.128-7.153,2.58
		c-2.744,0.509-4.392,1.279-6.039,1.835c0.61,1.413,0.636,3.221-0.747,3.458c-2.872,0.64-3.192-6.116-3.298-8.855
		c-0.107-4.203,0.477-7.928,1.33-10.775c3.781-12.981,13.887-21.282,28.675-23.488c1.066-1.57,1.066-4.709,3.144-4.498
		C136.189,21.069,136.001,24.129,137.089,25.513z M136.106,32.243c-0.478-1.223-0.956-3.938-2.34-3.698
		c-2.42,5.001-4.044,10.8-6.173,16.2c1.225,0.056,3.539-0.053,4.733,0c-0.903-4.815,4.577-5.106,3.458,0c1.228,0,3.617,0,4.896,0
		C139.294,41.047,137.544,36.261,136.106,32.243z"
    />
    <path
      fill-rule="evenodd"
      clip-rule="evenodd"
      fill="#6A005F"
      d="M66.543,37.962c0.714,0.558-0.239,1.433,0.128,1.993
		c2.079-0.399,4.657,1.198,4.871,2.316c0.293,1.437-1.304,2.979-0.877,4.865c3.512,2.238,4.363,7.133,8.354,8.938
		c1.728,3.274,2.871,8.222,2.127,12.743c-0.584,3.433-3.99,3.804-3.298,8.303c0.32,1.938,1.488,5.85,2.871,6.463
		c0.905,0.4,2.132-0.08,3.033,0.558c0.718,0.879,0.373,2.794-0.16,3.619c-2.767,0.506-3.776,3.431-7.18,2.286
		c-1.279-0.477-3.512-1.943-4.15-3.031c-0.428-0.693-0.374-1.677-0.721-2.422c-0.717-1.623-1.996-2.606-2.738-3.751
		c-2.074,0.64-8.459-0.45-7.447,2.899c0.479,1.492,5.531,0.745,3.883,4.575c-0.586,1.33-4.948,3.193-6.598,3.568
		c-0.586,0.104-1.649,0.183-2.022,0.13c-0.533-0.051-1.009-0.557-1.701-0.72c-1.388-0.265-3.247,0.349-4.735,0
		c-0.907-0.158-3.407-1.939-4.313-2.713c-0.584-0.53-1.752-1.968-1.966-2.582c-0.666-1.567-0.237-2.87-1.919-3.587
		c-0.742-0.32-1.697-0.188-2.548-0.427c-1.542-0.372-3.194-1.625-4.441-0.69c-1.569,1.728,0.903,2.473,1.7,3.991
		c0.771,1.435,0.293,2.501,0.455,4.575c-0.508,0.689-1.6,1.939-2.875,2.152c-1.73,0.32-4.072-0.984-6.49-1.568
		c-1.57-0.4-3.936-0.4-4.255-1.995c-0.213-1.013,0.793-1.598,0.98-2.451c0.294-1.14-0.344-2.046,0.431-2.977
		c-1.091-1.677-0.617-4.285-0.724-7.315c-0.103-3.299-0.051-5.532,0.724-7.901c0.29-0.852,0.343-1.836,0.61-2.314
		c0.427-1.01,3.379-3.377,4.574-3.99c2.711-1.518,7.233-2.714,12.026-2.021c1.009,0.106,1.914,0.957,2.868,1.143
		c1.814,0.321,4.257-0.186,6.176,0c0.585-0.346,1.062-0.716,1.435-1.276c0.16-3.112-1.596-4.336-2.447-6.464
		c0.397-3.142-0.533-6.704,0.584-9.712c0.293-0.85,1.703-3.244,2.45-4.068c0.714-0.823,2.233-1.997,3.137-2.154
		c1.646-0.291,4.417,0.638,6.015,1.171C63.27,37.482,65.291,37.482,66.543,37.962z M58.056,44.452
		c1.433,0.349,1.97-1.385,2.608-2.314c-0.373-0.69-0.162-1.995-1.176-2.022C59.625,42.164,58.642,43.095,58.056,44.452z
		 M52.791,43.841c0.159,0.212,0.582,0.185,1.013,0.185c0.371-0.852,0.504-1.991,0.954-2.712
		C53.507,40.914,52.683,42.831,52.791,43.841z M61.804,44.32C60.502,45.329,58,46.34,58.8,48.47c0.106,0.026,0.267,0,0.267,0.107
		c1.647-0.48,2.104-2.237,3.302-3.271c1.009-0.854,2.871-1.411,2.711-3.353C63.429,41.34,62.848,43.443,61.804,44.32z
		 M61.804,51.021c0.031,0.057,0.297,0.293,0.297,0.373c0.533,0.345,0.903-0.316,1.542-0.373c1.173-0.104,2.021,0.56,2.737,0.56
		c0.693-0.664,0.081-1.888-0.717-1.993C64.707,51.125,61.331,48.334,61.804,51.021z M70.957,49.588
		c-0.74-0.081-1.033,0.743-0.984,1.276c0.109,0.983,1.863,2.074,2.875,2.021C72.525,52.275,71.679,49.693,70.957,49.588z
		 M58.484,51.739c-1.171,0.455-1.838,1.519-2.13,2.823c0.959,0.397,1.142-0.96,1.965-1.091c0.987,0.528,0.961,2.046,2.026,2.419
		c0.263,0.427,1.54-0.16,1.594,0.427c0,0.771-1.225,0.771-2.02,1.171c-0.853,0.424-2.424,1.674-3.727,2.475
		c-2.283,1.301-5.265,3.005-1.861,4.521c0.373-0.293-0.024-1.013,0.16-1.358c0.266-0.69,3.084-2.687,3.407-2.741
		c0.585-0.106,1.246,0.32,1.754,0.24c1.488-0.186,1.832-1.624,3.136-2.18c0.824,0.189,1.653,0.345,2.773,0.32
		c1.297,0.45,0.61,2.927,2.121,3.188c0.693-0.954,0.16-2.288,1.014-3.188c-0.136-0.932-0.984-1.174-0.88-2.264
		c0.24-0.557,0.88-0.691,1.438-0.904c1.356,0.983,1.09,3.591,2.423,4.575c1.168-0.716,1.462-3.322,0.741-4.575
		c-0.638-1.035-2.604-1.434-3.034-2.232c-3.349,0.025-5.904,0.849-8.457,1.648C59.919,54.164,59.489,52.672,58.484,51.739z
		 M74.975,60.946c1.066-0.612,0.479-2.845-0.688-2.9C73.777,58.869,73.777,60.918,74.975,60.946z M61.485,62.197
		c0.319,0.771,1.519,0.61,1.731,1.435c-0.427,1.597,0.906,2.396,1.174,3.754c-0.854,1.222-2.187,0.104-2.586-0.72
		c-0.633,0.106-1.033,0.427-1.033,1.143c3.297,0.21,1.49,4.044-0.559,4.707c-0.617,0.267-1.465,0-2.156,0.162
		c-0.797,0.212-1.547,1.112-2.421,1.436c-1.358,0.477-2.608,0.08-3.431,0.744c-0.424,1.677-0.214,3.752,1.013,3.727
		c1.222-0.056,1.167-2.477,2.418-2.875c1.783,0.291,1.599-1.12,2.578-1.436c0.534-0.214,1.146,0.159,1.843,0
		c1.989-0.561,2.521-3.139,3.747-4.629c3.242,0.4,4.041-2.422,4.148-4.71c-1.808,0.35-3.987,0.587-4.309-0.983
		c-0.161-1.144,0.878-1.647,1.173-2.738C63.964,59.746,61.702,60.893,61.485,62.197z M34.859,62.647
		c-0.639,0-0.504-0.772-1.274-0.586c0.105,1.09-0.907,1.09-1.171,1.702c0.158,0.774,1.171,0.774,1.434,1.465
		c2.265-0.054,2.876-1.704,4.844-2.023C38.318,60.546,36.298,61.771,34.859,62.647z M41.884,61.637
		c-0.533,0.823,0.051,2.207,0.849,2.581C44.065,63.632,43.638,61.396,41.884,61.637z M49.333,67.49
		c0.611-0.718,0.316-2.556-0.745-2.556C48.159,65.521,47.951,67.809,49.333,67.49z M26.243,68.979
		c0.901,0.507,3.029,0.665,3.723-0.161c-0.506-0.985-0.506-1.832-0.426-2.711C28.104,66.666,26.718,67.409,26.243,68.979z
		 M50.022,69.645c1.173,0.211,3.509,0.506,3.781-0.665C53.217,67.49,49.814,67.569,50.022,69.645z M33.847,72.386
		c-0.635,0.053-0.373-0.776-1.012-0.718c-0.849,0.024-0.849,0.901-1.596,1.01c-0.291-0.109-0.478-0.319-1.009-0.292
		c-0.322,0.292-0.799,0.45-0.691,1.114c0.742-0.318,0.959-0.185,1.569,0.162c0.238-0.269,0.158-0.827,0.72-0.827
		c-0.108,2.127-1.413,4.336-3.858,4.546c-0.239,1.146-0.985,1.707-1.728,2.317c-0.587,2.632,0.158,5.056,2.716,5.056
		c0.183-0.479,0.126-1.224,0.155-1.914c-0.743-0.694-1.438-1.412-1.143-3.142c0.4-0.347,0.902-0.61,1.704-0.584
		c1.088-1.012,2.046-2.237,2.739-3.725c-0.478-1.601,1.171-2.713,1.861-1.41c0,0.423-0.451,1.172,0.266,1.143
		c0.587-0.16,0-0.583,0-1.01c0.719-0.932,2.288-0.984,2.739-2.155C36.19,70.257,35.021,71.904,33.847,72.386z M26.931,75.017
		c0.8-0.664,1.066-2.234,0.587-3.349C26.08,71.667,25.814,74.433,26.931,75.017z M45.316,75.391
		c0.107,0.533,1.194,0.266,1.568,0.159c0-0.186,0.053-0.319,0.162-0.427c-0.213-0.343-0.643-0.556-1.039-0.72
		C46.166,75.123,45.263,74.78,45.316,75.391z M57.496,77.121c-0.557,0.261-1.142,0.449-1.409,1.01
		c-0.212,0.958,0.372,2.688-0.451,3.005c-1.382-0.985-2.418-0.24-3.323,0.745c-0.695-0.134-0.904-0.799-1.972-0.584
		c-0.105,0.478-0.526,2.234,0.269,2.287c0.799-0.159-0.426-1.49,0.586-1.49c0.265,0.693,0.743,1.12,1.117,1.648
		c-0.055,1.066-0.429,3.22,0.158,4.019c1.704-0.505,0.078-4.336,2.181-4.497c0.69,0.401,0.503,1.703,0.563,2.738
		c0.608,0.269,1.353,1.201,2.419,1.307c1.168,0.131,3.267-0.266,3.725-1.144c-0.749-0.587-1.971-0.614-2.557-1.304
		c-0.236-0.16-0.158-0.747-0.158-1.119c-1.408-0.955-2.076-3.35-1.436-5.478c0.212-0.694,1.646-1.677,0.426-2.45
		C57.418,76.055,57.523,76.667,57.496,77.121z M30.819,85.442c0,0.136,0,0.268,0,0.402c1.274-0.134,1.57,1.411,2.607,1.037
		C33.105,85.898,31.88,85.178,30.819,85.442z"
    />
    <path
      fill-rule="evenodd"
      clip-rule="evenodd"
      fill="#6A005F"
      d="M236.026,81.297c-1.384-0.904-3.193,0.37-4.633,0.69
		c-1.731,0.427-3.272,0.397-3.991,1.889c-0.32,0.689-0.158,1.462-0.424,2.125c-1.172,2.795-3.884,3.512-6.015,5.294
		c-1.437,0.27-3.138-0.291-4.866,0c-1.171,0.215-1.728,0.962-3.591,0.59c-2.659-0.481-6.307-2.238-6.892-3.729
		c-1.143-2.868,1.996-3.348,3.884-4.148c0.509-2.872-1.57-2.42-4.04-2.711c-1.17-0.161-2.528-0.613-3.168-0.454
		c-0.64,0.187-2.389,2.394-2.979,3.751c-0.322,0.694-0.268,1.647-0.587,2.288c-0.851,1.701-4.15,3.538-6.007,3.405
		c-2.37-0.079-2.768-2.184-5.458-2.526c-0.61-1.198-0.824-2.899,0-3.619c0.664-0.558,2.476-0.265,3.301-0.878
		c0.984-0.69,3.216-6.41,2.448-9.15c-0.506-1.755-2.797-3.299-3.168-4.708c-0.105-0.531-0.158-1.731-0.158-2.476
		c0-3.458,0.104-8.164,2.182-10.72c0.854-1.089,2.394-1.647,3.458-2.738c1.911-2.077,2.179-5.429,5-6.146
		c-0.078-1.997-0.639-3.402-1.011-5.055c1.064-1.304,2.182-2.609,4.869-2.316c0.451-0.636-0.562-1.383,0.131-1.993
		c1.146-0.424,3.248-0.533,3.99,0.16c1.516-0.64,3.246-0.907,4.923-1.171c2.952-0.453,4.627,2.524,5.72,4.496
		c0.796,1.384,1.488,2.207,1.731,4.415c0.101,1.011,0.024,2.314,0,3.618c0,1.142,0.131,2.504,0,3.271
		c-0.507,2.846-4.606,6.014-0.986,7.874c1.89-0.24,4.097,0.375,6.116,0c1.065-0.186,2.077-1.037,2.74-1.143
		c2.158-0.373,4.766-0.214,6.466,0c4.203,0.558,7.502,3.299,10.162,5.746c0.054,1.675,1.304,3.114,1.595,4.976
		c0.424,2.978,0.317,7.687-0.133,10.639c-0.239,1.488-0.771,2.899-0.29,5.002c0.213,0.955,1.061,1.516,0.983,2.312
		c-0.137,1.891-2.531,1.891-4.553,2.449c-3.615,0.986-7.447,2.767-9.043-0.85c0.079-2.133-0.238-3.193,0.586-4.629
		C235.066,83.742,237.242,83.264,236.026,81.297z M212.934,44.452c0.052-0.932-1.013-1.118-1.28-2.022
		c-0.266-0.77,0.346-1.808-0.479-2.475C209.42,41.34,210.938,44.801,212.934,44.452z M217.084,44.025
		c0.533,0.054,0.901-0.077,1.114-0.317c-0.184-1.251-0.691-2.234-1.838-2.555C216.125,41.953,217.031,42.963,217.084,44.025z
		 M205.752,41.953c0.103,2.419,2.151,2.553,3.455,3.909c1.013,1.091,1.278,2.529,2.556,2.715c1.462-1.758-1.33-3.776-2.849-4.419
		C208.253,43.174,207.453,41.5,205.752,41.953z M201.016,50.599c0-0.348-0.536-1.092-1.114-1.011
		c-0.645,0.105-1.763,2.95-1.763,3.298C199.205,52.965,201.07,51.528,201.016,50.599z M207.027,50.172
		c-0.664,0.079-1.436-0.691-1.969-0.584c-0.64,0.156-1.383,1.783-0.32,1.993c0.641-0.397,2.982-0.93,3.886,0
		c0.875-0.56,0.452-1.543-0.321-1.993C207.665,49.561,207.744,50.064,207.027,50.172z M212.663,51.739
		c-1.431,0.642-1.487,2.61-2.871,3.274c-2.392-0.957-5.054-1.597-8.352-1.648c-0.424,0.954-2.768,1.383-3.14,2.71
		c-0.426,1.357,0,3.193,0.689,4.098c1.707-0.744,1.863-6.756,4.205-3.43c-0.211,0.849-0.852,1.303-1.041,2.179
		c0.961,0.64,0.432,2.024,0.884,3.032c1.755,0,0.98-2.472,2.157-3.032c0.926-0.21,2.099-0.21,3-0.477
		c1.381,0.983,2.447,2.818,4.845,1.94c1.277,1.307,3.671,1.812,3.485,4.099c1.093,0,1.781-1.171,1.674-1.837
		c-0.107-1.356-3.007-2.475-4.42-3.298c-0.822-0.504-1.488-1.197-2.285-1.598c-0.959-0.451-2.286-0.397-2.446-1.434
		c0.106-0.479,0.96-0.214,1.438-0.242c1.063-0.505,1.063-2.125,2.177-2.604c0.747,0.131,1.091,1.408,1.839,1.091
		C214.529,53.576,213.624,52.275,212.663,51.739z M195.323,60.173c1.011,1.781,2.126-0.797,1.411-2.127
		C195.587,58.102,195.481,59.216,195.323,60.173z M206.072,61.213c0.396,0.984,1.169,1.595,1.248,2.845
		c-0.612,1.595-2.955,0.931-4.443,0.982c0.345,2.023,0.743,5.138,4.15,4.498c1.117,1.728,1.968,3.644,3.775,4.735
		c2.501-0.958,2.291,1.541,4.418,1.436c1.274,0.372,1.222,2.792,2.422,2.875c1.41,0.104,1.488-2.477,1.036-3.887
		c-1.224-0.504-2.317-0.077-3.62-0.584c-0.608-0.24-1.063-1.064-1.701-1.278c-0.96-0.32-1.992,0.054-2.871-0.32
		c-1.225-0.478-2.184-2.338-2.184-3.856c0.294-0.689,1.596-0.316,1.759-1.169c-0.054-0.533-0.427-0.718-0.854-0.824
		c-0.53,0.824-1.941,1.993-2.739,0.557c0.559-1.195,1.518-1.914,1.304-3.909c0.372-0.506,1.436-0.346,1.569-1.116
		C209.261,60.758,206.869,59.855,206.072,61.213z M232.139,63.126c1.86,0.398,2.661,1.995,4.892,2.102
		c0.211-0.744,1.388-0.666,1.545-1.465c-0.427-0.559-1.355-0.612-1.275-1.702c-0.854-0.186-0.64,0.692-1.439,0.586
		C234.481,61.584,232.725,60.785,232.139,63.126z M228.256,64.218c0.635-0.479,1.275-1.518,0.851-2.581
		C227.272,61.367,226.71,63.764,228.256,64.218z M221.977,64.935c-0.64,0.374-1.094,1.891-0.425,2.556
		C222.963,67.833,223.094,65.121,221.977,64.935z M240.864,68.979c0.935,0.611,2.61,0.372,3.751,0.134
		c-0.372-1.728-1.838-2.421-3.301-3.006C241.448,67.01,241.314,67.939,240.864,68.979z M217.24,69.22
		c0.479,0.769,2.557,0.688,3.567,0.425C221.18,67.49,217.345,67.409,217.24,69.22z M233.576,72.089
		c0.688,0.878,1.992,1.202,2.715,2.024c-0.057,0.319-0.265,0.744,0,1.01c0.902-0.076,0.37-0.69,0.29-1.304
		c2.152-1.568,1.889,2.181,2.849,3.563c0.635,0.937,1.435,1.042,1.754,1.733c0.529,0.106,1.117,0.157,1.594,0.291
		c1.227,2.182-2.018,3.167-0.74,5.349c3.191,0.423,3.669-5.296,1.33-6.171c0-0.48-0.215-0.693-0.322-1.014
		c-2.393-0.32-4.096-2.79-3.883-4.735c0.531,1.065,1.355,0.241,2.286,0.665c-0.051-0.61-0.477-0.878-0.983-1.114
		c-0.4,0.024-0.614,0.292-1.035,0.292c-0.373-0.319-0.641-0.825-1.28-1.01c-0.636,0-0.476,0.848-1.251,0.718
		C235.967,71.609,234.426,70.364,233.576,72.089z M244.162,74.857c0.824-0.798,0.53-3.139-0.688-3.19
		C242.832,72.622,243.015,74.54,244.162,74.857z M223.97,75.391c0.346,0.319,0.932,0.319,1.572,0.319
		c0-0.24,0.047-0.319,0.152-0.479C225.168,74.884,223.996,73.98,223.97,75.391z M213.779,78.424c-0.263,1.408,0,2.502-0.155,3.99
		c-0.747,0.692-1.544,1.221-1.382,2.447c-0.748,0.717-2.288,0.61-2.743,1.595c1.839,1.012,4.978,1.091,6.173-0.455
		c0.186-0.981-0.235-2.604,0.854-2.738c1.805,0.371,0.234,4.069,2.02,4.497c0.508-0.879,0.348-3.167,0-4.019
		c0.665-0.425,0.665-1.435,1.574-1.648c0.102,0.479-0.322,1.49,0.262,1.49c0.583-0.348,0.503-1.81,0.159-2.287
		c-1.196-0.268-1.196,0.584-2.154,0.584c-0.533-1.411-2.024-1.488-3.327-0.745c-0.476-0.878-0.156-1.783-0.264-3.111
		c-1.065-0.4-1.385-1.467-1.755-2.21C212.506,77.014,213.41,77.785,213.779,78.424z M237.565,87.016
		c1.011-0.293,1.757-0.851,2.472-1.438C239.215,85.021,237.565,85.818,237.565,87.016z"
    />
    <path
      fill-rule="evenodd"
      clip-rule="evenodd"
      fill="#6A005F"
      d="M162.31,49.027c0.878-0.132,1.142-1.145,2.311-0.985
		c1.813,0.134,2.238,5.029,2.449,7.448c0.324,4.256-0.053,15.698-4.311,11.896c-0.105-0.933,0.059-1.572,0.271-2.157
		c-2.026-1.197-6.069-2.102-9.605-2.447c-1.782-0.134-4.286,0.106-3.594-2.29c0.562-1.915,5.056-0.689,6.889-0.451
		c2.85,0.479,4.497,0.96,6.731,1.597c0.478-0.373,0.216-1.464,0.45-2.154c-1.67-1.25-7.338-2.739-11.037-2.981
		c-1.81-0.13-3.615,0.08-3.615-1.728c0-0.823,0.638-1.064,1.169-1.597c5.157,0.081,9.336,1.093,13.196,2.421
		c1.063-3.613-3.672-4.069-6.336-4.733c-2.658-0.614-5.373-0.746-7.447-0.982c-1.168-0.587-1.062-2.955,0.718-3.009
		C153.851,46.792,160.151,48.042,162.31,49.027z"
    />
    <path
      fill-rule="evenodd"
      clip-rule="evenodd"
      fill="#6A005F"
      d="M140.523,89.756c-3.193-4.151,7.021-3.727,8.297-5.879
		c-1.406-0.721-3.4-1.066-5.293-1.303c-1.939-0.266-3.938-0.479-5.744-0.479c0.131,2.873,1.409,7.77-1.677,8.647
		c-2.183,0.555-8.883-0.054-9.202-1.598c-0.669-3.539,5.106-1.225,7.712-1.569c0.688-1.545,0.08-4.123-0.426-5.48
		c-5.133-0.427-10.053,0.558-14.313,1.49c1.276,1.994,5.003,1.49,5.296,3.432c0.72,4.28-6.677-0.054-7.744-0.745
		c-4.039-2.315-6.996-5.001-9.896-8.889c-1.14-1.511-3.457-4.439-3.297-5.981c0.161-1.545,3.539-2.421,5.747-3.008
		c12.905-3.482,27.773-4.814,42.138-1.887c1.944,0.397,4.179,1.144,6.437,1.887c1.891,0.587,5.402,1.358,5.642,2.713
		c0.294,1.784-3.009,5.985-3.751,7.025c-3.274,4.39-6.649,7.127-11.734,9.443C146.322,88.637,143.608,89.833,140.523,89.756z
		 M108.225,72.386c1.944,3.695,4.683,6.517,7.771,9.043c2.079-0.745,4.335-1.356,6.756-1.729c-0.957-0.907-2.157-1.435-3.461-2.449
		c-0.951-0.716-2.814-1.781-2.734-3.27c0.129-1.57,3.484-2.371,5.745-2.875c7.526-1.674,16.359-1.461,23.541,0.106
		c2.235,0.533,6.016,1.12,6.016,2.901c0,1.01-1.706,2.475-2.608,3.137c-1.225,1.014-2.609,1.119-3.407,2.449
		c2.662,0.187,4.683,1.038,6.862,1.729c3.249-2.263,5.691-5.321,7.446-9.043C146.478,66.666,122.085,67.063,108.225,72.386z
		 M121.741,74.857c5.585,4.871,19.208,4.871,24.792,0C139.882,72.678,128.366,72.678,121.741,74.857z"
    />
    <path
      fill="#6A005F"
      d="M38.85,174.001c0-0.319-0.136-0.717-0.267-1.33c-0.159-0.557-0.291-0.98-0.451-1.142
		c-0.237-0.372-0.695-0.64-1.409-0.745c-0.697-0.106-1.543-0.188-2.608-0.188H18.873v-1.303l16.996-12.558H25.15
		c-1.194,0-2.1,0.054-2.738,0.214c-0.666,0.135-1.117,0.347-1.387,0.718c-0.211,0.213-0.424,0.694-0.584,1.382
		c-0.213,0.691-0.32,1.144-0.32,1.357h-1.012v-8.484h1.012c0.055,0.265,0.107,0.717,0.32,1.304c0.16,0.639,0.32,1.011,0.427,1.169
		c0.268,0.35,0.69,0.612,1.223,0.692c0.585,0.135,1.546,0.238,2.927,0.238h10.216c0.424,0,0.879-0.104,1.33-0.265
		c0.477-0.159,0.795-0.344,1.062-0.613c0.321-0.396,0.587-0.876,0.827-1.435c0.239-0.584,0.347-1.091,0.398-1.49h1.01v5.959
		l-15.857,11.652h9.898c1.202,0,2.155-0.03,2.794-0.213c0.663-0.107,1.093-0.374,1.306-0.692c0.185-0.265,0.369-0.665,0.529-1.305
		s0.268-1.115,0.319-1.41h1.01v8.485H38.85z"
    />
    <path
      fill="#6A005F"
      d="M20.814,197.704l-0.906-8.564l1.037-0.106c0.136,0.743,0.296,1.386,0.508,1.86
		c0.157,0.48,0.37,0.691,0.638,0.691c0.057,0,0.159-0.025,0.266-0.078c0.108-0.027,0.236-0.055,0.319-0.133l4.469-2.155
		l-0.716-7.263c-0.724-0.213-1.332-0.398-1.838-0.479c-0.533-0.131-1.007-0.267-1.436-0.317c-0.479-0.104-0.798-0.104-1.064-0.161
		c-0.268,0-0.48,0-0.638,0c-0.398,0.057-0.639,0.348-0.824,1.012c-0.129,0.639-0.188,1.303-0.158,2.074l-1.037,0.107l-0.803-7.822
		l1.037-0.052c0.057,0.24,0.137,0.559,0.264,0.957c0.138,0.346,0.297,0.639,0.51,0.851c0.267,0.4,0.584,0.641,0.878,0.854
		c0.291,0.186,0.72,0.344,1.25,0.507c2.713,0.771,5.749,1.569,9.098,2.552c3.354,0.902,6.334,1.728,8.991,2.473l0.109,1.144
		l-17.161,8.726c-0.345,0.133-0.664,0.347-0.878,0.558c-0.212,0.215-0.427,0.506-0.582,0.879c-0.108,0.24-0.216,0.531-0.244,0.88
		c-0.081,0.373-0.081,0.665-0.081,0.929L20.814,197.704z M28.371,188.553l7.742-3.936l-8.328-2.287L28.371,188.553z"
    />
    <path
      fill="#6A005F"
      d="M45.5,219.438c-0.054-0.239-0.214-0.664-0.481-1.196c-0.262-0.479-0.534-0.851-0.716-1.063
		c-0.292-0.268-0.822-0.399-1.542-0.399c-0.669,0.026-1.569,0.159-2.61,0.399l-14.869,3.272l-0.266-1.227l13.911-15.961
		l-10.479,2.288c-1.173,0.239-2.048,0.533-2.635,0.823c-0.607,0.322-1.011,0.64-1.224,0.989c-0.161,0.264-0.268,0.768-0.268,1.461
		c-0.051,0.771-0.051,1.248,0,1.408l-1.007,0.267l-1.863-8.327l1.012-0.237c0.105,0.265,0.318,0.664,0.613,1.248
		c0.291,0.589,0.506,0.903,0.688,1.04c0.347,0.317,0.771,0.426,1.357,0.426c0.581,0,1.546-0.108,2.874-0.426l9.975-2.21
		c0.452-0.107,0.878-0.265,1.305-0.504c0.373-0.267,0.664-0.557,0.847-0.849c0.268-0.402,0.427-0.987,0.534-1.573
		c0.054-0.667,0.082-1.171,0.028-1.515l1.007-0.213l1.304,5.772l-12.979,14.871l9.631-2.185c1.225-0.264,2.069-0.504,2.713-0.826
		c0.611-0.265,0.956-0.557,1.118-0.929c0.103-0.293,0.21-0.796,0.235-1.408c0.029-0.639,0.029-1.143-0.025-1.409l1.01-0.267
		l1.839,8.273L45.5,219.438z"
    />
    <path
      fill="#6A005F"
      d="M51.991,231.647c-0.158-0.237-0.374-0.53-0.61-0.824c-0.266-0.29-0.507-0.531-0.723-0.744
		c-0.29-0.239-0.555-0.371-0.844-0.293c-0.271,0.029-0.589,0.107-0.858,0.293l-10.692,6.12c-0.555,0.316-1.197,0.557-1.965,0.663
		c-0.748,0.135-1.491,0.135-2.237,0c-0.849-0.213-1.647-0.503-2.394-1.01c-0.691-0.506-1.305-1.253-1.838-2.13
		c-0.77-1.329-1.066-2.662-0.77-4.015c0.318-1.304,1.064-2.316,2.418-3.063c0.537-0.314,1.146-0.477,1.783-0.477
		c0.586,0.056,1.066,0.372,1.439,0.956c0.238,0.533,0.345,0.957,0.213,1.438c-0.055,0.479-0.373,0.853-0.823,1.146
		c-0.291,0.159-0.616,0.265-0.936,0.319c-0.319,0.052-0.61,0.052-0.9,0.052c-0.296-0.026-0.587-0.026-0.959-0.026
		c-0.347-0.025-0.663,0-0.907,0.026c-0.157,0.321-0.264,0.744-0.264,1.277c0,0.505,0.185,1.037,0.529,1.674
		c0.378,0.641,0.854,1.041,1.333,1.254c0.504,0.238,1.065,0.315,1.648,0.238c0.533-0.054,1.173-0.238,1.867-0.531
		c0.688-0.32,1.434-0.64,2.207-1.093l9.547-5.507c0.266-0.187,0.504-0.371,0.64-0.533c0.161-0.237,0.213-0.527,0.213-0.927
		c-0.029-0.347-0.136-0.747-0.266-1.196c-0.163-0.429-0.321-0.748-0.452-1.042l0.931-0.503l4.551,7.927L51.991,231.647z"
    />
    <path
      fill="#6A005F"
      d="M44.676,255.432l-5.671-7.42l0.803-0.641c0.21,0.185,0.48,0.504,0.772,0.878
		c0.345,0.347,0.611,0.61,0.771,0.745c0.32,0.158,0.584,0.214,0.849,0.214c0.269-0.056,0.562-0.163,0.853-0.372l11.967-9.154
		c0.271-0.187,0.485-0.397,0.616-0.638c0.105-0.212,0.105-0.533,0-0.956c-0.106-0.318-0.237-0.692-0.422-1.091
		c-0.194-0.401-0.352-0.691-0.509-0.958l0.824-0.641l5.666,7.425l-0.849,0.637c-0.158-0.237-0.426-0.479-0.721-0.771
		c-0.291-0.319-0.581-0.558-0.877-0.745c-0.264-0.213-0.582-0.293-0.878-0.239c-0.294,0.054-0.557,0.184-0.824,0.371l-11.946,9.151
		c-0.234,0.186-0.449,0.397-0.559,0.667c-0.105,0.293-0.13,0.557-0.055,0.953c0.083,0.163,0.245,0.533,0.429,0.907
		c0.215,0.45,0.401,0.8,0.586,1.037L44.676,255.432z"
    />
    <path
      fill="#6A005F"
      d="M80.403,262.8c-0.216-0.186-0.586-0.426-1.066-0.719c-0.533-0.266-0.904-0.427-1.221-0.479
		c-0.428-0.053-0.908,0.106-1.494,0.507c-0.528,0.452-1.222,1.036-1.909,1.811l-10.54,11.011l-0.903-0.875l2.606-20.991
		l-7.393,7.741c-0.827,0.903-1.41,1.569-1.758,2.183c-0.318,0.56-0.452,1.089-0.425,1.459c0,0.351,0.208,0.801,0.588,1.411
		c0.37,0.613,0.634,1.01,0.797,1.174l-0.693,0.743l-6.199-5.907l0.747-0.716c0.184,0.188,0.557,0.397,1.143,0.69
		c0.588,0.32,0.955,0.505,1.169,0.505c0.455,0.027,0.905-0.105,1.383-0.479c0.453-0.318,1.173-0.93,2.078-1.912l7.13-7.425
		c0.264-0.343,0.528-0.663,0.74-1.117c0.185-0.449,0.273-0.823,0.243-1.169c-0.029-0.532-0.187-1.036-0.455-1.598
		c-0.291-0.611-0.528-1.008-0.798-1.328l0.69-0.747l4.312,4.126l-2.445,19.523l6.808-7.13c0.826-0.903,1.438-1.649,1.758-2.183
		c0.315-0.581,0.424-1.061,0.424-1.434c-0.109-0.293-0.318-0.771-0.638-1.305c-0.32-0.533-0.583-0.93-0.795-1.196l0.688-0.745
		l6.117,5.826L80.403,262.8z"
    />
    <path
      fill="#6A005F"
      d="M92.162,284.187c-0.213-0.104-0.538-0.24-0.854-0.426c-0.372-0.159-0.662-0.265-0.929-0.318
		c-0.351,0-0.617,0.026-0.907,0.184c-0.211,0.135-0.448,0.375-0.665,0.694l-0.904,1.33c-0.642,0.98-1.117,1.624-1.303,1.971
		c-0.24,0.372-0.397,0.609-0.504,0.848c-1.438-0.238-2.765-0.557-3.991-1.037c-1.227-0.505-2.396-1.038-3.407-1.701
		c-1.089-0.799-2.021-1.703-2.737-2.792c-0.772-1.119-1.247-2.29-1.489-3.538c-0.243-1.358-0.243-2.688,0.081-4.072
		c0.262-1.384,0.849-2.82,1.808-4.148c0.849-1.331,1.916-2.395,3.112-3.22c1.195-0.823,2.472-1.383,3.801-1.677
		c1.305-0.293,2.666-0.293,4.018-0.029c1.355,0.27,2.686,0.83,3.859,1.625c0.959,0.666,1.757,1.357,2.34,2.104
		c0.531,0.718,0.958,1.385,1.328,2.102l1.011-0.507l0.986,0.693l-3.965,6.09l-0.955-0.69c0.267-0.801,0.478-1.518,0.634-2.368
		c0.214-0.824,0.27-1.597,0.214-2.421c-0.053-0.771-0.262-1.514-0.635-2.181c-0.349-0.665-0.959-1.305-1.701-1.837
		c-0.906-0.558-1.762-0.932-2.69-1.036c-0.931-0.106-1.886,0-2.846,0.373c-0.959,0.318-1.913,0.904-2.819,1.782
		c-0.96,0.824-1.865,1.809-2.715,3.031c-0.717,1.092-1.277,2.207-1.674,3.376c-0.398,1.146-0.561,2.264-0.561,3.301
		c0.026,1.04,0.27,2.051,0.746,2.981c0.475,0.878,1.197,1.676,2.131,2.341c0.74,0.478,1.432,0.848,2.178,0.958
		c0.744,0.157,1.33,0.265,1.701,0.157c0.374-0.397,0.697-0.744,0.986-1.196c0.291-0.425,0.556-0.799,0.742-1.063l0.615-0.957
		c0.266-0.347,0.425-0.668,0.479-0.986c0.105-0.317,0.076-0.664-0.161-0.984c-0.213-0.293-0.475-0.665-0.876-1.008
		c-0.453-0.374-0.772-0.668-1.038-0.8l0.585-0.958l7.579,5.133L92.162,284.187z"
    />
    <path
      fill="#6A005F"
      d="M144.301,287.567c-0.272,0-0.641,0.054-1.171,0.184c-0.532,0.107-0.959,0.242-1.303,0.453
		c-0.348,0.239-0.561,0.716-0.67,1.411c-0.129,0.691-0.209,1.541-0.209,2.552v9.046c0,1.118-0.241,2.127-0.719,2.979
		c-0.505,0.877-1.119,1.57-1.888,2.128c-0.749,0.505-1.573,0.931-2.45,1.114c-0.85,0.267-1.646,0.376-2.449,0.376
		c-1.223,0-2.365-0.162-3.325-0.506c-0.982-0.318-1.78-0.771-2.473-1.331c-0.639-0.56-1.143-1.168-1.437-1.918
		c-0.37-0.716-0.53-1.458-0.53-2.233v-12.233c0-0.399-0.054-0.669-0.159-0.904c-0.104-0.241-0.347-0.454-0.693-0.614
		c-0.214-0.158-0.533-0.292-0.932-0.373c-0.398-0.076-0.716-0.13-0.931-0.13v-1.063h8.621v1.063c-0.269,0-0.614,0.023-1.014,0.106
		c-0.423,0.077-0.714,0.185-0.904,0.238c-0.37,0.081-0.586,0.318-0.663,0.557c-0.133,0.321-0.187,0.641-0.187,0.957v11.442
		c0,0.531,0.054,1.144,0.187,1.729c0.132,0.61,0.373,1.168,0.718,1.729c0.396,0.53,0.903,0.956,1.569,1.276
		c0.665,0.345,1.515,0.559,2.691,0.559c1.06,0,1.966-0.214,2.707-0.559c0.695-0.32,1.303-0.746,1.702-1.304
		c0.373-0.533,0.694-1.091,0.877-1.677c0.133-0.584,0.24-1.117,0.24-1.729v-8.488c0-1.114-0.107-1.995-0.24-2.685
		c-0.183-0.664-0.396-1.144-0.663-1.356c-0.371-0.24-0.851-0.428-1.411-0.585c-0.615-0.104-1.061-0.211-1.381-0.211v-1.063h8.487
		V287.567z"
    />
    <path
      fill="#6A005F"
      d="M168.427,277.033c-0.24,0.157-0.613,0.369-1.033,0.743c-0.486,0.399-0.801,0.69-0.961,0.931
		c-0.213,0.347-0.238,0.853-0.053,1.518c0.135,0.717,0.427,1.54,0.847,2.5l6.093,13.938l-1.194,0.56l-18.302-10.562l4.282,9.815
		c0.45,1.093,0.876,1.917,1.304,2.421c0.398,0.586,0.8,0.877,1.173,0.985c0.317,0.134,0.821,0.134,1.513,0
		c0.723-0.079,1.199-0.188,1.409-0.266l0.425,0.955l-7.845,3.436l-0.425-0.988c0.265-0.104,0.609-0.397,1.143-0.824
		c0.477-0.373,0.771-0.69,0.877-0.848c0.213-0.375,0.242-0.883,0.134-1.465c-0.104-0.56-0.425-1.41-0.958-2.714l-4.096-9.364
		c-0.214-0.398-0.428-0.824-0.744-1.144c-0.322-0.321-0.637-0.558-1.013-0.69c-0.425-0.11-0.986-0.24-1.599-0.188
		c-0.662,0.051-1.169,0.134-1.512,0.294l-0.4-0.984l5.427-2.368l17.023,9.842l-3.935-9.07c-0.48-1.091-0.932-1.915-1.33-2.473
		c-0.402-0.562-0.775-0.854-1.146-0.906c-0.344-0.106-0.772-0.106-1.437,0c-0.611,0.107-1.091,0.239-1.406,0.345l-0.401-0.984
		l7.739-3.325L168.427,277.033z"
    />
    <path
      fill="#6A005F"
      d="M189.228,289.056l-8.404,4.098l-0.453-0.934c0.242-0.105,0.559-0.344,1.013-0.557
		c0.424-0.267,0.72-0.507,0.849-0.641c0.216-0.29,0.375-0.557,0.399-0.823c0.026-0.267-0.024-0.584-0.184-0.877l-6.655-13.515
		c-0.102-0.319-0.291-0.587-0.476-0.746c-0.213-0.132-0.533-0.186-0.956-0.159c-0.318,0.027-0.694,0.105-1.118,0.159
		c-0.479,0.134-0.8,0.24-1.063,0.348l-0.482-0.932l8.436-4.096l0.453,0.932c-0.266,0.132-0.559,0.347-0.934,0.56
		c-0.342,0.211-0.666,0.451-0.879,0.714c-0.266,0.24-0.422,0.588-0.422,0.881c0,0.237,0.103,0.53,0.208,0.824l6.603,13.513
		c0.131,0.293,0.317,0.533,0.581,0.664c0.214,0.187,0.533,0.239,0.907,0.216c0.213,0,0.558-0.056,1.01-0.216
		c0.43-0.105,0.824-0.238,1.117-0.346L189.228,289.056z"
    />
    <path
      fill="#6A005F"
      d="M199.421,256.416c-0.189,0.21-0.432,0.453-0.643,0.746c-0.211,0.291-0.346,0.635-0.424,0.877
		c-0.131,0.371-0.216,0.688-0.131,1.091c0.051,0.345,0.131,0.798,0.237,1.245c0.476,1.653,1.223,4.155,2.235,7.504
		c1.061,3.381,2.127,6.893,3.242,10.564l-0.931,0.743c-3.458-2.047-6.781-4.018-9.976-5.986c-3.245-1.914-5.398-3.19-6.541-3.882
		c-0.27-0.133-0.561-0.27-0.881-0.348c-0.293-0.024-0.609-0.024-0.982,0c-0.32,0.055-0.64,0.134-0.931,0.266
		c-0.29,0.136-0.561,0.293-0.8,0.398l-0.666-0.796l6.706-5.346l0.691,0.795c-0.585,0.509-1.012,0.959-1.332,1.332
		c-0.315,0.397-0.373,0.693-0.208,0.903c0.051,0.104,0.16,0.212,0.261,0.268c0.134,0.105,0.217,0.187,0.32,0.24
		c0.854,0.528,2.29,1.328,4.283,2.524c1.999,1.251,4.812,2.899,8.486,5.056c-0.587-1.861-1.224-4.071-1.997-6.598
		c-0.798-2.526-1.354-4.23-1.678-5.16c-0.287-0.932-0.531-1.489-0.687-1.756c-0.187-0.319-0.345-0.557-0.452-0.747
		c-0.135-0.186-0.352-0.266-0.614-0.239c-0.262,0-0.531,0.054-0.851,0.188c-0.317,0.136-0.641,0.292-0.955,0.479
		c-0.268,0.159-0.535,0.319-0.801,0.504l-0.688-0.824l6.061-4.813L199.421,256.416z"
    />
    <path
      fill="#6A005F"
      d="M222.638,249.659l4.443,4.201l-11.063,13.25l-0.798-0.64c0.187-0.24,0.398-0.584,0.695-0.983
		c0.236-0.427,0.397-0.69,0.422-0.906c0.104-0.293,0.078-0.555,0-0.798c-0.106-0.264-0.319-0.506-0.586-0.717l-11.463-9.604
		c-0.243-0.212-0.506-0.348-0.776-0.398c-0.237-0.079-0.528-0.053-0.896,0.107c-0.273,0.106-0.539,0.345-0.912,0.584
		c-0.372,0.293-0.635,0.532-0.852,0.72l-0.77-0.614l10.295-12.396l3.832,3.221l-0.694,0.848c-0.688-0.343-1.595-0.53-2.606-0.53
		c-1.092-0.029-1.834,0.157-2.26,0.53c-0.241,0.214-0.455,0.479-0.771,0.747c-0.269,0.291-0.586,0.691-0.96,1.091l-2.023,2.528
		l6.279,5.265l1.546-1.783c0.452-0.557,0.769-1.036,0.902-1.381c0.105-0.375,0.105-0.772,0-1.144
		c-0.054-0.372-0.24-0.747-0.53-1.197c-0.265-0.402-0.531-0.77-0.803-1.094l0.695-0.824l6.224,5.217l-0.665,0.797
		c-0.401-0.214-0.85-0.478-1.354-0.665c-0.48-0.212-0.906-0.319-1.227-0.346c-0.479,0-0.906,0.104-1.225,0.346
		c-0.37,0.188-0.714,0.558-1.116,1.092l-1.544,1.755l4.844,3.991c0.48,0.423,0.85,0.69,1.198,0.851
		c0.343,0.184,0.664,0.184,0.983,0.159c0.268-0.082,0.61-0.293,0.955-0.587c0.267-0.29,0.693-0.799,1.248-1.434
		c0.165-0.243,0.459-0.507,0.777-0.959c0.368-0.346,0.635-0.718,0.818-1.038c0.244-0.294,0.403-0.691,0.587-1.062
		c0.187-0.321,0.241-0.643,0.187-0.854c0-0.667-0.264-1.464-0.714-2.501c-0.402-0.959-0.75-1.621-0.986-2.047L222.638,249.659z"
    />
    <path
      fill="#6A005F"
      d="M239.879,230.292l-2.659,4.841c-2.313,0.214-4.34,0.399-6.041,0.64c-1.702,0.159-3.51,0.427-5.373,0.743
		l-1.035,1.865l5.772,3.138c0.317,0.157,0.61,0.265,0.85,0.293c0.321,0,0.587-0.08,0.879-0.32c0.157-0.134,0.347-0.399,0.608-0.743
		c0.268-0.322,0.479-0.667,0.615-0.96l0.931,0.506l-4.202,7.741l-0.906-0.503c0.107-0.214,0.214-0.533,0.397-0.961
		c0.188-0.397,0.241-0.663,0.266-0.849c0.03-0.32-0.024-0.563-0.187-0.829c-0.156-0.236-0.396-0.423-0.688-0.634l-13.25-7.184
		c-0.266-0.106-0.585-0.214-0.853-0.267c-0.291-0.054-0.582,0.053-0.851,0.267c-0.211,0.213-0.425,0.48-0.664,0.771
		c-0.265,0.293-0.504,0.557-0.613,0.799l-0.93-0.455l4.602-8.483c0.426-0.773,0.855-1.49,1.387-1.996
		c0.529-0.611,1.117-1.091,1.78-1.487c0.611-0.35,1.304-0.507,2.052-0.533c0.687,0,1.461,0.156,2.229,0.61
		c0.723,0.4,1.28,0.853,1.699,1.356c0.434,0.479,0.725,1.037,0.908,1.702c0.163,0.586,0.214,1.226,0.214,1.916
		c-0.051,0.637-0.161,1.385-0.315,2.128c1.701-0.24,3.137-0.453,4.254-0.583c1.117-0.16,2.498-0.375,4.151-0.587
		c0.716-0.106,1.304-0.238,1.674-0.373c0.45-0.214,0.771-0.371,1.093-0.611c0.266-0.189,0.476-0.427,0.745-0.717
		c0.233-0.297,0.395-0.561,0.53-0.747L239.879,230.292z M222.59,229.651c-1.117-0.609-2.157-0.771-3.17-0.476
		c-0.956,0.29-1.778,1.038-2.39,2.181l-1.224,2.207l7.87,4.206l0.906-1.68c0.639-1.171,0.798-2.367,0.48-3.565
		C224.718,231.304,223.893,230.4,222.59,229.651z"
    />
    <path
      fill="#6A005F"
      d="M234.535,212.549c0.584-0.318,1.168-0.478,1.781-0.531c0.637-0.054,1.304,0,2.045,0.213
		c1.812,0.426,3.087,1.465,3.889,3.085c0.795,1.623,0.955,3.378,0.448,5.349c-0.237,0.849-0.608,1.755-1.093,2.578
		c-0.529,0.88-1.062,1.493-1.648,2.049l0.882,0.878l-0.295,1.169l-6.914-1.62l0.318-1.146c0.905,0,1.7-0.105,2.499-0.266
		c0.773-0.104,1.492-0.346,2.235-0.69c0.693-0.374,1.274-0.854,1.782-1.384c0.507-0.585,0.85-1.277,1.092-2.182
		c0.156-0.641,0.242-1.277,0.185-1.757c-0.028-0.557-0.185-0.983-0.427-1.355c-0.238-0.429-0.555-0.743-0.876-1.013
		c-0.423-0.237-0.902-0.45-1.433-0.61c-0.804-0.16-1.627-0.16-2.425,0.104c-0.827,0.297-1.515,0.854-2.1,1.653
		c-0.429,0.558-0.878,1.169-1.385,1.915c-0.478,0.664-0.957,1.327-1.382,1.86c-0.797,0.985-1.677,1.648-2.688,2.075
		c-0.986,0.427-2.155,0.451-3.457,0.13c-0.773-0.206-1.438-0.581-2.05-1.061c-0.557-0.504-1.036-1.037-1.386-1.784
		c-0.367-0.664-0.582-1.435-0.661-2.204c-0.08-0.854-0.03-1.651,0.187-2.478c0.264-0.904,0.581-1.725,1.061-2.364
		c0.479-0.665,0.957-1.252,1.547-1.705l-0.854-0.88l0.264-1.167l6.733,1.646l-0.293,1.174c-0.8,0-1.596,0.025-2.368,0.104
		c-0.771,0.08-1.461,0.24-2.16,0.507c-0.66,0.267-1.189,0.663-1.696,1.172c-0.479,0.506-0.799,1.142-1.065,1.992
		c-0.217,0.933-0.107,1.785,0.267,2.528c0.426,0.771,1.063,1.277,1.862,1.517c0.876,0.24,1.646,0.188,2.34-0.056
		c0.689-0.237,1.305-0.741,1.863-1.38c0.502-0.611,0.958-1.225,1.384-1.836c0.423-0.613,0.85-1.17,1.278-1.729
		c0.37-0.479,0.797-0.985,1.248-1.414C233.522,213.215,234,212.813,234.535,212.549z"
    />
    <path
      fill="#6A005F"
      d="M246.875,198.771l-1.275,9.259l-1.038-0.137c0.028-0.318,0.053-0.662,0.079-1.168
		c0.051-0.507,0.027-0.826-0.026-1.092c-0.078-0.293-0.237-0.559-0.426-0.748c-0.186-0.184-0.505-0.289-0.879-0.344l-14.926-1.994
		c-0.344-0.027-0.607,0-0.846,0c-0.242,0.105-0.51,0.319-0.692,0.717c-0.136,0.266-0.32,0.586-0.454,1.037
		c-0.157,0.4-0.316,0.773-0.37,1.066l-1.013-0.133l1.279-9.259l1.008,0.134c-0.024,0.267-0.024,0.638-0.024,1.064
		c0,0.45,0.024,0.798,0.08,1.141c0.08,0.349,0.235,0.613,0.478,0.801c0.238,0.158,0.533,0.266,0.848,0.266l14.899,2.075
		c0.321,0.054,0.585,0,0.85-0.08c0.296-0.104,0.538-0.348,0.696-0.69c0.105-0.16,0.264-0.48,0.396-0.906
		c0.187-0.452,0.265-0.852,0.317-1.17L246.875,198.771z"
    />
    <path
      fill="#6A005F"
      d="M233.68,174.136l-0.051,0.983c-0.376,0.083-0.797,0.24-1.253,0.453c-0.504,0.215-0.983,0.455-1.41,0.691
		c-0.423,0.294-0.849,0.586-1.172,0.957c-0.369,0.319-0.579,0.64-0.635,0.986c-0.053,0.292-0.105,0.666-0.158,1.115
		c0,0.453-0.053,0.903-0.053,1.277l-0.058,0.877l16.628,0.586c0.317,0,0.613-0.025,0.878-0.159c0.321-0.104,0.479-0.374,0.636-0.693
		c0.107-0.155,0.217-0.505,0.374-1.09c0.106-0.555,0.187-0.956,0.213-1.275l1.04,0.028l-0.4,9.813l-1.01-0.051
		c0-0.242-0.057-0.72-0.083-1.253c-0.026-0.585-0.08-0.932-0.187-1.169c-0.104-0.293-0.262-0.588-0.502-0.743
		c-0.239-0.162-0.563-0.243-0.959-0.27l-16.734-0.638l-0.049,0.878c0,0.319,0,0.638,0,1.117c0,0.424,0,0.879,0.049,1.251
		c0.029,0.347,0.217,0.691,0.533,1.063c0.32,0.346,0.72,0.69,1.143,0.983c0.4,0.294,0.881,0.61,1.361,0.852
		c0.478,0.24,0.903,0.398,1.224,0.479l-0.056,1.037l-5.638-0.211l0.688-18.118L233.68,174.136z"
    />
    <path
      fill="#6A005F"
      d="M229.371,151.444c0.027,0.131,0.106,0.424,0.161,0.801c0.159,0.343,0.263,0.636,0.372,0.77
		c0.214,0.397,0.398,0.637,0.507,0.798c0.133,0.133,0.478,0.399,0.982,0.771c1.09,0.826,2.156,1.519,3.249,2.207
		c1.088,0.64,2.494,1.438,4.146,2.448c0.641,0.396,1.143,0.666,1.519,0.747c0.396,0.186,0.929,0.236,1.646,0.236l3.962,0.054
		c0.353,0,0.695-0.054,0.96-0.213c0.211-0.134,0.424-0.368,0.588-0.664c0.106-0.237,0.209-0.609,0.315-1.117
		c0.107-0.534,0.185-0.905,0.215-1.248h1.066l-0.214,9.732l-1.011-0.054c0-0.262-0.057-0.636-0.108-1.196
		c-0.027-0.528-0.107-0.904-0.185-1.142c-0.136-0.376-0.35-0.587-0.563-0.743c-0.262-0.161-0.583-0.217-0.954-0.217l-5.055-0.051
		c-0.161-0.056-0.428,0.051-0.854,0.238c-0.424,0.186-0.901,0.372-1.384,0.638c-1.168,0.585-2.417,1.225-3.721,1.889
		c-1.332,0.694-2.476,1.308-3.433,1.838c-0.559,0.265-0.982,0.53-1.277,0.85c-0.291,0.214-0.508,0.479-0.771,0.798
		c-0.134,0.24-0.268,0.531-0.316,0.85c-0.108,0.321-0.161,0.613-0.188,0.854h-1.014l0.134-8.886h1.068
		c0,1.01,0.049,1.733,0.155,2.181c0.106,0.376,0.268,0.587,0.48,0.613c0.053,0,0.16-0.026,0.267-0.08
		c0.157-0.051,0.374-0.157,0.587-0.24c0.262-0.134,0.582-0.293,0.875-0.451c0.348-0.161,0.666-0.318,0.957-0.506
		c0.883-0.45,1.783-0.877,2.633-1.357c0.856-0.425,1.996-1.064,3.406-1.806c-2.447-1.546-4.338-2.77-5.743-3.592
		c-1.333-0.826-2.157-1.226-2.422-1.226c-0.242,0-0.43,0.053-0.56,0.242c-0.136,0.105-0.213,0.344-0.319,0.609
		c-0.106,0.294-0.161,0.587-0.185,0.93c-0.029,0.323-0.029,0.667-0.083,0.935h-1.062l0.16-7.237H229.371z"
    />
    <g>
      <path
        fill="#6A005F"
        d="M126.235,237.289c-0.769,0-1.409,0.318-1.99,0.956c-0.593,0.612-0.856,1.437-0.856,2.447
			c0,0.88,0.263,1.624,0.803,2.182c0.527,0.563,1.224,0.825,2.018,0.825c0.798,0,1.437-0.263,1.97-0.825
			c0.533-0.558,0.771-1.355,0.771-2.339c0-0.987-0.238-1.757-0.83-2.344C127.646,237.607,126.983,237.289,126.235,237.289z"
      />
      <path
        fill="#6A005F"
        d="M139.352,237.289c-0.746,0-1.386,0.318-1.888,1.035c-0.561,0.827-0.885,2.424-0.885,4.762
			c0,2.316,0.272,3.806,0.806,4.576c0.581,0.799,1.221,1.174,2.017,1.174c0.75,0,1.439-0.375,1.998-1.174
			c0.531-0.771,0.824-2.26,0.824-4.576c0-2.338-0.293-3.855-0.824-4.626C140.841,237.711,140.152,237.289,139.352,237.289z"
      />
      <path
        fill="#6A005F"
        d="M217.24,100.369c-55.326,0-110.716,0-166.044,0c-0.213,0.026-0.161,0.291-0.267,0.454
			c-0.161,21.334,0.081,43.308,0,64.081c-0.161,21.043,2.896,40.063,9.736,55.037c6.703,14.82,17.718,25.486,30.218,34.449
			c12.719,9.022,28.625,13.86,43.309,21.444c14.629-7.635,30.486-12.396,43.147-21.63c12.503-9.045,23.809-19.416,30.434-34.394
			c6.598-15.03,9.573-33.544,9.573-55.2C217.345,143.703,217.507,121.52,217.24,100.369z M89.261,194.618
			c11.281-5.852,22.583-12.288,31.413-20.801c-5.852,1.437-10.532,1.596-15.372,1.542c0.798-1.277,2.125-2.075,3.191-3.111
			c7.447-6.971,15.8-13.62,19.845-24.183c-2.736,0.931-6.173,1.704-9.871,1.704c7.263-9.313,12.984-20.242,16.018-33.732
			c0.131,0,0.291,0,0.424,0c2.98,13.542,8.806,24.342,16.039,33.732c-3.245-0.215-5.959-0.347-9.706-1.807
			c0.157,1.566,0.981,3.055,1.678,4.412c3.586,6.597,9.358,11.835,14.735,16.919c2.18,2.022,4.521,3.807,6.437,6.065
			c-5.959,0.533-8.675,0.054-15.215-1.678c2.125,2.528,4.92,4.392,7.498,6.438c7.026,5.747,15.427,10.03,23.886,14.498
			c0.668,0.348,1.707,0.584,1.971,1.465c-7.018,0.985-14.818,0.452-22.396-1.971c-9.258-3.189-18.035-3.378-24.53,2.688
			c-7.232-5.826-14.389-5.906-25.96-2.848c-6.598,2.051-15.218,2.981-22.161,2.131C87.427,195.125,88.54,194.992,89.261,194.618z
			 M114.931,250.006h-1.729v-10.988c-0.427,0.453-0.986,0.771-1.677,1.117c-0.635,0.45-1.222,0.746-1.782,0.957v-1.621
			c0.982-0.504,1.782-1.066,2.529-1.701c0.74-0.693,1.244-1.281,1.541-1.864h1.117V250.006z M130.308,246.972
			c-0.424,1.063-1.011,1.888-1.756,2.421c-0.801,0.559-1.705,0.852-2.713,0.852c-1.12,0-2.021-0.293-2.715-0.934
			c-0.688-0.582-1.119-1.436-1.273-2.579l1.646-0.16c0.156,0.8,0.452,1.381,0.853,1.73c0.37,0.399,0.903,0.534,1.513,0.534
			c0.504,0,0.985-0.135,1.412-0.375c0.372-0.239,0.692-0.557,0.954-0.982c0.271-0.426,0.484-0.958,0.644-1.626
			c0.187-0.692,0.265-1.382,0.265-2.126c0-0.107,0-0.213,0-0.397c-0.346,0.61-0.798,1.061-1.437,1.382
			c-0.584,0.346-1.252,0.532-1.914,0.532c-1.173,0-2.153-0.452-2.952-1.279c-0.828-0.878-1.254-1.968-1.254-3.35
			c0-1.384,0.426-2.553,1.279-3.432c0.854-0.853,1.914-1.277,3.135-1.277c0.96,0,1.758,0.24,2.559,0.69
			c0.745,0.48,1.332,1.198,1.756,2.158c0.317,0.903,0.559,2.181,0.559,3.936C130.867,244.471,130.625,245.908,130.308,246.972z
			 M143.475,247.053c-0.345,1.01-0.826,1.837-1.515,2.34c-0.666,0.559-1.545,0.852-2.559,0.852c-1.353,0-2.443-0.479-3.213-1.462
			c-0.933-1.144-1.413-3.06-1.413-5.696c0-1.703,0.211-3.029,0.529-4.018c0.352-1.032,0.854-1.806,1.547-2.313
			c0.663-0.61,1.54-0.851,2.55-0.851c0.75,0,1.413,0.134,1.998,0.425c0.561,0.266,1.041,0.746,1.41,1.305
			c0.375,0.61,0.638,1.275,0.851,2.104c0.212,0.82,0.318,1.938,0.318,3.348C143.979,244.711,143.793,246.066,143.475,247.053z
			 M157.063,250.006h-9.305c0-0.4,0.053-0.854,0.213-1.17c0.241-0.641,0.635-1.304,1.168-1.891c0.506-0.639,1.254-1.305,2.239-2.154
			c1.512-1.277,2.549-2.208,3.106-2.979c0.533-0.72,0.829-1.386,0.829-2.073c0-0.67-0.267-1.251-0.77-1.702
			c-0.48-0.479-1.119-0.747-1.92-0.747c-0.825,0-1.49,0.268-1.996,0.772c-0.477,0.506-0.741,1.196-0.741,2.046l-1.81-0.156
			c0.157-1.305,0.586-2.344,1.381-3.035c0.801-0.717,1.861-1.011,3.224-1.011c1.353,0,2.419,0.346,3.188,1.092
			c0.796,0.772,1.193,1.7,1.193,2.791c0,0.533-0.102,1.146-0.343,1.677c-0.236,0.531-0.636,1.118-1.145,1.729
			c-0.528,0.586-1.436,1.384-2.686,2.447c-1.032,0.854-1.699,1.488-1.992,1.758c-0.27,0.343-0.529,0.637-0.717,0.982h6.882V250.006z
			 M142.839,210.792l0.449,3.728h-16.119l0.477-3.728H77.103l6.306-7.739c5.346-0.294,15.665-1.65,24.501-4.949
			c17.183-6.438,27.612,2.395,27.612,2.395c8.218-6.89,18.542-5.456,28.093-1.94c8.987,3.298,22.744,4.309,22.744,4.309l5.928,7.926
			H142.839z"
      />
    </g>
  </g>
</svg>
