<?xml version="1.0" encoding="UTF-8" standalone="no"?>
<!DOCTYPE svg PUBLIC "-//W3C//DTD SVG 1.1//EN" "http://www.w3.org/Graphics/SVG/1.1/DTD/svg11.dtd">
<svg width="100%" height="100%" viewBox="0 0 135 43" version="1.1" xmlns="http://www.w3.org/2000/svg" xmlns:xlink="http://www.w3.org/1999/xlink" xml:space="preserve" xmlns:serif="http://www.serif.com/" style="fill-rule:evenodd;clip-rule:evenodd;stroke-linejoin:round;stroke-miterlimit:2;">
    <g transform="matrix(1,0,0,1,-20.6953,-79.04)">
        <path d="M81.49,79.183C84.263,79.321 87.911,79.218 90.751,79.22L90.768,95.967L120.409,95.838C120.489,104.297 120.23,113.09 120.251,121.656C118.197,121.448 113.036,121.588 110.84,121.689C110.866,116.143 110.849,110.598 110.789,105.053C100.97,105.108 91.15,105.089 81.33,104.997C81.138,101.122 81.362,97.344 81.431,93.479C81.476,88.714 81.495,83.948 81.49,79.183Z" style="fill:rgb(175,55,50);fill-rule:nonzero;"/>
    </g>
    <g transform="matrix(1,0,0,1,-20.6953,-79.04)">
        <path d="M50.28,79.177C53.204,79.303 56.742,79.217 59.713,79.222C59.468,93.073 59.699,107.645 59.696,121.556C56.599,121.665 53.399,121.573 50.259,121.668L50.28,79.177Z" style="fill:rgb(175,55,50);fill-rule:nonzero;"/>
    </g>
    <g transform="matrix(1,0,0,1,-20.6953,-79.04)">
        <path d="M20.852,79.118C23.089,79.347 27.735,79.226 30.151,79.232C30.18,83.326 30.393,120.879 29.98,121.564C27.015,121.757 23.867,121.45 20.857,121.714C20.55,108.052 20.757,92.854 20.852,79.118Z" style="fill:rgb(175,55,50);fill-rule:nonzero;"/>
    </g>
    <g transform="matrix(1,0,0,1,-20.6953,-79.04)">
        <path d="M66.026,93.967C68.878,94.09 72.511,93.981 75.422,93.977C75.439,103.162 75.263,112.481 75.453,121.648L66.011,121.641L66.026,93.967Z" style="fill:rgb(95,124,153);fill-rule:nonzero;"/>
    </g>
    <g transform="matrix(1,0,0,1,-45.6753,-79.1179)">
        <path d="M170.73,93.965C173.816,94.012 176.902,94 179.988,93.93L179.989,121.655L170.71,121.715C170.67,112.465 170.676,103.214 170.73,93.965Z" style="fill:rgb(95,124,153);fill-rule:nonzero;"/>
    </g>
    <g transform="matrix(1,0,0,1,-63.2982,-79.1915)">
        <path d="M170.73,93.965C173.816,94.012 176.902,94 179.988,93.93L179.989,121.655L170.71,121.715C170.67,112.465 170.676,103.214 170.73,93.965Z" style="fill:rgb(95,124,153);fill-rule:nonzero;"/>
    </g>
    <g transform="matrix(0.388677,0,0,1.99628,28.9088,-200.172)">
        <path d="M81.652,112.372C82.785,112.526 87.995,112.458 89.352,112.457L105.432,112.421C105.443,115.472 105.485,118.576 105.375,121.62C97.437,121.525 89.354,121.754 81.447,121.548C81.447,119.733 81.34,113.819 81.652,112.372Z" style="fill:rgb(175,55,50);fill-rule:nonzero;"/>
    </g>
    <g transform="matrix(1,0,0,1,-20.6953,-79.04)">
        <path d="M90.751,79.22C97.226,79.619 113.455,79.246 120.245,79.246L120.259,88.343C113.972,87.938 97.474,88.241 90.76,88.238L90.751,79.22Z" style="fill:rgb(175,55,50);fill-rule:nonzero;"/>
    </g>
    <g transform="matrix(1,0,0,1,-20.6953,-79.04)">
        <path d="M34.012,79.16C37.804,79.343 42.639,79.22 46.512,79.225L46.535,88.026C42.425,88.179 38.218,88.002 34.025,88.161C33.977,85.193 34.013,82.136 34.012,79.16Z" style="fill:rgb(175,55,50);fill-rule:nonzero;"/>
    </g>
    <g transform="matrix(1,0,0,1,-20.6953,-79.04)">
        <path d="M66.001,79.19C68.843,79.315 72.5,79.196 75.403,79.184C75.428,82.145 75.381,85.168 75.367,88.135C74.18,88.404 67.808,88.164 66.037,88.185L66.001,79.19Z" style="fill:rgb(175,55,50);fill-rule:nonzero;"/>
    </g>
    <g transform="matrix(1,0,0,1,-45.6753,-79.1179)">
        <path d="M170.713,79.192C173.469,79.327 177.151,79.225 179.981,79.233L179.973,88.195C177.293,88.119 173.3,87.966 170.718,88.211C170.578,85.311 170.676,82.12 170.713,79.192Z" style="fill:rgb(175,55,50);fill-rule:nonzero;"/>
    </g>
    <g transform="matrix(1,0,0,1,-63.2982,-79.1915)">
        <path d="M170.713,79.192C173.469,79.327 177.151,79.225 179.981,79.233L179.973,88.195C177.293,88.119 173.3,87.966 170.718,88.211C170.578,85.311 170.676,82.12 170.713,79.192Z" style="fill:rgb(175,55,50);fill-rule:nonzero;"/>
    </g>
    <g transform="matrix(1,0,0,1,-45.6753,-79.1179)">
        <path d="M170.73,93.965C173.816,94.012 176.902,94 179.988,93.93L179.989,121.655L170.71,121.715C170.67,112.465 170.676,103.214 170.73,93.965Z" style="fill:rgb(95,124,153);fill-rule:nonzero;"/>
    </g>
    <g transform="matrix(1,0,0,1,-63.2982,-79.1915)">
        <path d="M170.73,93.965C173.816,94.012 176.902,94 179.988,93.93L179.989,121.655L170.71,121.715C170.67,112.465 170.676,103.214 170.73,93.965Z" style="fill:rgb(95,124,153);fill-rule:nonzero;"/>
    </g>
    <g transform="matrix(1,0,0,1,-45.6753,-79.1179)">
        <path d="M170.713,79.192C173.469,79.327 177.151,79.225 179.981,79.233L179.973,88.195C177.293,88.119 173.3,87.966 170.718,88.211C170.578,85.311 170.676,82.12 170.713,79.192Z" style="fill:rgb(175,55,50);fill-rule:nonzero;"/>
    </g>
    <g transform="matrix(1,0,0,1,-63.2982,-79.1915)">
        <path d="M170.713,79.192C173.469,79.327 177.151,79.225 179.981,79.233L179.973,88.195C177.293,88.119 173.3,87.966 170.718,88.211C170.578,85.311 170.676,82.12 170.713,79.192Z" style="fill:rgb(175,55,50);fill-rule:nonzero;"/>
    </g>
</svg>
