<svg xmlns="http://www.w3.org/2000/svg" height="166.71" viewBox="0 0 166.708 166.708" width="166.71" xmlns:v="https://vecta.io/nano"><path d="M1.212 83.338c0-45.208 36.646-81.854 81.855-81.854S164.92 38.13 164.92 83.338s-36.647 81.854-81.853 81.854S1.212 128.545 1.212 83.338z" fill="#4e2a84"/><path d="M27.127 27.398C12.808 41.721 3.957 61.489 3.954 83.338c.003 21.852 8.854 41.619 23.173 55.94s34.088 23.17 55.94 23.172 41.617-8.854 55.938-23.172 23.171-34.092 23.171-55.94-8.853-41.618-23.171-55.94C124.684 13.082 104.916 4.229 83.067 4.227s-41.622 8.855-55.94 23.171z" fill="#fff"/><path d="M25.844 82.991c0-31.498 25.534-57.033 57.031-57.033s57.03 25.535 57.032 57.033-25.534 57.032-57.032 57.032-57.031-25.532-57.031-57.032z" fill="#4e2a84"/><path d="M43.517 43.633c-10.072 10.074-16.3 23.985-16.302 39.358s6.23 29.284 16.303 39.358 23.984 16.303 39.357 16.303 29.282-6.229 39.356-16.303 16.303-23.985 16.303-39.358-6.229-29.284-16.303-39.358-23.985-16.301-39.356-16.301-29.283 6.228-39.358 16.301z" fill="#fff"/><path d="M43.004 83.346c0-21.944 17.788-39.729 39.732-39.729s39.728 17.786 39.728 39.729-17.786 39.729-39.728 39.729-39.732-17.787-39.732-39.729z" fill="#4e2a84"/><path d="M55.612 56.223c-6.942 6.945-11.235 16.529-11.235 27.124s4.293 20.179 11.235 27.124 16.528 11.233 27.124 11.233 20.179-4.293 27.121-11.233c6.942-6.945 11.235-16.529 11.235-27.124s-4.293-20.179-11.235-27.124S93.329 44.99 82.736 44.99a38.22 38.22 0 0 0-27.124 11.233z" fill="#fff"/><path d="M77.206 151.3h.029c.011.002.021.008.021.008.424.142 3.049 1.491 3.016 3.307l-.006.164c-.115 1.407-.968 2.325-2.356 2.334-.078 0-.157-.004-.236-.008-1.46-.095-2.434-1.73-2.43-3.148l.008-.219c.078-1.34 1.347-2.468 1.953-2.437zm1.043-5.574a1.39 1.39 0 0 1 .172.01c1.221.093 2.058 1.015 2.061 2.191l-.006.191c-.094 1.127-.722 1.869-1.687 1.871-.046 0-.095 0-.141-.004-1.037-.074-2.325-.989-2.314-2.338l.006-.158c.085-1.084.869-1.758 1.91-1.764zm.141-.83c-1.728 0-3.261 1.273-3.393 3.063a2.36 2.36 0 0 0-.008.209c0 1.021.543 1.971 1.377 2.543-1.305.627-2.238 1.695-2.35 3.234l-.016.334c-.004 2.116 1.541 3.535 3.397 3.666l.355.016h.014c2.109 0 3.742-1.46 3.898-3.643l.01-.318c.004-1.464-.787-2.564-1.988-3.301.997-.454 1.891-1.323 1.984-2.498l.012-.314c.012-1.805-1.249-2.863-3.031-2.981l-.262-.01zm12.881-1.135c-.027 0-.047.004-.059.004-.484.188-.286.627-1.096.732l-2.975.377c-.765.093-.827.578-.818 1.107l-.256 4.494c-.008.026-.005.045-.006.045.01.225.196.338.367.338l.047-.002c.331-.046.877-.272 1.324-.328.21-.029.408-.041.592-.041 2.024.008 2.386 1.494 2.523 2.44l.035.586c-.004 2.02-1.394 3.256-3.088 3.477-.208.023-.391.033-.553.033-.702-.002-.965-.173-1.195-.189-.033 0-.041.006-.041.004-.175 0-.281.207-.27.311 0 .037.008.063.01.08.138.367.683.533 1.766.578a6.58 6.58 0 0 0 .791-.051c3.315-.416 4.191-3.145 4.18-4.945a5.55 5.55 0 0 0-.037-.656c-.251-2.023-1.722-3.297-3.652-3.289a4.71 4.71 0 0 0-.598.039c-.426.053-.826.167-1.217.299l.16-2.334c.027-.363.198-.354.709-.434l1.945-.248c.612-.078 1.002-.029 1.219-.484.119-.288.466-1.368.479-1.662v-.016c-.015-.191-.207-.275-.287-.264zm-21.93-.426c-.236.027-.979.441-2.098.559-.948.123-1.365-.053-1.572.443a.29.29 0 0 0-.012.092.36.36 0 0 0 .252.34.77.77 0 0 0 .166.016l.654-.022c.125-.002.237.007.289.023.314.104.327.173.342.355.002.157-.066.398-.15.689h.002l-2.24 7.891c-.188.607-.473.678-.836.693-.275.002-.563-.078-.805-.082-.14-.011-.351.057-.402.258-.015.037-.021.084-.021.121.016.283.267.347.439.395l2.094.521 1.748.57c.158.041.333.098.504.1h.018c.121 0 .297-.061.346-.234.01-.045.014-.078.014-.111-.078-.451-.524-.422-.863-.605-.363-.168-.656-.36-.662-.9 0-.149.027-.33.088-.547l2.535-8.941c.168-.596.34-.754.443-1.098.012-.055.025-.112.025-.176.011-.108-.062-.287-.227-.336-.004-.003-.024-.011-.043-.014s-.021-.002-.025 0h-.002zm29.236-.846a.35.35 0 0 0-.113.022c-.202.129-.206.273-.469.598-.223.301-.542.688-.959 1.045-.635.57-1.003.657-1.055 1.082 0 .058.013.108.029.158.063.171.219.228.34.23.029 0 .061-.006.092-.016.227-.094.705-.54.914-.604a.69.69 0 0 1 .229-.045c.223-.022.325.242.502.779l2.586 7.623c.051.154.07.287.07.398-.002.375-.238.559-.541.729-.282.186-.654.201-.721.6 0 .049.013.086.022.113.027.137.182.252.314.252h.019c.107-.002.198-.033.299-.066l1.984-.746 1.728-.512c.227-.107.578-.12.643-.498a.27.27 0 0 0-.016-.096c-.054-.177-.246-.267-.381-.256-.31.01-.669.185-1.022.18-.357-.013-.685-.125-.955-.883l-2.928-8.635c-.198-.573-.146-.797-.256-1.133-.043-.113-.12-.306-.357-.32zm-54.586-4.1l.619 2.205-1.924 1.264 2.346.264.734 2.244.844-2.148 2.293.154-1.816-1.473.883-2.398-2.168 1.357-1.81-1.469zm78.885-.482l-1.756 1.537-2.213-1.269.971 2.361-1.756 1.535 2.281-.236.92 2.109.656-2.266 2.336-.352-1.977-1.191.537-2.228zm-46.551-6.318c-2.248-.015-3.219.9-3.219.9s1.311.558 3.266.318c1.061-.128 2.103-.896 2.103-.896s-.217-.306-2.15-.322zm13.141-.119c-1.932-.038-2.156.264-2.156.264s1.019.795 2.074.953c1.953.293 3.275-.229 3.275-.229s-.945-.941-3.193-.988zm-19.102-.74c-1.672.09-2.377.764-2.377.764s1.322.624 3.258.471c1.043-.08 2.047-.811 2.047-.811s-.23-.321-2.15-.424c-.279-.015-.539-.013-.777 0zm24.445-.129c-1.924.05-2.16.365-2.16.365s.98.754 2.022.865c1.93.206 3.269-.381 3.269-.381s-.896-.905-3.131-.85zm-28.387-1.109c-2.245-.08-3.275.803-3.275.803s1.272.596 3.246.414c1.067-.098 2.16-.832 2.16-.832s-.197-.315-2.131-.385zm33.277-.301c-1.936.017-2.141.326-2.141.326s1.075.767 2.139.893c1.969.236 3.254-.322 3.254-.322s-1.004-.913-3.252-.896zm-25.107-1.256c-.065.004-.092.014-.092.014s.303 1.047 1.106 1.574c1.479.976 3.008 1.035 3.008 1.035s-.128-1.139-2.045-2.019c-1.237-.568-1.782-.615-1.977-.604zm16.998-.078c-.194-.017-.739.015-1.992.547-1.941.827-2.103 1.963-2.103 1.963s1.533-.016 3.037-.951c.817-.504 1.15-1.543 1.15-1.543s-.027-.01-.092-.016zm-29.607-.05c-.209-.005-.438.004-.689.031-1.734.189-2.022.563-2.022.563s.708.789 1.615.842c1.681.1 3.014-.658 3.014-.658s-.456-.739-1.918-.777zm43.787-.492c-.277-.012-.624-.009-1.059.022-2.021.145-2.436 1.199-2.436 1.199a5.99 5.99 0 0 0 3.084.109c.885-.214 1.438-1.115 1.438-1.115s-.196-.178-1.027-.215zm-35.293-.49c-.066-.003-.094.004-.094.004s.143 1.066.859 1.674c1.324 1.124 2.844 1.35 2.844 1.35s.046-1.137-1.731-2.215c-1.147-.696-1.682-.803-1.879-.812zm25.398-.266c-.196.005-.733.096-1.9.76-1.807 1.027-1.793 2.166-1.793 2.166s1.525-.183 2.883-1.269c.733-.587.904-1.65.904-1.65s-.028-.007-.094-.006zm-29.678-.727s.045 1.061.713 1.686c1.228 1.155 2.738 1.43 2.738 1.43s.153-1.123-1.537-2.25c-1.456-.968-1.914-.865-1.914-.865zm-10.179-.2c-.821.027-1.022.203-1.022.203s.508.922 1.371 1.15c1.596.427 3.043-.07 3.043-.07s-.363-1.074-2.348-1.248c-.427-.037-.771-.044-1.045-.035zm43.912-.236c-.197.011-.731.12-1.844.816-1.721 1.079-1.6 2.205-1.6 2.205s1.52-.234 2.781-1.353c.684-.607.758-1.664.758-1.664s-.03-.008-.096-.004zm10.123-.215c-.273-.017-.615-.019-1.043.006-1.989.119-2.383 1.184-2.383 1.184s1.434.536 3.039.154c.869-.204 1.402-1.111 1.402-1.111s-.196-.183-1.016-.232zm-48.248-.969s-.001 1.06.641 1.705c1.183 1.196 2.684 1.522 2.684 1.522s.198-1.115-1.445-2.297c-1.418-1.016-1.879-.93-1.879-.93zm42.568-.316c-.197.017-.728.143-1.811.877-1.679 1.135-1.508 2.254-1.508 2.254s1.509-.283 2.725-1.445c.658-.627.688-1.686.688-1.686s-.028-.006-.094 0zm-47.01-2.014s-.116 1.044.455 1.728c1.056 1.27 2.525 1.701 2.525 1.701s.322-1.086-1.197-2.375c-1.311-1.107-1.783-1.055-1.783-1.055zm51.607-.193s-.472-.066-1.812 1.004c-1.556 1.246-1.262 2.344-1.262 2.344s1.48-.393 2.57-1.631c.592-.67.504-1.717.504-1.717zm4.949-.416c-.197-.023-.74-.007-1.928.488-1.16.487-1.593 1.118-1.756 1.518-9.035 4.943-17.61 7.386-25.283 7.662l-.959.133c.348-.658 1.179-1.844.219-2.08-.902-.222-1.526 1.977-1.117 2.203l-.08.012c-.014-.001-.027-.002-.041-.002-.204-.883-.542-2.908-.877-1.889-.103.307-1.586.229.051 1.848-11.559-.498-19.521-3.938-26.102-7.549-.162-.396-.594-1.03-1.772-1.516-1.587-.651-2.022-.457-2.022-.457s.212 1.031.967 1.508c.991.628 2.037.786 2.568.826 6.655 3.655 14.774 7.168 26.584 7.635-.171.569-1.598 1.461-.58 1.625 1.415.229 1.255-1.471 1.891-.801.652.688.462.941.971.686.415-.209-.141-1.134-.736-1.6l1.076-.146c7.739-.276 16.384-2.746 25.477-7.725.522-.041 1.589-.203 2.59-.846.75-.482.953-1.514.953-1.514s-.028-.012-.094-.019zm17.963-.969c-.178.009-.258.125-.324.201-.116.146-.454.67-.959 1.287-.413.506-1.116 1.257-1.295 1.477-.107.135-.212.239-.223.426-.002.098.056.193.121.244.075.061.169.094.256.094.461-.054.739-.539 1.205-.52.187 0 .415.07.709.311l3.385 2.762c.144.107.127.226.299.762l1.432 4.395c.144.443.33.854.328 1.266a1.48 1.48 0 0 1-.016.207c-.007.057-.078.221-.08.398-.002.096.031.224.135.307.076.061.157.08.248.082s.2-.026.283-.123c.338-.413.608-.858.926-1.248.259-.316.598-.615.881-.961.075-.104.164-.215.168-.385.005-.116-.061-.237-.164-.316-.059-.05-.141-.08-.215-.08-.46.07-.776.662-1.103.629-.072 0-.147-.021-.246-.102-.323-.268-.392-.59-.469-.83l-1.147-3.311c-.061-.161-.084-.279-.084-.326.014-.011.041-.02.141-.019a1.46 1.46 0 0 1 .178.012l4.025.504c.205.018.531.046.682.178.069.058.09.121.092.229.004.184-.096.419-.102.65a.37.37 0 0 0 .131.301c.054.047.127.072.197.07.224-.015.32-.165.395-.244.131-.161.369-.564.736-1.012.761-.935 1.022-1.141 1.342-1.531a.39.39 0 0 0 .078-.234c-.002-.133-.055-.262-.164-.354-.049-.044-.12-.073-.189-.072-.422.066-.645.545-1.242.539a1.08 1.08 0 0 1-.162-.014l-5.572-.703c-.268-.021-.688-.057-.877-.221l-3.346-2.731c-.267-.223-.326-.398-.33-.57-.013-.336.302-.652.33-1.022.004-.1-.045-.224-.139-.297-.074-.06-.158-.104-.254-.104zm-101.57-5.506c-.229.02-.4.168-.732.395l-8.387 6.025c-.273.194-.474.248-.633.25-.354.016-.534-.299-.918-.342-.082 0-.166.029-.236.08a.32.32 0 0 0-.141.262c0 .086.035.156.076.217.26.36.762.938 1.109 1.422.324.45.566.911.889 1.359.059.082.157.16.293.162a.35.35 0 0 0 .205-.066c.109-.078.164-.211.16-.322-.022-.389-.346-.794-.338-1.295.002-.376.16-.803.85-1.303l5.934-4.264-2.719 12.391c-.021.086-.109.281-.111.488 0 .085.018.18.076.264.176.239.4.431.537.625.151.207.249.466.432.721.084.101.189.191.373.205.049 0 .111-.012.164-.051a.39.39 0 0 0 .166-.32c-.023-.369-.315-.7-.311-1.213s.28-1.216 1.598-2.166l5.344-3.84c.604-.436 1.027-.565 1.326-.564.597-.015.759.49 1.242.559.083 0 .17-.029.244-.082.049-.039.162-.123.164-.283-.002-.092-.04-.178-.1-.26-.084-.119-.675-.821-1.035-1.322-.505-.702-.73-1.142-.992-1.506a.35.35 0 0 0-.285-.156c-.127.002-.209.062-.26.096-.088.056-.145.176-.141.275.03.37.374.703.361 1.094-.002.224-.09.465-.49.758l-5.924 4.258a1.34 1.34 0 0 1-.15.1c.016-.104.058-.237.07-.297l2.531-11.256c.056-.269.08-.456.08-.604.002-.161-.031-.287-.098-.377-.047-.074-.148-.119-.225-.115zm108.21-5.277c-.157-.002-.261.123-.307.225-.064.126-.141.421-1.068 2.197-.232.444-.526.853-.734 1.246-.031.048-.045.114-.045.166.014.241.223.293.232.307.061.033.127.047.188.047.565-.109.656-.842 1.231-.811.14 0 .32.041.549.162l8.061 4.219.518.271c.079.056.074.058.078.061.011.014-.07.184-.229.475l-1.182 2.26c-.317.592-.56.683-.758.688-.245.008-.48-.192-.783-.211-.142-.009-.295.092-.363.24a.35.35 0 0 0-.049.186c.025.295.276.349.395.406l1.301.582c.146.066.269.115.408.117.24 0 .396-.182.512-.412.171-.326.864-1.805 2.361-4.664l2.41-4.457c.027-.066.049-.123.049-.193-.036-.406-.445-.534-.574-.637l-1.439-.975c-.077-.042-.144-.055-.205-.055-.104 0-.242.039-.314.176a.39.39 0 0 0-.051.193c.019.273.228.375.307.469.461.467.665.678.656.928 0 .159-.075.388-.262.744l-1.334 2.547c-.12.011-.497-.209-.59-.266l-.002-.002-8.217-4.299c-.33-.182-.385-.398-.391-.689-.003-.257.07-.531.072-.77.004-.133-.029-.313-.199-.402-.072-.037-.142-.066-.23-.068zm-14.869-1.93l1.691 2.648-3.014-.555c-.009-.011 0-.022.008-.033l1.314-2.061zm-81.807-3.873a2.9 2.9 0 0 1 2.566 1.459c.336.577.486 1.172.486 1.758.003 1.462-.947 2.881-2.31 3.68-.646.379-1.352.578-2.022.578a2.86 2.86 0 0 1-2.559-1.477 3.43 3.43 0 0 1-.482-1.752c-.003-1.45.927-2.862 2.264-3.643.708-.416 1.412-.604 2.057-.604zm-20.746-.721c1.938.002 3.484 1.045 4.164 2.734.262.652.381 1.295.381 1.922.004 2.426-1.806 4.595-4.187 5.553-.756.305-1.535.461-2.287.461-1.789-.007-3.397-.87-4.16-2.758-.259-.646-.377-1.287-.377-1.91-.002-2.405 1.769-4.581 4.107-5.519.824-.33 1.622-.482 2.359-.482zm100.79-.408c-.079-.005-.19.046-.238.143-.174.272-.311.581-.482.848-.178.277-.405.543-.6.85-.038.072-.138.15-.148.33-.004.113.076.228.18.285.044.029.103.051.158.051.41-.102.458-.486.711-.455a.55.55 0 0 1 .289.104c.105.065.232.202.268.256l1.029 1.596c.035.057.045.096.045.135.002.07-.054.174-.141.311l-1.463 2.287c-.105.15-.138.149-.252.158a1.93 1.93 0 0 1-.262-.029l-1.057-.209c-.352-.072-.985-.178-1.139-.285-.07-.051-.074-.075-.08-.156-.005-.128.077-.317.084-.52.004-.093-.031-.223-.145-.295-.047-.027-.097-.043-.146-.043-.25.031-.298.207-.348.262-.184.292-.32.598-.492.865-.267.418-.578.817-.857 1.252-.022.042-.076.094-.082.219-.007.082.062.189.139.227.043.029.1.051.16.051.469-.111.504-.627 1.023-.615h.029c.474-.002.966.141 1.455.234l6.744 1.256c.048.009.242.076.42.078.081 0 .187-.012.27-.115.038-.056.059-.116.059-.172-.033-.294-.256-.506-1.027-1.748l-3.723-5.877a.85.85 0 0 1-.15-.457c-.002-.189.077-.316.086-.506.008-.076-.04-.202-.135-.256-.054-.033-.111-.057-.182-.057zm-101.59-.94c-.896 0-1.837.182-2.791.568-2.613 1.045-4.084 3.36-4.082 5.9 0 .87.17 1.766.525 2.65 1.06 2.644 3.446 4.28 6.088 4.277a6.72 6.72 0 0 0 2.518-.496c2.688-1.076 4.344-3.242 4.342-5.832 0-.836-.174-1.712-.533-2.607-1.126-2.814-3.395-4.465-6.066-4.461zm23.717-1.357c-.064.002-.134.008-.207.063a.29.29 0 0 0-.156.248c0 .056.021.111.049.156.156.195.505.313.641.555a1.55 1.55 0 0 1 .217.861c0 .055-.002.114-.006.18-.043.75-.061 1.25-.061 1.592-.001.092 0 .174.002.248-.884-.926-2.002-1.436-3.203-1.434-.826 0-1.684.236-2.527.734-1.483.867-2.272 2.313-2.27 3.838 0 .821.226 1.664.689 2.453.885 1.513 2.402 2.383 4.002 2.381.784 0 1.59-.211 2.348-.65 1.4-.82 2.277-2.059 2.4-3.43.248.115.544.18.846.18.295 0 .597-.063.861-.215.116-.067.234-.182.234-.348 0-.078-.023-.148-.062-.213-.062-.106-.186-.141-.266-.137-.239.008-.507.135-.785.133-.238-.006-.443-.066-.648-.402-.209-.349-.273-.978-.271-1.686 0-.634.043-1.331.043-1.973-.002-.708-.047-1.349-.303-1.797-.555-.926-1.17-1.321-1.566-1.338zm98.213-.268c-.214 0-.346.186-.412.418-.087.264-.128.617-.465 1.648-.234.72-.539 1.419-.672 1.826-.044.118-.065.214-.065.301-.017.151.135.297.232.311.042.012.081.018.123.018.381-.041.479-.393.674-.658.191-.284.386-.504.693-.502.078 0 .17.014.275.049l9.103 2.975c.606.217.63.498.646.83 0 .125-.012.25-.012.367-.006.146.033.369.252.447.039.01.078.022.133.022.226-.014.297-.201.359-.4.177-.539.281-1.086.447-1.598.201-.615.47-1.205.678-1.844.015-.053.025-.088.027-.152.005-.169-.159-.271-.266-.293-.026-.011-.066-.02-.1-.018-.354.057-.393.361-.582.59-.172.244-.362.439-.701.441-.098 0-.209-.017-.34-.059v.002l-8.68-2.838c-.869-.303-.905-.654-.922-1.014 0-.124.018-.25.018-.375.011-.15-.046-.391-.273-.461a.52.52 0 0 0-.174-.033zm-13.551-1.988l2.912 1.055c.216.091.197.109.207.178.004.068-.049.223-.121.422-.322.885-.897 1.567-1.762 1.563a2.12 2.12 0 0 1-.713-.135c-.89-.33-1.067-.867-1.076-1.356a1.85 1.85 0 0 1 .115-.631c.094-.267.188-.571.281-.799a1.69 1.69 0 0 1 .131-.264c.01-.014.018-.025.025-.033zm-3.731-3.684c-.107-.004-.239.066-.277.199-.161.444-.274.902-.43 1.332-.35.965-.48 1.186-.529 1.318-.01.039-.051.094-.057.207-.013.094.086.226.184.244.037.015.076.021.113.021.338-.047.396-.331.553-.529.149-.222.299-.383.537-.381.074 0 .158.016.266.055l2.451.885c.157.056.145.031.143.066a.53.53 0 0 1-.031.139c-.53 1.335-.221.976-1.049 1.207l-2.498.557c-.821.199-1.667.461-2.006 1.398-.029.091-.183.481-.187.75 0 .064-.001.203.156.273.035.013.07.022.105.022.532-.181.135-.644 1.627-1.016l3.441-.83c.103.918.662 1.803 1.578 2.137a2.59 2.59 0 0 0 .865.162c1.776-.018 2.299-2.164 2.359-2.289.222-.615.41-1.292.652-1.959.211-.585.217-.471.314-.727a.57.57 0 0 0 .031-.184c-.003-.124-.039-.254-.189-.318-.038-.013-.078-.023-.123-.023-.315.039-.352.295-.467.441-.114.166-.207.277-.445.281-.091 0-.21-.021-.357-.074l-5.912-2.135c-.384-.146-.426-.324-.463-.543-.05-.201.083-.487-.242-.668-.033-.015-.073-.02-.113-.02zm-86.971-1.338c-.737 0-1.361.218-1.592.287l-3.662 1.107c-.181.054-.324.072-.432.072-.471.015-.371-.332-.834-.437-.037 0-.071.006-.105.016-.179.068-.203.211-.209.32a.38.38 0 0 0 .012.088c.074.235.184.434.244.635.137.449.228.924.371 1.397.069.148.132.181.295.207.016 0 .035 0 .066-.008.221-.062.286-.291.273-.428 0-.129-.018-.258-.018-.381.016-.262.03-.46.574-.645l3.83-1.156c.391-.121.797-.197 1.188-.195.956.011 1.811.423 2.285 1.945.106.36.164.716.164 1.051-.009 1.083-.563 1.965-1.951 2.394l-4.242 1.281c-.096.028-.173.039-.234.039-.187-.004-.246-.083-.34-.217-.093-.114-.13-.339-.418-.371-.037 0-.071.008-.1.016-.159.047-.195.215-.189.293.002.155.066.306.072.334.116.381.275.745.387 1.109.092.303.135.61.23.936.061.09.052.28.346.348.018 0 .036.001.063-.008.234-.073.273-.311.268-.453-.002-.115-.014-.234-.012-.34.013-.223.019-.324.25-.404l3.984-1.201c1.461-.432 2.85-1.297 2.844-3.254 0-.505-.091-1.079-.289-1.736-.633-2.122-2.019-2.652-3.119-2.641zm-24.353-.42c1.604-.002 2.036 1.295 2.152 1.959.084.531.217 1.166.215 1.533 0 .101-.011.18-.025.217l.006.014-4.475.699c-.07.012-.133.018-.186.018-.338 0-.319-.171-.428-.775a5.23 5.23 0 0 1-.068-.83c.016-1.37.561-2.511 2.269-2.789.194-.03.374-.045.539-.045zm133.86-3.258c-.022 0-.042 0-.057.002l-2.336.061c-.581.129-1.356 1.591-1.631 2.955a8.7 8.7 0 0 0-.133 1.494c-.009 2.957 1.782 4.137 3.129 4.352a4.56 4.56 0 0 0 .734.061c2.077-.002 3.025-1.647 3.777-3.189.757-1.576 1.373-3.027 2.596-3.002a1.78 1.78 0 0 1 .311.025c1.247.209 1.716 1.238 1.727 2.381 0 .224-.02.454-.057.674-.254 1.492-1.179 2.569-2.707 2.838-.159.051-.598.02-.73.422-.01.022-.008.063-.008.08-.004.259.255.355.402.355l2.436.137c.017 0 .03.002.053.002h.033c.201 0 .367-.166.375-.314v-.066c-.027-.246-.155-.323-.141-.332h.008c-.027-.084.78-.727 1.127-2.853a6.19 6.19 0 0 0 .076-.936c.01-1.749-.88-3.396-2.875-3.723-.234-.042-.457-.061-.668-.061-1.99.006-2.894 1.659-3.637 3.205-.749 1.577-1.383 3.034-2.647 3.012-.104 0-.214-.009-.328-.029-1.482-.249-2.14-1.491-2.148-2.869 0-.234.023-.467.063-.701.386-2.331 2.312-3.039 3.102-3.113.319-.021.699.033.789-.381.002-.041.002-.053.002-.066-.015-.307-.314-.418-.637-.418zm-21.281-2.492c-.213.002-.291.214-.295.314-.076.496-.12 1.016-.184 1.5-.116.918-.332 1.831-.479 2.769-.035.211-.068.389-.068.57-.004.271.092.535.336.824.28.348.672.767 1.193.854.055-.002.057.002.057.002.054 0 .245.001.303-.219l.016-.115-.059-.037c-.083-.18-.229-.235-.395-.551-.19-.337-.391-.87-.391-1.752 0-.327.027-.705.096-1.133.128-.691.193-.688.402-.705.126 0 .314.039.559.076l2.246.35c.216.033.219.028.215.049 0 .013-.002.025-.004.037l-.279 1.805c-.085.441-.247.465-.498.51-.058.013-.127.012-.197.012-.2-.003-.43-.002-.529.301-.012.004-.006.048-.008.057-.011.158.152.293.287.297.337.055.66.077.969.127.383.059.796.146 1.228.215.026.002.057.008.092.008.104 0 .304-.023.357-.248l.004-.035-.008-.033h-.002c-.078-.323-.334-.28-.482-.404-.169-.109-.314-.228-.322-.637a1.83 1.83 0 0 1 .025-.273l.203-1.318a2.24 2.24 0 0 1 .053-.289c.038.002.123.016.24.033l2.269.352c.582.117.538.047.553.256.002.146-.042.408-.104.816-.055.485-.258 1.77-.578 1.893-.033.014-.099.025-.178.025-.126 0-.279-.027-.424-.027-.125-.017-.357.054-.395.268-.012.04.004.057-.008.057.07.311.281.404 1.561.627a1.15 1.15 0 0 0 .15.012c.007.001.014.002.022.002.104 0 .277-.053.311-.236.06-.388.185-1.52.223-1.754.078-.501.228-1.139.586-3.445a2.17 2.17 0 0 0 .023-.287c.024-.15-.095-.354-.25-.357-.004-.005-.022-.004-.033-.004h-.01c-.356.064-.339.391-.393.441-.126.359-.297.409-.609.422-.161.002-.351-.027-.541-.057l-5.564-.863c-.588-.092-.819-.168-.869-.385-.137-.373-.05-.558-.346-.699-.04-.013-.071-.014-.078-.014zm-104.99-.108c-.007-.002-.022-.005-.049.006a.35.35 0 0 0-.271.328c-.049.353.101.938-1.17 2.111l-3.846 3.504c-.66-.984-1.771-1.683-2.982-1.686-.157 0-.318.012-.48.039-2.241.343-2.707 2.124-2.693 3.393 0 .749.147 1.367.162 1.457.145.925.369 1.918.529 2.93.083.531.086.705.086.83 0 .006 0 .018-.002.041a1.5 1.5 0 0 0 .021.271c.045.242.176.447.416.463h.021c.535-.145.363-.648.424-.971.063-.352.142-.65.934-.793l8.969-1.406c.091-.012.173-.018.246-.018.451.004.645.21.82.459.182.23.23.564.605.611.023 0 .033-.002.041-.002.184-.023.334-.162.334-.35 0-.022-.002-.037-.002-.039-.108-.698-.285-1.355-.387-2.014-.229-1.464-.218-1.848-.246-2.037-.017-.068.014-.393-.322-.428-.016 0-.044-.001-.082.01-.501.153-.342.705-.422 1.133-.069.459-.168.824-.84.943l-3.717.582c-.092.016-.168.037-.215.037-.056-.017-.086.039-.156-.275-.116-.743-.189-1.172-.189-1.424.004-.389.117-.389.701-.912l2.777-2.439c.805-.741 1.575-1.52 1.578-2.674 0-.138-.011-.279-.033-.422-.015-.082-.057-.363-.127-.633-.102-.262-.078-.541-.424-.627zm13.717-1.603c.002.013.003.025.004.043l.141 2.438-2.922-1.158 2.766-1.318zm3.81-4.088c-.008-.002-.028-.005-.07.012-.295.087-.254.384-.285.555-.03.219-.076.426-.293.588-.385.289-.885.465-1.342.682l-6.197 2.934c-.065.072-.452.051-.543.436.003 0-.012.055.033.107h.002c.131.293.435.271 1.877.879l6.457 2.582c.313.125.406.284.48.441.074.123.063.368.352.422.015.004.022.004.025.004h.002v-.004c.123-.006.245-.069.291-.18l.025-.018-.004-.066-.004-.033c-.02-.338-.087-.667-.104-.982a3.79 3.79 0 0 1-.01-.283l.006-.451c0-.102-.004-.203-.008-.301-.006-.069.005-.157-.027-.266-.025-.117-.18-.238-.326-.223h-.006c-.01-.002-.031-.002-.07.01-.342.084-.236.425-.291.58-.058.188-.063.295-.426.334h-.043a1.18 1.18 0 0 1-.328-.051l-1.766-.687c-.166-.072-.166-.164-.186-.416l-.156-2.711c-.002-.018-.002-.03-.002-.041.01-.212.063-.212.344-.363l.979-.451c.327-.149.902-.434 1.092-.436.116-.004.16.063.24.242.072.137.098.397.385.453h.002l.018.008.039-.002c.285-.051.27-.306.273-.385l-.004-.059c-.022-.364-.089-.697-.107-1.012-.029-.495-.008-1.002-.039-1.519 0-.047-.027-.328-.279-.328h-.006zm117.03-2.66c.517.022.407.151.465.834a3.04 3.04 0 0 1 .004.168c-.019 1.648-.651 3.076-2.644 3.143-.037.002-.077.002-.115.002-1.986-.004-2.276-1.517-2.312-2.24-.011-.38-.041-.803-.041-1.154 0-.218.012-.406.039-.52.013-.052.03-.088.039-.102l4.522-.129h.004c.02 0 .03-.002.041-.002zm-21.262-1.897c-.033.002-.033.004-.033.002-.321.06-.279.347-.34.492a.74.74 0 0 1-.447.506h-.002l-7.074 3.356c-.232.151-.766.194-.857.641.004.072.022.075.019.08l.006-.002c.137.361.554.32.818.461l7.4 2.764c.39.147.476.276.525.363.03.052.075.298.34.307h.014c.204-.003.33-.213.32-.371l.002-.02c-.011-.214-.064-.369-.09-.955a1.21 1.21 0 0 1-.006-.107c0-.186.022-.387.022-.596 0-.035 0-.072-.002-.109 0-.143-.128-.358-.322-.348-.033.002-.033.004-.033.002-.349.076-.284.39-.336.541-.054.193-.059.257-.236.273a.92.92 0 0 1-.145.016c-.2.002-.491-.091-.639-.143l-5.385-1.92c-.069-.024-.138-.044-.187-.061.115-.068.38-.186.766-.363l4.99-2.377a1.19 1.19 0 0 1 .41-.115h.014c.133.002.185.06.262.166.087.089.087.267.357.314h.012c.24-.043.276-.216.287-.342v-.008c-.011-.201-.079-.659-.092-.979-.004-.081-.008-.154-.008-.225 0-.215.014-.441.014-.67a6.61 6.61 0 0 0-.004-.242c-.002-.174-.166-.342-.34-.332zm22.164-1.414l-.022.002c-.005.002-.023.001-.049.012-.452.106-.36.597-.457.895-.104.341-.221.627-1.025.668l-9.072.26h-.055c-.583-.008-.771-.25-.932-.537-.168-.266-.171-.666-.596-.721-.193.005-.367.146-.365.352v.002c.021.704.111 1.374.131 2.037l.014.967c0 .677-.031.918-.031 1.064 0 .002.002.013.004.029v.021c0 .004-.004.022-.004.053 0 .085.044.365.293.381h.023v-.004c.549-.099.464-.656.596-1.062.128-.449.27-.798.953-.83l3.764-.109c.072-.002.133-.014.18-.012.094.029.11-.064.156.297l.023 1.037c-.03.859-.037.638-.828 1.213l-3.062 2.068c-.978.691-1.926 1.445-1.926 2.793 0 .021-.002.057.004.102a6.25 6.25 0 0 0 .043.637c.068.255.007.531.316.646l-.004.008.018.006h.002l.016.006h.031c.189.002.324-.178.332-.289.093-.346.021-.945 1.43-1.947l4.258-2.99c.585 1.172 1.765 2.07 3.133 2.072h.082c2.835-.083 3.174-2.654 3.16-3.85 0-.34-.024-.598-.022-.637-.026-.94-.127-1.951-.158-2.978l-.006-.34c0-.5.041-.489.043-.748v-.021c-.011-.292-.125-.53-.391-.551zm-145.34-.926a2.03 2.03 0 0 0-.119.004l-1.424.027c-.21.002-.381.012-.525.137-.141.131-.17.307-.18.521-.017.367-.014 1.999-.152 5.225l-.287 5.045c-.006.029 0 .031-.004.031.065.541.671.467.834.51l1.822.285.02-.029c.133-.03.266-.119.291-.318l-.082-.02h.082c-.021-.387-.396-.422-.512-.469-.925-.38-1.044-.298-1.074-1.129a4.1 4.1 0 0 1 .006-.215l.123-2.877a.72.72 0 0 1 .256-.035c.162 0 .318.022.393.025l9.268.396c.442.025.584.286.717.631.143.316.104.747.541.834h.041c.092 0 .195-.014.279-.096s.094-.182.1-.27l-.121-.025h.119c0-.082-.014-.212-.014-.637a44.3 44.3 0 0 1 .049-1.783c.02-.502.113-.995.133-1.441l-.031-.02h.031v-.004c-.005-.325-.366-.324-.375-.324.021-.002-.014-.002-.018-.002-.476.057-.431.522-.551.809-.123.314-.243.561-.863.576-.03 0-.06-.002-.088-.002l-9.089-.391c-.372-.014-.597-.017-.666-.041l-.016-.006c-.005-.002-.016-.047-.014-.129-.002-.09.009-.22.018-.396L10.357 76c.062-.872.307-.935.586-1 .147-.024.311-.014.475-.045a.42.42 0 0 0 .361-.41l-.002-.025v-.01h-.002c-.007-.293-.309-.361-.443-.361zm20.057-1.273c-.1-.008-.304.042-.336.242-.058.387-.174 1.519-.209 1.754-.073.503-.216 1.139-.555 3.449a1.74 1.74 0 0 0-.025.277c-.024.158.101.363.254.367l.041-.02v.021c.357-.063.34-.394.393-.443.123-.368.296-.418.617-.432.159 0 .343.031.529.057l5.57.814c.591.086.821.163.875.379.139.373.053.558.35.697a1.22 1.22 0 0 0 .076.01c.211-.002.293-.21.295-.312.073-.497.112-1.017.172-1.502.11-.92.318-1.836.455-2.773.029-.213.063-.386.063-.562.004-.274-.091-.541-.34-.832-.283-.346-.68-.762-1.201-.846-.02-.004-.036-.004-.053-.004-.05 0-.211.002-.283.162-.023.035-.019.067-.023.092.071.288.244.295.447.676.196.342.398.889.4 1.793 0 .315-.024.675-.086 1.084-.129.694-.189.689-.402.705-.125.002-.312-.034-.551-.068l-2.248-.33c-.221-.037-.221-.029-.217-.053 0-.004 0-.013.002-.027l.266-1.811c.082-.444.245-.467.494-.514.22-.053.594.091.725-.318.002-.024.006-.028.006-.055.013-.157-.151-.295-.287-.297-.339-.049-.662-.072-.971-.119-.383-.056-.796-.142-1.228-.205-.028-.006-.061-.006-.088-.006-.104 0-.309.021-.357.25-.006-.006-.004.025-.006.041.073.348.341.301.494.428.172.11.32.23.328.645a1.75 1.75 0 0 1-.021.264l-.193 1.32c-.021.148-.04.249-.053.289-.038-.001-.12-.014-.236-.031l-2.274-.334c-.591-.116-.54-.039-.557-.258-.003-.145.041-.406.104-.807.047-.491.238-1.779.559-1.904.032-.017.098-.029.182-.029.121-.002.267.025.41.025.129.016.375-.051.406-.287l.002-.037-.006-.016c-.079-.293-.305-.388-1.561-.596a.77.77 0 0 0-.146-.014zm122.67-10.873a.29.29 0 0 0-.09.012c-.306.095-.289.395-.295.555 0 .079.008.15.008.184v.014l.004.117c.005.719-.641.873-1.416 1.053l-7.932 1.805c-.388.087-.693.147-.922.145-.257-.004-.395-.059-.527-.225-.387-.442-.369-.687-.742-.73h-.031a.34.34 0 0 0-.293.346c0 .06.01.114.019.166.162.704.384 1.423.557 2.109.332 1.301.529 2.647.832 3.978.16.743.26 1.252 1.063 1.68.461.264 1.049.54 1.643.543a1.66 1.66 0 0 0 .361-.039c.044-.027.275-.04.314-.328 0-.008 0-.03-.006-.061-.11-.239-.237-.202-.432-.336-.575-.324-1.775-1.118-2.461-4.094-.074-.315-.105-.553-.105-.725.006-.563.265-.51 1.121-.721l3.199-.729c.125-.033.244-.064.313-.062.07.017.058-.026.109.121l.586 2.574a1.56 1.56 0 0 1 .037.318c-.006.428-.234.586-.533.742-.275.162-.674.185-.729.602 0 .038.008.069.016.098a.35.35 0 0 0 .348.281.59.59 0 0 0 .125-.016c.479-.11.923-.248 1.367-.348.55-.126 1.149-.226 1.764-.365.146-.048.391-.11.424-.402 0-.011 0-.031-.006-.062-.195-.44-.591-.228-.91-.336-.33-.079-.674-.249-.881-1.113l-.428-1.875c-.056-.234-.086-.385-.084-.451-.009-.058-.048-.029.395-.141l3.236-.734c.336-.079.568-.131.703-.131.237-.031.28.156.559 1.387.11.487.389 1.487.387 2.217.002.322-.058.58-.164.703-.098.114-.359.193-.613.264-.229.075-.548.134-.576.484 0 .042.008.075.012.1.038.176.237.283.6.275.33 0 .859-.066 1.758-.27.186-.056.441-.096.477-.396 0-.01.002-.032-.004-.062-.127-.554-.561-2.142-.637-2.481-.164-.72-.302-1.648-1.049-4.937-.105-.436-.181-.671-.469-.701zM35.5 61.873c-.096-.016-.25.072-.271.178-.018.037-.023.084-.023.123.006.117.036.194.035.207v.002c-.03.166-1.247.621-2.016 2.789a4.6 4.6 0 0 0-.285 1.586c0 1.957 1.289 3.687 3.25 4.393.563.203 1.124.301 1.662.301h.006c1.825 0 3.389-1.145 4.068-3.039.419-1.178.541-2.065.541-2.697-.024-.821-.137-1.131-.283-1.285l-1.07-.687a.28.28 0 0 0-.145-.041c-.113.006-.219.053-.275.188-.017.033-.018.073-.02.1a.4.4 0 0 0 .174.314c.269.199.758 1.055.752 2.156a4.05 4.05 0 0 1-.248 1.393c-.546 1.506-1.852 2.142-3.287 2.147-.585 0-1.188-.108-1.758-.312-1.642-.6-2.613-1.656-2.615-3.103 0-.417.082-.87.258-1.357.523-1.435 1.481-1.937 2.963-2.215.011-.014.051-.01.102-.01.136.006.366.01.51-.229.009-.035.018-.063.018-.102-.133-.446-.545-.322-1.1-.549-.518-.158-.753-.244-.941-.248zm-22.065-4.418c-.201-.004-.402.173-.492.545-.104.37-.105.633-.275 1.256-.086.313-.401 1.194-.561 1.77-.022.078-.035.148-.035.213-.018.188.164.334.262.342.033.006.057.01.09.012.352-.049.402-.352.58-.57.168-.235.344-.42.678-.422.084 0 .184.014.299.047l3.525.971c.045.01.146.032.24.066.037.013.068.03.088.043l-1.723 6.246a.52.52 0 0 1-.031.086c-.026-.004-.074-.013-.139-.031l-3.715-1.023c-.737-.223-.707-.614-.727-1.012 0-.017.004-.038.004-.064-.009-.166.031-.415-.244-.523-.024-.008-.06-.012-.09-.012-.174-.002-.322.154-.383.412-.15.545-.229 1.1-.373 1.617-.172.625-.41 1.226-.59 1.873-.018.055-.029.118-.029.186a.35.35 0 0 0 .26.354c.035.006.055.008.082.008.377-.069.395-.409.59-.676.178-.284.376-.51.748-.512.081 0 .178.012.285.041v-.002l8.803 2.428c.964.29.943.681.963 1.084v.164c-.006.178.019.462.299.543.061.015.116.027.18.027.008 0 .017.002.023.002.14 0 .292-.123.316-.266.03-.126.003-.268.34-1.5.252-.905.664-2.132.729-2.369.017-.067.027-.13.027-.195.002-.108-.036-.274-.211-.33a.35.35 0 0 0-.107-.018c-.408.047-.498.439-.703.744-.193.325-.4.578-.73.574-.07 0-.146-.008-.23-.033l-4.281-1.18a1.17 1.17 0 0 1-.125-.039c.001-.009.006-.021.01-.037l1.744-6.33c.053.017.15.052.264.086l4.125 1.139c.468.141.539.384.59.699.063.29-.064.68.334.852.045.01.088.018.133.018.381-.033.382-.405.416-.486.095-.35.156-.835.459-1.93.165-.609.38-1.116.512-1.596.007-.031.011-.049.014-.086-.027-.233-.158-.322-.289-.373-.02-.008-.059-.014-.088-.014-.386.06-.44.415-.65.697-.196.3-.416.541-.783.541-.084 0-.176-.012-.279-.041l-9.115-2.512c-.665-.2-.642-.552-.658-.918v-.082c-.008-.149.032-.38-.229-.482-.03-.012-.074-.02-.123-.02zm113.13-2.781c-.2.004-.36.112-.439.143l-1.109.457c-.116.064-.182.152-.189.291 0 .052.017.098.037.135a.32.32 0 0 0 .293.17c.105-.002.187-.032.24-.043.246-.05.427-.084.549-.082.192.008.264.043.51.469l.941 1.711c-.073.072-.274.166-.344.201l-5.627 3.09c-.087.045-.156.061-.221.061-.313.027-.498-.436-.91-.514-.052 0-.102.014-.145.039-.077.033-.189.129-.187.266.002.079.03.128.053.174.056.095.189.241.857 1.457.166.302.289.625.439.9.034.083.138.15.225.15h.012c.109-.002.17-.053.18-.055.118-.066.176-.204.17-.303-.011-.226-.119-.418-.115-.6.006-.149.041-.285.352-.463l5.519-3.033c.209-.123.338-.185.381-.203.025.035.077.127.154.277l.852 1.549c.12.219.154.371.154.473.037.325-.391.241-.523.721 0 .068.023.128.053.18.044.093.158.167.262.164.145-.006.222-.076.287-.117l.834-.525c.146-.091.293-.202.297-.402-.002-.112-.04-.206-.098-.312-.124-.225-.711-1.187-1.787-3.147l-1.644-3.098c-.062-.125-.207-.187-.311-.18zm-85.468-3.557a.36.36 0 0 0-.291.156c-.133.209-.213.422-.328.598-.256.393-.556.772-.824 1.185-.052.065-.034.104-.041.145.007.076.011.172.127.262.062.037.128.061.199.061.465-.086.566-.576.949-.547.116 0 .274.041.49.18l3.359 2.176c.801.519 1.467 1.226 1.463 2.166 0 .461-.157.996-.557 1.615-.565.868-1.325 1.389-2.199 1.389-.485 0-1.014-.161-1.582-.527l-3.721-2.408c-.24-.162-.264-.266-.271-.375-.006-.147.107-.302.121-.527a.32.32 0 0 0-.148-.275c-.034-.029-.1-.043-.141-.043-.313.051-.367.331-.414.361-.216.332-.389.69-.598 1.01-.17.266-.379.497-.564.781a.65.65 0 0 0-.1.316c0 .059.014.153.107.217.058.037.124.055.189.055.437-.074.611-.551.855-.512.051 0 .109.013.191.064l3.492 2.262c.728.471 1.521.838 2.363.838h.01c1.039 0 2.102-.584 3.09-2.115.525-.815.734-1.54.734-2.172-.006-1.777-1.617-2.702-1.982-2.941l-3.213-2.08c-.447-.297-.476-.484-.484-.65 0-.092.025-.184.027-.301.006-.094-.041-.245-.164-.318-.049-.033-.105-.043-.146-.043zm106.64-4.521a.47.47 0 0 0-.197.049c-.155.058-.224.237-.213.357.004.181.059.362.059.57-.004.241-.059.506-.352.828l-7.652 8.324c-.234.282-.771.665-.811 1.109 0 .052.012.102.033.146.122.238.36.239.574.246.245 0 .527-.036.77-.039l11.4-.314c.039-.004.074-.004.109-.004 1.011.017.745.355 1.234.465.061 0 .119-.014.176-.039.135-.058.238-.203.23-.348 0-.087-.023-.169-.061-.252-.12-.259-.282-.449-.635-1.223-.155-.338-.252-.724-.422-1.1-.055-.131-.168-.281-.355-.281-.072.002-.136.022-.195.049-.154.058-.219.235-.209.354.007.24.111.492.107.695-.011.166-.03.257-.236.361-.263.193-.864.25-1.143.258l-8.25.35c-.124.002-.245.021-.33.021-.092-.002-.086-.008-.092-.004.019-.066.314-.417.904-1.025l5.394-5.889c.104-.118.321-.308.512-.393a.43.43 0 0 1 .197-.049c.284-.019.442.307.803.365.044 0 .097-.01.141-.035.143-.075.174-.218.176-.324a.5.5 0 0 0-.039-.199c-.114-.247-.458-.825-.652-1.252-.216-.473-.379-1.006-.613-1.523-.061-.141-.201-.26-.363-.256zm-29.121-1.652c-.05 0-.118.014-.17.063-.065.047-.117.151-.113.24.037.337.311.535.305.938 0 .323-.171.795-.936 1.469l-3.42 3.012c-.428.374-.718.467-.914.465-.325.013-.443-.253-.793-.301-.081 0-.167.036-.227.09-.035.023-.111.102-.111.221 0 .095.046.167.104.232.07.079.522.518.803.838.395.446.578.731.787.967a.3.3 0 0 0 .227.109c.122-.004.186-.065.223-.094.064-.062.101-.145.098-.219-.045-.335-.339-.53-.324-.801-.002-.124.043-.269.27-.467l3.783-3.334c-.005.031-.01.061-.012.086l-.977 7.922a2.15 2.15 0 0 0-.022.305c0 .187.033.316.113.408a.23.23 0 0 0 .174.082h.006c.213-.023.307-.15.533-.334l5.367-4.723c.192-.171.324-.205.428-.207.188-.011.312.147.582.174a.33.33 0 0 0 .221-.082.29.29 0 0 0 .098-.209c0-.081-.034-.152-.078-.201-.207-.234-.59-.594-.861-.902-.252-.283-.45-.585-.705-.875-.052-.056-.129-.111-.232-.113-.076 0-.145.033-.193.078-.074.052-.111.16-.107.234.035.347.338.606.328.984-.002.221-.096.491-.48.836l-3.691 3.25 1.01-8.582c0-.045.041-.17.043-.307 0-.073-.012-.17-.086-.256-.143-.159-.311-.275-.41-.393-.114-.126-.2-.298-.348-.469-.076-.072-.155-.127-.289-.135zm-68.012-3.456c-.065 0-.137.025-.191.076-.168.16-.207.261-.398.438-.022.022-.354.261-.461.359-.086.062-.104.174-.104.25.004.181.085.355.104.441l1.857 6.334a10.16 10.16 0 0 1 .152.525c-.053-.018-.126-.042-.211-.074l-6.408-2.602c-.074-.024-.188-.129-.377-.139-.078 0-.168.035-.232.096-.18.168-.31.354-.453.486-.154.146-.351.259-.533.428-.063.059-.145.137-.152.285 0 .072.034.148.082.199.058.065.152.107.23.104.263-.025.366-.17.639-.166.304-.002.848.188 1.779 1.193.879.951 1.66 2.011 2.92 3.592.246.303.303.5.303.629.012.223-.184.295-.229.609 0 .088.044.178.105.242.051.057.125.113.234.115.067 0 .146-.031.197-.078.185-.172.288-.335.754-.768.264-.244.699-.582.832-.703.088-.098.204-.166.221-.361.002-.067-.03-.143-.078-.191a.35.35 0 0 0-.252-.115c-.324.035-.5.278-.785.268-.189-.002-.451-.091-.822-.521l-2.707-3.135 5.488 2.182c.051.017.213.127.406.133.055 0 .132-.012.195-.07.076-.086.078-.154.08-.211-.006-.238-.149-.591-.166-.67l-1.668-5.566a1.19 1.19 0 0 1-.053-.225c.049.038.109.092.174.162l3.35 3.434c.173.185.205.31.207.408.011.185-.157.327-.184.605-.002.086.037.181.1.248.037.039.104.088.201.09.08 0 .157-.037.215-.092.239-.221.495-.525.766-.775.354-.328.698-.58.885-.752.069-.08.195-.145.217-.352.002-.066-.029-.136-.072-.184a.37.37 0 0 0-.27-.125c-.326.039-.482.279-.705.262-.105 0-.242-.041-.439-.225l-4.285-4.371c-.334-.34-.41-.565-.408-.709-.017-.252.231-.352.283-.686.002-.076-.035-.164-.09-.221-.063-.066-.144-.105-.242-.107zm92.273-2.156c-.107.004-.166.047-.234.092-.098.052-.147.184-.141.271.019.319.261.65.254 1.002-.004.223-.073.436-.398.674l-7.533 5.16c-.361.245-.625.322-.826.322-.519.017-.668-.503-1.143-.582a.39.39 0 0 0-.217.07c-.089.054-.203.164-.203.326.004.13.059.238.15.373.157.228.414.476 1.027 1.371.428.624.799 1.294 1.039 1.645.12.17.206.29.395.305.081-.002.142-.033.189-.064a.42.42 0 0 0 .176-.348c-.017-.377-.303-.788-.295-1.156.007-.206.064-.373.33-.562l7.898-5.414c.234-.162.416-.211.563-.211.45-.021.638.487 1.092.564.062 0 .131-.02.189-.059.064-.044.158-.132.156-.262-.006-.137-.065-.222-.154-.359-.321-.466-.691-.882-.996-1.328-.366-.532-.671-1.103-1.051-1.658-.048-.071-.126-.168-.268-.172zm-33.973-1.623a.25.25 0 0 0-.207.105.3.3 0 0 0-.066.195c.065.423.518.62.482.855 0 .054-.015.114-.072.199l-2.4 3.397c-.524.739-.936 1.56-.937 2.441-.002 1.006.553 2.053 1.992 3.063.838.595 1.598.826 2.256.826 1.703-.005 2.652-1.518 2.902-1.865l2.209-3.129c.297-.413.484-.45.639-.455.11-.002.211.035.35.037.093.006.232-.039.305-.148a.34.34 0 0 0 .047-.16c-.008-.12-.045-.207-.143-.283-.202-.143-.41-.228-.582-.35-.384-.271-.75-.589-1.152-.875-.068-.042-.115-.043-.16-.045-.072.004-.163.007-.25.115-.043.054-.076.131-.074.211.078.448.538.574.514.936 0 .124-.044.285-.197.504l-2.309 3.27c-.539.758-1.252 1.381-2.147 1.379-.479 0-1.03-.175-1.666-.623-.82-.581-1.305-1.33-1.305-2.166 0-.508.179-1.062.594-1.648l2.555-3.621c.164-.223.268-.25.369-.254.155-.01.314.124.555.143.087.004.207-.045.268-.139.028-.052.045-.097.045-.148-.047-.304-.311-.371-.34-.418-.324-.229-.674-.416-.986-.637-.258-.182-.483-.397-.758-.594-.074-.047-.176-.108-.328-.117zm-49.669-.274c1.488-.002 2.922.983 3.68 2.379.371.684.539 1.353.539 1.971-.002 1.135-.567 2.093-1.543 2.625-.55.299-1.112.432-1.662.432-1.502.002-2.939-1.007-3.711-2.43-.341-.622-.52-1.292-.52-1.932.002-1.057.479-2.024 1.56-2.613h.002c.545-.297 1.103-.432 1.654-.432zm-35.201 0c-.193.008-.258.158-.295.213-.221.368-.434.861-.701 1.307-.211.35-.484.663-.705 1.031-.037.049-.051.119-.051.174.004.172.113.293.236.369.056.033.111.045.162.045.445-.07.734-.621 1.076-.59.065 0 .132.015.213.064a1.15 1.15 0 0 1 .389.361l5.176 6.908c.17.214.287.4.326.479-.023.004-.059.008-.102.008a2.91 2.91 0 0 1-.379-.033l-3.932-.619c-.266-.041-.693-.157-.791-.223-.123-.076-.223-.144-.449-.443l-1.85-2.59c-.595-.826-.666-1.206-.666-1.397-.002-.09.018-.145.02-.24.012-.123-.088-.273-.223-.34-.041-.029-.097-.035-.129-.035-.115.008-.195.048-.264.148-.17.288-.209.485-.609 1.15-.19.319-.445.603-.658.957-.039.067-.127.187-.133.361a.3.3 0 0 0 .143.262.38.38 0 0 0 .191.055c.427-.053.693-.502 1.002-.477a.43.43 0 0 1 .24.078c.113.065.317.285.424.426l1.334 1.824.115.162-.219-.029-2.488-.419c-.233-.037-.297-.048-.465-.146-.157-.102-.174-.196-.18-.355-.002-.104.021-.221.021-.346.002-.1-.022-.258-.166-.348-.076-.045-.156-.078-.252-.08a.26.26 0 0 0-.225.123c-.211.352-.393.79-.828 1.516-.121.2-.675.979-.992 1.506-.045.074-.096.154-.098.275s.086.234.186.291a.47.47 0 0 0 .236.068c.627-.121.674-.98 1.492-.957a1.52 1.52 0 0 1 .203.016l4.605.691c.237.037.481.087.502.107.045.022.247.223.471.518l2.004 2.75c.056.064.091.123.109.164-.011 0-.021.002-.033.002a1.77 1.77 0 0 1-.312-.037l-8.937-1.42c-.154-.019-.313-.078-.375-.117-.178-.11-.201-.24-.205-.432-.002-.101.012-.205.012-.311s-.007-.265-.16-.365c-.069-.041-.143-.076-.236-.078s-.211.062-.256.15c-.229.38-.389.786-.602 1.135-.257.431-.596.852-.871 1.307-.063.101-.109.226-.111.367a.42.42 0 0 0 .203.367.35.35 0 0 0 .182.053c.453-.074.568-.547 1.285-.543a1.64 1.64 0 0 1 .268.023l10.328 1.656c.854.131 1.355.251 1.688.252h.012c.166 0 .338-.041.432-.193.045-.082.084-.175.084-.283-.002-.178-.092-.337-.25-.529l-3.174-4.211 5.008.734a5.06 5.06 0 0 0 .576.053c.178.012.354-.062.424-.195a.51.51 0 0 0 .068-.254c-.008-.286-.195-.51-.314-.684l-6.896-9.5c-.425-.583-.48-.88-.48-1.047 0-.094.022-.153.025-.26.01-.106-.076-.251-.189-.309-.072-.043-.142-.072-.221-.072zm35.842-1.018c-.776 0-1.575.198-2.328.611-1.585.862-2.514 2.413-2.514 4.066 0 .741.188 1.502.582 2.227.775 1.427 1.984 2.343 3.352 2.51-.133.263-.208.581-.209.906 0 .273.056.552.191.801.063.121.176.246.346.246.076 0 .142-.022.201-.053.125-.07.152-.201.148-.279-.007-.228-.111-.484-.109-.744.008-.25.067-.463.426-.662.298-.167.787-.229 1.353-.227.826 0 1.805.117 2.65.117.572-.003 1.082-.051 1.465-.254.954-.532 1.369-1.139 1.385-1.537 0-.063-.012-.123-.043-.178-.033-.064-.109-.176-.262-.18-.052 0-.107.017-.156.047-.191.146-.321.491-.566.617-.201.109-.407.191-.787.193-.078 0-.165-.006-.258-.014-.952-.084-1.5-.113-1.834-.113h-.008c.99-.886 1.539-2.044 1.537-3.297 0-.784-.213-1.603-.654-2.414-.844-1.558-2.331-2.393-3.908-2.391zm42.148-1.751a2.31 2.31 0 0 0-2.228 1.449c-.155.347-.223.672-.223.98.062 2.187 3.32 3.09 3.232 4.467 0 .143-.031.294-.104.461-.315.716-.921 1.007-1.607 1.012a2.73 2.73 0 0 1-1.072-.232 2.48 2.48 0 0 1-1.562-2.297 1.47 1.47 0 0 1 .019-.246c.017-.126.049-.221.051-.336.015-.109-.075-.273-.207-.314-.035-.019-.082-.029-.123-.029-.243.019-.337.222-.389.447l-.346 1.568c-.012.041-.003.07-.012.07.062.452.886 1.178 1.754 1.592.77.332 1.437.473 2.01.473h.008c1.379 0 2.171-.82 2.478-1.541.165-.388.238-.746.238-1.08-.058-2.256-3.296-3.158-3.205-4.486 0-.134.031-.275.1-.436.255-.59.723-.8 1.275-.807.323 0 .669.083.984.219.886.388 1.428 1.102 1.43 2.057 0 .062-.002.124-.006.186-.006.039-.012.102-.012.172.011.125-.011.317.205.439a.32.32 0 0 0 .137.029c.186-.002.272-.16.295-.252l.496-1.613a.46.46 0 0 0 .023-.143c.01-.135-.095-.254-.182-.283-.041-.017-.09-.029-.133-.029-.104.009-.153.036-.172.045-.067-.065-.453-.689-1.719-1.227a3.65 3.65 0 0 0-1.436-.314zM73.13 31.48c-.033 0-.061.006-.084.012-.232.063-.433.169-.637.223-.454.121-.932.198-1.408.326-.152.062-.189.13-.219.297a.23.23 0 0 0 .012.07c.057.234.308.292.453.279.1 0 .197-.012.297-.01.283.019.494.019.672.598l1.033 3.863c.096.36.16.737.16 1.096-.015.997-.435 1.878-2.022 2.318a3.87 3.87 0 0 1-.959.135c-1.126-.01-2.031-.587-2.428-2.029l-1.144-4.281a.8.8 0 0 1-.033-.219c.006-.199.086-.258.225-.35.117-.088.356-.118.391-.416a.37.37 0 0 0-.012-.086c-.053-.173-.221-.209-.303-.203-.148.002-.298.056-.322.063-.384.103-.751.253-1.121.352-.304.082-.614.112-.941.201-.094.055-.289.04-.361.342.002.041.01.059.01.063.076.259.34.28.496.275.076 0 .156-.004.232-.004.254.014.375.015.451.264l1.076 4.02c.39 1.507 1.24 2.949 3.283 2.949h.014c.471 0 1.005-.074 1.607-.236 2.221-.583 2.753-2.036 2.74-3.154 0-.685-.178-1.261-.236-1.478l-.99-3.695c-.045-.168-.062-.301-.062-.404-.015-.51.353-.38.465-.859 0-.027-.002-.061-.012-.096-.07-.185-.211-.214-.322-.223zm9.016-.746c-.048.002-.042.006-.049.006-.357.017-1.492.13-1.728.145-.508.029-1.16.014-3.49.146-.323.006-.567.069-.586.332 0 .018.002.031.002.035.096.37.467.277.52.32.541.045.553.465.596 1.047l.318 5.623.012.361c-.006.356-.051.486-.207.57-.338.212-.535.164-.613.482-.002.225.222.311.328.305h.021c.522-.029 1.041-.096 1.525-.135.926-.076 1.864-.056 2.811-.109.521-.019.917-.036 1.309-.551.27-.335.582-.782.588-1.287v-.051c-.02-.037.01-.266-.275-.312-.029-.002-.08.02-.08.02l.004.012c-.271.134-.246.365-.699.68-.433.321-1.195.674-2.592.754l-.225.004c-.712-.047-.501-.081-.592-.812l-.127-2.268c-.007-.068-.014-.125-.014-.168s.009-.052.006-.055.001-.008.045-.004l1.824-.104c.024-.002.043-.004.064-.004.391.014.447.166.539.398.091.202.03.567.436.635h.012a.32.32 0 0 0 .297-.318v-.021c-.019-.352-.062-.67-.078-.98-.022-.389-.023-.81-.047-1.248-.021-.119-.03-.352-.314-.391-.031-.002-.08.02-.08.02l.002.006c-.313.131-.204.42-.312.592-.089.201-.213.396-.812.439l-1.332.076-.23.008a.91.91 0 0 1-.064-.002v-.025c-.007-.043-.012-.114-.018-.211L78.71 32.4a5.71 5.71 0 0 1-.016-.355c.016-.325-.074-.208.971-.307.224-.012.598-.047.971-.047.456-.01.907.077 1.004.215.053.058.081.25.1.437.017.158.046.458.361.48h.014c.264-.062.348-.259.354-1.029 0-.175-.004-.384-.018-.635-.015-.136-.017-.387-.305-.426zm-49.092-2.535c-.077-.002-.163.035-.219.094-.394.397-1.497 1.614-1.742 1.859-.519.524-1.23 1.14-3.604 3.537-.252.262-.373.397-.389.604-.002.1.054.185.104.232.07.069.165.098.244.096.265-.013.463-.207.549-.25.217-.162.387-.213.547-.215.387-.008.796.365 1.201.773l5.777 5.725c.492.479.756.806.746 1.072 0 .061-.011.124-.035.193-.142.448-.264.577-.281.813a.4.4 0 0 0 .08.23c.076.08.162.125.252.125.151-.006.242-.09.324-.168.509-.514.996-1.084 1.48-1.6.922-.98 1.952-1.868 2.912-2.836.497-.499.862-.836.855-1.603a2.73 2.73 0 0 0-.008-.197c-.032-.641-.139-1.447-.652-1.963-.045-.037-.121-.123-.293-.133-.066-.002-.147.028-.201.086-.08.083-.068.157-.074.219.002.135.029.307.029.559-.003.733-.22 2.097-2.139 4.039-.45.457-.731.604-.891.598-.198.017-.447-.245-.873-.68l-2.332-2.309c-.153-.137-.261-.264-.242-.285 0-.01.002-.038.063-.104l1.859-1.875c.26-.264.465-.332.643-.332.436-.021.766.476 1.215.527a.38.38 0 0 0 .273-.117c.061-.065.109-.149.109-.254 0-.117-.059-.212-.139-.291-.348-.344-.704-.646-1.025-.967-.4-.397-.809-.85-1.256-1.293-.097-.088-.217-.184-.395-.189-.075-.002-.167.028-.229.094-.059.053-.096.149-.094.227.041.368.378.617.369 1.053-.002.254-.105.576-.527 1.004l-1.355 1.367c-.249.266-.365.326-.365.328-.01.01-.09-.05-.301-.271l-2.355-2.336c-.396-.379-.557-.578-.539-.658-.028-.106.246-.418.922-1.08.471-.501 1.688-1.793 2.287-1.76.02 0 .038.002.057.004.31.022.609.599 1.072.658.098.002.2-.043.271-.119a.32.32 0 0 0 .084-.215c-.021-.292-.248-.676-1.34-1.773-.125-.115-.239-.231-.432-.242zm97.668-2.24c-.063 0-.148.02-.211.086-.072.062-.119.171-.117.27.048.45.527.758.52 1.434 0 .489-.255 1.184-1.254 2.172l-4.687 4.627c-.63.62-1.066.771-1.381.771-.458.011-.694-.335-1.092-.373-.104-.002-.216.048-.293.127-.043.037-.119.122-.119.252 0 .11.056.206.145.293.101.101.793.702 1.228 1.141.607.615.898 1.013 1.213 1.332.066.073.165.117.256.117.153-.004.239-.091.289-.137.061-.066.104-.153.102-.242-.058-.433-.555-.731-.539-1.187 0-.192.08-.422.377-.717l5.187-5.127a1.74 1.74 0 0 1 .133-.123v.004c0 .118-.02.234-.022.303l-.75 11.512c-.006.097-.008.185-.008.26.002.379.054.573.18.705.04.048.12.08.186.08h.006c.26-.027.396-.214.709-.504l7.346-7.258c.292-.29.51-.354.688-.354.277-.008.486.186.793.207a.42.42 0 0 0 .287-.119c.061-.064.104-.143.102-.232 0-.104-.05-.189-.111-.25-.312-.317-.896-.81-1.316-1.232-.39-.396-.702-.813-1.09-1.205-.066-.064-.153-.121-.266-.121a.34.34 0 0 0-.242.105.37.37 0 0 0-.115.27c.045.464.569.858.559 1.478-.002.332-.141.736-.648 1.24l-5.195 5.135.754-12.662c.002-.068.039-.224.039-.383 0-.114-.014-.25-.121-.365-.211-.211-.463-.363-.629-.535-.182-.18-.317-.419-.539-.645a.53.53 0 0 0-.35-.148zM44.314 20.06c-.086 0-.159.034-.211.07-.243.226-.165.42-.197.373-.041.078-1.064-.063-2.838 1.162-1.182.808-2.037 2.016-2.039 3.348 0 .625.193 1.271.621 1.895.737 1.087 1.695 1.461 2.678 1.457 1.848-.008 3.857-1.22 5.303-1.207.606.004 1.087.188 1.48.756.313.457.445.924.445 1.379.004.996-.651 1.969-1.578 2.602-.76.516-1.492.697-2.147.697-1.035.002-1.885-.463-2.246-.779-.211-.176-.313-.365-.586-.387a.41.41 0 0 0-.234.082.35.35 0 0 0-.162.301c.006.19.114.353.289.527l1.668 1.648c.125.104.251.106.412.111.648-.004 1.927-.361 2.844-.984 2.074-1.416 2.764-2.933 2.762-4.201 0-.807-.272-1.503-.619-2.01-.81-1.19-1.838-1.596-2.883-1.592-1.866.008-3.851 1.196-5.25 1.184-.582-.004-1.037-.178-1.41-.715a1.94 1.94 0 0 1-.363-1.104c-.004-.848.618-1.674 1.408-2.213.64-.438 1.331-.668 2.016-.668.649 0 1.296.205 1.906.656.119.078.338.279.613.291a.36.36 0 0 0 .197-.059c.101-.066.175-.179.172-.295-.002-.129-.065-.219-.127-.291l-1.59-1.85c-.088-.11-.204-.186-.334-.186zm71.721-3.687c-.074 0-.187.02-.254.127-.044.062-.068.148-.068.225.08.554.814.822.773 1.24 0 .087-.025.187-.102.311l-3.148 5.119c-.638 1.032-1.125 2.149-1.125 3.307-.006 1.501.839 3.028 3.121 4.428 1.142.703 2.148.982 3.023.982 2.578-.008 3.879-2.382 4.219-2.928l2.897-4.709c.432-.688.739-.744 1.006-.752.13 0 .257.025.396.027.131.006.316-.047.41-.211.033-.06.045-.117.045-.166a.44.44 0 0 0-.197-.359c-.294-.18-.604-.288-.873-.453-.581-.358-1.136-.784-1.736-1.156-.065-.035-.116-.037-.164-.039-.099.006-.222.018-.318.158-.048.066-.076.153-.076.236.093.587.856.757.826 1.379 0 .188-.062.426-.252.738l-3.029 4.922c-.745 1.204-1.786 2.228-3.219 2.225-.666 0-1.434-.22-2.316-.764-1.317-.813-2.115-1.939-2.117-3.27 0-.695.223-1.457.723-2.268l3.353-5.453c.234-.375.419-.433.605-.437.233-.006.47.145.742.158.118.006.269-.06.342-.186.026-.056.043-.103.043-.156-.054-.371-.44-.473-.492-.535-.481-.296-1.004-.533-1.478-.826-.397-.242-.738-.537-1.148-.791-.089-.05-.238-.117-.41-.123zm-57.16-3.628c-.123 0-.237.039-.373.098-.338.144-1.809.85-4.777 2.119l-4.685 1.928c-.188.072-.267.271-.26.416.004.228.107.448.143.561l.498 1.664c.067.144.176.248.357.258a.33.33 0 0 0 .119-.023.41.41 0 0 0 .254-.398c0-.109-.022-.203-.031-.275-.024-.281-.047-.504-.047-.674.019-.439.07-.537.799-.871l2.65-1.135c.003.003.008.011.02.031.11.121.227.456.266.555l3.647 8.527a.75.75 0 0 1 .064.297c.033.552-.77.787-.871 1.334 0 .047.011.094.029.137.04.118.15.264.318.264h.004c.071 0 .132-.021.189-.043.131-.06.376-.237 2.219-1.027.462-.197.945-.326 1.355-.5.127-.049.213-.185.205-.291-.002-.107-.046-.181-.051-.195-.069-.183-.265-.261-.408-.25-.239.004-.489.094-.725.092-.281-.01-.525-.077-.771-.621l-3.575-8.363c-.168-.383-.262-.6-.252-.637.006-.008-.006-.012.049-.035.072-.041.217-.097.424-.186l2.348-1.004c.291-.127.508-.172.664-.172.308.006.415.148.543.35.123.178.18.483.531.516.061 0 .124-.014.188-.041.14-.053.236-.199.23-.326-.006-.156-.076-.263-.123-.354l-.639-1.273c-.109-.244-.261-.449-.525-.449zM80.32 9.83h.074c1.682.019 3.157.662 3.197 2.697 0 .008-.004.027-.004.051-.005 2.043-1.543 2.31-2.275 2.338l-1.037.023c-.247 0-.467-.012-.605-.043-.069-.017-.115-.039-.129-.051l-.061-4.516-.002-.021c.027-.552.15-.431.842-.479zm-9.041-.119c-.027 0-.05.002-.068.008-.547.113-2.139.522-2.481.594-.721.152-1.653.276-4.951.971-.439.094-.681.169-.709.461 0 .037.006.062.01.08.105.333.423.294.588.307.049 0 .094-.002.129-.002l.021.002c.048-.002.073-.002.104-.002.74-.01.882.647 1.053 1.432l1.678 7.959c.077.37.131.669.131.895-.005.273-.063.419-.236.553-.449.376-.697.357-.742.738 0 .014.002.024.002.031.02.178.188.293.316.293.01 0 .02 0 .029-.002.053 0 .104-.007.158-.018.707-.15 1.429-.357 2.119-.52 1.308-.313 2.656-.488 3.99-.77.747-.148 1.259-.239 1.699-1.037.275-.467.566-1.058.568-1.662a1.66 1.66 0 0 0-.033-.334c-.025-.049-.039-.279-.328-.32-.037 0-.057.008-.064.008-.232.105-.199.229-.336.422-.333.569-1.143 1.762-4.133 2.396-.3.062-.53.094-.701.092-.592-.008-.523-.258-.727-1.127l-.676-3.211c-.029-.127-.063-.243-.061-.311.02-.078-.026-.062.121-.113l2.584-.541a1.32 1.32 0 0 1 .303-.037c.442.006.596.237.75.543.158.279.176.684.6.74.025 0 .055-.004.084-.008.156-.021.306-.183.291-.354a.51.51 0 0 0-.014-.119c-.102-.479-.23-.924-.322-1.371-.117-.551-.208-1.153-.338-1.771-.043-.152-.104-.399-.4-.432-.033.002-.056.006-.07.01-.43.187-.225.585-.338.902-.084.329-.26.672-1.125.865l-1.885.395c-.228.047-.377.076-.445.074-.068.004-.032.054-.141-.395l-.682-3.246c-.072-.333-.121-.563-.119-.699-.031-.249.144-.28 1.394-.545.477-.103 1.444-.354 2.172-.352.345-.002.622.064.75.18.113.099.19.36.256.615.072.23.127.552.48.582a.5.5 0 0 0 .09-.01c.179-.045.299-.238.289-.635 0-.331-.061-.854-.242-1.719-.052-.191-.089-.451-.393-.486zm20.723-.615c-.126.013-.327.015-.41.262-.01.016-.012.056-.012.086.074.464.524.442.863.707.354.245.705.627.711 1.631 0 .351-.045.775-.156 1.289l-1.383 6.434c-.267 1.19-.68 1.437-1.037 1.533-.336.118-.815-.085-.99.42-.009.024-.014.067-.014.104-.015.145.134.317.328.342.145.031 1.052.153 1.656.283.845.182 1.308.353 1.746.449.029.004.057.01.092.01.26-.002.342-.246.352-.326l.006-.076c-.074-.419-.462-.39-.736-.551-.297-.148-.53-.308-.539-.781 0-.099.016-.217.045-.354l1.535-7.131a1.95 1.95 0 0 1 .043-.18c.06.089.116.216.148.271l5.674 10.045c.288.493.457.665.67.719.021.004.036.004.059.004.373-.086.331-.39.465-.852l2.174-10.096c.139-.59.366-.693.613-.775.226-.083.597-.018.721-.416.004-.029.008-.049.008-.078.006-.173-.147-.301-.279-.32-.434-.093-1.195-.185-1.777-.311-.544-.118-1.032-.294-1.57-.412a.42.42 0 0 0-.098-.012c-.139-.01-.312.105-.336.279-.007.008-.012.043-.012.08.068.45.513.462.854.701.359.223.683.51.689 1.219a2.96 2.96 0 0 1-.07.611l-1.53 7.142-6.298-11.01c-.079-.105-.132-.472-.48-.582-.291-.06-.583-.05-.816-.104-.251-.052-.498-.177-.807-.246-.029-.008-.064-.01-.092-.01zm-10.648-.219c-.281 0-.486.017-.531.02-.933.012-1.947.097-2.973.109h-.182c-.688 0-.619-.057-.936-.061-.015 0-.032 0-.057.006-.224.004-.46.115-.49.373-.001.02-.002.039.006.063.091.473.592.384.893.488.34.109.626.23.654 1.035l.115 9.076v.025c-.01.601-.259.786-.551.947-.27.167-.675.158-.734.59.01.181.129.344.311.367l.006.002h.041c.691-.008 1.367-.089 2.033-.098l.508-.004c1.003 0 1.333.043 1.51.047l.014.004.039-.004c.026 0 .057.002.088.002a.43.43 0 0 0 .307-.146h.061l-.002-.174c-.082-.537-.649-.46-1.061-.598-.447-.134-.792-.284-.814-.965l-.049-3.766c-.002-.072-.012-.126-.012-.172.032-.105-.071-.118.299-.16l.871-.01c1.052.037.77.004 1.367.85l2.019 3.096c.684 1 1.434 1.967 2.809 1.969h.016v-.002c.103-.002.397-.004.676-.035.207-.054.43-.02.57-.17l.104.027-.002-.201c-.004.029-.021.062-.043.088.017-.031.031-.066.043-.107v-.002-.002c.016-.181-.168-.326-.285-.336-.342-.099-.944-.035-1.926-1.459l-2.921-4.304c1.193-.575 2.117-1.764 2.119-3.152h-.006c-.043-2.961-2.759-3.269-3.904-3.256zM55.817 59.054l6.705 4.968v-4.066l.435.119c.003-.001.682.185 1.75.399l-3.784-6.117 5.948 6.479c1.12.154 2.37.274 3.637.274.091 0 .18-.006.271-.008l-3.953-10.388 6.28 10.192c.58-.095 1.143-.218 1.658-.398a7.37 7.37 0 0 1 .657-.185l-2.111-12.07 4.456 11.77c.218-.009.435-.021.657-.021a16.63 16.63 0 0 1 1.497.071l.224-13.009 2.341 13.519c.426.144.818.316 1.158.522.175-.107.366-.203.566-.292l2.87-13.623-.246 12.943c.664-.086 1.351-.129 2.028-.131.073 0 .144.006.217.007l4.787-11.384-2.464 11.603c.402.076.787.165 1.119.28.429.15.895.257 1.374.347l6.362-9.537-4.125 9.766.58.017c1.297 0 2.594-.124 3.746-.287l5.565-5.64-3.546 5.295.569-.12.418-.092v4.936l7.491-5.142-7.491 7.563v3.133l11.412-4.975-11.412 7.806v1.738l14.179-3.183-14.179 6.153v1.093l15.69-.476-15.69 3.492v.875l15.896 2.566-15.896.455v.988l14.786 5.402-14.786-2.411v1.479l12.398 7.445-12.398-4.557v2.585l8.822 7.915-8.822-5.369v.813l-.271.057c-.482.104-1.085.224-1.757.337-1.079.184-2.351.352-3.678.416-.369.019-.741.031-1.114.031-.33 0-.66-.012-.989-.029-1.171-.062-2.323-.234-3.36-.594-.195-.068-.424-.129-.662-.186a8.41 8.41 0 0 0-.414-.083 14.7 14.7 0 0 0-2.69-.24c-1.925-.007-3.936.348-4.906 1.042l-.198.139-.194-.139c-.986-.699-2.844-1.046-4.646-1.042-1.355 0-2.688.188-3.594.509-.383.133-.785.233-1.195.318a12.34 12.34 0 0 1-.939.16 16.39 16.39 0 0 1-2.05.124 23.39 23.39 0 0 1-1.48-.052c-.313-.021-.619-.049-.924-.08a32.37 32.37 0 0 1-3.237-.505c-1.436-.296-2.389-.585-2.397-.585l-.244-.076v-.588l-9.666 4.545L62.524 96v-2.267l-13.025 4.258 13.023-7.19v-1.316l-15.176 1.914 15.176-4.932v-.908l-16.038-1.041 16.038-1.996v-.859L46.94 77.596l15.582 1.039V77.49l-13.826-6.604 13.826 3.633v-1.892l-10.83-7.998 10.83 5.196v-3.493l-6.705-7.278zm38.581 45.219l7.724 10.213-4.964-10.049a27.52 27.52 0 0 0 3.652-.298l6.84 6.157-4.409-6.613.339-.083-.176-.663h-.003c-.002 0-.208.055-.567.135a30.19 30.19 0 0 1-2.691.467c-.97.123-2.078.217-3.227.217-.032 0-.064-.004-.096-.004-1.016-.004-2.048-.092-3.03-.284-.498-.097-.986-.213-1.446-.374-.14-.049-.302-.086-.456-.128-.908-.247-2.029-.378-3.205-.38-.047 0-.095.003-.142.004-.214.002-.428.007-.642.018-1.104.053-2.195.217-3.132.514-.209.066-.409.14-.601.221-.249.104-.488.217-.701.347-.666-.405-1.531-.683-2.477-.859l-.467-.078c-.738-.109-1.511-.163-2.271-.165-.322 0-.641.012-.954.031-.27.016-.529.043-.786.072-.716.084-1.379.214-1.922.404-.478.168-.998.283-1.533.377-.693.121-1.418.188-2.156.209-.189.006-.378.018-.568.018-.746 0-1.49-.041-2.205-.105a32.83 32.83 0 0 1-2.459-.32 34.4 34.4 0 0 1-2.352-.478l-.533-.133-.182.663c.002 0 .068.019.187.049l-5.484 6.015 7.596-5.554c.821.152 1.81.307 2.877.412l-5.099 9.527 7.65-9.391h.004c.839-.001 1.68-.056 2.493-.176l-4.041 12.855 7.324-13.624a12.53 12.53 0 0 1 1.11-.13l-1.815 15.828 4.913-15.723a11.49 11.49 0 0 1 .728.125l1.251 16.381 1.784-15.791c.255-.131.552-.243.871-.344l4.261 15.602-1.258-16.1c.244-.011.488-.016.73-.016.066 0 .131.006.197.007l7.02 14.273-3.8-13.816c.747.259 1.517.429 2.299.538zm2.477-1.931c-.253 0-.509-.014-.764-.023-1.248-.049-2.509-.225-3.647-.604-.042-.014-.086-.022-.127-.037a7.49 7.49 0 0 0-.867-.235c-.828-.179-1.795-.271-2.796-.272a17.26 17.26 0 0 0-.819.023c-.022.002-.044.004-.065.004-1.208.066-2.397.263-3.376.627l-.078.031c-.316.121-.614.258-.876.417-1.283-.779-3.296-1.095-5.22-1.103-.264 0-.521.012-.779.024-.049.003-.1.002-.148.005-1.031.061-1.989.217-2.731.479-.334.117-.688.211-1.052.291-.452.099-.926.164-1.408.214-.589.06-1.188.096-1.793.096-.494 0-.987-.019-1.472-.05a27.34 27.34 0 0 1-1.563-.146c-.786-.093-1.526-.206-2.162-.323l-.74-.145c-.988-.203-1.614-.374-1.618-.373l-.18.662c.005.001.482.133 1.26.301.68.148 1.59.323 2.632.469a31.62 31.62 0 0 0 2.018.218c.597.044 1.209.073 1.826.073.395 0 .791-.012 1.185-.035a14.51 14.51 0 0 0 1.785-.225c.52-.097 1.029-.214 1.51-.381.555-.196 1.302-.33 2.117-.403l.457-.038c.282-.016.568-.027.858-.027a14.2 14.2 0 0 1 2.496.215l.198.035c.95.186 1.786.473 2.329.857l.195.138.198-.138c.168-.12.372-.227.591-.328.112-.052.223-.104.347-.151.893-.338 2.063-.541 3.249-.604.114-.006.228-.009.343-.012l.488-.012c1.115 0 2.182.129 3.005.348.147.039.303.076.433.121a10.72 10.72 0 0 0 1.038.297c1.08.26 2.206.37 3.306.394.14.003.281.013.42.013a24.2 24.2 0 0 0 2.544-.141 29.23 29.23 0 0 0 2.979-.469c.597-.127.955-.224.961-.225l-.18-.662h-.002a19.52 19.52 0 0 1-1.189.271 28.45 28.45 0 0 1-3.262.461 23.56 23.56 0 0 1-1.854.078z" fill="#4e2a84"/><path d="M78.419 60.665c-1.315-.002-2.585.17-3.434.469-1.369.475-2.934.639-4.482.639-3.128-.001-6.19-.676-7.299-.947v38.742l2.227.529c1.473.297 3.429.596 5.371.596 1.399 0 2.783-.153 3.957-.562 1.017-.355 2.4-.545 3.82-.547 1.673.006 3.383.264 4.596.906V61.612c-1.091-.626-2.972-.952-4.756-.947zm10.438 0c-1.921-.006-3.963.372-4.996 1.092v38.635c1.235-.578 2.971-.805 4.664-.811 1.511.002 2.97.191 3.992.547 1.22.424 2.667.586 4.123.586 2.32 0 4.657-.403 6.133-.711V61.085c-1.508.311-3.777.676-6.064.678-1.534-.002-3.077-.162-4.418-.629-.852-.299-2.12-.469-3.434-.469z" fill="#fff"/><path d="M67.2 66.617c-.395.01-.689.35-.748.678a.93.93 0 0 0-.016.18c0 .3.095.801.568.959l.344.109-.201-.299.004-.006a1.8 1.8 0 0 1-.053-.367c0-.039.004-.071.008-.086.102-.051.289-.02.482-.193a.63.63 0 0 0 .205-.445c.002-.138-.061-.281-.187-.379s-.271-.15-.406-.15zm6.441.174c-.557.042-.972.895-1.115 1.281l-.055.174.184-.012c.715-.066 1.477-.256 1.519-.828-.001-.14-.061-.282-.172-.422-.096-.125-.228-.195-.361-.193zm19.885.135c-.113 0-.229.047-.324.141l.002.002c-.155.141-.242.301-.24.465.032.524.708.809 1.377.982l.182.043-.027-.186c-.091-.412-.376-1.389-.969-1.447zm-23.396.723c-.158-.012-.313.142-.318.35l.197 1.199c-.101.25-.907 2.027-1.553 2.834l-.076.094.092.08c.171.148.34.205.486.205.275-.004.429-.182.439-.193a128.68 128.68 0 0 0 .793-1.672l.027 1.123v.4c.071.233.225.338.369.332.248-.008.425-.195.436-.197l.045-.043-.361-4.213-.037-.031c-.013-.002-.26-.255-.539-.268zm8.394.361c-1.047-.004-1.396.786-1.566 1.516-.059.236-.088.456-.088.658-.007.768.421 1.285 1.006 1.346l.264.012h.023c.845 0 1.326-.551 1.561-1.539.038-.159.057-.338.057-.52.001-.616-.24-1.348-.926-1.451-.117-.014-.228-.021-.33-.021zm8.961.23c-.831.132-1.406 3.176-1.486 3.441l-.012.088.082.039a.78.78 0 0 0 .34.09h.008c.223 0 .346-.161.371-.186.033-.052.136-.375.248-.699l.162-.443.029-.068c.235.218.507.861.586 1.189l.01.039.031.025c.1.08.208.115.307.113.295-.008.458-.249.469-.254l.033-.047-.01-.051c-.146-.87-.602-1.432-.615-1.484l.02-.002c.222-.227 1.38-.648 1.434-1.43-.002-.154-.123-.277-.25-.277-.366.021-1.074.571-1.535.957.074-.193.138-.411.141-.6.006-.178-.08-.383-.291-.43a.24.24 0 0 0-.07-.012zm-13.002.053c-.161-.002-.328.088-.459.277l-.047.068.043.07c.468.733.833 2.428.893 2.703l-.121.305c-.115.3-.449.576-.586.787l-.055.09.08.07c.011.006.209.186.514.188h.008a.75.75 0 0 0 .416-.137l.02-.016.572-.553.115-.111.029-.023.012-.014c.002-.021.008.001.033-.084-.044-.119-.08-.096-.082-.119l-.014-.004c-.188.046-.105.037-.186.074.004-.011.01-.024.016-.037l1.164-3.184.027-.08-.061-.057c-.013-.008-.185-.166-.451-.168-.119 0-.258.035-.387.133l-.035.025-.012.041c.001.001-.268.935-.48 1.523l-.344-1.328c-.029-.04-.242-.424-.623-.441zm7.215.07l-.039.002c-.158.008-1.645-.064-1.674 1.125l.004.027c.048.806 1.07 1.07.992 1.26.001.015-.059.098-.244.152a2.7 2.7 0 0 1-.641.094l-.066.002-.035.053c-.004.011-.133.183-.137.41-.009.15.09.337.307.41 1.358-.152 1.718-.739 1.75-1.076l.006-.006-.002-.062c-.044-.65-.948-1.167-1.018-1.285v-.021c.034-.276.05-.235.191-.258.132-.002.339.055.559.057h.021l.049.004.039-.031c.154-.121.226-.265.223-.4-.01-.282-.246-.422-.252-.432l-.033-.023zm10.197.273c-.146 0-.33.05-.516.195-.041-.041-.095-.081-.189-.084-.145.006-.292.075-.666.25-.576.276-1.006.959-1.125 1.578a1.54 1.54 0 0 0-.027.291c.004.409.12.91.494 1.129.082.048.173.066.258.064.252-.008.482-.147.648-.279.015.151.118.352.367.352.209-.002.486-.105.932-.363l.061-.037v-.072-.246-.174l-.162.055c-.085.027-.149.039-.18.039l-.014-.002c-.005-.067.07-.242.104-.367l.447-2.166-.061-.049c-.015-.008-.149-.111-.371-.113zm-19.037.102c-1.031-.004-1.379.787-1.541 1.518a2.72 2.72 0 0 0-.086.658c-.007.765.411 1.282.984 1.342a2.25 2.25 0 0 0 .264.016h.02c.834 0 1.312-.549 1.543-1.539a2.25 2.25 0 0 0 .057-.52c.001-.617-.234-1.349-.916-1.451-.112-.015-.223-.023-.324-.023zm-6.375.113c-1.05-.006-1.401.777-1.572 1.5h.002a2.58 2.58 0 0 0-.09.65c-.006.761.425 1.272 1.006 1.328.094.011.182.016.27.016h.023c.843 0 1.332-.544 1.564-1.522.037-.159.057-.334.057-.514.002-.608-.24-1.335-.93-1.436a2.61 2.61 0 0 0-.33-.023zm26.785.137l.035.158a.46.46 0 0 1 .006.09c.007.494-.496 1.878-.5 2.574a.79.79 0 0 0 .031.246c.099.339.397.535.695.533h.006c.374 0 .738-.321.746-.895l.006-.281-.213.184c-.158.138-.262.168-.289.166-.021.002-.048-.031-.057-.129l-.004-.041c-.004-.516.568-2.396.568-2.398l.047-.152-.914-.045-.164-.01zM72.451 76.06c-.615.067-.817 1.1-.871 1.523l-.01.184.174-.057c.634-.221 1.261-.549 1.289-1.051 0-.177-.1-.346-.279-.484-.094-.073-.198-.115-.303-.115zm15.824.264c-.069 0-.142.011-.217.039-.233.069-.354.282-.348.48a.64.64 0 0 0 .068.291c.117.228.305.267.377.346.001.109-.206.398-.252.502l-.025.139.145.008h.041c.574-.019.824-.612.885-.865v-.004c.009-.044.014-.091.014-.139 0-.351-.231-.789-.687-.797zm-9.783 1.394c-.366.013-.745.323-.951.518l-.035-.139c-.038-.059-.152-.198-.357-.203-.125-.002-.269.069-.375.223l-.021.029v.041l-.039 2.162.021.773c.184.271.303.401.488.412.173-.008.264-.139.344-.285.102-.863-.056-2.073.42-2.363.042-.029.065-.033.074-.033s.054.016.1.174c.044.15.066.383.066.656 0 .732-.159 1.773-.393 2.545.015.044-.039.412.307.471.18-.011.318-.14.537-.436.27-.513.404-1.736.408-2.785-.017-.801-.044-1.45-.334-1.686-.079-.052-.172-.076-.26-.074zm11.973.068c-.157-.013-.312.139-.316.348.002.032.181 1.063.199 1.201-.101.244-.908 2.025-1.557 2.836l-.074.092.092.08c.168.146.335.205.479.205h.006c.276-.002.431-.185.441-.193.019-.027.362-.764.791-1.672l.031 1.139v.385c.07.234.224.34.367.334.245-.008.423-.194.434-.199l.047-.043-.361-4.215-.037-.031c-.013-.004-.26-.253-.541-.266zm-20.955.061c-.158-.012-.313.138-.318.346.002.033.178 1.05.199 1.197v.004c-.095.242-.906 2.028-1.557 2.836l-.076.094.092.078c.171.148.34.207.488.207.275-.004.43-.183.439-.193.019-.027.363-.764.791-1.674l.031 1.141v.385c.071.233.224.338.367.334.248-.011.425-.199.436-.203l.043-.039-.359-4.213-.037-.033c-.013-.002-.26-.253-.539-.266zm5.697.287a1.11 1.11 0 0 0-.242.027c-1.088.219-1.303 1.123-1.293 1.838l.016.357.02 1.568.01.971.008.314.004.094c.002.01.002.021.004.031s.001.012.006.023c.012.001-.015.04.066.074l-.002.004c.049.076.162.131.271.131h.006c.311-.019.466-.316.479-.318l.018-.031.019-1.561c.122.038.29.081.438.082.031 0 .064-.004.094-.008.915-.175 1.35-.78 1.336-1.693l-.01-.242c-.044-.594-.337-1.639-1.246-1.662zm-2.553.283c-.37.013-.746.336-.951.537l-.039-.139c-.039-.058-.152-.191-.354-.195-.127-.002-.272.07-.377.23l-.021.029v.037l-.008.984.047 1.951c.188.267.311.394.492.404.177-.008.269-.143.344-.291a4.02 4.02 0 0 0 .033-.598l-.004-.439c-.006-.594.054-1.145.342-1.334.044-.031.068-.037.074-.037s.067.026.115.207c.046.169.068.428.068.73a9.91 9.91 0 0 1-.344 2.443c.017.042-.031.407.311.465.181-.012.32-.145.535-.445.242-.484.352-1.57.355-2.564-.019-.897-.053-1.658-.367-1.906-.079-.05-.168-.072-.252-.07zm8.699.049l-.041.004c-.154.01-1.641-.063-1.67 1.131.033.822 1.075 1.089.994 1.283.002.015-.057.098-.246.152-.178.055-.422.088-.641.096l-.062.002-.037.053c-.004.008-.132.181-.137.406-.008.15.091.337.307.412 1.324-.147 1.7-.709 1.75-1.049l.01-.002-.002-.096c-.043-.646-.934-1.157-1.017-1.282v-.021c.031-.275.047-.237.188-.26.134-.002.34.057.559.057h.029l.045.002.037-.029c.152-.121.227-.264.225-.4-.011-.282-.247-.423-.252-.434l-.037-.025zm7.008.285a.83.83 0 0 0-.518.193c-.04-.041-.094-.081-.189-.086-.145.006-.293.074-.666.25-.574.278-1.006.961-1.125 1.58a1.39 1.39 0 0 0-.027.291c.005.409.12.908.494 1.127a.53.53 0 0 0 .26.064c.25-.007.48-.145.646-.277.016.151.117.352.365.352.211-.002.489-.104.934-.365l.063-.037v-.07-.25-.17l-.162.051c-.089.03-.153.041-.184.041l-.014-.002c-.005-.067.071-.239.105-.363l.445-2.17-.061-.047c-.013-.01-.148-.111-.367-.111zm4.664.129c-.121-.002-.262.045-.387.164l-.029.023-.008.039c-.002.004-.51 2.259-.57 2.805l-.004.031.016.033c.103.224.227.361.406.365.192-.008.309-.145.428-.283.261-.836.342-2.136.816-2.059h.006c.084.002.153.082.16.385.002.652-.406 1.916-.918 2.848-.013.042-.021.088-.021.152 0 .098.015.358.279.377.159-.006.316-.103.561-.324.654-.752 1.129-2.687 1.135-3.717-.006-.287-.024-.499-.152-.646-.09-.092-.211-.127-.326-.127-.341.01-.725.259-.951.428l-.01-.254-.002-.053-.035-.033c-.011-.006-.156-.152-.393-.154zm-24.844.17l-2.891.045-.037.063c0 .014-.257.446-.268.719 0 .069.062.215.191.215.081-.002.146-.034.232-.082l.383.006c-.011.672-.039.708-.482 1.217-.13.07-.657.32-.695.73 0 .071.024.152.076.219.154.208.33.324.52.324.775-.076 1.158-1.665 1.332-2.502l.16.004c-.047.583-.238 1.283-.24 1.797 0 .36.139.715.553.715v-.002c.354-.002.549-.187.547-.424-.008-.346-.242-.789-.238-1.264a.76.76 0 0 1 .012-.146l.063-.68c.092.01.222.02.354.02.229-.015.545.009.598-.305v-.004c.079-.095.117-.192.115-.287-.016-.287-.279-.367-.283-.377zm27.055 1.885l.021.605.002.09.09.025c.259.073.437.168.785.168a3.72 3.72 0 0 0 .695-.082l.111-.023-.041-.551-.012-.143-.139.029-.518.088c-.112.006-.189-.082-.848-.184l-.148-.023zm-6.969 6.008a.84.84 0 0 0-.107.006c-1.621.123-2.155 1.577-2.377 3.279-.029.222-.043.435-.043.637 0 1.126.466 1.951 1.324 1.953.006 0 .019.002.037.002 1.243-.033 1.936-.836 2.277-2.598.094-.472.143-.917.143-1.318-.002-1.105-.383-1.956-1.254-1.961zm-17.996.557c-.533.053-.876.92-1.002 1.305l-.045.174.18-.018c.642-.074 1.326-.293 1.357-.846.001-.139-.053-.281-.156-.422v-.002c-.087-.118-.207-.193-.334-.191zm23.537.268c-.525.029-1.044.75-1.234 1.1l-.084.162.188.02.33.012c.625-.006 1.27-.137 1.303-.676-.002-.116-.038-.237-.107-.365-.088-.162-.239-.256-.395-.252zm-16.9.961l-.051.074c-.252.056-1.643.221-1.643.221l-.045.006-.029.033c-.125.125-.178.262-.178.381.002.197.123.314.131.324l.041.041.564-.041-.264 2.434-.012.117.113.021a1.06 1.06 0 0 0 .203.018h.018c.185 0 .517-.064.545-.408l.211-2.293.604-.078.051-.006.033-.047a.44.44 0 0 0 .076-.254c.003-.142-.07-.319-.266-.465l-.104-.078zm-11.197.047c-.225.003-.492.065-.557.328l.221.102s.001-.01.047-.006c.023 0 .054.004.098.02.184-.007.289.757.314 1.514-.35.49-1.481 1.588-1.51 2.162-.004.086.038.191.125.246.081.025.114.027.15.027.447-.034.584-.445 1.186-1.184.018.475.07 1.307.658 1.377.021 0 .039 0 .064-.004.338-.071.808-.24.855-.604 0-.071-.03-.138-.076-.189-.036-.043-.095-.063-.141-.061-.164.017-.321.133-.387.156-.071-.236-.301-.842-.303-1.482l.004-.107c.287-.525 1.18-1.226 1.209-1.777.004-.125-.065-.251-.178-.322-.057-.029-.1-.039-.145-.039-.346.047-.511.447-.818.857-.015-.325-.065-.793-.447-.949-.115-.039-.246-.064-.371-.064zm12.955.068c-.982-.005-1.309.769-1.465 1.481-.054.229-.082.444-.082.641-.007.749.391 1.256.938 1.316l.207.016c.014 0 .026-.001.039-.002.808.011 1.263-.533 1.481-1.504.035-.156.053-.329.053-.506.001-.604-.214-1.316-.863-1.42a2.23 2.23 0 0 0-.307-.021zm3.201.381l-.041.002c-.156.011-1.644-.063-1.672 1.129 0 .011 0 .019.002.027.05.805 1.072 1.064.992 1.26v.002c.002.01-.057.094-.246.148-.178.056-.422.087-.641.096l-.064.002-.033.053c-.004.009-.135.184-.139.406-.008.15.09.339.309.412 1.38-.153 1.729-.757 1.75-1.092l.004-.004v-.049c-.043-.652-.947-1.165-1.018-1.285l.002-.02c.031-.277.049-.239.188-.262.132-.002.339.057.559.057l.021.002.051.004.037-.029c.154-.121.229-.265.227-.4-.011-.284-.247-.425-.252-.436l-.035-.023zm9.535.061c-.881-.007-1.487.561-1.772 1.572-.067.229-.1.441-.1.633 0 .932.78 1.318 1.631 1.32h.115.096l.154-.578.041-.156h-.162-.035c-.187-.002-.875-.064-.877-.504.001-.037.005-.074.014-.117a2.59 2.59 0 0 0 .283.016c.305-.002.758-.052.877-.463l.031-.141-1.016-.125c.157-.656 1.023-.695 1.164-.695l.006.002.066.006.047-.055c.072-.092.104-.193.104-.283-.004-.227-.159-.351-.166-.361a1.82 1.82 0 0 0-.502-.07zm-16.865.098l-.904.078-.164.014.059.154a1.17 1.17 0 0 1 .033.336c0 .492-.121 1.304-.121 1.898.002.246.021.456.094.615.121.275.359.412.596.412h.012c.38-.004.753-.291.826-.691l.072-.43-.291.326c-.119.134-.202.165-.225.16-.037.005-.149-.141-.17-.383-.009-.053-.014-.133-.014-.227 0-.671.18-2.109.18-2.109l.018-.154zm-2.459.23c-.011-.002-.026-.001-.064.018-1.048.025-1.245 1.154-1.289 1.904l-.309 2.934c0 .002-.002.006 0 .031 0 .01.024.054.059.082l-.002.002.016.012c.013.084.131.17.252.17h.004c.255-.017.382-.244.396-.248L71.348 93c.098.059.224.122.346.141l.01.006h.043c.851-.012 1.269-.631 1.314-1.67l.006-.219c-.005-.634-.157-1.615-.98-1.644h-.008zm27.039.021l-.039.002c-.156.01-1.643-.063-1.672 1.127v.002l.004.027c.052.803 1.071 1.065.992 1.258l-.002.002c.002.013-.057.098-.244.152-.178.054-.421.087-.641.096l-.064.002-.035.051c-.004.01-.135.183-.137.406-.009.152.09.338.307.41 1.366-.152 1.724-.745 1.752-1.08l.004-.002-.002-.051.002-.012c-.044-.646-.935-1.157-1.018-1.283v-.021c.031-.276.049-.235.189-.258.134-.002.341.057.561.057h.022l.049.004.039-.031c.153-.121.225-.266.225-.4-.012-.284-.249-.425-.256-.434l-.035-.023zm-29.195.188c-.143-.002-.311.05-.484.193-.038-.039-.092-.075-.182-.08-.144.006-.28.078-.635.258-.542.283-.943.979-1.057 1.607a1.53 1.53 0 0 0-.023.289c.004.416.11.926.469 1.15.077.048.164.068.248.068.235-.01.449-.146.604-.277.017.149.108.35.352.35.204-.003.466-.108.885-.373l.057-.039V92.9l-.004-.254v-.176l-.166.059a.51.51 0 0 1-.166.039l-.004-.004c-.004-.072.068-.248.1-.375l.416-2.207-.057-.045a.56.56 0 0 0-.352-.115zm22.705.029l.033.158c.005.018.008.047.008.084.006.479-.502 1.784-.506 2.463 0 .086.007.164.033.242a.73.73 0 0 0 .695.533h.006c.374 0 .738-.322.746-.896l.006-.281-.211.184c-.161.141-.262.172-.291.17-.017 0-.045-.03-.053-.131l-.004-.045c-.004-.508.566-2.267.566-2.269l.047-.156-.914-.047-.162-.008zm3.932.021c-.15-.001-.334.047-.52.193-.041-.041-.096-.081-.191-.086-.145.004-.29.075-.664.248-.577.277-1.008.964-1.131 1.58-.017.088-.023.184-.023.285.004.412.121.914.496 1.133a.48.48 0 0 0 .258.066c.25-.008.483-.148.648-.281.015.15.113.354.365.354.211-.002.488-.102.934-.363l.061-.037v-.07-.246-.174l-.164.055c-.087.028-.149.037-.182.037l-.016-.004c-.005-.066.072-.238.107-.363l.447-2.172-.062-.047a.62.62 0 0 0-.363-.107z" fill="#4e2a84"/><path d="M78.579 68.597c-.354.044-.736.49-.793.988-.112.459-.273 1.118.258 1.225.391.079.751-.253.891-.947.116-.572.237-1.157-.205-1.258-.049-.011-.1-.014-.15-.008zm-5.699.832c-.348.044-.724.488-.781.986-.111.462-.27 1.118.254 1.227.385.078.737-.256.877-.947.113-.572.231-1.158-.203-1.26-.048-.011-.097-.012-.146-.006zm18.607.043c-.691-.038-1.016.436-1.186.898-.089.242-.171.961.221.898.543-.088.844-.549.965-1.797zm-24.791.047c-.391-.089-.88.404-.945.969-.113.453-.276 1.105.258 1.211.394.076.753-.252.893-.936.117-.566.238-1.145-.205-1.244zm8.43 9.262c-.548.078-.621.804-.541 1.371.066.446.024 1.141.604.992.4-.104.6-.438.559-1.109-.037-.54-.177-1.315-.621-1.254zm12.826.805c-.692-.039-1.017.435-1.187.898-.088.241-.171.961.223.898.541-.085.843-.549.965-1.797zm.109 8.084c-.509.012-.826.562-1.08 1.82a37.48 37.48 0 0 1 1.506 0s.407-1.842-.426-1.82zm-9.293 1.838c-.359-.086-.812.401-.875.955-.103.448-.254 1.092.238 1.195.361.078.694-.248.824-.924.107-.557.222-1.129-.187-1.227zm8.01.545s-.405 1.842.426 1.82c.511-.012.83-.563 1.082-1.82-.184.021-1.508 0-1.508 0zm-14.748.239c-.447-.009-.599.682-.607 1.242-.004.441-.126 1.105.355 1.051.332-.039.535-.33.588-.984.039-.528.026-1.299-.336-1.309zm-2.498.379c-.651-.041-.957.446-1.115.918-.084.244-.16.979.211.914.508-.088.789-.562.904-1.832zm26.52.033c-.693-.041-1.017.433-1.187.896-.088.242-.17.963.225.9.541-.086.839-.55.963-1.797z" fill="#fff"/></svg>
