<svg enable-background="new 0 0 170.333 169.333" height="166.71" viewBox="0 0 166.708 166.708" width="166.71" xmlns="http://www.w3.org/2000/svg"><path d="m1.2124 83.338c0-45.208 36.646-81.854 81.855-81.854 45.205 0 81.853 36.646 81.853 81.854-.002 45.207-36.647 81.854-81.853 81.854-45.21.001-81.855-36.647-81.855-81.854z" fill="#4e2a84"/><path d="m27.127 27.398c-14.319 14.323-23.17 34.091-23.173 55.94.003 21.852 8.854 41.619 23.173 55.94 14.318 14.318 34.088 23.17 55.94 23.172 21.849-.002 41.617-8.854 55.938-23.172 14.318-14.321 23.171-34.092 23.171-55.94 0-21.85-8.853-41.618-23.171-55.94-14.321-14.316-34.089-23.169-55.938-23.171-21.852.002-41.622 8.855-55.94 23.171z" fill="#fff"/><path d="m25.844 82.991c0-31.498 25.534-57.033 57.031-57.033 31.498 0 57.03 25.535 57.032 57.033 0 31.5-25.534 57.032-57.032 57.032-31.497 0-57.031-25.532-57.031-57.032z" fill="#4e2a84"/><path d="m43.517 43.633c-10.072 10.074-16.3 23.985-16.302 39.358.002 15.373 6.23 29.284 16.303 39.358 10.074 10.074 23.984 16.303 39.357 16.303 15.371 0 29.282-6.229 39.356-16.303s16.303-23.985 16.303-39.358-6.229-29.284-16.303-39.358c-10.074-10.073-23.985-16.301-39.356-16.301-15.373 0-29.283 6.228-39.358 16.301z" fill="#fff"/><path d="m43.004 83.346c0-21.944 17.788-39.729 39.732-39.729 21.941 0 39.728 17.786 39.728 39.729 0 21.942-17.786 39.729-39.728 39.729-21.944.001-39.732-17.787-39.732-39.729z" fill="#4e2a84"/><path d="m55.612 56.223c-6.942 6.945-11.235 16.529-11.235 27.124s4.293 20.179 11.235 27.124c6.942 6.94 16.528 11.233 27.124 11.233 10.593 0 20.179-4.293 27.121-11.233 6.942-6.945 11.235-16.529 11.235-27.124s-4.293-20.179-11.235-27.124c-6.942-6.943-16.528-11.233-27.121-11.233-10.596-.001-20.182 4.29-27.124 11.233z" fill="#fff"/><path d="m77.206 151.3h.0293c.011.002.02148.008.02148.008.424.142 3.0486 1.4906 3.0156 3.3066 0 .046-.0039.10106-.0059.16406-.115 1.407-.96847 2.325-2.3555 2.334-.078 0-.15733-.004-.23633-.008-1.46-.095-2.4337-1.7304-2.4297-3.1484 0-.076.0018-.15075.0078-.21875.078-1.34 1.3471-2.4675 1.9531-2.4375zm1.043-5.5742c.06 0 .11388.003.17188.01 1.221.093 2.0575 1.0154 2.0605 2.1914 0 .058-.0039.1204-.0059.1914-.094 1.127-.7225 1.8691-1.6875 1.8711-.046 0-.09463.00009-.14062-.004-1.037-.074-2.3245-.98889-2.3145-2.3379 0-.059-.00014-.1112.0059-.1582.085-1.084.86916-1.7577 1.9102-1.7637zm.14062-.83007c-1.728 0-3.2606 1.2725-3.3926 3.0625-.006.067-.0078.13698-.0078.20898 0 1.021.54295 1.971 1.377 2.543-1.305.627-2.2376 1.6954-2.3496 3.2344-.008.111-.01563.22399-.01563.33399-.004 2.116 1.5415 3.535 3.3965 3.666.119.008.23747.0156.35547.0156h.01367c2.109 0 3.7424-1.4596 3.8984-3.6426.006-.108.0098-.21436.0098-.31836.004-1.464-.78728-2.5638-1.9883-3.3008.997-.454 1.8914-1.323 1.9844-2.498.008-.111.01172-.21445.01172-.31445.012-1.805-1.2492-2.8625-3.0312-2.9805-.089-.006-.17572-.01-.26172-.01zm12.881-1.1348c-.027 0-.04659.004-.05859.004-.484.188-.2857.62742-1.0957.73242l-2.9746.37695c-.765.093-.82736.57842-.81836 1.1074l-.25586 4.4941c-.008.026-.0049.0449-.0059.0449.01.225.19619.33789.36719.33789.009 0 .02487.00004.04687-.002.331-.046.87722-.27212 1.3242-.32812.21-.029.4078-.041.5918-.041 2.024.008 2.3864 1.4945 2.5234 2.4395.022.202.03516.39793.03516.58593-.004 2.02-1.3939 3.2556-3.0879 3.4766-.208.023-.39073.0332-.55273.0332-.702-.002-.96531-.17345-1.1953-.18945-.033 0-.04102.006-.04102.004-.175 0-.28053.20655-.26953.31055 0 .037.0078.0631.0098.0801.138.367.68262.53312 1.7656.57812.239 0 .50302-.0158.79102-.0508 3.315-.416 4.1907-3.1453 4.1797-4.9453 0-.234-.01311-.45725-.03711-.65625-.251-2.023-1.7223-3.2971-3.6523-3.2891-.194 0-.39566.0131-.59766.0391-.426.053-.8258.16683-1.2168.29883l.16016-2.334c.027-.363.19798-.35359.70898-.43359l1.9453-.24805c.612-.078 1.0018-.0294 1.2188-.48437.119-.288.46552-1.3681.47852-1.6621v-.0156c-.015-.191-.20711-.27467-.28711-.26367zm-21.93-.42578c-.236.027-.97866.44059-2.0977.55859-.948.123-1.3653-.0526-1.5723.44336-.01.027-.01172.0648-.01172.0918.01.183.11495.29084.25195.33984.06.012.10502.0156.16602.0156.171 0 .4343-.0215.6543-.0215.125-.002.23706.007.28906.0234.314.104.3268.17347.3418.35547.002.157-.06639.39845-.15039.68945h.002l-2.2402 7.8906c-.188.607-.47294.67836-.83594.69336-.275.002-.56269-.078-.80469-.082-.14-.011-.35134.0568-.40234.25781-.015.037-.02148.0841-.02148.12109.016.283.26745.34653.43945.39453.49.141 1.4708.34649 2.0938.52149.642.184 1.188.41031 1.748.57031.158.041.33291.0976.50391.0996h.01758c.121 0 .2967-.0614.3457-.23437.01-.045.01367-.0783.01367-.11133-.078-.451-.52428-.42247-.86328-.60547-.363-.168-.65611-.36039-.66211-.90039 0-.149.02689-.32988.08789-.54688l2.5352-8.9414c.168-.596.34036-.75366.44336-1.0977.012-.055.02539-.11178.02539-.17578.011-.108-.06156-.28694-.22656-.33594-.004-.003-.02397-.0107-.04297-.0137-.016-.002-.02139-.002-.02539 0h-.002zm29.236-.8457c-.043 0-.0803.0105-.11328.0215-.202.129-.20575.27266-.46875.59766-.223.301-.54198.68792-.95898 1.0449-.635.57-1.0027.65703-1.0547 1.082 0 .058.0133.1082.0293.1582.063.171.21884.22847.33984.23047.029 0 .0608-.006.0918-.0156.227-.094.70506-.53952.91406-.60352.093-.033.16852-.0449.22852-.0449.223-.022.32495.2423.50195.7793l2.5859 7.623c.051.154.0703.28744.0703.39844-.002.375-.23802.55852-.54102.72852-.282.186-.6537.20061-.7207.59961 0 .049.0125.0863.0215.11328.027.137.18246.25195.31446.25195h.0195c.107-.002.19783-.0334.29883-.0664.475-.161 1.3804-.54109 1.9844-.74609.617-.209 1.1855-.32772 1.7285-.51172.227-.107.57757-.12005.64257-.49805 0-.028-.003-.0627-.0156-.0957-.054-.177-.24586-.26686-.38086-.25586-.31.01-.66948.18469-1.0215.17969-.357-.013-.68508-.12481-.95508-.88281l-2.9277-8.6348c-.198-.573-.14586-.79681-.25586-1.1328-.043-.113-.12042-.30631-.35742-.32031zm-54.586-4.0996.61914 2.2051-1.9238 1.2637 2.3457.26367.73438 2.2441.84375-2.1484 2.293.1543-1.8164-1.4727.88281-2.3984-2.168 1.3574-1.8105-1.4688zm78.885-.48243-1.7559 1.5371-2.2129-1.2695.9707 2.3613-1.7559 1.5352 2.2812-.23633.91993 2.1094.65625-2.2656 2.3359-.35156-1.9766-1.1914.53711-2.2285zm-46.551-6.3184c-2.248-.015-3.2188.90039-3.2188.90039s1.3106.55836 3.2656.31836c1.061-.128 2.1035-.89649 2.1035-.89649s-.21739-.30626-2.1504-.32226zm13.141-.11915c-1.932-.038-2.1562.26368-2.1562.26368s1.0192.79512 2.0742.95312c1.953.293 3.2754-.22851 3.2754-.22851s-.94536-.94129-3.1934-.98829zm-19.102-.74c-1.6717.0899-2.377.76367-2.377.76367s1.3218.6237 3.2578.4707c1.043-.08 2.0469-.81054 2.0469-.81054s-.23039-.32083-2.1504-.42383c-.279-.0146-.53852-.0128-.77734 0zm24.445-.12891c-1.924.05-2.1602.36524-2.1602.36524s.98048.75423 2.0215.86523c1.93.206 3.2695-.38086 3.2695-.38086s-.89586-.90461-3.1309-.84961zm-28.387-1.1094c-2.245-.08-3.2754.80273-3.2754.80273s1.2721.59607 3.2461.41407c1.067-.098 2.1602-.83204 2.1602-.83204s-.19686-.31476-2.1309-.38476zm33.277-.30078c-1.936.017-2.1406.32617-2.1406.32617s1.0747.76658 2.1387.89258c1.969.236 3.2539-.32227 3.2539-.32227s-1.004-.91348-3.2519-.89648zm-25.107-1.2559c-.06497.004-.0918.0137-.0918.0137s.30347 1.0472 1.1055 1.5742c1.479.976 3.0078 1.0352 3.0078 1.0352s-.12792-1.1395-2.0449-2.0195c-1.2375-.56775-1.7817-.615-1.9766-.60351zm16.998-.0781c-.19448-.0168-.73894.0151-1.9922.54688-1.941.827-2.1035 1.9629-2.1035 1.9629s1.5331-.0162 3.0371-.95117c.817-.504 1.1504-1.543 1.1504-1.543s-.02697-.01-.0918-.0156zm-29.607-.05c-.20892-.005-.43783.004-.68945.0312-1.734.189-2.0215.5625-2.0215.5625s.70823.78879 1.6152.84179c1.681.1 3.0137-.6582 3.0137-.6582s-.45553-.73887-1.918-.77734zm43.787-.49219c-.27713-.0123-.6241-.009-1.0586.0215-2.021.145-2.4355 1.1992-2.4355 1.1992s1.449.50838 3.084.10938c.885-.214 1.4375-1.1152 1.4375-1.1152s-.19597-.17786-1.0273-.21484zm-35.293-.49024c-.06552-.003-.09375.004-.09375.004s.14338 1.0658.85938 1.6738c1.324 1.124 2.8438 1.3496 2.8438 1.3496s.04553-1.1368-1.7305-2.2148c-1.1468-.696-1.6824-.80275-1.8789-.8125zm25.398-.26562c-.19641.005-.73339.096-1.9004.75977-1.807 1.027-1.793 2.166-1.793 2.166s1.5248-.18253 2.8828-1.2695c.733-.587.9043-1.6504.9043-1.6504s-.02828-.007-.09375-.006zm-29.678-.72656s.04489 1.0605.71289 1.6855c1.228 1.155 2.7383 1.4297 2.7383 1.4297s.15289-1.123-1.5371-2.25c-1.456-.968-1.9141-.86523-1.9141-.86523zm-10.179-.2c-.82111.0269-1.0215.20312-1.0215.20312s.50809.92239 1.3711 1.1504c1.596.427 3.043-.0703 3.043-.0703s-.36266-1.074-2.3477-1.248c-.42725-.0367-.77122-.0441-1.0449-.0352zm43.912-.23633c-.19749.0109-.7315.1204-1.8438.8164-1.721 1.079-1.5996 2.2051-1.5996 2.2051s1.5202-.23351 2.7813-1.3535c.684-.607.75781-1.6641.75781-1.6641s-.0299-.008-.0957-.004zm10.123-.21485c-.27309-.0166-.61546-.0189-1.043.006-1.989.119-2.3828 1.1836-2.3828 1.1836s1.4341.53629 3.0391.15429c.869-.204 1.4023-1.1113 1.4023-1.1113s-.19634-.1825-1.0156-.23243zm-48.248-.96875s-.0014 1.0601.64062 1.7051c1.183 1.196 2.6836 1.5215 2.6836 1.5215s.19769-1.1149-1.4453-2.2969c-1.418-1.016-1.8789-.92969-1.8789-.92969zm42.568-.3164c-.1973.0174-.7283.14345-1.8106.87695-1.679 1.135-1.5078 2.2539-1.5078 2.2539s1.5086-.28332 2.7246-1.4453c.658-.627.6875-1.6855.6875-1.6855s-.028-.006-.0937 0zm-47.01-2.0137s-.11592 1.0445.45508 1.7285c1.056 1.27 2.5254 1.7012 2.5254 1.7012s.32173-1.086-1.1973-2.375c-1.311-1.107-1.7832-1.0547-1.7832-1.0547zm51.607-.19336s-.4725-.0661-1.8125 1.0039c-1.556 1.246-1.2617 2.3438-1.2617 2.3438s1.4803-.39286 2.5703-1.6309c.592-.67.5039-1.7168.5039-1.7168zm4.9492-.41602c-.19715-.023-.73973-.007-1.9277.48828-1.16.487-1.5929 1.1176-1.7559 1.5176-9.035 4.943-17.61 7.3861-25.283 7.6621l-.95898.13281c.348-.658 1.1788-1.8441.21875-2.0801-.902-.222-1.5262 1.9771-1.1172 2.2031l-.08008.0117c-.014-.001-.02702-.002-.04102-.002-.204-.883-.54195-2.9077-.87695-1.8887-.103.307-1.5862.22866.05078 1.8477-11.559-.498-19.521-3.9378-26.102-7.5488-.162-.396-.59448-1.0296-1.7715-1.5156-1.587-.651-2.0215-.45704-2.0215-.45704s.2118 1.0308.9668 1.5078c.991.628 2.0374.78617 2.5684.82617 6.655 3.655 14.774 7.1678 26.584 7.6348-.171.569-1.5981 1.461-.58008 1.625 1.415.229 1.2546-1.4708 1.8906-.80078.652.688.4617.94055.9707.68555.415-.209-.14133-1.1336-.73633-1.5996l1.0762-.14648c7.739-.276 16.384-2.7456 25.477-7.7246.522-.041 1.5888-.20271 2.5898-.84571.75-.482.95312-1.5137.95312-1.5137s-.028-.0119-.0937-.0195zm17.963-.96875c-.178.009-.25822.12517-.32422.20117-.116.146-.45398.67011-.95898 1.2871-.413.506-1.1159 1.2566-1.2949 1.4766-.107.135-.21166.23879-.22266.42579-.002.098.0561.19314.1211.24414.075.061.16885.0937.25585.0937.461-.054.73908-.53853 1.2051-.51953.187 0 .41499.0695.70899.31054l3.3848 2.7617c.144.107.12683.22572.29883.76172l1.4316 4.3945c.144.443.33013.85363.32813 1.2656 0 .07-.006.13903-.0156.20703-.007.057-.0781.22143-.0801.39843-.002.096.0308.22365.13477.30664.076.061.15705.08.24805.082.09-.002.2002-.026.2832-.12305.338-.413.60778-.85805.92578-1.248.259-.316.59786-.61493.88086-.96094.075-.104.16397-.21476.16797-.38476.005-.116-.0611-.23741-.16406-.31641-.059-.05-.14085-.0801-.21485-.0801-.46.07-.77551.6619-1.1035.6289-.072 0-.1471-.0206-.2461-.10156-.323-.268-.39175-.59008-.46875-.83008l-1.1465-3.3106c-.061-.161-.084-.27917-.084-.32617.0136-.0106.0413-.0205.14063-.0195.048 0 .10673.003.17773.0117l4.0254.50391c.205.018.53064.0457.68164.17773.069.058.0898.12052.0918.22852.004.184-.0956.41939-.10156.65039-.002.097.0289.22078.13086.30078.054.047.12726.0723.19726.0703.224-.015.31953-.16514.39453-.24414.13101-.161.36933-.56372.73633-1.0117.761-.935 1.0218-1.1412 1.3418-1.5312.054-.074.0781-.15337.0781-.23437-.002-.133-.0551-.26152-.16407-.35352-.049-.044-.12045-.0733-.18945-.0723-.422.066-.64519.54507-1.2422.53907-.052 0-.10411-.005-.16211-.0137l-5.5723-.70313c-.268-.021-.68796-.0567-.87696-.2207l-3.3457-2.7305c-.267-.223-.32608-.39831-.33008-.57031-.013-.336.30208-.65249.33008-1.0215.004-.1-.0447-.22387-.13867-.29687-.074-.06-.15791-.10352-.25391-.10352zm-101.57-5.5059c-.229.02-.40042.16753-.73242.39453l-8.3867 6.0254c-.273.194-.47381.248-.63281.25-.354.016-.53397-.29879-.91797-.34179-.082 0-.16633.0291-.23633.0801-.082.052-.14262.15972-.14062.26172 0 .086.03517.1558.07617.2168.26.36.76238.93788 1.1094 1.4219.324.45001.56567.91138.88867 1.3594.059.082.15697.16011.29297.16211.073 0 .14608-.0234.20508-.0664.109-.078.16416-.21126.16016-.32226-.022-.389-.34589-.79392-.33789-1.2949.002-.376.15961-.80274.84961-1.3027l5.9336-4.2637-2.7188 12.391c-.021.086-.10933.28129-.11133.48829 0 .085.01817.17967.07617.26367.176.239.40011.431.53711.625.151.207.24864.4657.43164.7207.084.101.18905.19108.37305.20508.049 0 .11106-.0118.16406-.0508.11-.076.17002-.20932.16602-.32031-.023-.369-.31455-.6999-.31055-1.2129.002-.51.27966-1.216 1.5977-2.166l5.3438-3.8398c.604-.436 1.0272-.56545 1.3262-.56445.597-.015.75919.4896 1.2422.5586.083 0 .17014-.029.24414-.082.049-.039.16206-.1232.16406-.2832-.002-.092-.03961-.17776-.09961-.25976-.084-.119-.67516-.82127-1.0352-1.3223-.505-.702-.73019-1.1419-.99219-1.5059-.066-.098-.18516-.16125-.28516-.15625-.127.002-.20877.0617-.25977.0957-.088.056-.14462.17639-.14062.27539.03.37.37433.70275.36133 1.0938-.002.224-.09023.46482-.49023.75782l-5.9238 4.2578c-.064.049-.11439.0786-.15039.0996.016-.104.05831-.23688.07031-.29688l2.5312-11.256c.056-.269.08008-.45551.08008-.60351.002-.161-.03066-.28695-.09766-.37695-.047-.074-.14761-.11924-.22461-.11524zm108.21-5.2773c-.157-.002-.26064.12261-.30664.22461-.064.126-.14136.42126-1.0684 2.1973-.232.444-.52638.8531-.73438 1.2461-.031.048-.0449.11401-.0449.16601.014.241.22343.29264.23242.30664.061.033.12651.0469.1875.0469.565-.109.65647-.84155 1.2305-.81055.14 0 .31983.0411.54883.16211l8.0606 4.2188c.249.131.42258.21348.51758.27148.079.056.0741.0585.0781.0606.011.014-.0695.18361-.22851.47461l-1.1816 2.2598c-.317.592-.55982.6835-.75782.6875-.245.008-.4802-.19194-.7832-.21094-.142-.009-.29528.0922-.36328.24023-.033.053-.0508.12555-.0488.18555.025.295.27553.34925.39453.40625l1.3008.58203c.146.066.26921.11519.40821.11719.24 0 .39571-.18211.51171-.41211.171-.326.86433-1.8051 2.3613-4.6641 1.064-2.035 1.7622-3.216 2.4102-4.457.027-.066.0488-.12336.0488-.19336-.036-.406-.44522-.53372-.57422-.63672l-1.4394-.97461c-.077-.042-.14408-.0547-.20508-.0547-.104 0-.24246.0388-.31446.17578-.035.057-.0508.13336-.0508.19336.019.273.22764.37475.30664.46875.461.467.66525.67774.65625.92774 0 .159-.0747.38814-.26172.74414l-1.334 2.5469c-.12.011-.49684-.20862-.58984-.26562l-.002-.002-8.2168-4.2988c-.33-.18201-.38463-.39846-.39063-.68946-.003-.257.0703-.53053.0723-.76953.004-.133-.0292-.31334-.19922-.40234-.072-.037-.14247-.0664-.23047-.0684zm-14.869-1.9297 1.6914 2.6484-3.0137-.55469c-.005 0-.01-.00095-.0137-.002.005-.009.0135-.0203.0215-.0312l1.3145-2.0606zm-81.807-3.873c1.092.002 2.0194.52999 2.5664 1.459.336.577.48633 1.1718.48633 1.7578.003 1.462-.94655 2.8807-2.3105 3.6797-.646.379-1.3515.57812-2.0215.57812-1.018-.002-1.9536-.45156-2.5586-1.4766-.334-.57-.48242-1.166-.48242-1.752-.003-1.45.92667-2.8616 2.2637-3.6426.708-.416 1.4116-.60352 2.0566-.60352zm-20.746-.7207c1.938.002 3.4841 1.0454 4.1641 2.7344.262.65201.38086 1.2949.38086 1.9219.004 2.426-1.8065 4.5947-4.1875 5.5527-.756.305-1.5351.46094-2.2871.46094-1.789-.007-3.3972-.86981-4.1602-2.7578-.259-.646-.37695-1.2872-.37695-1.9102-.002-2.405 1.7694-4.5805 4.1074-5.5195.824-.33 1.6224-.48242 2.3594-.48242zm100.79-.4082c-.079-.005-.19028.0456-.23828.14257-.174.27201-.31142.58066-.48242.84766-.178.277-.40461.54261-.59961.84961-.038.072-.13844.15008-.14844.33008-.004.113.0757.22815.17969.28515.044.029.1032.0508.1582.0508.41-.102.45794-.48608.71094-.45508.063 0 .15506.0195.28906.10351.105.065.23158.20186.26758.25586l1.0293 1.5957c.035.057.0449.0958.0449.13476.002.07-.0536.17355-.14063.31055l-1.4629 2.2871c-.105.15-.13795.1492-.25195.1582-.064 0-.15172-.0123-.26172-.0293l-1.0566-.20898c-.352-.072-.98467-.17816-1.1387-.28516-.07-.051-.0741-.0752-.0801-.15625-.005-.128.077-.31653.084-.51953.004-.093-.0315-.22292-.14453-.29492-.047-.027-.0975-.043-.14648-.043-.25.031-.29766.20672-.34766.26172-.184.292-.32018.59824-.49218.86524-.267.418-.57843.81695-.85743 1.252-.022.042-.076.0937-.082.21875-.007.082.0617.18856.13867.22656.043.029.10016.0508.16016.0508.469-.111.50444-.62723 1.0234-.61523h.0293c.474-.002.96607.14137 1.4551.23437l6.7441 1.2559c.048.009.24193.0761.41993.0781.081 0 .18653-.0122.26953-.11524.038-.056.0586-.11587.0586-.17187-.033-.294-.25634-.50605-1.0273-1.748l-3.7227-5.877c-.119-.189-.14839-.33403-.15039-.45703-.002-.189.0769-.31586.0859-.50586.008-.076-.0398-.20186-.13477-.25586-.054-.033-.11064-.0566-.18164-.0566zm-101.59-.94c-.896 0-1.837.18236-2.791.56836-2.613 1.045-4.084 3.3604-4.082 5.9004 0 .87.17039 1.7664.52539 2.6504 1.06 2.644 3.4459 4.2803 6.0879 4.2773.825.001 1.6766-.15809 2.5176-.49609 2.688-1.076 4.3438-3.242 4.3418-5.832 0-.836-.1742-1.7124-.5332-2.6074-1.126-2.814-3.3954-4.4649-6.0664-4.4609zm23.717-1.3574c-.064.002-.13403.008-.20703.0625-.045.024-.15225.099-.15625.24804 0 .056.02083.11125.04883.15625.156.195.50462.31269.64062.55469.12.211.2148.42733.2168.86133 0 .055-.0019.11369-.0059.17969-.043.75-.06055 1.2498-.06055 1.5918-.001.092-.000047.17405.002.24805-.884-.926-2.0021-1.4356-3.2031-1.4336-.826 0-1.6843.23637-2.5273.73437-1.483.867-2.2715 2.3129-2.2695 3.8379 0 .821.22645 1.6641.68945 2.4531.885 1.513 2.402 2.3829 4.002 2.3809.784 0 1.5897-.21139 2.3477-.65039 1.4-.82 2.2774-2.0587 2.4004-3.4297.248.115.5437.17969.8457.17969.295 0 .59733-.0628.86133-.21485.116-.067.23438-.18165.23438-.34765 0-.078-.0235-.1479-.0625-.2129-.062-.10599-.18562-.14071-.26562-.13671-.239.008-.50716.13481-.78516.13281-.238-.006-.44344-.0663-.64844-.40234-.209-.34901-.27348-.97755-.27148-1.6856 0-.634.04297-1.3307.04297-1.9727-.002-.708-.04673-1.3489-.30273-1.7969-.555-.926-1.1704-1.3209-1.5664-1.3379zm98.213-.26758c-.214 0-.34611.18597-.41211.41797-.087.264-.12784.61743-.46484 1.6484-.234.72-.53888 1.4192-.67188 1.8262-.044.118-.0645.21378-.0645.30078-.017.151.13542.29654.23242.31054.042.012.0811.0176.12305.0176.381-.041.47883-.3932.67383-.6582.191-.284.38636-.50395.69336-.50195.078 0 .17039.0138.27539.0488l9.1035 2.9746c.606.217.63049.49808.64649.83008 0 .125-.0117.25019-.0117.36719-.006.146.0329.36926.25195.44726.039.01.0778.0215.13281.0215.226-.014.29738-.20139.35938-.40039.177-.539.28127-1.0857.44726-1.5977.201-.615.46974-1.2048.67774-1.8438.015-.053.0253-.0883.0273-.15234.005-.169-.15862-.27097-.26562-.29297-.026-.011-.0656-.0196-.0996-.0176-.354.057-.39303.36085-.58203.58985-.172.244-.36217.4394-.70117.4414-.098 0-.20885-.0166-.33985-.0586v.002l-8.6797-2.8379c-.869-.303-.90487-.65367-.92187-1.0137 0-.124.0176-.25.0176-.375.011-.15-.0464-.39094-.27344-.46094-.055-.019-.11083-.0332-.17383-.0332zm-13.551-1.9883 2.9121 1.0547c.216.091.19703.10874.20703.17774.004.068-.0491.22287-.12109.42187-.322.885-.89672 1.5665-1.7617 1.5625-.216 0-.45189-.0418-.71289-.13476-.89-.33-1.0672-.86747-1.0762-1.3555 0-.249.0582-.48086.11523-.63086.094-.267.18825-.57083.28125-.79883.046-.112.0939-.20767.13086-.26367.01-.014.0184-.0252.0254-.0332zm-3.7305-3.6836c-.107-.004-.23934.06622-.27734.19922-.161.444-.27369.90203-.42969 1.332-.35.965-.4803 1.1864-.5293 1.3184-.01.039-.0506.09403-.0566.20703-.013.094.0856.22614.1836.24414.037.015.0763.02148.11328.02148.338-.047.39573-.3313.55273-.5293.149-.222.29911-.38286.53711-.38086.074 0 .15763.01569.26563.05469l2.4512.88477c.157.056.14458.03141.14258.06641 0 .019-.007.06467-.0312.13867-.53 1.335-.22083.97604-1.0488 1.207l-2.498.55665c-.821.199-1.6669.46143-2.0059 1.3984-.029.091-.1835.481-.1875.75 0 .064-.00075.20344.15625.27344.035.013.0705.0215.10547.0215.532-.18099.13495-.64362 1.627-1.0156l3.4414-.83008c.103.918.66213 1.8027 1.5781 2.1367.313.111.60123.16211.86523.16211 1.776-.018 2.2994-2.1641 2.3594-2.2891.222-.615.41034-1.292.65234-1.959.211-.585.21745-.47056.31445-.72656.022-.065.0312-.12659.0312-.18359-.003-.124-.0394-.25436-.18945-.31836-.038-.013-.078-.02344-.12305-.02344-.315.039-.3518.29541-.4668.44141-.114.166-.20731.27725-.44531.28125-.091 0-.21042-.02122-.35742-.07422l-5.9121-2.1348c-.384-.146-.42589-.32397-.46289-.54297-.05-.201.0828-.48697-.24219-.66797-.033-.015-.0733-.01953-.11328-.01953zm-86.971-1.338c-.737 0-1.3608.21811-1.5918.28711l-3.6621 1.1074c-.181.054-.32364.07227-.43164.07227-.471.015-.37098-.3325-.83398-.4375-.037 0-.07147.0056-.10547.01563-.179.068-.20298.21131-.20898.32031 0 .032.0057.06289.01172.08789.074.235.18414.43377.24414.63477.137.449.22809.92448.37109 1.3965.069.148.13192.18103.29492.20703.016 0 .03541.000187.06641-.0078.221-.062.28644-.29073.27344-.42773 0-.129-.01758-.25786-.01758-.38086.016-.262.03022-.45953.57422-.64453l3.8301-1.1562c.391-.121.7975-.19731 1.1875-.19531.956.011 1.8112.42331 2.2852 1.9453.106.36.16406.71578.16406 1.0508-.009 1.083-.56317 1.9645-1.9512 2.3945l-4.2422 1.2812c-.096.028-.17338.0391-.23438.0391-.187-.004-.24584-.0828-.33984-.21679-.093-.114-.12997-.3391-.41797-.3711-.037 0-.07061.008-.09961.0156-.159.047-.19545.21497-.18945.29297.002.155.06627.30598.07227.33398.116.381.27472.74538.38672 1.1094.092.303.13547.60954.23047.93554.061.09.0517.27966.3457.34766.018 0 .0365.001.0625-.008.234-.073.27258-.31113.26758-.45313-.002-.115-.01372-.23384-.01172-.33984.013-.223.019-.3243.25-.4043l3.9844-1.2012c1.461-.432 2.8498-1.2969 2.8438-3.2539 0-.505-.09106-1.0793-.28906-1.7363-.633-2.122-2.0191-2.6516-3.1191-2.6406zm-24.353-.42c1.604-.002 2.0363 1.295 2.1523 1.959.084.531.21684 1.1662.21484 1.5332 0 .101-.01139.1798-.02539.2168l.0059.01367-4.4746.69922c-.07.012-.13255.01758-.18555.01758-.338 0-.31873-.17139-.42773-.77539-.045-.279-.06836-.55808-.06836-.83008.016-1.37.56053-2.5111 2.2695-2.7891.194-.03.37406-.04492.53906-.04492zm133.86-3.258c-.022 0-.0416-.000047-.0566.002l-2.3359.06055c-.581.129-1.3559 1.5911-1.6309 2.9551-.094.541-.13282 1.0371-.13282 1.4941-.009 2.957 1.7819 4.1366 3.1289 4.3516.258.042.50238.06055.73438.06055 2.077-.002 3.0253-1.6465 3.7773-3.1895.757-1.576 1.3727-3.027 2.5957-3.002.1 0 .20155.0064.31055.02539 1.247.209 1.7156 1.2379 1.7266 2.3809 0 .224-.0196.45383-.0566.67383-.254 1.492-1.179 2.5689-2.707 2.8379-.159.051-.59847.01987-.73047.42188-.01.022-.008.06308-.008.08008-.004.259.25534.35547.40234.35547l2.4356.13672c.017 0 .0297.002.0527.002h.0332c.201 0 .367-.16645.375-.31445v-.0664c-.027-.246-.15463-.32303-.14063-.33203h.008c-.027-.084.77996-.72652 1.127-2.8535.048-.313.0762-.62655.0762-.93555.01-1.749-.88-3.3957-2.875-3.7227-.234-.042-.45697-.06055-.66797-.06055-1.99.006-2.8937 1.6591-3.6367 3.2051-.749 1.577-1.3835 3.0337-2.6465 3.0117-.104 0-.21413-.0093-.32813-.0293-1.482-.249-2.1404-1.4911-2.1484-2.8691 0-.234.0225-.46717.0625-.70117.386-2.331 2.3116-3.0393 3.1016-3.1133.319-.021.69906.03314.78906-.38086.002-.041.002-.05341.002-.06641-.015-.307-.31372-.41797-.63672-.41797zm-21.281-2.4922c-.213.002-.29092.21445-.29492.31445-.076.496-.11959 1.016-.18359 1.5-.116.918-.33152 1.8305-.47852 2.7695-.035.211-.0684.38931-.0684.57031-.004.271.0919.53522.33594.82422.28.348.67236.76652 1.1934.85352.055-.002.0566.002.0566.002.054 0 .24474.0012.30274-.21875l.0156-.11523-.0586-.03711c-.083-.18-.22853-.23478-.39453-.55078-.19-.337-.39063-.86995-.39063-1.752 0-.327.0267-.70481.0957-1.1328.128-.691.19335-.68808.40235-.70508.126 0 .31359.03917.55859.07617l2.2461.34961c.21601.033.21885.02783.21485.04883 0 .013-.002.02511-.004.03711l-.27929 1.8047c-.085.441-.24705.46477-.49805.50977-.058.013-.12727.01172-.19727.01172-.2-.003-.43029-.0022-.52929.30078-.012.004-.006.04764-.008.05664-.011.158.15211.29288.28711.29688.337.055.65975.07695.96875.12695.383.059.79552.14584 1.2285.21484.026.002.0568.0078.0918.0078.104 0 .30442-.02305.35742-.24805l.004-.03516-.008-.0332h-.002c-.078-.323-.33442-.2803-.48242-.4043-.169-.109-.31427-.22772-.32227-.63672 0-.076.009-.16844.0254-.27344l.20313-1.3184c.021-.15.0397-.24906.0527-.28906.038.002.12323.0162.24024.0332l2.2695.35156c.582.117.53773.04686.55273.25586.002.146-.0415.40841-.10352.81641-.055.485-.25812 1.7696-.57812 1.8926-.033.014-.0987.02539-.17773.02539-.126 0-.27883-.02734-.42383-.02734-.125-.017-.35653.05358-.39453.26758-.012.04.004.05664-.008.05664.07.311.28055.40395 1.5606.62695.046.006.0964.01172.15039.01172.007.001.0145.002.0215.002.104 0 .27654-.05333.31054-.23633.06-.388.18466-1.5199.22266-1.7539.078-.501.22794-1.1393.58594-3.4453.016-.119.0234-.20911.0234-.28711.024-.15-.095-.35442-.25-.35742-.004-.005-.0222-.0039-.0332-.0039h-.01c-.35599.064-.33857.39141-.39257.44141-.126.359-.29738.40888-.60938.42188-.161.002-.35101-.02664-.54101-.05664l-5.5645-.86328c-.588-.092-.81914-.16777-.86914-.38477-.137-.373-.0497-.55822-.3457-.69922-.04-.013-.0711-.01367-.0781-.01367zm-104.99-.108c-.007-.002-.02183-.0051-.04883.0059-.171.023-.27748.21612-.27148.32812-.049.353.10108.93833-1.1699 2.1113l-3.8457 3.5039c-.66-.984-1.7714-1.6835-2.9824-1.6855-.157 0-.31847.01206-.48047.03906-2.241.343-2.7074 2.1236-2.6934 3.3926 0 .749.14711 1.367.16211 1.457.145.925.3693 1.9177.5293 2.9297.083.531.08594.70508.08594.83008 0 .006.000047.018-.002.041 0 .072.0015.15248.02148.27149.045.242.17602.44689.41602.46289h.02148c.535-.145.36283-.64771.42383-.97071.063-.352.14159-.64997.93359-.79297l8.9688-1.4062c.091-.012.17309-.01758.24609-.01758.451.004.64531.20998.82031.45898.182.23.23047.56433.60547.61133.023 0 .03302-.002.04102-.002.184-.023.33398-.16161.33398-.34961 0-.022-.002-.03706-.002-.03906-.108-.698-.28472-1.3547-.38672-2.0137-.229-1.464-.21809-1.8481-.24609-2.0371-.017-.068.01373-.39274-.32227-.42773-.016 0-.04403-.0012-.08203.0098-.501.153-.34188.70481-.42188 1.1328-.069.459-.16784.82436-.83984.94336l-3.7168.58203c-.092.016-.16784.03711-.21484.03711-.056-.017-.08625.03861-.15625-.27539-.116-.743-.18945-1.1718-.18945-1.4238.004-.389.11717-.38911.70117-.91211l2.7773-2.4395c.805-.741 1.5751-1.5198 1.5781-2.6738 0-.138-.0112-.27888-.0332-.42188-.015-.082-.05695-.36281-.12695-.63281-.102-.262-.07783-.54095-.42383-.62695 0 .002-.0038 0-.0098 0zm13.717-1.603c.002.013.0029.02497.0039.04297l.14062 2.4375-2.9219-1.1582 2.7656-1.3184c.004-.002.0077-.0029.01172-.0039zm3.8105-4.0879c-.008-.002-.02831-.0053-.07031.01172-.295.087-.25416.38369-.28516.55469-.03.219-.07597.42589-.29297.58789-.385.289-.8848.46464-1.3418.68164l-6.1973 2.9336c-.065.072-.45197.05055-.54297.43555.003 0-.0118.05542.0332.10742h.002c.131.293.43495.27091 1.877.87891l6.457 2.582c.313.125.40647.28441.48047.44141.074.123.06256.36788.35156.42188.015.004.02239.0039.02539.0039h.002v-.0039c.123-.006.24502-.06869.29102-.17969l.02539-.01758-.0039-.06641-.0039-.0332c-.02-.338-.08651-.66742-.10352-.98242-.007-.094-.0098-.1872-.0098-.2832 0-.147.0059-.30017.0059-.45117 0-.102-.0038-.20278-.0078-.30078-.006-.069.0047-.15662-.02734-.26562-.025-.117-.18017-.23766-.32617-.22266h-.0059c-.01-.002-.03131-.0022-.07031.0098-.342.084-.23602.42508-.29102.58008-.058.188-.06278.29498-.42578.33398h-.04297c-.121.002-.27212-.03178-.32812-.05078l-1.7656-.6875c-.166-.072-.16555-.16402-.18555-.41602l-.15625-2.7109c-.002-.018-.002-.03002-.002-.04102.01-.212.06275-.21228.34375-.36328l.97852-.45117c.327-.149.9018-.43355 1.0918-.43555.011-.002.01563-.002.01563-.002.1-.002.14461.06514.22461.24414.072.137.09777.39712.38476.45312h.002l.01758.0078.03906-.002c.285-.051.27044-.30577.27344-.38477-.002-.033-.0039-.05859-.0039-.05859-.022-.364-.08942-.69672-.10742-1.0117-.029-.495-.0081-1.0015-.03906-1.5195 0-.047-.0273-.32812-.2793-.32812h-.0059zm117.03-2.66c.517.022.40684.15098.46484.83398.003.054.004.10997.004.16797-.019 1.648-.65053 3.0756-2.6445 3.1426-.037.002-.0772.002-.11524.002-1.986-.004-2.2765-1.5172-2.3125-2.2402-.011-.38-.041-.8033-.041-1.1543 0-.218.0121-.40553.0391-.51953.013-.052.0301-.08756.0391-.10156l4.5215-.12891h.004c.02 0 .03-.002.041-.002zm-21.262-1.8965c-.033.002-.0332.004-.0332.002-.321.06-.27885.34719-.33985.49219-.058.178-.13026.35286-.44726.50586h-.002l-7.0742 3.3555c-.232.151-.76642.19362-.85742.64062.004.072.0215.07508.0195.08008l.006-.002c.137.361.55436.31994.81836.46094l7.4004 2.7637c.39.147.47639.27628.52539.36328.03.052.0748.29764.33985.30664h.0137c.204-.003.33031-.21309.32031-.37109l.002-.01953c-.011-.214-.0638-.36908-.0898-.95508-.004-.046-.006-.07642-.006-.10742 0-.186.0215-.3867.0215-.5957 0-.035.00004-.07237-.002-.10938 0-.143-.12826-.35766-.32226-.34766-.033.002-.0332.004-.0332.002-.349.076-.28393.39002-.33593.54102-.054.193-.0593.25744-.23633.27344-.064.01-.10253.01563-.14453.01563-.2.002-.49067-.09058-.63867-.14258l-5.3848-1.9199c-.069-.024-.1375-.04355-.1875-.06055.115-.068.37962-.18628.76562-.36328l4.9902-2.377c.093-.048.27716-.10923.41016-.11523h.0137c.133.002.18472.06002.26172.16602.087.089.0874.26745.35742.31445h.0117c.24-.043.27611-.2158.28711-.3418v-.0078c-.011-.201-.0788-.65852-.0918-.97852-.004-.081-.008-.15361-.008-.22461 0-.215.0137-.44092.0137-.66992 0-.077-.00091-.15719-.004-.24219-.002-.174-.16584-.34203-.33984-.33203zm22.164-1.4141-.0215.002c-.005.002-.0228.000719-.0488.01172-.452.106-.36003.59653-.45703.89453-.104.341-.22139.62697-1.0254.66797l-9.0723.25977h-.0547c-.583-.008-.77064-.25011-.93164-.53711-.168-.266-.1707-.6657-.5957-.7207-.003 0-.007-.001-.0176 0-.175.005-.34965.14556-.34765.35156v.002c-.001.006-.001.01158 0 .01758.021.686.11086 1.3565.13085 2.0195.01.394.0137.7118.0137.9668 0 .677-.0312.91845-.0312 1.0645 0 .002.002.0133.004.0293v.02148c0 .004-.004.02173-.004.05273 0 .085.044.36486.29297.38086h.0234v-.0039c.549-.099.46371-.6555.59571-1.0625.128-.449.27012-.79808.95312-.83008l3.7637-.10938c.072-.002.13269-.01372.17969-.01172.094.029.11025-.06413.15625.29688.013.45.0234.78511.0234 1.0371-.03.859-.0371.63789-.82813 1.2129l-3.0625 2.0684c-.978.691-1.9258 1.445-1.9258 2.793 0 .021-.002.05656.004.10156 0 .063.008.35672.043.63672.068.255.007.53148.3164.64648l-.004.0078.0176.0059h.002l.0156.0059h.0312c.005 0 .01.002.0156.002.173 0 .3084-.18002.3164-.29102.093-.346.0207-.94527 1.4297-1.9473l4.2578-2.9902c.585 1.172 1.7648 2.0703 3.1328 2.0723h.082c2.835-.083 3.1742-2.6536 3.1602-3.8496 0-.34-.0235-.59772-.0215-.63672-.026-.94-.1272-1.9515-.1582-2.9785-.002-.135-.006-.24684-.006-.33984 0-.5.041-.48905.043-.74805v-.02148c-.011-.292-.12463-.52978-.39063-.55078zm-145.34-.926c-.045 0-.08414.0019-.11914.0039l-1.4238.02734c-.21.002-.38139.01172-.52539.13672-.141.131-.16969.30748-.17969.52148-.017.367-.01434 1.9986-.15234 5.2246-.098 2.288-.22811 3.6529-.28711 5.0449-.006.029.000094.03125-.0039.03125.065.541.67098.46677.83398.50977l1.8223.28516.01953-.0293c.133-.03.26602-.11936.29102-.31836l-.08203-.01953h.08203c-.021-.387-.39572-.42175-.51172-.46875-.925-.38-1.0442-.29791-1.0742-1.1289 0-.067.0019-.13884.0059-.21484l.12305-2.877c.035-.014.14186-.04016.25586-.03516.162 0 .31758.02239.39258.02539l9.2676.39648c.442.025.5838.28586.7168.63086.143.316.10402.74698.54102.83398h.04102c.092 0 .1953-.0137.2793-.0957.079-.084.09361-.18153.09961-.26953l-.12109-.02539h.11914c0-.082-.01367-.21172-.01367-.63672 0-.355.01183-.9102.04883-1.7832.02-.502.11281-.99541.13281-1.4414l-.03125-.01953h.03125v-.0039c-.005-.325-.366-.32422-.375-.32422.021-.002-.01358-.002-.01758-.002-.476.057-.43078.52159-.55078.80859-.123.314-.24328.56117-.86328.57617-.03 0-.05989-.002-.08789-.002l-9.089-.391c-.372-.014-.59702-.01702-.66602-.04102l-.01563-.0059c-.005-.002-.01567-.04691-.01367-.12891-.002-.09.0086-.22048.01758-.39648l.10742-2.5469c.062-.872.30694-.935.58594-1 .147-.024.31061-.01392.47461-.04492.16-.012.36733-.17816.36133-.41016l-.002-.02539v-.0098h-.002c-.007-.293-.30936-.36133-.44336-.36133zm20.057-1.2734c-.1-.008-.30394.04219-.33594.24219-.058.387-.17398 1.5189-.20898 1.7539-.073.503-.21569 1.1392-.55469 3.4492-.018.11-.02539.20234-.02539.27734-.024.158.10091.36319.25391.36719l.04102-.01953v.02148c.357-.063.33958-.39436.39258-.44336.123-.368.29619-.41764.61719-.43164.159 0 .3433.03064.5293.05664l5.5703.81445c.591.086.821.16291.875.37891.139.373.05261.55827.34961.69727.053.008.07617.0098.07617.0098.211-.002.29292-.2095.29492-.3125.073-.497.11188-1.017.17188-1.502.11-.92.31808-1.8364.45508-2.7734.029-.213.0625-.3865.0625-.5625.004-.274-.09084-.54103-.33984-.83203-.283-.346-.68017-.7617-1.2012-.8457-.02-.004-.03573-.0039-.05273-.0039-.05 0-.2112.0021-.2832.16211-.023.035-.01944.0668-.02344.0918.071.288.24427.29478.44727.67578.196.342.39839.88897.40039 1.793 0 .315-.02394.67498-.08594 1.084-.129.694-.18934.68908-.40234.70508-.125.002-.31178-.03436-.55078-.06836l-2.248-.33008c-.221-.037-.2208-.02873-.2168-.05273 0-.004-.000047-.01334.002-.02734l.26562-1.8105c.082-.444.24514-.46667.49414-.51367.22-.053.59361.09064.72461-.31836.002-.024.0059-.02769.0059-.05469.013-.157-.15111-.29488-.28711-.29688-.339-.049-.6617-.07214-.9707-.11914-.383-.056-.79552-.14208-1.2285-.20508-.028-.006-.06089-.0059-.08789-.0059-.104 0-.30942.021-.35742.25-.006-.006-.0039.02501-.0059.04102.073.348.34114.30074.49414.42774.172.11.32012.22953.32812.64453 0 .078-.0065.16567-.02148.26367l-.19336 1.3203c-.021.148-.03974.24906-.05273.28906-.038-.001-.12033-.01425-.23633-.03125l-2.274-.334c-.591-.116-.53964-.03881-.55664-.25781-.003-.145.04052-.40564.10352-.80664.047-.491.23759-1.7793.55859-1.9043.032-.017.09764-.0293.18164-.0293.121-.002.26716.02539.41016.02539.129.016.37525-.05111.40625-.28711l.002-.03711-.006-.01563c-.079-.293-.30455-.3877-1.5605-.5957-.05-.01-.10248-.01367-.14648-.01367zm122.67-10.873c-.039 0-.0688.0047-.0898.01172-.306.095-.28893.39469-.29493.55469 0 .079.008.14959.008.18359v.01367c.002.046.004.08419.004.11719.005.719-.64101.87273-1.416 1.0527l-7.9316 1.8047c-.388.087-.69288.14653-.92188.14453-.257-.004-.39534-.05861-.52734-.22461-.387-.442-.36919-.68747-.74219-.73047h-.0312c-.195.023-.31197.2187-.29297.3457 0 .06.01.11402.0195.16602.162.704.38364 1.4234.55664 2.1094.332 1.301.52904 2.6475.83204 3.9785.16.743.2595 1.2517 1.0625 1.6797.461.264 1.0486.53997 1.6426.54297.12 0 .23933-.01206.36133-.03906.044-.027.27546-.04013.31445-.32812 0-.008.00015-.02955-.006-.06055-.11-.239-.23665-.20194-.43165-.33594-.57499-.324-1.7749-1.1178-2.4609-4.0938-.074-.315-.10547-.55261-.10547-.72461.006-.563.26509-.5097 1.1211-.7207l3.1992-.72852c.125-.033.2435-.0645.3125-.0625.07.017.0584-.02591.10938.12109l.58593 2.5742c.025.118.0371.22536.0371.31836-.006.428-.2342.58619-.5332.74219-.275.162-.67352.18456-.72852.60156 0 .038.008.06866.0156.09766.015.143.17966.29325.34766.28125.042 0 .083-.0066.125-.01563.479-.11.92318-.24766 1.3672-.34766.55-.126 1.1487-.22624 1.7637-.36524.14599-.048.39082-.11034.42382-.40234 0-.011.00014-.0305-.006-.0625-.195-.44-.59115-.22794-.91015-.33594-.33-.079-.67386-.24928-.88086-1.1133l-.42774-1.875c-.056-.234-.086-.38517-.084-.45117-.009-.058-.0485-.02863.39453-.14062l3.2363-.73438c.336-.079.56812-.13086.70312-.13086.237-.031.2796.15572.5586 1.3867.11.487.38872 1.4868.38672 2.2168.002.322-.0581.58012-.16407.70312-.098.114-.35928.19267-.61328.26367-.229.075-.54817.13438-.57617.48438 0 .042.008.07461.0117.09961.038.176.23661.28339.59961.27539.33 0 .85881-.06553 1.7578-.26953.186-.056.44056-.09649.47656-.39648 0-.01.002-.0325-.004-.0625-.127-.554-.56072-2.1425-.63672-2.4805-.164-.72-.30183-1.6485-1.0488-4.9375-.105-.436-.18075-.67117-.46875-.70117zm-118.56-.129c-.096-.016-.25048.07173-.27148.17774-.018.037-.02344.08405-.02344.12305.006.117.03616.19403.03516.20703v.002c-.02987.1655-1.2466.62071-2.0156 2.7891-.195.532-.28516 1.0679-.28516 1.5859 0 1.957 1.289 3.6866 3.25 4.3926.563.203 1.1241.30078 1.6621.30078h.0059c1.825 0 3.3894-1.1451 4.0684-3.0391.419-1.178.54102-2.0653.54102-2.6973-.024-.821-.1372-1.1312-.2832-1.2852l-1.0703-.6875c-.05-.031-.10453-.04102-.14453-.04102-.113.006-.21939.0525-.27539.1875-.017.033-.01753.07261-.01953.09961.004.135.07283.23845.17383.31445.269.199.75795 1.0552.75195 2.1562 0 .43-.06905.90158-.24805 1.3926-.546 1.506-1.8521 2.1425-3.2871 2.1465-.585 0-1.1878-.1075-1.7578-.3125-1.642-.6-2.6132-1.6565-2.6152-3.1035 0-.417.08181-.87042.25781-1.3574.523-1.435 1.4809-1.9368 2.9629-2.2148.011-.014.05056-.0098.10156-.0098.136.006.36577.01048.50977-.22852.009-.035.01758-.06256.01758-.10156-.133-.446-.54461-.32183-1.0996-.54883-.518-.158-.75341-.24405-.94141-.24805zm-22.065-4.418c-.201-.004-.40219.17292-.49219.54492-.104.37-.10539.63286-.27539 1.2559-.086.313-.40055 1.1935-.56055 1.7695-.022.078-.03516.14789-.03516.21289-.018.188.16372.3338.26172.3418.033.006.05684.0097.08984.01172.352-.049.40208-.35231.58008-.57031.168-.235.34373-.41988.67773-.42188.084 0 .18383.01387.29883.04687l3.5254.9707c.045.01.14623.03241.24023.06641.037.013.06789.02997.08789.04297l-1.7227 6.2461c-.012.042-.02325.06994-.03125.08594-.026-.004-.07367-.01325-.13867-.03125l-3.7148-1.0234c-.737-.223-.70656-.61372-.72656-1.0117 0-.017.0039-.03845.0039-.06445-.009-.166.03086-.41544-.24414-.52344-.024-.008-.05984-.01172-.08984-.01172-.174-.002-.32181.15411-.38281.41211-.15.545-.22905 1.1002-.37305 1.6172-.172.625-.40984 1.226-.58984 1.873-.018.055-.0293.11755-.0293.18555-.015.125.08177.31252.25977.35352.035.006.05503.0078.08203.0078.377-.069.39484-.40878.58984-.67578.178-.284.37605-.50972.74805-.51172.081 0 .17816.01202.28516.04102v-.002l8.8027 2.4277c.964.29.94289.68098.96289 1.084v.16406c-.006.178.01883.46197.29883.54297.061.015.11569.02734.17969.02734.008 0 .01744.002.02344.002.14 0 .29241-.12262.31641-.26562.03-.126.0028-.268.33984-1.5.252-.905.66352-2.1321.72852-2.3691.017-.067.02734-.13031.02734-.19531.002-.108-.03594-.27408-.21094-.33008-.028-.01-.07042-.01758-.10742-.01758-.408.047-.49812.43914-.70312.74414-.193.325-.40047.57822-.73047.57422-.07 0-.14647-.0082-.23047-.0332l-4.2812-1.1797c-.059-.016-.104-.03006-.125-.03906.001-.009.0058-.02111.0098-.03711l1.7441-6.3301c.053.017.14967.05194.26367.08594l4.125 1.1387c.468.141.53884.38422.58984.69922.063.29-.06402.67956.33398.85156.045.01.08781.01758.13281.01758.381-.033.38202-.40533.41602-.48633.095-.35.15598-.83469.45898-1.9297.165-.609.37972-1.1157.51172-1.5957.007-.031.01067-.04894.01367-.08594-.027-.233-.15806-.32205-.28906-.37305-.02-.008-.05889-.01367-.08789-.01367-.386.06-.44039.41526-.65039.69727-.196.3-.4162.54102-.7832.54102-.084 0-.1763-.01202-.2793-.04102l-9.1152-2.5117c-.665-.2-.6422-.55197-.6582-.91797v-.08203c-.008-.149.03248-.38042-.22852-.48242-.03-.012-.07405-.01953-.12305-.01953zm113.13-2.7812c-.2.004-.36045.11158-.43945.14258l-1.1094.45703c-.116.064-.18246.15202-.18946.29102 0 .052.0171.09777.0371.13476.052.116.19697.17792.29297.16992.105-.002.18723-.03197.24023-.04297.246-.05.42683-.08403.54883-.08203.192.008.26377.04275.50977.46875l.9414 1.7109c-.073.072-.27375.16617-.34375.20117l-5.627 3.0898c-.087.045-.1557.06055-.2207.06055-.313.027-.49816-.43567-.91016-.51367-.052 0-.10153.01406-.14453.03906-.077.033-.1885.12862-.1875.26562.002.079.0297.12783.0527.17383.056.095.18942.24103.85742 1.457.166.302.28945.62539.43945.90039.034.083.13761.15039.22461.15039h.0117c.109-.002.16969-.05269.17969-.05469.118-.066.17592-.20374.16992-.30274-.011-.226-.11924-.41761-.11524-.59961.006-.149.0406-.28489.35157-.46289l5.5195-3.0332c.209-.123.33786-.18512.38086-.20312.025.035.0773.12734.15429.27734l.85157 1.5488c.12.219.15429.37066.15429.47266.037.325-.39144.2407-.52344.7207 0 .068.0227.12769.0527.17969.044.093.15772.16706.26172.16406.145-.006.22211-.07619.28711-.11719l.83398-.52539c.146-.091.29288-.20234.29688-.40234-.002-.112-.0397-.2065-.0977-.3125-.124-.225-.71111-1.1875-1.7871-3.1465-.766-1.393-1.1765-2.2477-1.6445-3.0977-.062-.125-.20655-.18669-.31055-.17969zm-85.468-3.557c-.132.008-.21802.05825-.29102.15625-.133.209-.21312.42166-.32812.59766-.256.393-.55622.77155-.82422 1.1855-.052.065-.03402.10353-.04102.14453.007.076.01095.17172.12695.26172.062.037.12822.06055.19922.06055.465-.086.56622-.57588.94922-.54688.116 0 .27424.04069.49024.17969l3.3594 2.1758c.801.519 1.4669 1.226 1.4629 2.166 0 .461-.15664.99624-.55664 1.6152-.565.868-1.3252 1.3887-2.1992 1.3887-.485 0-1.014-.16134-1.582-.52734l-3.7207-2.4082c-.24-.162-.26448-.266-.27148-.375-.006-.147.10709-.30234.12109-.52734.006-.09-.04844-.21839-.14844-.27539-.034-.029-.09962-.04297-.14062-.04297-.313.051-.36706.33133-.41406.36133-.216.332-.38866.68976-.59766 1.0098-.17.266-.37945.49725-.56445.78125-.045.072-.09061.17141-.09961.31641 0 .059.01442.1528.10742.2168.058.037.12445.05469.18945.05469.437-.074.61147-.55072.85547-.51172.051 0 .10941.01345.19141.06445l3.4922 2.2617c.728.471 1.5213.83789 2.3633.83789h.0098c1.039 0 2.1018-.58424 3.0898-2.1152.525-.815.73438-1.5399.73438-2.1719-.006-1.777-1.6174-2.7024-1.9824-2.9414l-3.2129-2.0801c-.447-.297-.47638-.48439-.48438-.65039 0-.092.02534-.18378.02734-.30078.006-.094-.04106-.24536-.16406-.31836-.049-.033-.10548-.04297-.14648-.04297zm106.64-4.521c-.07 0-.13727.02083-.19727.04883-.155.058-.22389.23742-.21289.35742.004.181.0586.36231.0586.57031-.004.241-.0586.50612-.35157.82812l-7.6523 8.3242c-.234.282-.77055.66538-.81055 1.1094 0 .052.0122.10248.0332.14648.122.238.36021.23909.57421.24609.24501 0 .52654-.03606.76954-.03906l11.4-.31445c.039-.004.0744-.0039.10937-.0039 1.011.017.74538.35484 1.2344.46484.061 0 .11878-.01406.17578-.03906.135-.058.23847-.20266.23047-.34766 0-.087-.0225-.16895-.0606-.25195-.12-.259-.28177-.44866-.63477-1.2227-.155-.338-.25187-.72361-.42187-1.0996-.055-.131-.16847-.28125-.35547-.28125-.072.002-.13631.02183-.19531.04883-.154.058-.21899.23452-.20899.35352.007.24.11143.49231.10743.69531-.011.166-.0303.25733-.23633.36133-.263.193-.86358.24981-1.1426.25781l-8.25.34961c-.124.002-.24508.02148-.33008.02148-.092-.002-.0858-.0079-.0918-.0039.019-.066.3143-.41739.9043-1.0254l5.3945-5.8887c.104-.118.32072-.30758.51172-.39258.075-.037.13827-.04883.19727-.04883.284-.019.44173.30723.80273.36523.044 0 .0966-.01016.14063-.03516.143-.075.17378-.21822.17578-.32422 0-.064-.0101-.13122-.0391-.19922-.114-.247-.45834-.82495-.65234-1.252-.21591-.47301-.37919-1.0064-.61319-1.5234-.061-.141-.20128-.25986-.36328-.25586zm-29.121-1.6523c-.05 0-.11792.0145-.16992.0625-.065.047-.11728.15123-.11328.24023.037.337.31069.5355.30469.9375 0 .323-.17055.79475-.93555 1.4688l-3.4199 3.0117c-.428.374-.71806.46684-.91406.46484-.325.013-.44297-.25278-.79297-.30078-.081 0-.16656.03584-.22656.08984-.035.023-.11133.1017-.11133.2207 0 .095.0465.16742.10351.23242.07.079.52174.51789.80274.83789.395.446.57811.7308.78711.9668.051.066.14256.10938.22656.10938.122-.004.18566-.06475.22266-.09375.064-.062.10065-.14475.0976-.21875-.045-.335-.33922-.52978-.32422-.80078-.002-.124.0435-.2688.26954-.4668l3.7832-3.334c-.005.031-.01.06094-.0117.08594l-.97656 7.9219c-.017.12-.0215.22169-.0215.30469 0 .187.0333.3162.11328.4082.04.052.11283.08203.17383.08203h.006c.213-.023.30721-.14998.53321-.33398l5.3672-4.7227c.192-.171.32374-.20503.42774-.20703.188-.011.31203.14683.58203.17383.072.002.1587-.02603.2207-.08203.054-.052.0977-.12198.0977-.20898 0-.081-.0341-.15217-.0781-.20117-.207-.234-.59033-.59434-.86133-.90234-.252-.283-.45007-.585-.70507-.875-.052-.056-.12943-.11128-.23243-.11328-.076 0-.14535.03312-.19335.07813-.074.052-.11143.16038-.10743.23438.035.347.33813.60638.32813.98438-.002.221-.0955.49094-.48047.83594l-3.6914 3.25 1.0098-8.582c0-.045.041-.16964.043-.30664 0-.073-.0119-.16986-.0859-.25586-.143-.159-.31116-.27458-.41016-.39258-.114-.126-.19965-.29775-.34765-.46875-.076-.072-.15507-.12676-.28907-.13476zm-68.012-3.456c-.065 0-.13741.02517-.19141.07617-.168.16-.20744.2615-.39844.4375-.022.022-.35394.26138-.46094.35938-.086.062-.10352.174-.10352.25.004.181.08452.35541.10352.44141l1.8574 6.334c.068.218.12334.40739.15234.52539-.053-.018-.12594-.04222-.21094-.07422l-6.4082-2.6016c-.074-.024-.18795-.12867-.37695-.13867-.078 0-.16842.0347-.23242.0957-.18.168-.31012.35433-.45312.48633-.154.146-.3512.25873-.5332.42773-.063.059-.14534.13716-.15234.28516 0 .072.03403.14822.08203.19922.058.065.15247.10652.23047.10352.263-.025.36567-.17002.63867-.16602.304-.002.8483.18836 1.7793 1.1934.879.951 1.6599 2.0108 2.9199 3.5918.246.303.30273.49991.30273.62891.012.223-.18352.29538-.22852.60938 0 .088.04447.17819.10547.24219.051.057.12538.11324.23438.11524.067 0 .14627-.03112.19727-.07813.185-.172.28791-.33458.75391-.76758.264-.244.69903-.58212.83203-.70312.088-.098.2037-.16633.2207-.36133.002-.067-.03012-.14341-.07812-.19141-.062-.07-.16395-.11723-.25195-.11523-.324.035-.50016.27758-.78516.26758-.189-.002-.45127-.09148-.82227-.52148l-2.707-3.1348 5.4883 2.1816c.051.017.21325.12681.40625.13281.055 0 .13231-.01231.19531-.07031.076-.086.07808-.15394.08008-.21094-.006-.238-.14902-.59092-.16602-.66992l-1.668-5.5664c-.03-.094-.04673-.16861-.05273-.22461.049.038.10883.09211.17383.16211l3.3496 3.4336c.173.185.20503.3102.20703.4082.011.185-.15659.32747-.18359.60547-.002.086.03661.18105.09961.24805.037.039.10417.08784.20117.08984.08 0 .15684-.0368.21484-.0918.239-.221.49462-.52539.76562-.77539.354-.328.69777-.57995.88477-.75195.069-.08.1948-.14456.2168-.35156.002-.066-.02927-.13559-.07227-.18359-.068-.076-.17253-.127-.26953-.125-.326.039-.48208.27872-.70508.26172-.105 0-.24245-.04061-.43945-.22461l-4.2852-4.3711c-.334-.34-.4102-.56498-.4082-.70898-.017-.252.2312-.35155.2832-.68555.002-.076-.03484-.1637-.08984-.2207-.063-.066-.14419-.10542-.24219-.10742zm92.273-2.1562c-.107.004-.16637.0468-.23437.0918-.098.052-.14663.18448-.14063.27148.019.319.26091.64995.25391 1.002-.004.223-.0734.43583-.39844.67383l-7.5332 5.1602c-.361.245-.62517.32226-.82617.32226-.519.017-.66758-.50303-1.1426-.58203-.077 0-.1548.02731-.2168.07031-.089.054-.20312.16417-.20312.32617.004.13.0594.23805.15039.37305.157.228.41434.47609 1.0273 1.3711.428.624.79906 1.2935 1.0391 1.6445.12.17.20554.28969.39454.30469.081-.002.14245-.03345.18945-.06445.122-.085.17978-.22766.17578-.34766-.017-.377-.30292-.78825-.29492-1.1562.007-.206.0641-.3735.33008-.5625l7.8984-5.4141c.234-.162.4155-.21094.5625-.21094.45-.021.6378.48745 1.0918.56445.062 0 .13145-.01959.18945-.05859.064-.044.15825-.13172.15625-.26172-.006-.137-.0653-.22238-.15429-.35938-.321-.466-.6911-.88212-.9961-1.3281-.366-.532-.67078-1.1032-1.0508-1.6582-.048-.071-.12558-.16788-.26758-.17188zm-33.973-1.623c-.058-.002-.15003.02347-.20703.10547-.041.045-.0684.12531-.0664.19531.065.423.51842.62047.48242.85547 0 .054-.0153.11422-.0723.19922l-2.4004 3.3965c-.524.739-.9355 1.5604-.9375 2.4414-.002 1.006.55318 2.0525 1.9922 3.0625.838.595 1.5979.82617 2.2559.82617 1.703-.005 2.6524-1.5182 2.9024-1.8652l2.209-3.1289c.297-.413.48367-.45008.63867-.45508.11-.002.21061.03511.34961.03711.093.006.23169-.03944.30469-.14844.03-.058.0469-.10616.0469-.16016-.008-.12-.0446-.2072-.14257-.2832-.202-.143-.41004-.22761-.58204-.34961-.384-.271-.75034-.589-1.1523-.875-.068-.042-.11515-.04292-.16016-.04492-.072.004-.16299.0072-.25.11523-.043.054-.0762.13094-.0742.21094.078.448.53767.57355.51367.93555 0 .124-.0443.28491-.19727.50391l-2.3086 3.2695c-.539.758-1.2515 1.3809-2.1465 1.3789-.479 0-1.03-.17505-1.666-.62305-.82-.581-1.3047-1.33-1.3047-2.166 0-.508.17875-1.0624.59375-1.6484l2.5547-3.6211c.164-.223.26814-.24991.36914-.25391.155-.01.31369.12358.55469.14258.087.004.20657-.04467.26758-.13867.028-.052.0449-.09744.0449-.14844-.047-.304-.31085-.37097-.33985-.41797-.324-.229-.67432-.41572-.98633-.63672-.25799-.182-.48281-.39675-.75781-.59375-.074-.047-.17612-.10819-.32812-.11719zm-49.669-.274c1.488-.002 2.9217.98291 3.6797 2.3789.371.684.53906 1.3527.53906 1.9707-.002 1.135-.56697 2.093-1.543 2.625-.55.299-1.1121.43164-1.6621.43164-1.502.002-2.9389-1.0067-3.7109-2.4297-.341-.622-.51953-1.2916-.51953-1.9316.002-1.057.47855-2.0243 1.5605-2.6133h.002c.545-.297 1.1033-.43164 1.6543-.43164zm-35.201 0c-.193.008-.25792.15789-.29492.21289-.221.368-.43417.86064-.70117 1.3066-.211.35-.48408.66325-.70508 1.0312-.037.049-.05078.11883-.05078.17383.004.172.11333.29314.23633.36914.056.033.11111.04492.16211.04492.445-.07.73417-.62084 1.0762-.58984.065 0 .13189.01545.21289.06445.168.1.27767.20133.38867.36133l5.1758 6.9082c.17.214.28717.39952.32617.47852-.023.004-.05856.0078-.10156.0078-.088 0-.21391-.0102-.37891-.0332l-3.9316-.61914c-.266-.041-.69302-.15666-.79102-.22266-.123-.076-.22322-.14436-.44922-.44336l-1.8496-2.5898c-.595-.826-.66602-1.2065-.66602-1.3965-.002-.09.01753-.14524.01953-.24024.012-.123-.08766-.27284-.22266-.33984-.041-.029-.09691-.03516-.12891-.03516-.115.008-.19467.04844-.26367.14844-.17.288-.20938.48539-.60938 1.1504-.19.319-.4452.60303-.6582.95703-.039.067-.12681.18733-.13281.36133-.006.086.04458.20672.14258.26172.062.037.13041.05469.19141.05469.427-.053.69295-.50156 1.002-.47656.07 0 .14623.01812.24023.07813.113.065.31683.28478.42383.42578l1.334 1.8242c.041.058.08123.11211.11523.16211-.061-.008-.13375-.0173-.21875-.0293l-2.488-.419c-.233-.037-.29684-.04848-.46484-.14648-.157-.102-.17369-.19647-.17969-.35547-.002-.104.02148-.2207.02148-.3457.002-.1-.02202-.25766-.16602-.34766-.076-.045-.15595-.07808-.25195-.08008-.067-.002-.17161.03105-.22461.12305-.211.352-.39312.78962-.82812 1.5156-.121.2-.67519.97886-.99219 1.5059-.045.074-.09566.15439-.09766.27539-.004.123.08555.23402.18555.29102.074.043.15433.06836.23633.06836.627-.121.67419-.98003 1.4922-.95703.061 0 .13012.0056.20313.01563l4.6055.69141c.237.037.48095.08742.50195.10742.045.022.2467.22258.4707.51758l2.0039 2.75c.056.064.09137.12306.10938.16406-.011 0-.0212.002-.0332.002-.088 0-.2145-.01711-.3125-.03711l-8.937-1.42c-.154-.019-.313-.07819-.375-.11719-.178-.11-.20108-.23964-.20508-.43164-.002-.101.01172-.20455.01172-.31055s-.0072-.26524-.16016-.36524c-.069-.041-.14333-.07612-.23633-.07813-.098-.004-.21086.06239-.25586.15039-.229.38-.38856.78576-.60156 1.1348-.257.431-.59609.85164-.87109 1.3066-.063.101-.10933.22619-.11133.36719-.004.126.06012.28519.20312.36719.057.035.12064.05273.18164.05273.453-.074.56816-.54697 1.2852-.54297.082 0 .17058.0074.26758.02344l10.328 1.6562c.854.131 1.3545.25095 1.6875.25195h.01172c.166 0 .33764-.04136.43164-.19336.045-.082.08398-.1752.08398-.2832-.002-.178-.092-.3373-.25-.5293l-3.1738-4.2109 5.0078.73437c.262.033.43917.05273.57617.05273.178.012.35383-.06231.42383-.19531.047-.082.06836-.16991.06836-.25391-.008-.286-.19545-.50959-.31445-.68359l-6.8965-9.5c-.425-.583-.48047-.87988-.48047-1.0469 0-.094.02239-.15276.02539-.25976.01-.106-.07645-.25059-.18945-.30859-.072-.043-.1417-.07227-.2207-.07227zm35.842-1.0176c-.776 0-1.5751.19833-2.3281.61133-1.585.862-2.5137 2.4134-2.5137 4.0664 0 .741.18803 1.5016.58203 2.2266.775 1.427 1.9836 2.3428 3.3516 2.5098-.133.263-.20798.58125-.20898.90625 0 .273.05641.55178.19141.80078.063.121.1757.24609.3457.24609.076 0 .14217-.02173.20117-.05273.125-.07.15244-.2013.14844-.2793-.007-.228-.11138-.48414-.10938-.74414.008-.25.06678-.46311.42578-.66211.298-.167.78652-.22856 1.3535-.22656.826 0 1.8054.11719 2.6504.11719.572-.003 1.0818-.05091 1.4648-.25391.954-.532 1.3688-1.1391 1.3848-1.5371 0-.063-.01197-.12273-.04297-.17773-.033-.064-.10872-.17569-.26172-.17969-.052 0-.10725.01687-.15625.04687-.191.146-.32141.49119-.56641.61719-.201.109-.40711.19136-.78711.19336-.078 0-.16481-.0057-.25781-.01367-.952-.084-1.5-.11328-1.834-.11328h-.0078c.99-.886 1.5391-2.0439 1.5371-3.2969 0-.784-.2133-1.6031-.6543-2.4141-.844-1.558-2.3312-2.3926-3.9082-2.3906zm42.148-1.751c-.918-.006-1.7955.43722-2.2285 1.4492-.155.347-.22266.67247-.22266.98047.062 2.187 3.3204 3.0898 3.2324 4.4668 0 .143-.0305.29394-.10351.46094-.315.716-.92143 1.0067-1.6074 1.0117-.355 0-.72626-.08242-1.0723-.23242-1.28-.555-1.5575-1.6579-1.5625-2.2969 0-.095.008-.18009.0195-.24609.017-.126.0488-.22094.0508-.33594.015-.109-.075-.27345-.20703-.31445-.035-.019-.082-.0293-.12305-.0293-.243.019-.33667.22226-.38867.44726l-.3457 1.5684c-.012.041-.0027.07031-.01172.07031.062.452.8859 1.1778 1.7539 1.5918.76999.332 1.4368.47266 2.0098.47266h.008c1.379 0 2.1705-.82002 2.4785-1.541.165-.388.23828-.74608.23828-1.0801-.058-2.256-3.2961-3.1583-3.2051-4.4863 0-.134.0306-.27455.0996-.43555.255-.59.72339-.79964 1.2754-.80664.323 0 .66938.08275.98438.21875.886.388 1.4277 1.1016 1.4297 2.0566 0 .062-.002.12355-.006.18555-.006.039-.0117.10188-.0117.17188.011.125-.0109.31745.20507.43945.042.019.0847.0293.13672.0293.186-.002.27192-.15995.29493-.25195l.49609-1.6133c.015-.049.0234-.09058.0234-.14258.01-.135-.0946-.2542-.18164-.2832-.041-.017-.0898-.0293-.13282-.0293-.104.009-.15287.03592-.17187.04492-.067-.065-.45275-.68856-1.7188-1.2266-.468-.202-.95855-.31445-1.4356-.31445zm-28.894-3.186c-.033 0-.06098.0057-.08398.01172-.232.063-.43272.16866-.63672.22266-.454.121-.9322.19817-1.4082.32617-.152.062-.18875.12988-.21875.29688 0 .024.0047.04931.01172.07031.057.234.30813.2923.45313.2793.1 0 .19688-.01177.29687-.0098.283.019.49388.01866.67188.59766l1.0332 3.8633c.096.36.16016.7367.16016 1.0957-.015.997-.43548 1.8784-2.0215 2.3184-.334.086-.65498.13477-.95898.13477-1.126-.01-2.0307-.5873-2.4277-2.0293l-1.1445-4.2812c-.025-.09-.0332-.15875-.0332-.21875.006-.199.08561-.25761.22461-.34961.117-.088.35562-.11802.39062-.41602 0-.028-.0047-.05694-.01172-.08594-.053-.173-.22073-.20912-.30273-.20312-.148.002-.29827.0565-.32227.0625-.384.103-.75109.25256-1.1211.35156-.304.082-.61441.11217-.94141.20117-.094.055-.28933.0398-.36133.3418.002.041.0098.0585.0098.0625.076.259.34009.28039.49609.27539.076 0 .15642-.0039.23242-.0039.254.014.37517.01467.45117.26367l1.0762 4.0195c.39 1.507 1.2402 2.9492 3.2832 2.9492h.01367c.471 0 1.0054-.07433 1.6074-.23633 2.221-.583 2.7532-2.0363 2.7402-3.1543 0-.685-.17833-1.2605-.23633-1.4785l-.99023-3.6953c-.045-.168-.0625-.3013-.0625-.4043-.015-.51.35284-.38038.46484-.85938 0-.027-.0017-.0607-.01172-.0957-.07-.185-.21127-.21366-.32227-.22266zm9.0156-.74609c-.048.002-.04183.0059-.04883.0059-.357.017-1.4915.12953-1.7285.14453-.508.029-1.1602.01448-3.4902.14648-.323.006-.56694.06903-.58594.33203 0 .018.002.03116.002.03516.096.37.46653.27731.51953.32031.541.045.5527.46488.5957 1.0469l.31836 5.623c.006.134.01172.25633.01172.36133-.006.356-.05103.48631-.20703.57031-.338.212-.53528.16442-.61328.48242-.002.225.22213.31069.32813.30469h.02148c.006 0 .01153.001.01953 0 .502-.029 1.0219-.09577 1.5059-.13476.926-.076 1.8635-.05638 2.8105-.10938.521-.019.91659-.03578 1.3086-.55078.27-.335.58189-.78211.58789-1.2871v-.05078c-.02-.037.0096-.2655-.27539-.3125-.029-.002-.08008.01953-.08008.01953l.0039.01172c-.271.134-.24622.36469-.69922.67969-.433.321-1.1948.67391-2.5918.75391-.085.002-.15861.0039-.22461.0039-.712-.047-.5008-.0805-.5918-.8125l-.12695-2.2676c-.007-.068-.01367-.12497-.01367-.16797 0-.045.0089-.05169.0059-.05469 0 0 .000922-.0079.04492-.0039l1.8242-.10352c.024-.002.04345-.0039.06445-.0039.391.014.44706.16644.53906.39844.091.202.02955.56676.43555.63477h.01172c.158 0 .30888-.16436.29688-.31836v-.02148c-.019-.352-.06212-.67047-.07813-.98047-.022-.389-.02287-.81005-.04687-1.248-.021-.119-.03045-.35162-.31445-.39062-.031-.002-.08008.01953-.08008.01953l.002.0059c-.313.131-.2035.4198-.3125.5918-.089.201-.2125.39645-.8125.43945l-1.332.07617c-.101.004-.17947.0078-.23047.0078-.028 0-.05045-.000953-.06445-.002v-.02539c-.007-.043-.01158-.11394-.01758-.21094l-.12695-2.293c-.01-.15-.01563-.26747-.01563-.35547.016-.325-.0743-.20764.9707-.30664.224-.012.5977-.04687.9707-.04687.456-.01.90691.07684 1.0039.21484.053.058.08061.2505.09961.4375.017.158.04633.45847.36133.48047h.01367c.264-.062.34752-.2593.35352-1.0293 0-.175-.0036-.38376-.01758-.63476-.015-.136-.01669-.38678-.30469-.42578zm-49.092-2.535c-.077-.002-.16275.03475-.21875.09375-.394.397-1.4972 1.6144-1.7422 1.8594-.519.524-1.2305 1.1401-3.6035 3.5371-.252.262-.37267.39652-.38867.60352-.002.1.05352.18542.10352.23242.07.069.16514.0977.24414.0957.265-.013.46283-.207.54883-.25.217-.162.38687-.21284.54687-.21484.387-.008.79617.36544 1.2012.77344l5.7773 5.7246c.492.479.75609.80627.74609 1.0723 0 .061-.01116.12436-.03516.19336-.142.448-.26425.5765-.28125.8125 0 .084.03308.16647.08008.23047.076.08.16195.125.25195.125.151-.006.24222-.08997.32422-.16797.509-.514.99647-1.0836 1.4805-1.5996.922-.98 1.9521-1.8679 2.9121-2.8359.497-.499.86247-.83552.85547-1.6035 0-.063-.0028-.12827-.0078-.19727-.032-.641-.13934-1.4469-.65234-1.9629-.045-.037-.12097-.12281-.29297-.13281-.066-.002-.14717.02794-.20117.08594-.08.083-.06822.15675-.07422.21875.002.135.0293.30659.0293.55859-.003.733-.21967 2.0971-2.1387 4.0391-.45.457-.73062.60366-.89062.59766-.198.017-.44705-.24469-.87305-.67969l-2.332-2.3086c-.153-.137-.26119-.26416-.24219-.28516 0-.01.0015-.03752.0625-.10352l1.8594-1.875c.26-.264.46458-.33203.64258-.33203.436-.021.76584.47634 1.2148.52734.095.002.20144-.04119.27344-.11719.061-.065.10938-.14891.10938-.25391 0-.117-.05867-.21202-.13867-.29102-.348-.344-.70439-.6458-1.0254-.9668-.4-.397-.80886-.84997-1.2559-1.293-.097-.088-.21653-.18445-.39453-.18945-.075-.002-.16652.02775-.22852.09375-.059.053-.09575.14856-.09375.22656.041.368.37814.61673.36914 1.0527-.002.254-.10534.57591-.52734 1.0039l-1.3555 1.3672c-.249.266-.36523.32612-.36523.32812-.01.01-.08978-.05048-.30078-.27148l-2.3555-2.3359c-.396-.379-.55706-.5782-.53906-.6582-.028-.106.24588-.41808.92188-1.0801.471-.501 1.6881-1.7928 2.2871-1.7598.02 0 .03764.0019.05664.0039.31.022.60927.5992 1.0723.6582.098.002.20048-.04314.27148-.11914.041-.043.08598-.12484.08398-.21484-.021-.292-.24784-.67644-1.3398-1.7734-.125-.115-.23864-.23119-.43164-.24219zm97.668-2.2402c-.063 0-.14794.01994-.21094.08594-.072.062-.11919.17053-.11719.26953.048.45.52653.75759.51953 1.4336 0 .489-.2549 1.1839-1.2539 2.1719l-4.6875 4.627c-.63.62-1.0659.77148-1.3809.77148-.458.011-.6938-.33505-1.0918-.37305-.104-.002-.21597.04795-.29297.12695-.043.037-.11914.12195-.11914.25195 0 .11.0565.20597.14453.29297.101.101.79252.70162 1.2285 1.1406.607.615.89789 1.013 1.2129 1.332.066.073.16486.11719.25586.11719.153-.004.23906-.09072.28906-.13672.061-.066.10356-.15319.10156-.24219-.058-.433-.55506-.7315-.53906-1.1875 0-.192.0799-.4218.37695-.7168l5.1875-5.127c.053-.055.0988-.09405.13282-.12305v.0039c0 .118-.0205.23373-.0215.30273l-.75 11.512c-.006.097-.008.18477-.008.25977.002.379.0537.57308.17969.70508.04.048.11954.08008.18554.08008h.006c.26-.027.39599-.21391.70899-.50391l7.3457-7.2578c.292-.29.5095-.35352.6875-.35352.277-.008.48597.18603.79297.20703.096.002.20611-.04114.28711-.11914.061-.064.10356-.14342.10156-.23242 0-.104-.0503-.189-.11133-.25-.312-.317-.8964-.81042-1.3164-1.2324-.39-.396-.70185-.81308-1.0898-1.2051-.066-.064-.15262-.12109-.26562-.12109-.091-.002-.18019.04247-.24219.10547-.074.064-.11523.17253-.11523.26953.045.464.56859.85752.55859 1.4785-.002.332-.14144.73624-.64844 1.2402l-5.1953 5.1348.75391-12.662c.002-.068.0391-.22381.0391-.38281 0-.114-.0141-.25023-.1211-.36523-.211-.211-.4629-.36316-.6289-.53516-.182-.18-.31706-.41853-.53906-.64453-.089-.081-.19761-.14244-.34961-.14844zm-86.407-5.899c-.086 0-.15894.03431-.21094.07031-.243.226-.16526.42005-.19726.37305-.041.078-1.0639-.06289-2.8379 1.1621-1.182.808-2.0371 2.0157-2.0391 3.3477 0 .625.19309 1.2715.62109 1.8945.737 1.087 1.6947 1.461 2.6777 1.457 1.848-.008 3.8567-1.22 5.3027-1.207.606.004 1.0865.18786 1.4805.75586.313.457.44531.92391.44531 1.3789.004.996-.65112 1.9686-1.5781 2.6016-.76.516-1.4915.69726-2.1465.69726-1.035.002-1.8851-.4633-2.2461-.7793-.211-.176-.31294-.36472-.58594-.38672-.088 0-.16738.03503-.23438.08203-.101.06-.16511.18378-.16211.30078.006.19.11406.35334.28906.52734l1.668 1.6484c.125.104.25111.10633.41211.11133.648-.004 1.9268-.36138 2.8438-.98438 2.074-1.416 2.7637-2.9332 2.7617-4.2012 0-.807-.27214-1.5028-.61914-2.0098-.81-1.19-1.8378-1.5958-2.8828-1.5918-1.866.008-3.851 1.1956-5.25 1.1836-.582-.004-1.0372-.17784-1.4102-.71484-.258-.377-.36028-.74552-.36328-1.1035-.004-.848.6182-1.6739 1.4082-2.2129.64-.438 1.3306-.66797 2.0156-.66797.649 0 1.2962.20525 1.9062.65625.119.078.33828.27902.61328.29102.059 0 .13426-.01559.19726-.05859.101-.066.17488-.17892.17188-.29492-.002-.129-.06495-.21902-.12695-.29102l-1.5898-1.8496c-.088-.11-.20398-.18555-.33398-.18555zm71.721-3.6875c-.074 0-.1869.01995-.2539.12695-.044.062-.0684.14761-.0684.22461.08.554.81443.82223.77343 1.2402 0 .087-.0246.18655-.10156.31055l-3.1484 5.1191c-.638 1.032-1.125 2.1486-1.125 3.3066-.006 1.501.8391 3.0277 3.1211 4.4277 1.142.703 2.1484.98242 3.0234.98242 2.578-.008 3.8788-2.3817 4.2188-2.9277l2.8965-4.709c.432-.688.73886-.74395 1.0059-.75195.13 0 .25748.02534.39648.02734.131.006.31616-.04694.41016-.21094.033-.06.0449-.11702.0449-.16602-.01-.16-.0753-.27438-.19726-.35938-.294-.18-.60405-.28812-.87305-.45312-.581-.358-1.1363-.78425-1.7363-1.1562-.065-.035-.11606-.03706-.16406-.03906-.099.006-.22236.0182-.31836.1582-.048.066-.0762.15333-.0762.23633.093.587.85617.75691.82617 1.3789 0 .188-.0619.42628-.25195.73828l-3.0293 4.9219c-.745 1.204-1.7858 2.2276-3.2188 2.2246-.666 0-1.4344-.21967-2.3164-.76367-1.317-.813-2.1152-1.9395-2.1172-3.2695 0-.695.22265-1.4566.72265-2.2676l3.3535-5.4531c.234-.375.41947-.4325.60547-.4375.233-.006.47018.1452.74218.1582.118.006.2688-.05955.3418-.18555.026-.056.043-.10325.043-.15625-.054-.371-.44019-.47316-.49219-.53516-.481-.296-1.0045-.53317-1.4785-.82617-.397-.242-.73844-.53702-1.1484-.79102-.089-.05-.23816-.11705-.41016-.12305zm-57.16-3.628c-.123 0-.23705.03866-.37305.09766-.338.144-1.8093.85014-4.7773 2.1191-2.113.903-3.4005 1.3777-4.6855 1.9277-.188.072-.26676.27102-.25976.41602.004.228.10658.44755.14258.56055l.49805 1.6641c.067.144.17642.24781.35742.25781.037 0 .07814-.0074.11914-.02344.189-.074.26491-.26744.25391-.39844 0-.109-.02225-.20339-.03125-.27539-.024-.281-.04687-.50383-.04687-.67383.019-.439.06983-.53709.79883-.87109l2.6504-1.1348c.003.003.0085.01125.01953.03125.11.121.22662.45569.26562.55469l3.6465 8.5273c.048.113.06445.21088.06445.29688.033.552-.77009.78698-.87109 1.334 0 .047.0113.09372.0293.13672.04.118.15036.26367.31836.26367h.0039c.071 0 .13245-.02097.18945-.04297.131-.06.37575-.23734 2.2188-1.0273.462-.197.94547-.326 1.3555-.5.127-.049.21308-.18502.20508-.29102-.002-.107-.04578-.18131-.05078-.19531-.069-.183-.2652-.261-.4082-.25-.239.004-.48861.0938-.72461.0918-.281-.01-.52548-.07709-.77148-.62109l-3.575-8.363c-.168-.383-.26195-.59972-.25195-.63672.006-.008-.0062-.01216.04883-.03516.072-.041.21683-.09655.42383-.18555l2.3477-1.0039c.291-.127.50806-.17188.66406-.17188.308.006.41497.14761.54297.34961.123.178.18025.48262.53125.51563.061 0 .1245-.01402.1875-.04102.14-.053.23647-.19917.23047-.32617-.006-.156-.07605-.26252-.12305-.35352l-.63867-1.2734c-.109-.244-.26139-.44922-.52539-.44922zm21.445-2.9141h.07422c1.682.019 3.1573.66227 3.1973 2.6973 0 .008-.0039.02678-.0039.05078-.005 2.043-1.5434 2.3099-2.2754 2.3379-.337.004-.71411.02344-1.0371.02344-.247 0-.46747-.01197-.60547-.04297-.069-.017-.11491-.03878-.12891-.05078l-.06055-4.5156-.002-.02149c.027-.552.1498-.43052.8418-.47852zm-9.041-.1191c-.027 0-.05036.0018-.06836.0078-.547.113-2.1395.52175-2.4805.59375-.721.152-1.6532.2757-4.9512.9707-.439.094-.68098.16894-.70898.46094 0 .037.0058.06208.0098.08008.105.333.42289.29364.58789.30664.049 0 .09391-.002.12891-.002l.02148.002c.048-.002.07252-.002.10352-.002.74-.01.88173.64664 1.0527 1.4316l1.6777 7.959c.077.37.13086.66853.13086.89453-.005.273-.06333.41873-.23633.55273-.449.376-.69719.35728-.74219.73828 0 .014.002.02425.002.03125.02.178.18841.29297.31641.29297.01 0 .0203.000047.0293-.002.053 0 .1042-.0066.1582-.01758.707-.15 1.4291-.35653 2.1191-.51953 1.308-.313 2.6562-.48753 3.9902-.76953.747-.148 1.2592-.23911 1.6992-1.0371.275-.467.56636-1.0581.56836-1.6621 0-.111-.0102-.22098-.0332-.33398-.025-.049-.03912-.27931-.32813-.32031-.037 0-.05745.0078-.06445.0078-.232.105-.19894.22887-.33594.42187-.333.569-1.1428 1.7615-4.1328 2.3965-.3.062-.53017.0938-.70117.0918-.592-.008-.52256-.25795-.72656-1.127l-.67578-3.2109c-.029-.127-.06255-.24255-.06055-.31055.02-.078-.02591-.06228.12109-.11328l2.584-.54102c.115-.027.21573-.03711.30273-.03711.442.006.596.23697.75.54297.158.279.17561.68423.59961.74023.025 0 .05498-.0038.08398-.0078.156-.021.30602-.18252.29102-.35352 0-.037-.0037-.07814-.01367-.11914-.102-.479-.23027-.92409-.32227-1.3711-.117-.551-.20789-1.1535-.33789-1.7715-.043-.152-.10439-.39864-.40039-.43164-.033.002-.05631.0058-.07031.0098-.43.187-.22489.58534-.33789.90234-.084.329-.26.67223-1.125.86523l-1.8848.39453c-.228.047-.37731.07622-.44531.07422-.068.004-.03163.05447-.14062-.39453l-.68164-3.2461c-.072-.333-.12114-.56322-.11914-.69922-.031-.249.14353-.27992 1.3945-.54492.477-.103 1.4439-.35356 2.1719-.35156.345-.002.622.06369.75.17969.113.099.18986.36023.25586.61523.072.23.12747.55203.48047.58203.027 0 .05784-.0038.08984-.0098.179-.045.29906-.23777.28906-.63477 0-.331-.06119-.85375-.24219-1.7188-.052-.191-.08858-.45133-.39258-.48633zm20.723-.61523c-.126.013-.32716.01472-.41016.26172-.01.016-.01172.05594-.01172.08594.074.464.52428.44203.86328.70703.354.245.70494.62686.71094 1.6309 0 .351-.04525.77506-.15625 1.2891l-1.3828 6.4336c-.267 1.19-.68011 1.4372-1.0371 1.5332-.336.118-.81524-.08508-.99024.41992-.009.024-.01367.06651-.01367.10352-.015.145.13412.3168.32812.3418.145.031 1.0522.1532 1.6562.2832.845.182 1.3081.35322 1.7461.44922.029.004.0568.0098.0918.0098.26-.002.34156-.24617.35156-.32617.003-.047.0039-.04717.0059-.07617-.074-.419-.46233-.38978-.73633-.55078-.297-.148-.53006-.30825-.53906-.78125 0-.099.01592-.21652.04492-.35352l1.5352-7.1309c.015-.076.02997-.13669.04297-.17969.06.089.11644.21648.14844.27148l5.6738 10.045c.288.493.45692.66475.66992.71875.021.004.0356.0039.0586.0039.373-.086.33085-.38956.46485-.85156l2.1738-10.096c.139-.59.36628-.69339.61328-.77539.226-.083.5967-.01802.7207-.41602.004-.029.008-.04913.008-.07813.006-.173-.14729-.30131-.27929-.32031-.434-.093-1.1954-.18455-1.7774-.31055-.544-.118-1.0323-.29411-1.5703-.41211-.031-.008-.0687-.01172-.0977-.01172-.139-.01-.31193.1053-.33593.2793-.007.008-.0117.04308-.0117.08008.068.45.51251.46217.85351.70117.359.223.68346.50975.68946 1.2188 0 .177-.0213.38033-.0703.61133l-1.53 7.142-6.298-11.01c-.079-.105-.13247-.47203-.48047-.58203-.291-.06-.58341-.04952-.81641-.10352-.251-.052-.49764-.17709-.80664-.24609-.029-.008-.0638-.0098-.0918-.0098zm-10.648-.21875c-.281 0-.48625.01653-.53125.01953-.933.012-1.9467.09737-2.9727.10938h-.18164c-.688 0-.61855-.05655-.93555-.06055-.015 0-.03164-.000141-.05664.0059-.22441.004-.46023.11451-.49023.37305.001-.005-.001-.01553 0-.01953.001.001-.0029.0013-.0039.0293.000828-.0033.0034-.0047.0039-.0078-.001.018-.0021.03655.0059.06055.091.473.59158.38428.89258.48828.34.109.6263.23016.6543 1.0352l.11523 9.0762v.02539c-.01.601-.25878.78627-.55078.94727-.27.167-.67538.15784-.73438.58984.001.007.0029.01353.0039.01953.006.161.12464.32466.30664.34766l.0059.002h.04102c.691-.008 1.3672-.08866 2.0332-.09766.186-.002.35281-.0039.50781-.0039 1.003 0 1.3328.04288 1.5098.04687l.01367.0039.03906-.0039c.026 0 .05689.002.08789.002.064 0 .22264-.03548.30664-.14648h.06055l-.002-.17383c-.082-.537-.64855-.45966-1.0605-.59766-.447-.134-.79245-.28384-.81445-.96484l-.04883-3.7656c-.002-.072-.01172-.12588-.01172-.17188.032-.105-.07117-.11816.29883-.16016.358-.004.64309-.0098.87109-.0098 1.052.037.77019.0036 1.3672.84961l2.0195 3.0957c.684 1 1.4336 1.9668 2.8086 1.9688h.01563v-.002c.103-.002.39678-.0042.67578-.03516.207-.054.43031-.01992.57031-.16992l.10352.02734-.002-.20117c-.004.029-.02097.06189-.04297.08789.017-.031.03097-.06642.04297-.10742v-.002-.002c.016-.181-.16816-.32594-.28516-.33594-.342-.099-.94378-.03498-1.9258-1.459l-2.921-4.304c1.193-.575 2.1171-1.7643 2.1191-3.1523h-.0059c-.043-2.9613-2.759-3.2692-3.904-3.2562zm-25.537 50.177 6.705 4.968v-4.066l.435.119c.003-.001.682.185 1.75.399l-3.784-6.117 5.948 6.479c1.12.154 2.37.274 3.637.274.091 0 .18-.006.271-.008l-3.953-10.388 6.28 10.192c.58-.095 1.143-.218 1.658-.398.202-.07.427-.129.657-.185l-2.111-12.07 4.456 11.77c.218-.009.435-.021.657-.021.498.001 1.001.025 1.497.071l.224-13.009 2.341 13.519c.426.144.818.316 1.158.522.175-.107.366-.203.566-.292l2.87-13.623-.246 12.943c.664-.086 1.351-.129 2.028-.131.073 0 .144.006.217.007l4.787-11.384-2.464 11.603c.402.076.787.165 1.119.28.429.15.895.257 1.374.347l6.362-9.537-4.125 9.766c.193.006.386.017.58.017 1.297 0 2.594-.124 3.746-.287l5.565-5.64-3.546 5.295c.202-.041.394-.081.569-.12l.418-.092v4.936l7.491-5.142-7.491 7.563v3.133l11.412-4.975-11.412 7.806v1.738l14.179-3.183-14.179 6.153v1.093l15.69-.476-15.69 3.492v.875l15.896 2.566-15.896.455v.988l14.786 5.402-14.786-2.411v1.479l12.398 7.445-12.398-4.557v2.585l8.822 7.915-8.822-5.369v.813l-.271.057c-.482.104-1.085.224-1.757.337-1.079.184-2.351.352-3.678.416-.369.019-.741.031-1.114.031-.33 0-.66-.012-.989-.029-1.171-.062-2.323-.234-3.36-.594-.195-.068-.424-.129-.662-.186-.131-.031-.272-.057-.414-.083-.793-.15-1.728-.241-2.69-.24-1.925-.007-3.936.348-4.906 1.042l-.198.139-.194-.139c-.986-.699-2.844-1.046-4.646-1.042-1.355 0-2.688.188-3.594.509-.383.133-.785.233-1.195.318-.308.064-.62.119-.939.16-.672.085-1.361.124-2.05.124-.496-.001-.992-.02-1.48-.052-.313-.021-.619-.049-.924-.08-1.199-.123-2.317-.314-3.237-.505-1.436-.296-2.389-.585-2.397-.585l-.244-.076v-.588l-9.666 4.545 9.666-8.06v-2.267l-13.025 4.258 13.023-7.19v-1.316l-15.176 1.914 15.176-4.932v-.908l-16.038-1.041 16.038-1.996v-.859l-15.582-4.067 15.582 1.039v-1.145l-13.826-6.604 13.826 3.633v-1.892l-10.83-7.998 10.83 5.196v-3.493l-6.705-7.278zm38.581 45.219 7.724 10.213-4.964-10.049c1.333-.014 2.599-.144 3.652-.298l6.84 6.157-4.409-6.613c.215-.051.336-.082.339-.083l-.176-.663h-.003c-.002 0-.208.055-.567.135-.568.127-1.527.318-2.691.467-.97.123-2.078.217-3.227.217-.032 0-.064-.004-.096-.004-1.016-.004-2.048-.092-3.03-.284-.498-.097-.986-.213-1.446-.374-.14-.049-.302-.086-.456-.128-.908-.247-2.029-.378-3.205-.38-.047 0-.095.003-.142.004-.214.002-.428.007-.642.018-1.104.053-2.195.217-3.132.514-.209.066-.409.14-.601.221-.249.104-.488.217-.701.347-.666-.405-1.531-.683-2.477-.859-.154-.028-.31-.055-.467-.078-.738-.109-1.511-.163-2.271-.165-.322 0-.641.012-.954.031-.27.016-.529.043-.786.072-.716.084-1.379.214-1.922.404-.478.168-.998.283-1.533.377-.693.121-1.418.188-2.156.209-.189.006-.378.018-.568.018-.746 0-1.49-.041-2.205-.105-.883-.08-1.721-.196-2.459-.32-1.022-.172-1.849-.356-2.352-.478-.334-.08-.531-.134-.533-.133l-.182.663c.002 0 .068.019.187.049l-5.484 6.015 7.596-5.554c.821.152 1.81.307 2.877.412l-5.099 9.527 7.65-9.391h.004c.839-.001 1.68-.056 2.493-.176l-4.041 12.855 7.324-13.624c.352-.056.72-.103 1.11-.13l-1.815 15.828 4.913-15.723c.248.035.492.076.728.125l1.251 16.381 1.784-15.791c.255-.131.552-.243.871-.344l4.261 15.602-1.258-16.1c.244-.011.488-.016.73-.016.066 0 .131.006.197.007l7.02 14.273-3.8-13.816c.006.002.013.003.019.005.728.254 1.498.424 2.28.533zm2.477-1.931c-.253 0-.509-.014-.764-.023-1.248-.049-2.509-.225-3.647-.604-.042-.014-.086-.022-.127-.037-.264-.092-.558-.168-.867-.235-.828-.179-1.795-.271-2.796-.272-.272 0-.546.01-.819.023-.022.002-.044.004-.065.004-1.208.066-2.397.263-3.376.627-.026.01-.052.021-.078.031-.316.121-.614.258-.876.417-1.283-.779-3.296-1.095-5.22-1.103-.264 0-.521.012-.779.024-.049.003-.1.002-.148.005-1.031.061-1.989.217-2.731.479-.334.117-.688.211-1.052.291-.452.099-.926.164-1.408.214-.589.06-1.188.096-1.793.096-.494 0-.987-.019-1.472-.05-.538-.033-1.059-.086-1.563-.146-.786-.093-1.526-.206-2.162-.323-.267-.049-.51-.098-.74-.145-.988-.203-1.614-.374-1.618-.373l-.18.662c.005.001.482.133 1.26.301.68.148 1.59.323 2.632.469.634.089 1.313.165 2.018.218.597.044 1.209.073 1.826.073.395 0 .791-.012 1.185-.035.606-.037 1.203-.116 1.785-.225.52-.097 1.029-.214 1.51-.381.555-.196 1.302-.33 2.117-.403.152-.014.301-.028.457-.038.282-.016.568-.027.858-.027.842-.002 1.702.073 2.496.215.066.012.133.022.198.035.95.186 1.786.473 2.329.857l.195.138.198-.138c.168-.12.372-.227.591-.328.112-.052.223-.104.347-.151.893-.338 2.063-.541 3.249-.604.114-.006.228-.009.343-.012.163-.006.326-.012.488-.012 1.115 0 2.182.129 3.005.348.147.039.303.076.433.121.338.118.687.213 1.038.297 1.08.26 2.206.37 3.306.394.14.003.281.013.42.013.891 0 1.753-.057 2.544-.141 1.225-.128 2.271-.319 2.979-.469.597-.127.955-.224.961-.225l-.18-.662h-.002c-.003.001-.451.123-1.189.271-.805.162-1.955.355-3.262.461-.595.047-1.217.078-1.854.078z" fill="#4e2a84"/><path d="m78.419 60.665c-1.315-.002-2.5846.16975-3.4336.46875-1.369.475-2.9344.63867-4.4824.63867-3.128-.000999-6.1898-.67626-7.2988-.94726v38.742c.382.105 1.1816.3173 2.2266.5293 1.473.297 3.4291.5957 5.3711.5957 1.399 0 2.783-.1525 3.957-.5625 1.017-.355 2.4003-.54487 3.8203-.54687 1.673.006 3.3827.26425 4.5957.90625v-38.877c-1.091-.626-2.9719-.95226-4.7559-.94726zm10.438 0c-1.921-.006-3.9631.3718-4.9961 1.0918v38.635c1.235-.578 2.9711-.80454 4.6641-.81054 1.511.002 2.9702.19087 3.9922.54687 1.22.424 2.667.58594 4.123.58594 2.32 0 4.6568-.40294 6.1328-.71094v-38.918c-1.508.311-3.7774.67574-6.0644.67774-1.534-.002-3.077-.16191-4.418-.62891-.852-.299-2.1196-.46875-3.4336-.46875z" fill="#fff"/><path d="m67.2 66.617c-.395.01-.68905.34974-.74805.67774-.01.05-.01563.11069-.01563.17969 0 .3.09536.80098.56836.95898l.34375.10938-.20117-.29883.0039-.0059c-.019-.073-.05273-.24819-.05273-.36719 0-.039.0038-.07094.0078-.08594.10231-.05104.28928-.02013.48242-.19336.121-.115.20308-.27231.20508-.44531.002-.138-.0615-.28091-.1875-.37891-.129-.102-.27125-.15039-.40625-.15039zm6.4414.17383c-.557.042-.97223.89525-1.1152 1.2812l-.05469.17383.18359-.01172c.715-.066 1.4765-.25612 1.5195-.82812-.001-.14-.06087-.28188-.17188-.42188-.096-.125-.22833-.19536-.36133-.19336zm19.885.13476c-.113 0-.22922.04663-.32422.14062l.002.002c-.155.141-.24223.30084-.24023.46484.032.524.70795.80942 1.377.98242l.18164.04297-.02734-.18555c-.091-.412-.37575-1.3893-.96875-1.4473zm-23.396.72266c-.158-.012-.31336.14161-.31836.34961l.19726 1.1992c-.101.25-.90673 2.027-1.5527 2.834l-.07617.09375.0918.08008c.171.148.34033.20508.48633.20508.275-.004.42945-.18236.43945-.19336.017-.025.36497-.76288.79297-1.6719.023.353.02734.80705.02734 1.123v.40039c.071.233.22514.33803.36914.33203.248-.008.42455-.19527.43555-.19727l.04492-.04297-.36133-4.2129-.03711-.03125c-.013-.002-.26006-.25458-.53906-.26758zm8.3945.36133c-1.047-.004-1.3964.78562-1.5664 1.5156-.059.236-.08789.4562-.08789.6582-.007.768.42086 1.2847 1.0059 1.3457.092.008.17967.01172.26367.01172h.02344c.845 0 1.3265-.55106 1.5605-1.5391.038-.159.05664-.33753.05664-.51953.001-.616-.23978-1.3482-.92578-1.4512-.117-.014-.22808-.02148-.33008-.02148zm8.9609.23047c-.831.132-1.4063 3.1764-1.4863 3.4414l-.01172.08789.08203.03906c.129.063.24184.08984.33984.08984h.0078c.223 0 .34609-.16055.37109-.18555.033-.052.13605-.37522.24805-.69922.057-.163.11411-.32436.16211-.44336.01-.025.0203-.04736.0293-.06836.235.218.50694.86145.58594 1.1895l.0098.03906.03125.02539c.1.08.20764.11528.30664.11328.295-.008.45775-.24891.46875-.25391l.0332-.04687-.0098-.05078c-.146-.87-.60224-1.4324-.61524-1.4844l.01953-.002c.222-.227 1.3796-.64769 1.4336-1.4297 0-.004-.002-.01367-.002-.01367 0-.14-.12105-.26367-.24805-.26367-.366.021-1.0742.57103-1.5352.95703.074-.193.13762-.41061.14062-.59961.006-.178-.08002-.38269-.29102-.42969-.02-.006-.04331-.01172-.07031-.01172zm-13.002.05273c-.161-.002-.32798.08834-.45898.27734l-.04688.06836.04297.07031c.468.733.83258 2.4281.89258 2.7031-.025.056-.06209.14669-.12109.30469-.115.3-.44894.57611-.58594.78711l-.05469.08984.08008.07031c.011.006.20867.1855.51367.1875h.0078c.129 0 .27302-.04072.41602-.13672l.01953-.01563c.28-.275.46127-.44774.57227-.55274.056-.052.09123-.08833.11523-.11133.013-.01.0213-.01744.0293-.02344l.01172-.01367c.002-.021.0082.000996.0332-.08398-.044-.119-.08003-.09614-.08203-.11914l-.01367-.0039c-.188.046-.10455.03722-.18555.07422.004-.011.0096-.02411.01563-.03711.434-1.18 1.1641-3.1836 1.1641-3.1836l.02734-.08008-.06055-.05664c-.013-.008-.18517-.16597-.45117-.16797-.119 0-.25772.03481-.38672.13281l-.03516.02539-.01172.04102c.001.001-.26847.93544-.48047 1.5234-.181-.725-.34375-1.3281-.34375-1.3281-.029-.04-.24205-.42441-.62305-.44141zm7.2148.07031-.03906.002c-.158.008-1.6448-.064-1.6738 1.125.001.01.0019.01934.0039.02734.048.806 1.0702 1.0698.99219 1.2598 0-.004-.0039 0-.0039 0 .005.015-.05523.09834-.24023.15234-.18.054-.42362.08675-.64062.09375l-.06641.002-.03516.05273c-.004.011-.13272.18316-.13672.41016-.009.15.08964.33716.30664.41016 1.358-.152 1.718-.73917 1.75-1.0762l.0059-.0059-.002-.0625c-.044-.65-.94758-1.1672-1.0176-1.2852v-.02148c.034-.276.05041-.23481.19141-.25781.132-.002.33859.05464.55859.05664h.02148l.04883.0039.03906-.03125c.154-.121.22566-.26539.22266-.40039-.01-.282-.24595-.42164-.25195-.43164l-.0332-.02344zm10.197.27344c-.146 0-.32962.05031-.51562.19531-.041-.041-.09545-.08098-.18945-.08398-.145.006-.29202.075-.66602.25-.576.276-1.006.95912-1.125 1.5781-.017.088-.02734.18602-.02734.29102.004.409.12014.90991.49414 1.1289.082.048.17281.06645.25781.06445.252-.008.48244-.1473.64844-.2793.015.151.11819.35156.36719.35156.209-.002.48564-.10528.93164-.36328l.06055-.03711v-.07227-.24609-.17383l-.16211.05469c-.085.027-.14869.03906-.17969.03906l-.01367-.002c-.005-.067.06951-.24219.10352-.36719l.44727-2.166-.06055-.04883c-.015-.008-.14909-.11128-.37109-.11328zm-19.037.10156c-1.031-.004-1.379.78658-1.541 1.5176-.059.236-.08594.4562-.08594.6582-.007.765.41138 1.2818.98438 1.3418.094.011.18067.01563.26367.01563h.01953c.834 0 1.312-.54906 1.543-1.5391.038-.158.05664-.33553.05664-.51953.001-.617-.23402-1.3492-.91602-1.4512-.112-.015-.22322-.02344-.32422-.02344zm-6.375.11328c-1.05-.006-1.4013.777-1.5723 1.5h.002c-.061.233-.08984.45139-.08984.65039-.006.761.42486 1.2721 1.0059 1.3281.094.011.18153.01563.26953.01563h.02344c.843 0 1.3315-.54448 1.5645-1.5215.037-.159.05664-.33367.05664-.51367.002-.608-.23969-1.3355-.92969-1.4355-.117-.015-.22708-.02344-.33008-.02344zm26.785.13672.03516.1582c.004.017.0059.04784.0059.08984.007.494-.496 1.8782-.5 2.5742 0 .088.0062.16809.03125.24609.099.339.39731.5352.69531.5332h.0059c.374 0 .73809-.32053.74609-.89453l.0059-.28125-.21289.18359c-.158.138-.26206.16802-.28906.16602-.021.002-.04764-.03091-.05664-.12891-.002-.023-.0039-.03302-.0039-.04102-.004-.516.56836-2.3964.56836-2.3984l.04687-.15234-.91406-.04492-.16406-.0098zm-20.818 7.0723c-.615.067-.81709 1.1004-.87109 1.5234l-.0098.18359.17383-.05664c.634-.221 1.2611-.54878 1.2891-1.0508 0-.177-.1003-.34638-.2793-.48438-.094-.073-.19773-.11523-.30273-.11523zm15.824.26367c-.069 0-.1418.01106-.2168.03906-.233.069-.35366.28247-.34766.48047 0 .101.02236.20002.06836.29102.117.228.30495.2667.37695.3457.001.109-.20595.39795-.25195.50195l-.02539.13867.14453.0078h.04102c.574-.019.82377-.61223.88477-.86523v-.0039c.009-.044.01367-.09067.01367-.13867 0-.351-.2315-.78888-.6875-.79688zm-9.7832 1.3945c-.366.013-.74517.32258-.95117.51758l-.03516-.13867c-.038-.059-.15242-.19812-.35742-.20312-.125-.002-.269.06866-.375.22266l-.02148.0293v.04102s-.03906 1.2651-.03906 2.1621c0 .335.0045.61644.02148.77344.184.271.30328.40111.48828.41211.173-.008.26375-.13916.34375-.28516.102-.863-.05608-2.0733.41992-2.3633.042-.029.06522-.0332.07422-.0332.004-.002.05361.01583.09961.17383.044.15.06641.38325.06641.65625 0 .732-.15858 1.7729-.39258 2.5449.015.044-.03936.4117.30664.4707.18-.011.31811-.13955.53711-.43555.27-.513.4042-1.7362.4082-2.7852-.017-.801-.04398-1.4495-.33398-1.6855-.079-.052-.17177-.07622-.25977-.07422zm11.973.06836c-.157-.013-.31241.13866-.31641.34766.002.032.18122 1.0632.19922 1.2012-.101.244-.90764 2.0249-1.5566 2.8359l-.07422.0918.0918.08008c.168.146.33452.20508.47852.20508h.0059c.276-.002.43141-.18536.44141-.19336.019-.027.36202-.76388.79102-1.6719.024.36.03125.82267.03125 1.1387v.38476c.07.234.22419.33998.36719.33398.245-.008.42259-.19422.43359-.19922l.04687-.04297-.36133-4.2148-.03711-.03125c-.013-.004-.26002-.25262-.54102-.26562zm-20.955.06055c-.158-.012-.31336.1377-.31836.3457.002.033.17822 1.0503.19922 1.1973v.0039c-.095.242-.90564 2.0279-1.5566 2.8359l-.07617.09375.0918.07813c.171.148.34028.20703.48828.20703.275-.004.43045-.18336.43945-.19336.019-.027.36302-.76383.79102-1.6738.024.36.03125.82362.03125 1.1406v.38476c.071.233.22419.33798.36719.33398.248-.011.42455-.19912.43555-.20313l.04297-.03906-.35938-4.2129-.03711-.0332c-.013-.002-.26006-.25262-.53906-.26562zm5.6973.28711c-.075 0-.15819.0083-.24219.02734-1.088.219-1.303 1.1229-1.293 1.8379 0 .121.0056.24042.01563.35742.006.122.01253.86536.01953 1.5684.002.359.0058.7097.0098.9707.002.132.0048.23746.0078.31445.002.04.0019.06875.0039.09375.002.01.0019.02125.0039.03125 0 .006.000818.01244.0059.02344.012.001-.01459.04022.06641.07422l-.002.0039c.049.076.16248.13086.27148.13086h.0059c.311-.019.46552-.31636.47852-.31836l.01758-.03125.01948-1.5605c.122.038.2905.08103.4375.08203.031 0 .06375-.0038.09375-.0078.915-.175 1.3499-.78036 1.3359-1.6934-.003-.081-.0078-.16119-.0098-.24219-.044-.594-.33709-1.6391-1.2461-1.6621zm-2.5527.2832c-.37.013-.74617.33611-.95117.53711l-.03906-.13867c-.039-.058-.15152-.19131-.35352-.19531-.127-.002-.27195.07047-.37695.23047l-.02148.0293v.03711c0 .002-.0078.44038-.0078.98438 0 .729.0079 1.6322.04687 1.9512.188.267.31119.3943.49219.4043.177-.008.26875-.14302.34375-.29102.031-.217.0332-.40266.0332-.59766 0-.146-.0039-.29345-.0039-.43945-.006-.594.0538-1.145.3418-1.334.044-.031.06822-.03711.07422-.03711s.06723.02603.11523.20703c.046.169.06836.42847.06836.73047 0 .723-.13375 1.7034-.34375 2.4434.017.042-.03145.40684.31055.46484.181-.012.32016-.14531.53516-.44531.242-.484.35247-1.5705.35547-2.5645-.019-.897-.05319-1.6582-.36719-1.9062-.079-.05-.16795-.07231-.25195-.07031zm8.6992.04883-.04102.0039c-.154.01-1.6409-.06314-1.6699 1.1309.033.822 1.0751 1.0892.99414 1.2832.002.015-.05709.09834-.24609.15234-.178.055-.42162.0877-.64062.0957l-.0625.002-.03711.05273c-.004.008-.13172.18125-.13672.40625-.008.15.09064.33711.30664.41211 1.324-.147 1.7-.70883 1.75-1.0488l.0098-.002-.002-.0957c-.043-.646-.934-1.157-1.017-1.282v-.02148c.031-.275.0475-.23677.1875-.25977.134-.002.33959.05664.55859.05664h.0293l.04492.002.03711-.0293c.152-.121.22661-.26439.22461-.40039-.011-.282-.24695-.42259-.25195-.43359l-.03711-.02539zm7.0078.28516c-.149-.002-.33058.04836-.51758.19336-.04-.041-.09445-.08094-.18945-.08594-.145.006-.29302.074-.66602.25-.574.278-1.006.96108-1.125 1.5801-.019.088-.02734.18602-.02734.29102.005.409.12014.90795.49414 1.127.084.046.17177.06445.25977.06445.25-.007.48048-.14534.64648-.27734.016.151.11723.35156.36523.35156.211-.002.48859-.10424.93359-.36524l.0625-.03711v-.07031-.25-.16992l-.16211.05078c-.089.03-.15259.04102-.18359.04102l-.01367-.002c-.005-.067.07147-.23928.10547-.36328l.44531-2.1699-.06055-.04687c-.013-.01-.14819-.11133-.36719-.11133zm4.6641.12891c-.121-.002-.26172.04506-.38672.16406l-.0293.02344-.0078.03906c-.002.004-.51031 2.2587-.57031 2.8047l-.0039.03125.01563.0332c.103.224.22725.36123.40625.36523.192-.008.30873-.1452.42773-.2832.261-.836.34241-2.1356.81641-2.0586h.0059c.084.002.15316.08177.16016.38477.002.652-.40597 1.9157-.91797 2.8477-.013.042-.02148.08834-.02148.15234 0 .098.0153.35795.2793.37695.159-.006.31555-.10322.56055-.32422.654-.752 1.1288-2.6868 1.1348-3.7168-.006-.287-.02434-.49948-.15234-.64648-.09-.092-.21117-.12695-.32617-.12695-.341.01-.72517.25873-.95117.42773l-.0098-.25391-.002-.05273-.03516-.0332c-.011-.006-.15558-.1523-.39258-.1543zm-24.844.16992-2.8906.04492-.03711.0625c0 .014-.25658.44575-.26758.71875 0 .069.06241.21484.19141.21484.081-.002.14642-.03403.23242-.08203l.38281.0059c-.011.672-.03942.7078-.48242 1.2168-.13.07-.65731.32047-.69531.73047 0 .071.02417.15175.07617.21875.154.208.32953.32422.51953.32422.775-.076 1.158-1.665 1.332-2.502l.16016.0039c-.047.583-.23824 1.2829-.24023 1.7969 0 .36.13873.71484.55273.71484v-.002c.354-.002.54888-.18683.54688-.42383-.008-.346-.24228-.78867-.23828-1.2637 0-.052.0027-.10048.01172-.14648.023-.214.0495-.51069.0625-.67969.092.01.22152.01953.35352.01953.229-.015.54466.0093.59766-.30469v-.0039c.079-.095.11724-.19211.11524-.28711-.016-.287-.2792-.36695-.2832-.37695zm27.055 1.8848.02148.60547.002.08984.08984.02539c.259.073.43716.16797.78516.16797.178 0 .39431-.02403.69531-.08203l.11133-.02344-.04102-.55078-.01172-.14258-.13867.0293c-.308.063-.44558.08789-.51758.08789-.112.006-.18866-.08159-.84766-.18359l-.14844-.02344zm-6.9688 6.0078c-.031 0-.06742.00082-.10742.0059-1.621.123-2.155 1.5773-2.377 3.2793-.029.222-.04297.43472-.04297.63672 0 1.126.46622 1.9511 1.3242 1.9531.006 0 .01911.002.03711.002 1.243-.033 1.9363-.83566 2.2773-2.5977.094-.472.14258-.91736.14258-1.3184-.002-1.105-.38291-1.9559-1.2539-1.9609zm-17.996.55664c-.533.053-.87595.91969-1.002 1.3047l-.04492.17383.17969-.01758c.642-.074 1.3264-.2927 1.3574-.8457.001-.139-.05325-.28088-.15625-.42188v-.002c-.087-.118-.20698-.19341-.33398-.19141zm23.537.26758c-.525.029-1.0444.74961-1.2344 1.0996l-.08398.16211.1875.01953c.11.008.21908.01172.33008.01172.625-.006 1.2697-.13678 1.3027-.67578-.002-.116-.03842-.23724-.10742-.36524-.088-.162-.23853-.25595-.39453-.25195zm-16.9.96094-.05078.07422c-.252.056-1.6426.2207-1.6426.2207l-.04492.0059-.0293.0332c-.125.125-.17774.26186-.17773.38086.002.197.12286.31422.13086.32422l.04102.04102.56445-.04102c-.08.775-.26167 2.4316-.26367 2.4336l-.01172.11719.11328.02148c.006.002.09113.01758.20312.01758h.01758c.185 0 .51692-.0642.54492-.4082.009-.207.16994-1.866.21094-2.293l.60351-.07816.05078-.0059.0332-.04687c.009-.011.07417-.10291.07617-.25391.003-.142-.06963-.31884-.26562-.46484l-.10351-.07809zm-11.197.04687c-.225.003-.49164.06512-.55664.32812l.2207.10156s.00088-.0099.04687-.0059c.023 0 .05366.0045.09766.01953.184-.007.28945.75667.31445 1.5137-.35.49-1.4808 1.5881-1.5098 2.1621-.004.086.038.19109.125.24609.081.025.11439.02734.15039.02734.447-.034.58355-.44459 1.1855-1.1836.018.475.0702 1.307.6582 1.377.021 0 .03945.000088.06445-.0039.338-.071.80847-.23952.85547-.60352 0-.071-.03017-.13845-.07617-.18945-.036-.043-.09463-.06255-.14062-.06055-.164.017-.32072.13325-.38672.15625-.071-.236-.30073-.84242-.30273-1.4824 0-.043-.000088-.08142.0039-.10742.287-.525 1.18-1.2263 1.209-1.7773.004-.125-.06473-.25127-.17774-.32227-.057-.029-.09953-.03906-.14453-.03906-.346.047-.51136.44742-.81836.85742-.015-.325-.06527-.79322-.44727-.94922-.115-.039-.24609-.06445-.37109-.06445zm12.955.06836c-.982-.005-1.3088.76947-1.4648 1.4805-.054.229-.08203.44362-.08203.64062-.007.749.3905 1.2564.9375 1.3164.073.009.14203.01563.20703.01563.014 0 .02606-.000906.03906-.002.808.011 1.2625-.53291 1.4805-1.5039.035-.156.05273-.32886.05273-.50586.001-.604-.21428-1.3159-.86328-1.4199-.108-.015-.21064-.02148-.30664-.02148zm3.2012.38086-.04102.002c-.156.011-1.6439-.06309-1.6719 1.1289 0 .011-.000094.01934.002.02734.05.805 1.0722 1.0638.99219 1.2598v.002c.002.01-.05709.09444-.24609.14844-.178.056-.42162.0867-.64062.0957l-.06445.002-.0332.05273c-.004.009-.13467.18425-.13867.40625-.008.15.08959.33911.30859.41211 1.38-.153 1.729-.7568 1.75-1.0918l.0039-.0039v-.04883c-.043-.652-.94658-1.1652-1.0176-1.2852l.002-.01953c.031-.277.0485-.23872.1875-.26172.132-.002.33859.05664.55859.05664l.02148.002.05078.0039.03711-.0293c.154-.121.22856-.26539.22656-.40039-.011-.284-.24695-.42455-.25195-.43555l-.03516-.02344zm9.5352.06055c-.881-.007-1.4875.56127-1.7715 1.5723-.067.229-.09961.44081-.09961.63281 0 .932.77986 1.3183 1.6309 1.3203h.11524.0957l.1543-.57812.04102-.15625h-.16211-.03516c-.187-.002-.87495-.06391-.87695-.50391.001-.037.0047-.07419.01367-.11719.071.008.1712.01563.2832.01563.305-.002.75795-.05189.87695-.46289l.03125-.14063-1.0156-.125c.157-.656 1.0231-.69531 1.1641-.69531l.0059.002.06641.0059.04687-.05469c.072-.092.10352-.1932.10352-.2832-.004-.227-.15902-.35133-.16602-.36133-.213-.057-.35995-.07031-.50195-.07031zm-16.865.09766-.9043.07812-.16406.01367.05859.1543c.021.055.0332.17794.0332.33594 0 .492-.12109 1.3044-.12109 1.8984.002.246.02075.45624.09375.61524.121.275.3587.41211.5957.41211h.01172c.38-.004.75317-.29141.82617-.69141l.07227-.42969-.29102.32617c-.119.134-.20161.16516-.22461.16016-.037.005-.14892-.14081-.16992-.38281-.009-.053-.01367-.13256-.01367-.22656 0-.671.17969-2.1094.17969-2.1094l.01758-.1543zm-2.459.23047c-.011-.002-.02645-.0014-.06445.01758-1.048.025-1.2451 1.1543-1.2891 1.9043-.017.227-.30259 2.7106-.30859 2.9336 0 .002-.002.0062 0 .03125 0 .01.02359.05403.05859.08203l-.002.002c0 .001.0028.0029.0078.0059l.0078.0059c.013.084.13095.16992.25195.16992h.0039c.255-.017.38248-.24405.39648-.24805l.20703-1.5176c.098.059.2237.12162.3457.14062l.0098.0059h.04297c.851-.012 1.2695-.63092 1.3145-1.6699.004-.068.0059-.14175.0059-.21875-.005-.634-.15747-1.6155-.98047-1.6445h-.0078zm27.039.02148-.0391.002c-.156.01-1.6429-.06305-1.6719 1.127v.002c.001.01.0019.02034.0039.02734.052.803 1.0712 1.0648.99218 1.2578l-.002.002c.002.013-.0571.09834-.24414.15234-.178.054-.42062.0867-.64062.0957l-.06445.002-.03516.05078c-.004.01-.13472.18325-.13672.40625-.009.152.08964.33816.30664.41016 1.366-.152 1.724-.74508 1.752-1.0801l.004-.002-.002-.05078c.002-.005.002-.0078.002-.0098v-.002c-.044-.646-.93457-1.1572-1.0176-1.2832v-.02148c.031-.276.0494-.23481.18945-.25781.134-.002.34055.05664.56055.05664h.0215l.0488.0039.0391-.03125c.153-.121.22461-.26639.22461-.40039-.012-.284-.24886-.42459-.25586-.43359l-.0352-.02344zm-29.195.1875c-.143-.002-.31138.05036-.48438.19336-.038-.039-.09164-.07508-.18164-.08008-.144.006-.27976.07781-.63476.25781-.542.283-.94264.97942-1.0566 1.6074-.017.087-.02344.18506-.02344.28906.004.416.10975.92639.46875 1.1504.077.048.16405.06836.24805.06836.235-.01.44852-.14634.60352-.27734.017.149.10756.34961.35156.34961.204-.003.46576-.10805.88476-.37305l.05664-.03906v-.06836l-.0039-.25391v-.17578l-.16602.05859c-.081.031-.13902.03906-.16602.03906l-.0039-.0039c-.004-.072.06761-.248.09961-.375l.41602-2.207-.05664-.04492c-.012-.011-.14156-.11523-.35156-.11523zm22.705.0293.0332.1582c.005.018.0078.04698.0078.08398.006.479-.50186 1.7839-.50586 2.4629 0 .086.0072.16419.0332.24219.101.338.39831.5352.69531.5332h.0059c.374 0 .73809-.32248.74609-.89648l.0059-.28125-.21094.18359c-.161.141-.26202.17192-.29102.16992-.017 0-.04473-.02986-.05273-.13086-.003-.022-.0039-.03692-.0039-.04492-.004-.508.56641-2.2675.56641-2.2695l.04687-.15625-.91406-.04687-.16211-.0078zm3.9316.02148c-.15-.001-.33353.04736-.51953.19336-.041-.041-.09641-.08094-.19141-.08594-.145.004-.29006.07505-.66406.24805-.577.277-1.0079.96408-1.1309 1.5801-.017.088-.02344.18416-.02344.28516.004.412.12109.91381.49609 1.1328.083.049.17181.06841.25781.06641.25-.008.48344-.14825.64844-.28125.015.15.11323.35352.36523.35352.211-.002.48759-.10228.93359-.36328l.06055-.03711v-.07031-.24609-.17383l-.16406.05469c-.087.028-.14864.03711-.18164.03711l-.01563-.0039c-.005-.066.07242-.23828.10742-.36328l.44727-2.1719-.0625-.04687c-.013-.01-.14528-.10742-.36328-.10742z" fill="#4e2a84"/><path d="m78.579 68.597c-.35442.04387-.73609.48953-.79297.98828-.112.459-.27319 1.1176.25781 1.2246.391.079.75062-.25327.89062-.94727.116-.572.23692-1.1568-.20508-1.2578-.0485-.01112-.09976-.01408-.15039-.0078zm-5.6992.83203c-.34839.04367-.72438.48845-.78125.98633-.111.462-.27009 1.1176.25391 1.2266.385.078.73695-.25626.87695-.94726.113-.572.23088-1.1578-.20312-1.2598-.04762-.01112-.09672-.0121-.14648-.0059zm18.607.043c-.691-.038-1.0165.43644-1.1855.89844-.089.242-.1713.96144.2207.89844.543-.088.84384-.54888.96484-1.7969zm-24.791.04687c-.391-.089-.88031.40375-.94531.96875-.113.453-.27619 1.1049.25781 1.2109.394.076.75258-.25155.89258-.93555.117-.566.23792-1.1451-.20508-1.2441zm8.4297 9.2617c-.548.078-.62102.80409-.54102 1.3711.066.446.02352 1.1412.60352.99219.4-.104.59959-.43838.55859-1.1094-.037-.54-.17709-1.3149-.62109-1.2539zm12.826.80469c-.692-.039-1.0175.43544-1.1875.89844-.088.241-.17134.96144.22266.89844.541-.085.84284-.54888.96484-1.7969zm.10938 8.084c-.509.012-.82608.56231-1.0801 1.8203.185-.02 1.5059 0 1.5059 0s.40722-1.8423-.42578-1.8203zm-9.293 1.8379c-.359-.086-.812.40108-.875.95508-.103.448-.25372 1.0923.23828 1.1953.361.078.69422-.24783.82422-.92383.107-.557.2215-1.1286-.1875-1.2266zm8.0098.54492s-.40522 1.8423.42578 1.8203c.511-.012.83003-.56331 1.082-1.8203-.184.021-1.5078 0-1.5078 0zm-14.748.239c-.44703-.0094-.59881.68193-.60742 1.2422-.0044.44117-.12615 1.105.35547 1.0508.33231-.0386.53489-.32966.58789-.98437.03946-.52751.02597-1.2988-.33594-1.3086zm-2.498.37891c-.651-.041-.95723.44597-1.1152.91797-.084.244-.16006.97906.21094.91406.508-.088.7893-.56203.9043-1.832zm26.52.0332c-.693-.041-1.0175.43348-1.1875.89648-.088.242-.17039.96339.22461.90039.541-.086.83889-.54988.96289-1.7969z" fill="#fff"/></svg>
