<svg clip-rule="evenodd" fill-rule="evenodd" stroke-linejoin="round" stroke-miterlimit="2" viewBox="0 0 58 61" xmlns="http://www.w3.org/2000/svg"><g fill="#fff" fill-rule="nonzero"><path d="m19.19 16.651c.168-.104.342-.198.516-.293-1.447-4.635-3.587-8.968-6.298-12.874-.724.382-1.432.791-2.122 1.225 2.76 3.942 4.906 8.345 6.295 13.066.513-.406 1.05-.782 1.609-1.124z"/><path d="m19.138 44.21c-.54-.333-1.059-.699-1.557-1.09-1.389 4.724-3.535 9.127-6.295 13.069.69.437 1.395.846 2.122 1.225 2.711-3.909 4.854-8.239 6.298-12.877-.193-.107-.382-.214-.568-.327z"/><path d="m14.558 20.89c.184-.25.376-.491.574-.73-1.26-4.989-3.419-9.628-6.292-13.732-.644.504-1.27 1.033-1.871 1.585 3.059 4.425 5.242 9.5 6.289 14.975.382-.733.812-1.438 1.3-2.098z"/><path d="m14.527 39.954c-.474-.647-.892-1.334-1.264-2.049-1.05 5.475-3.23 10.55-6.289 14.975.601.553 1.227 1.081 1.871 1.585 2.873-4.104 5.031-8.743 6.292-13.735-.211-.254-.415-.513-.61-.779z"/><path d="m4.832 10.184c-.568.635-1.111 1.295-1.624 1.979 3.37 5.289 5.327 11.561 5.327 18.285s-1.957 12.996-5.327 18.285c.513.684 1.056 1.343 1.624 1.979 3.88-5.802 6.145-12.774 6.145-20.264 0-7.491-2.265-14.459-6.145-20.264z"/><path d="m1.374 14.902c-.498.837-.956 1.698-1.374 2.583 1.981 3.897 3.102 8.3 3.102 12.963 0 4.662-1.121 9.066-3.102 12.962.418.886.876 1.747 1.374 2.584 2.65-4.578 4.17-9.888 4.17-15.546 0-5.659-1.52-10.969-4.17-15.546z"/><path d="m43.586 32.103c1.502-.281 3.05-.434 4.632-.434-1.554 0-3.078-.131-4.564-.378v.03c-.016.263-.04.522-.068.782z"/><path d="m25.305 46.415c-.156-.022-.312-.043-.464-.07-.675-.113-1.334-.272-1.978-.465-1.466 3.369-2.278 7.082-2.278 10.984 0 1.109.067 2.199.196 3.274.83.189 1.672.342 2.524.461-.183-1.219-.278-2.465-.278-3.735 0-3.725.819-7.264 2.278-10.449z"/><path d="m42.974 35.138c-.034.11-.064.22-.098.327-.094.284-.195.565-.302.846-.229.589-.495 1.163-.791 1.716 2.018-.693 4.183-1.072 6.433-1.072h9.073c.174-.803.317-1.618.427-2.443h-9.503c-1.805 0-3.56.22-5.242.626z"/><path d="m31.487 46.091c-.996.251-2.031.4-3.09.455-1.615 3.091-2.534 6.599-2.534 10.318 0 1.365.132 2.703.367 4.001.436.018.876.03 1.315.03.391 0 .779-.009 1.163-.024-.265-1.295-.405-2.636-.405-4.007 0-3.966 1.172-7.664 3.177-10.773z"/><path d="m31.148 56.865c0 1.295.15 2.553.425 3.765.815-.107 1.618-.247 2.408-.418-.253-1.075-.39-2.196-.39-3.347 0-8.067 6.56-14.63 14.626-14.63h7.406c.336-.797.635-1.612.904-2.442h-8.31c-9.412 0-17.069 7.658-17.069 17.072z"/><path d="m36.432 56.865c0 .9.104 1.777.296 2.62.788-.248 1.56-.529 2.317-.84-.113-.577-.171-1.173-.171-1.783 0-5.155 4.192-9.344 9.345-9.344h4.539c.535-.788 1.032-1.604 1.493-2.443h-6.035c-6.5 0-11.787 5.289-11.787 11.787z"/><path d="m43.654 29.605c1.486-.247 3.01-.378 4.563-.378-1.581 0-3.129-.153-4.631-.434.028.256.052.513.064.776v.039z"/><path d="m22.863 15.016c.641-.196 1.3-.351 1.975-.465.155-.027.311-.048.467-.07-1.459-3.185-2.278-6.721-2.278-10.449 0-1.27.098-2.516.278-3.735-.855.119-1.697.272-2.524.461-.129 1.075-.196 2.165-.196 3.274 0 3.899.815 7.616 2.278 10.984z"/><path d="m43.653 29.605c.015.278.024.559.024.843 0 .089-.006.177-.006.263-.003.192-.006.388-.015.577 1.487.247 3.01.378 4.564.378h9.748c.015-.406.027-.812.027-1.221s-.009-.815-.027-1.221h-9.748c-1.554 0-3.08.131-4.564.378z"/><path d="m41.781 22.868c.433.813.8 1.665 1.093 2.553.037.11.067.226.101.339 1.682.406 3.437.626 5.241.626h9.504c-.11-.824-.254-1.64-.428-2.443h-9.073c-2.253 0-4.414-.381-6.435-1.075z"/><path d="m28.401 14.349c1.059.055 2.094.207 3.089.455-2.009-3.109-3.178-6.807-3.178-10.773 0-1.371.141-2.712.406-4.007-.388-.015-.775-.024-1.163-.024-.443 0-.879.012-1.316.031-.235 1.297-.366 2.635-.366 4 0 3.719.919 7.228 2.534 10.318z"/><path d="m48.217 21.101h8.31c-.269-.83-.568-1.645-.904-2.443h-7.406c-8.066 0-14.626-6.562-14.626-14.629 0-1.151.137-2.272.39-3.347-.793-.171-1.596-.311-2.408-.418-.275 1.212-.425 2.47-.425 3.765 0 9.414 7.657 17.072 17.069 17.072z"/><path d="m48.218 15.818h6.035c-.461-.839-.958-1.655-1.493-2.443h-4.539c-5.154 0-9.345-4.192-9.345-9.344 0-.61.061-1.206.171-1.783-.757-.308-1.53-.589-2.317-.84-.193.843-.296 1.72-.296 2.62 0 6.502 5.287 11.787 11.787 11.787z"/></g></svg>
