<?xml version="1.0" encoding="UTF-8" standalone="no"?>
<!DOCTYPE svg PUBLIC "-//W3C//DTD SVG 1.1//EN" "http://www.w3.org/Graphics/SVG/1.1/DTD/svg11.dtd">
<svg width="100%" height="100%" viewBox="0 0 242 112" version="1.1" xmlns="http://www.w3.org/2000/svg" xmlns:xlink="http://www.w3.org/1999/xlink" xml:space="preserve" xmlns:serif="http://www.serif.com/" style="fill-rule:evenodd;clip-rule:evenodd;stroke-linejoin:round;stroke-miterlimit:2;">
    <g transform="matrix(1,0,0,1,-169.092,9.48576)">
        <path d="M279.725,78.149L263.585,78.149L263.585,81.748L269.05,81.748L269.038,101.757L274.26,101.757L274.276,81.748L279.725,81.748L279.725,78.149Z" style="fill:rgb(7,76,161);fill-rule:nonzero;"/>
    </g>
    <g transform="matrix(1,0,0,1,-169.092,9.48576)">
        <path d="M269.05,81.748L269.038,101.757L274.26,101.757L274.276,81.748" style="fill:rgb(7,76,161);fill-rule:nonzero;"/>
    </g>
    <g transform="matrix(1,0,0,1,-169.092,9.48576)">
        <path d="M346.725,78.059L346.71,101.757L341.486,101.757L341.501,78.059L346.725,78.059Z" style="fill:rgb(7,76,161);fill-rule:nonzero;"/>
    </g>
    <g transform="matrix(1,0,0,1,-169.092,9.48576)">
        <path d="M216.819,98.166L216.833,78.135L211.608,78.135L211.591,101.757L225.686,101.764L225.686,98.166L216.819,98.166Z" style="fill:rgb(7,76,161);fill-rule:nonzero;"/>
    </g>
    <g transform="matrix(1,0,0,1,-169.092,9.48576)">
        <path d="M333.488,78.063L333.478,93.471L327.281,78.063L320.665,78.063L320.648,101.688L325.61,101.688L325.624,86.278L331.822,101.688L338.435,101.688L338.453,78.063L333.488,78.063Z" style="fill:rgb(7,76,161);fill-rule:nonzero;"/>
    </g>
    <g transform="matrix(1,0,0,1,-169.092,9.48576)">
        <path d="M199.966,98.161L199.971,91.166L207.675,91.166L207.675,87.567L199.975,87.567L199.977,81.725L208.281,81.725L208.281,78.129L194.753,78.129L194.737,101.757L208.591,101.757L208.591,98.161L199.966,98.161Z" style="fill:rgb(7,76,161);fill-rule:nonzero;"/>
    </g>
    <g transform="matrix(1,0,0,1,-169.092,9.48576)">
        <path d="M233.964,98.161L233.968,91.166L241.675,91.166L241.675,87.567L233.973,87.567L233.977,81.725L242.28,81.725L242.28,78.129L228.755,78.129L228.737,101.757L242.591,101.757L242.591,98.161L233.964,98.161Z" style="fill:rgb(7,76,161);fill-rule:nonzero;"/>
    </g>
    <g transform="matrix(1,0,0,1,-169.092,9.48576)">
        <path d="M317.948,89.938C317.948,87.413 317.804,85.151 317.615,83.625L317.615,83.622C317.615,80.555 315.021,78.062 311.799,77.996C311.155,77.922 310.36,77.878 309.492,77.878C308.6,77.878 307.782,77.926 307.127,78.003L307.131,77.996C304.585,78.04 302.436,79.594 301.635,81.752C301.591,81.84 301.547,81.975 301.503,82.147C301.495,82.168 301.491,82.188 301.486,82.21C301.472,82.254 301.464,82.296 301.455,82.344C301.407,82.545 301.37,82.751 301.343,82.958C301.139,84.264 300.962,86.416 300.925,88.914L300.925,88.96C300.92,89.28 300.918,89.607 300.918,89.939L300.918,89.979C300.918,90.311 300.92,90.635 300.925,90.958L300.925,91.006C300.962,93.502 301.139,95.653 301.343,96.96C301.37,97.17 301.407,97.374 301.455,97.576C301.464,97.624 301.475,97.666 301.486,97.71C301.491,97.731 301.495,97.752 301.503,97.773C301.547,97.945 301.591,98.081 301.635,98.168C302.436,100.326 304.585,101.88 307.131,101.926L307.127,101.919C307.782,101.996 308.603,102.043 309.492,102.043C310.357,102.043 311.155,101.999 311.799,101.927C315.022,101.858 317.615,99.366 317.615,96.301L317.615,96.298C317.804,94.772 317.948,92.512 317.948,89.983L317.948,89.938ZM312.294,96.184C312.138,97.595 311.058,98.694 309.531,98.694C308.004,98.694 306.925,97.63 306.766,96.184C305.328,89.538 306.766,83.744 306.766,83.744C306.957,82.229 308.002,81.229 309.531,81.229C311.034,81.229 312.135,82.261 312.288,83.686C313.517,90.565 312.396,95.678 312.29,96.145C312.292,96.156 312.298,96.167 312.294,96.184Z" style="fill:rgb(7,76,161);fill-rule:nonzero;"/>
    </g>
    <g transform="matrix(1,0,0,1,-169.092,9.48576)">
        <path d="M261.385,96.165L261.385,96.168C261.385,99.233 258.987,101.726 255.76,101.793C255.118,101.868 254.322,101.913 253.455,101.913C252.562,101.913 251.743,101.865 251.09,101.786L251.092,101.793C248.546,101.749 246.399,100.194 245.596,98.037C245.596,98.037 245.508,97.815 245.466,97.643C245.458,97.622 245.452,97.6 245.449,97.58C245.437,97.536 245.427,97.492 245.418,97.446C245.368,97.244 245.331,97.038 245.307,96.83C245.1,95.524 244.927,93.373 244.891,90.876C244.889,90.858 244.887,90.845 244.887,90.83C244.883,90.508 244.879,90.181 244.879,89.851L244.879,89.811C244.879,89.477 244.883,89.151 244.887,88.832C244.887,88.813 244.889,88.801 244.891,88.786C244.927,86.288 245.1,84.136 245.307,82.832C245.331,82.623 245.37,82.416 245.418,82.214C245.427,82.166 245.438,82.124 245.449,82.081C245.452,82.06 245.458,82.037 245.466,82.018C245.508,81.843 245.555,81.711 245.596,81.624C246.399,79.465 248.546,77.911 251.092,77.866L251.09,77.872C251.743,77.796 252.565,77.748 253.455,77.748C254.322,77.748 255.118,77.792 255.76,77.866C258.987,77.935 261.063,80.425 261.063,83.492L261.063,85.585L255.745,85.585L255.741,83.553C255.587,82.131 255.002,81.1 253.497,81.1C251.972,81.1 250.926,82.1 250.733,83.614L250.733,96.053C250.891,97.5 251.968,98.567 253.497,98.567C255.022,98.567 255.91,97.468 256.067,96.053C256.069,96.038 256.063,96.028 256.063,96.012L256.063,93.422L261.393,93.422L261.385,96.165ZM384.791,82.953L384.791,85.044L379.472,85.044L379.468,83.365C379.468,83.365 379.503,81.459 377.208,81.36C377.208,81.36 374.007,81.36 374.564,84.288C374.564,84.288 375.12,86.624 379.155,88.138C379.155,88.138 385.259,90.378 385.194,95.707C385.194,95.707 385.723,102.11 377.208,101.979C377.208,101.979 369.095,102.704 369.135,96.628L369.139,94.596L374.462,94.596L374.462,96.686C374.462,96.686 374.598,98.899 377.208,98.8C377.208,98.8 379.736,98.864 379.854,96.166C379.854,96.166 380.477,93.961 375.469,91.853C375.469,91.853 369.588,89.515 369.309,85.04C369.309,85.04 368.162,77.865 377.139,77.802C377.138,77.807 384.828,77.475 384.791,82.953Z" style="fill:rgb(7,76,161);fill-rule:nonzero;"/>
    </g>
    <g transform="matrix(1,0,0,1,-169.092,9.48576)">
        <path d="M366.293,96.18L366.293,96.184C366.293,99.25 363.897,101.737 360.67,101.807C360.028,101.881 359.232,101.925 358.365,101.925C357.471,101.925 356.653,101.879 355.998,101.802L356.002,101.811C353.456,101.766 351.306,100.209 350.506,98.052C350.506,98.052 350.418,97.833 350.373,97.66C350.368,97.639 350.362,97.616 350.357,97.594C350.343,97.553 350.335,97.51 350.327,97.462C350.278,97.261 350.241,97.055 350.214,96.846C350.01,95.542 349.835,93.389 349.798,90.891L349.798,90.846C349.79,90.522 349.79,90.199 349.79,89.867L349.79,89.827C349.79,89.496 349.79,89.17 349.798,88.848L349.798,88.8C349.835,86.302 350.01,84.153 350.214,82.846C350.241,82.637 350.278,82.432 350.327,82.229C350.335,82.184 350.346,82.141 350.357,82.098C350.362,82.077 350.368,82.055 350.373,82.035C350.418,81.858 350.462,81.727 350.506,81.641C351.306,79.483 353.456,77.926 356.002,77.881L356,77.889C356.655,77.811 357.476,77.766 358.367,77.766C359.233,77.766 360.03,77.809 360.672,77.881C363.899,77.951 365.973,80.442 365.973,83.506L365.973,85.604L360.654,85.604L360.651,83.571C360.5,82.147 359.912,81.118 358.409,81.118C356.882,81.118 355.84,82.117 355.644,83.631L355.644,96.069C355.8,97.516 356.879,98.583 358.409,98.583C359.933,98.583 360.822,97.483 360.976,96.069C360.982,96.055 360.972,96.044 360.972,96.031L360.972,93.44L366.304,93.44L366.293,96.18Z" style="fill:rgb(7,76,161);fill-rule:nonzero;"/>
    </g>
    <g transform="matrix(1,0,0,1,-169.092,9.48576)">
        <path d="M298.141,94.424C298.094,90.387 293.919,90.168 293.919,90.168L292.532,90.168L292.532,90.16C298.68,90.017 298.277,84.464 298.277,84.464C298.277,77.268 292.435,78.08 292.435,78.08L282.748,78.08L282.727,101.703L287.953,101.703L287.96,91.756L290.231,91.756C294.072,92.299 293.033,97.497 293.033,97.497C293.033,99.384 293.727,101.622 293.727,101.622L298.831,101.622C297.956,98.55 298.141,94.424 298.141,94.424ZM290.209,81.656C290.209,81.656 292.988,81.788 292.988,84.682C292.988,84.682 293.503,88.149 289.79,88.149L287.967,88.149L287.971,81.655L290.209,81.656Z" style="fill:rgb(7,76,161);fill-rule:nonzero;"/>
    </g>
    <g transform="matrix(1,0,0,1,-0.00052781,0.000554938)">
        <path d="M241.61,19.631C238.391,0.601 181.723,-5.677 115.045,5.611C85.206,10.662 58.438,18.378 38.234,27.063C38.614,26.995 39.015,26.941 39.457,26.934L42.57,26.934C42.57,26.934 45.252,26.982 46.785,27.988C46.785,27.988 49.371,29.52 49.371,31.723L49.371,34.979L43.24,34.979L43.24,33.497C43.24,33.497 43.385,31.533 41.229,31.485C41.229,31.485 39.313,31.485 39.313,33.402C39.313,33.402 39.074,34.932 41.133,35.747L46.64,38.62C46.64,38.62 49.801,40.104 49.801,43.603L49.801,47.145C49.801,47.145 49.705,49.251 47.79,50.737C47.79,50.737 45.204,52.653 41.565,52.653C41.565,52.653 36.966,52.702 34.811,51.026C34.811,51.026 32.609,49.685 32.609,45.663L32.609,43.937L39.17,43.937L39.17,45.517C39.17,45.517 39.074,47.864 41.18,47.912C41.18,47.912 43.336,48.057 43.288,45.517C43.288,45.517 42.906,43.604 40.942,42.98C40.942,42.98 35.961,40.249 35.338,39.818C35.338,39.818 33.231,38.381 33.231,35.461L33.231,31.917C33.231,31.917 33.239,29.717 35.138,28.419C12.056,38.808 -1.562,50.437 0.144,60.509C3.365,79.539 60.033,85.817 126.71,74.53C156.975,69.407 184.075,61.542 204.378,52.704L201.424,52.704C198.742,52.655 197.16,51.269 197.16,51.269C195.195,49.974 195.195,47.723 195.195,47.723L195.195,31.916C195.195,31.916 195.195,29.665 197.16,28.374C197.16,28.374 198.742,26.983 201.424,26.936L204.536,26.936C204.536,26.936 207.219,26.984 208.748,27.99C208.748,27.99 211.336,29.522 211.336,31.725L211.336,34.981L205.207,34.981L205.207,33.5C205.207,33.5 205.352,31.536 203.195,31.488C203.195,31.488 201.277,31.488 201.277,33.405L201.277,46.238C201.277,48.155 203.195,48.155 203.195,48.155C205.349,48.106 205.207,46.143 205.207,46.143L205.207,42.025L203.339,42.025L203.339,38.385L205.207,38.385L205.207,38.337L211.336,38.337L211.336,47.915C211.336,48.643 211.043,49.29 210.663,49.843C231.274,39.943 243.212,29.101 241.61,19.631ZM68.19,51.313L65.413,32.634L62.635,51.313L56.122,51.313L60.144,27.558L70.681,27.558L74.799,51.313L68.19,51.313ZM108.323,51.313C108.323,51.313 102.002,51.409 102.385,51.313L102.385,33.499L98.554,51.313L92.042,51.313L88.21,33.403L88.21,51.313L82.272,51.313L82.272,27.558L92.329,27.558L95.298,41.064L98.268,27.558C98.268,27.558 108.324,27.653 108.324,27.558C108.323,27.461 108.323,51.313 108.323,51.313ZM132.938,47.146C132.938,47.146 132.842,49.252 130.927,50.738C130.927,50.738 128.341,52.653 124.702,52.653C124.702,52.653 120.103,52.703 117.948,51.027C117.948,51.027 115.746,49.686 115.746,45.664L115.746,43.938L122.306,43.938L122.306,45.518C122.306,45.518 122.211,47.865 124.317,47.913C124.317,47.913 126.473,48.058 126.425,45.518C126.425,45.518 126.043,43.605 124.079,42.981C124.079,42.981 119.098,40.25 118.475,39.819C118.475,39.819 116.369,38.382 116.369,35.462L116.369,31.918C116.369,31.918 116.369,29.667 118.333,28.376C118.333,28.376 119.913,26.985 122.595,26.938L125.707,26.938C125.707,26.938 128.39,26.986 129.922,27.992C129.922,27.992 132.509,29.524 132.509,31.727L132.509,34.983L126.377,34.983L126.377,33.5C126.377,33.5 126.522,31.536 124.366,31.488C124.366,31.488 122.451,31.488 122.451,33.405C122.451,33.405 122.212,34.935 124.27,35.75L129.778,38.623C129.778,38.623 132.939,40.107 132.939,43.606L132.938,47.146ZM149.031,52.653C140.123,52.653 140.506,45.663 140.506,45.663C140.506,45.663 140.506,27.08 140.506,27.559L147.307,27.559L147.307,45.854C147.307,45.854 147.211,47.96 149.128,47.96C150.995,47.96 150.947,45.854 150.947,45.854L150.947,27.558L157.747,27.558L157.747,45.662C157.747,45.662 158.321,52.653 149.031,52.653ZM186.48,51.313L178.817,51.313L172.304,37.137L172.304,51.313L166.365,51.313L166.365,27.558L173.932,27.558L180.541,42.022L180.541,27.558L186.479,27.558L186.48,51.313Z" style="fill:rgb(7,76,161);fill-rule:nonzero;"/>
    </g>
</svg>
