<svg clip-rule="evenodd" fill-rule="evenodd" stroke-linejoin="round" stroke-miterlimit="2" viewBox="0 0 88 91" xmlns="http://www.w3.org/2000/svg"><g fill="#fff"><g fill-rule="nonzero"><path d="m60.292 24.425-4.664 4.663.047 8.525s-.146 1.333-.429 1.998h2.998l8.571-8.57z"/><path d="m61.91 21.089-1.476 1.765 7.999 7.996 1.619-1.616z"/><path d="m70.625 27.615 6.853-6.763-7.33-7.333-6.57 7.142z"/><path d="m81.479 20.139-10.831-10.831.165 2.975 7.855 7.856z"/><path d="m41.634 77.276h4.469s.29-1.944 1.552-1.944h18.554v-32.633l-1.846-1.944v32.344h-16.61s-2.235.193-3.982 2.33c0 0-1.359-2.039-4.274-2.234h-16.219v-32.147l-1.991 1.991v32.293h18.113s2.234.097 2.234 1.944"/><path d="m72.53 5.237c-.669-.574-1.526.761-1.526.761 1.144-.19 1.335.762 1.335.762 1.142 2.667 3.808 1.807 3.808 1.807 3.142-1.807 5.047.763 5.047.763 1.237.952.762 3.43.762 3.43 0 .475-1.144 1.14-.762-.192.379-1.334-.382-2.663-.382-2.663-2.951-2.574-4.76-.193-4.76-.193-1.622 1.906.095 4.188.095 4.188l3.332 3.335c7.904 2.761 7.81-5.333 7.81-5.333-.954-6.953-8.382-7.713-8.382-7.713-6.475-.382-8.377-4.189-8.377-4.189-1.05 2.857 2 5.237 2 5.237"/><path d="m25.202 28.186 6.001 5.902v-4.571l-6.001-5.999z"/><path d="m24.013 37.184 2.332 2.333h5.238c-.285-.477-.192-2.284-.192-2.284z"/><path d="m31.203 36.35v-.926l-4.429-4.431h-8.902l5.355 5.357z"/><path d="m15.967 28.947 1.332 1.331 8.618-.046-3.191-3.19h-2.998s-1.856 1.523-3.761 1.905"/><path d="m20.133 26.449h2l-1.025-1.026s-.691.832-.975 1.026"/><path d="m24.274 22.686s-.667.975-3.215 1.523l3.215 2.976z"/><path d="m15.717 13.651-5.25-5.296c-3.248-3.251-7.107-1.108-7.107-1.108l10.345 10.295c.69-2.64 2.012-3.891 2.012-3.891"/><path d="m11.681 16.9-8.927-8.925s-3.357 1.689-.832 8.925z"/><path d="m8.705 23.948s-.404-2.619 2.119-6.24h-8.523s.382 1.956 6.404 6.24"/></g><path d="m66.769 45.896h2.856v3.618h-2.856z"/><path d="m17.587 46.182h2.858v3.618h-2.858z"/><path d="m66.909 63.607h2.857v3.618h-2.857z"/><path d="m17.681 63.273h2.86v3.62h-2.86z"/><g fill-rule="nonzero"><path d="m66.909 69.129v3.618l16.187 13.428h3.239l-16.475-17.046z"/><path d="m12.347 79.176s.525-.856 2.525-.619c0 0-.999-.143-1.762-.57l-7.807 7.95s-.858 1.237-.049 2.049c0 0 .763.618 1.81-.094l7.235-6.335s-2.094-1.048-1.952-2.381"/><path d="m1.302 37.041c-1.524 6.665 4.094 11.429 4.094 11.429 6.476-4.288 6.381-8.288 6.381-8.288-4.381 1.142-6.285 6.571-6.285 6.571.286-6-4.19-9.712-4.19-9.712"/><path d="m6.03 55.128c5.632-5.345 4.843-9.267 4.843-9.267-4.114 1.884-5.048 7.561-5.048 7.561-.759-5.957-5.812-8.839-5.812-8.839-.343 6.831 6.017 10.545 6.017 10.545"/><path d="m7.809 61.574c4.619-6.242 3.161-9.967 3.161-9.967-3.724 2.574-3.657 8.326-3.657 8.326-1.782-5.736-7.26-7.695-7.26-7.695.849 6.783 7.756 9.336 7.756 9.336"/><path d="m10.683 67.615c3.462-6.951 1.381-10.363 1.381-10.363-3.222 3.18-2.159 8.83-2.159 8.83-2.75-5.338-8.483-6.315-8.483-6.315 2.014 6.535 9.261 7.848 9.261 7.848"/><path d="m14.558 73.066c2.208-7.446-.435-10.446-.435-10.446-2.623 3.689-.594 9.071-.594 9.071-3.636-4.779-9.453-4.746-9.453-4.746 3.119 6.083 10.482 6.121 10.482 6.121"/><path d="m7.94 73.551c4.125 5.453 11.384 4.21 11.384 4.21.879-7.714-2.245-10.213-2.245-10.213-1.94 4.091.994 9.038.994 9.038-4.412-4.077-10.133-3.035-10.133-3.035"/><path d="m24.83 81.556c-.145-2.396-.582-4.14-1.116-5.537l-2.76.003c.744 2.621 2.44 4.595 2.44 4.595-5.053-3.249-10.506-1.23-10.506-1.23 5.012 4.654 11.942 2.169 11.942 2.169"/><path d="m26.248 76.038-.964-.007c-.056 4.264 4.054 7.629 4.054 7.629-5.539-2.318-10.561.615-10.561.615 5.743 3.714 12.138.061 12.138.061-1.245-5.189-3.425-7.411-4.667-8.298"/><path d="m30.337 78.3c.366 4.51 5.381 7.327 5.381 7.327-5.858-1.324-10.293 2.44-10.293 2.44 6.297 2.66 11.964-2.047 11.964-2.047-3.098-7.121-7.052-7.72-7.052-7.72"/><path d="m6.321 40.129c1.325-5.86-2.438-10.294-2.438-10.294-2.66 6.301 2.047 11.966 2.047 11.966 7.12-3.099 7.723-7.052 7.723-7.052-4.512.365-7.332 5.38-7.332 5.38"/><path d="m16.236 30.153-.365-.46c-4.239-.023-7.581 4.058-7.581 4.058 1.578-3.769.723-7.297.017-9.168l-1.007-.828c-2.91 5.519.315 11.573.315 11.573 5.993-1.442 8.035-4.128 8.621-5.175"/><path d="m12.562 17.299c-4.652 5.01-2.166 11.943-2.166 11.943 7.75-.474 9.666-3.983 9.666-3.983-4.365-1.201-8.727 2.548-8.727 2.548 3.248-5.054 1.227-10.508 1.227-10.508"/><path d="m14.192 23.735c7.713.879 10.211-2.245 10.211-2.245-4.089-1.941-9.037.993-9.037.993 4.075-4.412 3.034-10.135 3.034-10.135-5.451 4.127-4.208 11.387-4.208 11.387"/><path d="m29.333 18.532c-3.69-2.622-9.074-.591-9.074-.591 4.779-3.637 4.749-9.453 4.749-9.453-6.084 3.119-6.124 10.482-6.124 10.482 7.447 2.205 10.449-.438 10.449-.438"/><path d="m31.391 17.094.053-2.491c-2.771-.813-5.575-.284-5.575-.284 5.338-2.754 6.315-8.487 6.315-8.487-6.533 2.014-7.848 9.261-7.848 9.261 3.015 1.5 5.363 1.961 7.055 2.001"/><path d="m30.559 12.354 5.119-.071c-1.963-.578-3.658-.558-3.658-.558 5.738-1.785 7.695-7.26 7.695-7.26-6.785.848-9.336 7.756-9.336 7.756.09.066.092.067.18.133"/><path d="m82.141 47.566s5.507-4.891 3.825-11.52c0 0-4.386 3.818-3.96 9.811 0 0-2.031-5.382-6.437-6.422 0 0-.002 4.001 6.572 8.131"/><path d="m81.83 52.531s-1.067-5.654-5.226-7.442c0 0-.695 3.94 5.063 9.151 0 0 6.27-3.861 5.765-10.68 0 0-4.984 2.997-5.602 8.971"/><path d="m76.642 50.837s-1.368 3.758 3.396 9.891c0 0 6.847-2.716 7.533-9.516 0 0-5.43 2.086-7.074 7.862 0 0-.069-5.752-3.855-8.237"/><path d="m78.045 65.286s.934-5.676-2.363-8.78c0 0-2.003 3.464 1.627 10.328 0 0 7.211-1.482 9.071-8.063 0 0-5.709 1.113-8.335 6.515"/><path d="m73.753 61.919s-2.572 3.066-.194 10.455c0 0 7.362-.21 10.335-6.363 0 0-5.814.102-9.338 4.966 0 0 1.903-5.428-.803-9.058"/><path d="m77.343 75.373c1.131-.668 1.93-1.401 2.846-2.67 0 0-2.129-.434-5.045.47z"/><path d="m70.355 68.021 1.293 1.346c-.024-1.035-.228-1.442-.738-2.451 0 0-.266-.161-.555 1.105"/><path d="m70.862 77.215-2.161-1.705c.027.694.094.867.206 1.669 0 0 .379.163 1.955.036"/><path d="m64.902 80.13s1.472-1.76 2.199-4.238l-2.763-.05c-.434 1.355-.766 3.081-.849 5.26 0 0 5.962 1.981 10.735-1.476l-1.837-1.479c-2.037-.111-4.836.191-7.485 1.983"/><path d="m59.035 83.313s3.839-3.3 3.877-7.422l-1.375.057c-1.244 1.088-3.059 3.402-4.065 8.076 0 0 6.481 3.503 12.133-.342 0 0-5.087-2.82-10.57-.369"/><path d="m52.701 85.431s4.948-2.937 5.206-7.454c0 0-3.941.69-6.869 7.883 0 0 5.772 4.57 12.009 1.767 0 0-4.519-3.658-10.346-2.196"/><path d="m81.453 40.913s4.572-5.772 1.765-12.009c0 0-3.657 4.523-2.197 10.346 0 0-2.933-4.944-7.454-5.203 0 0 .693 3.938 7.886 6.866"/><path d="m79.617 34.481s3.5-6.48-.344-12.133c0 0-2.817 5.086-.367 10.572 0 0-3.752-4.364-8.247-3.832 0 0 1.368 3.76 8.958 5.393"/><path d="m74.012 25.932-2.043 1.888c1.31.393 2.687.569 4.723.644 0 0 .936-2.408.446-5.662l-2.385 2.427c.293.749.465 1.076.966 1.82 0 0-.218-.349-1.707-1.117"/><path d="m69.473 12.726c-.411-.422-.659-.588-1.177-.961 0 0-.17.653-.025 2.227z"/><path d="m65.604 16.686 1.659-1.681c-.701-2.376-2.133-5.239-5.664-6.944 0 0-.144 5.078 4.005 8.625"/><path d="m63.149 19.333 2.053-2.124c-1.751-.406-5.037-.988-7.692.993 0 0 1.367 1.546 5.639 1.131"/><path d="m60.874 13.91s-2.223-.674-5.025.282l-.007 2.554c1.71-.033 3.445-.444 6.582-2.1 0 0-1.485-7.213-8.063-9.073 0 0 1.115 5.707 6.513 8.337"/><path d="m54.664 11.461c.001 0-1.379-.378-3.734.645l5.195.004c.273-.196-.09.026.191-.196 0 0-2.714-6.843-9.514-7.532 0 0 2.088 5.429 7.862 7.079"/><path d="m43.2 84.747v1.692c-.78-1.232-3.83-5.696-7.277-5.915 0 0 1.169 3.99 6.329 6.333 0 0-6.471.43-9.114 3.97 0 0 5.645.509 10.062-3.878v2.749h1.714v-4.951z"/><path d="m46.056 86.842c5.142-2.381 6.286-6.383 6.286-6.383-3.999.289-7.428 6.286-7.428 6.286 4.475 4.573 10.283 3.999 10.283 3.999-2.665-3.521-9.141-3.902-9.141-3.902"/><path d="m43.295 10.641c.539 0 .977-.438.977-.977 0-.54-.438-.976-.977-.976s-.975.436-.975.976c0 .539.436.977.975.977"/><path d="m51.246 11.043c-1.428-3.188-6.237-.999-6.237-.999 4.047 2.572 6.237.999 6.237.999"/><path d="m35.402 11.347s2.248 1.486 6.197-1.237c0 0-4.89-2.006-6.197 1.237"/><path d="m28.814 13.092c0 .372.302.675.672.675.374 0 .674-.303.674-.675 0-.369-.3-.674-.674-.674-.37 0-.672.305-.672.674"/><path d="m17.579 20.139c0 .371.3.672.672.672.373 0 .674-.301.674-.672 0-.372-.301-.676-.674-.676-.372 0-.672.304-.672.676"/><path d="m9.579 30.422c0 .372.302.674.676.674.37 0 .672-.302.672-.674s-.302-.673-.672-.673c-.374 0-.676.301-.676.673"/><path d="m6.928 42.943c0-.369-.302-.672-.674-.672s-.675.303-.675.672c0 .372.303.672.675.672s.674-.3.674-.672"/><path d="m6.056 56.085c0 .372.301.674.675.674.372 0 .672-.302.672-.674s-.3-.674-.672-.674c-.374 0-.675.302-.675.674"/><path d="m11.008 68.32c0 .374.302.674.673.674.372 0 .674-.3.674-.674 0-.37-.302-.673-.674-.673-.371 0-.673.303-.673.673"/><path d="m20.537 78.801c.371 0 .672-.3.672-.673 0-.372-.301-.673-.672-.673-.372 0-.674.301-.674.673 0 .373.302.673.674.673"/><path d="m32.826 84.319c0-.375-.302-.673-.671-.673-.374 0-.676.298-.676.673 0 .371.302.672.676.672.369 0 .671-.301.671-.672"/><path d="m55.62 84.03c0 .375.3.675.672.675.375 0 .673-.3.673-.675 0-.37-.298-.672-.673-.672-.372 0-.672.302-.672.672"/><path d="m67.721 78.277c.369 0 .672-.3.672-.672 0-.373-.303-.673-.672-.673-.374 0-.675.3-.675.673 0 .372.301.672.675.672"/><path d="m77.01 67.655c0-.372-.3-.674-.672-.674-.374 0-.673.302-.673.674 0 .37.299.672.673.672.372 0 .672-.302.672-.672"/><path d="m81.003 55.852c.372 0 .673-.3.673-.672 0-.373-.301-.673-.673-.673-.371 0-.673.3-.673.673 0 .372.302.672.673.672"/><path d="m80.519 42.087c0 .372.302.676.674.676.373 0 .673-.304.673-.676s-.3-.672-.673-.672c-.372 0-.674.3-.674.672"/><path d="m76.14 29.662c0 .372.301.671.674.671.371 0 .674-.299.674-.671 0-.375-.303-.675-.674-.675-.373 0-.674.3-.674.675"/><path d="m57.872 12.665c0-.373-.302-.675-.676-.675-.369 0-.673.302-.673.675 0 .369.304.672.673.672.374 0 .676-.303.676-.672"/><path d="m20.537 76.081v-7.14l-.856.951c.763 3.332.379 6.665.379 6.665z"/><path d="m35.096 61.428-.17-1.13h-.019l-.157 1.13-.318 1.99h1.041z"/><path d="m38.665 51.434c0-.535-.26-.973-1.004-.931h-.195v1.991l.258.009c.675 0 .941-.457.941-1.069"/><path d="m24.156 40.659v31.422h15.568c1.762.051 3.572 1.429 3.572 1.429v-25.138c-9.048 0-11.334-7.713-11.334-7.713zm7.474 19.104h-1.169v6.083h-1.474v-6.083h-1.159v-1.386h3.802zm8.999-10.478h1.477v7.467h-1.477zm1.182 9.34v1.435c-.295-.256-.663-.474-1.069-.474-.456 0-.741.279-.741.733 0 1.229 2.248 1.296 2.248 3.32 0 1.324-.765 2.325-2.151 2.325-.415 0-.932-.13-1.268-.375v-1.408c.346.237.686.399 1.12.399.475 0 .852-.32.852-.815 0-.573-.455-.794-.872-1.089-.852-.576-1.377-1.128-1.377-2.22 0-1.177.683-2.196 1.95-2.196.478 0 .903.129 1.308.365m-5.821-9.34h1.486c.942 0 2.625.098 2.625 2.138 0 .822-.328 1.525-1.058 1.931l1.295 3.398h-1.557l-1.296-3.448h-.018v3.448h-1.477zm1.553 16.561h-1.576l-.276-1.259h-1.495l-.269 1.259h-1.465l1.734-7.469h1.555zm-4.824-16.561h2.969v1.387h-1.497v1.623h1.318v1.386h-1.318v1.683h1.515v1.388h-2.991v-7.456l-2.066 7.456h-1.207l-2.161-7.467h1.585l.893 3.584c.126.425.178.851.265 1.277h.021c.078-.436.11-.86.227-1.298l.903-3.563z"/><path d="m58.922 60.345h-.019l-.161 1.131-.313 1.992h1.038l-.378-1.992z"/><path d="m44.341 48.182v25.328c.002 0 1.43-1.428 3.431-1.428h15.711v-31.422h-8.475s-2.666 8.283-10.667 7.522m1.383 1.15h1.475v6.081h1.545v1.386h-3.02zm4.789 16.561-.358-5.379h-.02l-.237 1.843-.635 3.536h-1.138l-.724-3.576-.247-1.663v-.14h-.019l-.218 5.379h-1.586l.653-7.467h1.945l.722 4.407h.018l.594-4.407h1.982l.784 7.467zm9.448 0-.278-1.259h-1.493l-.269 1.259h-1.466l1.735-7.467h1.553l1.793 7.467zm-4.493-16.561h1.663l.426 1.039c.127.368.275.752.355 1.139h.018c.08-.387.201-.761.339-1.139l.447-1.039h1.593l-1.593 3.616 1.713 3.851h-1.713l-.478-1.187c-.134-.378-.228-.744-.326-1.12h-.02c-.106.376-.199.742-.326 1.12l-.435 1.187h-1.663l1.583-3.851zm.404 9.094v1.386h-1.497v1.623h1.316v1.386h-1.316v1.683h1.515v1.389h-2.99v-7.467zm-3.07-3.945v-5.149h1.477v5.448c0 .791-.088 2.137-2.218 2.137-1.378 0-2.199-.642-2.199-2.037v-5.548h1.475v4.834c0 .563-.07 1.416.733 1.416.721 0 .721-.545.732-1.101"/><path d="m32.439 37.613c1.905 10.092 11.331 9.522 11.331 9.522 9.809 0 10.762-9.429 10.762-9.429v-24.66h-22.093zm5.333-17.996v-3.334h10.379v4.761h3.428v3.428h-3.333v1.522h3.333v3.714h-3.333v11.143h-2.856l-3.951-3.952-3.619 3.615-2.619-2.616 6-6 3.093 3.096v-15.377z"/></g></g></svg>
