<svg height="67.592" viewBox="0 0 215.125 67.591791" width="215.12" xmlns="http://www.w3.org/2000/svg"><path d="m274.77 314.89c-5.595 0-8.5792-.37344-9.8852-.37344-2.176 0-4.1032.0625-6.0312.0625-1.0565 0-1.243-.0626-1.243-.49765 0-.7455.24837-.8086 3.0469-.8086 1.74 0 2.7359-.55959 2.7359-5.4711v-28.6c0-.9325-.12515-1.057-2.9226-1.057-1.368 0-1.7414-.12359-1.7414-.74609 0-.6215.43531-.6836 1.0578-.6836 1.989 0 3.357.24844 5.968.24844 2.7355 0 5.3471-.62109 7.9586-.62109 8.6425 0 14.425 3.2943 14.425 10.258 0 5.409-3.6694 7.5234-6.5914 9.0164-1.2435.6215-2.425.93225-2.425 1.0562 0 .186 1.368.87041 2.55 1.6789 1.99 1.3675 4.6633 3.5446 4.6633 7.9586 0 4.4145-3.4821 8.5797-11.566 8.5797zm106.53-.0711c-.3245 0-2.3796-.91935-6.5976-1.1898-.919-.054-1.3524.00057-1.3524-.64843 0-.5955.54135-.70391 1.5148-.70391 2.433 0 2.7578.00025 2.7578-3.4062v-29.797c0-.9735-.91972-.91954-3.1367-.91954-1.2985 0-1.3523-.3254-1.3523-.7039 0-.4325.10784-.54063 1.3523-.54063.757 0 3.6237.10782 5.4617.10782.9745 0 2.164-.10782 2.975-.10782 1.9465 0 2.325.00013 2.325.54063 0 .4335.10791.75781-2.5961.75781-.973 0-1.3516.59481-1.3516 5.0828 0 1.569.27032 5.8405.27032 26.445 0 1.622.27031 3.5698.27031 4.2188 0 .595-.27063.86485-.54063.86485zm-44.897-.0539c-.487 0-3.6781-1.1891-7.5711-1.1891-.595 0-.70313-.21653-.70313-.75703 0-.3795.21631-.54219 2.4328-.54219 1.46 0 1.893-.48678 1.893-4.3258 0-11.411-.1625-27.418-.1625-28.986 0-.811-.4865-.81094-2.325-.81094-1.298 0-1.568-.2704-1.568-.7039 0-.4865.32447-.54063 1.568-.54063.757 0 2.7582.10782 4.5977.10782 1.7305 0 4.2171-.10782 5.0281-.10782 1.1895 0 1.4602.00013 1.4602.54063 0 .4335-.21616.7039-1.4602.7039-3.3525 0-3.2438-.00037-3.2438 2.5406v3.407c0 .487.75688.86603 1.6219 1.407.919.595 1.6757 1.1352 1.8922 1.1352.3245 0 2.597-3.4076 4.868-6.0031s2.758-3.9476 3.732-3.9476c.757 0 2.3791.0539 3.0281.0539.4865 0 1.1893-.0539 1.8383-.0539 1.1895 0 1.568.10822 1.568.48672 0 .4325-.43219.7039-1.7297.7039-1.8385 0-3.5691 2.6494-5.4086 4.8664-3.785 4.543-4.7578 5.57-4.7578 6.057 0 .3785 3.3525 2.7573 6.057 5.4078 1.676 1.622 3.5141 3.9469 3.5141 4.4344 0 .1625-.21594.2164-.64844.2164-.6485 0-3.7861-.16172-4.4891-.16172-.649 0-1.6759.16172-2.2164.16172-.703 0-.97344-.1079-.97344-.5414 0-.487.27025-.59453 1.0812-.59453 2.379 0 2.5414-.10844 2.5414-.97344 0-1.1355-.48681-2.055-2.5953-4.0555-1.7305-1.623-7.3558-6.5977-8.7078-6.5977-.162 0-.21563.16241-.21563.37891 0 8.8145.32344 14.871.32344 23.091 0 1.7305.1086 4.003.1086 4.7055 0 .3245-.10813.48672-.37813.48672zm-63.499-1.3672c5.658 0 8.2695-5.9691 8.2695-9.0781 0-4.9115-2.0517-6.0929-3.8547-7.4609 0 0-2.6119.37344-6.4039.37344-1.493 0-2.3008-.12391-2.3008.87109v13.491c0 1.2435.18684 1.8031 4.2898 1.8031zm27.266-13.991c-4.921 0-10.059-4.543-10.059-12.168 0-9.031 6.598-11.195 11.032-11.195 4.3805 0 8.9773 3.4081 8.9773 3.6781 0 .1085-.16231.43282-.43281.43282-.324 0-2.2708-1.2984-5.8398-1.2984-4.1105 0-9.8976 2.0011-9.8976 9.4641 0 1.2435.1629 1.514 1.0289 1.568 6.164.3785 11.572 1.5675 12.978 1.893 1.461.3245 2.218.54053 2.218.75703 0 .4325-.86594 1.7307-1.7859 2.8117-1.9465 2.2715-5.407 4.0562-8.2195 4.0562zm63.057 0c-4.9205 0-10.059-4.543-10.059-12.168 0-9.031 6.5975-11.195 11.032-11.195 4.38 0 8.9773 3.4081 8.9773 3.6781 0 .1085-.16281.43282-.43281.43282-.3245 0-2.2716-1.2984-5.8406-1.2984-4.11 0-9.8961 2.0011-9.8961 9.4641 0 1.2435.16234 1.514 1.0273 1.568 6.165.3785 11.572 1.5675 12.979 1.893 1.46.3245 2.2172.54053 2.2172.75703 0 .4325-.86488 1.7307-1.7844 2.8117-1.9475 2.2715-5.4078 4.0562-8.2203 4.0562zm31.192 0c-4.9215 0-10.059-4.543-10.059-12.168 0-9.031 6.5975-11.195 11.032-11.195 4.3805 0 8.9774 3.4081 8.9774 3.6781 0 .1085-.16282.43282-.43282.43282-.3245 0-2.2706-1.2984-5.8406-1.2984-4.1095 0-9.8961 2.0011-9.8961 9.4641 0 1.2435.16235 1.514 1.0274 1.568 6.165.3785 11.573 1.5675 12.979 1.893 1.46.3245 2.2172.54053 2.2172.75703 0 .4325-.86487 1.7307-1.7844 2.8117-1.9465 2.2715-5.408 4.0562-8.2195 4.0562zm-75.43-.37813c-.866 0-1.8936-.27031-2.7586-.27031-1.0815 0-2.1092.10859-3.9477.10859-.92 0-.86563-.163-.86563-.8125 0-.595-.00028-.54062.97422-.54062 3.028 0 2.9195-.10816 2.9195-3.7852v-14.818c0-.757-.1619-.81093-2.3789-.81093-1.2985 0-1.3524-.10772-1.3524-.64922 0-.541.10785-.54063 1.3524-.54063.757 0 2.5959.27032 4.4344.27032 1.731 0 5.3539-.27032 6.1109-.27032 1.406 0 1.4602-.0544 1.4602.54063 0 .4875-.0542.64922-1.4602.64922-4.0015 0-4.1633.0005-4.1633 2.65v11.141c0 2.271 1.189 3.5688 4.325 3.5688 2.7045 0 3.3539-2.2172 4.1109-2.2172.3245 0 1.1891 2.3793 1.1891 2.9203 0 1.4055-2.4872 2.5961-3.4617 2.5961-2.5415 0-5.082-2.8125-5.893-2.8125-.2165 0-.27031.37834-.27031.86484 0 .1625.10781 1.3522.10781 1.6227 0 .4335-.21631.59531-.43281.59531zm107.98-.0539c-.757 0-2.2171-.21641-3.0281-.21641-1.461 0-2.4342.10781-3.8938.10781-.9735 0-1.1359.00038-1.1359-.70312 0-.541.21647-.54141 1.893-.54141 1.838 0 1.8375-.32409 1.8375-1.9461 0-.757-1.9462-6.382-3.2438-10.275-.865-2.5425-1.1895-3.2992-1.568-3.2992-.2165 0-.86572.91919-1.2992 2.0547-3.244 8.329-4.65 10.222-4.65 11.79 0 1.2435.32438 1.568 1.6219 1.568 1.1355 0 1.3523.0541 1.3523.54062 0 .596-.21684.81172-1.3523.81172-1.73 0-3.6235-.16172-5.1375-.16172-1.2975 0-1.6758.10782-3.1898.10782-.9735 0-1.1352-.27082-1.1352-.75782 0-.4865.0537-.54062 1.1352-.54062.973 0 1.3519-.27084 2.7039-3.5148 2.9745-7.0305 7.3-17.035 7.3-17.63 0-1.622-4.6494-8.0029-6.5969-10.436-1.8385-2.326-4.3805-2.6505-4.3805-2.975 0-.2705.54065-.54062 1.4602-.54062 1.1895 0 1.5678.43243 3.1898.64843 1.1905.1625 1.8394.21675 2.4344 1.4062 1.73 3.5695 4.1641 7.9502 7.5711 16.224 4.272 10.382 6.6519 16.872 7.8414 16.872.649 0 1.4055.27053 1.4055.75703 0 .5955-.27016.65-1.1352.65zm-127.34-.70391c2.488 0 5.6781-4.0011 5.6781-5.3531 0-.3245-.0534-.43263-.64844-.54063-4.056-.649-6.9763-1.3531-9.7883-1.3531-.6495 0-.64922.0545-.64922.325 0 .758 1.2983 6.9219 5.4078 6.9219zm63.056 0c2.4885 0 5.6789-4.0011 5.6789-5.3531 0-.3245-.0542-.43263-.64922-.54063-4.056-.649-6.976-1.3531-9.7875-1.3531-.649 0-.64922.0545-.64922.325 0 .758 1.2975 6.9219 5.407 6.9219zm31.192 0c2.4875 0 5.6789-4.0011 5.6789-5.3531 0-.3245-.0542-.43263-.64922-.54063-4.056-.649-6.9758-1.3531-9.7883-1.3531-.649 0-.64922.0545-.64922.325 0 .758 1.2973 6.9219 5.4078 6.9219zm-123.02-2.2188c6.7765 0 11.377-4.3524 11.377-9.9484 0-5.409-3.4812-8.643-8.2062-8.643-1.99 0-3.9788.43554-4.6633 1.182-.559.622-.74609 4.1033-.74609 4.6633v11.13c0 1.3675.49806 1.6164 2.2391 1.6164zm30.831-25.381c-1.2775 0-2.343-.77066-2.343-2.0477 0-2.427 3.1977-1.9943 3.1977-3.3453 0-.538-.41181-1.0023-1.2453-1.0023-.5595 0-1.2663.26306-1.8578.66406l-.52734-.92891c.591-.411 1.3927-.80234 2.3852-.80234 1.3825 0 2.5328.88772 2.5328 2.1117 0 2.4595-3.1977 1.7198-3.1977 3.3562 0 .538.35897.92813 1.0555.92813.6225 0 1.1076-.21116 1.6461-.48516l.45391.90781c-.6115.3795-1.3405.64375-2.1.64375zm25.493 0c-2.174 0-3.1445-1.5518-3.1445-3.7258 0-2.0685.96003-3.7367 3.1445-3.7367s3.1453 1.6682 3.1453 3.7367c0 2.174-.97131 3.7258-3.1453 3.7258zm16.947 0c-2.174 0-3.2406-1.5622-3.2406-3.7367 0-2.216.97194-3.7258 3.1984-3.7258.971 0 1.8787.40184 2.6172 1.0773l-.64375.82266c-.591-.5385-1.2662-.83281-1.9102-.83281-1.3405 0-1.9742.95953-1.9742 2.6695 0 1.699.67612 2.6594 1.9531 2.6594.686 0 1.1926-.24304 1.7516-.70704l.65468.84454c-.76.623-1.5092.9289-2.4062.9289zm27.477 0c-2.1745 0-3.1445-1.5518-3.1445-3.7258 0-2.0685.96003-3.7367 3.1445-3.7367s3.1453 1.6682 3.1453 3.7367c0 2.174-.97131 3.7258-3.1453 3.7258zm-100.99-.10547-1.2141-.12734v-7.1133h1.2562v4.8547h.0211l3.05-4.8547h1.1188v7.2297h-1.2562v-4.75h-.0312l-2.9445 4.7609zm16.112 0v-7.2406h4.3906l.0953 1.0664h-3.2297v2.0469h2.7125v1.0664h-2.7125v1.9945h3.05v1.0664zm45.215 0v-7.2406h1.2555v3.1133h2.6602v1.0664h-2.6602v1.9945h2.9656v1.0664zm19.416 0-1.4664-.11641-2.5438-7.1242h1.1719l.60078 1.7422h2.9133l.60156-1.7422h1.2883l-2.5656 7.2406zm12.071 0v-7.2406h1.2555v3.1133h2.6602v1.0664h-2.6602v1.9945h2.9664v1.0664zm19.775 0-1.2141-.12734v-7.1133h1.2555v4.8547h.0219l3.0492-4.8547h1.1188v7.2297h-1.2555v-4.75h-.032l-2.9438 4.7609zm12.102 0-1.4672-.11641-2.5438-7.1242h1.1719l.60156 1.7422h2.9125l.60157-1.7422h1.2883l-2.5648 7.2406zm-133-.0109v-4.7172c0-1.6255.89681-2.6289 2.6703-2.6289 1.762 0 2.6594 1.0031 2.6594 2.6391v4.707h-1.2562v-4.7914c0-.8975-.37912-1.4875-1.4031-1.4875-1.0345 0-1.4148.59043-1.4148 1.4984v4.7805h-1.2555zm14.33 0v-7.2297h1.2555v7.2297zm2.4898 0 2.4906-7.2297h1.382l2.5016 7.2297h-1.2352l-1.382-4.0422s-.1371-.4111-.4961-1.6461h-.0633c-.3485 1.235-.48516 1.657-.48516 1.657l-1.3828 4.0313h-1.3297zm13.749 0v-7.2297h1.2555v2.8922h.60156c.454 0 .71791-.42298.92891-.85548l1.0023-2.0367h1.3828l-1.3828 2.607c-.084.169-.21097.35937-.44296.49687v.0203c.9495.359 1.3617 1.0975 1.3617 1.9625 0 1.256-.79193 2.143-2.3859 2.143h-2.3211zm12.451 0v-7.2297h1.2555v7.2297zm2.7008 0v-1.0766h1.9109v-6.1531h1.2555v6.1641h1.8258l.0953 1.0656zm5.9094 0 2.2797-4.1367v-3.093h1.2555v3.093l2.2805 4.1367h-1.3836l-1.0234-2.0586s-.12665-.26312-.48515-1.0656h-.0312c-.3805.8025-.51797 1.0656-.51797 1.0656l-.96016 2.0586h-1.4141zm41.005 0v-7.2297h4.2742l.0953 1.0664h-3.1133v6.1633zm5.5922 0v-7.2297h1.2555v7.2297zm15.3 0v-7.2297h1.2562v2.8922h.60157c.4535 0 .7179-.42298.9289-.85548l1.0024-2.0367h1.3828l-1.3828 2.607c-.084.169-.21097.35937-.44297.49687v.0203c.9495.359 1.3617 1.0975 1.3617 1.9625 0 1.256-.79194 2.143-2.3859 2.143h-2.3219zm13.18 0v-7.2297h1.2555v7.2297zm-61.834-.95c1.2455 0 1.8469-1.0869 1.8469-2.6594s-.61137-2.6695-1.8469-2.6695c-1.245 0-1.857 1.0975-1.857 2.6805 0 1.5725.61203 2.6484 1.857 2.6484zm44.423 0c1.2455 0 1.8469-1.0869 1.8469-2.6594s-.61187-2.6695-1.8469-2.6695c-1.2455 0-1.857 1.0975-1.857 2.6805 0 1.5725.61153 2.6484 1.857 2.6484zm-77.472-.12657h1.0344c.855 0 1.1297-.40106 1.1297-1.0766 0-.686-.34859-1.1289-1.1086-1.1289h-1.0555zm82.959 0h1.0344c.855 0 1.1297-.40106 1.1297-1.0766 0-.686-.3486-1.1289-1.1086-1.1289h-1.0555zm-26.538-.18984h.0211c.496-1.4985.58047-1.7305.58047-1.7305l.55937-1.5938h-2.2906l.55937 1.5938s.0848.23197.57031 1.7305zm43.948 0h.0211c.496-1.4985.58124-1.7305.58124-1.7305l.5586-1.5938h-2.2906l.56016 1.5938s.084.23197.56953 1.7305z" fill="#fff" transform="matrix(1.25 0 0 -1.25 -320.94 394.8)"/></svg>
