<svg viewBox="0 0 203 203" xmlns="http://www.w3.org/2000/svg"><path d="m199.916 125.359-81.511-5.245c-.339-.021-.663.146-.839.436-.175.29-.178.654-.004.945l10.263 17.076-27.267 16.384c-4.278-5.482-9.076-11.147-14.277-16.859l68.124-65.823 13.224 13.224c.219.218.534.31.835.247.303-.065.551-.277.662-.567l31.564-82.189c.259-.673-.507-1.437-1.18-1.179l-82.19 31.563c-.286.112-.5.361-.564.663-.065.301.028.617.247.834l13.222 13.224-65.83 68.115c-5.699-5.186-11.362-9.981-16.85-14.268l16.383-27.265 17.076 10.26c.291.174.657.173.945-.002.289-.177.457-.501.435-.84l-5.244-81.511c-.026-.397-.308-.731-.695-.827-.388-.094-.792.074-.997.417l-34.595 57.573c-.067.112-.101.234-.109.359l-30.957 51.518c-.128.214-.164.473-.095.715.065.241.228.444.45.562 8.828 4.676 21.251 13.962 33.357 24.927l-41.77 43.221 19.704 19.706 43.227-41.767c10.97 12.107 20.262 24.535 24.942 33.369.115.224.319.386.562.452.241.067.5.032.714-.097l51.489-30.936c.131-.013.264-.055.385-.127l57.575-34.594c.345-.207.512-.611.418-.999-.095-.388-.431-.67-.829-.695"/><path d="m21.433 202.48c-.443 0-.885-.169-1.221-.506l-19.705-19.704c-.667-.667-.677-1.745-.022-2.424l40.528-41.933c-11.564-10.337-23.319-19.06-31.679-23.489-.637-.334-1.116-.929-1.309-1.632-.191-.683-.09-1.433.277-2.052l30.804-51.266c.06-.216.149-.423.262-.615l34.598-57.577c.6-.994 1.758-1.478 2.885-1.208 1.135.284 1.939 1.246 2.013 2.398l5.244 81.512c.067.979-.417 1.911-1.261 2.425-.837.511-1.884.515-2.729.009l-15.599-9.374-14.708 24.479c4.741 3.751 9.609 7.872 14.503 12.282l63.488-65.693-12.02-12.021c-.634-.633-.902-1.534-.718-2.411.188-.882.8-1.598 1.635-1.919l82.193-31.566c.938-.36 2.031-.116 2.78.633.746.746.994 1.838.63 2.781l-31.562 82.188c-.327.84-1.041 1.449-1.914 1.635-.886.187-1.791-.082-2.422-.72l-12.019-12.018-65.701 63.481c4.422 4.908 8.547 9.779 12.291 14.513l24.478-14.709-9.37-15.594c-.507-.843-.504-1.89.006-2.733.511-.844 1.47-1.329 2.433-1.262l81.505 5.245c1.155.073 2.117.879 2.396 2.004.276 1.133-.21 2.295-1.203 2.892l-57.577 34.595c-.2.119-.413.21-.634.275l-51.241 30.79c-.614.372-1.371.479-2.07.278-.696-.187-1.296-.669-1.631-1.319-4.425-8.353-13.152-20.111-23.493-31.679l-41.941 40.525c-.336.321-.768.484-1.2.484m-17.282-21.453 17.302 17.303 42.007-40.587c.336-.325.793-.525 1.257-.484.468.016.91.22 1.224.567 10.735 11.848 19.931 24.091 24.779 32.963l50.756-30.497c.161-.097.337-.167.519-.206l55.206-33.171-77.355-4.978 9.46 15.744c.489.817.225 1.879-.592 2.371l-27.265 16.383c-.75.453-1.716.271-2.252-.416-4.249-5.441-9.024-11.082-14.195-16.76-.628-.692-.594-1.758.078-2.407l68.127-65.822c.676-.656 1.753-.647 2.421.021l12.336 12.335 30.457-79.307-79.308 30.457 12.335 12.335c.666.666.674 1.744.019 2.422l-65.831 68.118c-.65.669-1.714.706-2.405.076-5.663-5.155-11.299-9.928-16.751-14.185-.687-.537-.866-1.503-.417-2.252l16.384-27.266c.235-.392.618-.676 1.063-.786.445-.112.914-.042 1.308.196l15.742 9.458-4.977-77.352-33.15 55.17c-.04.184-.11.361-.208.524l-30.515 50.784c8.872 4.85 21.105 14.039 32.951 24.768.345.314.55.755.567 1.223.015.468-.161.921-.486 1.259l-40.591 41.999zm86.97 10.506.007.013zm-1.133-.304c-.002 0-.003 0-.005.003zm52.219-31.178c-.001 0-.001 0-.002.002.001-.002.001-.002.002-.002m57.597-32.969h.003zm-81.51-5.244c.002 0 .003.001.005.001zm-107.349-10.471c.002.001.003.002.007.004-.004-.002-.005-.003-.007-.004m157.902-27.098.006.005c-.002-.002-.005-.003-.006-.005m-88.188-.063c.001.001.001.004.001.004z"/><path d="m188.158 21.51-26.852 48.661 5.04 5.042z"/><path d="m179.408 133.832-89.193 44.209 3.326 5.534z"/><path d="m74.329 31.504 2.105 44.733-5.449-3.274z"/><path d="m199.916 125.359-81.511-5.245c-.339-.021-.663.146-.839.436-.175.29-.178.654-.004.945l10.263 17.076-27.267 16.384c-4.278-5.482-9.076-11.147-14.277-16.859l68.124-65.823 13.224 13.224c.219.218.534.31.835.247.303-.065.551-.277.662-.567l31.564-82.189c.259-.673-.507-1.437-1.18-1.179l-82.19 31.563c-.286.112-.5.361-.564.663-.065.301.028.617.247.834l13.222 13.224-65.83 68.115c-5.699-5.186-11.362-9.981-16.85-14.268l16.383-27.265 17.076 10.26c.291.174.657.173.945-.002.289-.177.457-.501.435-.84l-5.244-81.511c-.026-.397-.308-.731-.695-.827-.388-.094-.792.074-.997.417l-34.595 57.573c-.067.112-.101.234-.109.359l-30.957 51.518c-.128.214-.164.473-.095.715.065.241.228.444.45.562 8.828 4.676 21.251 13.962 33.357 24.927l-41.77 43.221 19.704 19.706 43.227-41.767c10.97 12.107 20.262 24.535 24.942 33.369.115.224.319.386.562.452.241.067.5.032.714-.097l51.489-30.936c.131-.013.264-.055.385-.127l57.575-34.594c.345-.207.512-.611.418-.999-.095-.388-.431-.67-.829-.695" fill="#808080"/><g fill="#d3d3d3"><path d="m21.433 202.48c-.443 0-.885-.169-1.221-.506l-19.705-19.704c-.667-.667-.677-1.745-.022-2.424l40.528-41.933c-11.564-10.337-23.319-19.06-31.679-23.489-.637-.334-1.116-.929-1.309-1.632-.191-.683-.09-1.433.277-2.052l30.804-51.266c.06-.216.149-.423.262-.615l34.598-57.577c.6-.994 1.758-1.478 2.885-1.208 1.135.284 1.939 1.246 2.013 2.398l5.244 81.512c.067.979-.417 1.911-1.261 2.425-.837.511-1.884.515-2.729.009l-15.599-9.374-14.708 24.479c4.741 3.751 9.609 7.872 14.503 12.282l63.488-65.693-12.02-12.021c-.634-.633-.902-1.534-.718-2.411.188-.882.8-1.598 1.635-1.919l82.193-31.566c.938-.36 2.031-.116 2.78.633.746.746.994 1.838.63 2.781l-31.562 82.188c-.327.84-1.041 1.449-1.914 1.635-.886.187-1.791-.082-2.422-.72l-12.019-12.018-65.701 63.481c4.422 4.908 8.547 9.779 12.291 14.513l24.478-14.709-9.37-15.594c-.507-.843-.504-1.89.006-2.733.511-.844 1.47-1.329 2.433-1.262l81.505 5.245c1.155.073 2.117.879 2.396 2.004.276 1.133-.21 2.295-1.203 2.892l-57.577 34.595c-.2.119-.413.21-.634.275l-51.241 30.79c-.614.372-1.371.479-2.07.278-.696-.187-1.296-.669-1.631-1.319-4.425-8.353-13.152-20.111-23.493-31.679l-41.941 40.525c-.336.321-.768.484-1.2.484m-17.282-21.453 17.302 17.303 42.007-40.587c.336-.325.793-.525 1.257-.484.468.016.91.22 1.224.567 10.735 11.848 19.931 24.091 24.779 32.963l50.756-30.497c.161-.097.337-.167.519-.206l55.206-33.171-77.355-4.978 9.46 15.744c.489.817.225 1.879-.592 2.371l-27.265 16.383c-.75.453-1.716.271-2.252-.416-4.249-5.441-9.024-11.082-14.195-16.76-.628-.692-.594-1.758.078-2.407l68.127-65.822c.676-.656 1.753-.647 2.421.021l12.336 12.335 30.457-79.307-79.308 30.457 12.335 12.335c.666.666.674 1.744.019 2.422l-65.831 68.118c-.65.669-1.714.706-2.405.076-5.663-5.155-11.299-9.928-16.751-14.185-.687-.537-.866-1.503-.417-2.252l16.384-27.266c.235-.392.618-.676 1.063-.786.445-.112.914-.042 1.308.196l15.742 9.458-4.977-77.352-33.15 55.17c-.04.184-.11.361-.208.524l-30.515 50.784c8.872 4.85 21.105 14.039 32.951 24.768.345.314.55.755.567 1.223.015.468-.161.921-.486 1.259l-40.591 41.999zm86.97 10.506.007.013zm-1.133-.304c-.002 0-.003 0-.005.003zm52.219-31.178c-.001 0-.001 0-.002.002.001-.002.001-.002.002-.002m57.597-32.969h.003zm-81.51-5.244c.002 0 .003.001.005.001zm-107.349-10.471c.002.001.003.002.007.004-.004-.002-.005-.003-.007-.004m157.902-27.098.006.005c-.002-.002-.005-.003-.006-.005m-88.188-.063c.001.001.001.004.001.004z"/><path d="m188.158 21.51-26.852 48.661 5.04 5.042z"/><path d="m179.408 133.832-89.193 44.209 3.326 5.534z"/><path d="m74.329 31.504 2.105 44.733-5.449-3.274z"/></g></svg>
