<svg xmlns="http://www.w3.org/2000/svg" width="248" height="119.16" viewBox="0 0 248 119.16">
 <path transform="matrix(2.5417 0 0 2.5417 1.2074 .19391)" d="m84.157 29.755c-0.167 0.747-2.895 7.363-3.206 8.115l-0.015 0.032c-1.08 1.993-2.271 2.962-3.645 2.962-0.19 0-0.385-0.02-0.58-0.059l-0.035-8e-3c-2.075-0.644-1.764-3.467-1.185-6.143 1.224-5.768 4.135-8.452 4.89-8.888 0.616-0.44 1.208-0.663 1.761-0.663 0.591 0 1.108 0.256 1.495 0.739 0.684 0.855 0.879 2.318 0.52 3.913zm-20.78-6.298c0.087-0.587 2.476-9.607 6.605-16.528l0.015-0.023c0.949-1.337 1.881-2.074 2.625-2.074a0.96 0.96 0 0 1 0.815 0.43c0.446 0.655 0.325 1.949-0.34 3.646-2.128 5.438-4.73 8.9-7.025 11.955-0.738 0.982-1.435 1.91-2.066 2.84l-0.85 1.25zm33.296 14.661c-0.162-0.389-0.477-0.585-0.937-0.585-0.593 0-1.672 0.322-3.442 1.866-0.822 0.717-2.07 1.442-3.005 1.442-0.587 0-0.901-0.278-1.06-0.512-0.46-0.672-0.32-1.923 0.425-3.827 0.213-0.64 1.168-3.045 2.179-5.591 1.008-2.54 2.151-5.418 2.265-5.834l0.01-0.027c0.49-1.337 0.505-2.394 0.042-3.058-0.354-0.507-1.006-0.786-1.836-0.786-1.958 0-4.43 1.518-4.987 3.779l-0.214 0.868-0.426-0.787c-1.346-2.486-3.214-3.801-5.402-3.801-2.124 0-4.481 1.204-6.637 3.39-3.203 3.246-5.237 7.955-5.182 11.998l2e-3 0.138-0.092 0.1c-0.152 0.166-3.742 4.048-6.637 4.049a2.89 2.89 0 0 1-0.822-0.116c-0.482-0.142-0.855-0.464-1.11-0.955-1.235-2.375 0.731-8.317 0.816-8.569l0.024-0.073 0.053-0.056c7.707-8.064 12.013-16.774 13.149-19.252 2.186-4.704 2.738-8.159 1.596-9.994-0.649-1.043-1.883-1.592-3.667-1.632a7.982 7.982 0 0 0-0.463-0.013c-3.977 0-6.578 2.985-7.774 4.765-2.645 4.072-7.967 18.097-10.618 31.68l-0.022 0.111-0.084 0.077c-1.31 1.196-3.003 2.045-4.362 2.727-0.273 0.137-0.531 0.267-0.765 0.39-1.257 0.656-2.407 0.99-3.417 0.99-1.413 0-2.517-0.645-3.192-1.865-1.456-2.627-0.598-7.455 2.085-11.74 0.879-1.404 2.348-2.311 3.742-2.311 0.724 0 1.347 0.255 1.755 0.716 0.427 0.484 0.598 1.165 0.497 1.968l-0.108 0.859-0.513-0.697c-0.44-0.596-1.03-0.925-1.662-0.925-0.969 0-2.106 0.823-2.317 2.63-0.022 0.538 0.167 1.034 0.547 1.432 0.542 0.568 1.44 0.907 2.401 0.907 1.895 0 4.147-1.295 4.26-4.941 0.05-1.636-0.403-2.96-1.348-3.934-1.019-1.051-2.595-1.63-4.438-1.63-2.912 0-6.073 1.402-8.455 3.748-2.002 1.97-4.411 5.528-4.523 11.278l-1e-3 0.058-0.02 0.056c-0.055 0.148-1.39 3.646-4.645 4.277a2.03 2.03 0 0 1-0.379 0.038c-0.479 0-0.89-0.201-1.19-0.582-1.224-1.552-0.51-5.926 0.304-9.323 0.657-3.022 0.934-4.052 1.255-5.243 0.24-0.893 0.512-1.904 0.995-3.948 0.417-1.767 1.574-6.047 2.693-10.187 1.093-4.043 2.125-7.863 2.22-8.43 0.175-1.06-0.493-1.955-1.664-2.23-1.514-0.35-2.766-0.225-3.996 0.375-1.506 0.734-2.094 2.301-2.322 3.487a345.82 345.82 0 0 1-2.392 9.084c-0.749 2.723-1.395 5.076-2.223 8.684-0.058 0.246-0.126 0.547-0.205 0.897-1.793 7.95-4.374 17.077-8.438 17.078-0.098 0-0.197-5e-3 -0.294-0.016-0.836-0.094-1.473-0.44-1.892-1.028-0.869-1.218-0.852-3.462 0.056-7.502 0.834-3.248 1.677-6.17 2.491-8.995 1.001-3.468 1.946-6.745 2.694-10.027 0.946-3.604 0.452-7.12-1.32-9.418-1.291-1.674-3.16-2.558-5.408-2.558-1.44 0-3.025 0.362-4.708 1.076-3.723 1.58-5.027 6.165-4.505 8.732 0.147 0.725 0.57 1.943 1.747 1.943 1.242-0.015 1.374-1.135 1.435-2.843 0.011-0.326 0.022-0.635 0.049-0.924l4e-3 -0.028c0.388-2.208 1.595-3.474 3.312-3.474 0.07 0 0.141 2e-3 0.213 6e-3l0.066 0.01c2.658 0.692 2.634 2.723 1.963 6.873l-0.01 0.042c-0.168 0.576-0.345 1.173-0.528 1.79-1.435 4.859-3.222 10.905-4.927 18.54-1.144 5.19-0.786 8.989 1.065 11.293 1.535 1.91 3.729 2.31 5.298 2.31 1.246 0 2.527-0.254 3.608-0.716 2.317-0.993 3.374-1.89 5.062-5.236l0.441-0.874 0.206 0.957c0.796 3.69 2.799 5.723 5.64 5.723 2.843 0 6.156-2.01 8.647-5.248l0.418-0.544 0.188 0.66c0.807 2.832 3.426 4.622 5.595 4.926 0.644 0.124 1.29 0.185 1.938 0.185 4.996 0 9.34-3.608 10.975-5.16l0.484-0.46 0.097 0.66c0.613 4.182 3.486 5.06 5.789 5.06 3.617 0 8.17-2.314 10.15-5.16l0.353-0.507 0.247 0.567c1.794 4.103 4.13 4.965 5.772 4.965 2.313 0 4.9-1.616 6.913-5.336l-3e-3 0.439c-0.015 1.752 0.434 3.14 1.3 4.013 0.693 0.698 1.655 1.068 2.781 1.068 1.1 0 2.329-0.35 3.554-1.01 2.428-1.219 2.903-1.63 5.902-4.488 0.868-0.878 1.1-2.101 0.82-2.774z" fill="#2774ae"/>
</svg>
