<svg height="226.99" viewBox="0 0 227 226.99126" width="227" xmlns="http://www.w3.org/2000/svg"><path d="m1.1992 113.69c0 62.03 50.454 112.5 112.47 112.5 62.048 0 112.53-50.465 112.53-112.5 0-62.032-50.48-112.5-112.53-112.5-62.017.0032-112.47 50.468-112.47 112.5" fill="#bf5700"/><path d="m2.373 113.69c0-61.387 49.925-111.32 111.3-111.32 61.4 0 111.36 49.936 111.36 111.32 0 61.38-49.955 111.32-111.36 111.32-61.372 0-111.3-49.94-111.3-111.32" fill="#fff"/><path d="m113.69 6.7595c-59.068 0-106.94 47.876-106.94 106.93 0 59.058 47.868 106.93 106.94 106.93 59.075 0 106.94-47.874 106.94-106.93s-47.869-106.93-106.94-106.93" fill="#bf5700"/><path d="m113.69 218.13c-57.697 0-104.45-46.765-104.45-104.45 0-57.684 46.751-104.45 104.45-104.45 57.702 0 104.46 46.762 104.46 104.45 0 57.682-46.754 104.45-104.46 104.45" fill="#fff"/><path d="m113.7 30.797c-45.797 0-82.907 37.111-82.907 82.893s37.11 82.894 82.904 82.894c45.804 0 82.906-37.111 82.906-82.894 0-45.784-37.102-82.895-82.906-82.895" fill="#bf5700"/><path d="m113.7 194.37c-44.576 0-80.694-36.121-80.694-80.682 0-44.56 36.118-80.682 80.694-80.682 44.581 0 80.696 36.122 80.696 80.682 0 44.561-36.115 80.682-80.696 80.682" fill="#fff"/><path d="m64.928 58.621c-2.123 18.373-3.964 36.951-3.132 48.379.99 26.52 17.515 63.529 51.44 82.036l.45875.2475.4575-.2475c33.935-18.508 50.459-55.516 51.45-82.071.8325-11.4-1.015-29.975-3.1338-48.341l-.19625-1.7188-1.35 1.08c-10.81 8.64-31.23 11.081-46.68.202l-.55125-.38875-.5525.38875c-15.456 10.881-35.868 8.438-46.674-.211l-1.3512-1.08-.19625 1.7188z" fill="#bf5700"/><path d="m113.69 60.082c15.534 10.566 35.548 8.4862 47.045.29 1.6825 14.708 3.15 29.409 3.15 40.251 0 2.2562-.06 4.3462-.20125 6.2338-.9675 25.94-17.048 61.962-49.994 80.192-32.938-18.23-49.019-54.252-49.988-80.158-.135-1.8938-.2-3.9912-.2-6.2525 0-10.859 1.4725-25.56 3.1525-40.268 11.498 8.1988 31.51 10.276 47.035-.29" fill="#fff"/><g transform="translate(-.000626)"><path d="m109.49 70.27c-1.24 0-2.71.238-4.34.705-2.33.612-4.4.766-7.283.634l-.463-.021-1.373 17.84.44.066c.685.104 1.355.152 2.05.152 1.779 0 3.379-.339 4.919-.669 1.37-.294 2.79-.6 4.33-.651 2.34-.122 3.54.664 5.38 2.1v.746l.48-.375.48.377v-.748c1.71-1.341 2.86-2.11 4.93-2.11.15 0 .3.003.46.01 1.53.051 2.95.357 4.32.651 1.55.33 3.14.671 4.92.671.69 0 1.36-.05 2.05-.154l.44-.068-1.37-17.838-.47.021c-2.9.133-4.95-.025-7.27-.632-1.64-.469-3.1-.707-4.35-.707-2.3 0-3.51.83-4.14 1.765-.63-.936-1.84-1.765-4.14-1.765z" fill="#bf5700"/><path d="m109.49 71.227c-1.16 0-2.53.226-4.09.671-2.31.608-4.35.793-7.113.688l-1.232 16.019c.486.057.969.084 1.466.084 1.679 0 3.149-.314 4.719-.65 1.41-.302 2.88-.616 4.48-.67.17-.009.34-.012.5-.012 2.08 0 3.37.688 4.93 1.856v-16.014c-.47-1.327-1.67-1.972-3.66-1.972zm8.28.002c-1.99 0-3.19.645-3.66 1.972v16.014c1.68-1.261 3.05-1.979 5.43-1.844 1.6.054 3.07.366 4.48.668 1.57.336 3.05.652 4.72.652.5 0 .98-.027 1.47-.084l-1.24-16.021c-2.76.105-4.8-.081-7.1-.686-1.57-.447-2.94-.671-4.1-.671z" fill="#fff"/><path d="m115.78 13.219c-.41.002-.82.048-1.21.086-.41.043-.81.084-1.19.084-.37.005-.74-.034-1.14-.069-.39-.04-.8-.076-1.21-.074-.57.003-1.07.008-1.34.283-.12.118-.17.266-.17.428 0 .493.29.821.77.854.67.047 1.12.271 1.13 1.228l.05 8.789c0 .94-.32 1.163-.62 1.254-.21.065-.8.244-.79.846 0 .313.17.549.47.642.17.06.37.055.59.055.41-.001.81-.046 1.2-.084.4-.045.77-.084 1.14-.084.41-.005.84.037 1.23.074.36.038.69.071.99.071.58-.005 1.07-.009 1.35-.286.12-.116.17-.266.17-.427 0-.494-.3-.821-.76-.854-.02 0-1.15-.13-1.16-1.228l-.05-8.789c0-.72.07-1.115.51-1.25.02-.01.05-.014.08-.024.27-.075.93-.251.92-.826 0-.246-.1-.399-.19-.486-.22-.217-.53-.213-.77-.213zm4 .025c-.36.05-.56.265-.66.684 0 0-.43 1.952-.43 1.957-.01.064-.03.134-.05.207-.04.166-.08.34-.1.48-.01.159.03.32.12.442.12.15.3.237.55.267.6.075.76-.291.78-.375.63-1.646 1.27-1.657 3.02-1.443.19.02.76.09.9.277.02.021.08.089.05.309l-1.09 9.002c-.11.857-.59.999-1.37 1.125-.19.032-.37.059-.54.115-.02.003-.07.012-.11.016-.18.021-.68.083-.76.707-.03.208.02.381.13.521.17.225.44.258.64.281.58.07 1.18.103 1.76.135.58.034 1.18.067 1.77.137.58.07 1.17.183 1.75.291.57.11 1.16.221 1.74.289.57.07.88-.131.94-.594.07-.627-.39-.804-.57-.869-.04-.014-.09-.032-.1-.043-.15-.094-.32-.165-.5-.242-.73-.31-1.17-.558-1.06-1.418l1.09-9.002c.04-.29.06-.465 1.07-.344 1.75.213 2.36.377 2.58 2.092.01.191.11.522.68.59.36.045.76-.132.8-.494.02-.161.02-.338.02-.469 0 0 .05-2.003.05-1.998.02-.768-.1-1.101-.86-1.193-.98-.118-1.98-.198-2.96-.278s-1.99-.162-2.98-.285c-.98-.119-1.97-.28-2.93-.433-.97-.155-1.97-.319-2.96-.44-.16-.019-.3-.02-.41-.004zm-17.47.508c-.24-.003-.5.009-.77.043-1.18.145-2.217.724-2.925 1.633-.682.875-1 2.003-.865 3.088.402 3.261 3.03 3.842 5.15 4.312 1.71.381 2.77.669 2.9 1.719.06.51-.05.974-.34 1.338-.33.426-.86.702-1.5.781-1.72.214-3.16-1.007-3.92-2.221-.03-.045-.058-.103-.091-.17-.159-.306-.429-.821-1.006-.746-.261.033-.457.128-.584.289-.103.135-.15.307-.127.487.023.172.098.363.168.529.024.057.047.112.061.152.005.014 1.02 2.626 1.023 2.637.193.456.666.481.886.492.03 0 .05.002.07.004.36.026.73.066 1.08.111.83.1 1.67.205 2.59.092 1.31-.163 2.4-.768 3.17-1.752.77-.992 1.14-2.306 1-3.509-.41-3.277-3.02-3.821-5.11-4.256-1.74-.363-2.81-.641-2.95-1.758-.03-.338.05-.645.26-.914.29-.374.8-.635 1.39-.705 1.28-.162 2.95.807 3.5 2.029l.04.076c.21.444.43.944 1.05.869.28-.035.44-.172.52-.281.09-.116.19-.318.15-.629-.01-.084-.04-.217-.13-.545-.17-.645-.45-1.727-.52-2.506-.02-.177-.08-.398-.27-.548-.13-.108-.31-.15-.52-.122-.17.02-.32.115-.51.225-.08.053-.23.139-.28.15-.17.022-.46-.045-.79-.13-.47-.112-1.07-.256-1.8-.264zm33.16 1.603c-.15-.015-.31 0-.45.077-.11.058-.25.176-.31.404-.19.629.44.935.87 1.143.3.136.61.447.91 1.787 0 0 1.32 6.118 1.32 6.14.04.129.04.217.01.317l-.68 2.345c-.3 1.037-.75 1.191-1.33 1.104l-.1-.014c-.4-.065-1.09-.177-1.29.5-.05.193-.03.382.06.547.2.363.66.497 1.14.637s.96.229 1.39.312c.36.068.7.133.99.213.44.129.87.294 1.28.455.41.157.83.324 1.26.446.28.085.57.169.83.179.59.02.77-.366.82-.535.19-.679-.44-.951-.82-1.117l-.09-.037c-.54-.236-.84-.61-.54-1.645l.86-2.943c.06-.189.24-.357.5-.588 0 0 .13-.114.13-.119l3.58-3.293c1.05-.97 1.33-1.15 1.85-1.211.04-.005.09-.009.13-.012.28-.026.67-.063.82-.574.07-.251.02-.432-.04-.537-.14-.25-.4-.326-.57-.375-.35-.101-.7-.161-1.05-.223-.34-.056-.66-.113-.96-.197-.31-.091-.61-.214-.93-.348-.32-.132-.65-.273-1-.377-.18-.053-.44-.126-.68.008-.16.086-.27.232-.32.436-.13.43.01.767.42 1.004.47.273 1.08.669 1 .957-.04.147-.14.376-.44.656 0 .002-2.78 2.633-2.78 2.633l-.83-4.155c-.17-.633-.04-.893.45-.972.28-.045.82.008.96-.481.06-.226.01-.397-.05-.502-.16-.287-.49-.384-.79-.47-.44-.127-.89-.217-1.32-.301-.44-.084-.85-.164-1.25-.285-.41-.115-.8-.271-1.22-.432-.41-.159-.83-.324-1.27-.453-.15-.042-.31-.088-.47-.104zm-46.187 1.293c-1.053-.048-2.16.204-3.107.473-.406.113-.923.299-1.465.49-.588.212-1.205.427-1.725.577-.822.231-1.342.311-1.72.374-.238.038-.431.068-.618.12-.253.072-.532.18-.664.423-.13.223-.065.438-.046.51.131.46.467.681.949.621.837-.112 1.229.124 1.445.875l2.389 8.461c.102.369.197 1.042-.356 1.397-.19.123-.705.452-.541 1.029.191.678.884.481 1.114.416.392-.11.775-.263 1.14-.408.369-.145.71-.279 1.07-.379.36-.103.725-.169 1.114-.236.387-.068.79-.14 1.183-.252.743-.208 1.074-.338 1.229-.619.056-.098.108-.259.047-.473-.132-.474-.505-.711-.973-.617-.584.122-1.135.116-1.523-1.254l-.899-3.106.248-.121c.44-.124.702.043 1.231.578l3.338 3.403c.668.678 1.579.982 2.318.773.375-.11 2.278-.681 2.754-1.537.121-.217.155-.45.094-.67-.065-.224-.182-.385-.34-.475-.113-.061-.292-.119-.539-.046-.108.027-.211.072-.309.117-.089.041-.179.078-.258.101-.005 0-.061.009-.285-.129-1.131-.722-3.95-3.562-4.17-3.929l.03-.024c.129-.103.396-.3.531-.435.575-.594 1.282-1.572.828-3.162-.318-1.127-.892-1.932-1.725-2.393-.545-.306-1.157-.444-1.789-.473zm-2.433 1.913c.458-.034.885.082 1.254.341.457.32.802.841.976 1.459.253.894.259 1.542.01 1.985-.22.39-.67.675-1.371.877-.628.177-.819.095-.852.076-.019-.009-.027-.029-.055-.123l-1.048-3.705c-.075-.258-.083-.414-.041-.494.047-.08.19-.196.658-.332.159-.045.316-.073.469-.084zm-10.891 2.212c-.259.001-.525.124-.781.243-.698.317-1.376.676-2.039 1.023-.65.34-1.324.696-1.993 1.002l-.972.441c-1.015.465-2.068.951-3.147 1.288l-.023.007-.024.012c-.312.141-.631.291-.748.6-.042.112-.07.289.028.504.215.468.768.572 1.638.3.127-.042.607-.042 1.407 1.698l3.082 6.687c.462 1.005.443 1.275.148 1.633-.032.04-.065.079-.097.121-.243.294-.581.698-.366 1.168.295.639.917.35 1.463.098.609-.279 1.204-.594 1.774-.901.561-.302 1.145-.614 1.73-.883.585-.268 1.197-.506 1.795-.74.602-.236 1.23-.481 1.838-.758.991-.458 1.477-1.828 1.361-2.83-.042-.448-.229-1.248-.412-1.65-.099-.215-.247-.361-.43-.43-.116-.041-.305-.073-.529.032-.342.154-.401.515-.476.931-.047.271-.102.604-.239.961-.402 1.031-1.332 1.888-2.763 2.547-.379.174-.589.231-.705.185-.22-.081-.473-.587-.647-.962l-1.394-3.036c-.037-.08-.078-.186-.059-.232.014-.035.092-.169.564-.387.978-.451 1.38-.526 1.993-.115.103.074.211.192.31.305.214.234.537.592.957.398.211-.099.346-.236.412-.414.108-.289-.018-.56-.107-.762-.126-.275-.276-.545-.416-.8-.141-.26-.272-.508-.395-.76-.116-.255-.215-.516-.322-.793-.102-.274-.21-.561-.336-.84-.104-.217-.231-.491-.516-.594-.107-.042-.285-.07-.5.028-.44.201-.448.561-.416 1.138.047.65-.396 1.25-1.378 1.645-.403.164-.675.164-.708.16.024.004-1.386-2.98-1.386-2.98-.178-.385-.164-.487-.164-.5 0 0 .032-.043.201-.12l1.154-.531c2.07-.954 2.497-.571 2.945.178.408.679.885.553 1.073.467.206-.097.345-.232.41-.407.099-.265-.019-.515-.057-.593-.097-.217-.21-.411-.322-.6-.102-.185-.205-.361-.285-.541-.085-.179-.149-.368-.219-.566-.075-.212-.154-.427-.248-.637-.112-.244-.287-.349-.408-.393-.084-.031-.17-.045-.256-.045zm-11.244 5.528c-.098.017-.193.08-.268.127-.551.368-1.013.869-1.57 1.238-.55.365-1.191.605-1.742.975-.165.107-.356.237-.188.5.122.175.29.183.621.15.577-.054.833-.3 1.243-.244.233.032.417.168.627.476.158.243.248.658.345 1.227l1.043 6.381c.061.381.091.412-.008.474-.08.054-.187-.083-.566-.294l-5.625-3.551c-.323-.206-.733-.43-.926-.723-.247-.376-.415-.732-.004-1.17.215-.239.434-.476.256-.736-.172-.26-.464-.066-.576.008-.733.488-1.379 1.107-2.107 1.593-.735.488-1.553.848-2.282 1.334-.23.15-.394.257-.22.518.172.262.356.141.67.121.383-.021.963-.172 1.814.363l10.08 6.293c.599.374.834.477 1.076.313.178-.116.351-.28.168-1.403l-1.678-10.382c-.211-1.268-.323-1.828-.187-2.434.116-.526.458-.756.289-1.014-.087-.131-.188-.158-.285-.14zm98.915 1.443c-.56.008-1.11.071-1.66.19-1.97.43-3.63 1.57-4.68 3.207-1.06 1.645-1.41 3.442-1.03 5.201.41 1.859 1.63 3.521 3.43 4.681 3.48 2.232 8.61 2.147 11.18-1.857 1.07-1.665 1.42-3.485 1.04-5.264-.42-1.906-1.67-3.617-3.54-4.812-1.42-.909-3.08-1.371-4.74-1.346zm1.85 1.912c.49.025.95.166 1.37.434.7.444 1.15 1.143 1.36 2.074.4 1.883-.32 4.331-1.25 5.774-.84 1.318-2.09 2.267-3.35 2.542-.82.179-1.6.054-2.24-.357-.7-.449-1.16-1.147-1.36-2.074-.41-1.885.32-4.33 1.24-5.778 1.1-1.72 2.76-2.69 4.23-2.615zm11.02 5.633c-.17.01-.32.082-.44.213-.13.145-.19.325-.18.521.02.328.24.683.66 1.057.16.148.17.229.17.262.01.257-.4.754-.76 1.156l-5.72 6.389c-.26.285-.77.725-1.37.449-.2-.094-.76-.355-1.16.094-.16.182-.19.367-.18.486.01.311.24.515.42.676.31.276.64.515.96.75.32.229.62.452.9.697.27.25.53.525.79.815.27.295.54.592.85.869.22.193.45.402.66.531.53.322.84.078.94-.041.33-.37.33-.809 0-1.154-.49-.502-.64-.975.09-1.784l2.38-2.666c.05-.051.14-.134.18-.129.04.004.16.041.44.29.87.771 1.05 1.089.95 1.623-.03.182-.1.352-.17.519-.13.304-.31.718.03 1.022.38.338.78.277 1.18-.174.21-.231.4-.474.58-.705.18-.227.35-.444.52-.643.19-.209.39-.398.6-.601.2-.204.42-.414.62-.643.15-.163.35-.385.33-.693-.01-.19-.1-.359-.27-.514-.35-.306-.73-.094-.97.047-.13.075-.26.146-.4.189-.63.195-1.85-.709-1.85-.709l-.39-.439 2.25-2.485.42-.396.83.752c1.31 1.179 1.96 1.838 1.18 2.93-.46.648-.15 1.037 0 1.173.28.248.53.243.69.194.18-.059.3-.189.37-.268.16-.176.29-.353.42-.525.12-.169.24-.325.37-.473.13-.15.28-.286.44-.43.16-.147.32-.296.46-.462.19-.215.23-.427.22-.563-.02-.365-.3-.615-.57-.857-.55-.489-1.12-.958-1.68-1.405-.56-.442-1.13-.897-1.66-1.375-.53-.475-1.04-.989-1.54-1.488-.51-.505-1.04-1.03-1.58-1.521-.34-.299-.65-.58-1.01-.561zm-125.64.471c-.308-.024-.544.175-.726.334-.313.271-.594.572-.865.857-.272.288-.523.555-.803.799-.281.245-.586.459-.908.688-.323.226-.66.462-.967.728-.435.378-.811.703-.838 1.096-.01.161.043.313.146.437.328.371.76.428 1.143.143.542-.406 1.035-.527 1.662.195l5.756 6.643c.612.706.506 1.094.346 1.351-.122.196-.449.711-.055 1.162.462.532.998.063 1.256-.162.314-.266.591-.563.861-.851.273-.288.527-.559.809-.799.298-.26.631-.491.949-.711.29-.201.561-.394.791-.594.435-.375.807-.702.84-1.092.01-.161-.041-.311-.149-.437-.323-.374-.762-.426-1.14-.145-.01.005-.955.651-1.674-.179l-5.762-6.645c-.467-.542-.662-.892-.42-1.283.01-.016.028-.041.041-.066.164-.237.538-.793.164-1.227-.163-.183-.34-.236-.457-.242zm-6.427 5.383c-.272.018-.445.212-.547.33-.243.276-.449.57-.651.855-.196.281-.383.547-.593.785-.212.239-.448.457-.705.686-.263.232-.531.474-.768.748-.22.241-.461.518-.438.855.009.17.088.327.223.444.476.426 1.127-.037 1.6-.375.696-.503 1.338-.131 2.431.836l3.211 2.865s-11.071.505-11.052.504c-.44.004-.675.181-.979.519-.201.229-.382.474-.564.707-.183.234-.351.452-.538.662s-.384.409-.595.614c-.21.211-.425.424-.631.65-.065.08-.196.23-.182.459.01.226.168.389.285.496.379.331.767.162 1.221-.037.089-.04.192-.086.309-.133.527-.22 1.37.15 1.888.608l5.512 4.884c.725.635.866 1.099.643 2.063l-.02.066c-.075.312-.183.738.215 1.086.29.258.562.206.697.151.169-.07.281-.197.36-.285.238-.275.445-.57.646-.858.201-.279.383-.544.598-.783.21-.241.449-.459.705-.686.257-.236.525-.473.767-.75.207-.231.492-.551.469-.927-.01-.19-.1-.363-.25-.496-.439-.387-.92-.012-1.236.238-.113.086-.231.179-.344.244-.616.375-1.187.276-1.855-.313l-5.159-4.566 12.575-.603c1.07-.065 1.584-.138 1.808-.393.141-.161.161-.327.156-.439-.018-.323-.286-.617-.806-1.073l-7.049-6.24c-.725-.642-.875-1.101-.65-2.049l.013-.068c.075-.311.184-.739-.209-1.088-.16-.14-.334-.205-.511-.193zm66.276.054c-.77.019-1.47.325-1.98.858-.5.523-.78 1.225-.76 1.931.05 2.123 1.71 2.672 3.05 3.114 1.12.372 1.82.635 1.84 1.377 0 .358-.11.669-.34.902-.25.269-.63.422-1.08.432-1.17.027-2.05-.889-2.48-1.752-.01-.033-.03-.077-.05-.121-.08-.197-.21-.53-.55-.52-.16.002-.28.048-.36.133-.07.07-.1.16-.1.265 0 .108.04.231.07.338.02.045.03.086.04.114 0 .007.49 1.788.49 1.793.09.276.35.316.5.337.02.005.03.005.05.01.23.041.47.093.7.147.53.118 1.08.243 1.67.226.86-.016 1.61-.336 2.18-.916.6-.59.93-1.411.91-2.197-.05-2.133-1.76-2.653-3.08-3.074-1.14-.36-1.85-.623-1.86-1.405 0-.243.08-.452.24-.63.23-.238.6-.384 1.01-.393.89-.019 1.93.733 2.22 1.609l.02.053c.1.298.21.608.59.598.17-.005.29-.074.34-.133.06-.058.14-.167.13-.357 0-.049-.02-.141-.05-.354-.07-.437-.2-1.172-.19-1.689 0-.105-.02-.241-.13-.334-.07-.072-.17-.098-.31-.098-.1.002-.21.051-.33.107-.06.033-.17.085-.21.086-.13.003-.32-.065-.54-.142-.4-.138-.94-.328-1.65-.315zm4.93.012c-.15.01-.27.042-.35.119-.07.056-.11.137-.12.229-.02.295.13.496.42.535.56.08.77.349.73.929l-.4 5.786c-.04.515-.2.776-.52.851-.13.033-.49.114-.52.465-.01.135.04.225.09.273.12.142.31.155.52.168.26.022.53.011.79.002.26-.01.51-.014.76.002.26.019.52.065.78.11.23.041.44.078.64.093.19.014.39.029.55.01.34-.037.41-.233.42-.345.01-.293-.14-.492-.41-.534-.01-.002-.81-.151-.76-.929l.41-5.787c.03-.494.11-.776.44-.856.02-.005.04-.007.06-.01.19-.037.57-.111.59-.441.01-.14-.04-.232-.08-.283-.12-.134-.3-.149-.45-.157-.27-.021-.54-.012-.8-.003-.26.007-.51.014-.75-.004-.25-.018-.49-.056-.75-.104-.26-.041-.52-.087-.79-.103-.18-.013-.35-.026-.5-.016zm5.46.367c-.1.006-.19.03-.27.086-.09.07-.15.173-.17.311-.06.297.16.401.49.558 0 0 .18.084.19.084.3.14.45.211.25 1.408l-.81 4.873c-.09.527-.23 1.072-.58 1.129l-.06.012c-.24.039-.56.092-.61.402-.01.088 0 .167.05.231.1.14.27.167.48.201.2.033.41.041.61.051.2.005.39.014.56.043.15.022.36.071.63.133.49.112 1.15.264 1.99.404 1.37.229 2.72.01 3.8-.613 1.23-.707 2.01-1.87 2.25-3.371.22-1.268.02-2.34-.59-3.186-.76-1.064-2.16-1.773-4.16-2.105-.32-.057-.64-.084-.96-.11-.3-.025-.62-.055-.92-.103-.31-.052-.62-.128-.92-.203-.3-.077-.62-.158-.94-.211-.1-.018-.21-.029-.31-.024zm-15.91.736c-.11-.002-.23.015-.35.034-.5.075-1 .174-1.48.273-.48.095-.97.196-1.45.266l-.7.103c-.73.108-1.487.219-2.239.233h-.012-.016c-.22.032-.426.067-.539.218-.041.054-.083.147-.064.278.044.304.355.45.916.441.164-.005.466.168.646 1.389l.718 4.807c.11.757.04.934-.23 1.123-.03.021-.06.036-.09.06-.29.105-.707.211-1.046.151-.33.002-.612-.336-.883-.661-.061-.072-.124-.15-.187-.22 0 0-5.058-5.834-5.063-5.836-.171-.188-.318-.303-.473-.258-.233.067-.273.286-.343.683-.003 0-1.424 8.25-1.424 8.247-.043.188-.202.191-.285.234-.067.025-.125.065-.184.1-.056.035-.112.072-.168.095-.037.019-.122-.003-.248-.056-.849-.379-3.019-1.996-3.182-2.211 0 0 .073-.065.137-.129.078-.076.161-.166.237-.264.303-.432.662-1.119.222-2.088-.307-.687-.752-1.145-1.322-1.357-1.011-.384-2.213.053-3.15.474-.248.115-.568.283-.903.463-.369.195-.749.398-1.076.545-.519.231-.851.337-1.094.416-.15.048-.268.083-.385.137-.206.095-.313.185-.359.305-.052.132.003.248.018.291.083.18.252.373.607.277.566-.165.876-.034 1.1.467l2.386 5.289c.113.249.247.706-.109 1.019-.105.094-.384.333-.238.653.07.156.209.243.375.228.112-.006.217-.054.31-.097.24-.11.476-.242.701-.373.224-.133.438-.256.667-.36.224-.1.458-.18.708-.262.247-.085.496-.168.743-.281.437-.194.642-.312.709-.486.032-.084.027-.175-.014-.266-.123-.266-.35-.369-.619-.273-.381.14-.787.204-1.195-.703l-.901-2c-.007-.017-.01-.026-.01-.026.003.004.026-.024.203-.101.309-.143.524-.035.924.265l2.51 1.893c.486.365 1.084.472 1.527.273.087-.04.59-.274 1.02-.586.071.019.193-.001.33-.039.223-.062.432-.154.639-.24.206-.086.397-.17.593-.226.202-.059.409-.095.627-.131.218-.039.444-.073.666-.139.152-.044.311-.091.391-.236.046-.087.052-.186.02-.303-.092-.318-.541-.31-.973-.305l-.137.006c-.14.006-.444.005-.531-.385 0 0-.131-1 .096-1.414.066-.12.143-.191.234-.216l1.895-.553c.601-.178.781-.17.916-.098.168.094.832.989.92 1.281.071.244-.022.483-.229.588l.02-.008c-.28.103-.432.357-.36.606.051.172.252.303.537.221.309-.094.613-.208.903-.323.281-.105.541-.205.798-.281.26-.077.535-.133.829-.191.308-.065.621-.126.935-.217.13-.04.276-.147.276-.147.058.057.192.06.282.069.13.015.29-.009.5-.041.43-.064.87-.154 1.28-.24.42-.089.85-.178 1.27-.245.42-.06.85-.099 1.27-.136.43-.035.87-.076 1.31-.141.66-.099 1.22-.853 1.33-1.492.05-.285.08-.818.04-1.1-.02-.136-.08-.244-.17-.31-.05-.044-.15-.087-.29-.069-.21.033-.31.235-.43.471-.08.161-.18.369-.34.574-.45.593-1.21.972-2.25 1.131-.3.043-.45.035-.53-.029-.11-.081-.19-.312-.26-.766l-.32-2.185c-.02-.133 0-.177.02-.2.03-.052.14-.123.47-.169.71-.108 1.01-.075 1.34.318.06.07.1.168.15.262.08.182.21.432.47.394.13-.021.23-.073.29-.162.1-.14.08-.316.06-.451-.03-.201-.07-.396-.11-.586-.04-.183-.08-.372-.11-.557-.03-.187-.05-.379-.06-.566-.02-.191-.04-.391-.06-.59-.03-.152-.06-.327-.19-.43-.06-.04-.15-.083-.28-.062-.28.04-.34.252-.42.594-.1.447-.51.729-1.23.839-.45.065-.53.02-.55.01l-.33-2.24c-.04-.269-.02-.361 0-.391.01-.016.06-.045.19-.064l.83-.123c1.54-.231 1.75.112 1.9.701.12.443.38.471.53.451.13-.021.23-.073.29-.158.09-.116.08-.253.06-.342-.02-.15-.05-.295-.09-.435-.03-.138-.06-.268-.08-.397-.02-.136-.03-.269-.03-.412-.01-.142-.02-.292-.05-.439-.02-.153-.09-.24-.16-.284-.08-.063-.18-.085-.29-.088zm19.33.844c.11-.016.25-.01.42.018.8.134 1.42.511 1.86 1.121.57.805.79 2.022.58 3.26-.17 1.04-.72 2.009-1.45 2.525-.51.365-1.08.5-1.7.397-.51-.084-.87-.186-1.03-.411-.13-.172-.16-.457-.08-.884l.88-5.303c.07-.425.18-.673.52-.723zm6.58.178c-.06.007-.12.025-.17.055-.07.043-.13.113-.15.203-.08.282.04.51.31.603.53.188.69.492.54 1.053l-1.5 5.606c-.13.497-.34.722-.67.736-.14.001-.51.013-.6.349-.03.137 0 .235.04.293.09.158.27.206.47.26.26.07.52.113.78.156.26.04.5.08.74.145.26.067.51.165.74.256.22.084.42.163.62.215.18.051.38.101.54.115.34.026.44-.152.47-.26.08-.28-.04-.51-.3-.603-.01 0-.77-.302-.56-1.057l1.5-5.602c.13-.478.26-.74.6-.752h.06c.19 0 .58.001.67-.322.03-.134 0-.232-.03-.293-.09-.154-.27-.203-.42-.242-.26-.069-.52-.112-.78-.152-.25-.043-.5-.084-.74-.149-.24-.063-.47-.153-.71-.244-.25-.091-.5-.186-.76-.256s-.5-.135-.69-.113zm4.91 1.621c-.13-.021-.22-.013-.3.024-.09.038-.15.113-.19.218-.05.129-.05.256.01.364.04.107.14.192.26.238.24.086.4.215.47.379.09.182.07.427-.03.715l-1.42 3.808c-.4 1.085-.43 2.03-.07 2.809.39.851 1.21 1.494 2.49 1.97 1.41.527 2.63.566 3.62.124.98-.442 1.75-1.373 2.26-2.756l.95-2.577c.4-1.058.54-1.109.8-1.121.05 0 .1.002.15.002.18.009.45.02.56-.261.03-.089.06-.198.01-.305-.06-.121-.17-.186-.33-.242-.19-.07-.38-.126-.57-.182-.18-.054-.36-.107-.54-.174-.17-.065-.35-.144-.52-.22-.18-.078-.36-.163-.55-.233-.28-.102-.45-.122-.59-.06-.08.041-.15.109-.18.203-.1.271.05.529.39.679.53.232.69.614.48 1.159l-1.14 3.082c-.21.558-.69 1.552-1.6 1.97-.58.262-1.24.257-1.98-.015-.67-.247-1.15-.667-1.4-1.219-.26-.556-.26-1.2-.02-1.861l1.4-3.762c.1-.275.32-.615.79-.662.04-.005.08-.007.11-.008.2-.019.43-.037.52-.273.04-.104.04-.201 0-.288-.05-.12-.17-.205-.39-.287-.25-.093-.51-.162-.76-.228-.26-.063-.5-.127-.73-.211-.23-.086-.45-.198-.69-.313-.23-.115-.47-.23-.72-.324-.24-.089-.42-.141-.55-.162zm-43.147 3.117 1.59 1.766-1.982.535zm53.007.867c-.13.033-.2.139-.25.219-.14.253-.01.449.18.719.04.054.08.112.13.18.22.335.07.916-.18 1.351l-2.44 4.205c-.34.587-.63.753-1.27.729h-.05c-.21-.009-.46-.02-.62.248-.06.105-.08.211-.05.305.04.151.17.228.25.277.21.117.42.213.63.305.21.091.41.177.6.285.18.107.36.236.54.371.18.136.37.278.57.394.4.228.58.088.68-.072.19-.327-.04-.603-.13-.721-.54-.656-.39-1.231-.01-1.892l1.63-2.826-.57 5.992v.021.002c-.01.151-.03.406.2.539.18.105.42.061.72-.131l4.86-3.273.1-.066-2.03 3.441c-.36.635-.44.689-.65.666-.24-.029-.51-.065-.69.238-.05.089-.07.184-.04.276.05.195.26.316.47.437.23.105.46.226.69.342.21.112.44.226.67.33.21.154.43.298.65.438.21.135.43.276.65.437.23.133.62.358.82.012.18-.316 0-.542-.17-.74-.57-.717-.39-1.216.17-2.182l2.3-3.959c.34-.589.5-.556.9-.473l.07.014c.4.074.71.135.87-.139.08-.116.11-.228.09-.324-.02-.08-.07-.144-.14-.189-.17-.1-.35-.188-.52-.272-.17-.085-.35-.171-.51-.267-.16-.093-.32-.201-.48-.305-.16-.108-.32-.22-.5-.32-.19-.113-.34-.056-.6.113 0 0-5.16 3.257-5.15 3.252-.07.037-.12.076-.18.111-.09.056-.06.086-.05-.092 0 0 .03-.407.03-.402 0 0 .46-5.796.46-5.799.01-.306-.12-.44-.37-.588-.17-.101-.35-.189-.53-.273-.16-.084-.34-.173-.5-.264-.16-.094-.32-.204-.48-.307-.16-.107-.33-.22-.5-.324-.04-.018-.14-.081-.27-.049zm-62.042.223c.616.017 1.1.472 1.352 1.027.258.575.329 1.017.203 1.344-.11.295-.39.536-.844.742-.391.178-.543.151-.592.135-.04-.016-.058-.044-.086-.109l-1.047-2.317c-.078-.178-.102-.292-.076-.365.04-.099.181-.202.436-.314.23-.105.449-.148.654-.143zm-5.758 2.34c-.65.023-1.39.29-2.209.795-.3.181-.711.467-1.103.742-.38.265-.742.514-.994.668-.274.171-.624.352-.963.529-.293.153-.569.297-.756.412-.191.122-.315.222-.35.37-.032.142.037.256.061.296.07.113.243.291.598.2.075-.019.144-.038.208-.057.424-.126.636-.19 1.03.451l3.008 4.875c.126.208.294.614-.006 1.014l-.022.031c-.09.121-.281.37-.117.633.094.156.223.189.313.189.105-.003.218-.045.378-.144.254-.156.495-.337.729-.51.227-.171.46-.347.701-.494.24-.148.5-.278.75-.404.26-.132.533-.265.785-.422.312-.191.58-.358.631-.584.024-.089.009-.173-.041-.252-.147-.236-.379-.308-.639-.195-.757.325-1.222.293-1.464-.094l-3.272-5.303c-.051-.085-.042-.17-.031-.227.037-.145.15-.284.318-.386 1.009-.623 1.913-.464 2.469.443.276.446.378.905.287 1.289-.077.33-.296.607-.646.824-.377.232-.535.343-.573.506-.03.123.029.214.047.242.384.623 1.843-.269 1.86-.277.703-.435 1.211-1.136 1.398-1.924.17-.716.053-1.447-.326-2.062-.37-.601-.856-.979-1.44-1.117-.196-.047-.402-.065-.619-.057zm115.32 1.451c-.11.018-.22.059-.35.123 0 0-1.79.919-1.79.92-.05.029-.12.061-.18.094-.16.077-.32.16-.44.236-.13.086-.23.219-.26.371-.04.187.01.384.14.59.33.513.71.395.79.358 1.67-.564 2.09-.082 3.04 1.398.1.159.42.645.37.875 0 .027-.02.113-.21.234l-7.61 4.92c-.73.468-1.14.191-1.74-.328-.15-.131-.29-.247-.44-.344-.01-.011-.04-.043-.08-.072-.13-.131-.5-.477-1.03-.135-.17.113-.28.258-.32.432-.05.28.09.508.2.674.32.49.67.972 1.02 1.437.35.47.71.954 1.03 1.448.32.493.61 1.023.89 1.529.29.507.58 1.035.9 1.527.31.478.66.594 1.05.34.53-.344.37-.818.3-.998-.01-.037-.02-.08-.02-.103-.03-.173-.08-.35-.14-.538-.23-.757-.31-1.248.42-1.718l7.61-4.922c.22-.145.29-.11.34-.086.15.07.35.299.6.687.96 1.478 1.23 2.053.05 3.323-.14.128-.33.415-.02.892.19.309.58.502.89.303.14-.086.27-.199.37-.285 0 0 1.57-1.246 1.57-1.244.6-.472.79-.772.37-1.422-.54-.823-1.12-1.648-1.68-2.446-.57-.808-1.15-1.642-1.69-2.474-.53-.83-1.05-1.694-1.55-2.529-.49-.845-1.01-1.718-1.55-2.559-.26-.397-.52-.56-.85-.508zm-160.9 2.104c-.053-.004-.11-.003-.17.011-.238.059-.389.264-.515.469-.159.263-.298.534-.434.795-.135.263-.261.509-.406.748-.145.241-.304.47-.477.711-.168.243-.341.492-.5.756-.182.301-.341.624-.267.928.042.163.144.297.289.388.417.25.909.092 1.254-.406.467-.685 1.014-.804 1.73-.371l4.264 2.578c.757.456 2.077 1.437 2.433 2.885.224.905.033 1.874-.576 2.873-.537.895-1.282 1.483-2.152 1.695-.874.215-1.809.045-2.703-.496l-5.194-3.146c-.365-.215-.78-.615-.72-1.276.005-.054.016-.108.019-.164.034-.304.079-.716-.304-.945-.164-.1-.331-.131-.495-.088-.281.07-.469.325-.599.545-.215.351-.388.717-.557 1.074-.172.359-.333.696-.525 1.012-.191.317-.415.615-.649.929-.237.317-.485.645-.695.995-.365.603-.533.968-.453 1.291.041.168.148.305.316.408.197.12.412.158.61.105.2-.048.372-.176.49-.375.387-.64.901-.735 1.621-.302l5.266 3.185c1.637.991 3.155 1.27 4.515.832 1.283-.416 2.4-1.436 3.41-3.115 1.207-1.988 1.614-3.826 1.211-5.453-.396-1.606-1.569-3.008-3.496-4.172l-3.558-2.15c-1.474-.892-1.447-1.086-1.401-1.409.01-.066.03-.136.043-.211.065-.276.173-.738-.271-1.009-.067-.039-.194-.114-.354-.125zm169.38 11.382c-.09-.002-.19.015-.3.063-.47.206-.58.752-.33 1.627.04.131.03.614-1.72 1.377l-6.76 2.933c-1.01.444-1.28.421-1.63.118-.04-.034-.08-.067-.12-.102-.29-.25-.69-.597-1.16-.391-.64.28-.37.91-.13 1.465.26.613.57 1.209.86 1.791.29.569.59 1.16.85 1.748.26.59.48 1.21.7 1.809.22.611.45 1.246.72 1.857.43 1.003 1.79 1.514 2.79 1.42.45-.032 1.26-.203 1.66-.381.22-.088.37-.235.44-.418.05-.113.08-.301-.02-.527-.15-.345-.5-.412-.92-.496-.27-.049-.6-.115-.95-.264-1.02-.418-1.86-1.366-2.49-2.816-.16-.379-.22-.589-.17-.709.08-.218.6-.457.98-.621l3.06-1.332c.08-.038.19-.073.23-.057s.17.099.38.576c.43.989.49 1.39.07 1.993-.08.103-.19.206-.31.306-.24.206-.61.522-.42.949.09.208.23.348.41.418.28.113.56-.007.76-.093.28-.122.55-.261.81-.397.26-.135.51-.26.77-.373.26-.112.52-.207.8-.305.27-.101.56-.201.84-.326.22-.097.5-.216.61-.494.04-.11.07-.288-.02-.508-.19-.44-.55-.46-1.13-.441-.65.035-1.24-.421-1.62-1.412-.15-.409-.15-.674-.14-.709 0 .021 3.01-1.324 3.01-1.324.39-.169.49-.158.51-.151-.01 0 .04.03.11.201l.5 1.164c.91 2.094.52 2.507-.24 2.94-.68.397-.57.876-.49 1.064.09.212.23.351.4.418.27.105.51-.004.6-.039.21-.094.41-.2.61-.31.18-.1.36-.2.54-.274.18-.08.37-.144.57-.211.21-.07.43-.14.64-.234.25-.108.35-.273.41-.397.12-.336-.03-.696-.18-1.043-.31-.7-.65-1.392-.98-2.058-.33-.658-.67-1.339-.96-2.014l-.42-.978c-.45-1.029-.9-2.091-1.22-3.18l-.01-.025-.01-.026c-.14-.311-.27-.637-.58-.756-.06-.023-.13-.042-.21-.045zm-105.49 6.274-1.455 17.473.273.037c3.759.521 5.651.269 8.701-.526 3.22-.69 6.06-1.065 8.1 1.227-.18.08-.35.169-.52.273-2.56-2.325-5.74-1.578-8.54-.906-.6.143-1.19.283-1.77.393-1.284.257-4.429.37-6.916-.079l1.537-16.929-.582-.055-.068.748-1.506.233-.133 1.195h-1.928l-.592 4.295 2.041.041-.572 5.191h-2.205l-.615 4.488 2.318.047-.371 3.366 18.542-.528c.99 1.134 3.2 1.391 3.46 1.416l.05-.474.05.476c.26-.026 2.47-.283 3.46-1.416l18.54.528-.37-3.366 2.47-.049-.62-4.488h-2.35l-.57-5.187 2.18-.045-.59-4.295h-2.07l-.09-.83-.05-.365-1.5-.233-.07-.746-.58.053 1.54 16.929c-2.49.449-5.64.341-6.92.081-.58-.11-1.17-.251-1.76-.393-2.8-.668-5.95-1.411-8.5.855-.16-.103-.34-.194-.52-.271 2.03-2.241 4.85-1.864 8.04-1.182 3.06.797 4.95 1.045 8.71.528l.28-.037-1.46-17.473-.59.049 1.41 16.918c-3.63.475-5.4.177-8.21-.555-3.48-.745-6.54-1.132-8.78 1.545-.3-.074-.61-.113-.93-.117-.02-.001-.04-.002-.07-.002-.38 0-.76.057-1.12.158-2.25-2.726-5.32-2.331-8.83-1.582-2.8.73-4.562 1.029-8.203.551l1.41-16.916zm12.509.381c-1.15-.047-2.34.036-3.03.244l-.58.18c-1.17.375-2.63.839-5.01.839v.959c2.53 0 4.07-.491 5.31-.884l.55-.176c1.23-.366 4.31-.243 5.09.201l.47-.83c-.54-.31-1.65-.487-2.8-.533zm9.48 0c-1.15.046-2.26.222-2.8.533l.48.83c.77-.444 3.86-.565 5.07-.201l.57.178c1.23.393 2.77.882 5.3.882v-.959c-2.38 0-3.84-.462-5.01-.837l-.58-.182c-.69-.208-1.88-.291-3.03-.244zm-9.55 1.447c-1.18-.045-2.4.041-3.09.25l-.59.184c-1.17.373-2.63.837-5.01.837v.959c2.53 0 4.06-.489 5.3-.882l.57-.182c1.22-.365 4.44-.25 5.22.191l.47-.832c-.54-.306-1.68-.48-2.87-.525zm9.62 0c-1.18.044-2.33.217-2.87.525l.47.832c.78-.441 4-.558 5.22-.191l.57.18c1.24.393 2.77.884 5.3.884v-.959c-2.38 0-3.84-.462-5.01-.837l-.58-.184c-.7-.208-1.92-.294-3.1-.25zm-23.389.813-1.428 15.726.26.053c2.596.519 6.028.402 7.407.127.58-.111 1.18-.253 1.78-.397 2.76-.659 5.62-1.329 7.94.692-.12.095-.22.195-.32.302l-.09-.132-17.948.511 1.854-16.798zm37.159 0 .55.084 1.85 16.798-17.95-.509-.04.058c-.09-.102-.19-.197-.3-.287 2.31-1.956 5.13-1.287 7.87-.635.61.144 1.2.287 1.78.399 1.39.275 4.81.392 7.41-.129l.26-.051zm-23.4.658c-1.19-.056-2.41.014-3.08.215l-.6.187c-1.17.371-2.63.834-5 .834v.959c2.52 0 4.06-.488 5.29-.879l.58-.182c1.17-.351 4.44-.2 5.22.243l.47-.832c-.54-.307-1.69-.489-2.88-.545zm9.64 0c-1.19.056-2.34.238-2.88.545l.47.832c.81-.455 4.02-.605 5.22-.243l.58.182c1.23.391 2.77.879 5.29.879v-.959c-2.37 0-3.83-.461-5-.834l-.59-.185c-.67-.202-1.9-.273-3.09-.217zm-26.364.373h1.352l-.35 3.162-1.434-.029zm41.734 0h1.5l.43 3.133-1.58.031zm-15.3 1.062c-1.23.054-2.42.233-2.95.537l.47.834c.79-.448 4.14-.597 5.36-.234l.56.176c1.23.395 2.77.888 5.31.888v-.959c-2.39 0-3.85-.466-5.02-.841l-.58-.182c-.67-.201-1.93-.273-3.15-.219zm-9.77.002c-1.23-.054-2.49.018-3.16.219l-.57.178c-1.18.376-2.63.843-5.024.843v.959c2.544 0 4.074-.494 5.314-.89l.55-.172c1.21-.363 4.57-.216 5.36.232l.47-.834c-.53-.303-1.72-.481-2.94-.535zm-.02 1.438c-1.23-.055-2.49.016-3.17.22l-.59.188c-1.17.372-2.63.834-4.999.834v.959c2.519 0 4.059-.488 5.289-.879l.58-.182c1.18-.36 4.6-.212 5.38.235l.47-.834c-.53-.306-1.73-.487-2.96-.541zm9.8 0c-1.23.054-2.42.235-2.96.541l.47.834c.78-.443 4.19-.595 5.38-.235l.58.182c1.23.391 2.77.879 5.29.879v-.959c-2.37 0-3.83-.462-5-.834l-.59-.186c-.68-.204-1.94-.277-3.17-.222zm-9.86 1.437c-1.26-.053-2.57.021-3.25.227l-.57.179c-1.17.375-2.63.842-5.018.842v.959c2.538 0 4.078-.492 5.308-.888l.56-.174c1.2-.355 4.75-.211 5.52.224l.47-.832c-.53-.302-1.75-.483-3.02-.537zm9.92.004c-1.26.053-2.49.231-3.02.533l.47.832c.77-.438 4.33-.584 5.52-.226l.56.176c1.24.396 2.77.888 5.31.888v-.959c-2.39 0-3.84-.467-5.01-.842l-.58-.179c-.68-.203-1.98-.276-3.25-.223zm89.7.174c-.08-.015-.18-.016-.29.014-.39.102-.47.474-.56.869 0 0-.05.209-.05.217-.15.73-.7 1.459-1.16 2.011l-3.5 4.135s-4.17-2.091-4.17-2.094c-.46-.222-1.66-1.075-2.09-1.558l-.05-.057c-.24-.261-.51-.557-1.02-.426-.22.058-.35.197-.41.297-.16.29-.08.63.01.959.09.351.22.689.35 1.014.12.32.24.622.32.935.08.307.13.626.18.965.04.346.09.705.19 1.055.04.19.1.402.2.574.17.298.46.426.76.346.7-.183.66-1.007.65-1.276-.03-.647.17-.754.4-.814.14-.035.43-.02 1.03.248 0 .002 2.53 1.201 2.53 1.201s-2.42 2.892-2.43 2.91c0-.011.01-.019.01-.019-.03.032-.18.115-.33.154-.13.033-.23.01-.33-.076-.01-.02-.03-.058-.05-.088-.13-.207-.43-.695-1.05-.531-.16.037-.29.134-.37.273-.19.315-.08.755.05 1.219.1.399.25.782.38 1.154.14.369.27.716.36 1.076s.15.725.21 1.118c.06.391.13.794.23 1.191.14.528.35 1.323 1.02 1.147.55-.143.62-.781.66-1.12v-.041c.06-.438.46-1.173 1.09-1.955l3.82-4.572 4.17 2.16c1.08.559 1.14.632 1.76 1.539.36.524.77.508.98.453.24-.061.37-.197.43-.304.16-.267.08-.572.01-.817-.09-.351-.22-.688-.35-1.013-.12-.324-.23-.625-.32-.934-.08-.309-.13-.628-.17-.967-.05-.346-.1-.706-.19-1.058-.06-.244-.14-.549-.41-.705-.11-.063-.28-.123-.52-.063-.43.113-.65.427-.64.932.01.061.01.126.01.191.05.566 0 .678-.16.721-.16.039-.57-.028-1.2-.356l-2.25-1.197 2.09-2.383c.29-.333.4-.399.49-.418.01-.003.01-.004.01-.004s.07.02.18.205c.13.234.42.727 1.02.571.23-.056.34-.195.4-.295.17-.29.08-.633 0-.94-.1-.41-.25-.81-.39-1.193-.14-.391-.28-.791-.39-1.207s-.18-.836-.25-1.246c-.06-.405-.13-.825-.24-1.233-.08-.303-.17-.652-.45-.82-.05-.029-.12-.059-.21-.074zm-89.66 1.25c-1.27.025-2.5.179-3.06.496l.47.832c.76-.43 4.25-.514 5.51-.133l.58.18c1.24.391 2.77.879 5.29.879v-.957c-2.37 0-3.83-.464-5-.836l-.59-.186c-.65-.197-1.94-.3-3.2-.275zm-10 .002c-1.26-.025-2.55.078-3.2.273l-.59.186c-1.17.372-2.63.836-5 .836v.957c2.52 0 4.05-.488 5.29-.879l.58-.182c1.26-.377 4.76-.292 5.51.135l.47-.832c-.55-.317-1.79-.469-3.06-.494zm-89.845.254c-.093.015-.17.046-.228.08-.309.18-.413.56-.51.928-.196.736-.356 1.492-.51 2.22-.15.719-.308 1.462-.496 2.176l-.281 1.031c-.29 1.08-.589 2.196-1.02 3.248l-.008.024-.005.025c-.089.328-.178.673-.014.953.06.105.177.242.406.301.501.135.932-.225 1.274-1.066.051-.127.359-.502 2.207-.008l7.119 1.891c1.067.286 1.265.474 1.353.927.009.048.019.099.028.153.07.376.167.891.664 1.023.682.18.855-.479 1.015-1.064.168-.645.304-1.306.43-1.942.131-.626.261-1.272.424-1.892.164-.623.376-1.253.576-1.858.206-.617.416-1.256.584-1.898.281-1.058-.462-2.309-1.307-2.854-.375-.255-1.109-.623-1.535-.734-.229-.061-.436-.042-.603.057-.113.062-.252.187-.319.425-.093.365.145.641.416.963.178.205.398.463.59.801.538.962.604 2.226.197 3.75-.103.4-.196.596-.308.66-.196.118-.75-.01-1.153-.115l-3.224-.858c-.085-.023-.192-.061-.215-.105-.019-.034-.074-.18.061-.684.281-1.04.476-1.395 1.181-1.605.121-.033.28-.041.43-.047.319-.015.795-.034.916-.488.061-.219.038-.413-.055-.576-.155-.264-.444-.345-.654-.401-.295-.079-.595-.134-.885-.193-.289-.056-.559-.112-.832-.182-.27-.075-.536-.162-.812-.256-.28-.092-.571-.191-.866-.271-.233-.06-.524-.14-.785.01-.103.061-.239.179-.301.408-.121.467.146.705.614 1.047.528.375.711 1.101.388 2.111-.131.414-.3.62-.328.643.014-.012-3.177-.828-3.177-.828-.413-.11-.484-.178-.493-.192 0 0-.01-.053.037-.234l.329-1.225c.583-2.202 1.148-2.284 2.009-2.156.785.12.991-.329 1.047-.527.056-.22.043-.417-.054-.579-.142-.242-.404-.314-.493-.336-.225-.061-.448-.098-.668-.134-.21-.039-.408-.072-.599-.123-.191-.052-.379-.117-.574-.19-.212-.075-.425-.156-.649-.215-.129-.033-.24-.035-.334-.019zm88.915 1.222c-.97-.016-1.88.044-2.41.204l-.57.181c-1.17.374-2.63.84-5.019.84v.959c2.539 0 4.069-.492 5.309-.887l.56-.175c1.26-.375 4.99-.085 5.74.349l.48-.832c-.64-.366-2.46-.611-4.09-.639zm11.86.002c-1.62.029-3.45.272-4.09.637l.48.832c.75-.434 4.48-.724 5.74-.349l.56.173c1.24.397 2.77.889 5.31.889v-.959c-2.39 0-3.85-.465-5.02-.84l-.57-.181c-.53-.159-1.43-.218-2.41-.202zm-11.99 1.401c-.99-.011-1.9.056-2.44.217l-.6.187c-1.17.371-2.62.834-4.991.834v.959c2.521 0 4.051-.488 5.281-.879l.59-.183c1.24-.377 5.07-.107 5.81.312l.47-.832c-.64-.364-2.48-.597-4.12-.615zm12.13 0c-1.65.018-3.49.251-4.13.615l.47.832c.74-.419 4.57-.69 5.82-.31l.58.179c1.23.391 2.76.881 5.28.881v-.959c-2.37 0-3.83-.465-5-.836l-.59-.183c-.54-.163-1.45-.23-2.43-.219zm-28.942 1.279h1.627l-.371 3.361-1.713-.033zm44.122 0h1.77l.46 3.328-1.86.037zm-21.17 5.227h.06c.96.014 1.83.426 2.46 1.111-.7.573-2.02.838-2.6.904-.55-.063-1.82-.316-2.53-.857.68-.731 1.61-1.158 2.61-1.158zm-59.728.273c-.189.046-.316.241-.445.445l-.047.071c-.177.28-.612.337-1.029.388-.096.014-.195.024-.287.038 0 0-7.636 1.117-7.643 1.117-.25.047-.429.106-.47.259-.07.234.092.388.384.663.003 0 6.18 5.647 6.18 5.647.145.13.235.24.313.47.013.04.028.11.037.18.038.19.09.46.345.54.383.11.489-.25.534-.4.065-.22.105-.45.142-.67.036-.217.068-.42.129-.621.056-.199.14-.39.225-.592.088-.208.179-.415.244-.64.047-.154.093-.308.013-.453-.046-.087-.13-.145-.248-.18-.313-.096-.546.287-.775.654l-.072.115c-.129.205-.302.414-.52.313 0 0-1.003-.501-1.228-.912-.065-.123-.083-.225-.057-.317l.557-1.892c.177-.604.278-.752.408-.824.174-.095 1.286-.171 1.572-.082.249.07.4.277.377.511l.004-.029c-.065.295.067.562.314.637.099.027.207.003.295-.063.082-.057.146-.153.182-.273.091-.31.155-.63.219-.936.057-.292.114-.567.191-.824.078-.26.177-.522.287-.801.113-.29.227-.593.319-.904.046-.155.088-.301.013-.44-.047-.086-.131-.148-.25-.185-.08-.023-.149-.025-.213-.01zm125.61 2.848c-.36.026-.73.086-1.12.178-1.19.276-2.14.947-2.75 1.933-.66 1.058-.87 2.376-.58 3.625.65 2.774 3.16 3.674 3.61 3.574.12-.03.2-.09.25-.17.03-.05.06-.13.04-.25-.06-.25-.31-.39-.51-.5-.04-.03-.08-.04-.11-.07-.89-.55-1.54-1.41-1.75-2.29-.14-.603-.02-1.229.34-1.819.53-.843 1.49-1.497 2.59-1.754 2.32-.543 3.65.037 4.05 1.767.24 1.055-.24 2.216-1.38 3.256 0 .01-.02.02-.03.03-.15.13-.39.35-.33.59.05.25.34.32.58.26.1-.02.22-.07.36-.13.09-.04.19-.08.29-.11 0 0 1.66-.59 1.68-.6.17-.07.25-.23.21-.41-.07-.3-.28-.36-.41-.39-.1-.03-.11-.04-.11-.08-.02-.07.01-.3.04-.52.08-.577.2-1.449-.02-2.407-.32-1.343-1.06-2.429-2.09-3.071-.81-.505-1.76-.721-2.85-.642zm-130.29.703-.578 1.969-1.768-1.565zm-33.756 1.467c-.244-.022-.408.064-.502.144-.239.196-.261.499-.285.744-.043.408-.036.818-.031 1.213.005.394.009.767-.03 1.137-.032.372-.102.732-.177 1.122-.074.39-.152.79-.19 1.2-.051.57-.099 1.07.149 1.37.107.12.248.2.412.21.491.05.845-.22.925-.69.108-.67.379-1.09 1.332-1l2.684.24c.089.01.127.03.127.04.009 0 .074.09.031.52l-.381 4.21c-.018.22-.081.28-.089.29-.024.02-.08.03-.155.02l-2.683-.25c-.384-.03-1.044-.19-1.18-.83-.048-.23-.168-.82-.766-.88-.243-.02-.402.07-.496.15-.244.2-.266.5-.289.74-.037.41-.033.82-.033 1.22.005.39.01.76-.027 1.13-.033.37-.103.74-.178 1.13-.075.38-.154.78-.192 1.19-.052.57-.098 1.07.155 1.37.102.13.241.2.406.21.489.05.845-.21.924-.69.112-.66.378-1.09 1.328-1l8.754.8c.382.04 1.048.19 1.183.83.043.23.163.82.762.88.701.06.767-.65.785-.89.043-.41.037-.81.034-1.21 0-.4-.006-.77.027-1.14.037-.37.103-.73.183-1.12.076-.39.15-.79.188-1.2.051-.57.097-1.07-.15-1.37-.103-.12-.247-.19-.411-.21-.491-.05-.844.22-.927.69-.108.67-.378 1.09-1.328 1.01l-4.03-.42s.486-5 .51-5.05c-.005.01 3.986.39 3.986.39.379.03 1.04.19 1.176.83.046.22.167.82.766.87.697.07.768-.65.787-.88.041-.41.036-.82.031-1.22-.005-.39-.008-.77.029-1.14.034-.37.103-.73.178-1.11.075-.393.154-.793.192-1.204.051-.57.098-1.066-.151-1.365-.107-.126-.246-.199-.41-.217-.491-.046-.848.221-.928.694-.107.666-.377 1.088-1.326 1l-8.76-.799c-.593-.057-1.088-.404-1.173-.834-.047-.224-.167-.82-.766-.875zm47.191 1.722v1.918h101.92v-1.918zm-19.859 1.643c-.121-.016-.22.004-.299.066-.126.097-.142.249-.158.349-.029.23-.031.47-.031.7-.003.22-.007.44-.034.65-.025.22-.081.42-.134.65-.054.22-.108.45-.137.69-.026.19-.053.42.068.58.059.07.145.12.248.13.369.05.538-.42.664-.76.207-.57.735-.61 1.704-.49l3.009.36s-6.012 4.52-6.004 4.51c-.196.14-.271.28-.312.6-.024.2-.035.4-.049.59-.009.19-.017.39-.045.57-.021.19-.057.38-.094.56-.035.19-.073.39-.099.58-.006.07-.02.18.055.28.077.1.208.13.296.14.295.03.422-.17.594-.45.033-.05.075-.12.117-.19.224-.33.844-.46 1.317-.39l4.822.6c.651.08.926.3 1.17.93l.014.04c.072.19.162.43.468.47.225.03.334-.08.377-.15.057-.08.072-.18.08-.26.028-.23.033-.47.036-.7.002-.23.003-.44.033-.66.026-.21.077-.42.129-.64.056-.22.112-.45.142-.69.026-.2.056-.45-.082-.63-.066-.09-.159-.14-.275-.15-.333-.05-.443.29-.52.54-.033.09-.06.19-.097.27-.21.46-.581.63-1.194.55l-4.652-.58.435-.32s6.305-4.79 6.307-4.79c.608-.47.789-.66.813-.84.016-.12-.032-.2-.067-.25-.105-.14-.298-.2-.795-.26l-6.166-.78c-.657-.08-.929-.29-1.168-.91l-.017-.05c-.073-.19-.163-.428-.469-.465zm156.74.375c-.21.01-.37.09-.49.22-.19.21-.18.5-.17.72.03.35.09.7.15 1.03s.11.64.13.95 0 .62-.02.95c-.02.34-.04.69-.02 1.05.02.27.06.92.76.87.57-.03.72-.73.86-1.4l.05-.21c.06-.31-.03-.43.39-.64s1 .07 1.56.27c.55.21.89.48.9.74l.18 2.98c.06.92-.01 1.17-.14 1.32-.2.21-1.7.87-2.14.89-.28.02-.61-.12-.7-.46l.01.05c-.06-.5-.43-.85-.87-.82-.16 0-.3.08-.41.2-.1.11-.2.3-.18.62.02.49.1.98.16 1.45.07.44.13.86.15 1.27.03.4.02.83.01 1.27-.01.48-.03.97 0 1.47.02.26.06.89.76.85.58-.03.69-.54.81-1.03l.02-.12c.11-.45.65-.72 1.22-1.02.13-.06.27-.13.4-.2 0 0 10.31-5.51 10.33-5.52.36-.21.59-.41.58-.69-.02-.43-.39-.59-.95-.83l-11.7-4.88c-.27-.11-.43-.21-.65-.48-.04-.06-.09-.14-.14-.23-.16-.26-.4-.66-.85-.64zm-58.87.5c-.78 2.73-.78 6.25 1.96 7.42l.12-.26.8.35c.93.41 1.56.81 2.06 1.35-.34-1.07-1.1-2.07-1.92-3.11l-1.85-2.76.53-.25 1.79 2.65c.66.84 1.33 1.7 1.77 2.63-.02-.29-.03-.49-.03-.49v-.48c0-.93-.05-1.83-.43-3.06l.28-.08c-.78-2.35-3.51-2.35-5.08-3.91zm1.96 7.42c-.25.06-.41.18-.6.28 1.96 1.05 3.41 2.23 4.44 3.61-.1-.26-.19-.55-.26-.9l-.15.04c-.47-1.4-1.18-1.72-2.75-2.4l-.8-.36zm-63.136-5.22c-.541.01-.968.41-.992.92-.077 1.57-.393 2.35-1.174 3.52-.39.78-.65 1.82 0 3.13l.156-.25c1.335.85 1.845 1.98 2.03 2.93.212-.42.467-.79.748-1.13l-.438.31c-1.186-1.65-1.39-3.27-1.076-4.06l.338-.64c.328-.57.669-1.15.494-2.19l.576-.1c.21 1.26-.218 1.99-.562 2.58l-.301.57c-.215.54-.123 1.91 1.002 3.49.335-.41.705-.75 1.094-1.08l-1.194-1.34.166-.2c.553-.64 1.402-2.08.848-4.43l.299-.07c-.285-.55-.76-1.47-1.445-1.82-.196-.1-.388-.14-.569-.14zm6.457.18c-1.391.07-3.336 1.24-4.15 1.88.11.52.176 1.01.176 1.45 0 1.52-.564 2.51-1.032 3.11.213.24.899 1.01.899 1.01l-.135.13c.183-.14.361-.3.549-.42l-.137.02c-.591-3.09 1.88-4.91 2.969-5.55l.297.51c-.959.56-3.089 2.13-2.705 4.75.198-.13.4-.27.593-.38.944-.56 1.763-1.04 1.987-1.58l.273.11c0-1.17 3.123-3.51 1.561-4.69-.279-.28-.681-.37-1.145-.35zm99.029.31c-.3.03-.46.22-.45.51.02.56-.2.82-.78.89l-5.76.67c-.51.06-.8-.05-.93-.35-.05-.13-.2-.46-.55-.42-.14.01-.21.08-.26.13-.11.14-.09.34-.06.54.03.27.08.53.14.78.05.26.11.5.14.75.03.26.03.53.03.78.01.24.01.45.03.65.05.44.11.94.51.89.29-.03.46-.22.45-.5 0-.01 0-.82.77-.91l5.76-.67c.5-.06.79-.03.93.28 0 .01.01.03.01.05.08.18.22.54.55.51.14-.02.22-.09.26-.14.11-.14.09-.33.07-.48-.03-.27-.09-.52-.14-.78-.06-.26-.11-.5-.14-.75-.03-.24-.03-.49-.03-.75-.01-.26-.01-.53-.04-.79-.05-.36-.08-.68-.26-.82-.08-.06-.16-.08-.25-.07zm-38.5.66c.16.91.23 1.66.23 2.29 0 .49-.04.93-.06 1.36l-.02 2.16c.15 1.63.4 2.18.98 3.02.3-1.55.14-3.31-.06-4.72l.58-.08c.21 1.51.39 3.43.03 5.11.47-.42.65-.7 1.24-1.88l.2.1c-.11-1.11.55-2.51-.33-3.68-.72-1.44-1.47-2.85-2.79-3.68zm59.08 1.1 3.16 1.31-3.03 1.59zm-91.9.84s-5.02 15.41-5.14 15.8h-16.827s13.377 9.95 13.707 10.2c-.12.37-4.55 13.78-5.05 15.32-.531-.62-1.245-.83-2.317-.11-.292.19-.292 1.85-.388 2.35l.289-.04c.216 2.16.974 3.66 2.796 5.39-.78-1.61-1.296-3.55-1.296-5.1h.586c0 1.49.53 3.43 1.3 4.98 0-.72.07-1.44.17-2.29l.16-1.41.29.03c-.39-.99-.72-2.42-1.28-3.37 1.07-.79 12.67-9.3 12.99-9.53.32.23 11.96 8.78 13 9.55-.73.74-1.23 1.76-2.22 2.55l.31.11c-.16.43-.21.86-.21 1.31 0 .65.12 1.31.23 1.97.1.56.19 1.09.21 1.6 1.03-1.54 1.34-3.24 1.48-4.87l.58.05c-.14 1.74-.48 3.56-1.63 5.24 1.39-.86 3-2.17 3.27-3.5l.29.06c-.79-1.17-.4-3.91.78-5.47-1.32-.14-2.13.15-2.74.64-.43-1.32-4.92-15.09-5.04-15.46.32-.25 13.58-10.2 13.58-10.2h-16.86c-.13-.39-5.02-15.8-5.02-15.8zm15.3 46.29.28.06c-.24 1.21-1.34 2.29-2.41 3.09l.67-.14c.45-.06.89-.13 1.3-.22l.09-.19c.51-1.02.55-1.41.55-2.96-.14.09-.31.19-.48.36zm-27.02-1.17.29.03-.16 1.42c-.22 1.84-.35 3.09.44 4.61.22-.45.53-1.1.87-1.79l-.35.12c-.23-.7-.09-1.51.04-2.29l.14-1.87.59-.08-.15 2.05c-.11.62-.17 1.19-.09 1.7.81-1.68 1.69-3.49 1.68-3.47.2-.58.96-1.09 1.76-1.17h.06c-.55-.17-1.12-.39-1.6-.82-.66-.59-1.57-1.57-2.74-.79-.78.39 0 1.57-.78 2.35zm-4.295-1.56c-.78-1.57-.393-3.52-1.955-4.7-1.173-.78-1.172.79-1.954 1.57l.289.06c-.86 4.29 1.207 6.61 3.092 7.8l-.035.05c.199.08.386.17.578.25-1.555-1.97-2.242-4.54-2.517-6.02l.576-.11c.309 1.65 1.131 4.71 3.166 6.61l-.09.1c.467.28.903.58 1.285.92.53.06 1.04.21 1.52.44-.01-.03-.04-.08-.05-.11-2.858-2.35-3.921-4.07-4.196-6.84zm-3.909-3.13c-1.171-1.17-.001-3.52-1.562-4.3-1.175-.39-1.563 0-1.955 1.17l.283.08-.215.73c-.285.96-.586 1.96-.586 2.94 0 1.2.527 2.35 2.047 3.31-.514-1.95-.517-2.93-.517-5.23h.585c0 2.34.001 3.22.512 5.13l-.525.14c.059.04.092.08.156.11.243-.11 1.172-.54 1.422-.66-.18-1-.198-2.14.07-3.48zm-3.517-3.13c-.781-1.56.393-3.51-1.561-4.69-.39 0-.782 0-1.172.39l.223.2c-1.496 1.74-1.486 3.21-1.103 6.15l-.081.01c.559.24 1.074.6 1.612 1.05-.414-1.67-.388-2.71-.16-5.09l.584.06c-.262 2.72-.257 3.58.377 5.74.067.06.139.13.209.2-.062-1.18.277-2.37.58-3.38l.211-.72zm-2.733-4.3c-.783-1.95.782-6.25-2.345-5.47-1.425.36-1.879 2.34-2.537 4.17l.226-.01c.068 1.39.553 1.93 1.026 2.46.422.48.86.97.865 1.8l.463.46c-.559-2.21-.325-3.91-.075-5.54l.135-.9.58.08-.136.91c-.253 1.65-.51 3.35.119 5.58.04-1.41.42-2.52 1.459-3.73zm-1.945-30.35c-.414.52-1.139.96-1.965 1.45-1.422.84-3.181 1.89-3.871 3.75-.077.58-.285 2.15-.42 3.15.255-.44.544-.83.862-1.15l-.073-.02c.625-2.02 1.765-3.5 3.489-4.53l.298.5c-1.328.8-2.262 1.9-2.877 3.33.723-.49 1.564-.87 2.579-1.28l.298-.12.11.27c1.787-1.08 1.615-3.46 1.57-5.35zm-1.57 5.35.109.27-.299.12c-2.68 1.09-4.026 1.64-4.869 4.89l-.021-.01c.009.38.084.73.166 1.1.093.41.188.86.199 1.39.267-.46.561-.87.891-1.23l-.372-.08c.412-2.06.982-2.62 2.575-3.95l.375.46c-1.413 1.17-1.909 1.7-2.272 3.22.704-.69 1.467-1.21 2.106-1.62l1.203-.86.209.2c.78-.78 1.17-1.95 1.17-3.12-.782 0-.781-.4-1.17-.78zm57.579-5.29c-.62.58-.76 1.45-.49 2.55.4 1.95 1.96 3.52 3.52 4.69l.14-.26 1.33.45c.38.08.71.19 1 .38-.31-.37-.77-.85-1.21-1.31l-2.54-2.87.48-.34 2.48 2.8c.54.57.96 1 1.25 1.34-.59-3.22-2.38-5.47-6-7.36zm3.03 7.24c-2.4 1.03-2.39 4.16-1.83 6.5l.31-.23 2.07 1.98c.73.6 1.45 1.23 1.99 1.86-.27-.9-.82-1.94-1.36-2.95l-1.06-2.09.54-.24 1.03 2.05c.77 1.41 1.46 2.75 1.56 3.92.14-.14.26-.28.33-.34-.45-1.03-.51-2.08-.53-3.11-.02-.96-.04-1.88-.39-2.75-.37-.92-.86-1.31-1.48-1.81-.62-.49-1.32-1.05-2.02-2.25l.51-.3c.65 1.11 1.27 1.61 1.88 2.1.63.5 1.23.98 1.65 2.04.39.97.41 1.98.43 2.95.02.8.04 1.56.24 2.3.23-1.28.21-2.09.06-4.04h-.02l-.08-.21c-.3-.73-.46-1.39-.54-2.01h-.06c-.38-2.28-.95-2.4-1.89-2.61l-1.48-.51zm41.16-6.89c-.29 0-.37.19-.43.32-.02.03-.03.07-.05.11l-.06.09c-.11.22-.25.48-.71.69l-7.14 3.25c-.38.17-.68.31-.68.65 0 .27.13.47.82.79l6.32 2.87.18.07c.64.29.94.42 1.17.66.09.09.13.19.18.27.08.14.18.32.42.32.14 0 .23-.05.28-.11.12-.12.12-.28.12-.38 0-.23-.03-.46-.06-.68s-.05-.43-.05-.64c0-.2.02-.41.05-.63.02-.22.05-.45.05-.68 0-.1 0-.26-.11-.37-.08-.08-.17-.11-.29-.11-.28 0-.39.22-.48.39-.09.16-.15.33-.2.48-.05.16-.1.31-.18.4-.04.04-.1.1-.34.1-.16 0-.43-.11-.72-.24l-3.99-1.79.29-.13 4-1.8.11-.04c.18-.09.39-.19.55-.19.29 0 .4.04.46.28.04.21.14.56.49.56.11 0 .2-.04.27-.11.13-.13.14-.33.14-.41 0-.3-.03-.6-.06-.89-.02-.28-.05-.57-.05-.85s.02-.58.05-.85c.02-.3.05-.59.05-.89 0-.15 0-.29-.11-.41-.07-.06-.17-.1-.29-.1zm-110.2.95c-.069.01-.126.03-.168.08-.499.83-.758 1.87-.922 2.93l.313-.44.51.36c.832.58 1.769 1.27 2.498 2.14-.197-.93-.584-2-1.448-3.01l.446-.39c1.34 1.56 1.649 3.28 1.761 4.43l-.056.01c.1.2.186.4.257.61l.387-2.93h-.011c0-.85-.507-2.17-1.938-3.07l.119-.19c-.228-.01-1.267-.61-1.748-.53zm75.159 1.19c-.26.03-.31 1.23-.65 1.23l.29.05-.85 2.24h.01c-.53 1.09-1.1 2.27-1.1 3.76 0 .43.08.91.2 1.4.16-.48.43-.93.72-1.39.42-.65.85-1.32.96-2.19l.58.08c-.13 1-.61 1.76-1.04 2.43-.45.71-.84 1.31-.78 2.06v.02c1.41-.15 1.6-.25 2.77-1.26l.47-.4c1.08-2.58-.01-5.44-1.45-7.97-.05-.05-.09-.07-.13-.06zm-.65 1.23c-.14-.14-.25-.3-.32-.47-.61 1.21-.71 1.32-1.64 2.07l-.25.19-.38-.54c-.02-.02-.03-.04-.04-.05.37.8.63 1.67.78 2.63.22-.65.5-1.25.77-1.79l.79-2.09zm-99.946.08c-.293.01-.48.17-.498.46 0 0-.084.81-.866.82l-5.799.08c-.495 0-.781-.06-.888-.39-.004-.01-.009-.02-.014-.04-.054-.19-.16-.57-.492-.56-.14 0-.223.05-.273.11-.123.12-.118.31-.118.46.003.27.033.53.061.79.032.26.057.51.06.76.005.24-.019.49-.041.75s-.048.52-.043.8c.004.36.01.67.172.84.067.06.15.09.239.09.295 0 .482-.17.502-.46.032-.56.285-.8.865-.81l5.799-.07c.512-.01.788.13.888.44.045.14.154.49.504.49.403-.01.397-.41.393-.65-.003-.26-.033-.53-.061-.79-.03-.26-.057-.5-.062-.75-.004-.26.022-.53.049-.79.018-.22.039-.44.037-.64-.005-.36-.01-.68-.174-.85-.065-.06-.149-.09-.24-.09zm24.337.57c-.215 1.41-.236 2.88-.236 4.04l.17-.24.455.33c.788.56 1.564 1.15 2.233 1.83-.265-1.17-.661-2.06-1.426-3.47l.517-.28c.898 1.67 1.32 2.61 1.596 4.12l-.291.05c.54.64.968 1.37 1.217 2.23-.018-.44-.104-.82-.188-1.2-.15-.66-.275-1.35-.037-2.25.059-2.33-1.895-3.7-3.513-4.82zm-57.539 1.09c-.158.02-.333.05-.464.08l-1.963.36c-.752.13-1.057.3-.991 1.07.075.98.195 1.98.313 2.95.116.98.244 1.99.324 2.98.079.99.12 2 .162 2.96.037.99.078 1.99.158 3 .052.62.304.88.879.9 0 0 2.002.04 2.006.04h.211c.173 0 .351.01.492 0 .164-.01.304-.09.407-.2.122-.15.176-.35.154-.59-.048-.61-.441-.69-.529-.69-1.735-.29-1.875-.91-2.016-2.67-.014-.19-.059-.77.09-.95.019-.02.075-.09.295-.1l9.033-.73c.865-.08 1.093.37 1.379 1.1.065.19.132.36.221.51.008.02.023.06.037.1.061.18.215.66.847.61.205-.01.368-.09.481-.23.187-.21.164-.49.15-.68-.046-.59-.137-1.18-.22-1.76-.089-.57-.174-1.17-.221-1.75-.046-.59-.06-1.19-.065-1.78-.013-.58-.019-1.18-.066-1.76-.019-.2-.041-.47-.256-.65-.136-.12-.309-.17-.516-.15-.631.05-.71.54-.738.73-.005.04-.013.09-.023.11-.057.17-.094.34-.131.53-.159.78-.319 1.25-1.184 1.32l-9.033.74c-.229.02-.29-.04-.309-.05-.08-.07-.187-.28-.238-.93-.145-1.75-.107-2.39 1.53-2.95.183-.04.486-.21.439-.77-.014-.18-.09-.42-.268-.57-.107-.09-.237-.14-.377-.13zm187.37 2.81c-.17-.02-.38.02-.55.05-.07.01-.13.02-.17.02-.01.01-2.78.43-2.79.43-.49.1-.61.55-.68.77 0 .02-.01.04-.01.06-.1.35-.23.7-.35 1.03-.27.79-.55 1.59-.64 2.5-.13 1.32.23 2.52 1.02 3.48.81.97 2 1.62 3.21 1.73 3.29.31 4.38-2.11 5.26-4.06.73-1.62 1.23-2.6 2.35-2.5.34.03.62.18.84.44.3.37.44.93.39 1.53-.12 1.27-1.43 2.69-2.74 2.97l-.08.02c-.48.11-1.02.22-1.08.84-.02.28.08.46.16.57.09.11.27.25.58.28.09.01.22 0 .56-.01.67-.03 1.79-.07 2.56.03.16.01.36.02.53-.09.18-.11.27-.29.3-.54.01-.16-.05-.33-.11-.54-.03-.09-.08-.26-.09-.3.02-.18.15-.44.3-.76.28-.57.67-1.37.77-2.46.11-1.18-.23-2.32-.96-3.2-.71-.86-1.74-1.41-2.83-1.51-3.27-.31-4.41 2.13-5.32 4.09-.74 1.6-1.25 2.57-2.31 2.47-.51-.05-.93-.27-1.23-.62-.34-.42-.5-1-.44-1.64.17-1.73 1.67-2.86 3.02-3.35.05-.01.12-.03.18-.05.33-.09.9-.24.95-.82.03-.26-.02-.47-.15-.63-.11-.13-.27-.22-.45-.23zm-56.63.02-.05.01c.02.03.04.05.06.08 0-.03-.01-.06-.01-.09zm-73.419.5c.046 1.59.371 3.77.371 5.22.042.08.061.14.07.18.8.63 1.651 1.39 2.322 2.26-.115-1.5-.544-2.88-1.476-4.65l.516-.27c1.15 2.17 1.599 3.78 1.599 5.74h-.098c.183.32.327.65.44 1l.158-1.11s.138-1.11.235-1.87c.023-.24.046-.48.046-.7 0-2.82-1.905-4.18-3.914-5.61zm-25.426.02c-.126-.01-.251-.01-.377 0-.246.03-.45.13-.562.27-.07.09-.103.19-.088.3.032.3.271.45.548.62.144.08.304.18.467.31.58.47.929 1.25 1.051 2.3.03.28.024.42-.035.5-.081.1-.319.16-.791.22l-5.547.63c-.267.03-.743.02-.936-.42-.055-.12-.2-.46-.546-.42-.142.01-.22.08-.262.13-.113.14-.09.33-.076.48.028.23.08.49.138.77.06.31.127.62.162.95.038.3.045.61.057.91.009.31.016.64.055.96.027.24.23.4.472.37.18-.02.281-.1.333-.17.074-.09.104-.21.087-.34-.027-.26.017-.45.129-.59.127-.16.35-.26.657-.29l5.544-.64c.457-.05.812-.02 1.059.29.056.06.1.13.139.19.112.16.238.35.502.31.13-.01.206-.07.246-.12.124-.16.099-.39.068-.65-.027-.25-.081-.49-.135-.73-.051-.23-.104-.46-.127-.68-.052-.43-.099-1.09-.148-1.74-.049-.64-.098-1.31-.147-1.75-.066-.57-.388-1.15-.865-1.53-.322-.25-.694-.41-1.072-.44zm35.174.74-1.094.79c-1.511.97-3.579 2.28-3.953 5.27h-.002-.016l-.197 1.59-.209 1.45c.376-.73.891-1.41 1.621-2.05h-.088c.135-1.9.421-3 2.436-4.89l.402.43c-1.707 1.59-2.065 2.54-2.213 4.04.66-.49 1.432-.96 2.414-1.39l.118.26c-.388-1.56 2.346-2.73 1.953-4.68 0-.62-.948-.52-1.172-.82zm-.781 5.5.119.27c-4.315 1.91-4.916 4.29-5.295 7.45l-.272-.03c.663.8 1.253 1.68 1.809 2.73-.038-.42-.098-.87-.098-1.26 0-.12.013-.23.018-.35h-.053c-.526-2.99.475-4.63 2.145-6.15l.39.42c-1.212 1.12-1.981 2.19-2.08 3.83.553-1.26 1.745-2.42 4.158-3.68l.09.17c.326-1.45-.556-3.02-.931-3.4zm93.802-4.22c-.14-.02-.23.03-.28.07-.14.11-.17.31-.19.51-.03.27-.04.54-.04.8s-.01.51-.04.75c-.03.26-.09.52-.14.77-.05.23-.1.44-.12.64-.06.44-.12.94.28.98.3.04.5-.11.56-.39 0-.01.19-.79.96-.7l5.76.67c.49.06.77.15.83.49.01.01.01.03.01.05.03.19.09.58.42.62.13.02.23-.03.28-.08.14-.11.16-.29.18-.44.03-.27.04-.54.04-.79 0-.26.01-.51.04-.76s.08-.49.14-.74c.05-.26.11-.52.14-.79.04-.36.08-.67-.07-.86-.05-.07-.13-.11-.22-.12-.29-.03-.5.11-.55.39-.11.56-.39.76-.96.69l-5.77-.67c-.51-.06-.76-.22-.82-.55-.03-.14-.09-.5-.44-.54zm-24.71.51c-.07 2.64-1.45 4.74-2.22 5.87 0 0-.34.53-.34.53-.46.82-.6 1.35-.6 1.83 0 .3.06.58.13.9 1.03-1.16 2.3-2.67 2.86-4.46l.56.18c-.6 1.92-1.94 3.5-3.01 4.71.29.04.61.08.61.08 1.16.2 1.74.29 2.7-.66l.22.18c.06-.13 1.02-2.29.77-5.45-.06-.72-.37-2.8-1.68-3.71zm-.75.57c-.74.59-1.17.72-2.44.85.21 2.61.18 3.26-.31 5.41v.22c.1-.28.24-.59.43-.95l.37-.55c.7-1.06 1.71-2.83 1.95-4.98zm-78.499 1.58c-.39 2.34-.39 4.69 1.174 6.64l.149-.25c.902.54 1.629 1.11 2.293 1.72-.22-1.3-.929-2.83-2.166-4.69l.486-.32c1.221 1.82 1.932 3.36 2.203 4.7 1.394-3.1-1.249-5.46-3.924-7.43l.164-.23c-.126-.05-.252-.1-.379-.14zm1.174 6.64c-.784.39-1.174 1.18-1.174 1.57 1.562 3.12.779 6.25 3.125 9.38l.018-.3c1.199.07 2.229.18 3.17.61l-3.035-3.4.476-.34 2.969 3.32c.131-.51.344-1 .604-1.33-1.343-2.15-4.168-4-6.153-4v-.59c2.198 0 5.181 1.95 6.639 4.29.107-.01.397-.03.691-.05-.68-.66-1.269-1.5-1.742-2.56l-.127.04c-.021-.05-.042-.09-.06-.13l-.02.03c-1.561-.94-3.582-2.38-4.57-3.62l.457-.36c.793.99 2.305 2.12 3.67 3-1.279-2.45-2.666-3.87-5.088-5.31zm68.655-6c.05.18.1.37.16.53.09.19.11.39.09.61l.04-.09c2.38 1.23 3.52 2.78 4.01 4.44.11-.18.17-.37.17-.56 0-.97-1.31-2.06-2.58-3.12zm.13 1.64c-.18.57-.52 1.17-.75 1.63-.25 1.01.13 2.17.24 3.18l.42-.17c.98 2.39 1.86 3.65 2.79 4.99 0 0 .19.27.41.6l-.81-2.8c-.31-1.29-.62-2.62-1.36-4.11l.52-.26c.77 1.54 1.1 2.91 1.41 4.23l.66 2.3c.19-1.14.37-2.28.37-3.38 0-2.36-.8-4.56-3.9-6.21zm40.04.93c-.04 0-.08.02-.12.04-.09.06-.15.16-.18.3-.08.33.09.44.16.47 1.04.53 1.04.96.77 2.15-.06.24-.14.53-.27.62-.04.02-.1.04-.25.01l-5.84-1.33c-.64-.15-.67-.58-.69-1.03-.01-.13-.01-.25-.04-.36v-.08c0-.12-.01-.41-.36-.49-.12-.03-.23-.02-.31.04-.14.08-.17.24-.2.36-.08.38-.15.77-.21 1.14-.06.39-.12.78-.21 1.16-.08.38-.2.76-.31 1.13s-.23.75-.31 1.12c-.03.12-.06.28.02.42.06.08.14.14.26.16.36.09.48-.17.54-.28.01-.03.03-.05.04-.07.06-.09.12-.2.19-.3.22-.41.43-.78 1.07-.63l5.83 1.33c.16.04.21.09.23.13.06.09.05.32-.03.67-.27 1.19-.46 1.57-1.61 1.6-.13 0-.3.05-.37.35-.02.11-.02.25.05.36.04.07.1.12.17.13.1.03.21.04.3.05l1.31.16c.5.07.67.02.77-.43.14-.63.27-1.29.38-1.92.13-.64.25-1.3.4-1.94.14-.63.31-1.28.48-1.9s.35-1.27.49-1.91c.08-.32.05-.54-.33-.67l-1.25-.42c-.04-.02-.09-.03-.13-.05-.11-.03-.22-.07-.31-.09-.04-.01-.09-.01-.13 0zm-137.8 1c-.176 0-.354.03-.529.07-.69.16-1.198.5-1.512 1.02-.425.68-.489 1.67-.195 2.91.085.35.224.82.361 1.29.129.44.259.85.327 1.14.075.32.138.71.201 1.08.05.33.097.64.148.85.046.2.1.32.17.39.094.1.217.14.373.1.131-.03.353-.14.375-.51.008-.07.01-.15.01-.21.019-.44.026-.67.756-.84l5.566-1.32c.238-.06.676-.09.961.32l.024.03c.086.13.265.38.566.31.108-.03.192-.08.242-.16.081-.14.057-.32.016-.48-.066-.29-.164-.58-.256-.85-.089-.27-.18-.55-.246-.82-.065-.28-.108-.56-.151-.84-.038-.29-.082-.59-.152-.88-.084-.36-.156-.66-.351-.78-.078-.05-.168-.07-.256-.04-.269.06-.41.25-.389.54.073.82-.1 1.25-.549 1.36l-6.058 1.44c-.094.03-.172-.01-.223-.04-.125-.08-.224-.24-.272-.43-.142-.6-.093-1.12.147-1.51.209-.34.564-.57 1.053-.69.37-.08 1.587-.27 1.892 1.01.077.32.119.46.17.56.08.15.213.21.379.17.08-.02.194-.07.277-.21.3-.48.043-1.63.038-1.64-.19-.8-.696-1.51-1.383-1.93-.471-.29-.999-.43-1.53-.41zm102.97.79-.34.35c.01.07.06.14.06.21 0 .45-.23.87-.6 1.26.28 1.48.12 3.04-.12 4.55.54-1.25 1.04-3.25 1-6.37zm-63.991.36c-4.024 2.13-4.349 3.87-4.105 6.6l.269-.36c.753-.92 1.785-2.17 2.281-3.49l.549.2c-.53 1.41-1.6 2.71-2.379 3.66l-.615.81c.495 1.2 1.136 2.1 1.885 2.76-.389-.74-.296-1.65-.076-2.25.388-1.08 1.735-1.55 2.472-3.13.782-1.69.175-3.86-.281-4.8zm64.501 1.91c-.17 2.03-.58 3.47-1.03 4.46.67-.71 1.47-1.36 2.27-1.99.65-.53 1.28-1.07 1.86-1.63-.52.09-1.03.06-1.63-.04l-1.13-.16-.22-.04zm4.54.13c-.76 1.03-1.86 1.93-2.94 2.8-1.6 1.28-3.13 2.52-3.59 4.17l-.02.08-.01-.01c-.08.31-.14.62-.14.96 0 .09.02.19.03.29 1.76-1.19 3.56-2.58 5.06-4.54l.47.36c-1.41 1.84-3.07 3.18-4.72 4.33.26-.05.51-.11.76-.15 1.19-.16 2.42-.33 4.09-1.35l.22.34c.44-.8.84-1.63 1.11-2.57.36-1.45.04-3.03-.32-4.71zm-10.74.07c0 .42-.06.8-.27 1.13l.22-.2c.38.43.81.9 1.2 1.42-.38-.65-.76-1.42-1.15-2.35zm-.42 1.41c-.72 1.42-1.35 2.55-2.2 4.01-.71 1.22-.39 3.52.78 4.7l.28-.1.48 2.86s.05.29.11.63c.51-1.91.51-5.56.27-7.8l.59-.06c.26 2.46.26 6.89-.53 8.69.34-.1.57-.2.69-.38-.02-.14-.03-.27-.03-.42v-.2c.02-.37.1-.81.25-1.26.12-1.31.53-2.41 1.14-3.65.41-.86.58-1.62.58-2.34 0-1.78-1.09-3.21-2.41-4.68zm32.58 1.05c-.05 0-.1.01-.15.03-.15.07-.21.22-.26.36-.08.21-.14.44-.19.65-.06.22-.11.42-.18.61-.08.2-.17.39-.28.58-.1.2-.21.4-.29.61-.05.15-.11.31-.04.46.04.09.11.15.22.2.31.12.58-.24.83-.59l.08-.11c.15-.2.22-.33.47-.31.26.02 1.04.62 1.23 1.05.06.12.07.22.03.31l-.7 1.85c-.23.59-.34.72-.48.79-.18.08-1.29.06-1.57-.04-.24-.1-.38-.31-.34-.55v.03c.09-.29-.02-.56-.26-.65-.09-.04-.18-.03-.26.01-.08.03-.18.1-.24.28-.12.3-.21.62-.3.91-.08.29-.16.56-.25.81-.1.25-.22.51-.35.77-.14.29-.28.58-.39.88-.06.15-.12.3-.05.44.04.09.12.16.23.2.32.12.5-.12.7-.38l.05-.06c.2-.27.63-.29 1.05-.31.1 0 .2-.01.29-.02l7.71-.5c.26-.03.44-.07.49-.22.09-.23-.06-.39-.33-.69-.01 0-5.72-6.12-5.72-6.12-.13-.15-.21-.26-.27-.49-.01-.05-.02-.12-.03-.19-.02-.19-.04-.47-.29-.56-.06-.02-.11-.04-.16-.04zm-30.18 1.26c.54 1.1.78 2.4.33 3.94l.15-.23 1.01-1.51-.77-1.15c-.24-.35-.48-.69-.72-1.05zm-91.193.37c-.043 0-.086 0-.129.02-.276.1-.396.32-.318.6 0 0 .188.79-.547 1.06l-5.453 1.98c-.462.17-.757.21-.963-.06-.004-.01-.016-.03-.028-.04-.11-.16-.335-.48-.644-.37-.136.05-.196.13-.225.19-.075.17-.014.34.039.48.092.25.208.5.321.73.115.23.22.46.306.69.085.24.147.48.213.73.06.25.128.51.219.76.066.18.134.37.217.51.175.3.377.28.484.24.275-.1.393-.32.319-.6-.154-.54.005-.85.55-1.05l5.451-1.98c.479-.18.784-.14.985.13.084.1.303.4.631.28.131-.05.192-.13.222-.19.078-.17.012-.35-.058-.54-.093-.26-.21-.49-.323-.73-.115-.24-.22-.46-.306-.69-.091-.25-.152-.51-.215-.76-.056-.22-.11-.44-.176-.62-.125-.35-.234-.64-.443-.74-.042-.02-.086-.03-.129-.03zm92.873 2.6-.7 1.05-1.3 2.02-.17-.12c-.11.26-.19.51-.28.76.2-.24.4-.48.67-.71.58-.49 1.12-.74 1.65-.94-.04-.28-.07-.56-.07-.82 0-.44.08-.85.2-1.24zm30.9.29 1.63 1.7-2.36.22zm-24.77.54c-1.77 1.18-3.28 1.62-5.39 1.54-.69.18-1.38.44-2.14 1.08-.79.67-1.19 1.39-1.42 2.05-.01.22-.04.43-.04.66 0 .31-.01.55-.04.77 1.3-.67 3.02-1.84 4.51-3.08l.38.45c-1.38 1.15-3.42 2.59-4.97 3.34.1.51.28.9.43 1.05l-.21.21c2.54-.2 4.89-.79 6.25-3.52.88-1.77 1.83-3.13 2.64-4.55zm-13.58 1.03c-1.17 1.57-2.34 3.13-3.51 4.69-.79 1.56-.01 3.51-.4 5.46h.3s.08.87.12 1.19c1.28-1.57 1.61-3.01 1.92-4.52l.51-2.09.56.18-.49 2.03c-.34 1.66-.68 3.23-2.23 5.01 2-1.14 4.62-3.1 4.62-7.45 0-.54-.04-1.11-.13-1.72l.3-.04c-.4-.79-.79-1.96-1.57-2.74zm-56.364.3-1.497.12c-.357.34-.736 1.58-.642 1.98.622.45 1.217 1.08 1.807 2 .188-.01.675-.03.675-.03.284-.01.513 0 .733.04-.709-.67-1.355-1.43-2.045-2.41l.478-.34c.84 1.2 1.574 2.09 2.491 2.83.048-.12.077-.19.097-.23-.121-.14-.234-.27-.258-.33-.05-.79-.371-1.15-.779-1.61-.411-.46-.857-1.01-1.06-2.02zm-29.323.81c-.102 0-.187.02-.248.05-.112.06-.179.13-.211.22-.018.05-.028.14.024.26.112.22.388.3.607.37.045.01.086.02.123.04.989.33 1.817 1.02 2.225 1.84.271.55.3 1.18.08 1.84-.32.94-1.108 1.8-2.119 2.3-1.215.59-2.22.77-2.983.51-.575-.19-1.02-.62-1.361-1.31-.481-.98-.267-2.21.596-3.49.007-.01.017-.02.027-.04.113-.15.304-.42.191-.64-.041-.09-.11-.15-.199-.18-.124-.04-.283-.02-.427.05-.094.05-.197.12-.323.21-.082.06-.172.12-.256.18 0 0-1.487.95-1.504.96-.145.12-.187.29-.107.46.135.26.355.28.486.28.108.01.109.01.127.05.033.07.053.3.075.52.056.58.138 1.45.576 2.33.561 1.14 1.444 2 2.48 2.43 1.25.51 2.709.39 4.225-.36 1.086-.54 1.862-1.41 2.234-2.51.398-1.18.3-2.51-.265-3.66-.795-1.61-2.121-2.26-2.838-2.5-.462-.16-.928-.24-1.235-.21zm23.182.75c-.084.39-.654.89-.449 1.27.912 1.69 1.892 2.86 3.515 3.51 1.953.79 1.824-1.43 3.518 0 .089.08.126.15.133.22.743-.11 1.378-.15 1.933-.11l-.347-.4s-1.12-.46-1.082-.45c-2.8-.14-4.058-.95-5.286-2.31l.438-.4c1.149 1.28 2.265 2 4.912 2.13l1.484.67.495.58-.231.23c.26.04.513.08.744.15-.051-.4-.088-.78-.121-1.13l-.947-1.07s-.026-.03-.031-.04l-.434 1.01-.305-.3c-.513-.51-.685-.5-1.425-.46l-1.002.03-.09-.14c-1.585-2.56-3.113-2.85-5.422-2.99zm64.315.61c-.03.1-.06.19-.09.25l.13-.02zm.05.25c.09.64.13 1.25.13 1.82 0 1.89-.48 3.34-1.18 4.51 1.06-.7 1.93-1.45 2.56-2.68-.13.04-.27.08-.42.12l-.44.19-.38-2.33zm29.85 1.62c-.05-.01-.1-.01-.15.01-.15.04-.23.18-.29.29-.19.34-.36.69-.53 1.04-.16.35-.33.71-.52 1.05s-.4.67-.61 1c-.21.32-.43.66-.61.99-.06.11-.14.25-.09.4.02.1.09.18.19.24.32.17.52-.03.6-.12.02-.03.04-.05.06-.06.09-.07.17-.15.27-.24.32-.32.62-.62 1.2-.3l5.23 2.9c.14.08.17.14.18.18.03.11-.03.32-.21.64-.6 1.07-.88 1.39-2 1.09-.12-.04-.3-.04-.45.24-.05.09-.09.23-.06.36.03.08.08.14.14.17.09.05.19.09.27.12l1.21.53c.46.2.64.2.87-.2.31-.57.61-1.16.9-1.73.29-.59.6-1.19.92-1.76.31-.57.66-1.14.99-1.69.34-.55.68-1.12 1.01-1.7.16-.28.19-.51-.13-.74l-1.09-.75c-.04-.02-.08-.05-.12-.08-.09-.06-.18-.13-.26-.17-.08-.05-.17-.06-.25-.03-.11.02-.19.1-.27.23-.16.3-.02.45.03.49.85.81.73 1.22.14 2.29-.12.21-.28.47-.43.51-.04.01-.12.03-.25-.05l-5.22-2.91c-.58-.32-.49-.74-.39-1.18.03-.13.06-.25.07-.35 0-.03.01-.05.02-.09.02-.11.1-.39-.22-.57-.05-.03-.1-.04-.15-.05zm-37.18 1.13c-1.95 2.35-3.9 4.69-3.51 7.81h.29c0 1.18-.06 1.84-.22 2.44.94-1.24 1.21-2.31 1.46-3.44l.67-2.24.54.24-.63 2.13c-.24 1.05-.52 2.15-1.37 3.38.17-.09.34-.19.5-.27.19-.29.35-.51.38-.54.46-.25.91-.41 1.34-.54 1.22-.93 1.83-2 1.83-3.78 0-.16 0-.32-.01-.48v-.02l.29-.01c-1.17-1.17-1.56-2.99-1.56-4.68zm8.42.3c0 .03.01.07.01.09.04-.02.06-.02.1-.03zm1.07.62c-.85 1.84-2.15 2.7-3.67 3.65l-.54.34c-.05.06-.11.1-.16.15.72-.25 1.44-.46 2.14-.66l2.77-.95.26.53-2.88.99c-1.89.53-3.97 1.16-5.6 2.85.84-.33 1.92-.61 3.08-.9l3.83-1.19.27.52-3.96 1.24c-1.39.34-2.78.71-3.57 1.13.02 0 .03 0 .04.01.89-.05 1.74.01 2.58.11.57.06 1.16.1 1.75.12.42-.03.85-.03 1.26-.07l.96-.09.04.23c2.22-1.46 4.01-3.93 3.63-5.8-.39-.39-1.17 1.17-1.95 0 .61-.3.18-1.05.21-1.39l-.03.03c-.17-.17-.33-.46-.46-.85zm-59.955.68c-.377.25-1.404.36-1.941.36-.391 0-.391.78-.391 1.17 1.173 1.95 3.128 1.95 5.082 2.74l-.072-.29c.84-.2 1.512-.3 2.125-.31-1.201-.62-2.678-1.15-4.471-1.6l.143-.56c2.452.61 4.334 1.37 5.756 2.32l-.006.01c.264.07.534.17.812.3-.308-.46-.476-.93-.576-1.42l-.101.11c-2.259-2.14-3.103-2.94-6.303-2.45zm-24.094 2.54c-.611 0-1.22.17-1.71.5-1.77 1.19-1.321 2.86-.961 4.21.311 1.16.464 1.89-.186 2.33-.199.13-.421.17-.658.13-.326-.07-.645-.3-.871-.64-.496-.74-.426-2.02.154-2.74l.037-.05c.194-.24.397-.5.194-.8-.092-.14-.202-.18-.28-.2-.082-.01-.214-.01-.367.09-.042.03-.117.09-.277.23-.332.3-.883.79-1.326 1.07-.089.05-.194.14-.221.27-.019.1.008.2.078.3.052.08.151.14.264.22.065.03.165.1.189.13.07.11.116.31.17.53.099.41.231.97.627 1.56.861 1.28 2.573 1.65 3.82.81 1.764-1.18 1.334-2.88.983-4.25-.295-1.15-.439-1.88.174-2.29.325-.22.677-.28 1.023-.19.327.09.636.33.859.67.655.97.356 2.2-.14 3.03-.019.03-.048.07-.075.11-.123.17-.331.46-.14.74.192.29.432.27.58.18.089-.06.173-.16.248-.25.029-.04.056-.06.08-.09.003 0 1.241-1.37 1.244-1.38.188-.22.075-.47.016-.6-.006-.02-.017-.03-.02-.05-.092-.22-.174-.45-.258-.67-.182-.51-.375-1.04-.707-1.53-.477-.71-1.145-1.17-1.935-1.33-.2-.04-.404-.05-.608-.05zm107.58 1.39c-.18.03-.3.19-.42.35-.16.22-.3.45-.43.67-.14.22-.27.44-.41.64-.16.21-.34.4-.52.59-.15.17-.3.33-.42.49-.27.36-.56.76-.24 1 .23.18.49.15.67-.06.01-.01.56-.6 1.19-.13l4.66 3.46c.39.3.59.52.47.84 0 .01-.01.03-.02.05-.07.17-.21.54.05.74.11.09.22.09.29.08.17-.03.28-.18.37-.3.16-.21.3-.44.43-.66.14-.23.27-.44.41-.64.15-.2.32-.38.49-.57.18-.19.36-.39.52-.61.22-.29.4-.55.37-.78-.01-.08-.06-.16-.13-.22-.24-.17-.49-.15-.68.07-.36.43-.71.46-1.17.12l-4.66-3.47c-.41-.3-.54-.58-.43-.89.04-.13.17-.48-.11-.69-.11-.08-.21-.08-.28-.08zm-78.317.3c-.666-.03-1.385.09-2.353.32l-.008-.04c-.099.33-.76.7-.451 1.32 1.173 1.95 3.517 1.95 5.47 2.73l-.031-.29c.608-.06 1.211-.07 1.813-.06-.087-.12-.157-.26-.221-.39l-3.631-1.49-1.023-.36.201-.55 1.017.36 3.2 1.32c-.075-.36-.132-.75-.178-1.29-1.73-1.07-2.694-1.53-3.805-1.58zm2.658 4.33c-1.465.49-2.343 2.35-1.173 2.74 1.56.78 3.515 1.17 5.078 1.56-1.165.78-.093 1.96.783 1.96h1.566c1.169.38 2.733-.79 3.905 0-.65.65-1.389 1.11-2.18 1.46 1.82-.4 3.09-1.03 3.78-1.9-.16-.24-.25-.48-.29-.73-1.38-.64-2.564-.46-4.056-.22l-.729.11-.082-.58.721-.11c1.445-.23 2.706-.4 4.146.19.03-.17.07-.33.15-.49l-.03-.01s.06-.14.17-.35l-.29.16c-.07-.11-.09-.22-.15-.33l-.03.04c-2.126-1.5-5.674-.4-7.181 1.02l-.201-.22h-.002l-.2-.21c.473-.44 1.113-.85 1.838-1.17-1.395-.66-2.787-.91-4.613-.8l-.035-.59c2.015-.11 3.538.17 5.096.95l-.164.33c.823-.34 1.735-.57 2.65-.61-2.07-1.49-5.266-2.23-8.447-1.91zm31.699-4.05c-.35 0-.74.07-1.17.14-.48.08-.9.26-1.29.47.2-.04.38-.04.53-.03.79.08 1.56.59 1.74 1.13l2.2 4.54c.14-.63.01-1.41-.13-2.24-.19-1.02-.37-2.17-.08-3.26-.08.06-.14.12-.23.18-.49-.73-.99-.93-1.57-.93zm-28.802.64-1.268.59c.232 1.47.369 1.93.92 2.49h-.006c.869.06 1.71.19 2.514.4-.93-.83-1.755-1.96-2.16-3.48zm13.552.53c-.65.06-1.17.48-1.27.8l-2.46 5.06c.71-.32 1.56-.31 2.2.26 1.08 1.04 3.12 2.82 5.13 3.83.06-1.01.16-2.42.25-3.62.04-.67.09-1.25.12-1.6.01-.15.02-.28.04-.39-.05-.05-.82-1.03-.82-1.03s-1.67-2.44-1.66-2.43c-.47-.81-1.09-.93-1.53-.88zm13.26 0c-.44-.05-1.07.07-1.52.86l-1.67 2.46s-.65.81-.75.85c.04.04.09.08.12.12l.11 4c.04.68.08 1.28.11 1.67 2.01-1.01 4.05-2.8 5.13-3.85.63-.57 1.5-.57 2.2-.25-.89-1.84-2.46-5.07-2.47-5.1-.09-.27-.62-.7-1.26-.76zm-89.714 1.04-1.223 3.78h-4.037l3.289 2.45-1.279 3.88 3.25-2.39 3.248 2.39-1.264-3.88 3.258-2.45h-4.049zm166.1 0-1.23 3.78h-4.03l3.29 2.45-1.28 3.88 3.25-2.39 3.24 2.39-1.26-3.88 3.26-2.45h-4.05zm-133.61.38c-.092-.01-.176.01-.246.07-.228.18-.267.44-.11.66.008.01.443.7-.16 1.19l-4.504 3.67c-.384.31-.641.44-.928.25-.011-.01-.025-.02-.042-.03-.153-.11-.475-.34-.731-.13-.107.09-.139.19-.145.26-.018.17.098.32.194.43.169.21.356.4.539.59.185.18.359.36.519.55.154.19.292.4.436.61.142.22.289.44.459.65.279.35.597.73.906.48.229-.19.271-.43.108-.67-.328-.46-.275-.8.173-1.17l4.497-3.67c.4-.33.7-.38.974-.2.115.08.42.28.692.06.107-.09.139-.19.144-.25.021-.18-.103-.33-.234-.49-.169-.21-.354-.4-.541-.59-.183-.18-.356-.36-.516-.55-.167-.2-.312-.43-.453-.64-.126-.2-.248-.38-.369-.53-.231-.29-.431-.53-.662-.55zm71.592.5c-.59.03-1.19.11-1.8.29-.45.34-.94.67-1.51 1l-1 1.53c1.26-.64 2.68-.8 4.06-.93l2.27-.3.12.57-2.33.31c-1.52.15-2.96.33-4.19 1.08.14.03.29.05.43.08l2.88.36.01.14c.36-.01.72-.05 1.13-.13l.1.53c1.18-.4 2.34-.86 3.47-1.61 1.1-.73 1.94-1.7 2.58-2.78-.63.1-1.24.13-1.83.11-1.39.11-2.85.06-4.39-.25zm28.69 1.65c-.17-.02-.33.08-.42.15-.01.01-.02.01-.03.02-.21.14-.42.26-.62.38-.47.27-.95.55-1.38.97-.61.59-.95 1.33-.96 2.14s.31 1.64.86 2.2c1.48 1.53 3.05.79 4.3.19 1.09-.51 1.78-.79 2.33-.23.16.17.25.38.25.63-.01.33-.19.68-.48.97-.63.62-1.91.77-2.72.34l-.05-.03c-.28-.15-.57-.3-.83-.05-.11.11-.14.23-.14.31 0 .09.02.21.15.35.04.03.12.09.28.22.35.28.93.74 1.28 1.12.06.07.16.15.27.16.11.02.22-.02.33-.12.07-.07.11-.18.16-.3.03-.07.08-.18.1-.21.09-.09.28-.17.49-.26.39-.17.91-.4 1.42-.9.55-.53.86-1.23.87-1.98.01-.71-.26-1.41-.76-1.92-1.48-1.52-3.07-.8-4.35-.21-1.08.49-1.77.77-2.28.24-.25-.26-.38-.56-.37-.89 0-.37.18-.74.5-1.05.84-.82 2.1-.75 3-.4.04.01.08.03.12.05.2.09.52.24.76.01.12-.11.17-.23.18-.35 0-.09-.04-.18-.11-.26-.08-.07-.19-.14-.29-.2-.03-.02-.07-.04-.1-.06 0 0-1.58-.97-1.58-.98-.06-.03-.12-.05-.18-.05zm-49.38.21c-1.03-.05-2.03.19-2.39.42l-.38 6.05h.01l-.07.86c.21.14.52.25.86.34 1.09-.15 2.24-.16 3.27-.01.31-.08.59-.18.81-.3-.01-.27-.05-1.47-.08-2.78-.08-1.45-.18-3.25-.2-4-.39-.32-1.04-.54-1.83-.58zm15.94.57c-.63.29-1.49.44-2.35.56l-1.06.21c.99-.03 1.95.05 2.85.19l.38-.68s.07-.12.18-.28zm-5.01.62c-.01.03-.01.05-.01.07.01 0 .04-.02.05-.03zm.95.15c-.02.01-.03.02-.05.03h.06zm.65.53c-.34.01-.68.04-1.03.09 1.51.85 2.07.89 2.99.87l1.26.02-.03.58-1.22-.01c-.94.01-1.57-.03-3.03-.82.87.81 2.1 1.13 3.71 1.29l-.04.36c.49.05.96.07 1.38-.07 1.43-.61 2.82-.99 4.18-1.45-1.79.32-2.95.02-4.81-.49l-.39-.11c-.96-.18-1.95-.3-2.97-.26zm-3.5.58c-.28.02-.55.11-.78.31-1.13 1.1-3.34 3.03-5.49 4.05.01.11.01.19.03.36.81-.12 1.6-.25 2.35-.38l.08-.11c.04.02.08.06.11.08 2.42-.44 4.39-1.01 5.1-1.98.25-.32.35-.61.35-.86 0-.49-.32-.84-.46-.97-.34-.32-.83-.53-1.29-.5zm-18.68 0c-.46-.02-.95.18-1.29.5-.14.13-.45.48-.45.96 0 .26.09.56.35.88.7.96 2.67 1.53 5.08 1.97.04-.02.08-.06.11-.08l.08.11c.76.13 1.55.26 2.36.38.01-.11.01-.23.02-.37-2.14-1.02-4.35-2.94-5.48-4.03-.23-.2-.5-.3-.78-.32zm-38.742.46c-1.233 0-2.391.51-3.334 1.47-.908.91-1.363 1.9-1.358 2.94.006 1.31.742 2.7 2.182 4.13.231.22.479.43.722.63.235.2.477.41.7.62.217.22.423.46.623.7.206.24.416.48.65.71.109.11.24.23.381.27.111.03.279.04.453-.14.21-.21.093-.42-.086-.74 0 0-.097-.17-.1-.17-.171-.29-.253-.44.604-1.3l3.473-3.51c.376-.38.802-.74 1.125-.59l.056.03c.215.1.511.24.731.02.061-.06.094-.13.094-.22 0-.17-.13-.29-.278-.44-.145-.14-.313-.27-.474-.39-.159-.12-.311-.24-.432-.36-.108-.1-.254-.27-.432-.47-.335-.37-.785-.88-1.392-1.48-1.107-1.1-2.529-1.72-3.908-1.71zm59.582.27c.26.56.19 1.19-.18 1.75.11.14.27.26.41.38-.3-.38.42-.75.8-1.13.27-.06.53-.06.8-.07-.66-.19-1.29-.48-1.83-.93zm-58.155 1.4c.571.01 1.123.2 1.578.66.363.36.608.66.608.93 0 .22-.141.46-.447.77l-3.78 3.82c-.244.24-.428.35-.603.35-.164 0-.353-.1-.575-.32-.571-.57-.862-1.24-.865-1.98-.01-.99.513-2.12 1.397-3.01.726-.73 1.735-1.24 2.687-1.22zm57.635.79c-.46.48-1.14.86-2.01 1.17l.05.03 2.85 1.54-.01.02c.72.08 1.26.96 1.26 2.1 0 1.2-.59 2.13-1.35 2.13-.31 0-.58-.18-.81-.45l-.02.01c-.6-.71-3.39-3.04-5.44-4.54-.43.08-.88.15-1.33.22 2.47 3.2 6.41 7.05 12.89 6.62-1.12-1-2.13-2.16-2.64-3.2l-.15-.29.3-.12c1.96-.75 3.01-1.47 3.68-2.8-3.71-.24-6.09-1.05-7.27-2.44zm-21.96 0c-1.18 1.39-3.564 2.19-7.267 2.44.669 1.33 1.721 2.05 3.676 2.8l.299.12-.144.29c-.52 1.04-1.525 2.2-2.641 3.2 4.067.27 7.127-1.16 9.467-3.05.53-.49 1.08-1.01 1.65-1.5.67-.68 1.25-1.39 1.78-2.07-.46-.07-.91-.14-1.34-.22-2.05 1.5-4.84 3.83-5.44 4.54l-.02-.02c-.23.27-.5.46-.81.46-.76 0-1.36-.93-1.36-2.13 0-1.14.55-2.02 1.26-2.1l-.01-.02 2.87-1.55.04-.02c-.88-.31-1.56-.69-2.01-1.17zm2.74 1.4-.45.29-2.45 1.31c.43.36.72 1.04.72 1.86 0 .15-.04.28-.05.42 1.05-.95 2.72-2.32 4.18-3.42-.7-.13-1.36-.28-1.95-.46zm16.48 0c-.59.18-1.25.33-1.95.46 1.45 1.1 3.13 2.47 4.18 3.42-.01-.14-.05-.27-.05-.42 0-.82.29-1.5.71-1.86l-2.43-1.3zm-20.02 1.91c-.36 0-.76.64-.76 1.55s.4 1.55.76 1.55c.37 0 .77-.64.77-1.55 0-.89-.4-1.55-.77-1.55zm23.55 0c-.36 0-.76.66-.76 1.55 0 .91.4 1.55.76 1.55s.77-.64.77-1.55-.41-1.55-.77-1.55zm44.85 15.91c-.27-.05-.48.11-.61.2-.29.21-.56.46-.82.69-.25.23-.49.45-.75.64s-.54.34-.84.52c-.3.16-.61.34-.91.55-.26.19-.56.41-.61.74-.03.17.01.34.12.49.38.52 1.11.21 1.64-.02.79-.34 1.34.17 2.19 1.35l2.52 3.49s-10.92-1.92-10.91-1.92c-.42-.09-.69.03-1.06.3-.25.18-.48.37-.71.56-.22.19-.44.37-.67.53-.22.16-.46.31-.71.47s-.51.32-.76.5c-.09.06-.24.18-.28.4-.03.23.08.42.17.54.3.42.72.34 1.2.24.1-.02.21-.04.33-.06.57-.1 1.31.44 1.71 1.01l4.32 5.96c.56.78.6 1.26.17 2.15l-.03.07c-.14.29-.34.67-.03 1.1.23.32.5.33.65.3.18-.02.31-.13.41-.2.29-.21.56-.46.82-.69s.5-.45.75-.63c.26-.2.54-.35.84-.52.31-.17.62-.35.92-.57.25-.18.6-.42.66-.8.02-.19-.02-.37-.14-.54-.35-.47-.89-.21-1.26-.03-.13.06-.26.12-.38.16-.69.23-1.23.01-1.75-.71l-4.04-5.58s12.4 2.15 12.41 2.15c1.06.17 1.57.21 1.85.01.17-.12.22-.28.24-.39.05-.32-.14-.66-.55-1.22l-5.52-7.63c-.57-.79-.61-1.27-.18-2.14l.03-.06c.14-.29.34-.69.02-1.11-.12-.17-.27-.28-.45-.3zm-105.96 4.55c-.272-.04-.569.12-.969.34 0 .01-11.078 6.17-11.078 6.17-.248.13-.438.2-.779.2-.07.01-.164-.01-.266-.02-.304-.04-.769-.11-1.035.27-.118.17-.159.34-.131.51.051.29.286.45.469.58.29.2.602.37.902.53.29.16.565.3.822.48.253.18.486.38.735.61.256.22.518.46.808.66.224.16.754.52 1.156-.06.332-.46-.127-1.01-.572-1.55l-.129-.16c-.201-.24-.357-.23-.263-.7.098-.46.673-.74 1.183-1.05.5-.31.927-.4 1.137-.26l2.453 1.71c.749.53.913.73.945.93.043.29-.373 1.87-.621 2.23-.163.23-.472.4-.795.26l.041.02c-.435-.26-.934-.18-1.181.18-.089.13-.123.29-.094.44.023.15.108.35.363.53.408.28.833.53 1.244.77.393.22.759.44 1.09.66.333.24.66.51 1.006.8.365.3.744.62 1.151.9.22.15.735.51 1.136-.06.331-.48.002-.88-.31-1.28l-.078-.09c-.284-.36-.169-.96-.038-1.59.029-.14.055-.29.079-.44 0 0 2.067-11.51 2.072-11.52.06-.42.05-.73-.188-.9-.087-.06-.175-.09-.265-.1zm-3.522 3.63-.625 3.36-2.363-1.69zm7.996.02c-.199.04-.367.18-.523.42l-1.08 1.69c-.038.05-.074.12-.115.18-.094.14-.193.29-.258.42-.07.14-.089.3-.043.45.061.18.201.33.416.44.542.27.813-.01.865-.08 1.164-1.33 1.763-1.12 3.334-.32.169.09.683.35.758.57.009.03.034.12-.065.31l-4.125 8.07c-.391.78-.893.74-1.67.59-.191-.04-.373-.07-.546-.08-.019 0-.066-.01-.104-.02-.187-.05-.678-.16-.963.4-.094.19-.117.36-.06.54.088.27.332.39.506.48.523.26 1.073.5 1.607.73.532.23 1.091.47 1.613.74.524.27 1.038.58 1.543.88.496.29 1.017.6 1.535.87.505.26.869.18 1.084-.24.285-.56-.093-.89-.238-1.01-.027-.03-.066-.06-.08-.08-.108-.13-.243-.26-.383-.4-.576-.53-.898-.92-.506-1.69l4.125-8.07c.135-.26.215-.42 1.117.04 1.572.8 2.095 1.16 1.711 2.85-.06.19-.077.53.428.79.326.16.755.14.924-.19.075-.14.135-.31.178-.43 0 0 .734-1.86.73-1.86.285-.71.298-1.07-.394-1.42-.874-.44-1.789-.87-2.678-1.28s-1.816-.83-2.699-1.29c-.884-.45-1.758-.94-2.604-1.42-.851-.48-1.735-.97-2.629-1.43-.28-.14-.511-.19-.711-.15zm86.308 1.63c-.21.01-.4.11-.56.2-.36.19-.71.41-1.04.63-.32.22-.63.42-.96.59-.33.18-.68.32-1.04.46-.37.15-.75.31-1.11.49-.51.27-.95.5-1.07.88-.04.15-.03.31.04.46.23.43.65.58 1.09.4.62-.27 1.12-.28 1.56.56l4.09 7.79c.43.83.24 1.19.03 1.4-.17.16-.6.58-.33 1.12.34.62.96.29 1.27.13.36-.19.7-.41 1.03-.63s.64-.42.97-.6c.35-.18.72-.33 1.08-.47.33-.13.64-.26.92-.4.51-.26.94-.49 1.06-.87.04-.15.03-.31-.05-.46-.22-.44-.64-.59-1.07-.4-.01 0-1.08.41-1.59-.56l-4.08-7.79c-.34-.64-.45-1.02-.12-1.34.01-.02.04-.04.06-.05.21-.2.7-.65.43-1.16-.11-.22-.27-.31-.39-.35-.07-.02-.15-.03-.22-.03zm-8.06 3.87c-.13.01-.28.04-.46.11-.92.34-1.85.72-2.76 1.1-.91.37-1.85.76-2.78 1.1-.92.35-1.88.65-2.81.96-.93.3-1.89.61-2.83.96-.6.21-.78.52-.64 1.08l.5 1.94c.02.07.03.14.05.21.05.17.09.34.14.47.11.3.43.51.91.33.57-.21.54-.6.53-.69-.19-1.75.37-2.05 2.03-2.66.26-.1.63-.22.85-.19.07.01.17.02.26.27l3.13 8.52c.3.81-.07 1.15-.7 1.62-.16.12-.31.22-.43.34-.02.02-.05.05-.09.07-.16.11-.58.39-.36.98.16.44.52.56 1.05.36.55-.2 1.1-.45 1.63-.68.54-.23 1.09-.48 1.64-.68.55-.21 1.13-.38 1.69-.54.55-.17 1.13-.34 1.68-.54.18-.07.44-.16.56-.42.07-.16.08-.34 0-.54-.21-.59-.71-.53-.9-.51-.04 0-.09.01-.11.01-.18-.01-.36 0-.55.01-.79.06-1.29.03-1.59-.78l-3.13-8.51c-.08-.22-.05-.29-.04-.31.05-.1.22-.26.83-.48 1.65-.61 2.28-.75 3.25.68.1.17.34.42.87.22.17-.06.38-.2.47-.41.07-.13.07-.27.02-.4-.05-.15-.13-.31-.2-.42 0 0-.87-1.81-.87-1.8-.24-.52-.44-.79-.84-.78zm-15.06 4.88c-.09-.01-.19 0-.3.02-.16.03-.31.14-.48.26-.08.06-.22.16-.27.17-.17.04-.46-.01-.8-.06-.64-.1-1.51-.24-2.58-.02-1.16.23-2.15.89-2.79 1.85-.61.93-.83 2.08-.61 3.15.66 3.22 3.33 3.6 5.47 3.9 1.74.24 2.82.45 3.03 1.48.1.5.02.98-.24 1.36-.29.45-.8.77-1.44.9-1.69.35-3.21-.76-4.07-1.91-.03-.04-.07-.09-.11-.15-.18-.3-.49-.79-1.06-.67-.26.05-.45.16-.56.33-.09.14-.12.32-.09.49.04.18.13.36.21.52.03.05.06.11.08.15 0 .01 1.22 2.53 1.22 2.55.23.43.7.42.92.41h.08c.36 0 .73.02 1.08.03.83.04 1.68.07 2.58-.11 1.29-.27 2.34-.95 3.03-2s.96-2.39.72-3.57c-.67-3.24-3.31-3.58-5.42-3.84-1.77-.23-2.86-.43-3.08-1.52-.07-.34-.01-.65.18-.93.26-.41.75-.7 1.34-.82 1.25-.26 2.99.57 3.64 1.75l.05.07c.23.42.5.91 1.11.78.28-.06.42-.2.5-.32s.16-.33.1-.64c-.02-.08-.07-.21-.17-.53-.22-.63-.59-1.68-.72-2.46-.04-.17-.11-.39-.31-.53-.07-.04-.15-.07-.24-.09zm-30.55.76c-.42-.06-.64.27-.99.77l-7.146 10.47c-.163.23-.299.38-.603.54-.065.03-.153.06-.252.09-.29.1-.74.25-.801.71-.032.2.011.38.113.52.174.23.449.27.674.3.35.05.702.06 1.043.07.333.01.646.02.949.06.309.05.613.13.93.21.333.09.67.18 1.02.24.271.03.912.13 1.009-.57.085-.57-.57-.85-1.201-1.13l-.193-.08c-.285-.13-.424-.06-.545-.52-.123-.45.271-.96.584-1.47.309-.5.65-.77.902-.73l2.961.42c.906.14 1.136.25 1.256.41.17.24.51 1.84.45 2.27-.05.28-.24.57-.6.59h.05c-.51-.04-.92.25-.98.69-.02.15.02.31.11.44.09.12.26.26.57.31.49.07.98.1 1.45.13.45.02.88.05 1.27.1.41.06.82.16 1.26.26.46.11.94.22 1.43.29.27.04.89.13.99-.57.08-.57-.39-.79-.85-.99 0 0-.11-.05-.11-.06-.41-.18-.58-.77-.75-1.4-.03-.14-.08-.29-.12-.43 0 0-3.3-11.21-3.31-11.22-.13-.4-.28-.68-.57-.72zm20.42.85c-.3 0-.61.02-.9.05-.29.02-.57.04-.85.05-.28 0-.56-.01-.85-.03-.3-.01-.61-.03-.91-.02-.36 0-.71.04-.93.26-.11.13-.18.29-.17.46 0 .48.4.82 1.01.84.82.04 1.21.44 1.22 1.27l.08 4.99c.01.88-.12 2.52-1.15 3.59-.66.67-1.57 1.02-2.74 1.04-1.05.01-1.98-.31-2.64-.93-.64-.63-.99-1.51-1.01-2.56l-.1-6.07c0-.42.12-.98.71-1.28.05-.03.1-.05.15-.08.27-.13.65-.31.64-.76 0-.19-.07-.35-.19-.46-.21-.21-.52-.23-.78-.22-.41 0-.82.05-1.21.09-.39.05-.76.09-1.13.1-.37 0-.74-.03-1.14-.06-.39-.04-.8-.07-1.21-.06-.7.01-1.1.06-1.33.29-.12.13-.18.29-.18.49.01.47.34.8.82.79.34-.01.6.08.78.24.21.19.32.52.33.97l.09 6.16c.03 1.92.6 3.35 1.69 4.27 1.03.87 2.49 1.27 4.5 1.24 2.33-.03 4.1-.66 5.27-1.86 1.15-1.19 1.71-2.93 1.68-5.18l-.06-4.16c-.03-1.72.16-1.8.45-1.93.07-.03.13-.05.2-.07.27-.1.72-.25.72-.78-.01-.09-.01-.32-.19-.5-.17-.17-.42-.19-.67-.18zm-22.224 3.99.944 3.29-2.866-.45z" fill="#bf5700"/></g></svg>
