<svg enable-background="new 0 0 1920 1080" viewBox="0 0 1920 1080" xmlns="http://www.w3.org/2000/svg" xmlns:xlink="http://www.w3.org/1999/xlink"><mask id="a" height="1045.3" maskUnits="userSpaceOnUse" width="1900" x="9.2" y="16.6"><path d="m9.4 16.6h1899.8v1045.1h-1899.8z" fill="#fff"/></mask><path d="m1861.6 989.7c3.8.8 6.5 4.3 6.3 8.2 0 1.9-.5 3.5-1.5 5-1 1.6-2.6 2.8-4.3 3.4-2 .7-4.1 1.1-6.2 1.1h-8.6v-18.6h8.6c1.8.1 3.6.3 5.7.9zm-6.9 26.9c3.3 0 5.9.5 7.6 1.4 1.8.9 3 2.1 3.7 3.7.9 2.4 1.4 5 1.5 7.6.3 4.9.6 7.9 1 8.8h12.4c-.6-2.5-.9-5.1-.9-7.7 0-2.5-.2-5-.6-7.5-.4-2.1-1.2-4-2.3-5.8-1-1.5-2.4-2.8-4-3.7-2-1-4.2-1.8-6.4-2.2 2.2-.2 4.4-.7 6.4-1.5 2.3-1.1 4.3-2.9 5.7-5.2s2.2-5 2.1-7.8c.1-5.4-2.6-10.5-7.2-13.4-2.5-1.5-5.2-2.5-8.1-3-3.4-.5-6.9-.7-10.4-.6h-20.9v58.3h13v-21.5h7.4zm49.8-29.4c-2.5-5.5-6-10.6-10.2-14.9-4.7-4.8-10.3-8.7-16.4-11.4-6.7-3.1-14.1-4.6-21.5-4.5-8 0-15.7 1.8-22.9 5.2-11.5 5.5-20.5 15-25.5 26.7-6.5 15.3-5.5 32.8 2.7 47.3 4.7 8.3 11.2 14.8 19.5 19.4 21.1 12.1 47.7 8.2 64.5-9.4 4.6-4.7 8.2-10.3 10.7-16.7s3.8-13 3.8-19.7c0-7.6-1.5-14.9-4.7-22zm-31.4-19.7c5.5 2.2 10.1 5.2 14.1 9.1s7.1 8.2 9.4 12.9c6.4 13.4 5.9 29.1-1.4 42.1-3.8 7-9.6 12.7-16.5 16.6-7 3.9-14.4 5.9-22.1 5.9s-15-2-22.1-5.9c-7-3.9-12.7-9.6-16.5-16.6-3.9-6.8-6-14.6-5.9-22.5 0-6.7 1.3-12.8 3.9-18.3 2.5-5.5 5.8-10.1 9.6-13.9 8.3-8.1 19.4-12.7 31-12.7 5.5 0 11 1.1 16.5 3.3zm-217-172.3-307.9-511.9h84.8v-266.7h-512.6v266.7h84.8l-117.6 195.6-117.6-195.5h84.8v-266.8h-512.6v266.7h84.8l-307.9 511.9h-109.9v266.8h522.8v-266.8h-93.9l160.4-266.7 62.2 103.5h-59.7v266.7h573.1v-266.7h-59.6l62.2-103.4 160.4 266.7h-93.9v266.7h522.7v-266.8z" fill="#7a0019" mask="url(#a)" transform="translate(.773 .704)"/><path d="m1399.6 51.5v198.4h-111.1l349.1 580.3h95v198.3h-454.4v-198.4h120.2l-220.9-367.1-122.7 203.9h85.9v198.3h-504.7v-198.3h86l-122.7-203.9-220.9 367.2h120.2v198.3h-454.4v-198.4h94.9l349.1-580.3h-111v-198.3h444.2v198.4h-111.2l178.1 296.1 178.1-296.1h-111v-198.4z" fill="#fc3"/><path d="m1365.4 85.7v130h-137.4l390.2 648.7h80.1v129.9h-386v-130h146.5l-281.3-467.7-183.2 304.5h112.2v129.9h-436.3v-129.9h112.2l-183.1-304.5-281.4 467.7h146.5v129.9h-386v-129.9h80.1l390.2-648.7h-137.3v-130h375.8v130h-137.4l238.6 396.6 238.6-396.5h-137.4v-130z" fill="#7a0019"/></svg>
