<svg enable-background="new 0 0 134 133" fill="#fff" height="133" viewBox="0 0 134 133" width="134" xmlns="http://www.w3.org/2000/svg"><path d="m107.844 106.293c.131.359.367.64.707.845.34.206.799.308 1.381.308.494 0 .937-.073 1.33-.223.394-.148.803-.365 1.23-.652.428-.285.742-.545.941-.779.278-.338.524-.824.736-1.461.213-.637.319-1.276.319-1.915 0-.337-.042-.647-.125-.931s-.212-.525-.388-.729-.438-.368-.785-.494c-.346-.127-.729-.191-1.149-.191-.503 0-.978.098-1.425.289-.447.193-.857.438-1.23.733-.375.295-.635.533-.781.714-.234.288-.453.76-.656 1.413-.202.655-.305 1.284-.305 1.89.001.429.067.824.2 1.183zm1.854-3.471c.218-.815.466-1.368.745-1.659.279-.29.613-.437 1.005-.437.381 0 .69.135.928.4s.354.697.354 1.293c0 .703-.102 1.439-.307 2.212-.143.528-.298.942-.466 1.242-.169.3-.354.518-.558.651-.203.135-.444.201-.723.201-.416 0-.738-.129-.965-.388s-.341-.688-.341-1.289c.002-.667.11-1.41.328-2.226zm6.728-1.718c.346 0 .666.002.959.006l-1.059 5.476c-.279 1.498-.504 2.481-.675 2.95-.089.234-.192.396-.312.486-.119.09-.251.135-.393.135-.146 0-.279-.051-.398-.152-.121-.102-.232-.27-.335-.503l-.233.044c-.055.263-.114.507-.18.729-.066.223-.168.515-.306.877.201.082.386.123.558.123.229 0 .469-.065.717-.197.475-.25.941-.641 1.404-1.176.461-.535.829-1.151 1.105-1.853.275-.7.609-1.839 1-3.416l.811-3.522c.162-.004.407-.006.735-.006.522 0 .899.002 1.13.006.049-.24.125-.492.229-.756l-.074-.119c-.156.029-.395.055-.713.073-.524.035-.853.05-.984.044h-.168c.111-.647.256-1.297.432-1.945.068-.243.137-.424.202-.541.066-.116.155-.209.269-.277.111-.068.229-.104.352-.104.156 0 .332.064.528.191.194.127.396.346.601.652l.221-.043c.082-.588.219-1.211.414-1.87-.205-.078-.406-.117-.602-.117-.298 0-.529.035-.693.106-.162.07-.505.293-1.025.67-.521.375-.993.761-1.418 1.156-.274.258-.478.51-.608.754-.083.155-.171.443-.264.862-.039.187-.071.315-.095.388-.205.095-.469.187-.789.277-.322.092-.561.166-.717.225l-.065.373c.115-.005.262-.006.439-.006z"/><path d="m14.817 117.597h-1.328c-.02.896-.075 1.47-.166 1.722-.06.191-.155.308-.286.348-.342.121-1.166.181-2.472.181-.452 0-1.321-.034-2.607-.106v-2.104c0-2.616.057-4.427.172-5.43.282-.019.813-.041 1.594-.068.781-.026 1.257-.041 1.428-.041.887 0 1.66.058 2.32.173s1.08.233 1.262.354c.06.029.105.08.136.15.04.09.07.354.091.795.05.842.075 1.383.075 1.623h1.234c.01-.666.056-1.444.136-2.332.08-.889.176-1.621.286-2.195l-.136-.213c-.909-.101-1.873-.151-2.892-.151l-7.284.142-5.375-.11v1.266c.976.062 1.573.116 1.791.167.219.051.361.104.428.159.065.056.114.14.144.25.092.323.147.874.168 1.651.094 2.688.141 4.103.141 4.244v6.274c0 .536-.026 1.417-.078 2.646-.053 1.228-.094 1.957-.124 2.189-.051.404-.123.667-.214.788-.061.081-.137.136-.228.167-.184.07-.859.116-2.028.137v1.25c1.861-.074 3.222-.109 4.082-.109l5.949.109v-1.203c-1.403-.102-2.195-.185-2.376-.25-.182-.065-.308-.153-.379-.265-.101-.161-.18-.724-.237-1.687-.058-.963-.086-2.639-.086-5.027v-1.68c.573-.01.974-.014 1.206-.014 1.607 0 2.783.065 3.526.196.292.06.472.156.543.287.141.262.226 1.022.256 2.282h1.328c0-2.664 0-4.851 0-6.565zm8.427 13.781c.655 0 1.815.021 3.479.063 2.189.051 3.374.078 3.556.078 1.291 0 2.244-.027 2.86-.078.292-.031.585-.09.877-.172.01-.193.056-.768.137-1.726l.38-3.058c0-.049.015-.217.046-.498h-1.25c-.192.992-.389 1.875-.591 2.646-.091.304-.177.491-.258.562s-.328.138-.742.199c-1.141.176-2.479.266-4.015.266-.505 0-1.454-.037-2.848-.11-.01-.303-.018-1.163-.023-2.58-.005-1.418-.013-2.848-.023-4.291-.011-2.735-.016-4.192-.016-4.375 0-1.694.024-3.098.071-4.207.046-1.11.095-1.733.145-1.87.051-.136.131-.234.242-.295.252-.131.949-.222 2.089-.271v-1.329c-1.645.073-3.385.11-5.221.11-1.645 0-3.107-.037-4.389-.11v1.329c1.316.05 2.091.15 2.323.303.112.061.188.15.228.271.091.273.154 1.358.189 3.256.017.748.026 2.717.026 5.906 0 2.172-.021 4.031-.062 5.58-.042 1.551-.088 2.451-.138 2.704-.01.06-.035.116-.076.166-.06.081-.195.183-.406.304-.472.282-.838.479-1.099.59v.779c2.017-.095 3.52-.142 4.509-.142zm13.056-4.204c.928 1.605 2.207 2.818 3.836 3.643 1.629.822 3.579 1.233 5.848 1.233 2.098 0 3.964-.338 5.599-1.015 1.19-.504 2.252-1.227 3.185-2.166.933-.938 1.641-2.014 2.126-3.225.655-1.625.983-3.387.983-5.285 0-1.121-.113-2.145-.34-3.074-.227-.928-.563-1.781-1.007-2.559-.443-.777-1.092-1.537-1.944-2.279-.852-.741-1.833-1.31-2.943-1.703-1.493-.514-3.157-.772-4.993-.772-1.846 0-3.551.269-5.114.804-1.221.424-2.351 1.114-3.39 2.073s-1.838 2.125-2.398 3.498-.84 2.984-.84 4.831c0 2.392.464 4.39 1.392 5.996zm3.968-11.389c.47-1.354 1.222-2.379 2.256-3.071 1.035-.692 2.289-1.039 3.763-1.039 1.292 0 2.329.218 3.111.653.782.434 1.461 1.063 2.036 1.888s1.017 1.823 1.325 2.996.462 2.467.462 3.883c0 2.063-.285 3.817-.856 5.263-.57 1.446-1.357 2.474-2.361 3.08-1.005.606-2.143.909-3.414.909-1.373 0-2.564-.317-3.573-.955-1.01-.637-1.837-1.727-2.483-3.269s-.969-3.491-.969-5.848c0-1.638.234-3.134.703-4.49zm19.813-3.885c.1.061.175.146.225.256.1.254.16 1.011.18 2.272l.078 3.194v5.617l-.125 4.422c-.03.798-.08 1.393-.151 1.787-.03.211-.073.353-.128.424-.055.07-.143.121-.264.15-.211.071-.889.127-2.035.168v1.328c1.341-.074 2.798-.109 4.37-.109 1.765 0 3.509.035 5.235.109v-1.328c-.969-.021-1.554-.051-1.756-.092-.202-.039-.348-.093-.439-.158s-.156-.139-.197-.22c-.08-.172-.136-.539-.166-1.104-.021-.282-.052-1.461-.094-3.539-.031-1.694-.047-3.297-.047-4.811 0-.958.032-2.863.094-5.718.031-1.274.063-2.093.094-2.457.474-.08.954-.121 1.439-.121 1.091 0 1.849.076 2.273.228.657.242 1.208.67 1.652 1.287.444.614.667 1.387.667 2.315 0 .918-.213 1.748-.637 2.49-.424.741-.945 1.256-1.562 1.544-.617.287-1.532.411-2.745.37l-.166.5c.302.222.615.555.939.998.646.877 1.433 2.081 2.362 3.614l3.24 5.338c.192.354.313.641.364.863.797-.043 1.599-.063 2.407-.063.695 0 1.82.021 3.375.063v-1.328c-.475-.011-.793-.051-.954-.121-.162-.069-.328-.194-.5-.375-.171-.181-.636-.771-1.394-1.771-.05-.07-.388-.57-1.014-1.502l-2.348-3.498c-.061-.09-.118-.186-.174-.285s-.244-.386-.567-.855c-.323-.471-.611-.932-.863-1.381 1.577-.586 2.745-1.379 3.504-2.379.759-.998 1.138-2.109 1.138-3.332 0-1.029-.277-1.902-.834-2.619-.555-.717-1.226-1.188-2.013-1.416-.786-.227-1.973-.34-3.558-.34-.817 0-1.852.028-3.103.086-.757.047-1.666.069-2.725.069-1.242 0-2.201-.012-2.877-.036-1.382-.049-2.19-.072-2.422-.072v1.233c1.242.083 1.982.184 2.222.305zm24.148-1.459c-1.648 0-3.108-.037-4.381-.11v1.329c1.102.039 1.741.082 1.918.129.178.045.299.103.364.174.066.07.114.171.144.303.072.323.133 1.126.183 2.409.021.576.032 1.869.032 3.879v6.334c0 1.03-.042 2.151-.125 3.363-.051.829-.092 1.304-.122 1.425-.021.091-.067.171-.144.242-.076.07-.221.126-.432.167-.162.03-.768.065-1.818.106v1.328c1.272-.074 2.723-.109 4.35-.109 1.869 0 3.628.035 5.275.109v-1.328c-.998-.021-1.601-.054-1.81-.1-.208-.045-.36-.105-.457-.182-.097-.075-.166-.184-.206-.325-.102-.313-.152-.99-.152-2.031l-.047-2.772v-6.106c0-.192.021-1.53.063-4.015.01-.728.025-1.223.046-1.485.03-.485.082-.813.153-.985.029-.101.086-.184.168-.25.08-.065.218-.121.412-.166.192-.045.803-.084 1.83-.113v-1.329c-1.648.072-3.396.109-5.244.109zm11.71 20.969 4.494.109c2.037 0 3.775-.226 5.219-.675 1.441-.448 2.779-1.185 4.016-2.203 1.235-1.02 2.206-2.286 2.912-3.802.705-1.516 1.059-3.236 1.059-5.165 0-1.515-.237-2.907-.711-4.181-.283-.756-.699-1.463-1.248-2.119-.551-.656-1.224-1.225-2.02-1.704-.797-.479-1.732-.828-2.807-1.045-1.074-.218-2.504-.326-4.289-.326-.776 0-1.811.019-3.102.054-1.785.059-3 .088-3.646.088l-5.49-.11v1.219c1.096.142 1.729.233 1.9.272.17.041.295.102.377.183.05.05.09.121.121.212.1.395.164 1.303.195 2.727.053 2.574.078 4.528.078 5.861v2.484c0 3.04-.059 5.236-.172 6.589-.32.233-.67.456-1.049.669-.2.111-.34.191-.42.243v.729zm1.309-7.705v-3.477c0-3.959.053-6.654.156-8.084.939-.136 1.796-.203 2.572-.203 2.069 0 3.613.181 4.633.545 1.019.362 1.861.948 2.527 1.756.666.807 1.146 1.748 1.438 2.822.293 1.075.439 2.188.439 3.338 0 1.262-.146 2.438-.439 3.527-.292 1.09-.703 2.028-1.232 2.814-.531.787-1.082 1.384-1.658 1.787-.576.404-1.246.711-2.014.924-1.039.281-2.23.423-3.572.423-.857 0-1.754-.078-2.693-.233-.104-.956-.157-2.937-.157-5.939zm17.173 7.705 3.489.109v-1.25c-1.201-.041-1.922-.132-2.163-.272-.161-.101-.241-.271-.241-.513 0-.342.252-1.205.754-2.594l.662-1.81h7.814l1.296 3.317c.231.573.348.985.348 1.237 0 .201-.077.345-.233.429-.157.086-.846.154-2.066.205v1.25l5.311-.109 4.205.109v-1.25c-.293-.031-.515-.056-.666-.076-.474-.031-.769-.065-.885-.106-.115-.04-.22-.101-.31-.181-.091-.082-.187-.213-.288-.395l-.605-1.393-.938-2.074-6.762-15.807h-2.156l-1.332 3.437-3.948 9.75c-.747 1.849-1.251 3.084-1.513 3.71-.575 1.332-.922 2.102-1.037 2.309-.116.207-.23.358-.34.455-.111.096-.245.166-.401.211-.155.045-.644.099-1.46.16v1.25zm6.319-15.913 3.242 7.834c-.922.032-1.963.047-3.125.047-1.204 0-2.281-.015-3.231-.047z"/><path d="m1.834 98.107c.085.063.139.117.16.164.038.086.064.221.077.406.021.475.031 1.008.031 1.6v1.613l-.006 1.219c0 .67.01 1.08.032 1.232.029.246.112.501.247.766.136.265.332.504.591.717.258.214.59.385.997.512.559.173 1.16.26 1.803.26.551 0 1.035-.059 1.454-.178.42-.118.781-.294 1.086-.527.305-.232.541-.492.708-.781.167-.287.279-.635.334-1.041.055-.405.082-.799.082-1.181v-1.491c0-.44.015-1.041.043-1.804.029-.762.059-1.19.091-1.286.032-.095.073-.16.124-.193.101-.063.349-.096.742-.096v-.523l-1.409.041c-.076.004-.133.006-.171.006-.144 0-.599-.016-1.365-.047v.523c.469.014.774.055.914.127.067.034.116.086.146.152.046.109.076.432.088.966.006.246.008.927.008 2.045v1.296c0 .902-.074 1.514-.222 1.836-.148.321-.397.584-.746.784-.349.201-.818.302-1.407.302-.512 0-.934-.074-1.266-.226-.333-.149-.579-.347-.74-.59-.161-.244-.26-.565-.298-.963-.017-.183-.026-.66-.026-1.435l-.006-.744v-1.474c0-.894.029-1.471.086-1.733.021-.11.064-.185.128-.223.123-.081.414-.121.872-.121v-.523l-.235.008-.858.023-.857.016-2.065-.047v.523zm11.286 8.27c.705-.031 1.265-.047 1.677-.047.111 0 .568.008 1.372.023v-.516c-.059.004-.101.007-.126.007-.127 0-.329-.017-.604-.051-.101-.013-.172-.035-.212-.067-.04-.031-.069-.072-.086-.123-.034-.105-.059-.404-.076-.896-.031-.711-.047-1.396-.047-2.052v-3.162c2.508 3.061 4.445 5.354 5.812 6.883.369.051.733.105 1.09.164l.082-.057c-.057-.602-.085-2.31-.085-5.125 0-.359.009-.918.027-1.674.018-.755.059-1.238.122-1.451.013-.041.036-.074.07-.095.098-.063.405-.102.921-.114v-.531c-.66.031-1.199.047-1.618.047-.432 0-.906-.016-1.422-.047v.531c.563.008.893.051.99.127.06.047.098.148.115.306.05.401.076 1.741.076 4.021v1.467c-.588-.604-1.328-1.442-2.221-2.515-1.239-1.485-2.294-2.798-3.165-3.937l-.585.023-.92.023c-.254 0-.65-.016-1.187-.047v.531c.447.029.718.058.811.082.093.026.159.062.199.105.04.045.071.113.092.207.021.093.034.294.038.604l.032 1.848v2.039c0 .563-.009 1.021-.026 1.371-.035.619-.066 1.009-.092 1.17-.021.117-.047.197-.079.234-.032.038-.071.066-.118.082-.072.022-.358.045-.857.07zm14.632-8.836c-.69 0-1.302-.016-1.835-.047v.563c.459.018.725.035.799.055.073.019.124.043.151.072s.047.072.06.127c.029.135.055.471.076 1.008.01.241.015.783.015 1.625v2.651c0 .431-.018.899-.054 1.408-.021.347-.038.545-.051.596-.008.038-.028.072-.06.103-.031.029-.091.053-.179.068-.068.014-.32.028-.757.045v.563c.533-.031 1.141-.047 1.822-.047.783 0 1.519.016 2.209.047v-.563c-.418-.009-.671-.021-.759-.041-.087-.02-.151-.045-.192-.076-.04-.031-.069-.078-.086-.137-.043-.131-.064-.414-.064-.85l-.016-1.161v-2.556c0-.08.009-.641.027-1.682.004-.304.011-.512.02-.621.013-.203.034-.341.064-.412.012-.043.036-.078.07-.105s.091-.05.172-.068c.08-.02.335-.035.764-.049v-.563c-.69.031-1.422.047-2.196.047zm10.138 8.883c.257-.723.75-1.956 1.478-3.697l.856-2.044.451-1.053c.363-.871.602-1.351.716-1.44.068-.051.307-.095.717-.133v-.563l-1.37.047-1.612-.047v.563c.19.004.423.02.698.044.123.009.199.019.229.032.038.018.068.043.092.079.023.036.035.09.035.162 0 .051-.005.102-.013.151-.043.174-.159.515-.349 1.021-.267.72-.418 1.12-.451 1.201l-1.411 3.492-1.606-3.918c-.017-.047-.031-.086-.041-.117-.011-.032-.097-.243-.257-.633-.28-.676-.419-1.078-.419-1.205 0-.063.018-.114.054-.155.036-.04.1-.07.193-.093.161-.037.419-.059.775-.063v-.563l-2.279.047c-.22 0-.838-.016-1.854-.047v.563c.398.01.66.047.787.114.085.047.209.231.372.555.162.324.597 1.329 1.304 3.017l.901 2.15c.33.799.675 1.643 1.035 2.531h.969zm9.183-.102c.38 0 1.074.008 2.08.023l1.021.023c.499 0 .884-.016 1.155-.047l.081-.082c0-.541.046-1.229.138-2.066h-.524c-.084.566-.164.95-.24 1.152-.025.06-.053.098-.082.115-.089.055-.326.097-.711.125-.386.03-.806.045-1.261.045-.468 0-.872-.016-1.214-.047-.01-.213-.015-.468-.015-.765v-2.657c.268-.031.609-.047 1.022-.047.46 0 .837.023 1.131.07.132.021.223.072.274.158.068.113.1.414.096.904h.516l-.031-1.388.031-1.394h-.516c-.008.377-.038.645-.088.806-.021.063-.052.106-.092.133-.04.024-.173.04-.4.044-.602.018-.951.025-1.047.025-.312 0-.61-.01-.896-.031v-1.309c0-.74.028-1.352.086-1.832.392-.031.775-.047 1.15-.047.401 0 .81.023 1.227.069.282.03.451.063.506.103.033.024.059.067.075.127.03.113.049.421.057.92h.493c.038-.547.059-.852.063-.915l.122-.916-.045-.083c-.097-.027-.167-.041-.209-.041-.465-.018-.774-.025-.926-.025l-1.287.032c-.71.013-1.355.019-1.934.019-.266 0-.545.002-.837.002l-1.471.014v.492c.497.025.802.063.917.115.042.021.074.053.096.094.046.106.076.397.089.875.01.716.015 1.127.015 1.238v2.854c0 .33-.017.858-.052 1.586-.017.397-.039.685-.065.862-.159.127-.365.25-.617.369v.342c1.311-.028 2.017-.044 2.119-.044zm8.347-8.177c.041.025.073.062.094.108.042.106.067.423.076.952l.031 1.34v2.355l-.055 1.854c-.013.335-.034.585-.063.75-.013.089-.03.148-.054.177-.023.03-.06.052-.11.063-.088.031-.372.054-.851.07v.563c.562-.031 1.172-.047 1.831-.047.74 0 1.471.016 2.195.047v-.563c-.406-.009-.652-.021-.736-.037-.085-.018-.146-.039-.185-.067-.038-.028-.065-.058-.082-.093-.034-.071-.057-.227-.07-.463-.008-.119-.02-.614-.036-1.487-.013-.712-.019-1.386-.019-2.021 0-.402.013-1.203.039-2.402.013-.532.026-.875.04-1.027.198-.034.399-.051.602-.051.456 0 .773.031.951.096.275.102.505.282.691.541.186.258.279.583.279.973 0 .387-.089.735-.267 1.047s-.396.528-.654.648c-.258.121-.642.174-1.15.156l-.07.21c.127.093.259.233.394.419.271.368.601.874.991 1.518l1.359 2.241c.08.149.131.269.152.362.334-.016.671-.023 1.009-.023.292 0 .764.008 1.416.023v-.563c-.199-.004-.333-.021-.4-.051-.068-.029-.138-.081-.21-.156-.072-.076-.267-.324-.584-.744-.021-.028-.163-.238-.425-.629l-.985-1.468c-.025-.038-.049-.077-.073-.12-.023-.041-.102-.16-.238-.357-.135-.198-.256-.391-.362-.58.66-.245 1.148-.578 1.465-.997s.476-.886.476-1.397c0-.432-.117-.799-.349-1.099-.233-.301-.514-.499-.844-.594-.329-.095-.826-.144-1.49-.144-.342 0-.776.012-1.3.035-.317.018-.698.027-1.141.027-.52 0-.922-.006-1.205-.016-.58-.021-.918-.031-1.015-.031v.523c.52.036.831.078.932.129zm16.391.628c.026-.264.069-.533.127-.808l-.051-.151c-.309-.151-.674-.268-1.095-.349-.422-.08-.856-.12-1.305-.12-.433 0-.854.049-1.265.143-.411.096-.778.254-1.104.474-.326.219-.589.528-.788.929-.199.4-.298.838-.298 1.311 0 .339.055.654.165.949.11.293.276.545.499.752.222.207.515.365.879.476.242.071.746.188 1.512.349.533.123.906.241 1.118.356.211.114.367.266.467.457.1.19.149.419.149.687 0 .317-.071.6-.214.85-.141.25-.37.447-.686.589-.316.141-.674.212-1.076.212-.461 0-.888-.1-1.277-.299s-.665-.432-.826-.694c-.055-.454-.078-.834-.07-1.14h-.531c-.004.986-.072 1.722-.203 2.203.487.237.933.406 1.339.502.406.098.869.146 1.39.146.71 0 1.32-.102 1.827-.305.318-.126.626-.318.927-.574.3-.256.535-.538.704-.848.225-.409.337-.885.337-1.428 0-.308-.041-.586-.12-.834-.08-.246-.184-.453-.309-.615-.124-.162-.293-.307-.504-.432s-.488-.232-.831-.32c-.131-.029-.415-.082-.853-.158s-.779-.141-1.024-.191c-.322-.084-.565-.178-.729-.279-.166-.102-.292-.238-.382-.412-.088-.174-.135-.4-.139-.68 0-.39.158-.729.473-1.02.316-.29.763-.436 1.339-.436.402 0 .766.072 1.09.215.324.145.551.31.684.496.033.203.055.549.063 1.039h.532c.012-.431.031-.778.059-1.042zm5.637-1.232c-.69 0-1.302-.016-1.835-.047v.563c.459.018.725.035.799.055.073.019.124.043.15.072.027.029.048.072.061.127.029.135.055.471.076 1.008.01.241.015.783.015 1.625v2.651c0 .431-.018.899-.054 1.408-.021.347-.038.545-.051.596-.008.038-.028.072-.061.103-.031.029-.091.053-.179.068-.067.014-.319.028-.757.045v.563c.533-.031 1.14-.047 1.822-.047.783 0 1.519.016 2.209.047v-.563c-.418-.009-.672-.021-.76-.041-.086-.02-.15-.045-.191-.076s-.069-.078-.086-.137c-.043-.131-.064-.414-.064-.85l-.016-1.161v-2.556c0-.08.009-.641.027-1.682.004-.304.01-.512.02-.621.012-.203.033-.341.063-.412.014-.043.037-.078.071-.105.033-.027.091-.05.172-.068.08-.02.335-.035.765-.049v-.563c-.69.031-1.421.047-2.196.047zm8.818 8.781c.563 0 1.256.019 2.078.055v-.523c-.51-.017-.813-.052-.91-.104-.099-.054-.162-.134-.191-.244-.047-.187-.071-.735-.071-1.649v-3.802c0-1.011.007-1.591.019-1.739h.91c.486 0 .903.018 1.25.051.11.009.179.023.203.045.03.029.058.119.084.272.045.3.073.615.082.944h.523c.012-.893.021-1.355.025-1.391.008-.193.031-.42.067-.679l-.063-.063c-.198.021-.395.035-.59.043-.358.014-1.07.02-2.136.02h-2.562c-1.035 0-1.735-.006-2.098-.02-.225-.008-.436-.022-.635-.043l-.057.063c.029.216.05.417.063.603.004.111.014.6.031 1.467h.523c.008-.367.039-.699.095-.995.022-.123.047-.197.077-.222.021-.021.101-.038.24-.051.349-.029.752-.045 1.209-.045h.91c.01.123.016.702.016 1.739v3.802c0 .914-.024 1.461-.07 1.644-.034.118-.1.202-.193.253-.097.051-.399.085-.908.102v.523c.784-.037 1.476-.056 2.079-.056zm10.394-6.383c-.305-.596-.611-1.121-.919-1.578-.208-.31-.371-.52-.489-.631-.117-.113-.307-.24-.564-.385-.241.064-.476.121-.705.171l-1.344.267v.477c.317 0 .504.014.559.038.089.047.238.185.451.412.316.347.66.808 1.027 1.383.453.706.879 1.423 1.276 2.149.161.306.241.507.241.604v1.205c0 .339-.01.749-.031 1.23-.014.211-.035.338-.066.382-.031.042-.09.073-.172.095s-.365.04-.848.057v.563c.65-.031 1.294-.047 1.929-.047.651 0 1.38.016 2.188.047v-.563c-.471-.009-.752-.025-.84-.051-.09-.025-.153-.063-.192-.113-.038-.052-.071-.199-.099-.444s-.041-.638-.041-1.175v-1.071c0-.22.011-.378.031-.476.029-.136.092-.295.185-.477.14-.266.507-.865 1.101-1.796.594-.933 1.147-1.742 1.66-2.433v-.285h-1.003c-.06.123-.205.387-.438.793-.666 1.183-1.067 1.891-1.203 2.123l-.799 1.293c-.102-.219-.4-.807-.895-1.764z"/><path d="m95.329 74.697v-22.789l20.998.001v-15.026h-20.998v-21.287h23.057v8.259h15.207v-23.159h-60.892v14.9h5.702v59.101h-5.682v15.025h28.106v-15.025z"/><path d="m65.586 56.077v-40.485h5.627v-14.896h-28.166v14.896h5.492v35.45c0 14.858-1.717 21.999-12.387 21.999s-12.387-7.141-12.387-21.999v-35.45h5.45v-14.896h-28.208v14.896h5.587v40.485c0 8.841 0 16.085 4.17 22.594 4.661 7.368 13.123 12.052 25.388 12.052 21.708 0 29.434-11.315 29.434-34.646z"/></svg>
