<svg xmlns="http://www.w3.org/2000/svg" width="100%" height="100%" viewBox="0 0 90 128" fill-rule="evenodd" stroke-linejoin="round" stroke-miterlimit="2" xmlns:v="https://vecta.io/nano"><path d="M56.506 39.296c4.002-1.454 8.984-1.776 13.198-1.302-.894 1.748.046 3.365-1.802 4.62-3.841-.15-7.412.692-11.128 1.567l-.268-4.885z" fill="url(#A)" fill-rule="nonzero" transform="translate(-18.947 -10.524)"/><path d="M37.559 28.772c4.002-1.454 8.984-1.776 13.198-1.302-.894 1.748.046 3.365-1.802 4.62-3.841-.15-7.412.692-11.128 1.567-10.461 3.603-19.112 9.316-25.326 18.639-3.19 4.785-6.811 11.521-5.601 17.44 1.939 9.484 15.023 13.453 23.2 15.102 5.055 1.019 10.321 1.38 15.295 2.717a28.93 28.93 0 0 1 8.442 3.719c4.317 2.847 7.462 7.069 8.489 12.189.995 4.956.113 10.176-2.711 14.406-3.15 4.719-7.946 7.699-13.464 8.802-7.845 1.569-17.13-2.422-23.522-6.705-11.277-7.599-19.07-19.37-21.661-32.719-2.619-13.126.127-26.753 7.624-37.84 6.309-9.374 17.675-18.428 28.967-20.635zM4.797 77.604l.063.025c1.328.549 2.935 2.881 4.163 3.821 3.571 2.735 7.646 4.714 11.9 6.14 3.611 1.211 7.38 2.059 11.129 2.711 7.269 1.265 15.422 1.661 21.168 6.889 2.715 2.471 4.462 5.935 4.617 9.626.175 4.156-1.662 7.946-4.409 10.96-2.543 2.368-5.609 3.85-9.071 4.249-.533.061-1.072.095-1.614.103l-.181.002c-7.12.032-14.846-4.307-20.154-8.535A45.69 45.69 0 0 1 5.991 87.223c-.653-3.173-.827-6.407-1.194-9.619z" fill="#333232"/><g fill-rule="nonzero"><g transform="translate(-18.947 -10.524)"><path d="M47.61 37.19c-1.932-5.068-1.956-10.053.257-15.031a19.48 19.48 0 0 1 11.038-10.335c6.623-2.516 13.556-1.079 19.812 1.748a50.33 50.33 0 0 1 26.765 28.567c4.716 12.63 4.188 26.621-1.467 38.86-.735 1.623-3.194 6.909-4.569 7.793-1.885 3.477-5.161 6.62-8.111 9.215-1.148-1.357-3.168-1.459-4.016-2.956 3.08-2.476 5.575-5.501 8.092-8.522 3.857-5.939 6.806-12.16 7.898-19.212 1.54-9.939-.144-20.524-5.024-29.34-1.71-3.089-3.812-5.9-5.895-8.742.195 1.184.314 2.352.319 3.553.067 15.693-12.804 27.94-25.11 35.711-5.533 3.494-11.173 5.834-15.87 10.58-1.765 1.983-3.202 4.121-4.49 6.439-1.537-.592-3.054-.882-4.667-1.167.451-.665.748-1.525 1.129-2.246 1.138-2.157 2.327-4.018 3.995-5.809 4.449-5.003 10.115-7.747 15.775-11.081 6.527-3.844 12.93-8.729 17.519-14.814 1.18-1.337 2.161-2.848 3.088-4.365 2.994-5.298 4.849-11.506 3.173-17.571-1.123-4.066-3.77-6.874-7.384-8.902-5.255-2.948-11.839-5.32-17.87-3.635-3.83 1.07-7.233 3.584-9.175 7.08-2.038 3.671-2.29 7.814-1.134 11.796.104.359.204.721.33 1.073-1.472.593-2.824 1.084-4.408 1.313z" fill="url(#B)"/><path d="M95.411 86.529l-.014.086c-.236 1.349-1.902 2.398-1.637 3.562.651.597 1.497 1.232 2.427 1.201.482-.016.93-.253 1.253-.61.581-.641 1.177-1.67 2.006-1.976-1.885 3.477-5.161 6.62-8.111 9.215-1.148-1.357-3.168-1.459-4.016-2.956 3.08-2.476 5.575-5.501 8.092-8.522z" fill="url(#C)"/></g><path d="M28.749 65.772c.998 1.196 2.294 2.415 4.033 2.783-1.765 1.983-3.202 4.121-4.49 6.439-1.537-.592-3.054-.882-4.667-1.167.451-.665.748-1.525 1.129-2.246 1.138-2.157 2.327-4.018 3.995-5.809z" fill="#929192"/><path d="M76.26 39.772c1.186.554 2.373 1.142 3.391 1.977 1.158.95 3.344 3.81 4.427 4.287-.927 1.517-1.908 3.028-3.088 4.365-1.811-2.238-3.134-4.05-5.571-5.68 1.076-1.209-.145-3.351.841-4.949z" fill="url(#D)" transform="translate(-18.947 -10.524)"/><path d="M65.557 86.668l2.815-2.141c.848 1.497 2.868 1.599 4.016 2.956l-2.548 2.174c-.937.901-2.195 1.597-3.372 2.129l-6.161-1.642 5.25-3.476z" fill="#cac8c9"/><path d="M65.557 86.668l2.815-2.141c.848 1.497 2.868 1.599 4.016 2.956l-2.548 2.174c-1.825-.456-3.279-1.412-4.283-2.989z" fill="#929192"/><path d="M69.704 37.994c2.256.378 4.448.865 6.556 1.778-.986 1.598.235 3.74-.841 4.949-2.33-1.199-4.936-1.786-7.517-2.107 1.848-1.255.908-2.872 1.802-4.62z" fill="url(#E)" transform="translate(-18.947 -10.524)"/></g><defs><linearGradient id="A" x1="63.486" y1="40.154" x2="69.011" y2="40.083" href="#F"><stop offset="0" stop-color="#616060"/><stop offset="1" stop-color="#807f7f"/></linearGradient><linearGradient id="B" x1="96.356" y1="26.022" x2="50.798" y2="83.919" href="#F"><stop offset="0" stop-color="#303030"/><stop offset="1" stop-color="#4e4d4d"/></linearGradient><linearGradient id="C" x1="94.28" y1="91.135" x2="89.451" y2="96.545" href="#F"><stop offset="0" stop-color="#747373"/><stop offset="1" stop-color="#8a898a"/></linearGradient><linearGradient id="D" x1="75.493" y1="44.317" x2="82.917" y2="45.047" href="#F"><stop offset="0" stop-color="#bcbbbb"/><stop offset="1" stop-color="#e8e7e8"/></linearGradient><linearGradient id="E" x1="69.254" y1="41.232" x2="75.012" y2="41.26" href="#F"><stop offset="0" stop-color="#878686"/><stop offset="1" stop-color="#b3b1b1"/></linearGradient><linearGradient id="F" gradientUnits="userSpaceOnUse"/></defs></svg>
