<svg class="main-svg" xmlns="http://www.w3.org/2000/svg" xmlns:xlink="http://www.w3.org/1999/xlink" width="1000" height="500" style="" viewBox="0 0 1000 500"><rect x="0" y="0" width="1000" height="500" style="fill: rgb(0, 0, 0); fill-opacity: 0;"/><defs id="defs-91a9b6"><g class="clips"><clipPath id="clip91a9b6xyplot" class="plotclip"><rect width="925" height="385"/></clipPath><clipPath class="axesclip" id="clip91a9b6x"><rect x="55" y="0" width="925" height="500"/></clipPath><clipPath class="axesclip" id="clip91a9b6y"><rect x="0" y="60" width="1000" height="385"/></clipPath><clipPath class="axesclip" id="clip91a9b6xy"><rect x="55" y="60" width="925" height="385"/></clipPath></g><g class="gradients"/><g class="patterns"/></defs><g class="bglayer"><rect class="bg" x="55" y="60" width="925" height="385" style="fill: rgb(17, 17, 17); fill-opacity: 1; stroke-width: 0;"/></g><g class="layer-below"><g class="imagelayer"/><g class="shapelayer"/></g><g class="cartesianlayer"><g class="subplot xy"><g class="layer-subplot"><g class="shapelayer"/><g class="imagelayer"/></g><g class="minor-gridlayer"><g class="x"/><g class="y"/></g><g class="gridlayer"><g class="x"><path class="xgrid crisp" transform="translate(108.9,0)" d="M0,60v385" style="stroke: rgb(40, 52, 66); stroke-opacity: 1; stroke-width: 1px;"/><path class="xgrid crisp" transform="translate(236.98,0)" d="M0,60v385" style="stroke: rgb(40, 52, 66); stroke-opacity: 1; stroke-width: 1px;"/><path class="xgrid crisp" transform="translate(493.14,0)" d="M0,60v385" style="stroke: rgb(40, 52, 66); stroke-opacity: 1; stroke-width: 1px;"/><path class="xgrid crisp" transform="translate(621.22,0)" d="M0,60v385" style="stroke: rgb(40, 52, 66); stroke-opacity: 1; stroke-width: 1px;"/><path class="xgrid crisp" transform="translate(749.3,0)" d="M0,60v385" style="stroke: rgb(40, 52, 66); stroke-opacity: 1; stroke-width: 1px;"/><path class="xgrid crisp" transform="translate(877.38,0)" d="M0,60v385" style="stroke: rgb(40, 52, 66); stroke-opacity: 1; stroke-width: 1px;"/></g><g class="y"><path class="ygrid crisp" transform="translate(0,405.93)" d="M55,0h925" style="stroke: rgb(40, 52, 66); stroke-opacity: 1; stroke-width: 1px;"/><path class="ygrid crisp" transform="translate(0,366.86)" d="M55,0h925" style="stroke: rgb(40, 52, 66); stroke-opacity: 1; stroke-width: 1px;"/><path class="ygrid crisp" transform="translate(0,327.8)" d="M55,0h925" style="stroke: rgb(40, 52, 66); stroke-opacity: 1; stroke-width: 1px;"/><path class="ygrid crisp" transform="translate(0,288.73)" d="M55,0h925" style="stroke: rgb(40, 52, 66); stroke-opacity: 1; stroke-width: 1px;"/><path class="ygrid crisp" transform="translate(0,249.66)" d="M55,0h925" style="stroke: rgb(40, 52, 66); stroke-opacity: 1; stroke-width: 1px;"/><path class="ygrid crisp" transform="translate(0,210.59)" d="M55,0h925" style="stroke: rgb(40, 52, 66); stroke-opacity: 1; stroke-width: 1px;"/><path class="ygrid crisp" transform="translate(0,171.53)" d="M55,0h925" style="stroke: rgb(40, 52, 66); stroke-opacity: 1; stroke-width: 1px;"/><path class="ygrid crisp" transform="translate(0,132.45999999999998)" d="M55,0h925" style="stroke: rgb(40, 52, 66); stroke-opacity: 1; stroke-width: 1px;"/><path class="ygrid crisp" transform="translate(0,93.39)" d="M55,0h925" style="stroke: rgb(40, 52, 66); stroke-opacity: 1; stroke-width: 1px;"/></g></g><g class="zerolinelayer"><path class="xzl zl crisp" transform="translate(365.06,0)" d="M0,60v385" style="stroke: rgb(40, 52, 66); stroke-opacity: 1; stroke-width: 2px;"/><path class="yzl zl crisp" transform="translate(0,445)" d="M55,0h925" style="stroke: rgb(40, 52, 66); stroke-opacity: 1; stroke-width: 2px;"/></g><path class="xlines-below"/><path class="ylines-below"/><g class="overlines-below"/><g class="xaxislayer-below"/><g class="yaxislayer-below"/><g class="overaxes-below"/><g class="plot" transform="translate(55,60)" clip-path="url(#clip91a9b6xyplot)"><g class="scatterlayer mlayer"><g class="trace scatter trace7d3aef" style="stroke-miterlimit: 2;"><g class="fills"><g><path class="js-fill" d="M925,385L0,385L0,383.24L6.17,382.85L12.33,383.4L24.67,382.62L30.83,382.93L49.33,381.84L55.5,382.11L61.67,381.6L67.83,380.16L80.17,380.86L86.33,380.27L92.5,381.05L98.67,380.27L141.83,374.26L148,371.76L154.17,370.94L160.33,371.68L191.17,363.63L197.33,360.43L209.67,356.56L215.83,352.61L222,348.47L228.17,341.13L234.33,339.13L240.5,334.99L246.67,330.62L252.83,321.95L259,316.94L265.17,304.4L271.33,296.32L277.5,291.16L283.67,278.42L289.83,263.62L296,243.03L302.17,187.83L308.33,19.25L314.5,129.26L320.67,161.1L326.83,165.09L333,171.07L339.17,173.76L345.33,175.17L351.5,178.25L363.83,188.88L370,195.91L376.17,197.2L382.33,201.62L388.5,208.53L394.67,212.4L419.33,231.66L425.5,237.72L431.67,247.13L437.83,247.05L444,247.99L450.17,256.47L456.33,263.11L462.5,268.11L468.67,268.62L474.83,276.55L481,278.15L487.17,277.41L493.33,287.57L499.5,287.57L505.67,289.87L511.83,295.65L518,292.53L524.17,296.36L530.33,303.15L536.5,301.9L542.67,309.76L548.83,310.26L555,311.83L561.17,314.95L567.33,313.19L573.5,320.73L579.67,320.15L585.83,324.95L592,327.65L598.17,325.15L604.33,326.67L610.5,330.81L616.67,332.53L622.83,333.24L629,340.5L635.17,338.47L641.33,338.98L647.5,341.75L653.67,341.48L659.83,345.15L666,345.35L672.17,343.86L678.33,347.53L684.5,345.97L690.67,350.11L696.83,347.96L703,351.01L709.17,352.26L715.33,354.45L721.5,354.68L727.67,357.54L733.83,356.13L740,355.15L746.17,358.63L752.33,357.07L758.5,359.76L764.67,361.83L770.83,360.31L777,361.13L783.17,363.83L789.33,361.36L795.5,363.86L820.17,365.97L826.33,365.86L832.5,366.09L838.67,367.3L844.83,369.88L851,367.97L857.17,370.19L863.33,369.96L888,372.85L894.17,372.62L900.33,371.83L906.5,373.12L912.67,372.62L918.83,372.93L925,385" style="fill: rgb(99, 110, 250); fill-opacity: 0.5; stroke-width: 0;"/></g></g><g class="errorbars"/><g class="lines"><path class="js-line" d="M0,383.24L6.17,382.85L12.33,383.4L24.67,382.62L30.83,382.93L49.33,381.84L55.5,382.11L61.67,381.6L67.83,380.16L80.17,380.86L86.33,380.27L92.5,381.05L98.67,380.27L141.83,374.26L148,371.76L154.17,370.94L160.33,371.68L191.17,363.63L197.33,360.43L209.67,356.56L215.83,352.61L222,348.47L228.17,341.13L234.33,339.13L240.5,334.99L246.67,330.62L252.83,321.95L259,316.94L265.17,304.4L271.33,296.32L277.5,291.16L283.67,278.42L289.83,263.62L296,243.03L302.17,187.83L308.33,19.25L314.5,129.26L320.67,161.1L326.83,165.09L333,171.07L339.17,173.76L345.33,175.17L351.5,178.25L363.83,188.88L370,195.91L376.17,197.2L382.33,201.62L388.5,208.53L394.67,212.4L419.33,231.66L425.5,237.72L431.67,247.13L437.83,247.05L444,247.99L450.17,256.47L456.33,263.11L462.5,268.11L468.67,268.62L474.83,276.55L481,278.15L487.17,277.41L493.33,287.57L499.5,287.57L505.67,289.87L511.83,295.65L518,292.53L524.17,296.36L530.33,303.15L536.5,301.9L542.67,309.76L548.83,310.26L555,311.83L561.17,314.95L567.33,313.19L573.5,320.73L579.67,320.15L585.83,324.95L592,327.65L598.17,325.15L604.33,326.67L610.5,330.81L616.67,332.53L622.83,333.24L629,340.5L635.17,338.47L641.33,338.98L647.5,341.75L653.67,341.48L659.83,345.15L666,345.35L672.17,343.86L678.33,347.53L684.5,345.97L690.67,350.11L696.83,347.96L703,351.01L709.17,352.26L715.33,354.45L721.5,354.68L727.67,357.54L733.83,356.13L740,355.15L746.17,358.63L752.33,357.07L758.5,359.76L764.67,361.83L770.83,360.31L777,361.13L783.17,363.83L789.33,361.36L795.5,363.86L820.17,365.97L826.33,365.86L832.5,366.09L838.67,367.3L844.83,369.88L851,367.97L857.17,370.19L863.33,369.96L888,372.85L894.17,372.62L900.33,371.83L906.5,373.12L912.67,372.62L918.83,372.93L925,385" style="vector-effect: non-scaling-stroke; fill: none; stroke: rgb(99, 110, 250); stroke-opacity: 1; stroke-width: 2px; opacity: 1;"/></g><g class="points"/><g class="text"/></g></g></g><g class="overplot"/><path class="xlines-above crisp" d="M0,0" style="fill: none;"/><path class="ylines-above crisp" d="M0,0" style="fill: none;"/><g class="overlines-above"/><g class="xaxislayer-above"><g class="xtick"><text text-anchor="middle" x="0" y="459" transform="translate(108.9,0)" style="font-family: 'Open Sans', verdana, arial, sans-serif; font-size: 13px; fill: rgb(242, 245, 250); fill-opacity: 1; white-space: pre; opacity: 1;">−0.2</text></g><g class="xtick"><text text-anchor="middle" x="0" y="459" style="font-family: 'Open Sans', verdana, arial, sans-serif; font-size: 13px; fill: rgb(242, 245, 250); fill-opacity: 1; white-space: pre; opacity: 1;" transform="translate(236.98,0)">−0.1</text></g><g class="xtick"><text text-anchor="middle" x="0" y="459" style="font-family: 'Open Sans', verdana, arial, sans-serif; font-size: 13px; fill: rgb(242, 245, 250); fill-opacity: 1; white-space: pre; opacity: 1;" transform="translate(365.06,0)">0</text></g><g class="xtick"><text text-anchor="middle" x="0" y="459" style="font-family: 'Open Sans', verdana, arial, sans-serif; font-size: 13px; fill: rgb(242, 245, 250); fill-opacity: 1; white-space: pre; opacity: 1;" transform="translate(493.14,0)">0.1</text></g><g class="xtick"><text text-anchor="middle" x="0" y="459" style="font-family: 'Open Sans', verdana, arial, sans-serif; font-size: 13px; fill: rgb(242, 245, 250); fill-opacity: 1; white-space: pre; opacity: 1;" transform="translate(621.22,0)">0.2</text></g><g class="xtick"><text text-anchor="middle" x="0" y="459" style="font-family: 'Open Sans', verdana, arial, sans-serif; font-size: 13px; fill: rgb(242, 245, 250); fill-opacity: 1; white-space: pre; opacity: 1;" transform="translate(749.3,0)">0.3</text></g><g class="xtick"><text text-anchor="middle" x="0" y="459" style="font-family: 'Open Sans', verdana, arial, sans-serif; font-size: 13px; fill: rgb(242, 245, 250); fill-opacity: 1; white-space: pre; opacity: 1;" transform="translate(877.38,0)">0.4</text></g></g><g class="yaxislayer-above"><g class="ytick"><text text-anchor="end" x="54" y="4.55" transform="translate(0,445)" style="font-family: 'Open Sans', verdana, arial, sans-serif; font-size: 13px; fill: rgb(242, 245, 250); fill-opacity: 1; white-space: pre; opacity: 1;">0</text></g><g class="ytick"><text text-anchor="end" x="54" y="4.55" style="font-family: 'Open Sans', verdana, arial, sans-serif; font-size: 13px; fill: rgb(242, 245, 250); fill-opacity: 1; white-space: pre; opacity: 1;" transform="translate(0,405.93)">1k</text></g><g class="ytick"><text text-anchor="end" x="54" y="4.55" style="font-family: 'Open Sans', verdana, arial, sans-serif; font-size: 13px; fill: rgb(242, 245, 250); fill-opacity: 1; white-space: pre; opacity: 1;" transform="translate(0,366.86)">2k</text></g><g class="ytick"><text text-anchor="end" x="54" y="4.55" style="font-family: 'Open Sans', verdana, arial, sans-serif; font-size: 13px; fill: rgb(242, 245, 250); fill-opacity: 1; white-space: pre; opacity: 1;" transform="translate(0,327.8)">3k</text></g><g class="ytick"><text text-anchor="end" x="54" y="4.55" style="font-family: 'Open Sans', verdana, arial, sans-serif; font-size: 13px; fill: rgb(242, 245, 250); fill-opacity: 1; white-space: pre; opacity: 1;" transform="translate(0,288.73)">4k</text></g><g class="ytick"><text text-anchor="end" x="54" y="4.55" style="font-family: 'Open Sans', verdana, arial, sans-serif; font-size: 13px; fill: rgb(242, 245, 250); fill-opacity: 1; white-space: pre; opacity: 1;" transform="translate(0,249.66)">5k</text></g><g class="ytick"><text text-anchor="end" x="54" y="4.55" style="font-family: 'Open Sans', verdana, arial, sans-serif; font-size: 13px; fill: rgb(242, 245, 250); fill-opacity: 1; white-space: pre; opacity: 1;" transform="translate(0,210.59)">6k</text></g><g class="ytick"><text text-anchor="end" x="54" y="4.55" style="font-family: 'Open Sans', verdana, arial, sans-serif; font-size: 13px; fill: rgb(242, 245, 250); fill-opacity: 1; white-space: pre; opacity: 1;" transform="translate(0,171.53)">7k</text></g><g class="ytick"><text text-anchor="end" x="54" y="4.55" style="font-family: 'Open Sans', verdana, arial, sans-serif; font-size: 13px; fill: rgb(242, 245, 250); fill-opacity: 1; white-space: pre; opacity: 1;" transform="translate(0,132.45999999999998)">8k</text></g><g class="ytick"><text text-anchor="end" x="54" y="4.55" style="font-family: 'Open Sans', verdana, arial, sans-serif; font-size: 13px; fill: rgb(242, 245, 250); fill-opacity: 1; white-space: pre; opacity: 1;" transform="translate(0,93.39)">9k</text></g></g><g class="overaxes-above"/></g></g><g class="polarlayer"/><g class="smithlayer"/><g class="ternarylayer"/><g class="geolayer"/><g class="funnelarealayer"/><g class="pielayer"/><g class="iciclelayer"/><g class="treemaplayer"/><g class="sunburstlayer"/><g class="glimages"/><defs id="topdefs-91a9b6"><g class="clips"/></defs><g class="layer-above"><g class="imagelayer"/><g class="shapelayer"><path data-index="0" fill-rule="evenodd" d="M517.5,445L517.5,60" clip-path="url(#clip91a9b6x)" style="opacity: 1; stroke: rgb(242, 245, 250); stroke-opacity: 1; fill: rgb(0, 0, 0); fill-opacity: 0; stroke-dasharray: 9px, 9px; stroke-width: 1px;"/><path data-index="1" fill-rule="evenodd" d="M286.25,445L286.25,60" clip-path="url(#clip91a9b6x)" style="opacity: 1; stroke: rgb(242, 245, 250); stroke-opacity: 1; fill: rgb(0, 0, 0); fill-opacity: 0; stroke-dasharray: 9px, 9px; stroke-width: 1px;"/><path data-index="2" fill-rule="evenodd" d="M748.75,445L748.75,60" clip-path="url(#clip91a9b6x)" style="opacity: 1; stroke: rgb(242, 245, 250); stroke-opacity: 1; fill: rgb(0, 0, 0); fill-opacity: 0; stroke-dasharray: 9px, 9px; stroke-width: 1px;"/></g></g><g class="infolayer"><g class="g-gtitle"><text class="gtitle" x="500" y="25" text-anchor="middle" dy="0.7em" style="font-family: 'Open Sans', verdana, arial, sans-serif; font-size: 18px; fill: rgb(242, 245, 250); opacity: 1; font-weight: normal; white-space: pre;">n=256,963 with 42,825 stable + 214,138 unstable, dummy MAE=0.12</text></g><g class="g-xtitle"><text class="xtitle" x="517.5" y="487.7" text-anchor="middle" style="font-family: 'Open Sans', verdana, arial, sans-serif; font-size: 16px; fill: rgb(242, 245, 250); opacity: 1; font-weight: normal; white-space: pre;">WBM energy above MP convex hull (eV/atom)</text></g><g class="g-ytitle" transform="translate(4.1689453125,0)"><text class="ytitle" transform="rotate(-90,11.831249999999997,252.5)" x="11.831249999999997" y="252.5" text-anchor="middle" style="font-family: 'Open Sans', verdana, arial, sans-serif; font-size: 16px; fill: rgb(242, 245, 250); opacity: 1; font-weight: normal; white-space: pre;">count</text></g><g class="annotation" data-index="0" style="opacity: 1;"><g class="annotation-text-g" transform="rotate(0,467.5,80)"><g class="cursor-pointer" transform="translate(423,70)"><rect class="bg" x="0.5" y="0.5" width="89" height="19" style="stroke-width: 1px; stroke: rgb(0, 0, 0); stroke-opacity: 0; fill: rgb(0, 0, 0); fill-opacity: 0;"/><text class="annotation-text" text-anchor="middle" x="44.875" y="15" style="font-family: 'Open Sans', verdana, arial, sans-serif; font-size: 13px; fill: rgb(242, 245, 250); fill-opacity: 1; white-space: pre;">mean = 0.12</text></g></g></g><g class="annotation" data-index="1" style="opacity: 1;"><g class="annotation-text-g" transform="rotate(0,215.75,80)"><g class="cursor-pointer" transform="translate(150,70)"><rect class="bg" x="0.5" y="0.5" width="130" height="19" style="stroke-width: 1px; stroke: rgb(0, 0, 0); stroke-opacity: 0; fill: rgb(0, 0, 0); fill-opacity: 0;"/><text class="annotation-text" text-anchor="middle" x="65.34375" y="15" style="font-family: 'Open Sans', verdana, arial, sans-serif; font-size: 13px; fill: rgb(242, 245, 250); fill-opacity: 1; white-space: pre;">mean - std = -0.06</text></g></g></g><g class="annotation" data-index="2" style="opacity: 1;"><g class="annotation-text-g" transform="rotate(0,678.75,80)"><g class="cursor-pointer" transform="translate(614,70)"><rect class="bg" x="0.5" y="0.5" width="129" height="19" style="stroke-width: 1px; stroke: rgb(0, 0, 0); stroke-opacity: 0; fill: rgb(0, 0, 0); fill-opacity: 0;"/><text class="annotation-text" text-anchor="middle" x="64.75" y="15" style="font-family: 'Open Sans', verdana, arial, sans-serif; font-size: 13px; fill: rgb(242, 245, 250); fill-opacity: 1; white-space: pre;">mean + std = 0.30</text></g></g></g></g></svg>
