<svg id="图层_1" data-name="图层 1" xmlns="http://www.w3.org/2000/svg" viewBox="0 0 1920 1080"><defs><style>.cls-1{fill:#fff;}</style></defs><path class="cls-1" d="M1432.07,211c21.1,10.82,42.67,20.89,60.48,37.05,3.26,3,7.07,3.71,11.28,3l2.34,3.09c-.15,3,.55,5.34,4.12,5.6l-.17-.13a3.34,3.34,0,0,0,2.79,3.77c40.34,51.23,59.29,111.1,67.17,174.41,15.89,127.56-25.73,239.27-101.82,338.92-97.33,127.49-229.19,203.59-382.42,243.71-163,42.69-323.69,35.05-479.64-31.87-88-37.76-160.05-95.64-213.64-175.55-2-3-3.51-6.2-5.26-9.31,12.95,3.22,20.67,13.77,30.18,21.73,21,17.61,41,36.53,65.94,48.94,10.35,7.82,4.35,19.83,7.12,29.34,15.79,6.16,13.35-6.36,14.53-14.45,25.77,3.34,11.4,24.77,17.7,36.59,4.56.92,9.05,2.45,12.79-1.54.46-6.48.91-12.77,1.35-19,21,1.76,15.54,16.54,16,27.9.53,14.79.28,14.8,15.23,12.28V919c12.4.64,17,6,15.85,17-.67,6.1.14,12.34-.18,18.49-.61,11.66,4.93,12.78,14.87,8.9V930.1c11,.46,17.48,3.27,16.22,15.36-.84,8.14.14,16.45-.23,24.66-.53,12.11,5.44,12.15,15,8.51V939.89c11.85-1,17.18,3.05,16.13,14.84-.82,9.18.11,18.5-.23,27.75-.42,11.36,4.26,13.64,15.16,8.17V946.77c5.87.59,10.37.78,14.85,4.09,0,13.63.37,27.48-.12,41.31-.38,10.67,3.6,14,15.37,9.69v-50.1l15.62,3.42c0,15.12.45,29.49-.14,43.81-.47,11.56,3.44,15.24,15.57,9.84v-52.3c5.71,1.75,10.53-.29,15.45,3.54,0,15.26.4,31.13-.13,47-.39,11.62,3.8,14.74,15.25,9.77V961.61c5.84-1.7,10.58-2.7,16.13,1.38v59.53c5.33,1.24,9.57,2.71,15-1v-59c5.58-1.6,9.92-2.2,15.77,1v61.58c11,3.26,14.6,0,14.32-9.93-.46-16.43,0-32.89.16-49.33,0-1.36,1.14-2.7,2-4.56,4.34.85,9-1.82,14,3.16v63.08c5.5,1.77,9.81,2.85,15.17-1.93V961.09c6.44-.46,11.4-2.27,18.16.55v68.9c10.93,2.87,14.77.12,14.43-10.07-.68-20.43-.2-40.9-.2-61.34,6.45-1.52,11.61-4.25,18.54-.12v71.41c5.35,1.06,9.2,2.31,14.25-.83V955.37c6.84-2,12.32-5.41,19.69-1.66v75.86c5,2.71,8.8,2.51,13.76.67V949l16-2.87c0,24.32.41,47.88-.18,71.42-.28,11.17,4.3,13.43,14.91,10.23v-84.5c6.56-1.58,11.82-4.68,18.92-3.14v82.45c5.22,1.28,9.47,2.82,14.73-1.52,0-23.29.77-47.39-.3-71.42-.61-13.64,4.7-18.58,19.26-17.93V1018c12.11,3.39,14.32-1.76,14.18-10.79-.35-22.1.52-44.23-.35-66.3-.51-12.84,3.24-19.51,18.56-18,0,24.91-.13,50,.1,75.08,0,5.52-2.73,13.54,7.66,13.22,9.28-.29,6.6-7.54,6.64-12.59.2-23.65.61-47.31-.16-70.93-.31-9.53,3.36-13.38,11.8-16.21a944.75,944.75,0,0,0,105.47-42.81c97.28-46.37,187.1-103.08,258.09-185.94,51-59.54,92.21-123.59,94.84-205.36,2.73-84.9-25.78-156.82-93.74-209.24-98.38-75.88-238.91-72.71-339.64,5-6.06,4.67-10.66,12.87-21.89,11.55,36.93-42.37,79.52-74.05,133-88.86C1300,176.8,1366.81,184.92,1432.07,211Z"/><path class="cls-1" d="M487.93,869.05c-39.24-6-78.93-51.89-80.84-52.42-40.34-51.23-59.29-111.1-67.17-174.41C324,514.66,365.65,403,441.74,303.3,539.07,175.81,670.93,99.71,824.16,59.59c163-42.69,323.69-35.05,479.64,31.87,88,37.76,160,95.64,213.64,175.55,2,2.95,3.51,6.2,5.26,9.31-13-3.22-20.67-13.77-30.18-21.73-21-17.61-41-36.53-65.94-48.94-10.35-7.82-4.35-19.83-7.12-29.34-15.79-6.16-13.35,6.36-14.53,14.45-25.77-3.34-11.4-24.77-17.7-36.59-4.56-.92-9-2.45-12.79,1.54-.46,6.48-.91,12.77-1.35,19-21-1.76-15.54-16.54-15.95-27.9-.53-14.79-.28-14.8-15.23-12.28V161c-12.4-.64-17.05-6-15.85-17,.67-6.1-.14-12.34.18-18.49.61-11.66-4.93-12.78-14.87-8.9V149.9c-11-.46-17.48-3.27-16.22-15.36.84-8.14-.14-16.45.23-24.66.53-12.11-5.44-12.15-15-8.51v38.74c-11.85,1-17.18-3.05-16.13-14.84.82-9.18-.11-18.5.23-27.75.42-11.36-4.26-13.64-15.16-8.17v43.88c-5.87-.59-10.37-.78-14.85-4.09,0-13.63-.37-27.48.12-41.31.38-10.67-3.6-14-15.37-9.69v50.1l-15.62-3.42c0-15.12-.45-29.49.14-43.81.47-11.56-3.44-15.24-15.57-9.84v52.3c-5.71-1.75-10.53.29-15.45-3.54,0-15.26-.4-31.13.13-47,.39-11.62-3.79-14.74-15.25-9.77v55.21c-5.84,1.7-10.58,2.7-16.13-1.38V57.48c-5.33-1.24-9.57-2.71-15,1v59c-5.58,1.6-9.92,2.2-15.77-1V54.93c-11-3.25-14.6,0-14.32,9.93.46,16.43,0,32.88-.16,49.33,0,1.36-1.14,2.7-2,4.56-4.34-.85-9,1.82-14-3.16V52.51c-5.5-1.77-9.81-2.85-15.17,1.93v64.47c-6.44.46-11.4,2.27-18.16-.55V49.46c-10.93-2.87-14.77-.12-14.43,10.07.68,20.43.2,40.9.2,61.34-6.45,1.52-11.61,4.25-18.54.12V49.58c-5.35-1.06-9.2-2.31-14.25.83v74.22c-6.84,2-12.32,5.41-19.69,1.66V50.43c-5-2.71-8.8-2.51-13.76-.67v81.29l-16,2.87c0-24.32-.41-47.88.18-71.42.28-11.17-4.3-13.43-14.91-10.23v84.5c-6.56,1.58-11.82,4.68-18.92,3.14V57.46c-5.22-1.28-9.47-2.82-14.73,1.52,0,23.29-.77,47.39.3,71.42C903,144,897.66,149,883.1,148.33V62c-12.11-3.39-14.32,1.76-14.18,10.79.35,22.1-.52,44.23.35,66.3.51,12.84-3.24,19.51-18.56,18,0-24.91.13-50-.1-75.08-.05-5.52,2.73-13.54-7.66-13.22-9.28.29-6.6,7.54-6.64,12.59-.2,23.65-.61,47.31.16,70.93.31,9.53-3.36,13.38-11.8,16.21A944.75,944.75,0,0,0,719.2,211.39c-97.28,46.37-187.1,103.08-258.09,185.94-51,59.54-92.21,123.59-94.84,205.36-2.73,84.9,25.78,156.82,93.74,209.24,98.38,75.88,238.9,72.71,339.64-5,6.06-4.67,10.66-12.87,21.89-11.55-36.93,42.37-79.52,74-133,88.86C620,903.2,553.19,895.08,487.93,869.05Z"/><path class="cls-1" d="M1510.29,263.31c-3.57-.26-4.27-2.62-4.12-5.61C1509,258.51,1509.86,260.74,1510.29,263.31Z"/><path class="cls-1" d="M1512.91,266.94a3.34,3.34,0,0,1-2.79-3.77Z"/><path class="cls-1" d="M1245.81,759c4.66-23.42,8.83-44.4,13.31-66.94-21.06-3.11-41.4-2.29-61.66-2.32-15.94,0-31.94,1.2-47.8.16-11.72-.77-19.36,3.26-25.83,12.49-11.21,16-22.89,31.62-34.64,47.2-3.28,4.34-6.18,9.45-13.1,9.42-36.39-.13-72.78-.06-108.49-.06-2.72-6.5,1.11-9.15,3.6-12.18q160.17-195.61,320.4-391.19c3.17-3.88,5.39-8.44,11.81-8.41,39,.2,78,.1,118.16.1-6.18,48.79-12.06,96.1-18.18,143.38-10.89,84-22.23,167.94-32.58,252-1.6,13-5.7,17.06-18.93,16.67C1317.53,758.35,1283.14,759,1245.81,759Zm55.64-292.63c-31.74,43.63-66.81,84.19-97.49,131.27,13.87,0,24.57.34,35.25-.09,12.72-.5,28.82,5.4,37.22-2.42,7.48-7,7.13-22.72,9.47-34.74C1292,529.28,1300.19,498.53,1301.45,466.39Z"/><path class="cls-1" d="M760.56,449.54c14.12-36.53,32.45-66.78,48.78-98,1.94-3.71,5.19-4.3,9.06-4.3,109.53.06,219.06,0,330.48,0-13.8,34-30.47,65.05-46,96.6-3.18,6.45-8.54,4.61-13.31,4.63-29.33.16-58.67.52-88-.15-10.57-.24-16.13,2.79-21.06,12.77C933.69,555.88,886,650.2,839.12,744.93c-5.31,10.72-11.2,14.78-23.35,14.42-32.81-1-65.67-.32-101-.32L871.88,449.54Z"/><path class="cls-1" d="M428.08,759c16-30.87,30-58.67,44.61-86.18,55.34-104.19,111-208.21,166.07-312.56,5.3-10,11-13.62,22.34-13.31,31.3.88,62.64.31,94.83.31-1.69,11.24-7.76,19.65-12.35,28.49q-95.77,184.34-191.7,368.6c-5.64,10.88-12,15.4-24.72,15C495.35,758.32,463.48,759,428.08,759Z"/></svg>